<svg width="244" height="288" viewBox="0 0 244 288" fill="none" xmlns="http://www.w3.org/2000/svg">
<path d="M34.5897 35.843L24.5304 175.919C24.4777 176.653 25.03 177.29 25.7639 177.343L166.937 187.47C167.671 187.523 168.308 186.97 168.361 186.236L178.42 46.1604C178.473 45.4265 177.921 44.7888 177.187 44.7361L36.014 34.6094C35.2801 34.5568 34.6424 35.1091 34.5897 35.843Z" fill="#F4F7FA"/>
<path fill-rule="evenodd" clip-rule="evenodd" d="M34.7013 34.2882L28.6932 117.949L173.491 128.336L179.5 44.6752L34.7013 34.2882Z" fill="#C4D9ED"/>
<path fill-rule="evenodd" clip-rule="evenodd" d="M35.0815 131.126L34.5639 138.333L160.846 147.392L161.364 140.185L35.0815 131.126Z" fill="#C4D9ED"/>
<path fill-rule="evenodd" clip-rule="evenodd" d="M33.2832 156.172L32.7656 163.379L89.4112 167.443L89.9288 160.235L33.2832 156.172Z" fill="#C4D9ED"/>
<path fill-rule="evenodd" clip-rule="evenodd" d="M34.1811 143.65L33.6636 150.857L159.946 159.916L160.464 152.708L34.1811 143.65Z" fill="#C4D9ED"/>
<path d="M33.7259 35.7805L23.6666 175.856C23.5797 177.067 24.4909 178.12 25.7019 178.206L166.875 188.333C168.086 188.42 169.138 187.509 169.225 186.298L179.284 46.2219C179.371 45.0109 178.46 43.9587 177.249 43.8719L36.076 33.7452C34.8651 33.6583 33.8129 34.5695 33.7259 35.7805Z" stroke="#ACCCE9" stroke-width="1.73204"/>
<path d="M3.69585 56.9522L3.69037 197.388C3.69034 198.124 4.28684 198.72 5.02268 198.72L146.559 198.715C147.295 198.715 147.891 198.118 147.891 197.382L147.897 56.9463C147.897 56.2104 147.3 55.6139 146.565 55.614L5.02821 55.6198C4.2924 55.6199 3.69588 56.2164 3.69585 56.9522Z" fill="#F5FAFF"/>
<path fill-rule="evenodd" clip-rule="evenodd" d="M3.69543 55.3936L3.69207 139.27L148.863 139.264L148.867 55.3878L3.69543 55.3936Z" fill="#D6EBFF"/>
<path fill-rule="evenodd" clip-rule="evenodd" d="M11.0073 151.956L11.007 159.182L137.615 159.177L137.615 151.951L11.0073 151.956Z" fill="#D6EBFF"/>
<path fill-rule="evenodd" clip-rule="evenodd" d="M11.0063 177.066L11.0061 184.291L67.7976 184.289L67.7978 177.063L11.0063 177.066Z" fill="#D6EBFF"/>
<path fill-rule="evenodd" clip-rule="evenodd" d="M11.0063 164.511L11.0061 171.736L137.614 171.731L137.614 164.505L11.0063 164.511Z" fill="#D6EBFF"/>
<path d="M2.82983 56.9517L2.82435 197.387C2.8243 198.602 3.80853 199.586 5.02266 199.586L146.559 199.58C147.773 199.58 148.757 198.596 148.757 197.382L148.763 56.9458C148.763 55.7316 147.779 54.7474 146.565 54.7475L5.02823 54.7533C3.81414 54.7534 2.82988 55.7376 2.82983 56.9517Z" stroke="#ADD8FF" stroke-width="1.73204"/>
<path fill-rule="evenodd" clip-rule="evenodd" d="M83.3408 164.517C83.3408 129.549 111.673 101.201 146.623 101.201C181.574 101.201 209.906 129.549 209.906 164.517C209.906 180.597 203.914 195.278 194.043 206.445L239.942 252.335C240.28 252.673 240.28 253.222 239.942 253.56C239.604 253.898 239.056 253.898 238.717 253.56L192.877 207.728C181.328 220.098 164.878 227.832 146.623 227.832C111.673 227.832 83.3408 199.485 83.3408 164.517ZM146.623 102.933C112.63 102.933 85.0729 130.505 85.0729 164.517C85.0729 198.529 112.63 226.1 146.623 226.1C164.696 226.1 180.948 218.308 192.21 205.896C202.13 194.962 208.174 180.447 208.174 164.517C208.174 130.505 180.616 102.933 146.623 102.933Z" fill="#89C6FF"/>
<mask id="mask0_8928_36581" style="mask-type:alpha" maskUnits="userSpaceOnUse" x="84" y="102" width="126" height="125">
<path fill-rule="evenodd" clip-rule="evenodd" d="M146.618 226.964C164.945 226.963 181.428 219.06 192.847 206.474C202.906 195.386 209.036 180.665 209.037 164.512C209.038 130.022 181.095 102.064 146.623 102.065C112.151 102.066 84.2054 130.027 84.2041 164.517C84.2027 199.007 112.146 226.966 146.618 226.964Z" fill="#D9D9D9"/>
</mask>
<g mask="url(#mask0_8928_36581)">
<path d="M32.2471 29.9537L21.0973 185.296C21.0389 186.11 21.6514 186.817 22.4653 186.875L179.024 198.112C179.838 198.17 180.545 197.558 180.604 196.744L191.754 41.4015C191.812 40.5876 191.2 39.8804 190.386 39.822L33.8266 28.5858C33.0127 28.5273 32.3055 29.1398 32.2471 29.9537Z" fill="#F4F7FA"/>
<path fill-rule="evenodd" clip-rule="evenodd" d="M32.3709 28.2291L25.7115 121.008L186.291 132.533L192.951 39.7542L32.3709 28.2291Z" fill="#C4D9ED"/>
<path fill-rule="evenodd" clip-rule="evenodd" d="M32.7964 135.621L32.2227 143.614L172.269 153.665L172.842 145.672L32.7964 135.621Z" fill="#C4D9ED"/>
<path fill-rule="evenodd" clip-rule="evenodd" d="M30.8027 163.397L30.229 171.389L93.0484 175.898L93.6221 167.905L30.8027 163.397Z" fill="#C4D9ED"/>
<path fill-rule="evenodd" clip-rule="evenodd" d="M31.7988 149.51L31.2251 157.502L171.271 167.554L171.845 159.561L31.7988 149.51Z" fill="#C4D9ED"/>
<path d="M31.2892 29.8844L20.1394 185.226C20.043 186.569 21.0536 187.736 22.3966 187.833L178.956 199.069C180.298 199.166 181.465 198.155 181.562 196.812L192.712 41.4698C192.808 40.1268 191.797 38.9599 190.454 38.8636L33.8954 27.6273C32.5524 27.5309 31.3856 28.5415 31.2892 29.8844Z" stroke="#ACCCE9" stroke-width="1.9208"/>
<path d="M-2.01329 53.3621L-2.01354 209.104C-2.01354 209.92 -1.35201 210.581 -0.535972 210.581L156.426 210.581C157.242 210.581 157.903 209.919 157.903 209.103L157.904 53.3615C157.904 52.5454 157.242 51.8839 156.426 51.8839L-0.535779 51.8846C-1.35179 51.8846 -2.01329 52.5461 -2.01329 53.3621Z" fill="#F5FAFF"/>
<path fill-rule="evenodd" clip-rule="evenodd" d="M-2.01338 51.6333L-2.01363 144.651L158.979 144.651L158.979 51.6329L-2.01338 51.6333Z" fill="#D6EBFF"/>
<path fill-rule="evenodd" clip-rule="evenodd" d="M6.09961 158.72L6.09959 166.733L146.506 166.733L146.506 158.719L6.09961 158.72Z" fill="#D6EBFF"/>
<path fill-rule="evenodd" clip-rule="evenodd" d="M6.09863 172.643L6.09862 180.657L146.505 180.656L146.505 172.643L6.09863 172.643Z" fill="#D6EBFF"/>
<path d="M-2.9737 53.3616L-2.97394 209.103C-2.97394 210.45 -1.88242 211.541 -0.535957 211.541L156.426 211.541C157.772 211.541 158.864 210.449 158.864 209.103L158.864 53.361C158.864 52.0145 157.772 50.923 156.426 50.923L-0.535796 50.9237C-1.88221 50.9237 -2.97369 52.0151 -2.9737 53.3616Z" stroke="#ADD8FF" stroke-width="1.9208"/>
</g>
<path fill-rule="evenodd" clip-rule="evenodd" d="M83.3408 164.516C83.3408 129.548 111.673 101.201 146.623 101.201C181.574 101.201 209.906 129.548 209.906 164.516C209.906 180.893 203.691 195.819 193.493 207.059C181.917 219.818 165.205 227.832 146.623 227.832C111.673 227.832 83.3408 199.484 83.3408 164.516ZM146.623 102.933C112.63 102.933 85.0729 130.504 85.0729 164.516C85.0729 198.528 112.63 226.1 146.623 226.1C164.696 226.1 180.948 218.308 192.21 205.895C202.13 194.962 208.174 180.446 208.174 164.516C208.174 130.504 180.616 102.933 146.623 102.933Z" fill="#89C6FF"/>
</svg>
