<svg id="Layer_1" data-name="Layer 1" xmlns="http://www.w3.org/2000/svg" viewBox="0 0 100 100"><defs><style>.cls-1{fill:none;}.cls-2{fill:#005eb8;}</style></defs><circle class="cls-1" cx="50" cy="50" r="50"/><path class="cls-2" d="M40.18,43H31a1,1,0,0,0-.71.29L26.59,47h-.77a3,3,0,1,0,0,2H27a1.05,1.05,0,0,0,.71-.29L31.41,45h8.77A3,3,0,0,0,43,47a2.93,2.93,0,0,0,2-.76l4.08,2.27A2.63,2.63,0,0,0,49,49a3,3,0,0,0,6,0,2.63,2.63,0,0,0,0-.49L59,46.24A3,3,0,0,0,61,47a3,3,0,0,0,1-5.82V36.81a3,3,0,1,0-3-5.05L55,29.49A2.63,2.63,0,0,0,55,29a3,3,0,0,0-6,0,2.63,2.63,0,0,0,0,.49L45,31.76A2.93,2.93,0,0,0,43,31a3,3,0,0,0-2.82,2H31.41l-3.7-3.71A1,1,0,0,0,27,29H25.82a3,3,0,1,0,0,2h.77l3.7,3.71A1,1,0,0,0,31,35h9.18A3,3,0,0,0,42,36.82V38H25.82a3,3,0,1,0,0,2H42v1.18A3,3,0,0,0,40.18,43ZM23,49a1,1,0,1,1,1-1A1,1,0,0,1,23,49Zm0-18a1,1,0,1,1,1-1A1,1,0,0,1,23,31Zm0,9a1,1,0,1,1,1-1A1,1,0,0,1,23,40Zm20,5a1,1,0,1,1,1-1A1,1,0,0,1,43,45Zm2-8.76,4.08,2.27a2.43,2.43,0,0,0,0,1L45,41.76a3,3,0,0,0-1-.58V36.81a2.79,2.79,0,0,0,1-.57ZM59,41.76,55,39.49a2.43,2.43,0,0,0,0-1L59,36.24a3.14,3.14,0,0,0,1,.58v4.36A3.14,3.14,0,0,0,59,41.76ZM46,43.51,50,41.24a3.14,3.14,0,0,0,1,.58v4.36a3.14,3.14,0,0,0-1,.58L46,44.49a2.43,2.43,0,0,0,0-1ZM52,38a1,1,0,1,1-1,1A1,1,0,0,1,52,38Zm1,3.82a3,3,0,0,0,1-.58l4.08,2.27a2.43,2.43,0,0,0,0,1L54,46.76a3,3,0,0,0-1-.58Zm5-7.33L54,36.76a3,3,0,0,0-1-.58V31.81a3,3,0,0,0,1-.57l4.08,2.27a2.43,2.43,0,0,0,0,1Zm-7,1.69a3.14,3.14,0,0,0-1,.58L46,34.49a2.43,2.43,0,0,0,0-1L50,31.24a3.14,3.14,0,0,0,1,.58ZM52,50a1,1,0,1,1,1-1A1,1,0,0,1,52,50Zm9-5a1,1,0,1,1,1-1A1,1,0,0,1,61,45Zm0-12a1,1,0,1,1-1,1A1,1,0,0,1,61,33Zm-9-5a1,1,0,1,1-1,1A1,1,0,0,1,52,28Zm-9,5a1,1,0,1,1-1,1A1,1,0,0,1,43,33Z"/><path class="cls-2" d="M41,80H57a1,1,0,0,0,1-1V72H71a1,1,0,0,0,1-1V59h7a1,1,0,0,0,.81-.41A1,1,0,0,0,80,57.7l-5-16A22.49,22.49,0,0,0,51.15,20a22.56,22.56,0,0,0-17,9.57,1,1,0,0,0,.29,1.4h0a1,1,0,0,0,1.37-.28A20.45,20.45,0,0,1,73,42.05a.92.92,0,0,0,.14.48L77.64,57H71a1,1,0,0,0-1,1v4H67a3,3,0,0,1-2.89-2.2,1,1,0,0,0-1-.8h0a1,1,0,0,0-1,1.25A5,5,0,0,0,67,64h3v6H57a1,1,0,0,0-1,1v7H42V77a46.24,46.24,0,0,0-7-23.92,20.35,20.35,0,0,1-2-4.43A1,1,0,0,0,31.74,48h0A1,1,0,0,0,31,49.24a22.39,22.39,0,0,0,2.23,4.91A44.26,44.26,0,0,1,40,77v2a1,1,0,0,0,1,1Z"/></svg>