<svg id="Layer_1" data-name="Layer 1" xmlns="http://www.w3.org/2000/svg" viewBox="0 0 100 100"><defs><style>.cls-1{fill:none;}.cls-2{fill:#005eb8;}</style></defs><circle class="cls-1" cx="50" cy="50" r="50"/><path class="cls-2" d="M49.54,82.5a1.06,1.06,0,0,1-.73-.3L26,63.67a1,1,0,0,1,.76-1.73,1,1,0,0,1,.73.3L49.54,80l23-18.61a1,1,0,0,1,1.79.7,1,1,0,0,1-.3.73L50.3,82.17a1.06,1.06,0,0,1-.76.33Z"/><path class="cls-2" d="M31.24,57.78a3.81,3.81,0,0,1-.59-.05,3.64,3.64,0,0,1,.59-7.24,5.09,5.09,0,0,1,.55,0,3.64,3.64,0,0,1,1.39.54l.21.14,2.93-2.14V34.6a1.06,1.06,0,0,1,.63-.94l11.94-5.48V24.65l-.23-.09a3.65,3.65,0,1,1,2.54,0l-.24.09v3.53l11.93,5.47a1.07,1.07,0,0,1,.64,1V49l3,2.24.22-.14a3.31,3.31,0,0,1,1.35-.54,4.3,4.3,0,0,1,.61-.05,3.65,3.65,0,0,1,.55,7.25,3.92,3.92,0,0,1-.59.05,3.64,3.64,0,0,1-3.49-4.67l.07-.24-3-2.16-12,5.51a1,1,0,0,1-.43.09,1.07,1.07,0,0,1-.43-.09L37.59,50.74l-2.94,2.13.08.24a3.64,3.64,0,0,1-3.49,4.67Zm0-5.23a1.61,1.61,0,0,0-.93.3,1.59,1.59,0,0,0,.93,2.87,1.6,1.6,0,0,0,.92-.3,1.58,1.58,0,0,0-.67-2.85Zm37.5,0-.26,0a1.6,1.6,0,0,0-1,.64,1.57,1.57,0,0,0,.08,1.95,1.58,1.58,0,0,0,1.2.55,1.5,1.5,0,0,0,.72-.17,1.58,1.58,0,0,0-.72-3ZM51,41.05V53.67l10.51-4.81V36.21ZM38.38,48.86l10.51,4.81V41.05L38.38,36.21ZM39.87,34.6l10,4.65L60,34.6,49.91,30ZM50,19.57a1.58,1.58,0,1,0,1.58,1.58A1.6,1.6,0,0,0,50,19.57Z"/></svg>