<svg id="Layer_1" data-name="Layer 1" xmlns="http://www.w3.org/2000/svg" viewBox="0 0 100 100"><defs><style>.cls-1{fill:none;}.cls-2{fill:#005eb8;}</style></defs><circle class="cls-1" cx="50" cy="50" r="50"/><path class="cls-2" d="M50,81.5a4,4,0,0,1-4-4,5.62,5.62,0,0,1,.06-.56l0-.14L28.47,66.63l-.11.1a4.07,4.07,0,0,1-1.7.91,4.19,4.19,0,0,1-1,.12,4,4,0,0,1-1-7.9l.15,0V40.18l-.15,0a4.08,4.08,0,0,1-1.69-.9,4,4,0,1,1,5.37-6l.11.1L46.06,23.23l0-.14a5.51,5.51,0,0,1-.06-.57,4,4,0,0,1,8.06,0,5.62,5.62,0,0,1-.06.56l0,.14L71.53,33.37l.11-.1a4.07,4.07,0,0,1,1.7-.91,4.19,4.19,0,0,1,1-.12,4,4,0,0,1,1,7.9l-.15,0V59.82l.15,0a4.1,4.1,0,0,1,1.69.91,4,4,0,0,1-2.69,7h0a4,4,0,0,1-2.68-1l-.11-.1L53.94,76.77l0,.14a5.51,5.51,0,0,1,.06.57A4,4,0,0,1,50,81.5Zm0-6.34a2.32,2.32,0,1,0,2.32,2.31A2.31,2.31,0,0,0,50,75.16Zm2.74-.64.1.11a4.47,4.47,0,0,1,.34.4l.1.15,17.29-10,0-.16c0-.1-.07-.2-.1-.3l0-.15H58.59ZM29.58,64.74c0,.1-.06.2-.1.3l-.05.16,17.29,10,.1-.15a4.47,4.47,0,0,1,.34-.4l.1-.11-5.85-9.93H29.62Zm19.17,8.93.29-.09.1-.18V64.59H43.4Zm2.11-.12.29.08.19-.1,5.26-8.94H50.86ZM74.3,61.42a2.32,2.32,0,1,0,2.32,2.32A2.32,2.32,0,0,0,74.3,61.42Zm-48.6,0A2.32,2.32,0,1,0,28,63.74,2.32,2.32,0,0,0,25.7,61.42Zm33.9,1.46H70.37l.1-.29-.13-.12L62.46,58ZM52.89,52.79A4,4,0,0,1,51,53.88l-.15,0v9h6.76L61,57.19l-8-4.51ZM39,57.19l3.36,5.69h6.75v-9l-.15,0a4,4,0,0,1-1.88-1.09L47,52.68Zm-9.51,5.36.09.3.16,0H40.4L37.54,58Zm33.81-6,8,4.51.11-.12.09-.11,0-.19-5.29-9Zm-34.9,4.23.22.23.18,0,7.84-4.42L33.8,51.69ZM73,40.21,67.2,50l5.86,9.93.29-.09.1-.18V40.18l-.29-.07Zm-46.24-.08-.14,0-.05.16V59.82l.16,0,.15,0,.17-.11L32.8,50,27,40.07Zm27.09,8.68,0,.16a3.45,3.45,0,0,1,0,2.06l0,.16,8,4.52L65.21,50l-3.37-5.71ZM34.79,50l3.37,5.71,8-4.52,0-.16a3.45,3.45,0,0,1,0-2.06l0-.16-8-4.52ZM50,47.68A2.32,2.32,0,1,0,52.32,50,2.31,2.31,0,0,0,50,47.68ZM28.57,39.07l-.11.17.05.12,5.29,9,2.87-4.87-8-4.51ZM71.17,39l-7.84,4.44,2.87,4.86,5.37-9.09-.11-.11L71.35,39ZM50.86,46.08l.15,0a4,4,0,0,1,1.88,1.09l.11.11,8-4.51-3.35-5.69H50.86ZM39,42.81l8,4.51.11-.11A4,4,0,0,1,49,46.12l.15,0v-9H42.39ZM62.46,42l8-4.52-.09-.3-.16,0H59.6ZM29.52,37.45l8,4.52,2.86-4.85H29.62ZM74.3,34a2.32,2.32,0,1,0,2.32,2.31A2.32,2.32,0,0,0,74.3,34ZM25.7,34A2.32,2.32,0,1,0,28,36.26,2.32,2.32,0,0,0,25.7,34Zm27.48-9c-.11.14-.22.28-.34.41l-.1.11,5.85,9.92H70.38l0-.15c0-.1.06-.2.1-.3l0-.16-17.29-10Zm-2.26,1.47-.06.16v8.81H56.6l-5.35-9.08Zm-2.25,0L43.4,35.41h5.74v-9l-.29-.07ZM29.43,34.8l.06.16c0,.1.07.2.09.3l0,.15H41.41l5.85-9.92-.1-.11c-.12-.13-.23-.27-.34-.41l-.1-.15ZM50,20.21a2.32,2.32,0,1,0,2.32,2.32A2.31,2.31,0,0,0,50,20.21Z"/></svg>