<svg id="Layer_1" data-name="Layer 1" xmlns="http://www.w3.org/2000/svg" viewBox="0 0 100 100"><defs><style>.cls-1{fill:none;}.cls-2{fill:#005eb8;}</style></defs><circle class="cls-1" cx="50" cy="50" r="50"/><path class="cls-2" d="M78.7,58.34A1.25,1.25,0,0,0,80,57.09V43.21A1.25,1.25,0,0,0,78.7,42H64.81a1.25,1.25,0,0,0-1.25,1.25v5.94H58.19V43.21A1.25,1.25,0,0,0,56.94,42H51V36.49h5.94a1.25,1.25,0,0,0,1.25-1.25V21.36a1.25,1.25,0,0,0-1.25-1.25H43.06a1.25,1.25,0,0,0-1.25,1.25V27.3H36.44V21.36a1.25,1.25,0,0,0-1.25-1.25H21.3a1.25,1.25,0,0,0-1.25,1.25V35.24a1.25,1.25,0,0,0,1.25,1.25H35.19a1.25,1.25,0,0,0,1.25-1.25V29.3h5.37v5.94a1.25,1.25,0,0,0,1.25,1.25H49V42H43.06a1.25,1.25,0,0,0-1.25,1.25V57.09a1.25,1.25,0,0,0,1.25,1.25H56.94a1.25,1.25,0,0,0,1.25-1.25V51.15h5.37v5.94a1.25,1.25,0,0,0,1.25,1.25h5.94v5.17H64.81a1.25,1.25,0,0,0-1.25,1.25V70.7H58.19V64.76a1.25,1.25,0,0,0-1.25-1.25H43.06a1.25,1.25,0,0,0-1.25,1.25V70.7H36.44V64.76a1.25,1.25,0,0,0-1.25-1.25H21.3a1.25,1.25,0,0,0-1.25,1.25V78.64a1.25,1.25,0,0,0,1.25,1.25H35.19a1.25,1.25,0,0,0,1.25-1.25V72.7h5.37v5.94a1.25,1.25,0,0,0,1.25,1.25H56.94a1.25,1.25,0,0,0,1.25-1.25V72.7h5.37v5.94a1.25,1.25,0,0,0,1.25,1.25H78.7A1.25,1.25,0,0,0,80,78.64V64.76a1.25,1.25,0,0,0-1.25-1.25h-6V58.34ZM34.44,34.49H22.05V22.11H34.44Zm9.37-12.38H56.19V34.49H43.81ZM56.19,56.34H43.81V44H56.19ZM34.44,77.89H22.05V65.51H34.44Zm21.75,0H43.81V65.51H56.19Zm21.76,0H65.56V65.51H78ZM65.56,44H78V56.34H65.56Z"/></svg>