<svg id="Layer_1" data-name="Layer 1" xmlns="http://www.w3.org/2000/svg" viewBox="0 0 100 100"><defs><style>.cls-1{fill:none;}.cls-2{fill:#005eb8;}</style></defs><circle class="cls-1" cx="50" cy="50" r="50"/><rect class="cls-1" x="43.89" y="70.03" width="12.21" height="7.9"/><path class="cls-2" d="M74.68,36.51H70.16a1,1,0,0,0-1,1h0a1,1,0,0,0,1,1h4.92v24c0,5.14,0,5.14-.14,5.27l-.12.1H24.92V38.58h4.92a1,1,0,0,0,1-1h0a1,1,0,0,0-1-1H25.32A2.48,2.48,0,0,0,22.84,39V67.56A2.48,2.48,0,0,0,25.32,70h16.5v7.9H34.66a1,1,0,1,0,0,2.07H65.34a1,1,0,1,0,0-2.07H58.18V70h16.5a2.48,2.48,0,0,0,2.48-2.47V39A2.48,2.48,0,0,0,74.68,36.51ZM56.11,77.93H43.89V70H56.11Z"/><path class="cls-2" d="M50,33.93a3.69,3.69,0,1,0,3.69,3.69A3.69,3.69,0,0,0,50,33.93Zm0,5.31a1.63,1.63,0,1,1,1.62-1.62A1.63,1.63,0,0,1,50,39.24Z"/><path class="cls-2" d="M57,45a17.92,17.92,0,0,0,4.8-2.62,15.81,15.81,0,0,0,3.95-4.27,1,1,0,0,0,0-1,16,16,0,0,0-4-4.22A19.52,19.52,0,0,0,50.23,29h-.37A20.16,20.16,0,0,0,43,30.2a18.2,18.2,0,0,0-4.8,2.62,15.78,15.78,0,0,0-4,4.28,1,1,0,0,0,0,1,16.08,16.08,0,0,0,4,4.23A19.48,19.48,0,0,0,49.88,46.2h.26A19.92,19.92,0,0,0,57,45Zm6.63-7.41a14.92,14.92,0,0,1-3.09,3.15,15.5,15.5,0,0,1-3.84,2.17,8.56,8.56,0,0,0,.08-10.55,15.93,15.93,0,0,1,6.85,5.23ZM49.89,44.13a6.52,6.52,0,0,1,.07-13h.22a6.52,6.52,0,0,1-.16,13ZM36.35,37.61a15.16,15.16,0,0,1,3.09-3.15,15.82,15.82,0,0,1,3.84-2.17,8.56,8.56,0,0,0-.08,10.55,15.85,15.85,0,0,1-6.85-5.23Z"/><path class="cls-2" d="M33.41,32.14a1,1,0,0,0,1-1v-9h9a1,1,0,0,0,0-2.06H33.41a1,1,0,0,0-1,1V31.1A1,1,0,0,0,33.41,32.14Z"/><path class="cls-2" d="M66.59,20H56.51a1,1,0,0,0,0,2.06h9v9a1,1,0,1,0,2.07,0V21A1,1,0,0,0,66.59,20Z"/><path class="cls-2" d="M66.59,43.1a1,1,0,0,0-1,1v9h-9a1,1,0,0,0,0,2.07H66.59a1,1,0,0,0,1-1V44.13A1,1,0,0,0,66.59,43.1Z"/><path class="cls-2" d="M43.49,53.17h-9v-9a1,1,0,0,0-2.07,0V54.2a1,1,0,0,0,1,1H43.49a1,1,0,0,0,0-2.07Z"/></svg>