<svg id="Layer_1" data-name="Layer 1" xmlns="http://www.w3.org/2000/svg" viewBox="0 0 100 100"><defs><style>.cls-1{fill:none;}.cls-2{fill:#005eb8;}</style></defs><circle class="cls-1" cx="50" cy="50" r="50"/><path class="cls-2" d="M78,68.45a1,1,0,0,0-1.36.46,3.75,3.75,0,0,1-.44.72A5.24,5.24,0,0,1,75,70.78a1,1,0,0,0-.44.83,1,1,0,0,0,1,1h0a1.06,1.06,0,0,0,.57-.17,7.42,7.42,0,0,0,1.67-1.59,6.87,6.87,0,0,0,.65-1,1,1,0,0,0,.05-.78A1,1,0,0,0,78,68.45Z"/><path class="cls-2" d="M74.61,53.69c-.85-1.26-1.78-2.48-2.75-3.66a45.78,45.78,0,0,0,4.33-6.21c3.52-6.16,4.1-11.37,1.63-14.67-3-4-9.76-4.29-18-1.54C57.34,21.89,53.89,18.4,50,18.4s-7.34,3.5-9.83,9.23c-8.56-2.87-15.09-2.34-18,1.52C18.87,33.59,21.1,41.34,28.15,50c-6.78,8.3-9.37,16.31-6,20.87,1.64,2.19,4.54,3.35,8.37,3.35a31.21,31.21,0,0,0,9.63-1.79c2.48,5.7,5.94,9.19,9.81,9.19s7.35-3.5,9.84-9.23a34.29,34.29,0,0,0,8.45,1.78h.09a1,1,0,0,0,1-1,1,1,0,0,0-.27-.73,1,1,0,0,0-.71-.31,32.15,32.15,0,0,1-7.82-1.65,53.08,53.08,0,0,0,2.69-11.76,70,70,0,0,0,7.25-7.12c.84,1,1.65,2.12,2.4,3.22a.56.56,0,0,1,0,.08,1,1,0,0,0,1.42.2,1,1,0,0,0,.4-.66A1,1,0,0,0,74.61,53.69ZM76.2,30.37c2.74,3.66.22,10.68-5.7,18.05a72.43,72.43,0,0,0-7.21-7.13A53,53,0,0,0,60.6,29.55a29.18,29.18,0,0,1,8.95-1.71h0C72.66,27.84,75,28.72,76.2,30.37ZM59.07,37.9a79.86,79.86,0,0,0-7-4.67,62.82,62.82,0,0,1,6.57-3A49.29,49.29,0,0,1,61,39.36C60.32,38.86,59.69,38.37,59.07,37.9ZM47.93,33.21a80.53,80.53,0,0,0-7,4.69c-.64.49-1.27,1-1.88,1.46a50.33,50.33,0,0,1,2.28-9.15A57.44,57.44,0,0,1,47.93,33.21ZM36.43,44.27c-.14,1.86-.22,3.77-.22,5.73s.08,3.89.22,5.75A69.2,69.2,0,0,1,30.82,50,70,70,0,0,1,36.43,44.27ZM40.94,62.1a78.79,78.79,0,0,0,7,4.68,61.13,61.13,0,0,1-6.59,3,49.29,49.29,0,0,1-2.28-9.13C39.69,61.14,40.32,61.63,40.94,62.1Zm16.92-1.63A75.83,75.83,0,0,1,50,65.65a77,77,0,0,1-7.85-5.17c-1.13-.85-2.3-1.79-3.5-2.79A70.65,70.65,0,0,1,38.24,50a68.17,68.17,0,0,1,.42-7.68c1.13-1,2.29-1.89,3.49-2.79A75.33,75.33,0,0,1,50,34.37a74,74,0,0,1,7.83,5.16c1.14.84,2.31,1.78,3.5,2.77a68.49,68.49,0,0,1,.43,7.7,68.18,68.18,0,0,1-.43,7.69Q59.67,59.12,57.86,60.47ZM50,32a61,61,0,0,0-7.9-3.69c2.11-4.88,4.9-7.9,7.91-7.9s5.8,3,7.91,7.87A60.67,60.67,0,0,0,50,32ZM36.73,41.28a70.09,70.09,0,0,0-7.25,7.12c-6.14-7.63-8.32-14.48-5.66-18,2.29-3.06,8.08-3.36,15.6-.85A53.08,53.08,0,0,0,36.73,41.28Zm0,17.43a53.19,53.19,0,0,0,2.7,11.76c-.8.26-1.58.5-2.35.7-6.5,1.74-11.21,1.19-13.26-1.54s-1.25-7.4,2.24-13.15a46.64,46.64,0,0,1,3.47-4.9A71.27,71.27,0,0,0,36.72,58.71ZM50,68a60.22,60.22,0,0,0,7.89,3.69c-2.11,4.88-4.9,7.9-7.92,7.9s-5.78-3-7.89-7.85A62.33,62.33,0,0,0,50,68Zm2-1.19a80.51,80.51,0,0,0,7-4.69c.64-.48,1.26-1,1.88-1.46a49.52,49.52,0,0,1-2.28,9.15A59.21,59.21,0,0,1,52.08,66.79ZM63.8,50c0-2-.08-3.89-.22-5.75A69.2,69.2,0,0,1,69.19,50a68.36,68.36,0,0,1-5.61,5.74C63.72,53.88,63.8,52,63.8,50Z"/><path class="cls-2" d="M77.76,59.35a1,1,0,0,0-.56-.54,1,1,0,0,0-.77,0,1,1,0,0,0-.54.56,1,1,0,0,0,0,.77,20,20,0,0,1,1,2.91,1,1,0,0,0,1,.76.8.8,0,0,0,.23,0h0a1,1,0,0,0,.73-1.23A21,21,0,0,0,77.76,59.35Z"/><path class="cls-2" d="M50,41.34c-3.3,0-6.65,1.18-6.65,3.44v10.9c0,2.26,3.35,3.44,6.65,3.44s6.66-1.18,6.66-3.44V44.78C56.66,42.52,53.31,41.34,50,41.34Zm0,12.12c-3,0-4.62-1.05-4.62-1.42v-1.1a12.21,12.21,0,0,0,9.25,0V52C54.63,52.41,53,53.46,50,53.46Zm0-3.64c-3,0-4.62-1-4.62-1.41v-1.1a12.33,12.33,0,0,0,9.25,0v1.1C54.63,48.77,53,49.82,50,49.82Zm0-3.63c-3,0-4.62-1-4.62-1.41S47,43.37,50,43.37s4.63,1,4.63,1.41S53,46.19,50,46.19Zm-4.62,8.39a12.33,12.33,0,0,0,9.25,0v1.1c0,.36-1.59,1.41-4.63,1.41S45.38,56,45.38,55.68Z"/></svg>