<svg id="Layer_1" data-name="Layer 1" xmlns="http://www.w3.org/2000/svg" viewBox="0 0 100 100"><defs><style>.cls-1{fill:none;}.cls-2{fill:#005eb8;}</style></defs><circle class="cls-1" cx="50" cy="50" r="50"/><path class="cls-2" d="M48.73,55.73A1.27,1.27,0,1,0,50,54.46,1.27,1.27,0,0,0,48.73,55.73Z"/><path class="cls-2" d="M53.47,52.26a4.91,4.91,0,0,0-6.95,0,.92.92,0,1,0,1.3,1.29,3.1,3.1,0,0,1,4.36,0,.88.88,0,0,0,.65.27.91.91,0,0,0,.64-1.56Z"/><path class="cls-2" d="M56.17,49.56a8.72,8.72,0,0,0-12.34,0,.92.92,0,1,0,1.29,1.3,6.89,6.89,0,0,1,9.75,0,1,1,0,0,0,.65.27.92.92,0,0,0,.65-1.57Z"/><path class="cls-2" d="M50,81.5a4.74,4.74,0,0,1-1.58-9.22l.64-.23V60.45H40.88L27.24,74.1l.29.61a4.65,4.65,0,0,1,.46,2A4.75,4.75,0,1,1,23.25,72a4.65,4.65,0,0,1,2,.46l.61.29L38.28,60.39l-1.17-.6a6,6,0,0,1-3.27-5.35,5.88,5.88,0,0,1,.42-2.19l.51-1.31H28l-.23.64a4.75,4.75,0,1,1,0-3.16l.23.64h9.19l.23-.09.31-.13.65-.26,0-.69c0-.14,0-.28,0-.43A7.88,7.88,0,0,1,40,42.54l.54-.67-6.71-6.71-.61.29a4.72,4.72,0,0,1-5.4-.92,4.74,4.74,0,0,1,0-6.71,4.74,4.74,0,0,1,6.71,0,4.75,4.75,0,0,1,.93,5.4l-.3.61L42,40.7l.62-.31a7.79,7.79,0,0,1,3.55-.84,7.49,7.49,0,0,1,1.69.19l1.17.26V28l-.64-.23a4.75,4.75,0,1,1,3.16,0l-.64.23V41.13l.35.29a9.09,9.09,0,0,1,.77.74l.43.47.6-.21a6.06,6.06,0,0,1,2-.34,6.82,6.82,0,0,1,.9.07l.47.07L72.76,25.9l-.29-.61a4.65,4.65,0,0,1-.46-2A4.75,4.75,0,1,1,76.75,28a4.65,4.65,0,0,1-2-.46l-.61-.29L58.37,43l.74.67.21.2a6,6,0,0,1,1.75,3.94l0,.68.66.19a5.81,5.81,0,0,1,.88.32l.15.07,9.25,0,.23-.64a4.75,4.75,0,1,1,0,3.16l-.23-.64H65.23l.52,1.31a6,6,0,0,1-2.86,7.54l-1.17.6,4.45,4.45.61-.29a4.74,4.74,0,1,1-2.23,2.23l.29-.61-5.72-5.72H50.94v11.6l.64.23A4.74,4.74,0,0,1,50,81.5Zm0-7.61a2.86,2.86,0,1,0,2.86,2.86A2.87,2.87,0,0,0,50,73.89Zm-26.75,0a2.86,2.86,0,1,0,2.86,2.86A2.87,2.87,0,0,0,23.25,73.89ZM68.83,66a2.86,2.86,0,1,0,2,4.88,2.88,2.88,0,0,0,0-4A2.84,2.84,0,0,0,68.83,66ZM46.2,41.43a6,6,0,0,0-6,6,6.33,6.33,0,0,0,.23,1.66,1,1,0,0,1-.13.81.94.94,0,0,1-.71.4,4.13,4.13,0,0,0,.3,8.24H60.14a4.13,4.13,0,0,0,0-8.26H60a1,1,0,0,1-.76-.36.94.94,0,0,1-.18-.82,4.12,4.12,0,0,0-6.33-4.44.93.93,0,0,1-.53.17l-.2,0a1,1,0,0,1-.62-.45A6,6,0,0,0,46.2,41.43Zm30.55,5.71A2.86,2.86,0,1,0,79.61,50,2.87,2.87,0,0,0,76.75,47.14Zm-53.5,0A2.86,2.86,0,1,0,26.11,50,2.86,2.86,0,0,0,23.25,47.14Zm7.92-18.83a2.87,2.87,0,0,0-2.86,2.86,2.81,2.81,0,0,0,.84,2,2.85,2.85,0,0,0,2,.84,2.86,2.86,0,0,0,2-4.88A2.83,2.83,0,0,0,31.17,28.31Zm45.58-7.92a2.86,2.86,0,1,0,2.86,2.86A2.87,2.87,0,0,0,76.75,20.39ZM50,20.39a2.86,2.86,0,1,0,2.86,2.86A2.86,2.86,0,0,0,50,20.39Z"/></svg>