<svg id="Layer_1" data-name="Layer 1" xmlns="http://www.w3.org/2000/svg" viewBox="0 0 100 100"><defs><style>.cls-1{fill:none;}.cls-2{fill:#005eb8;}</style></defs><circle class="cls-1" cx="50" cy="50" r="50"/><path class="cls-2" d="M50,69.37a19.57,19.57,0,0,1-6.13-1A1.09,1.09,0,0,1,43.19,67a1.07,1.07,0,0,1,1-.74,1.33,1.33,0,0,1,.34,0A17.26,17.26,0,0,0,50,67.2a16.89,16.89,0,0,0,5.44-.88,1.33,1.33,0,0,1,.34,0,1.07,1.07,0,0,1,1,.74,1.06,1.06,0,0,1-.06.82,1.08,1.08,0,0,1-.62.55A19.53,19.53,0,0,1,50,69.37Z"/><path class="cls-2" d="M50,80A20.42,20.42,0,0,1,29.7,61.18l0-.52-.51-.13c-.22-.05-5.29-1.31-5.29-6.67V38.43a6.91,6.91,0,0,1,5.34-6.69l.48-.11.07-.49a10.65,10.65,0,0,1,10.61-9.21h2.77v-.85A1.09,1.09,0,0,1,44.22,20H55.78a1.09,1.09,0,0,1,1.09,1.08v.85h2.77a10.76,10.76,0,0,1,10.62,9.21l.06.49.49.11a6.92,6.92,0,0,1,5.33,6.69V53.86a6.88,6.88,0,0,1-5.29,6.67l-.51.13,0,.52A20.44,20.44,0,0,1,50,80ZM31.9,61.51a18.2,18.2,0,0,0,36.2,0l.08-.79H58.51a7.74,7.74,0,0,1-5.42-2.24,4.38,4.38,0,0,0-6.15,0,7.74,7.74,0,0,1-5.45,2.28H31.82ZM50,55a6.59,6.59,0,0,1,4.62,1.91,5.56,5.56,0,0,0,3.89,1.62H69.28a4.71,4.71,0,0,0,4.7-4.7V38.43a4.71,4.71,0,0,0-4.7-4.7H30.72a4.71,4.71,0,0,0-4.7,4.7V53.86a4.71,4.71,0,0,0,4.7,4.7H41.49A5.57,5.57,0,0,0,45.35,57,6.58,6.58,0,0,1,50,55Zm6.87-23.46H68.18L68,30.69a8.58,8.58,0,0,0-8.33-6.6H56.87Zm-11.57,0h9.4v-9.4H45.3Zm-4.94-7.48A8.6,8.6,0,0,0,32,30.68l-.21.89h11.3V24.09Z"/><path class="cls-2" d="M48.42,38.32A1.58,1.58,0,1,0,50,36.74,1.58,1.58,0,0,0,48.42,38.32Z"/><path class="cls-2" d="M53.42,38.32A1.58,1.58,0,1,0,55,36.74,1.58,1.58,0,0,0,53.42,38.32Z"/><path class="cls-2" d="M43.42,38.32A1.58,1.58,0,1,0,45,36.74,1.58,1.58,0,0,0,43.42,38.32Z"/></svg>