<svg id="design" xmlns="http://www.w3.org/2000/svg" viewBox="0 0 155 155"><defs><style>.cls-1{fill:#fdf3e6;}.cls-2{fill:#fbb040;}.cls-3{fill:#ed8b00;}</style></defs><rect class="cls-1" x="27.5" y="27.5" width="100" height="100" rx="10"/><path class="cls-2" d="M83.66,84.14a15.43,15.43,0,0,1,1-1.21,1.37,1.37,0,0,1,1.61-.31A1.44,1.44,0,0,1,87.2,84c0,1.63,0,3.26,0,4.89a1.43,1.43,0,0,1-1.54,1.48c-1.6,0-3.2,0-4.8,0a1.47,1.47,0,0,1-1.43-1,1.36,1.36,0,0,1,.38-1.59,11.48,11.48,0,0,1,1.2-.94c-1.08-1-2-1.88-2.84-2.75a2,2,0,1,1,2.77-2.81C81.8,82.18,82.64,83.08,83.66,84.14Z"/><path class="cls-3" d="M93.36,66.87l1.32-2.67a4,4,0,0,1,2.79-2.14c-.8-2.51-2.93-4-6-4h-10c-.06,3.28,0,6.63,0,9.88h7.25a4,4,0,0,1,1.66-.65Z"/><path class="cls-3" d="M93.91,83.8c0,3.65,0,7.3,0,11,0,2.06-.65,2.72-2.69,2.72H57c-1.92,0-2.62-.68-2.62-2.6V80.71a8.07,8.07,0,0,1-3.92-1.14V95c0,4,2.41,6.39,6.38,6.39H91.55a5.88,5.88,0,0,0,6.29-6.3V82.19l-2.21,1.16A4,4,0,0,1,93.91,83.8Z"/><path class="cls-2" d="M54.42,77.25c.12,0,.24,0,.36,0H73.9a3.88,3.88,0,0,0,4.18-4.12c0-1.74,0-3.48,0-5.22,0-3.3,0-6.59,0-9.88v-.32a4.16,4.16,0,0,0-4-4.14H74c-1.3,0-2.61,0-3.91,0l-5.79,0H54.77a4,4,0,0,0-4.25,4.26c0,2,0,4.09,0,6.13,0,3,0,6,0,9A3.9,3.9,0,0,0,54.42,77.25Zm.82-15.71H73.43c.21,0,.42,0,.74.07,0,2.14,0,4.23,0,6.32,0,1.47,0,2.93,0,4.39,0,.9-.71,1-1.44,1H56c-1.25,0-1.59-.33-1.59-1.58V67.94c0-1.85,0-3.71,0-5.56C54.4,61.74,54.6,61.54,55.24,61.54Z"/><path class="cls-2" d="M99,65.59l1.85,3.76a.83.83,0,0,0,.64.46l4.14.6a.85.85,0,0,1,.47,1.45l-3,2.92a.86.86,0,0,0-.25.76l.71,4.12a.85.85,0,0,1-1.24.9l-3.7-2a.85.85,0,0,0-.79,0l-3.7,2a.85.85,0,0,1-1.24-.9l.71-4.12a.86.86,0,0,0-.24-.76l-3-2.92a.85.85,0,0,1,.47-1.45l4.14-.6a.83.83,0,0,0,.64-.46l1.85-3.76A.86.86,0,0,1,99,65.59Z"/></svg>