<svg id="design" xmlns="http://www.w3.org/2000/svg" viewBox="0 0 155 155"><defs><style>.cls-1{fill:#fdf3e6;}.cls-2{fill:#ed8b00;}.cls-3{fill:#fbb040;}</style></defs><rect class="cls-1" x="27.5" y="27.5" width="100" height="100" rx="10"/><path class="cls-2" d="M89.46,99.25c-2.54,0-5.08,0-7.62,0-2.74,0-4.34-1.6-4.34-4.32q0-5.43,0-10.84a4,4,0,0,1,4.19-4.28q9.56-.06,19.11,0A4,4,0,0,1,105,84.06c0,3.65,0,7.3,0,11a4,4,0,0,1-4.23,4.22c-2.58,0-5.15,0-7.73,0Zm1.78-16c-3,0-6.07,0-9.11,0-.85,0-1.22.21-1.21,1.14q.06,5.15,0,10.29c0,.83.26,1.14,1.11,1.14q9.23,0,18.45,0c.86,0,1.1-.33,1.09-1.14,0-3.43,0-6.87,0-10.3,0-.94-.38-1.14-1.22-1.13C97.32,83.27,94.28,83.25,91.24,83.25Z"/><path class="cls-2" d="M62,69.55l-7.51,0C51.61,69.49,50,67.88,50,65c0-3.55,0-7.09,0-10.63A4,4,0,0,1,54.35,50H73.14a4,4,0,0,1,4.36,4.33c0,3.62,0,7.23,0,10.85a4.05,4.05,0,0,1-4.3,4.31c-2.58,0-5.15,0-7.73,0Zm1.72-16.11c-3,0-6.08,0-9.12,0-.87,0-1.22.24-1.21,1.16q.06,5.14,0,10.3c0,.9.33,1.19,1.2,1.18q9.12,0,18.25,0c.86,0,1.21-.28,1.2-1.18,0-3.43,0-6.87,0-10.3,0-.92-.34-1.17-1.2-1.16C69.83,53.47,66.79,53.44,63.75,53.44Z"/><path class="cls-2" d="M65.47,71.69a10.7,10.7,0,0,1,1.39.1,1.6,1.6,0,0,1,1.43,1.72,1.49,1.49,0,0,1-1.49,1.64q-3.06.1-6.11,0a1.51,1.51,0,0,1-1.5-1.65,1.61,1.61,0,0,1,1.45-1.71,10.7,10.7,0,0,1,1.39-.1Z"/><path class="cls-2" d="M93,101.53a9.08,9.08,0,0,1,1.28,0,1.62,1.62,0,0,1,1.52,1.64,1.58,1.58,0,0,1-1.5,1.74q-3,.1-6.09,0a1.58,1.58,0,0,1-1.5-1.75,1.6,1.6,0,0,1,1.52-1.63,9.13,9.13,0,0,1,1.28,0Z"/><path class="cls-3" d="M92.33,60.72c1.89,0,3.81,3,3,4.75a2.09,2.09,0,0,1-1.82,1.3,2.16,2.16,0,0,1-2.14-1A17.8,17.8,0,0,1,90.31,64,2.24,2.24,0,0,1,92.33,60.72Z"/><path class="cls-3" d="M62.6,94.27c-1.42,0-2-1.07-2.61-2.07a2.65,2.65,0,0,1-.2-2.93,2.28,2.28,0,0,1,3.8-.13A16.11,16.11,0,0,1,64.67,91,2.24,2.24,0,0,1,62.6,94.27Z"/><path class="cls-3" d="M91.25,72.29c0-2,1-3,2.66-2.75,1.31.15,2.13,1.41,2,3.06s-1,2.61-2.52,2.55c-1.33-.05-2.11-1-2.13-2.54Z"/><path class="cls-3" d="M63.75,82.63c0,1.53-.5,2.43-1.53,2.76a2.28,2.28,0,0,1-3-1.67,4.22,4.22,0,0,1,0-2,2.2,2.2,0,0,1,2.55-1.88,2.23,2.23,0,0,1,2,2.26C63.76,82.27,63.75,82.45,63.75,82.63Z"/><path class="cls-3" d="M85,59.22c1.54,0,2.25.38,2.66,1.46a2.14,2.14,0,0,1-.67,2.5,3.73,3.73,0,0,1-4,.08,2.12,2.12,0,0,1-.79-2.46,2.16,2.16,0,0,1,2.06-1.58Z"/><path class="cls-3" d="M70,95.77A2.3,2.3,0,0,1,67.71,95a2.13,2.13,0,0,1-.34-2.31,2.19,2.19,0,0,1,2-1.42c1.13,0,2.32-.22,3.12.91a2.25,2.25,0,0,1-1.69,3.61C70.52,95.78,70.27,95.77,70,95.77Z"/><path class="cls-3" d="M93,101.53H89.5c0-.76,0-1.52,0-2.28H93C93,100,93,100.77,93,101.53Z"/><ellipse class="cls-3" cx="63.75" cy="70.62" rx="2.43" ry="1.52"/></svg>