<svg id="design" xmlns="http://www.w3.org/2000/svg" viewBox="0 0 155 155"><defs><style>.cls-1{fill:#cff9dc;}.cls-2{fill:#17c963;}.cls-3{fill:#7eed9b;}</style></defs><rect class="cls-1" x="27.5" y="27.5" width="100" height="100" rx="10"/><path class="cls-2" d="M77.47,93H66.92a3.24,3.24,0,0,1-3.33-3A3.32,3.32,0,0,1,64.12,88q4.35-7.51,8.68-15l1.83-3.16a3.24,3.24,0,0,1,5.73,0q5.31,9.16,10.58,18.33a3.23,3.23,0,0,1-2.88,5Z"/><path class="cls-1" d="M75.73,84.41c-.4-.43-.76-.82-1.14-1.19a1.41,1.41,0,1,0-2,2c.64.65,1.28,1.29,1.93,1.93a1.54,1.54,0,0,0,2.45,0l3.68-3.68c.61-.61,1.22-1.21,1.82-1.83a1.39,1.39,0,0,0,.19-1.69,1.29,1.29,0,0,0-1.48-.64,2,2,0,0,0-.86.51C78.81,81.31,77.3,82.84,75.73,84.41Z"/><path class="cls-3" d="M77.39,102.68h-20c-4.61,0-7.41-2.82-7.41-7.44V59.7c0-4.54,2.82-7.37,7.36-7.37H97.64c4.53,0,7.36,2.84,7.36,7.37V95.35c0,4.46-2.85,7.32-7.31,7.32ZM54.56,63.81V95.1c0,2.23.8,3,3,3H97.32c2.37,0,3.12-.77,3.12-3.17V65a2.21,2.21,0,0,0-.14-1.2Z"/></svg>