<svg id="design" xmlns="http://www.w3.org/2000/svg" viewBox="0 0 155 155"><defs><style>.cls-1{fill:#cff9dc;}.cls-2{fill:#7eed9b;}.cls-3{fill:#17c963;}</style></defs><rect class="cls-1" x="27.5" y="27.5" width="100" height="100" rx="10"/><path class="cls-2" d="M68.41,85.35l0,.07h7v-.07Z"/><path class="cls-3" d="M64.2,94c0,2.34,0,2.34-2.37,2.33a2,2,0,0,1-1.8-.59,3.93,3.93,0,0,0-5.93-.28,4.1,4.1,0,0,0,.06,5.86,4,4,0,0,0,6-.4,1.28,1.28,0,0,1,1.13-.52c1.54,0,3.07,0,4.61,0s2.42-.77,2.42-2.41c0-3,0-5.89,0-8.84a1.55,1.55,0,0,1,.1-.93H64.2Z"/><path class="cls-3" d="M75.43,94.56c0,.4-.31.53-.54.73a4,4,0,0,0-.38,5.9,4.08,4.08,0,1,0,5.59-5.91c-.21-.18-.52-.29-.52-.64V88.26H75.42C75.42,90.39,75.42,92.48,75.43,94.56Z"/><path class="cls-2" d="M79.58,85.35v.07h6.15v-.07Z"/><path class="cls-3" d="M85.73,88.26v1c0,2.92,0,5.83,0,8.75,0,1.72.73,2.42,2.47,2.43s3.53,0,5.29,0a1.7,1.7,0,0,1,1.54.67,3.69,3.69,0,0,0,3.61,1.33,4.09,4.09,0,0,0,3.45-3.53,4.16,4.16,0,0,0-2.37-4.24,4,4,0,0,0-4.78,1.1c-.21.23-.34.58-.71.59-1.46,0-2.92,0-4.38,0V88.26Z"/><path class="cls-2" d="M89.85,85.36l1.72-.25a12.38,12.38,0,0,0,.61-24.38,2.09,2.09,0,0,1-1.5-1A15.18,15.18,0,0,0,77.07,52.5,15.5,15.5,0,0,0,62.52,63.76a1,1,0,0,1-.89.8,10.41,10.41,0,0,0-1.89,20.06,13.54,13.54,0,0,0,4.46.72v.08h4.18l0-.07h7v.07h4.16v-.07h6.15v.07h4.12Z"/></svg>