<svg id="design" xmlns="http://www.w3.org/2000/svg" viewBox="0 0 155 155"><defs><style>.cls-1{fill:#e5f3fd;}.cls-2{fill:#91caf9;}.cls-3{fill:#54a4f3;}</style></defs><rect class="cls-1" x="27.5" y="27.5" width="100" height="100" rx="10"/><path class="cls-2" d="M77.48,93.57h23c3,0,4.55,1.53,4.56,4.55v2.47a4,4,0,0,1-4.4,4.41H54.34A4,4,0,0,1,50,100.64c0-1,0-1.94,0-2.9a3.94,3.94,0,0,1,4.18-4.17Z"/><path class="cls-2" d="M61.48,88.85c-.15-5.41-.42-10.72,2.71-15.51a15.93,15.93,0,0,1,15.72-7.13A16.12,16.12,0,0,1,93.18,78.64c.69,3.36.27,6.76.42,10.21ZM77.14,70.63A11.44,11.44,0,0,0,66.08,82a2.26,2.26,0,0,0,2.17,2.33,2.32,2.32,0,0,0,2.37-2.15c.44-4.39,2.56-6.55,6.9-7a2.3,2.3,0,0,0,2.28-2.34A2.36,2.36,0,0,0,77.14,70.63Z"/><path class="cls-3" d="M79.85,55.64c0,1.11,0,2.22,0,3.32a2.35,2.35,0,1,1-4.69,0q0-3.21,0-6.42A2.35,2.35,0,0,1,77.51,50a2.39,2.39,0,0,1,2.34,2.54C79.87,53.57,79.85,54.61,79.85,55.64Z"/><path class="cls-3" d="M58.92,56.65a2.13,2.13,0,0,1,1.83.81c1.51,1.48,3,3,4.48,4.47a2.34,2.34,0,1,1-3.29,3.31c-1.54-1.5-3-3-4.55-4.56a2.4,2.4,0,0,1-.57-2.76A2,2,0,0,1,58.92,56.65Z"/><path class="cls-3" d="M98.36,58.92a2.24,2.24,0,0,1-.88,1.9c-1.46,1.48-2.92,3-4.4,4.4A2.34,2.34,0,1,1,89.76,62c1.5-1.54,3-3,4.55-4.56a2.43,2.43,0,0,1,2.76-.58A2,2,0,0,1,98.36,58.92Z"/><path class="cls-3" d="M101.35,79.84a15,15,0,0,1-1.5,0,2.4,2.4,0,0,1-2.33-2.34,2.33,2.33,0,0,1,2.24-2.31,18.88,18.88,0,0,1,3.1,0A2.34,2.34,0,0,1,105,77.56a2.38,2.38,0,0,1-2.27,2.28C102.28,79.87,101.81,79.84,101.35,79.84Z"/><path class="cls-3" d="M53.38,79.85a3.92,3.92,0,0,1-2.18-.35A2.33,2.33,0,0,1,50,77.07a2.4,2.4,0,0,1,2.17-1.91c.75,0,1.5,0,2.25,0a2.35,2.35,0,1,1,0,4.69C54.1,79.86,53.74,79.85,53.38,79.85Z"/></svg>