<svg id="design" xmlns="http://www.w3.org/2000/svg" viewBox="0 0 155 155"><defs><style>.cls-1{fill:#e5f3fd;}.cls-2{fill:#54a4f3;}.cls-3{fill:#91caf9;}</style></defs><rect class="cls-1" x="27.5" y="27.5" width="100" height="100" rx="10"/><path class="cls-2" d="M81.63,105H78c-2.19,0-4.37-.07-6.55,0-4.49.16-7.81-1.86-10.39-5.37A31.77,31.77,0,0,1,57,91.41a22.83,22.83,0,0,0-6.05-9.73c-1.57-1.4-1.11-3.12.89-3.78,3.35-1.1,6.17,0,8.66,2.24a21.49,21.49,0,0,1,3.17,3.91,2,2,0,0,0,.14-1.14q0-13.47,0-26.94a3.44,3.44,0,1,1,6.86,0q0,10,0,20.08c0,.86,0,1.72,0,2.57,0,.45-.11,1.06.57,1.07s.54-.64.54-1.07q0-11.53,0-23.08c0-.71,0-1.43,0-2.15A3.46,3.46,0,0,1,75.35,50a3.39,3.39,0,0,1,3.28,3.53c0,6,0,12,0,17.93,0,.67-.27.91-.85,1.11C74.35,73.75,73,75.72,73,79.4c0,3,0,5.94,0,8.91.09,5.73,2.58,10.38,6.53,14.36.7.7,1.45,1.37,2.18,2Z"/><path class="cls-3" d="M105,84.25c-.08,2.4.22,5.09-.57,7.72-1.3,4.31-4.15,7.41-7.66,10a28.09,28.09,0,0,1-4.5,2.7,2,2,0,0,1-2,0c-4.51-2.22-8.37-5.2-10.93-9.62a13.49,13.49,0,0,1-1.88-6.63c0-3.11,0-6.23,0-9.34A2,2,0,0,1,78.92,77l11.56-3.94a2.47,2.47,0,0,1,1.59,0L103.53,77a2,2,0,0,1,1.5,2.19C105,80.76,105,82.37,105,84.25Zm-18,2.43c-1.31.07-2.07.42-2.46,1.37a2,2,0,0,0,.47,2.45c1.34,1.22,2.69,2.45,4.1,3.59a2.2,2.2,0,0,0,3.39-.4q3.15-3.9,6.2-7.9a2.25,2.25,0,0,0-.46-3.31,2.33,2.33,0,0,0-3.22.59c-1.33,1.68-2.68,3.34-3.94,5.07-.56.77-.9.82-1.66.19S88,86.57,87.05,86.68Z"/><path class="cls-2" d="M80,71.81a2,2,0,0,1-.22-1.3q0-6.93,0-13.85A6.05,6.05,0,0,1,80,54.54a3.39,3.39,0,0,1,3.86-2.18,3.47,3.47,0,0,1,2.82,3.44c0,3.87,0,7.73,0,11.6,0,2.14,0,2.14-2,2.83Z"/><path class="cls-2" d="M94.69,69.19a7.51,7.51,0,0,0-6.83,0c0-2.49-.1-4.81,0-7.12a3.24,3.24,0,0,1,3.55-2.87,3.34,3.34,0,0,1,3.24,3.11C94.75,64.52,94.69,66.74,94.69,69.19Z"/></svg>