<svg id="design" xmlns="http://www.w3.org/2000/svg" viewBox="0 0 155 155"><defs><style>.cls-1{fill:#cff9dc;}.cls-2{fill:#17c963;}.cls-3{fill:#7eed9b;}</style></defs><rect class="cls-1" x="27.5" y="27.5" width="100" height="100" rx="10"/><path class="cls-2" d="M71.66,98.1c-4.74,0-9.35,0-14,0a11.63,11.63,0,0,1-2.88-.18A6.21,6.21,0,0,1,50,92q0-17.91,0-35.83A6.17,6.17,0,0,1,56.1,50Q68.28,50,80.46,50a6,6,0,0,1,6.11,5.85c.18,6.07.05,12.15.05,18.31a30.56,30.56,0,0,0-7.25,1.64,11.45,11.45,0,0,0-3.2-11.28,10.43,10.43,0,0,0-6-2.95A2.55,2.55,0,0,0,70,62.94c0,3.11,0,6.22,0,9.33a2.92,2.92,0,0,1-1,2.28c-2.22,2.17-4.41,4.39-6.61,6.59-.27.27-.53.56-.87.93a11.28,11.28,0,0,0,10.08,1.7Zm-5.1-36.44c-3.61.12-7.62,3.39-9,7.26-1.33,3.65-.56,8.6,1.69,10.59q3.51-3.53,7-7a1.36,1.36,0,0,0,.3-1.09V61.66Z"/><path class="cls-3" d="M90.34,88.89c-4.57,0-8.67-.35-12.57-2a5.46,5.46,0,0,1-2-1.36,1.52,1.52,0,0,1,0-2.43,8.83,8.83,0,0,1,4.46-2.2A41.49,41.49,0,0,1,94.57,80a26.35,26.35,0,0,1,7.29,1.55,8.42,8.42,0,0,1,2.07,1.11c1.36,1,1.37,2.34,0,3.35A14.4,14.4,0,0,1,98,88.22,34.46,34.46,0,0,1,90.34,88.89Z"/><path class="cls-3" d="M75.13,89.7a42.83,42.83,0,0,0,29.81,0c0,.88,0,1.81,0,2.73a2.35,2.35,0,0,1-1.26,1.76,14.49,14.49,0,0,1-5.81,2.07,42.29,42.29,0,0,1-17.21-.37,14.28,14.28,0,0,1-3.79-1.43,3,3,0,0,1-1.74-3C75.17,90.87,75.13,90.26,75.13,89.7Z"/><path class="cls-3" d="M75.26,97.79a42.78,42.78,0,0,0,29.55,0c.64,2.81-.07,4.19-2.66,5.28a26.67,26.67,0,0,1-9,1.82A37.64,37.64,0,0,1,79,103.45a10.29,10.29,0,0,1-1.2-.47C75.09,101.7,74.86,101,75.26,97.79Z"/></svg>