<svg id="design" xmlns="http://www.w3.org/2000/svg" viewBox="0 0 155 155"><defs><style>.cls-1{fill:#cff9dc;}.cls-2{fill:#7eed9b;}.cls-3{fill:#17c963;}</style></defs><rect class="cls-1" x="27.5" y="27.5" width="100" height="100" rx="10"/><path class="cls-2" d="M105,66.76a1.91,1.91,0,0,0-2.08-1.23c-2,0-4.11,0-6.17,0a1.64,1.64,0,0,0-1.87,1.87V73.8a1.66,1.66,0,0,0,1.89,1.86c2,0,4,0,6.06,0A2.07,2.07,0,0,0,105,74.49Z"/><path class="cls-2" d="M105,80.51a2.06,2.06,0,0,0-2.17-1.19c-2,.05-4.08,0-6.11,0a1.65,1.65,0,0,0-1.84,1.82q0,3.27,0,6.54a1.59,1.59,0,0,0,1.76,1.76c2.09,0,4.18,0,6.27,0A1.94,1.94,0,0,0,105,88.24Z"/><path class="cls-3" d="M75.67,92V86a1.63,1.63,0,0,0-2.24-1.71A7.11,7.11,0,0,1,64.63,79a7,7,0,0,1,5.89-8.47,8.64,8.64,0,0,1,2.86.19c1.37.28,2.28-.34,2.29-1.73V57a1.66,1.66,0,0,0-1.83-1.83h-6A1.64,1.64,0,0,0,66,56.68c-.29,1.49-.58,3-.84,4.48a.8.8,0,0,1-.49.62c-1.16.64-2.28,1.32-3.44,2a1,1,0,0,1-.66.1c-1.46-.49-2.9-1-4.35-1.52a1.63,1.63,0,0,0-2.22.82q-1.84,3.18-3.67,6.37a1.64,1.64,0,0,0,.42,2.37c1.15,1,2.32,2,3.45,3a1,1,0,0,1,.25.67c0,1.31,0,2.61,0,3.91a1,1,0,0,1-.25.68c-1.13,1-2.3,2-3.45,3a1.64,1.64,0,0,0-.42,2.37q1.83,3.19,3.67,6.37a1.64,1.64,0,0,0,2.22.81c1.43-.49,2.87-1,4.3-1.51a.77.77,0,0,1,.77.11c1.11.68,2.24,1.33,3.38,2a.8.8,0,0,1,.49.62c.26,1.52.56,3,.85,4.54a1.6,1.6,0,0,0,1.71,1.44c2.08,0,4.15,0,6.23,0a1.61,1.61,0,0,0,1.71-1.72Q75.68,95,75.67,92Z"/><path class="cls-2" d="M89.46,63.68V60.46a1.65,1.65,0,0,0-1.81-1.84H81.16a1.66,1.66,0,0,0-1.82,1.84c0,2.16,0,4.33,0,6.49a1.65,1.65,0,0,0,1.79,1.81h6.54A1.63,1.63,0,0,0,89.46,67C89.47,65.86,89.46,64.77,89.46,63.68Z"/><path class="cls-2" d="M84.41,86.24H81.19a1.65,1.65,0,0,0-1.85,1.85c0,2.15,0,4.29,0,6.44a1.65,1.65,0,0,0,1.81,1.84h6.49a1.63,1.63,0,0,0,1.82-1.82V88.06a1.63,1.63,0,0,0-1.83-1.82Z"/><path class="cls-2" d="M86.16,82.56h3.33a1.57,1.57,0,0,0,1.69-1.67q0-3.37,0-6.75a1.59,1.59,0,0,0-1.73-1.69H82.8a1.62,1.62,0,0,0-1.74,1.7c0,2.23,0,4.47,0,6.7a1.61,1.61,0,0,0,1.72,1.71Z"/></svg>