<svg id="design" xmlns="http://www.w3.org/2000/svg" viewBox="0 0 155 155"><defs><style>.cls-1{fill:#e5f3fd;}.cls-2{fill:#91caf9;}.cls-3{fill:#54a4f3;}</style></defs><rect class="cls-1" x="27.5" y="27.5" width="100" height="100" rx="10"/><path class="cls-2" d="M95.73,57c.59-.63,1.11-1.22,1.66-1.78a1.6,1.6,0,0,1,1.85-.46,1.65,1.65,0,0,1,1.15,1.54c0,1.93.06,3.86,0,5.79a1.68,1.68,0,0,1-1.82,1.71c-1.86,0-3.72,0-5.58,0a1.64,1.64,0,0,1-1.61-1,1.59,1.59,0,0,1,.35-1.87c.48-.48,1-.91,1.56-1.4A23.45,23.45,0,0,0,82,53.91,24,24,0,1,0,101.27,81c.1-.64.13-1.28.23-1.92a1.73,1.73,0,0,1,1.92-1.58,1.78,1.78,0,0,1,1.49,2.12,26.41,26.41,0,0,1-2.22,8.78c-4.2,9.06-11.24,14.54-21.07,16.23-14.39,2.47-28.76-7.9-31.15-22.34a27.37,27.37,0,0,1,22.9-31.94,26.48,26.48,0,0,1,21.62,6Z"/><path class="cls-3" d="M73.83,74.93a18.64,18.64,0,0,0,5.48,5.76.7.7,0,0,0,1.15-.21,5.31,5.31,0,0,1,1-1.23,3.31,3.31,0,0,1,3.09-.74c1.27.37,2.57.61,3.84.94a3.4,3.4,0,0,1,2.83,3.64c0,1.43,0,2.86,0,4.28a3.56,3.56,0,0,1-4.37,3.82,26.15,26.15,0,0,1-13.43-5.62,25.49,25.49,0,0,1-9.23-15.12,15.54,15.54,0,0,1-.43-3,3.38,3.38,0,0,1,3.63-3.72q2.25,0,4.5,0a3.23,3.23,0,0,1,3.41,2.52c.41,1.36.78,2.74,1.06,4.14a3.27,3.27,0,0,1-1.44,3.64C74.58,74.3,74.26,74.59,73.83,74.93Z"/></svg>