<svg id="design" xmlns="http://www.w3.org/2000/svg" viewBox="0 0 155 155"><defs><style>.cls-1{fill:#fff9dd;}.cls-2{fill:#ffd546;}.cls-3{fill:#f7ba0f;}</style></defs><path class="cls-1" d="M37.5,27.5h80a10,10,0,0,1,10,10v80a10,10,0,0,1-10,10h-80a10,10,0,0,1-10-10v-80A10,10,0,0,1,37.5,27.5Z"/><path class="cls-2" d="M100.6,81.6a24.88,24.88,0,0,0-23-24.8V54.4a1.9,1.9,0,1,0-3.8,0v2.4a24.88,24.88,0,0,0-23,24.8v4.1h23V96.8a2,2,0,0,1-4,0,1.9,1.9,0,0,0-1.9-1.9A1.84,1.84,0,0,0,66,96.8a5.7,5.7,0,0,0,5.7,5.7,5.76,5.76,0,0,0,5.7-5.7V85.7h23V81.6Z"/><path class="cls-1" d="M94.7,105.5a2.66,2.66,0,0,1-1.2-.3c-.5-.2-11.2-5.1-11.2-14.6V84.5a3,3,0,0,1,2.4-2.9h0S87,81,87,79.8A3,3,0,0,1,90,77h9.4a3,3,0,0,1,3,2.8c.1,1.3,2.3,1.8,2.4,1.8a3,3,0,0,1,2.4,2.9v6.1c0,9.5-10.7,14.4-11.2,14.6A3.45,3.45,0,0,1,94.7,105.5Z"/><path class="cls-3" d="M99.4,80H90c-.2,3.7-4.7,4.6-4.7,4.6v6.1c0,7.6,9.4,11.8,9.4,11.8s9.4-4.2,9.4-11.8V84.6S99.6,83.7,99.4,80Z"/></svg>