<?xml version="1.0" encoding="utf-8"?>
<!-- Generator: Adobe Illustrator 24.2.1, SVG Export Plug-In . SVG Version: 6.00 Build 0)  -->
<svg version="1.1" id="design" xmlns="http://www.w3.org/2000/svg" xmlns:xlink="http://www.w3.org/1999/xlink" x="0px" y="0px"
	 viewBox="0 0 155 155" style="enable-background:new 0 0 155 155;" xml:space="preserve">
<style type="text/css">
	.st0{fill:#FFE9E9;}
	.st1{fill:#FC796B;}
	.st2{fill:#FDB4B4;}
</style>
<path class="st0" d="M37.5,27.5h80c5.5,0,10,4.5,10,10v80c0,5.5-4.5,10-10,10h-80c-5.5,0-10-4.5-10-10v-80
	C27.5,32,32,27.5,37.5,27.5z"/>
<path class="st1" d="M75.5,51c0.9,0.3,1.6,1,2,1.8c0.4,0.7,0.8,1.5,1.3,2.2c0.2,0.4,0.5,0.7,0.8,1c0.4-0.4,0.7-0.8,1-1.2
	c0.9-1.2,2.3-2,3.8-2.2c1.1-0.1,2.2,0.1,3.3,0.6c0.4,0.2,0.7,0.6,0.6,1.1c-0.1,1.6-0.4,3.1-1.1,4.5c-0.8,2-1.9,3.9-3.2,5.6
	c-0.2,0.2-0.4,0.4-0.7,0.6c-2.5,0.9-5.1,1.2-7.7,0.8c-1.5-0.2-3-0.6-4.5-1c-0.2,0-0.4-0.1-0.5-0.3c-2-2-3.6-4.4-4.7-7
	c-0.5-1-0.6-2.2-0.3-3.3c0.1-0.9,0.9-1.5,1.8-1.5c0.3,0,0.6,0.1,0.8,0.3c0.6,0.4,1.2,0.8,1.8,1.2s1,0.4,1.5-0.3
	c0.7-1.3,1.8-2.4,3.2-3L75.5,51z"/>
<path class="st2" d="M83.3,67.4c0.3-0.3,0.5-0.2,0.8,0c2.2,1.9,4.1,4.1,5.7,6.5c3,4.1,5.1,8.8,6.4,13.7c0.6,2.2,0.8,4.6,0.7,6.9
	c-0.3,4.2-3.4,8.2-7.2,9.2c-0.7,0.2-1.4,0.3-2.1,0.3H67.4c-3.7,0.1-7.1-2.1-8.3-5.6c-0.9-2.4-1.2-4.9-0.9-7.5
	c0.7-6.3,3.4-11.8,6.9-17c1.6-2.4,3.5-4.6,5.7-6.5c0.2-0.1,0.4-0.2,0.6-0.2c3.1,0.9,6.4,1.1,9.6,0.6c0,0.2,0,0.4-0.1,0.6
	c-0.4,1.6-1,3.2-2,4.5c-0.4,0.4-0.4,1.1,0.1,1.5c0,0,0,0,0,0l0.1,0.1c0.4,0.4,1,0.3,1.4-0.1c0.1-0.1,0.1-0.1,0.2-0.2
	c0.7-1,1.2-2,1.8-3.1l0.2,0.3c0.9,1.9,2.2,3.6,3.6,5.1c0.4,0.5,1.1,0.6,1.5,0.2c0.2-0.1,0.3-0.4,0.4-0.6c0.1-0.5-0.1-0.9-0.4-1.2
	c-1.4-1.5-2.6-3.3-3.4-5.2C83.9,69,83.6,68.2,83.3,67.4z"/>
<path class="st0" d="M86.4,87.9l-8.1-8.1c-0.4-0.4-1.2-0.4-1.6,0l0,0l-8.1,8.1c-0.5,0.3-0.6,0.9-0.4,1.4c0.2,0.4,0.7,0.6,1.1,0.5
	h1.3v6.2c0,0.8,0.4,1.2,1.2,1.2h2.1c0.5,0,0.9-0.4,0.9-0.9v-4c0-0.6,0.5-1.1,1.1-1.1c0,0,0,0,0,0h3c0.6,0,1.1,0.5,1.1,1.1v4
	c0,0.5,0.4,0.9,0.9,0.9h2.1c0.9,0,1.2-0.3,1.2-1.2v-6.2h1.3c0.5,0.1,1.1-0.3,1.2-0.8C86.9,88.5,86.8,88.1,86.4,87.9z"/>
</svg>
