<?xml version="1.0" encoding="utf-8"?>
<!-- Generator: Adobe Illustrator 24.2.1, SVG Export Plug-In . SVG Version: 6.00 Build 0)  -->
<svg version="1.1" id="design" xmlns="http://www.w3.org/2000/svg" xmlns:xlink="http://www.w3.org/1999/xlink" x="0px" y="0px"
	 viewBox="0 0 155 155" style="enable-background:new 0 0 155 155;" xml:space="preserve">
<style type="text/css">
	.st0{fill:#CFF9DC;}
	.st1{fill:#7EED9B;}
	.st2{fill:#17C963;}
</style>
<path class="st0" d="M37.5,27.5h80c5.5,0,10,4.5,10,10v80c0,5.5-4.5,10-10,10h-80c-5.5,0-10-4.5-10-10v-80
	C27.5,32,32,27.5,37.5,27.5z"/>
<g>
	<g>
		<g>
			<path class="st1" d="M60.8,62.4H63c1.9,0,3.4,1.3,3.9,3c0.4-0.4,0.7-0.9,0.9-1.4c0.7,1.8,2.5,3,4.5,3c1.8,0,3.4-1,4.2-2.4
				c1,1.1,2.5,1.8,4.1,1.8c3,0,5.5-2.5,5.5-5.5c0-3-2.5-5.5-5.5-5.5c-0.6,0-1.2,0.1-1.7,0.3c-0.7-0.7-1.7-1.1-2.7-1.1
				c-1,0-1.8,0.4-2.5,0.9c-0.8-1.8-2.6-3.1-4.7-3.1c-2.9,0-5.2,2.3-5.2,5.2c0,0.6,0.1,1.1,0.3,1.6C62.4,59.4,61,60.7,60.8,62.4z"/>
		</g>
		<g>
			<g>
				<path class="st2" d="M100,97.1h-1.2V76.9c0-0.5-0.6-0.9-1-0.6l-9.2,5.1v-4.4c0-0.5-0.6-0.9-1-0.6l-9.2,5.1v-4.4
					c0-0.5-0.6-0.9-1-0.6l-9.2,5.1v15.8h-2.8l-1.4-30.8c0-0.5-0.4-0.9-0.9-0.9h-4.1c-0.5,0-0.9,0.4-0.9,0.9l-1.4,30.8H55
					c-0.6,0-1.1,0.5-1.1,1.1v3.2c0,0.6,0.5,1.1,1.1,1.1h45c0.6,0,1.1-0.5,1.1-1.1v-3.2C101.1,97.6,100.6,97.1,100,97.1z M85.8,86.9
					c0-0.5,0.4-0.9,0.9-0.9h5.4c0.5,0,0.9,0.4,0.9,0.9v5.4c0,0.5-0.4,0.9-0.9,0.9h-5.4c-0.5,0-0.9-0.4-0.9-0.9V86.9z M73.9,86.9
					c0-0.5,0.4-0.9,0.9-0.9h5.4c0.5,0,0.9,0.4,0.9,0.9v5.4c0,0.5-0.4,0.9-0.9,0.9h-5.4c-0.5,0-0.9-0.4-0.9-0.9V86.9z"/>
			</g>
		</g>
	</g>
</g>
</svg>
