<svg id="design" xmlns="http://www.w3.org/2000/svg" viewBox="0 0 155 155"><defs><style>.cls-1{fill:#ffe9e9;}.cls-2{fill:#fdb4b4;}.cls-2,.cls-3{fill-rule:evenodd;}.cls-3{fill:#ff9797;}</style></defs><rect class="cls-1" x="27.5" y="27.5" width="100" height="100" rx="10"/><path class="cls-2" d="M102.34,93.94a4.75,4.75,0,0,0-7,0h0a5.05,5.05,0,0,1-7.2,0h0a4.74,4.74,0,0,0-7,0H81a4.77,4.77,0,0,1-7,0h0a5,5,0,0,0-7.2,0h0a4.77,4.77,0,0,1-7,0h0a5,5,0,0,0-7.2,0h0v6.86a1.7,1.7,0,0,0,1.7,1.7h46.28a1.7,1.7,0,0,0,1.7-1.7V93.94Z"/><path class="cls-3" d="M58.87,72.62v5.84H74.18V65.73a1,1,0,0,0-1-1H65.81a1,1,0,0,0-1,1v3.89h-.33l-5.16-7.5H55.71Z"/><path class="cls-2" d="M58.67,58.07h3a2.69,2.69,0,0,0,2.72-2.25h1.71a1.5,1.5,0,0,0,1.5-1.5h0a1.5,1.5,0,0,0-1.5-1.5h-2a2.69,2.69,0,0,0-2.72,2.25h-3a2.75,2.75,0,0,0-2.71,2.75v1.25h3v-1Z"/><path class="cls-3" d="M82.82,53.32,79.26,78.46H94.81L91.25,53.32a1,1,0,0,0-.94-.82H83.76A1,1,0,0,0,82.82,53.32Zm.79,14.76,6-6,.5,4.18L82.94,73.6l.67-5.52Zm5-12.57.5,3-4.68,4.86,1-7.88ZM85,75.78l5.68-6,.67,6Z"/><path class="cls-3" d="M55.85,81.35a1,1,0,0,0-1,1v3.36a1,1,0,0,0,1,1h5.5v4.51a8.67,8.67,0,0,1,.72.64,1.66,1.66,0,0,0,2.54,0,8.12,8.12,0,0,1,5.66-2.43V86.61H84.64v2.72a8.18,8.18,0,0,1,5.75,2.43,1.94,1.94,0,0,0,1.39.59,2,2,0,0,0,1.4-.59,4.49,4.49,0,0,1,.39-.36V86.61h5.74a1,1,0,0,0,1-1V82.3a1,1,0,0,0-1-1Z"/></svg>