<svg id="design" xmlns="http://www.w3.org/2000/svg" xmlns:xlink="http://www.w3.org/1999/xlink" viewBox="0 0 155 155"><defs><style>.cls-1{fill:none;}.cls-2{fill:#fff9dd;}.cls-3{fill:#f7ba0f;}.cls-4{clip-path:url(#clip-path);}.cls-5{fill:#ffd546;}</style><clipPath id="clip-path"><rect class="cls-1" x="65.58" y="60.28" width="36.11" height="34.44"/></clipPath></defs><rect class="cls-2" x="27.5" y="27.5" width="100" height="100" rx="10"/><path class="cls-3" d="M60.67,99.63V55.37h9.75v-.66A4.7,4.7,0,0,0,65.72,50H58a4.71,4.71,0,0,0-4.71,4.71v45.58A4.71,4.71,0,0,0,58,105h7.7a4.7,4.7,0,0,0,4.7-4.71v-.66Z"/><g class="cls-4"><path class="cls-5" d="M101.69,68.88V65.23a5,5,0,0,0-5-5H61.87a5,5,0,0,0-4.95,5v3.65Z"/><path class="cls-5" d="M56.92,73.84V89.77a5,5,0,0,0,4.95,5H96.74a5,5,0,0,0,5-5V73.84Zm35.86,14.8H88.59a2.26,2.26,0,0,1,0-4.52h4.19a2.26,2.26,0,1,1,0,4.52Z"/></g></svg>