<?xml version="1.0" encoding="utf-8"?>
<!-- Generator: Adobe Illustrator 24.2.1, SVG Export Plug-In . SVG Version: 6.00 Build 0)  -->
<svg version="1.1" id="design" xmlns="http://www.w3.org/2000/svg" xmlns:xlink="http://www.w3.org/1999/xlink" x="0px" y="0px"
	 viewBox="0 0 155 155" style="enable-background:new 0 0 155 155;" xml:space="preserve">
<style type="text/css">
	.st0{fill:#FFF9DD;}
	.st1{fill:#FFD546;}
	.st2{fill:#F7BA0F;}
</style>
<path class="st0" d="M37.5,27.5h80c5.5,0,10,4.5,10,10v80c0,5.5-4.5,10-10,10h-80c-5.5,0-10-4.5-10-10v-80
	C27.5,32,32,27.5,37.5,27.5z"/>
<g>
	<g>
		<path class="st1" d="M51.4,77c0-3.6,0-7.1,0-10.7c0-0.1,0.1-0.2,0.1-0.2c0.4-2,1.9-3.6,3.9-3.8c1.4-0.1,2.9-0.1,4.3-0.1
			c1.4,0,2.8,0,4.2,0c0.1-0.4,0.2-0.8,0.3-1.2c1-2.7,2.9-4.7,5.4-6c4.9-2.5,9.9-2.6,14.9-0.4c2.6,1.2,4.7,3,5.9,5.6
			c0.3,0.7,0.5,1.4,0.7,2.1c0.2,0,0.4,0,0.6,0c2.4,0,4.8,0,7.1,0c1.6,0,3,0.6,3.9,1.9c0.4,0.6,0.6,1.4,0.9,2.2c0,3.6,0,7.1,0,10.7
			c-0.2,0-0.3,0.1-0.5,0.1c-1.5,0.4-2.9,0.8-4.4,1.2c-1.4,0.3-2.9,0.6-4.3,0.9c-0.2-1.1-0.7-1.6-1.6-1.6c-2,0-4,0-6.1,0
			c-0.9,0-1.5,0.7-1.5,1.6c0,0.4,0,0.7,0,1.1c-5.1,0.4-10.2,0.4-15.3,0c0-0.4,0-0.8,0-1.1c0-0.9-0.6-1.6-1.5-1.6c-2,0-4.1,0-6.1,0
			c-0.8,0-1.3,0.5-1.5,1.2c0,0.1,0,0.3-0.1,0.5c-2-0.4-4-0.9-6-1.3C53.5,77.6,52.5,77.3,51.4,77z M67,62.2c7,0,13.9,0,20.9,0
			c0-0.1-0.1-0.3-0.1-0.4c-0.6-1.6-1.7-2.7-3.1-3.6c-1.9-1.2-4-1.9-6.2-2c-3.3-0.2-6.4,0.4-9.1,2.5C68.4,59.6,67.5,60.7,67,62.2z"/>
		<path class="st2" d="M51.4,100.9c0-6.9,0-13.8,0-20.7c3.1,0.7,6.2,1.5,9.3,2.2c0,1.8,0,3.7,0,5.7c0,1.1,0.6,1.7,1.7,1.7
			c1.9,0,3.9,0,5.8,0c1.1,0,1.7-0.6,1.7-1.7c0-1.4,0-2.8,0-4.2c0-0.2,0-0.4,0-0.6c5.1,0.4,10.2,0.3,15.3,0c0,1.6,0,3.2,0,4.7
			c0,1.1,0.6,1.7,1.7,1.7c1.9,0,3.8,0,5.7,0c1.1,0,1.7-0.6,1.7-1.7c0-1.7,0-3.5,0-5.2c0-0.2,0-0.4,0-0.6c0.8-0.1,1.6-0.2,2.3-0.4
			c2.3-0.5,4.6-1.1,7-1.7c0,6.9,0,13.8,0,20.7c-0.4,0.9-1.1,1.1-2.1,1.1c-16,0-32.1,0-48.1,0C52.5,102,51.8,101.7,51.4,100.9z"/>
		<path class="st2" d="M63.8,80.6c1,0,2,0,3,0c0,2,0,4,0,6.1c-1,0-2,0-3,0C63.8,84.7,63.8,82.6,63.8,80.6z"/>
		<path class="st2" d="M88.2,80.6c1,0,2,0,3,0c0,2,0,4,0,6.1c-1,0-2,0-3,0C88.2,84.7,88.2,82.6,88.2,80.6z"/>
	</g>
</g>
</svg>
