<svg id="design" xmlns="http://www.w3.org/2000/svg" viewBox="0 0 155 155"><defs><style>.cls-1{fill:#fdf3e6;}.cls-2{fill:#fbb040;}.cls-3{fill:none;stroke:#fdf3e6;stroke-linecap:round;stroke-miterlimit:10;stroke-width:3.5px;}.cls-4{fill:#ed8b00;}</style></defs><rect class="cls-1" x="27.5" y="27.5" width="100" height="100" rx="10"/><path class="cls-2" d="M98.13,79.82v19c0,3.78-2.39,6.16-6.17,6.16H63.07c-3.84,0-6.19-2.38-6.19-6.24,0-5.87,0-11.74,0-17.61V79.94a16.8,16.8,0,0,0-3.15-.11,3.57,3.57,0,0,1-3.52-2.32,3.48,3.48,0,0,1,1.17-3.94q12-11.23,24.08-22.5c1.52-1.42,2.56-1.43,4.07,0l7,6.52a7.28,7.28,0,0,0,.16-2.47c0-2.06.73-2.77,2.79-2.78h6c1.8,0,2.63.84,2.64,2.63,0,4.08,0,8.16,0,12.23A2.48,2.48,0,0,0,99,69.31c1.55,1.38,3,2.83,4.56,4.24a3.51,3.51,0,0,1,1.17,4,3.58,3.58,0,0,1-3.58,2.23C100.22,79.83,99.26,79.82,98.13,79.82Z"/><line class="cls-3" x1="65.3" y1="78.37" x2="88.56" y2="78.37"/><path class="cls-4" d="M72.93,73.87a4.45,4.45,0,0,1,4.5,4.49,4.5,4.5,0,0,1-4.51,4.51,4.55,4.55,0,0,1-4.49-4.48A4.5,4.5,0,0,1,72.93,73.87Z"/><line class="cls-3" x1="65.3" y1="91.37" x2="88.56" y2="91.37"/><path class="cls-4" d="M80.93,86.87a4.45,4.45,0,0,1,4.5,4.49,4.5,4.5,0,0,1-4.51,4.51,4.55,4.55,0,0,1-4.49-4.48A4.5,4.5,0,0,1,80.93,86.87Z"/></svg>