<svg id="design" xmlns="http://www.w3.org/2000/svg" viewBox="0 0 155 155"><defs><style>.cls-1{fill:#cff9dc;}.cls-2{fill:#17c963;stroke:#17c963;stroke-linecap:round;stroke-linejoin:round;stroke-width:0.75px;}.cls-3{fill:#7eed9b;}</style></defs><rect class="cls-1" x="27.5" y="27.5" width="100" height="100" rx="10"/><path class="cls-2" d="M76.08,103.06a24.93,24.93,0,0,1-15.24-5.23c-.67-.52-.71-1-.1-1.59l5.48-5.47c.5-.51.78-.52,1.4-.13q8.52,5.3,17,0a.9.9,0,0,1,1.37.15l5.51,5.51c.57.58.54,1.06-.11,1.55A24.92,24.92,0,0,1,76.08,103.06Z"/><path class="cls-3" d="M101.12,78A25,25,0,0,1,96,93.19c-.52.69-1,.72-1.62.09l-5.44-5.43c-.53-.53-.54-.81-.15-1.45q5.13-8.41-.07-16.79c-.42-.67-.41-.92.15-1.49,1.79-1.8,3.59-3.59,5.39-5.39.66-.66,1.1-.62,1.66.11A24.91,24.91,0,0,1,101.12,78Z"/><path class="cls-2" d="M57.1,62.16a4,4,0,0,1,.74.45c1.89,1.86,3.76,3.74,5.63,5.62.45.45.45.76.05,1.37a15.13,15.13,0,0,0-.17,16.66c.53.84.52,1-.2,1.73L57.9,93.24c-.69.69-1.13.66-1.73-.13a24.91,24.91,0,0,1,.17-30.3A5.6,5.6,0,0,1,57.1,62.16Z"/><path class="cls-2" d="M76.06,53.07a25,25,0,0,1,15.22,5.14.89.89,0,0,1,.11,1.55c-1.84,1.84-3.67,3.68-5.51,5.51-.5.5-.8.53-1.41.13a15.11,15.11,0,0,0-16.53-.12c-.87.56-1,.54-1.78-.2l-5.24-5.25c-.67-.67-.63-1.12.13-1.69A24.79,24.79,0,0,1,76.06,53.07Z"/><path class="cls-3" d="M72.26,77.05c0-1.83,0-3.67,0-5.5a1.23,1.23,0,0,1,2.3-.62,1.58,1.58,0,0,1,.17.71q0,5.44,0,10.89a1.24,1.24,0,1,1-2.47,0C72.25,80.71,72.26,78.88,72.26,77.05Z"/><path class="cls-3" d="M77.5,78.65c0-1.28,0-2.56,0-3.84a1.25,1.25,0,1,1,2.47,0v7.68a1.22,1.22,0,0,1-1.23,1.38c-.76,0-1.24-.53-1.24-1.41C77.49,81.18,77.5,79.91,77.5,78.65Z"/><path class="cls-3" d="M69.5,80.15c0,.8,0,1.6,0,2.4a1.24,1.24,0,1,1-2.47,0c0-1.61,0-3.21,0-4.81a1.23,1.23,0,0,1,1.21-1.29,1.26,1.26,0,0,1,1.25,1.32C69.5,78.58,69.5,79.37,69.5,80.15Z"/><path class="cls-3" d="M85.21,81.26c0,.47,0,.93,0,1.39a1.23,1.23,0,0,1-2.46,0c0-.92,0-1.85,0-2.77a1.23,1.23,0,1,1,2.46,0C85.22,80.34,85.21,80.8,85.21,81.26Z"/></svg>