<svg id="design" xmlns="http://www.w3.org/2000/svg" viewBox="0 0 155 155"><defs><style>.cls-1{fill:#e5f3fd;}.cls-2{fill:#91caf9;}.cls-3{fill:#54a4f3;}</style></defs><rect class="cls-1" x="27.5" y="27.5" width="100" height="100" rx="10"/><path class="cls-2" d="M93.91,50h3.86A6.85,6.85,0,0,1,105,57.18q0,4.4,0,8.79a2.1,2.1,0,0,1-1.55,2.19,2.2,2.2,0,0,1-2.52-.68,2.35,2.35,0,0,1-.46-1.61c0-2.72,0-5.43,0-8.15,0-2.28-.91-3.18-3.18-3.19h-8c-1.67,0-2.52-.76-2.52-2.22S87.62,50,89.3,50Z"/><path class="cls-2" d="M60.85,105c-1.61-.13-3.59.26-5.53-.2A6.79,6.79,0,0,1,50,98.12c0-3,0-6,0-9a2.17,2.17,0,0,1,2.27-2.4,2,2,0,0,1,2.25,2.16c0,2.86,0,5.72,0,8.58,0,2,.94,3,2.94,3,2.79,0,5.58,0,8.36,0,1.58,0,2.42.78,2.44,2.2A2.2,2.2,0,0,1,65.81,105C64.27,105,62.74,105,60.85,105Z"/><path class="cls-2" d="M93.8,105c-1.54,0-3.07,0-4.61,0a2.21,2.21,0,0,1-2.47-2.33c0-1.4.86-2.19,2.43-2.19h8c2.35,0,3.25-.88,3.26-3.21,0-2.72,0-5.43,0-8.15a2.08,2.08,0,0,1,2.26-2.37,2.17,2.17,0,0,1,2.26,2.4c0,3.11,0,6.22,0,9.33A6.88,6.88,0,0,1,98.41,105C96.87,105,95.34,105,93.8,105Z"/><path class="cls-2" d="M50,61.14v-4A6.85,6.85,0,0,1,57.22,50c2.94,0,5.87,0,8.8,0a2.08,2.08,0,0,1,2.12,1.49,2.17,2.17,0,0,1-2.19,3H57.69c-2.28,0-3.15.9-3.15,3.2,0,2.71,0,5.43,0,8.14a2.1,2.1,0,0,1-2.13,2.4A2.2,2.2,0,0,1,50,65.86C50,64.29,50,62.72,50,61.14Z"/><path class="cls-3" d="M91.26,72.94a3.67,3.67,0,0,1-1.75,2.76c-.46.35-1.16.54-1.25,1.23s-.11,1.56.78,2a7.3,7.3,0,0,1,1.12.82,2.74,2.74,0,0,1,.75,3.47c-.52,1.05-1.09,2.09-1.69,3.11a2.78,2.78,0,0,1-3.76,1.17c-.46-.2-.91-.41-1.37-.6a1.34,1.34,0,0,0-1.89,1c-.09.49-.15,1-.19,1.48a3,3,0,0,1-3.12,3c-.89,0-1.79,0-2.68,0A3.05,3.05,0,0,1,73,89.31c-.07-.85.1-1.82-.89-2.35A1,1,0,0,0,71,86.87a14.89,14.89,0,0,1-2.08.85,2.55,2.55,0,0,1-3-1.11c-.68-1.09-1.33-2.21-1.91-3.36a2.78,2.78,0,0,1,.88-3.54c.39-.31.8-.6,1.19-.91a1.59,1.59,0,0,0,0-2.65c-2.83-2.25-2.94-2.83-1.2-6l.15-.28c1.67-3.14,2.5-3.42,5.67-1.91a1.35,1.35,0,0,0,2.09-1A12.37,12.37,0,0,0,73,65.45a2.87,2.87,0,0,1,3-2.89c1,0,2.07,0,3.11,0a2.83,2.83,0,0,1,3,2.89,13.85,13.85,0,0,0,.21,1.7,1.38,1.38,0,0,0,1.87.92c.62-.27,1.22-.58,1.85-.82a2.3,2.3,0,0,1,2.81.73,16.26,16.26,0,0,1,2.39,4.29A3.07,3.07,0,0,1,91.26,72.94ZM77.6,71.79a5.6,5.6,0,0,0-5.84,5.58,5.75,5.75,0,1,0,11.49.09A5.64,5.64,0,0,0,77.6,71.79Z"/></svg>