<svg id="design" xmlns="http://www.w3.org/2000/svg" viewBox="0 0 155 155"><defs><style>.cls-1{fill:#fff9dd;}.cls-2{fill:#f7ba0f;}.cls-3{fill:#ffd546;}</style></defs><rect class="cls-1" x="27.5" y="27.5" width="100" height="100" rx="10"/><path class="cls-2" d="M60.46,63.91a16.81,16.81,0,0,1,3.28-10A1.61,1.61,0,1,0,61.15,52,20.17,20.17,0,0,0,61,75.68a1.61,1.61,0,0,0,1.3.66,1.55,1.55,0,0,0,.94-.3,1.61,1.61,0,0,0,.37-2.24A16.81,16.81,0,0,1,60.46,63.91Z"/><path class="cls-2" d="M67.75,72.48a1.54,1.54,0,0,0,.93-.3,1.6,1.6,0,0,0,.37-2.24,10.36,10.36,0,0,1,0-12.14,1.61,1.61,0,1,0-2.59-1.9,13.55,13.55,0,0,0-.07,15.92A1.62,1.62,0,0,0,67.75,72.48Z"/><path class="cls-2" d="M93.85,52a1.61,1.61,0,1,0-2.59,1.9,16.94,16.94,0,0,1,.09,19.91A1.61,1.61,0,0,0,91.72,76a1.55,1.55,0,0,0,.94.3,1.61,1.61,0,0,0,1.3-.66A20.17,20.17,0,0,0,93.85,52Z"/><path class="cls-2" d="M88.49,55.9a1.61,1.61,0,1,0-2.59,1.9,10.36,10.36,0,0,1,0,12.14,1.6,1.6,0,0,0,.37,2.24,1.54,1.54,0,0,0,.93.3,1.62,1.62,0,0,0,1.31-.66,13.55,13.55,0,0,0-.07-15.92Z"/><circle class="cls-3" cx="77.5" cy="63.91" r="5.36"/><path class="cls-3" d="M82.53,70.87a8.49,8.49,0,0,1-3.63,1.51l1.73,9H74.37l1.73-9a8.49,8.49,0,0,1-3.63-1.51l-5.88,30.5a1.93,1.93,0,0,0,1.89,2.3h18a1.93,1.93,0,0,0,1.89-2.3ZM81.37,85.22l1.14,5.91h-10l1.14-5.91ZM70.82,99.81,71.75,95h11.5l.93,4.82Z"/></svg>