<svg xmlns="http://www.w3.org/2000/svg" viewBox="0 0 182.04 242.36"><defs><style>.cls-1{fill:#7a2a8f;}</style></defs><title>abdullah-al-othaim-investment-logo-new</title><g id="Layer_2" data-name="Layer 2"><g id="Layer_1-2" data-name="Layer 1"><path class="cls-1" d="M116.86,91.58c.86,2.08,1.78,4.27,2.68,6.47,2.67,6.49,5.31,13,8,19.48,1.27,3,3.19,5.62,6.47,6.63a17.19,17.19,0,0,0,5,.48c1.17,0,1.51.39,1.47,1.5-.07,2,0,4,0,6H106.32v-7.53c1.16,0,2.38,0,3.6,0a2.28,2.28,0,0,0,2.48-2.83,11.09,11.09,0,0,0-.68-2.49c-2.55-6.89-5.16-13.75-7.65-20.66-.49-1.37-1-1.85-2.54-1.52A55.11,55.11,0,0,1,77.69,97c-1.23-.28-1.79,0-2.28,1.2-2.84,7.25-5.79,14.45-8.69,21.68a8,8,0,0,0-.54,1.86,2.29,2.29,0,0,0,2.39,2.91c1.28.07,2.57,0,4,0v7.49H41.35c0-2.26,0-4.51.06-6.76,0-.25.84-.6,1.32-.68a45.14,45.14,0,0,0,5.72-.78c3.08-.89,4.57-3.6,5.75-6.25,3.55-8,6.88-16.11,10.35-24.14.51-1.18,0-1.67-.89-2.12a32.4,32.4,0,0,1-10.48-8.53A48.37,48.37,0,0,1,41.56,54.4c-.77-10.22.44-20.14,5.2-29.33,3.28-6.34,7.55-12,13.52-16.12C70,2.26,80.78-.44,92.5.06A49.85,49.85,0,0,1,118,8a42.45,42.45,0,0,1,12.77,12.91c6.92,10.82,8.59,22.78,7.31,35.32a50.65,50.65,0,0,1-5.47,18.38,43.65,43.65,0,0,1-10.58,12.81C120.44,88.77,118.73,90.08,116.86,91.58Zm-4.79-11.36c1.79-2.29,3.41-4.11,4.73-6.11a33.7,33.7,0,0,0,4.14-9.79,54.23,54.23,0,0,0-1.22-34.12C115.54,19,107.36,11.84,95.23,9.93c-13.3-2.1-25.46,3.2-32.38,15A45.64,45.64,0,0,0,57,47c-.35,11,1.72,21.32,8.56,30.27,1.09,1.43,2.41,2.67,3.72,4.1a7,7,0,0,0,.56-.81C72.61,74,75.46,67.46,78.25,60.9q2.5-5.88,4.87-11.82c1.41-3.56,2.75-7.15,4-10.75.33-.91,0-2.35.61-2.79s2-.08,3-.22c1.71-.24,2.56.43,3.22,2.05,5.23,12.69,10.55,25.33,15.85,38C110.45,76.82,111.17,78.25,112.07,80.22ZM90.22,62l-.56,0L79.55,87.25a34.64,34.64,0,0,0,20.09.18Z"/><path class="cls-1" d="M40.69,178.1h1.68c5.63,0,11.26-.06,16.88,0,1.58,0,1.89-.54,1.86-2q-.11-6.82,0-13.64a7.11,7.11,0,0,1,7.65-7.07c0,.59.11,1.21.12,1.83,0,6.28.05,12.55,0,18.83,0,1.55.44,2,2,2,3.88-.11,7.77,0,12,0,0,2.37,0,4.61,0,6.86a5.87,5.87,0,0,0,2.87,5.31c4.13,2.57,9-.17,9-5.12.06-7.47,0-14.94,0-22.4a7.25,7.25,0,0,1,7.12-7.34,8.24,8.24,0,0,1,1,.11c0,.69,0,1.32,0,2,0,6.33,0,12.66,0,19,0,1.29.39,1.69,1.67,1.66,3.34-.08,6.69,0,10.31,0,0-1.29,0-2.41,0-3.53,0-2.33-.08-4.66.14-7a13.64,13.64,0,0,1,18.42-11.35c6.34,2.48,9.57,7.1,9.12,14.49,0,.34-.51.92-.78.92a20.12,20.12,0,0,1-4.51-.26,3.47,3.47,0,0,1-2.83-3.16,5.43,5.43,0,0,0-5.74-5,5.8,5.8,0,0,0-5.89,5c-.24,3-.11,5.95-.12,8.92,0,1.12.86.91,1.52.91h18.37c0,2.5,0,4.81,0,7.11a6.23,6.23,0,0,0,4.57,5.84,5.68,5.68,0,0,0,6.39-2.73,8.47,8.47,0,0,0,.92-3.86c.08-8.44,0-16.88,0-25.32,0-4.47,2.64-7.46,6.78-7.87a7.54,7.54,0,0,1,1,.06c0,.57,0,1.1,0,1.62,0,10.77,0,21.54,0,32.31a13.6,13.6,0,0,1-12.06,14,14,14,0,0,1-15.33-11.05c-.29-1.51-.78-2-2.37-2q-13.88.12-27.76,0c-1.42,0-1.94.43-2.22,1.82a13.84,13.84,0,0,1-21.71,8.74,13.43,13.43,0,0,1-5.41-8.76c-.24-1.43-.86-1.79-2.24-1.79q-17.69.08-35.39,0a7.2,7.2,0,0,0-4.06,1.29,17.54,17.54,0,0,1-18.34.9c-.32-.16-.67-.26-1.4-.53,0,1.61.1,3,0,4.37a8,8,0,0,1-7.37,7.17,5.93,5.93,0,0,1-6.34-5.86l2.17-.31c2.54-.35,3.82-1.76,3.83-4.36q0-7.79,0-15.58a17.26,17.26,0,0,1,5.22-12.89,17,17,0,0,1,14.94-4.71c4.49.72,8.5,2.65,11.18,6.28a17.51,17.51,0,0,1,3.3,14.88C40.78,177.13,40.77,177.51,40.69,178.1ZM33.49,173a9.86,9.86,0,0,0-9.76-9.7,9.7,9.7,0,0,0,0,19.41A9.91,9.91,0,0,0,33.49,173Z"/><path class="cls-1" d="M27.61,13.86v7.67H17.46c-2.52,0-2.54,0-2.54,2.53q0,48.62,0,97.24c0,2.33,0,2.32,2.28,2.31h9.53v7.81c-.53,0-1.1.08-1.67.08-7.68,0-15.36,0-23,0-1.47,0-1.92-.32-1.92-1.86Q.2,75.29.21,20.91C.21,19,.16,17,.1,15.06c0-.77.15-1.22,1.06-1.22C9.92,13.87,18.67,13.86,27.61,13.86Z"/><path class="cls-1" d="M182,72.86q0,28.4,0,56.8c0,1.51-.4,1.9-1.89,1.88q-11.52-.12-23,0c-1.36,0-1.83-.37-1.76-1.72.09-1.62.06-3.25,0-4.87,0-1,.34-1.45,1.41-1.42,2.87.08,5.74,0,8.6.12,1.35,0,1.9-.27,1.9-1.77q-.06-49.25,0-98.5c0-1.54-.5-1.93-2-1.87-3.08.13-6.17.06-9.25.16-1.18,0-1.68-.31-1.61-1.55a42.14,42.14,0,0,0,0-4.7c-.07-1.2.32-1.61,1.55-1.58,4.27.1,8.55.13,12.82.13,3.84,0,7.68,0,11.52-.14,1.38,0,1.69.41,1.68,1.74q-.07,28.64,0,57.28Z"/><path class="cls-1" d="M180,241.92c-5.8.49-7.2-.4-6.92-6.06a35,35,0,0,0-.1-6.15,3.79,3.79,0,0,0-1.63-2.63c-1.71-.83-3.14.14-3.24,2.13-.18,3.23-.12,6.48-.15,9.72,0,1,0,1.92,0,3-1.54,0-2.89.11-4.21,0-1.74-.18-2.59-1.39-2.64-3.68-.06-2.81,0-5.62,0-8.43,0-1.27-.33-2.38-1.71-2.82-2-.64-3.41.38-3.47,2.75-.09,3.4,0,6.81,0,10.22,0,.59,0,1.18,0,1.91a29.41,29.41,0,0,1-4.57,0c-1.83-.3-2.77-1.67-2.8-3.65,0-2.65-.06-5.3,0-7.95.13-4.81,3.41-8.14,8.23-8.61,3-.29,5.7.23,7.86,2.7a9.79,9.79,0,0,1,9.67-2.42c3.13.76,5.46,2.63,5.67,5.87C180.19,232.43,180,237.13,180,241.92Z"/><path class="cls-1" d="M71.15,230c-.09,4-1.25,8.18-5.4,10.89-2.75,1.8-5.86,1.52-8.93,1.36-6.42-.32-10.1-7.88-9.67-13.28.34-4.24,1.75-8.05,5.27-10.52,4.38-3.06,12.36-3.58,16.66,3.22C70.56,224,71.17,226.35,71.15,230Zm-16.63-.62a14.59,14.59,0,0,0,1.16,5.73c.68,1.75,2.29,2.37,4.11,2.26a3.73,3.73,0,0,0,3.4-2.82,16.18,16.18,0,0,0,0-10.19,3.64,3.64,0,0,0-3.37-2.61c-1.71-.17-3.27.24-4,1.85A15.27,15.27,0,0,0,54.52,229.37Z"/><path class="cls-1" d="M6.35,242c-1.45,0-2.69,0-3.93,0A2.28,2.28,0,0,1,0,239.66a6.17,6.17,0,0,1,.09-1.77,65.09,65.09,0,0,1,7.45-19.25A3.33,3.33,0,0,1,11,216.79c3.13.14,5.43,1.19,6.79,4.25A88.65,88.65,0,0,1,24,240.76c.07.36.06.72.1,1.2a46.23,46.23,0,0,1-4.91,0c-1.63-.18-2.48-1.28-2.79-2.92-.68-3.62-.07-3.09-3.85-3.13-1.24,0-2.49,0-3.73,0a1.29,1.29,0,0,0-1.53,1.25C7.05,238.71,6.69,240.28,6.35,242Zm5.59-18.23h-.28c-.76,2.27-1.84,4.54-2.67,7h5.58Z"/><path class="cls-1" d="M180.12,199c-4.24.32-7.66-3.93-7.7-7.5-.12-13.25,0-26.51,0-39.76a1,1,0,0,1,.1-.3c3.33-.83,7.22,2.3,7.63,6.14a17,17,0,0,1,.07,1.78q0,19,0,38C180.2,197.91,180.15,198.44,180.12,199Z"/><path class="cls-1" d="M97.69,222.94a22.07,22.07,0,0,1,3.47-1.24,7.46,7.46,0,0,1,9.16,7.17c.24,4,.09,8,.13,12,0,.81-.28,1.23-1.13,1.14a2.58,2.58,0,0,0-.32,0c-4.89.12-5.65-.63-5.65-5.52,0-2.05,0-4.11,0-6.16,0-2.31-1-3.43-2.76-3.47-2,0-3.06,1-3.11,3.47-.07,3.19,0,6.38,0,9.57,0,.63,0,1.27,0,2a37.58,37.58,0,0,1-4.35,0c-1.79-.22-2.72-1.59-2.73-3.83,0-5.51,0-11,0-16.54,0-1.83,0-3.66,0-5.69,2.25-.07,4.69-.57,5.94,1.38C97.27,218.81,97.26,221,97.69,222.94Z"/><path class="cls-1" d="M114.69,228.45a4.49,4.49,0,0,1,1.7-5.27c3-2.21,9.46-2.14,12.48.12a6.37,6.37,0,0,1,2.84,4.72,50.32,50.32,0,0,1-.17,9.18c-.42,3.16-2.16,4.57-5.37,4.81a48.87,48.87,0,0,1-7.4-.05c-2.35-.18-4.49-2.5-4.92-5a5.27,5.27,0,0,1,3-6,46.94,46.94,0,0,1,6.39-1.53,12.81,12.81,0,0,0,1.64-.63c-.46-.6-.81-1.56-1.39-1.73a10.09,10.09,0,0,0-7.39.72Zm10.37,6.79c.05-1.43-.1-1.62-1.29-1.65-2,0-3.21.74-3.29,2.11s.72,2,2.16,2C124.28,237.82,125,237.07,125.06,235.25Z"/><path class="cls-1" d="M81.8,217.23c0,.73.08,1.36.09,2,0,3.15-.35,2.79,2.91,2.82h2.84c.78,3.53-.47,5.24-3.86,5.2-1.61,0-2.08.51-2,2s0,3.14,0,4.7c0,2.6.91,3.41,3.49,3.12.69-.08,1.37-.28,2-.43.93,3.33-.08,5-3.36,5.37a19.56,19.56,0,0,1-4.67-.13c-2.28-.33-4.22-2.65-4.32-5.45-.17-4.86-.17-9.74,0-14.6C75.06,219.14,78.37,216.94,81.8,217.23Z"/><path class="cls-1" d="M37.47,237.41c.67,3.26-.14,4.47-3.24,4.68a16.2,16.2,0,0,1-4-.19,5.31,5.31,0,0,1-3.93-5.19c-.09-6.59,0-13.19-.07-19.78,0-.81.28-1.2,1.13-1.14.7,0,1.41,0,2.11,0,2.68.24,3.87,1.5,3.89,4.2,0,4.7,0,9.4,0,14.11,0,2.75.31,3.05,3.05,3.15C36.77,237.3,37.13,237.37,37.47,237.41Z"/><path class="cls-1" d="M142.57,230.65c0,1.51,0,3,0,4.54a2.06,2.06,0,0,0,2.17,2.29c.82.05,1.81-.2,1.75,1.22s-.06,3-1.74,3.22a18.71,18.71,0,0,1-5.78-.09,4,4,0,0,1-3.19-3.52,37.44,37.44,0,0,1-.34-5.16c-.05-3.08,0-6.17,0-9.25,0-1,.32-1.51,1.39-1.42.91.08,1.85,0,2.75.16a3.26,3.26,0,0,1,3,3.29c.05.81,0,1.62,0,2.43s0,1.51,0,2.27Z"/><path class="cls-1" d="M92.18,154.82a4.28,4.28,0,0,1-4.24,4.4,4.37,4.37,0,1,1-.23-8.73A4.27,4.27,0,0,1,92.18,154.82Z"/><path class="cls-1" d="M57.83,194.89a4.47,4.47,0,0,1,4.46-4.4,4.47,4.47,0,0,1-.08,8.9A4.49,4.49,0,0,1,57.83,194.89Z"/><path class="cls-1" d="M76.06,150.49a4.37,4.37,0,0,1,.1,8.73,4.37,4.37,0,0,1-.1-8.73Z"/><path class="cls-1" d="M54.68,194.83a4.59,4.59,0,0,1-4.16,4.55,4.45,4.45,0,0,1,0-8.9A4.49,4.49,0,0,1,54.68,194.83Z"/><path class="cls-1" d="M81.89,141.15a4.27,4.27,0,1,1-4.17,4.3A4.42,4.42,0,0,1,81.89,141.15Z"/><path class="cls-1" d="M138.81,220.61a13.92,13.92,0,0,1-3.07-1.82,2.51,2.51,0,0,1,1.1-4.25,8.35,8.35,0,0,1,3.3-.35,2.66,2.66,0,0,1,2.74,2.65,3.3,3.3,0,0,1-2.44,3.25,9.71,9.71,0,0,1-1.43.24Z"/></g></g></svg>