<svg xmlns="http://www.w3.org/2000/svg" viewBox="0 0 250.1 80.75"><defs><style>.cls-1{fill:#010101;}.cls-2{fill:#55b1d0;}</style></defs><title> aitc-logo</title><g id="Layer_2" data-name="Layer 2"><g id="Layer_1-2" data-name="Layer 1"><path class="cls-1" d="M219.27,80.75c-1.83-.41-3.68-.73-5.47-1.26A30,30,0,0,1,194.06,62a52.19,52.19,0,0,1-.45-42.08C199.16,6.39,210.49-.38,225.17.27c10.63.48,18.87,5,24.26,14.39.56,1,.39,1.3-.48,1.83-3.14,1.89-6.26,3.81-9.32,5.82-1,.69-1.56.67-2.24-.46a16.79,16.79,0,0,0-6.7-6.66c-9.05-4.57-20.35-.21-24.53,9.5-2.51,5.83-3,12-2.74,18.21a38.17,38.17,0,0,0,3.18,14.26C212.33,70,231,70.59,237.89,59.51c1.33-2.12,1.42-2.06,3.46-.7,2.69,1.8,5.37,3.63,8.1,5.37.81.52.8.92.34,1.67A29.33,29.33,0,0,1,226.7,80.46c-.23,0-.49,0-.55.29Z"/><path class="cls-2" d="M95.57,0c2.28.73,4.38,1.69,5.76,3.82a8.39,8.39,0,0,1-.16,9.28A8.22,8.22,0,1,1,92.29.43c.33-.08.79,0,1-.43Z"/><path class="cls-1" d="M69.85,79.56c-4.68,0-9.2,0-13.72,0-.77,0-.78-.54-.94-1-2.93-8.33-5.9-16.65-8.79-25-3.88-11.22-7.7-22.47-11.56-33.7-.07-.22-.18-.42-.36-.84-1.35,4.18-2.57,8.19-3.93,12.14q-8.18,23.7-16.42,47.38a1.25,1.25,0,0,1-1.4,1c-3.86-.06-7.73-.07-11.59,0C0,79.61-.22,79.4.19,78.27Q7.89,57,15.52,35.75q6-16.57,11.9-33.14c.31-.88.66-1.28,1.69-1.25q5.51.11,11,0a1.49,1.49,0,0,1,1.7,1.2Q54.77,38.2,67.77,73.82C68.45,75.68,69.12,77.56,69.85,79.56Z"/><path class="cls-1" d="M155.09,47c0,10.35,0,20.71,0,31.06,0,1.2-.33,1.5-1.5,1.48-3.53-.08-7.06-.09-10.59,0-1.18,0-1.37-.36-1.37-1.43,0-20.66,0-41.32.05-62,0-1.31-.32-1.65-1.61-1.6-3,.1-6,0-9,.05-.87,0-1.13-.2-1.12-1.1.06-3.67.05-7.35,0-11,0-.86.19-1.14,1.1-1.14q22.62,0,45.24,0c.93,0,1,.4,1,1.1,0,3.67-.05,7.35,0,11,0,1-.34,1.14-1.21,1.13-6.54,0-13.07,0-19.61,0-1.15,0-1.38.33-1.37,1.41C155.1,26.34,155.09,36.69,155.09,47Z"/></g></g></svg>