<svg xmlns="http://www.w3.org/2000/svg" width="552.25" height="88.37" viewBox="0 0 552.25 88.37"><defs><style>.cls-1{fill:#fd8c61;}.cls-2{fill:#61d4cd;}.cls-3{fill:#040404;}.cls-4{fill:#070707;}.cls-5{fill:#7fa8de;}</style></defs><title>aklos-health-logo</title><g id="Layer_2" data-name="Layer 2"><g id="Layer_1-2" data-name="Layer 1"><path class="cls-1" d="M47.95,5.21A40.29,40.29,0,1,0,88.24,45.5,40.29,40.29,0,0,0,47.95,5.21Zm0,77.76A37.46,37.46,0,1,1,85.41,45.5,37.46,37.46,0,0,1,47.95,83Z"/><path class="cls-2" d="M40.54,7.78A40.29,40.29,0,1,0,80.83,48.08,40.29,40.29,0,0,0,40.54,7.78Zm0,77.76A37.46,37.46,0,1,1,78,48.08,37.46,37.46,0,0,1,40.54,85.54Z"/><path class="cls-3" d="M289,49.15c-.23,8.8-3,16.53-10.55,21.59-8.38,5.58-17.49,6-26.5,1.76S239.06,60.53,238.4,51c-.55-7.89,1.2-15.24,6.89-21,7.76-7.9,17.33-9.24,27.41-5.91s14.83,11.16,16.08,21.37c.12,1,.13,2,.18,3C289,48.65,289,48.9,289,49.15Zm-7.21-.48a24.64,24.64,0,0,0-.78-6.6c-2.07-8.13-8.14-13.1-16.34-13.39-8.9-.31-15.51,4.09-18,12.18a26.39,26.39,0,0,0,.21,16.6c2.49,7.3,8.6,11.49,16.62,11.51,8.27,0,14.27-4,16.9-11.36A25.15,25.15,0,0,0,281.74,48.67Z"/><path class="cls-4" d="M350.15,48.83c0-8,0-16,0-23.94,0-1.24.24-1.81,1.61-1.69a24.92,24.92,0,0,0,4.08,0c1.21-.1,1.42.4,1.41,1.49,0,6.5,0,13-.07,19.49,0,1.71.5,2,2.07,2,8-.08,16-.07,23.94,0,1.32,0,1.64-.37,1.63-1.65-.06-6.56,0-13.12-.06-19.67,0-1.3.33-1.79,1.64-1.64,1.76.2,4.12-.77,5.13.4.87,1,.3,3.29.3,5q0,21.81,0,43.62c0,2.4,0,2.4-2.49,2.4a26.82,26.82,0,0,0-3,0c-1.34.15-1.64-.39-1.62-1.65.06-6.68,0-13.36.07-20,0-1.5-.43-1.8-1.84-1.79q-12,.1-23.94,0c-1.42,0-1.88.3-1.86,1.81.09,6.68,0,13.36.07,20,0,1.28-.3,1.79-1.63,1.63-1.76-.2-4,.76-5.16-.39s-.28-3.3-.28-5C350.14,62.45,350.15,55.64,350.15,48.83Z"/><path class="cls-3" d="M199,23.23,177.52,47.64c7.65,8.56,14.95,17.74,22.85,26.92-2.65,0-4.95.07-7.24,0-1,0-1.67-1-2.33-1.72-5.64-6.48-11.37-12.9-16.89-19.49-2-2.36-4.41-2.12-6.92-2.09-1,0-.63.91-.63,1.44,0,6.62-.1,13.24,0,19.86,0,1.87-.54,2.36-2.26,2.15a18.61,18.61,0,0,0-3.52,0c-1,.07-1.24-.32-1.24-1.27q0-24.5,0-49c0-.86.22-1.22,1.14-1.19a39.29,39.29,0,0,0,4.45,0c1.22-.09,1.41.42,1.4,1.5,0,6.37,0,12.74-.06,19.11,0,1.51.31,2,1.89,2a6.3,6.3,0,0,0,5.14-2.38c5.12-6,10.41-11.77,15.51-17.74a6.06,6.06,0,0,1,5.62-2.48C195.8,23.35,197.17,23.23,199,23.23Z"/><path class="cls-3" d="M127.79,60.63c-3.09,0-6.19.11-9.28,0-1.61-.08-2.25.55-2.74,2-1.15,3.26-2.52,6.45-3.68,9.71-.62,1.75-1.61,2.73-3.55,2.49-1.44-.17-3.44.69-4.16-.38-.59-.87.74-2.56,1.26-3.87q9.07-22.83,18.13-45.66c.48-1.23,1.07-1.76,2.4-1.62,1.77.19,3.95-.67,5.23.33s1.48,3,2.12,4.62q8.92,22.39,17.85,44.77c.57,1.42.51,1.88-1.19,1.83-5.83-.16-5,.78-7.21-5-1-2.65-2.09-5.29-3-8a1.54,1.54,0,0,0-1.75-1.2C134.72,60.66,131.26,60.63,127.79,60.63Zm.14-30c-.71,2-1.3,3.84-2,5.63-2.29,6-4.58,12-6.94,18-.44,1.13-.36,1.47,1,1.46,5.38-.06,10.77,0,16.15,0,.92,0,1.41,0,1-1.2C134,46.59,131,38.7,127.93,30.59Z"/><path class="cls-3" d="M312.13,22.56a19.72,19.72,0,0,1,13.18,4.32c.83.67,1.13,1.2.55,2.3-2,3.84-2,3.91-5.66,1.57A13.66,13.66,0,0,0,308.85,29,7.44,7.44,0,0,0,303,35.81c-.28,3.38,1.61,5.41,4.36,6.89a58.22,58.22,0,0,0,7.79,2.94,34.86,34.86,0,0,1,6.61,2.88,11.42,11.42,0,0,1,5.78,10.14c.11,8.92-5.22,15.25-14.06,16.45a21.77,21.77,0,0,1-18.2-5.5,1.48,1.48,0,0,1-.35-2.29c2.38-3.86,2.4-3.92,6.09-1.2a15.1,15.1,0,0,0,12.76,2.94,8.59,8.59,0,0,0,6.63-5.61c1.59-4.34.26-7.82-3.79-10A43.69,43.69,0,0,0,310,51c-1.75-.61-3.51-1.19-5.23-1.88-4.66-1.88-7.67-5.15-8.21-10.29-.59-5.62,1.25-10.24,6-13.51A15.42,15.42,0,0,1,312.13,22.56Z"/><path class="cls-4" d="M528.84,42.58c2.73-2.53,5.63-4.4,9.32-4.86,7.65-1,13.3,3.4,13.91,11.11.31,3.87.14,7.79.16,11.68,0,4.27,0,8.54,0,12.8,0,1.05-.29,1.42-1.35,1.34a23.47,23.47,0,0,0-3.71,0c-1.22.11-1.41-.41-1.41-1.49,0-7.24,0-14.47,0-21.71,0-7.74-6-11.2-12.78-7.39-.43.24-.84.53-1.25.79a6.35,6.35,0,0,0-3.35,6.2c.27,7.29,0,14.59.12,21.89,0,1.42-.39,1.86-1.76,1.7s-3.5.63-4.47-.31S522,71.42,522,69.9c0-15.46,0-30.92-.05-46.38,0-1.52.36-2,1.92-1.94,4.61.1,4.62,0,4.62,4.6,0,4.82,0,9.65,0,14.47A2.75,2.75,0,0,0,528.84,42.58Z"/><path class="cls-4" d="M419.34,56.39c-3.65,0-7.3,0-10.95,0-1.14,0-1.6.27-1.36,1.45.15.72.16,1.48.29,2.21,1.43,8.11,8.06,12,15.89,9.26a26.73,26.73,0,0,0,4.64-2.3c1.59-.92,2.12-.57,3.77,1.72,1,1.4-.29,1.82-.92,2.28-6.24,4.53-13.1,5.52-20.17,2.58s-9.39-9.21-9.88-16.34a22.36,22.36,0,0,1,.59-6.81A16.51,16.51,0,0,1,423.31,38.6c7.62,2.8,9.76,10.46,9.23,16.51-.1,1.15-.92,1.29-1.88,1.29C426.89,56.38,423.12,56.39,419.34,56.39ZM417,52.32h8.52c.66,0,1.31.18,1.3-1a9.12,9.12,0,0,0-6.24-8.56,10.23,10.23,0,0,0-13.24,8.36c-.16.91,0,1.19,1,1.18C411.23,52.29,414.14,52.32,417,52.32Z"/><path class="cls-4" d="M461.59,69.92c-3.06,2.85-6.2,4.86-10.13,5.28A15.94,15.94,0,0,1,446.1,75a8.55,8.55,0,0,1-7-6.84,8.56,8.56,0,0,1,3.45-9.48c3.61-2.64,7.85-3.54,12.18-4.08a33.82,33.82,0,0,1,5-.29c1.21,0,1.52-.4,1.39-1.49-.08-.67,0-1.36,0-2-.16-6.34-4.24-9.3-10.39-7.53a18.61,18.61,0,0,0-5.08,2.64c-2.16,1.43-4.38.45-4.88-2.09-.11-.58.26-.78.56-1.05a18.72,18.72,0,0,1,17-4.75c5.24,1.08,8.79,5.42,9,11.33.27,8.1.11,16.2.17,24.31,0,.79-.23,1.14-1,1.07a10,10,0,0,0-1.67,0,2.14,2.14,0,0,1-2.61-2.17A26.12,26.12,0,0,0,461.59,69.92Zm-.47-7.1c0-4.51,0-4.51-4.11-4.22-.43,0-.87,0-1.29.1-2.88.4-5.76.85-8.26,2.47a4.93,4.93,0,0,0-2.28,5.6,4.84,4.84,0,0,0,4.42,3.86,10.86,10.86,0,0,0,6.66-1.06C459.12,68.06,462.14,66.55,461.12,62.82Z"/><path class="cls-4" d="M207.25,48.9c0-7.92.06-15.84,0-23.76,0-1.79.55-2.25,2.18-2.07a13.36,13.36,0,0,0,3.15,0c1.55-.2,1.8.47,1.8,1.86,0,14,0,28-.07,42,0,1.56.39,1.93,1.92,1.91,6.25-.1,12.5,0,18.75-.07,1.2,0,1.56.3,1.56,1.54,0,4.38,0,4.38-4.24,4.38-7.8,0-15.59,0-23.39,0-1.3,0-1.65-.35-1.64-1.65C207.28,65,207.25,56.94,207.25,48.9Z"/><path class="cls-3" d="M497.52,56.48c0-4.35,0-7.94,0-11.53,0-1.07-.31-1.46-1.36-1.34a15.62,15.62,0,0,1-1.86,0c-2.36,0-2.4-.17-2.5-2.55-.05-1.3.52-1.52,1.58-1.65,4.33-.54,4.33-.56,4.92-5,.27-2,.51-4.05.81-6.07.24-1.6,3.22-2.79,4.53-1.82.47.35.27.91.28,1.39,0,3.16.08,6.31,0,9.47,0,1.35.41,1.66,1.67,1.6,2.41-.1,4.83,0,7.24-.06,1.22,0,1.57.3,1.56,1.53,0,3.13,0,3.13-3.09,3.13-2,0-4,0-5.94,0-1,0-1.43.21-1.42,1.32,0,6.81,0,13.62.05,20.42.06,4.34,3.24,6.06,6.94,3.78,1.44-.89,2.18-.87,3,.67,1.48,2.64,1.57,2.61-1.2,4a13.22,13.22,0,0,1-8.28,1.36,7.45,7.45,0,0,1-6.73-6.85C497.17,64.15,497.69,59.93,497.52,56.48Z"/><path class="cls-3" d="M477.75,48.09c0-8.29,0-16.58,0-24.87,0-1.31.37-1.64,1.65-1.64,4.78,0,4.78,0,4.78,4.8,0,15.46,0,30.93,0,46.39,0,1.57-.42,1.94-1.94,1.9-4.49-.1-4.5,0-4.5-4.5Q477.75,59.13,477.75,48.09Z"/><path class="cls-5" d="M40.29,0A40.29,40.29,0,1,0,80.59,40.29,40.29,40.29,0,0,0,40.29,0Zm0,77.76A37.46,37.46,0,1,1,77.76,40.29,37.46,37.46,0,0,1,40.29,77.76Z"/></g></g></svg>