<svg xmlns="http://www.w3.org/2000/svg" viewBox="0 0 2629.53 2909.36"><defs><style>.cls-1{fill:#563530;}</style></defs><title>arabian-oud-logo</title><g id="Layer_2" data-name="Layer 2"><g id="Layer_1-2" data-name="Layer 1"><path class="cls-1" d="M153.34,634.42H867.55c-8.67-12-19.16-19.75-27.82-30.46a40.06,40.06,0,0,1,5.65-1.9c54.24-8.91,108.67-16.79,162.66-27,34.17-6.45,68.25-5.41,102.5-4.82,33.3.57,66.58,1.71,99.88,2.09,6.14.07,12.53-1.68,18.41-3.71,30.22-10.44,60.39-21,90.41-32,11.06-4.05,22.4-6.21,33.93-7.93q56.34-8.4,112.68-16.85,52.39-7.82,104.79-15.58,44-6.52,88-13c2.59-.38,5.22-.52,9.3-.92,0,8.7.32,16.87,0,25-.64,17.95.33,14.72,13.75,16.86,48.36,7.72,96.82,14.73,145.23,22.13,41.17,6.29,82.3,12.81,123.46,19.11,42.48,6.5,85,12.85,127.47,19.29q50.89,7.71,101.76,15.48,55.82,8.47,111.65,16.92,51.87,7.91,103.72,15.93,33.59,5.15,67.18,10.26c3.24.5,6.46,1.14,11,1.95a358.17,358.17,0,0,1-15.08,37c-12-1.74-23.79-3.35-35.56-5.17q-74.08-11.42-148.15-22.94c-40.82-6.36-81.61-12.85-122.43-19.18-41.48-6.43-83-12.71-124.45-19.12-33.91-5.24-67.79-10.63-101.7-15.89-42.46-6.59-84.95-13.07-127.41-19.7-40.48-6.33-80.94-12.82-121.41-19.15a29.07,29.07,0,0,0-8.9-.29c-51.64,8.23-103.25,16.69-154.9,24.89-46.39,7.36-92.83,14.39-139.22,21.71-47.05,7.42-94.06,15.07-141.11,22.51q-89.34,14.12-178.7,28c-43.77,6.88-87.53,13.83-131.31,20.62a103.09,103.09,0,0,1-15.92,1.06c-38.33-.07-76.66-.37-115-.43Q613,679,434,678.92c-80.31-.06-160.63-.15-240.94.15-8.41,0-13.43-2.57-17.55-9.81C169.13,658.09,161.74,647.5,153.34,634.42Z"/><path class="cls-1" d="M224.28,743.55c3.27,0,6.53,0,9.8,0,18.33.07,36.66.19,55,.2q206,.19,411.9.34,111,.06,221.93-.07c3.51,0,7-.4,11.37-.66-2.26-11.12-10.17-18.27-12.91-27.7,8.3-4.11,726.18-104.68,741.91-105.44.39,5.1.85,10.26,1.15,15.43.37,6.32.72,12.65.84,19,.09,4.82,2.2,7.13,7.08,7.81,27.38,3.81,54.74,7.84,82.11,11.76Q1822.7,674,1891,683.74q67.28,9.6,134.56,19.15c44.51,6.4,89,13,133.52,19.36q56.38,8.12,112.78,16.07,63.32,9,126.62,18.16a26.65,26.65,0,0,1,3.54,1.12c-.74,2.15-1.16,4.36-2.21,6.21-4.44,7.82-9.2,15.46-13.58,23.31-2.25,4-4.89,5.3-9.71,4.56-26.34-4-52.75-7.64-79.13-11.4q-48.47-6.92-96.94-13.86-43.52-6.24-87-12.53-48.46-7-96.93-13.89c-36.92-5.34-73.83-10.81-110.75-16.12-45.5-6.54-91-12.93-136.52-19.46-30.33-4.35-60.66-8.73-91-13.33a102.55,102.55,0,0,0-30.79-.37q-86.49,12.84-173,25.33Q1392.31,728,1310.2,739.71c-58,8.31-116.09,16.46-174.12,24.8q-66.27,9.52-132.5,19.37a331.89,331.89,0,0,1-53.75,3.35c-41.3-.59-82.62-.65-123.92-1.06-37-.36-73.93-1-110.89-1.33-51.64-.41-103.29-.53-154.93-.91-25.31-.18-50.62-.76-75.93-1-42-.38-83.94-.58-125.92-.93q-47.47-.39-94.93-1.07c-2.74,0-6.21-.92-8.06-2.73-10.92-10.65-21.47-21.7-32.14-32.61Z"/><path class="cls-1" d="M308.86,856.81c9.14,0,15.77,0,22.4,0q108.48-.33,217-.67,63.48-.18,127-.31,57-.15,114-.33,63-.17,126-.3c25.65,0,51.31.06,77,0,3.49,0,7-.52,11.9-.91l-12.43-36.22c4.07-1,7.42-2.15,10.87-2.59,48.89-6.33,97.81-12.48,146.7-18.84,48.56-6.32,97.08-12.87,145.64-19.21,41.29-5.4,82.61-10.59,123.9-16q74.82-9.74,149.63-19.63,46.57-6.1,93.16-12.11c.94-.12,1.95.2,4.28.47.3,6.35.92,12.83.87,19.31-.16,19-.33,19.36,18.29,22.31,36.84,5.84,73.76,11.25,110.64,16.83q42,6.35,84,12.7c30.63,4.61,61.27,9.16,91.89,13.82q52.36,8,104.71,16.05c29,4.43,58,8.77,86.95,13.21q52.84,8.09,105.66,16.27c16.46,2.53,32.94,5,49.4,7.48,2.55.39,5.06,1,9.27,1.82-4.17,6.71-7.71,12.53-11.37,18.27-10.22,16-10.2,15.67-29.34,12.75-37.21-5.66-74.49-10.88-111.73-16.36-36.58-5.38-73.14-10.91-109.72-16.28-37.24-5.46-74.51-10.7-111.75-16.2-34.93-5.17-69.81-10.65-104.74-15.83q-67.22-10-134.47-19.69c-14.83-2.17-29.64-4.51-44.51-6.44a52.8,52.8,0,0,0-13.79.08q-57.43,7.88-114.8,16.12c-43.85,6.35-87.64,13-131.49,19.39-36.26,5.26-72.57,10.22-108.84,15.4-38.58,5.51-77.14,11.14-115.72,16.67-37.92,5.43-76,10.16-113.74,16.42-30.18,5-60.37,4-90.67,3.65-48.62-.57-97.25-.74-145.87-1.08-35.32-.24-70.64-.42-106-.73q-114.42-1-228.83-2.08c-38-.37-75.94-.9-113.92-1.29-16.65-.17-33.31-.41-50-.13-6.8.11-11.2-1.7-14-8.42C318.54,875.41,313.89,867,308.86,856.81Z"/><path class="cls-1" d="M2246.36,1005.24l-112.48-15.42q-49-6.72-98-13.45-57.92-8-115.83-16-71.28-9.81-142.58-19.56c-31.68-4.37-63.36-8.74-95-13.35a125.39,125.39,0,0,0-33.82-.57q-91.74,11.4-183.51,22.59c-52.92,6.43-105.86,12.61-158.78,19Q1228,978,1149.61,987.79c-30.1,3.72-60.21,6.26-90.65,6.08-72.65-.43-145.31.16-218,.22q-197,.17-393.94.18c-14.66,0-29.33-.37-44-.2-4.92.06-8-1.54-10.45-5.85-6-10.38-12.52-20.46-18.76-30.7a52.13,52.13,0,0,1-2.45-5.87c4.37,0,7.55,0,10.72,0q84,.62,167.91,1.23c47.31.28,94.63.39,141.94.58s94.62.4,141.94.55q106.46.36,212.92.63c5.22,0,10.43-.5,16.92-.83l-7-32.27,608.3-74.35v39.12l597.84,83A333.06,333.06,0,0,1,2246.36,1005.24Z"/><path class="cls-1" d="M2181.09,1103.48c-11.91-1.25-22.51-2.24-33.08-3.48q-100.77-11.78-201.53-23.65c-54.26-6.41-108.51-13-162.78-19.34-38.06-4.46-76.12-8.86-114.23-12.86-7.52-.79-15.29-.14-22.85.67-30.81,3.29-61.59,6.92-92.38,10.37q-43.71,4.9-87.42,9.7-62.09,6.89-124.18,13.8c-40.73,4.51-81.44,9.3-122.22,13.34-16.19,1.6-32.55,2-48.84,2-34.66.09-69.32-.44-104-.66q-74.47-.45-148.94-.8-75.48-.33-151-.52-74-.23-148-.42c-47-.14-94-.43-141-.32-7,0-11.84-1.93-16.08-7.57-8.38-11.14-17.37-21.81-27-33.77,3.47-.48,5.57-1,7.66-1,34,.38,67.95,1,101.93,1.25,58.64.44,117.28.63,175.92,1,24,.15,48,.48,72,.72l125.91,1.24q52,.52,103.92,1.05,52.48.47,105,.8c2.26,0,4.52-.45,8.39-.86l-9.29-26c59.95-7.67,119.44-13.79,178.8-20.88,59.55-7.11,119.15-13.75,178.74-20.54s119.09-13.48,179.41-20.31c3.11,12.45-.84,24.82,2,37.88l527.55,66.83Z"/><path class="cls-1" d="M1173.43,1890.21c23,8,45.59,15.9,68.2,23.81l412.1,144.24c10,3.52,10,3.53,10.37,13.79.27,7.6.64,15.2,1,24.33,4.1-1.06,7.19-1.67,10.17-2.65q174.63-57.42,349.24-114.91,72.6-23.91,145.14-48c9.09-3,9.17-3,14.85,4.37,5,6.56,9.89,13.24,15.48,20.75-12.57,4.47-24.08,8.62-35.63,12.67q-227.26,79.6-454.52,159.18c-12.26,4.29-24.66,8.21-36.77,12.89-6.07,2.35-11.32,2-17.25-.38-43-17.1-86.15-33.94-129.23-50.87q-141.34-55.57-282.67-111.16c-28.2-11.1-56.42-22.16-84.53-33.49a53.58,53.58,0,0,0-20.38-4q-143-.19-286-.57-173.48-.23-347-.22c-25.33,0-50.65.27-76,.37-2.58,0-5.16-.29-8.86-.52a61.17,61.17,0,0,1,3.55-6.48c6.89-9.41,14.13-18.57,20.75-28.17,3.24-4.7,7-6.41,12.54-6.11,8,.42,16,.17,24,.19q136,.42,272,.83,85.48.24,171,.39,89,.2,178,.37c16.33,0,32.65-.28,49-.29C1165.24,1900.58,1165.24,1900.67,1173.43,1890.21Z"/><path class="cls-1" d="M1664,1982.17l481.66-142.27,13.36,33.43c-7.91,2.52-14.76,4.83-21.68,6.89q-131.63,39.27-263.28,78.49-99.55,29.74-199,59.76a28.74,28.74,0,0,1-18.47-.43q-126.69-43.24-253.49-86.18-100.29-34-200.66-67.71a32.24,32.24,0,0,0-9.72-2c-30.31-.3-60.62-.38-90.93-.58-14.65-.1-29.31-.36-44-.49q-76-.67-151.92-1.3-82.95-.65-165.9-1.22c-42.64-.34-85.28-.88-127.92-1.13-45-.27-89.93-.28-134.89-.44-2.64,0-5.28-.31-8.83-.54.82-2.54,1.17-4.74,2.18-6.56,5-9,10.53-17.78,15.27-26.95,2.91-5.62,7-7.06,12.93-7,36.32.35,72.64.35,109,.61,61.64.46,123.28,1.08,184.93,1.53q74.95.55,149.89.86,78.46.39,156.93.7c29.65.13,59.3,0,88.94.6,7.57.15,13-1.49,16.09-8.62a18.5,18.5,0,0,1,1.59-2.54c4.62-7.1,4.67-7.26,12.62-4.87q46.38,14,92.71,28.2,129,39.33,258,78.68,43,13.12,86,26.32c8.32,2.56,8.63,3.11,8.43,12-.15,7-.48,14-.54,21C1663.25,1973.73,1663.66,1977,1664,1982.17Z"/><path class="cls-1" d="M365.88,2017.56c7-10.05,13.79-20.3,21.28-30,1.59-2.05,5.82-2.8,8.86-2.86,14-.24,28,.08,42,0q76-.38,152-.87,43.49-.25,87-.46,87-.34,173.94-.6t174-.55q55-.11,110,.2a41.4,41.4,0,0,1,14.51,2.83q167.88,65.9,335.64,132.09,83.22,32.76,166.47,65.43c2.17.85,4.29,1.87,6.51,2.54,4.43,1.33,6.36,4.14,6.56,8.79.29,6.9,1.09,13.78,1.81,22.21,4.47-1.35,7.86-2.14,11.07-3.38q93.12-36.24,186.2-72.57,174.53-68.11,349.05-136.25c7.43-2.9,7.91-2.81,12.76,3,4.21,5.08,8.21,10.33,13,16.39-8.72,3.72-16.53,7.17-24.42,10.4Q1944,2144.38,1673.92,2254.87c-5.25,2.15-9.58,2.65-15,.32Q1409,2148.26,1159,2041.67c-10.41-4.45-21-8.46-31.18-13.46-9.88-4.86-20-6.21-30.88-6.2-72.33,0-144.66-.25-217-.48-35.33-.11-70.65-.35-106-.49q-108-.42-215.94-.77-90-.25-180-.32H367.3Z"/><path class="cls-1" d="M1084.51,2382.74h-12.36l-446,.39c-1.33,0-2.67,0-4,0-10.74.14-10.69.15-12.53,10.88-1.41,8.21-3.14,16.37-4.37,24.6a25.13,25.13,0,0,1-9.21,16.08c-19.25,16.08-40.53,23.77-66.35,20.39-24.44-3.2-40.63-17.42-55.15-35.51,4,2.09,8,4,11.92,6.31,7.37,4.32,15.2,6.71,23.8,6.21,9-.52,18-.91,26.93-1.63,9.86-.79,16.55-5.72,20.41-15.12,4.56-11.12,6.72-20.61,5.68-32.27-17.68-.74-35.57-.22-53.43-.31-17.58-.09-35.16,0-53.54,0-.42-4.7-.89-8.25-1-11.8-.37-9.66-.71-19.32-.86-29-.53-35,11.25-65.19,35.68-90.29,11.09-11.39,25.31-18.23,39.12-25.46,7.64-4,16-6.67,23.9-10.15,12.23-5.35,41.21-9.83,58-5.89.32,3.13.88,6.63,1,10.15q1.94,52.45,3.74,104.91c.38,10.82.46,11.19,11.56,11q46-.69,91.93-1.82c3.82-.09,7.61-1.1,12.9-1.9-1.65-3.91-2.5-6.65-3.87-9.08-10.64-18.89-12-38.46-4-58.52,2.81-7.1,5.92-14.26,10.1-20.61,12.21-18.58,29.34-30.71,51.2-35.24,15.52-3.21,31.37-2.43,46.71.87,12.62,2.72,24.86,7.33,37.07,11.67,2.21.78,4.63,4.13,5,6.56a114.32,114.32,0,0,1-1.08,37.31c-4.56,2.44-6.85-.66-9.28-2.64-15.46-12.62-33-16.55-52.47-13-23.83,4.31-45.25,29-45,52,.09,9.77,4.36,18,9.57,25.82,3.22,4.82,8.47,6.27,14,6.59,19,1.09,37.91,2.72,56.89,3,25,.34,50-.39,75-.72,3.24,0,6.47-.42,11.08-.73.43-42.64.14-84.52.2-126.39s0-83.78,0-126.78c16.22-.7,31-.45,47-.19.27,4.61.7,8.45.7,12.3q.06,112.5.08,225c0,18.06-1.89,16.74,16.68,16.76,10,0,20,0,30,0,3.26,0,6.52-.32,10.73-.54.31-4.91.8-9.11.8-13.32q.07-113,0-226v-14c15.81-.69,30.28-.47,44-.18,1,1,1.19,1.27,1.4,1.52s.56.5.59.78a48.54,48.54,0,0,1,.6,5.93q0,144-.09,288C1085.77,2379.51,1085.23,2380.43,1084.51,2382.74Zm-583.27-47.23c20.52,0,40.07,0,59.62,0,4.2,0,5.62-2.83,5.71-6.65.52-20.95,1.18-41.9,1.54-62.85.11-6.57-2.37-8.61-9.28-8.9a30.65,30.65,0,0,0-21.32,7.18c-8.84,7.46-17,15.71-25.18,24C499.32,2301.38,498.64,2317.62,501.24,2335.51Z"/><path class="cls-1" d="M2102,1378.24v32.62c-4.1.42-8.24,1.25-12.37,1.22q-132.42-1-264.84-2.1-57.45-.51-114.9-1.43-121.89-2.16-243.77-4.67c-75.58-1.61-151.15-3.58-226.73-5.35q-14-.33-28-.29-79,.3-158,.69-91,.32-181.94.51c-29.32.09-58.64.27-88,.37q-91.45.32-182.9.57c-11.66,0-23.32-.15-35-.36a51.84,51.84,0,0,1-6.77-1V1356a89.68,89.68,0,0,1,9.13-1q102-.61,203.93-1.1,46-.22,92-.31,162.95-.35,325.89-.66c11,0,22-.06,33-.17s11.17-.28,12-10.93c.29-3.89.8-7.77,1.3-12.48l425.32-2.3c2.94,16.29,1.33,32.67,4.19,49.45Z"/><path class="cls-1" d="M1244.89,1533.52l414.18,34.25,3.15,43.14c8.24,2,157.93-10.55,221.55-16.93,73.22-7.34,146.59-13.11,221.1-19.67a168.39,168.39,0,0,1,1,30c-11.71,1.43-22.83,2.88-34,4.12q-51.66,5.75-103.33,11.36c-40.41,4.37-80.84,8.57-121.25,13-31.47,3.43-62.91,7.09-94.37,10.58-27.81,3.09-55.59,6.75-83.48,8.8-11.44.84-23.18-1.61-34.72-3q-66.45-8.3-132.86-16.93c-41-5.27-81.93-10.67-122.91-15.94-36-4.63-72.15-8.5-108-14-25.55-3.88-51.11-3.8-76.75-3.76q-70,.1-140,.14l-488.93.18H551.19c-.83-14.61-.56-28.13-.69-42.84,4.13-.26,7.64-.7,11.14-.68q90.45.6,180.91,1.28c67,.39,134,.58,200.95,1,49.63.3,99.27.89,148.9,1.19,46.65.28,93.29.37,139.94.5,9.79,0,9.85-.11,10.36-10.07.22-4.32.44-8.63.76-12.95C1243.49,1535.64,1244,1535.07,1244.89,1533.52Z"/><path class="cls-1" d="M500.9,1148.27c20,0,37.62-.1,55.23,0q66,.44,131.94,1.05c29,.3,57.94.93,86.91,1.25,34.64.38,69.28.5,103.92.88,40.31.44,80.61,1.13,120.92,1.56q89.42,1,178.85,1.7c10.93.09,10.91-.14,11.9-10.79.24-2.62.72-5.21,1.28-9.09,156.88-16.89,313.82-32.16,472.12-48.48.55,9.79,1.07,18.31,1.48,26.85.55,11.13.52,11,11.12,12,58.37,5.56,116.73,11.27,175.12,16.72,48.1,4.49,96.24,8.63,144.35,13,37.16,3.41,74.31,7,111.46,10.49l23.1,2.17-10.81,30c-16.51-1.28-32.07-2.46-47.62-3.69q-49.82-3.94-99.64-7.93c-41.51-3.38-83-6.9-124.53-10.28q-45.83-3.74-91.67-7.3c-26.91-2.13-53.79-4.67-80.73-6.16-12.57-.7-25.28.19-37.87,1.17-56.14,4.34-112.27,9-168.4,13.49q-91.67,7.36-183.35,14.65c-7.63.6-15.31,1-23,1q-97-.24-193.95-.69-75-.3-150-.65-73.47-.36-146.93-.79-76-.38-151.93-.68c-26.66-.12-53.31-.14-80-.44-2.7,0-6.36-.82-7.93-2.66C522,1174.65,512.18,1162.18,500.9,1148.27Z"/><path class="cls-1" d="M1663.79,1443.28l4,39.54c73,.4,145.08-1.83,217.22-2.8s144.38-2.16,217.41-3.26l3,31.9c-7.5.44-14,1-20.52,1.16q-59.43,1.67-118.87,3.19c-99.23,2.55-198.46,5.54-297.71,7.28-27.24.48-54.55-2.68-81.81-4.42-35.91-2.3-71.81-4.87-107.71-7.29-54.52-3.68-109-7.6-163.58-10.88-33.91-2-67.87-3.87-101.83-4.36-48-.7-96-.07-144,0q-251,.09-501.92.16h-13c-1.69-14.74-.69-28.54-1.37-43.42l681.06-.72,2.31-16.88a84.52,84.52,0,0,1,9.41-.77q145.86,3.77,291.71,7.66,56.44,1.5,112.87,3.13C1654.69,1442.55,1658.93,1443,1663.79,1443.28Z"/><path class="cls-1" d="M554.64,1287.57c-.5-11.7.91-22.77,1.68-34.86,4.44-.29,8.29-.75,12.15-.75,47.32.05,94.65.22,142,.26q172.46.15,344.91.21,82,0,164-.16c3.89,0,7.78-.38,12.55-.64.27-5.77.6-10.67.71-15.57.28-12.34.23-12.38,12-12.9,28.3-1.24,56.6-2.38,84.89-3.66q154.29-7,308.58-14c8.59-.38,17.21-.05,26.86-.05.63,8.6,1.21,17.13,1.9,25.66,1.12,14,1.15,14,15.05,14.69q97.85,4.77,195.7,9.52,110.82,5.57,221.63,11.46c1.61.08,3.2.49,5.56.88v26.78c-15.07,0-29.34.16-43.61,0q-73.93-1-147.86-2.19c-36.3-.58-72.59-1.41-108.89-1.9-51.62-.69-103.24-1.67-154.86-1.58-66.62.12-133.23,1.14-199.85,1.83-53,.55-105.91,1.36-158.87,1.71q-72,.48-143.94.16c-51.31-.25-102.61-1.09-153.92-1.51q-84.94-.71-169.89-1.14-84.45-.53-168.89-1-47.47-.28-94.95-.55A43.53,43.53,0,0,1,554.64,1287.57Z"/><path class="cls-1" d="M1248.69,1630.9l413.36,65.17c1.15,10.38,2.24,19.93,3.27,29.48.92,8.56,1.28,9.18,9.87,8,33-4.34,66-8.93,99-13.41s66-8.88,99-13.4c30.37-4.16,60.71-8.49,91.08-12.67q50.49-6.94,101-13.74c10.56-1.44,21.12-3,31.68-4.42,1.9-.26,3.84-.22,7-.39v29.92c-12.29,2.1-25,4.34-37.71,6.42Q2004.67,1722,1943,1732c-32.23,5.22-64.47,10.32-96.7,15.55q-61.65,10-123.28,20.13c-17.75,2.89-35.45,6.35-53.32,8.22-8,.84-16.5-1.06-24.61-2.56-40.61-7.54-81.17-15.32-121.74-23.08q-73.12-14-146.22-28.06c-37.29-7.15-74.58-14.34-111.9-21.32a95.9,95.9,0,0,0-16.9-1.44q-57-.39-114-.48-119.48-.23-239-.36-127-.18-254-.34c-24.66,0-49.32.22-74,.34-3.61,0-7.21,0-12.15,0v-39.46c8.26-.3,16.81-.93,25.34-.88,39,.21,78,.67,117,.91q75,.47,149.95.73c43,.16,86,.18,128.94.33q113.47.4,226.95.87c10.66,0,21.33,0,32-.11,9.31-.07,10-.74,10.66-10.26.39-5.65.67-11.3,1.07-17C1247.2,1633.17,1247.76,1632.61,1248.69,1630.9Z"/><path class="cls-1" d="M2104.52,1757.54l17.13,30.1c-9.77,2.45-18,4.64-26.31,6.59q-106.51,24.94-213,49.81-84.65,19.75-169.31,39.43c-13.62,3.17-27.3,6.11-40.84,9.62a29.24,29.24,0,0,1-15.64-.36q-73.27-19.89-146.6-39.54-91.15-24.59-182.28-49.24-46.29-12.5-92.62-24.85a51,51,0,0,0-12.76-1.85q-117.46-.31-234.92-.37-97.47-.1-194.94-.16-102-.08-203.95-.14c-22.66,0-45.32.09-68,.14h-11c1.29-2.93,1.89-5.06,3-6.83,6-9.2,12.34-18.21,18.22-27.49,2.63-4.16,5.83-5.61,10.71-5.52q48,.88,95.92,1.3,68.45.64,136.9,1,33.47.25,66.94.53,74.94.72,149.88,1.51c32.64.35,65.27.83,97.9,1.15,43.65.43,87.29.73,130.94,1.19,4.32,0,7.86-.82,10.36-4.6.91-1.38,2.29-2.45,3.2-3.82,3.76-5.66,8.18-6.82,15.21-5.34,83.1,17.49,166.31,34.5,249.48,51.68q77.3,16,154.57,32.05c8.46,1.76,8.56,2.06,9.3,11.28.81,10.22,1.85,20.42,2.94,32.15,37.77-7.56,73.83-16.42,110-24.57,36.71-8.26,73.38-16.7,110.08-25q54.56-12.39,109.13-24.72C2030.5,1774.41,2066.84,1766.12,2104.52,1757.54Z"/><path class="cls-1" d="M2086.89,2335.26c0-4.77,0-9,0-13.25,0-53,.19-106-.19-159-.06-8.13,2.19-12.87,9.67-16.3,10-4.57,19.4-10.3,29.1-15.46,2.54-1.35,5.23-2.4,8.75-4v255c-4.47.15-8.67.4-12.87.4q-170,0-339.91,0c-14.58,0-14.64,0-17.51,14.51-1.42,7.19-2,14.58-4,21.59a36.66,36.66,0,0,1-7.08,13.84c-6.63,7.57-15.24,12.51-24.56,16.65-20.1,8.93-40.1,7.91-60.38,1.45a40,40,0,0,1-5.58-2.14c-13.33-6.59-23.26-17.18-32.58-28.88a68,68,0,0,1,6.72,3.2c10.15,6.22,20.86,10.16,33,9.45,9.28-.54,18.61-.38,27.89-.92,7.75-.45,12.63-5.1,16-11.88,6-12.22,8.2-25.36,8.87-38.69,1.15-23.29,1.88-46.61,2.32-69.92.12-6.16,2.19-9.73,7.7-12.45,9.25-4.57,18.11-9.92,27.18-14.84,2.51-1.36,5.22-2.37,9-4.06l3.24,55.75c4.06.38,7.54,1,11,1,13.33.11,26.66,0,40,.09,4.65,0,9.3.88,13.93.72,3-.1,6.86-.52,8.73-2.39,1.15-1.15.17-5.94-1.35-8-8-10.9-9-23.6-9.27-36.19a52,52,0,0,1,3.85-20.31c3.49-8.58,8.39-16.66,13.37-24.51a20.67,20.67,0,0,1,8.91-7.51c27.32-11.48,54.82-22.53,82.21-33.86a10.74,10.74,0,0,1,10.39.61c10.08,5.85,20.41,11.27,30.36,17.34,2.52,1.54,5.52,4.79,5.63,7.37.52,12,.14,24-.07,35.94,0,1.16-1.09,2.29-2.33,4.73-3.29-2.21-6.27-4-9-6.07-30-22.63-66.88-15.87-88.72,13.76-11,14.94-10.23,35.67.55,50.6a18.14,18.14,0,0,0,15.29,7.93c30.63.64,61.25,1.91,91.87,1.94,27,0,53.94-1.28,80.9-2.07C2080.49,2336.42,2083,2335.81,2086.89,2335.26Z"/><path class="cls-1" d="M73.3,524.48c19.6,0,36.88-.12,54.16,0q78.94.64,157.87,1.46c44.29.43,88.58,1,132.87,1.34q123.89.91,247.77,1.63c27.64.2,55.27.8,82.9,1.17q16,.21,32,.2c1.56,0,3.12-.55,5.88-1.08-2.9-12-11.43-20.6-15.59-32.48,4.53-1.07,8.84-2.33,13.23-3.08,17.39-3,34.78-6,52.25-8.5a22.56,22.56,0,0,1,12.36,2c36.46,17.9,72.76,36.13,109.11,54.27.9.45,1.77.93,4.22,2.23-4.5,1.3-6.85,2.14-9.27,2.66q-57.61,12.41-115.24,24.68c-3.86.81-7.95.7-11.93.69q-144.44-.38-288.88-.81-173.92-.32-347.84-.35c-26,0-52,0-78,.46-6.87.12-11-2.15-14.37-8.11C89.77,550.47,82,538.54,73.3,524.48Z"/><path class="cls-1" d="M718.73,415.77c-4.11-11.21-12.08-18.71-16.83-29.63,7.35-2.32,14.21-4.51,21.07-6.65,16.27-5.08,16.3-5.09,27,7.63q24.38,29.11,48.68,58.3c1.65,2,3.09,4.14,5.34,7.19-13.8,3.37-26.56,7-39.54,9.48a155.3,155.3,0,0,1-27.72,2.68c-25.65.23-51.31-.2-77-.3q-103.95-.4-207.89-.74-74.45-.26-148.91-.5Q227.47,463,152,463c-38.31-.05-76.62-.23-114.93.07-7.21.06-11.58-2-15-8.56-5.86-11.2-12.66-21.91-19-32.86-1.1-1.91-1.86-4-3.11-6.74A53.87,53.87,0,0,1,6.45,414c16-.06,32-.11,48,0q95.94.57,191.88,1.21,70.95.4,141.9.61,115.41.39,230.83.67c29.65.07,59.3-.05,88.94-.13C711.13,416.34,714.31,416,718.73,415.77Z"/><path class="cls-1" d="M2006.05,2735.86c-.62,27.68-.8,55.36-7,82.52a211.61,211.61,0,0,1-7.34,24.88c-12.13,33.51-36.23,53.46-70.73,61a157.84,157.84,0,0,1-78.09-2.08c-26.94-7.64-46.2-24.29-58.59-49.16a141.12,141.12,0,0,1-13.89-46.73c-6.05-51.83-6.84-103.69,1.74-155.35,1.62-9.77,4.88-19.37,8.23-28.74,11.39-31.93,33.75-52.27,66.66-60.23,27-6.52,54.12-6.43,81,1.28,30,8.59,50,28.07,61.86,56.5,9.26,22.14,12.73,45.48,14.31,69.15C2005.27,2704.55,2005.47,2720.22,2006.05,2735.86Zm-189-7.44c1.55,23.55,2.72,47.48,4.84,71.33a115.51,115.51,0,0,0,15.4,49.14c20.31,34.4,74.61,35.4,95.65.63a102.29,102.29,0,0,0,13.48-34.17c2.21-11.76,4.47-23.62,5.19-35.53,2.4-39.59,2.76-79.19-2-118.68-1.85-15.34-6-29.92-13.55-43.55-21.18-38.24-81.22-37.68-101.82.89-6.68,12.51-11.18,25.74-12.39,39.78C1819.83,2681.44,1818.61,2704.7,1817,2728.43Z"/><path class="cls-1" d="M1147.52,2381.65c0-10.92-.61-21.21.18-31.4.74-9.6,2.93-19.08,4.49-28.62a5.25,5.25,0,0,1,.14-1c5.61-15,11.75-29.76,22.59-41.83,22.38-24.93,50.69-40.85,81.9-51.75,9.65-3.37,20.07-4.69,30.23-6.35,3.75-.61,7.79.52,13,1,1.11,38-1.6,75.48-.25,113.81,4,.36,7.24.89,10.44.89q44.5.09,89,0c10.31,0,10.63-.33,10.65-10.75q.09-46.5,0-93v-11.45c2.42.11,4.1-.2,5.48.3,11.88,4.37,23.61,9.16,35.58,13.24,5.44,1.85,7,4.86,6.92,10.33-.24,26.33-.13,52.66-.09,79,0,3.58.3,7.16.45,10.45,9,2.55,94.63,2.59,104.35,0v-53c3.31.87,5.23,1.15,7,1.88,12.26,5.2,24.45,10.6,36.75,15.72,4.21,1.75,6.14,4.27,6.1,9-.2,23.33-.14,46.66-.21,70a13.93,13.93,0,0,1-.59,2.84C1604.66,2383.12,1162.12,2384,1147.52,2381.65ZM1255,2270.44c-11.75.91-22,.67-30,9-3,3.1-6.35,5.85-9.61,8.67-11.49,10-16.8,23.73-22.37,37.18-2.78,6.71-.08,10.83,6.79,11,17.87.34,35.74.12,54.92.12C1255.64,2314.81,1255.21,2293.43,1255,2270.44Z"/><path class="cls-1" d="M2448.16,2711.53V2533.43h46.36V2900c-7.17,2.5-35.85,2.9-47.07.56l-1.83-15.9c-3.94,2.37-6.93,4.07-9.81,5.92-24.05,15.47-49.76,19.89-77.38,11.7-20.66-6.13-35.16-19.7-45.66-38a107.41,107.41,0,0,1-13.42-40.55c-3.24-26.09-2.38-51.94,7.06-76.85,12.37-32.62,36.33-50,71-52.62,18.44-1.39,36.7-.45,53.8,7.68C2436.2,2704.33,2440.91,2707.4,2448.16,2711.53Zm3.7,89.11c-1-11.18-1.46-24.52-3.49-37.61-2.23-14.36-10.75-24.53-25.2-27.86a140.26,140.26,0,0,0-28.59-3.28c-18.88-.36-32.42,8.7-40.34,25.77-12.94,27.87-11.76,56.25-1.94,84.58,4.18,12,13.34,19.74,25.37,23.73a91.93,91.93,0,0,0,40.42,4.27c16.92-2.07,28-12.66,30.33-29.65C2450.14,2828.1,2450.64,2815.43,2451.86,2800.64Z"/><path class="cls-1" d="M736.25,2533.16h46.61c.18,14.87,0,29.4,0,43.93s0,29.31,0,44v44c0,14.55,0,29.1,0,44.88,3.27-1.06,5.18-1.3,6.67-2.22,31.58-19.3,64.4-19.46,97.5-5.19,16.9,7.28,28.56,21,35.23,37.92,14.44,36.76,15.76,74.12,1.05,111.09-8.91,22.39-23.37,40.84-47,48.9-30.15,10.27-59.06,7.57-85.14-12.37-1.28-1-2.74-1.72-5.56-3.47l-2,16.4H736.25Zm147.4,266.24c-1.23-9.54-1.78-19.24-3.82-28.6-5.9-27-25-41.34-52.74-40a114.3,114.3,0,0,0-12.88,1.55c-20.83,3.42-32.51,15.2-35.23,36.26a271.6,271.6,0,0,0,.31,68.75c2.57,20.46,14.65,31.35,35.14,32.9,11.77.89,23.28-.83,34.54-4.09,13.74-4,23-12.87,27.86-26.38C881.5,2826.77,882.83,2813.24,883.65,2799.4Z"/><path class="cls-1" d="M242.18,2908c-11.37-42.29-22.44-83.75-33.68-125.17-11.19-41.23-22.09-82.55-33.47-123.73l-2.28.13c-.86,1.58-2.09,3.06-2.53,4.75q-31,117.38-61.88,234.78c-.74,2.82-1.82,5.55-3,9.1l-51.58-5.9c4.1-13.91,7.69-26.3,11.39-38.66q40.95-136.9,81.81-273.82c1.93-6.49,5-11.17,10.81-14.68,11.64-7,23-14.57,33.89-21.58,1.25.53,1.57.62,1.84.78a1.87,1.87,0,0,1,.76.61,28.51,28.51,0,0,1,2,4.51q47.57,169.81,95,339.66c.15.54-.3,1.24-.86,3.35Z"/><path class="cls-1" d="M1418.37,478.64c2.65-4.1,4.07-6.63,5.81-8.93,17.08-22.57,34.41-45,51.18-67.76,4.26-5.79,9.68-7.59,16-8.72q41.78-7.51,83.55-15.09c26.2-4.77,52.39-9.64,78.59-14.38a81.48,81.48,0,0,1,8.58-.57c0,8.29,0,15.87,0,23.44,0,8.68.46,9.52,9.23,10.93,27,4.35,53.94,8.48,80.9,12.73q65.11,10.27,130.2,20.67c2.44.39,5.4,1.54,6.87,3.36,12.93,16,25.58,32.21,39.35,49.69-3.36,0-5.13.24-6.81,0q-61.09-10.08-122.17-20.26c-38.75-6.42-77.65-12.08-116.2-19.52-16.95-3.27-33.07-1.39-49.49,1.17q-90.78,14.15-181.55,28.44C1441.68,475.48,1430.92,476.86,1418.37,478.64Z"/><path class="cls-1" d="M637.53,2711.22l1.9-11.35H684.1c.44,2.33,1.32,4.81,1.32,7.29q.1,94.46,0,188.92a27,27,0,0,1-.52,3.81c-7,3-35.53,3.51-46.76.81l-1.79-15c-3.29,1.67-5.88,2.64-8.09,4.15a101.08,101.08,0,0,1-35.37,15.7c-27,6.05-50.43-1.31-69.6-20.46-26.68-26.65-39.36-58.82-35-97,2-17.73,6.35-34.68,15-50.39q26-47.05,79.71-44.67c17.32.79,33.43,5.56,47.77,15.63a45.3,45.3,0,0,0,4.28,2.5C635.38,2711.33,635.77,2711.22,637.53,2711.22Zm4,96c-1.1-13.94-1.68-27.26-3.31-40.45-2.22-17.89-13.35-28.54-30.08-33.57a82.58,82.58,0,0,0-16.72-2.79c-18.65-1.58-33.15,5.77-43.25,21.42a74.76,74.76,0,0,0-8.14,16c-8.39,24.48-7.93,49.2,0,73.65,4.61,14.27,14.41,23.8,29.42,27.16,16.26,3.64,32.47,3.35,48.36-1.76,11.36-3.65,19-11.33,20.56-23.44S640.53,2818.89,641.52,2807.18Z"/><path class="cls-1" d="M1315.17,2901.79c-15.73.77-30.87.79-46.25.07l-1.92-16.2c-3.46,1.86-6,3-8.28,4.51a100.55,100.55,0,0,1-33.5,15.12c-28.53,6.79-52.89-1.23-72.88-21.88-29-29.92-39.12-65.79-31.62-106.72a126.64,126.64,0,0,1,14.81-41.16c18.57-32,46.72-45.15,83-42.12,15.9,1.33,30.61,6.3,43.69,15.65a21,21,0,0,0,3.42,2c.54.25,1.28,0,2.74,0l2.42-11.45h43.61C1316.66,2707.13,1317.38,2887.62,1315.17,2901.79Zm-43-98.14c-.84-12.21-1.32-22.87-2.38-33.46-1.36-13.65-7.2-24.82-19.33-32.12-29-17.49-62.53-7.92-76.53,22.81-12.5,27.42-11.58,55.75-1.71,83.74,4.35,12.35,13.74,20.18,26.61,23.54a90,90,0,0,0,44.5.15c17.48-4.23,25-12.57,26.84-30.3C1271.39,2826.11,1271.58,2814.1,1272.16,2803.65Z"/><path class="cls-1" d="M1557.72,2900.44H1512.8c0-4.34,0-7.91,0-11.49,0-34.66.13-69.32-.11-104-.06-8.28-.45-16.75-2.26-24.78-3.93-17.4-14.87-27-32.43-29.34a75,75,0,0,0-34.5,3.66c-17.21,5.89-26.08,19-29.4,36.11a118.86,118.86,0,0,0-1.86,21.86c-.19,32.33-.09,64.66-.09,97,0,3.58,0,7.15,0,11.48h-45.71c-.27-3.59-.71-6.77-.71-10q-.06-93,0-186c0-1.67.06-3.33.05-5,0-3.53,1.53-5.9,5.21-5.93,13.22-.1,26.44,0,40.2,0l1.85,17.74a65.77,65.77,0,0,0,6.77-2.3c6.62-3.13,13-6.74,19.76-9.58,27.27-11.51,54.84-9.66,82-.17,19.61,6.85,30.91,21.56,33.86,42.12a239.43,239.43,0,0,1,2.76,31.83c.33,39,.16,78,.13,117C1558.32,2893.57,1558,2896.51,1557.72,2900.44Z"/><path class="cls-1" d="M2100.14,2698.48c0,5,0,8.61,0,12.18,0,35.32-.13,70.64.11,106a210.19,210.19,0,0,0,2.09,26.86c1.77,13,9.3,22.11,21.53,26.53a74.43,74.43,0,0,0,48.08,1.38c14.08-4.3,22.7-13.78,25.6-27.95a129.06,129.06,0,0,0,2.58-24.76c.28-36,.13-72,.14-107.95,0-3.58,0-7.17,0-10.42,8.29-2.43,34.13-2.87,46.71-.89.19,3.22.57,6.73.58,10.24,0,43-.18,86,.09,128.94.16,26.71-10.68,47-35.3,57.5-45.08,19.32-89.44,18.63-131.29-9.37-13-8.7-22.91-20.4-26.6-36.22a53.31,53.31,0,0,1-1.6-11.83q-.18-66-.07-131.94c0-2.27.38-4.54.7-8.11C2068.62,2697.93,2083.4,2698.2,2100.14,2698.48Z"/><path class="cls-1" d="M239,2243.37c8.17-13.58,14.84-25,22-36.17,1.13-1.76,4.51-3.08,6.76-2.95,21.9,1.26,43.91-.22,65.71,4,18.06,3.49,33.71,11.28,49.21,20.86,17.82,11,24.75,27.77,29.55,46.51,4.18,16.34,4,33,4.12,49.65q.13,24.47,0,48.93a60.78,60.78,0,0,1-.72,6.68c-7.29,2.24-245.31,2.95-259.21.76a58.57,58.57,0,0,1,2.87-6.06c6.5-10.47,13.41-20.69,19.53-31.37,3.41-5.94,7.6-8,14.42-7.93,56,.26,111.93.15,167.9.15H373c.75-2.23,1.56-3.45,1.5-4.63-.75-13.28-1.15-26.61-2.61-39.81-1.44-13-8-23.92-17.38-32.93a29.64,29.64,0,0,0-10.21-5.88c-15.16-5.62-31-7.38-47.07-7.64C278.67,2245.23,260.1,2244.19,239,2243.37Z"/><path class="cls-1" d="M1509.35,344.39c1.51-4.23,2.36-7,3.49-9.72,9.73-23,19.76-45.89,29.14-69,2.7-6.66,6.35-9.88,13.62-10.76,32.74-4,65.41-8.48,98.11-12.73,2.87-.37,5.8-.31,9.71-.49.34,9.36.66,17.9.94,26.45.32,9.89.47,10.34,9.66,11.7q52.38,7.77,104.8,15.3c8.57,1.25,17.14,2.53,25.71,3.73,4.13.58,7.53,2,9.82,5.89,7.59,12.93,15.41,25.71,23.08,38.59.44.74.32,1.81.61,3.7-14.19-2.39-27.89-4.67-41.58-7-42.35-7.23-84.61-15.06-127.1-21.33-10.46-1.54-21.77,1.34-32.5,3.24-40,7.09-79.93,14.63-119.89,22C1515.1,344.24,1513.13,344.16,1509.35,344.39Z"/><path class="cls-1" d="M2240,2083.45V2382.2c-14.75,1.07-29.22.37-44.27.45-.48-2.75-1.18-4.93-1.19-7.1q-.09-131.87-.16-263.74c0-5.4,1.6-8.52,6.7-10.7C2213.57,2095.79,2225.8,2089.94,2240,2083.45Z"/><path class="cls-1" d="M381.67,2900.9H336.54V2699.17H381l1.47,29.12c6.63-6.07,11.1-10.87,16.29-14.72a88,88,0,0,1,17.08-10.17,77.52,77.52,0,0,1,18.19-5.05c6.36-1.05,12.9-2.68,20.76-.45A223.35,223.35,0,0,1,440,2726.48c-.85,1.4-3.3,2-5.14,2.57-3.5,1-7.1,1.77-10.66,2.62-24.46,5.83-36.75,22.58-40.91,46.22a124.55,124.55,0,0,0-1.5,20.88c-.16,30-.07,59.95-.08,89.92C381.67,2892.32,381.67,2895.95,381.67,2900.9Z"/><path class="cls-1" d="M1560.73,219.41c4-12.65,7.63-24.37,11.37-36.06,4.56-14.27,9.31-28.49,13.71-42.81,1.21-3.93,3.12-6.47,7.2-7.28q32.34-6.43,64.67-12.88a34.07,34.07,0,0,1,5.17,0c.27,8,.58,15.47.75,23,.09,4-.2,8-.14,12,.14,9.21.54,9.88,9.94,11.63,29.14,5.42,58.28,10.85,87.49,15.86,7.37,1.26,12.07,3.77,13.77,11.76,1.78,8.34,5,16.37,8.19,26.36-11.41-1.85-21.17-3.36-30.89-5-24.94-4.3-49.9-8.54-74.79-13.1-9.37-1.72-18.47-1-27.7.8-28.11,5.49-56.26,10.78-84.4,16.1C1564.16,219.88,1563.17,219.59,1560.73,219.41Z"/><path class="cls-1" d="M997,2699.54h48.68c2.31,6.85,3.25,184.39,1,201.61a352,352,0,0,1-49.65,0Z"/><path class="cls-1" d="M1662,0V45.92c9.43,2.38,18.06,4.6,26.72,6.73,15.84,3.9,31.67,7.84,47.56,11.54,3.5.82,6.45,1.82,7.36,5.64,2.19,9.27,4.3,18.56,6.83,29.52-9-1.45-16.49-2.51-23.88-3.87-18.67-3.43-37.27-7.24-56-10.36a46.19,46.19,0,0,0-15.77.48c-16,3-32,6.58-47.94,9.86-1.85.38-3.82.24-7.11.42.86-8.49,2.34-16.33,2.31-24.17-.05-15.15,6.16-26.08,18.26-35.26,11.89-9,22.3-20,33.42-30C1655.88,4.5,1658.25,2.91,1662,0Z"/><path class="cls-1" d="M2558.3,533.78c-9.15,12.12-17.34,22.94-25.5,33.79-2.48,3.3-5.65,2.58-9,2-20-3.52-40-6.93-60-10.36l-63.95-10.93c-1.16-.2-2.29-.51-4.74-1.07,2.08-1.65,2.92-2.62,4-3.12,18.12-8.37,36.23-16.78,54.46-24.92a16.22,16.22,0,0,1,8.57-1.21c29.61,4.48,59.18,9.2,88.76,13.9C2552.78,532.14,2554.66,532.81,2558.3,533.78Z"/><path class="cls-1" d="M2548.27,451.64c5.9-5.59,11.77-11.31,17.83-16.84,5.39-4.93,10.3-12,16.65-13.8,6.76-1.9,15,1.18,22.52,2.32s14.87,2.53,24.27,4.16c-7.58,11.68-14.07,22-21,32-1,1.47-4.07,2.52-6,2.25-17.47-2.47-34.89-5.26-52.32-8C2549.79,453.62,2549.41,452.83,2548.27,451.64Z"/><path class="cls-1" d="M129.83,2851.5h87.51c-2.33,5.76-32.63,33.63-44.92,41.16l-44-38.93Z"/><path class="cls-1" d="M1446.41,2455.87,1415,2428l32.68-27.85,29.58,27C1467.16,2437.29,1457,2446.05,1446.41,2455.87Z"/><path class="cls-1" d="M1370.25,2400.19l29.67,27.19-31,28.31-31.79-27.61Z"/><path class="cls-1" d="M1191.91,2145.77l29.7,27.29-31,28.71-31.38-27.95Z"/><path class="cls-1" d="M1566.43,2455.89l-31.6-27.84,32.87-27.84,29.55,27.22Z"/><path class="cls-1" d="M1236.82,2173.48c10-8.59,19.08-16.35,28.16-24.06,1.22-1,2.64-1.84,4.54-3.15l29.19,26.86-30.37,28.19C1257.16,2193.05,1247.49,2183.75,1236.82,2173.48Z"/><path class="cls-1" d="M1048.66,2598.51c-7.79,15.46-16.26,30.15-25.21,46.71L994,2599.13C1001.26,2596.09,1037.42,2595.66,1048.66,2598.51Z"/></g></g></svg>