<svg xmlns="http://www.w3.org/2000/svg" viewBox="0 0 1017.48 248.32"><defs><style>.cls-1{fill:#0081c6;}.cls-2{fill:#033680;}.cls-3{fill:#b9b9b9;}</style></defs><title>ascendas-business-solutions-logo</title><g id="Layer_2" data-name="Layer 2"><g id="Layer_1-2" data-name="Layer 1"><path class="cls-1" d="M180.06,146.66c-6.78,3.94-14.13,8.48-21.79,12.41-1.43.74-4.53-.45-6.11-1.7s-2.21-3.66-3.28-5.56c-7.35-13.14-10.92-15.11-25.73-12.93-2.24.33-4.7,2.66-6.05,4.72-3.38,5.16-6.18,10.7-9.88,17.29L82.39,146.2C81,135,97.8,129.24,87.05,116c-10.23-12.56-19.44,1.38-30.53-3.09-1.47-7-3.51-15.68-4.87-24.42-.24-1.56,1.95-4.38,3.68-5.19,3.32-1.56,7.15-2,10.72-3.07,4.61-1.39,9.43-1.81,10.66-8.47,1.17-6.37,1.24-11.24-4.55-15.51C67.24,52.65,63.05,48,57.79,43.14L78.5,19.71c5,4.31,9.08,8.54,13.87,11.75,2.8,1.88,7.57,3.92,9.93,2.76,5.47-2.69,14-3.11,12.91-13.12-.74-6.71-.14-13.57-.14-21.1h32.62c0,6.84.52,13.65-.13,20.34-.81,8.32,5.6,9.05,10.57,11.9s8,.94,11.34-2.54c3.62-3.79,7.56-7.27,12.4-11.87,6.43,6.89,12.66,13.24,18.39,20,1,1.24.77,4.62-.18,6.29-1.32,2.34-3.85,4-5.86,5.94-8.83,8.52-10.3,15.68-4.53,26,1.14,2,4.27,3.35,6.75,4.13,4.67,1.46,9.54,2.29,15.61,3.68l-5.72,29.53c-10.39,3.26-19.58-8.79-29.68,4C166.4,130.32,180.84,136.12,180.06,146.66Zm-22.4-64.22C157.58,67.85,146.74,57,132.39,57c-14.14.06-25.21,11.4-25.15,25.76a25.12,25.12,0,0,0,25.47,25.41C147,108.11,157.75,97,157.66,82.44Z"/><path class="cls-2" d="M185,134c9.09-2.81,17.83-5.9,26.8-7.93,1.67-.38,5.34,3.1,6.33,5.52,5.47,13.29,23.13,19,34.77,11.39,1.85-1.21,6.49-.76,8.11.77,5,4.66,8.88,10.39,13.57,15.36,4.12,4.36,3.18,7.74-1.39,10.54-6.35,3.89-8.84,9-6.93,16.45a15.77,15.77,0,0,1-.4,8.3c-2.1,6.54-.66,11.53,5.2,15.17,5.67,3.53,5.58,7.54,1.22,12.13a51.76,51.76,0,0,0-3.92,5.22c-9.53,13-9.45,12.86-23.47,5.37-2.37-1.27-5.84-1.06-8.7-.7-3.35.42-6.62,2.65-9.85,2.5-8.82-.4-14.72,2.29-17.39,11.41-.48,1.62-5.27,3.13-7.77,2.74-3.53-.56-6.77-3-10.15-4.51-13.64-6.27-13.65-6.26-8.22-20.24,2.55-6.57-7.06-21.14-14.41-20.75-8,.43-10.75-2.6-9.78-10.19a68.54,68.54,0,0,0,.12-8.39c.06-13,.07-12.88,12.94-14.31a11.63,11.63,0,0,0,6.69-3.81c3.86-4.4,9-8.87,10.19-14.08S186.51,140.75,185,134Zm49.51,55c.2-8.5-6.63-15.78-14.86-15.87s-15.15,7-15.12,15.59a15.36,15.36,0,0,0,14.39,15.34C227.13,204.45,234.3,197.52,234.5,189Z"/><path class="cls-1" d="M835.7,113.52c0,13.35-.24,26.71.09,40.06.2,8-3.54,11.44-11.11,11.45-14.29,0-28.59.38-42.86-.15-16.34-.61-23.94-8.06-24.33-24.43-.26-10.78.09-21.83,2.2-32.35,2.73-13.56,10.12-18.5,23.89-18.79,6.83-.15,13.68-.32,20.5.05,7,.38,9.65-2.78,9.23-9.41-.16-2.47.09-5,0-7.45-.42-8.54,4.43-11.88,12.09-11.67,7.26.19,11.31,3.62,11.1,11.7-.36,13.66-.1,27.33-.1,41ZM813,127.24c0-4,0-8,0-12.07,0-9.19-5.59-12.31-13.71-12.81-11.32-.7-17.85,2.45-18.62,10.54a137.73,137.73,0,0,0-.05,28.63c.41,3.54,4.95,8.81,8.3,9.42,18.36,3.33,24.79-.55,24.11-17.22C812.94,131.58,813,129.41,813,127.24Z"/><path class="cls-3" d="M83,135.28c-10.94,6.64-6.2,16.13-6,24.74a9.35,9.35,0,0,0,2,4.92c1.93,2.59,6.47,5.6,6,7.19a57.8,57.8,0,0,1-8.24,15.54c-.75,1.05-5,.41-7.2-.48-8.88-3.6-22.43,1.57-27,9.89-1.09,2-5,3.37-7.58,3.26-3.6-.16-7.08-2.22-10.72-3-5-1.08-5.52-3.76-4.12-8.21,2.81-8.91-2.56-15.71-11.92-16.52-2.27-.2-5.47-2.49-6.24-4.56A37.08,37.08,0,0,1,0,155.21a7.12,7.12,0,0,1,3.72-5.26c12.64-5.07,15.14-9.8,12.14-22.94a6.91,6.91,0,0,1,2.39-5.85A41.48,41.48,0,0,1,30,115.67a8.21,8.21,0,0,1,6.94,2c7.9,9,15.91,10.55,25.6,4.71a7,7,0,0,1,6.3.38C73.51,126.25,77.66,130.43,83,135.28Zm-50.59,22c.43,7.15,4,11.64,11.25,12.29,5.92.53,11.89-5.76,11.88-11.83,0-6.23-5.68-11.94-12-11.65C36.64,146.39,33.11,150.46,32.43,157.26Z"/><path class="cls-1" d="M371.56,165.83c-7.46,0-14.91.11-22.37,0-12.49-.25-19.48-7.19-20.73-20.35-1.42-14.85,4.42-25.18,16.74-27,9.45-1.38,19.23-.34,28.77-1.33,3.91-.41,10.55-3,10.78-5.13.73-6.76-4.89-9.4-11-9.58-9-.27-18.08.55-27-.39-3.7-.39-7-4.15-10.54-6.38,3.6-2.22,7.1-6.12,10.83-6.36,12.69-.79,25.46-.53,38.19-.23,15.47.37,22.74,7.86,22.81,23.2.07,13.67-.08,27.33-.25,41-.13,10.13-2.5,12.4-12.91,12.54C387.09,165.92,379.33,165.84,371.56,165.83Zm-4-37.82c-1.54,0-3.09,0-4.63,0-8,.06-13,3.49-13.43,12s4.64,12.44,12.37,13.06c4.85.39,10.45,1.09,14.5-.87s8.22-6.64,9-10.79C387.29,131.85,381.43,128,367.54,128Z"/><path class="cls-1" d="M888.74,165.77c-8.39,0-16.93,1-25.1-.36-5.19-.85-11.52-4-14.39-8.14-12-17.4-1.74-38.24,19.14-39.75,7.72-.56,15.57.42,23.24-.41,3.53-.38,6.76-3.44,10.13-5.29-3.31-3.12-6.25-8.27-10-9-7.82-1.43-16.08-.32-24.14-.6-5.82-.2-14.67,2.15-14.45-6.83.19-7.61,8.45-6.42,14.27-6.44,11.18,0,22.37-.17,33.54,0,16.08.29,23.5,7.65,23.56,23.42.05,14-.34,27.95-.33,41.92,0,7.71-3.43,11.54-11.24,11.45-8.07-.09-16.15,0-24.23,0Zm-2.13-40.14L885.1,128c-2.17,0-4.33-.06-6.5,0-7.6.25-12.33,3.85-12.82,11.73s3.89,12.27,11.39,13a55.51,55.51,0,0,0,15.6-.35c8-1.51,12.82-10.3,8.39-17C898.16,131,891.58,128.83,886.61,125.63Z"/><path class="cls-1" d="M668.63,128.64c0-8.71.11-17.43,0-26.14-.13-8,3.8-12.59,11.65-12.65,15.24-.12,30.53-.35,45.7.77,14,1,20.91,9.57,21,23.66q.14,19.6-.28,39.21c-.2,9.65-3.27,12.47-12.2,12.34-8.2-.12-11.68-4-11.34-12.28.46-11.5.35-23,.32-34.54,0-10.65-4-14.67-14.43-14.93-10-.25-16.55,5.1-16.92,14.58-.45,11.5-.26,23-.4,34.54-.12,9.67-3,12.67-11.87,12.64-8.67,0-11.56-3.19-11.64-12.92-.07-8.09,0-16.18,0-24.27Z"/><path class="cls-1" d="M623.27,165.74c-8.36-.5-16.79-.51-25.06-1.64-10-1.37-16.76-7.39-17.24-17.78-.55-11.73-.86-23.64.6-35.24,1.71-13.66,10-20.59,24-21.62a196,196,0,0,1,27.94-.2c17.38,1.21,29.06,16.93,25.93,34.15-1.25,6.88-5.55,9.94-12.52,9.85-11.19-.14-22.38.16-33.56-.11-6.62-.16-10.26,2.91-10.3,9.15s3.5,9.79,10,9.82c9.94,0,19.89.14,29.83,0,4.86-.06,9.09.8,9.14,6.62s-4.38,6.63-9.13,6.56c-6.52-.09-13.05,0-19.58,0Zm-3.52-45.52v.13c1.55,0,3.11,0,4.66,0,5.71-.12,10.79-1.34,11.26-8.32s-3.81-10.49-10-11c-5.15-.41-11-.73-15.4,1.36-3.13,1.49-5.71,7-5.85,10.8-.08,2.24,4.84,5.17,8,6.81C614.35,121,617.26,120.22,619.74,120.22Z"/><path class="cls-1" d="M962.37,153c6.52,0,13.19.81,19.49-.35,3.1-.57,5.52-4.79,8.25-7.36-2.93-2.69-5.54-7.11-8.85-7.71-6.94-1.25-14.25-.33-21.39-.6-13.79-.51-20.91-6.76-22.1-19.08-1.44-15,5.11-25.75,18.8-27.46,12.88-1.62,26-1.34,39.07-1.13,2.26,0,4.46,3.89,6.69,6-2.21,2.16-4.24,5.92-6.65,6.18-7.69.83-15.64-.44-23.24.72-3.56.55-6.54,4.83-9.78,7.41,3.08,2.46,5.91,6.51,9.3,7.07,7.6,1.23,15.52.29,23.23,1,14.43,1.37,19.81,8.8,19.11,25.37-.6,14.21-7.58,21.82-21.12,22.1-15.23.32-30.49.42-45.71-.19-2.85-.11-5.55-4-8.32-6.12,2.77-1.79,5.35-4.59,8.35-5.13,4.82-.86,9.91-.23,14.89-.23Z"/><path class="cls-1" d="M454.27,165.27c-8.08,0-16.22.53-24.22-.29-2.62-.27-4.89-4-7.33-6.17,2.48-1.76,4.84-4.82,7.45-5,8-.67,16.15-.24,24.23-.25,2.8,0,6.06.84,8.29-.31,4-2,7.27-5.31,10.86-8.06-3.6-2.68-6.86-6.6-10.9-7.71-4.91-1.36-10.48-.32-15.77-.37-17.39-.15-25.3-6.66-25.78-21.19-.54-16.21,7.7-25.36,24.64-26.42a257.8,257.8,0,0,1,31.67-.17c2.94.18,5.65,4,8.47,6.13-2.87,2.14-5.54,5.68-8.65,6.12-6.71.94-13.64.3-20.48.29-5.49,0-11.07,1.55-10.06,7.78.48,3,6,6.54,9.76,7.19,7.26,1.27,14.89.22,22.28.94,14.43,1.41,19.73,8.74,19.09,25.38-.54,14-7.71,21.62-21.17,22.08C469.2,165.47,461.73,165.26,454.27,165.27Z"/><path class="cls-1" d="M548.6,165.29c-32.06,0-36.58-4.56-36.38-36.73.21-33,6.3-39.09,39.3-39.25,4.64,0,9.52-.35,13.83.95,2.48.75,5.68,4.56,5.58,6.87s-3.76,5.53-6.35,6.08c-4.77,1-9.9.56-14.86.38-8-.28-12.5,4-13.25,11.41a176.78,176.78,0,0,0-.53,25.11c.29,7,5,10.5,11.71,10.9,5.27.31,10.76-.68,15.78.49,3,.71,5.32,4.46,7.95,6.84-2.62,2.31-4.93,5.92-7.93,6.64C558.75,166.11,553.57,165.29,548.6,165.29Z"/><path class="cls-2" d="M476.91,205.05c4.25,0,8.25-.07,12.23.07a2.74,2.74,0,0,1,1.8,1.49c2.69,6.21,5.27,12.45,7.91,18.67a129.64,129.64,0,0,0,6.15,13V205.16h8v39.33c-4.1,0-8.08.08-12.05-.08-.68,0-1.59-1-1.89-1.72-3.73-8.59-7.37-17.21-11-25.81a34.7,34.7,0,0,0-3-5.85v33.26h-8.06Z"/><path class="cls-2" d="M325.67,244.38V204.85c7.84.21,15.53.14,23.14.72,5.47.42,8.41,3.59,8.92,8.24s-.49,7-4.89,10.38c4.74,2.07,6.34,5.5,6.14,9.77-.29,6.11-4.44,10.06-11.78,10.35C340.13,244.6,333,244.38,325.67,244.38Zm8-5.73c4,0,7.79.09,11.61,0,3.45-.11,5.28-1.78,5.56-4.74.33-3.43-1.24-5.89-4.67-6.18-4.08-.34-8.23-.08-12.5-.08Zm0-16.82c1.77,0,3.41,0,5.05,0a54.18,54.18,0,0,0,5.87-.12c3.56-.42,5.13-2.2,5.16-5.48,0-3.1-1.47-5.05-4.79-5.3-3.71-.27-7.48-.06-11.29-.06Z"/><path class="cls-2" d="M395.51,205.15h7.83a12,12,0,0,1,.16,1.37c0,8.45.13,16.9,0,25.35s-4.85,12.69-15,13.21a39.37,39.37,0,0,1-8.31-.45c-6.91-1.14-10.86-4.65-11.07-10.63-.34-9.46-.09-18.93-.08-28.4,0-.11.12-.22.25-.43h7.7c0,.74,0,1.48,0,2.21,0,8.07.19,16.15,0,24.21-.16,6,4.7,8.42,11.18,7.66,5.18-.61,7.32-2.81,7.35-7.23.05-8.14,0-16.27.05-24.41C395.51,206.85,395.51,206.09,395.51,205.15Z"/><path class="cls-2" d="M524,205.1h29.63v5.67H532.06v11h17.39v5.58H532v11.2h21.51v5.75H524Z"/><path class="cls-2" d="M603.26,243.74a40.54,40.54,0,0,1,.69-4.64c.1-.37,1.07-.86,1.6-.82,3.82.25,7.62.77,11.45.91,5.69.21,9-1.14,9.43-5.51.25-2.43-.79-3.92-3.48-4.78-2.38-.76-4.86-1.31-7.3-2-1.43-.38-2.88-.73-4.28-1.18-8-2.5-9.85-7.53-7.82-14.39,1.22-4.1,5.36-5.84,9.91-6.63,6.34-1.1,12.6.06,18.84.88a1.56,1.56,0,0,1,1.05,1.12,42.15,42.15,0,0,1-.45,4.27c-4-.24-7.78-.59-11.59-.67a32.82,32.82,0,0,0-6.91.57,3.9,3.9,0,0,0-3.36,4c-.07,1.95.56,3.57,2.92,4.28,3.75,1.13,7.5,2.25,11.3,3.24,10.32,2.68,10.81,9.6,8.37,15.63-2,5-7.1,6.61-12.8,7.1a34.1,34.1,0,0,1-6.1-.05C611,244.79,607.32,244.25,603.26,243.74Z"/><path class="cls-2" d="M593,211.1c-4.13-.26-7.87-.6-11.62-.7a33.62,33.62,0,0,0-6.7.47,4.08,4.08,0,0,0-3.69,4,4,4,0,0,0,3.12,4.38c2.83.85,5.69,1.62,8.54,2.43,1.35.38,2.73.72,4,1.18,6.34,2.23,8.74,5.62,8,11.2-.81,6.09-4.58,9.76-11.07,10.73-6.76,1-13.31-.33-20.2-1.26l.72-5.22c3.6.26,7,.59,10.44.74a45.06,45.06,0,0,0,6.51-.19,5.53,5.53,0,0,0,5.37-5.1c.37-2.45-.82-4.09-3.94-5.07-2.25-.71-4.58-1.2-6.88-1.81-1.5-.4-3-.77-4.49-1.24-8.84-2.81-9.61-10-7.16-15.27,1.65-3.54,5.41-5,9.53-5.73,6.34-1.12,12.59,0,18.83.85a1.71,1.71,0,0,1,1.09,1.29A37.2,37.2,0,0,1,593,211.1Z"/><path class="cls-2" d="M414.82,243.46a35.5,35.5,0,0,1,.59-4.22,1.9,1.9,0,0,1,1.49-.87c3.68.23,7.33.67,11,.86a23.16,23.16,0,0,0,5.37-.35,5.37,5.37,0,0,0,4.63-5.24c.15-2.66-.81-4-3.85-4.94-2.33-.72-4.74-1.23-7.1-1.85-1.36-.36-2.73-.7-4.07-1.13-7.79-2.49-9.94-7-8-14.14,1.24-4.45,5.66-6.16,10.61-6.9,6.06-.9,12,.13,17.94.9a1.75,1.75,0,0,1,1.21,1.2,34.27,34.27,0,0,1-.43,4.19c-4.69-.25-9.17-.54-13.66-.7a16.62,16.62,0,0,0-4.22.43c-2.77.63-4,2-4.13,4.2s.91,3.77,3.46,4.6c2.73.89,5.56,1.57,8.34,2.34,1.21.34,2.44.64,3.63,1,5.9,2,8.82,4.25,8.22,11.23-.51,6-4.52,9.64-11.12,10.65C429.56,245.56,422.12,245.09,414.82,243.46Z"/><path class="cls-2" d="M456.77,205.14h7.69v39.18h-7.69Z"/><path class="cls-2" d="M948,211.54v33.15h-7.85V205.46c4.34,0,8.54,0,12.73.07.48,0,1.11.9,1.35,1.48,3.37,7.88,6.67,15.79,10,23.67a51.29,51.29,0,0,0,4,7.69V205.58h8.07V244.8c-4.26,0-8.32.06-12.36-.07-.54,0-1.27-.92-1.53-1.53-3.67-8.4-7.27-16.82-10.9-25.23-.95-2.19-1.93-4.37-2.89-6.55Z"/><path class="cls-2" d="M741.57,225.3c-.67,3.56-1.12,7.16-2,10.68-1.29,4.86-5.09,7.77-10.84,8.91a34.07,34.07,0,0,1-14.53-.24c-6.75-1.58-9.53-6-10.58-11.26a39,39,0,0,1,.12-16.47c2.28-10,10-12.48,20.23-12.12,7.32.26,12.89,2.73,15.23,8.84,1.07,2.8,1.38,5.82,1.94,8.75a15.48,15.48,0,0,1,0,2.86Zm-30.82-1c.43,3.27.59,5.62,1.06,7.92,1,5,2.7,6.51,8.63,7.37,4,.59,9.52-.44,10.9-4.57a29.43,29.43,0,0,0-.51-20.22c-.89-2.37-3.23-3.63-6.12-3.95a35.92,35.92,0,0,0-4.5,0c-3.78.07-6.36,1.71-7.32,4.7C711.88,218.69,711.32,221.94,710.76,224.32Z"/><path class="cls-2" d="M931.49,225.77a98,98,0,0,1-1.82,10.09C928.22,241,924,244,918,245a34.33,34.33,0,0,1-13-.21c-4.93-1-8.4-3.48-10-7.5A31.72,31.72,0,0,1,895,213.2c1.69-4.32,5.45-6.85,10.74-7.85a30.4,30.4,0,0,1,14.9.6c6.62,2.09,8.78,7,9.75,12.35.44,2.44.5,4.93.74,7.39Zm-30.69-.85c.3,2.85.38,4.88.76,6.88.52,2.65,1.27,5.28,4.34,6.8,6.26,3.1,14.25.43,15.92-5.48a31.39,31.39,0,0,0,.12-15.29c-1.08-5-3.15-6.6-9.1-7.13-5-.44-9.22,1-10.48,5.64A85,85,0,0,0,900.8,224.92Z"/><path class="cls-2" d="M813.24,205.54h8.17c0,3.2,0,6.3,0,9.39,0,5.59,0,11.19-.11,16.78a23.74,23.74,0,0,1-.42,4.36c-.9,4.45-4,7.31-9.12,8.57a32,32,0,0,1-14.08.32c-7.26-1.44-10.64-4.65-10.86-11.15-.3-9.27-.12-18.54-.14-27.82a2.77,2.77,0,0,1,.25-.62c2.26,0,4.65-.07,7,.07.4,0,1,1,1,1.53,0,7.75-.14,15.49-.22,23.24a18.18,18.18,0,0,0,0,2.48c.35,2.78,1.38,5.36,4.78,6.39,3.83,1.16,7.73,1.15,11.16-1.06a5.27,5.27,0,0,0,2.37-4.76q.08-12.68.13-25.36C813.24,207.16,813.24,206.42,813.24,205.54Z"/><path class="cls-2" d="M694.06,211.44c-4.87-.28-9.36-.59-13.85-.75a16.32,16.32,0,0,0-4.22.48c-2.58.6-3.79,1.91-3.92,3.9-.15,2.32,1,4,3.51,4.79,3.89,1.18,7.88,2.11,11.75,3.31,8,2.5,8.72,6.2,8.27,12.32-.36,4.88-4.83,8.64-10.88,9.64-4.84.8-15.19.12-20.08-1.32-.06-.11-.17-.23-.16-.34.54-5.1.53-5,6.5-4.4a75.5,75.5,0,0,0,11,.19,5.57,5.57,0,0,0,5.61-4.92c.36-2.92-.7-4.4-4.27-5.44-3.34-1-6.79-1.66-10.13-2.63-8.56-2.48-10.56-7.16-8.53-14.31,1.26-4.44,5.63-6.52,10.61-6.82a112.14,112.14,0,0,1,15.49.47c3.81.3,3.79.54,3.53,3.89C694.21,210.14,694.13,210.76,694.06,211.44Z"/><path class="cls-2" d="M986.27,243.77c.38-5.46.36-5.31,6.67-4.63a66.36,66.36,0,0,0,11,.18,5.2,5.2,0,0,0,5.26-4.69c.38-3.13-.51-4.49-4-5.58-2.25-.71-4.59-1.2-6.88-1.81-1.36-.36-2.72-.72-4.07-1.12-8.4-2.48-9.83-8.18-7.9-14.32,1.29-4.09,5.3-5.87,9.88-6.65,6.34-1.08,12.6-.06,18.83.86a1.56,1.56,0,0,1,1.07,1.11,41.25,41.25,0,0,1-.5,4.24c-4.46-.22-8.78-.47-13.11-.63a21.81,21.81,0,0,0-4.26.2c-2.68.43-4.34,1.94-4.59,3.91-.32,2.47.77,4.18,3.58,5.09s5.43,1.5,8.14,2.25c1.21.33,2.44.65,3.62,1.06,6.86,2.36,9.14,5.73,8.28,12.16-.7,5.18-5.09,8.91-11.51,9.79A59.46,59.46,0,0,1,986.27,243.77Z"/><path class="cls-2" d="M848.48,211.18v33.48H840.4V211.21H827.23v-5.84h6.1c8.75,0,17.5.07,26.25,0,1.54,0,2.24.33,2.15,1.68s0,2.64,0,4.09Z"/><path class="cls-2" d="M758.33,239h18.45v5.68h-26.4V205.55h8Z"/><path class="cls-2" d="M882.15,244.71h-7.76V205.51h7.76Z"/></g></g></svg>