<svg xmlns="http://www.w3.org/2000/svg" viewBox="0 0 1071.82 438.21"><defs><style>.cls-1{fill:#d42327;}.cls-2{fill:#2d2d2d;}.cls-3{fill:#393738;}.cls-4{fill:#454442;}.cls-5{fill:#555150;}.cls-6{fill:#605f5d;}.cls-7{fill:#706f6d;}.cls-8{fill:#81807e;}.cls-9{fill:#908f90;}.cls-10{fill:#9c9b9a;}.cls-11{fill:#ababab;}.cls-12{fill:#b7b7b7;}</style></defs><title>bioaffinity-technologies-logo</title><g id="Layer_2" data-name="Layer 2"><g id="Layer_1-2" data-name="Layer 1"><path class="cls-1" d="M321.82,297.3a72.58,72.58,0,0,1-4.45,26.19,55.33,55.33,0,0,1-12.52,19.63,54.56,54.56,0,0,1-19.43,12.37,75.18,75.18,0,0,1-50.2,0,56.11,56.11,0,0,1-19.58-12.37,55.39,55.39,0,0,1-12.78-19.63,71.11,71.11,0,0,1-4.55-26.19v-6.51a71.47,71.47,0,0,1,4.55-26.23,56.5,56.5,0,0,1,12.68-19.72A54.79,54.79,0,0,1,235,232.43a70,70,0,0,1,25-4.31,70.73,70.73,0,0,1,25.2,4.31,54.7,54.7,0,0,1,19.53,12.41,55.34,55.34,0,0,1,12.58,19.72,73,73,0,0,1,4.45,26.23Zm-21.22-6.88a61,61,0,0,0-2.71-19A36.73,36.73,0,0,0,290,257.56a33.38,33.38,0,0,0-12.76-8.44,48.08,48.08,0,0,0-17.15-2.87,46.9,46.9,0,0,0-16.86,2.87,34,34,0,0,0-12.76,8.44,37.51,37.51,0,0,0-8.08,13.83,58.67,58.67,0,0,0-2.83,19v6.72a59.06,59.06,0,0,0,2.83,19.08,37.47,37.47,0,0,0,8.14,13.92,34.11,34.11,0,0,0,12.88,8.48,47.34,47.34,0,0,0,16.92,2.87q19.4,0,29.85-11.31t10.45-33Z"/><path class="cls-1" d="M166.88,293.83c0-18.28-.19-36.56.11-54.83.09-5.53-1.1-8.45-7.21-7.54a20.78,20.78,0,0,1-5.8,0c-5.75-.79-7.57,1.43-7.53,7.31q.36,55.66,0,111.32c0,4.92,1.21,7.36,6.45,6.83a31.06,31.06,0,0,1,6.64,0c5.76.67,7.56-1.62,7.45-7.46C166.66,330.95,166.88,312.39,166.88,293.83Z"/><path class="cls-1" d="M157.22,174a13.35,13.35,0,1,0,.27,26.7c7.64-.06,12.91-5.34,13-13.06C170.66,179.58,165.16,173.94,157.22,174Z"/><path class="cls-1" d="M35.08,237.77c-6.51,2.57-9,9.56-14.47,13.23q-.27-39-.53-77.93h0a26.11,26.11,0,0,0-19.2,0h0c-.22,3-.64,6-.64,9q-.08,38.64,0,77.29c0,29.92,0,59.84.06,89.75,0,2.55-1.32,7.07,1.89,7.2,6.16.27,13,3.49,18.61-2.06,3-1.9-.87-7.51,4.4-8.2,2.49,2.57,4.52,6.09,7.55,7.54,24.16,11.57,54,7.36,70.09-16.38,19.47-28.63,16-73-7.95-97.66C79.89,225.74,51.82,224.87,35.08,237.77Zm57,1.82,0,0,0,0ZM20.48,252.8h0l0,0ZM89,319.3c-6.6,17.66-22.61,26.23-40.21,22.84-16.51-3.19-28-17.87-28.15-36-.09-15.11-1.55-30.45,6.87-44.25,7.78-9.26,17.05-15.39,29.72-15.79,12.4-.39,21.81,4.8,29.54,13.92C96.69,279.44,96.46,299.44,89,319.3Z"/><path class="cls-2" d="M1059.29,234.51c-6.51-.86-10.11,1.17-11.69,8-1.43,6.14-4.2,12-6.4,17.93l-28.67,77.73c-10-28.7-19.87-57-29.77-85.34-6.75-19.31-6.78-19.3-27.43-18a3,3,0,0,0-.8.33c-.26,3.47,1.71,6.32,2.88,9.34q21.15,54.41,42.48,108.75c1.1,2.82,2.69,5.45,1.27,8.68-3.88,8.84-7.22,17.95-11.59,26.53-4.86,9.54-13.14,14.84-23.88,12.23-8.44-2-7.39,2-8,7.68-.83,8.09,2.94,9.69,9.72,10,14.46.67,25.72-4.94,34.55-16.16,6.23-7.92,10.28-17,14-26.22q18.51-46.55,36.91-93.15c6.26-15.83,12.46-31.69,19-48.24C1067,234.6,1063.07,235,1059.29,234.51Z"/><path class="cls-2" d="M788.66,265.53c-3.77-19.47-15-30.74-34-33.31-19.42-2.63-35.1,4.18-47.77,22.29,0-5.88-.42-9.26.09-12.5,1-6.62-2-8.38-7.87-7.44a10.71,10.71,0,0,1-3.31,0c-7.22-1.14-9.77,1.16-9.66,9.12.5,34.6.22,69.21.22,103.82,0,12.12,0,11.77,12.37,12.2,6.34.22,8.47-1.32,8.34-8.09-.42-22.69-.57-45.41.09-68.1.58-19.6,15.25-34.25,33.3-34.74,17.13-.47,27.14,9.21,28.69,31.39,1.52,21.76.76,43.69.9,65.55.09,14.35,0,14.09,14.6,14,5,0,5.8-1.92,5.73-6.27-.23-13.56.12-27.14-.14-40.7C790,297,791.68,281.18,788.66,265.53Z"/><path class="cls-2" d="M523.38,172.57c-6.42-.23-12.71-.34-18.87,1.55-18.38,5.67-27,19.92-27,44.29,0,15.7,0,15.65-15.63,16.24-2.08.08-4.86-1.47-5.78,2.6-2.43,10.65.14,14.23,10.91,14.24a20.71,20.71,0,0,0,3.32,0c5.95-1,7.46,1.62,7.32,7.36-.38,15.5-.13,31-.13,46.53,0,16.06.15,32.13-.09,48.19-.07,4.55,1,6.71,5.91,6.07a22,22,0,0,1,6.63,0c6.92,1.22,8-2.09,7.91-8.21-.29-31,0-62-.25-93.06,0-5.31,1.17-7.45,6.8-7s11.62.15,17.44.08c1.81,0,3.8.55,4.89-2,3.44-7.94-.85-14.91-9.34-14.91-5.26,0-10.53-.1-15.79,0-2.75.07-4.07-.72-3.92-3.72.41-8-.81-16.08.81-24,2.77-13.54,11.24-20.21,24.49-16.78,9.13,2.36,9-.94,9-7.84C532.08,175.68,530.31,172.82,523.38,172.57Z"/><path class="cls-2" d="M605.63,173.32c-21.19-6.15-42.57,6.44-48.59,27.72-2.09,7.38-1.28,14.84-1.39,22.28-.16,11.28-.09,11.93-11.41,11.07-8.55-.65-10.89,2.06-10.2,10.31.43,5.11,1.18,7.69,6.84,6.87,2.71-.39,5.56.21,8.29-.13,5.13-.63,6.66,1.33,6.56,6.48-.32,15.5-.12,31-.12,46.53,0,16.34.14,32.68-.09,49-.06,4.44.84,6.82,5.82,6.15a22.3,22.3,0,0,1,6.63,0c6.74,1.14,8.07-1.83,8-8.12-.32-30.74,0-61.49-.28-92.23-.06-5.93,1-8.66,7.58-7.9,5.47.63,11.07.18,16.6.1,2.06,0,4.22.59,5.09-2.69,2.62-9.9-.31-14.18-10.2-14.18-4.71,0-9.42-.16-14.12.05-3.38.16-5.06-.6-4.88-4.49.33-6.91-.3-13.89.37-20.75,1.48-15.35,11.58-22.43,26.58-19.54,2.22.43,6.75,4.82,6.77-.88C609.49,183.81,614.4,175.86,605.63,173.32Z"/><path class="cls-2" d="M937.86,251.68c6.92.37,8.74-1.75,8.75-8.66s-1.81-9.32-8.73-8.54c-5.2.59-10.58-.41-15.76.25-6.68.84-7.8-2-7.5-7.87.47-9.49.13-19,.13-28.74-20.54,4.5-20.54,4.5-20.54,22,0,14.27,0,14.21-14.8,14.55-2.24.05-5.11-1.39-6.65,1.69-3.71,7.44.94,15.14,9.13,15.15a26.15,26.15,0,0,0,4.15,0c6.52-1.05,8.44,1.53,8.32,8.13-.4,22.71-.35,45.44-.1,68.16.26,23.9,11.62,35.72,34.48,34.69,20.93-.94,18.3-2.64,16.92-19.81-23.27,7.26-30.91,1.49-30.92-23.35,0-15-.16-29.93.07-44.89.11-7.39-3.23-17.05,1.43-21.55S930.5,251.29,937.86,251.68Z"/><path class="cls-2" d="M646.53,248c0-13.6,0-13.28-13.38-13.6-5.85-.14-7.44,1.51-7.32,7.34.39,18.27.14,36.55.14,54.82,0,18.83.17,37.66-.12,56.49-.08,5,1.19,7.26,6.42,6.52a19.78,19.78,0,0,1,5.8,0c6.93,1.1,8.69-1.68,8.62-8.57C646.33,316.72,646.53,282.38,646.53,248Z"/><path class="cls-2" d="M847.71,246.93c0-12.42,0-12.08-12.83-12.49-6-.19-8.08,1.13-7.9,7.62.5,18.26.17,36.55.17,54.82q0,25.34,0,50.67c0,12.07,0,11.71,12.39,12.17,6.4.23,8.4-1.43,8.33-8.12C847.52,316.71,847.71,281.82,847.71,246.93Z"/><path class="cls-2" d="M636.84,176.69c-7.67-.11-13.16,5.69-13.07,13.8.09,7.93,5,12.81,12.88,12.78s13.77-5.82,13.59-13.46A13.89,13.89,0,0,0,636.84,176.69Z"/><path class="cls-2" d="M837.67,176.69A13.26,13.26,0,0,0,825,190.31c0,7.83,5.79,13.26,13.8,13,7.54-.27,12.84-5.8,12.74-13.28A13.54,13.54,0,0,0,837.67,176.69Z"/><path class="cls-2" d="M381.46,189.34c-3.44-8.94-10.94-3.11-16.43-4.54-5.18-1.35-7.58,1.27-9.45,6.29-10.63,28.43-54.88,145.66-60.93,159.21-.3.76-.64,1.5-1,2.24-2.75,5.25-2,8,4.74,7.09a30.33,30.33,0,0,1,8.29,0c6,.87,8.61-1.57,10.39-7.39,3.7-12.12,8.58-23.88,12.57-35.93,1.33-4,3.07-5.66,7.5-5.62,20.76.23,41.52.28,62.28,0,4.8-.07,6.82,1.68,8.28,5.9,3.24,9.38,6.89,18.62,10.36,27.92,5.81,15.54,5.8,15.43,22.48,15.15,4.47-.08,6.6-.14,4.4-5.8Q412.95,271.68,381.46,189.34Zm8.42,102.83c-14.64-.63-29.34-.28-44-.12-4.7.05-7.27.05-4.92-6.18,9.53-25.3,18.53-50.8,27.55-75.75,8.91,24.37,17.72,49,27,73.53C398,290.11,398,292.51,389.88,292.16Z"/><circle class="cls-2" cx="376.64" cy="119.75" r="16.76"/><circle class="cls-3" cx="427.9" cy="85.11" r="16.76"/><circle class="cls-4" cx="481.94" cy="57.4" r="16.76"/><circle class="cls-5" cx="540.13" cy="35.23" r="16.76"/><circle class="cls-6" cx="600.16" cy="20.45" r="16.76"/><circle class="cls-7" cx="661.59" cy="16.76" r="16.76"/><circle class="cls-8" cx="723.01" cy="21.84" r="16.76"/><circle class="cls-9" cx="783.51" cy="35.23" r="16.76"/><circle class="cls-10" cx="841.7" cy="57.4" r="16.76"/><circle class="cls-11" cx="896.2" cy="86.03" r="16.76"/><circle class="cls-12" cx="946.54" cy="121.13" r="16.76"/><path class="cls-2" d="M43.89,391.72H27.3v45.76H18.12V391.72H1.68v-7.46H43.89Z"/><path class="cls-2" d="M80.74,413.73H58.88V430.1H84.43v7.38H49.63V384.27H84.17v7.46H58.88v14.69H80.74Z"/><path class="cls-2" d="M129.94,420.16a23.05,23.05,0,0,1-1.83,7.22,17.24,17.24,0,0,1-4.06,5.72,18.31,18.31,0,0,1-6.34,3.76,25.41,25.41,0,0,1-8.64,1.35,21.49,21.49,0,0,1-8.86-1.77,19,19,0,0,1-6.76-5,22.78,22.78,0,0,1-4.29-7.91,33.81,33.81,0,0,1-1.5-10.42v-4.31a33.12,33.12,0,0,1,1.53-10.4,22.93,22.93,0,0,1,4.39-7.95,19.41,19.41,0,0,1,6.89-5.08,22.08,22.08,0,0,1,9-1.79,23.85,23.85,0,0,1,8.41,1.37,18,18,0,0,1,6.2,3.8,17.46,17.46,0,0,1,4,5.79,24.84,24.84,0,0,1,1.85,7.35h-9.21a20.74,20.74,0,0,0-1-4.53,9.66,9.66,0,0,0-2-3.42,8.4,8.4,0,0,0-3.33-2.14,14.29,14.29,0,0,0-4.86-.73,12.08,12.08,0,0,0-5.5,1.19,10.52,10.52,0,0,0-3.93,3.44,16.09,16.09,0,0,0-2.36,5.54,32.34,32.34,0,0,0-.79,7.49v4.39a34.72,34.72,0,0,0,.69,7.24,17.05,17.05,0,0,0,2.16,5.57,10.33,10.33,0,0,0,3.76,3.6,11.19,11.19,0,0,0,5.52,1.28,16,16,0,0,0,5.06-.69,8.63,8.63,0,0,0,3.42-2,9.29,9.29,0,0,0,2.1-3.33,20,20,0,0,0,1.08-4.53Z"/><path class="cls-2" d="M179.41,437.48H170.2V413.84H146.4v23.65h-9.25V384.27h9.25v22.15H170.2V384.27h9.21Z"/><path class="cls-2" d="M231.52,437.48h-9.25l-23.72-37.75v37.75h-9.25V384.27h9.25l23.79,37.9v-37.9h9.17Z"/><path class="cls-2" d="M283.67,412.26a34.52,34.52,0,0,1-1.59,10.87,23.69,23.69,0,0,1-4.48,8.15,19.42,19.42,0,0,1-6.94,5.14,23.37,23.37,0,0,1-17.95,0,19.94,19.94,0,0,1-7-5.14,23.62,23.62,0,0,1-4.57-8.15,33.81,33.81,0,0,1-1.63-10.87v-2.7a34,34,0,0,1,1.63-10.89,24.15,24.15,0,0,1,4.53-8.19,19.51,19.51,0,0,1,7-5.15,21.94,21.94,0,0,1,9-1.79,22.16,22.16,0,0,1,9,1.79,19.47,19.47,0,0,1,7,5.15,23.69,23.69,0,0,1,4.5,8.19,34.7,34.7,0,0,1,1.59,10.89Zm-9.25-2.78a32.51,32.51,0,0,0-.86-7.88,16.8,16.8,0,0,0-2.5-5.72,10.86,10.86,0,0,0-4-3.49,12.05,12.05,0,0,0-5.43-1.19,11.77,11.77,0,0,0-5.34,1.19,11,11,0,0,0-4,3.49,17.07,17.07,0,0,0-2.56,5.72,31.18,31.18,0,0,0-.9,7.88v2.78a31.39,31.39,0,0,0,.9,7.89,17,17,0,0,0,2.58,5.76,11.07,11.07,0,0,0,4.08,3.51,11.88,11.88,0,0,0,5.35,1.19,10.87,10.87,0,0,0,9.45-4.68q3.31-4.68,3.31-13.67Z"/><path class="cls-2" d="M301,430.1h24.16v7.38H291.74V384.27H301Z"/><path class="cls-2" d="M371.82,412.26a34.52,34.52,0,0,1-1.59,10.87,23.69,23.69,0,0,1-4.48,8.15,19.42,19.42,0,0,1-6.94,5.14,23.37,23.37,0,0,1-17.95,0,19.94,19.94,0,0,1-7-5.14,23.62,23.62,0,0,1-4.57-8.15,33.81,33.81,0,0,1-1.63-10.87v-2.7a34,34,0,0,1,1.63-10.89,24.15,24.15,0,0,1,4.53-8.19,19.51,19.51,0,0,1,7-5.15,21.94,21.94,0,0,1,9-1.79,22.16,22.16,0,0,1,9,1.79,19.47,19.47,0,0,1,7,5.15,23.69,23.69,0,0,1,4.5,8.19,34.7,34.7,0,0,1,1.59,10.89Zm-9.25-2.78a32.51,32.51,0,0,0-.86-7.88,16.8,16.8,0,0,0-2.5-5.72,10.86,10.86,0,0,0-4-3.49,12.05,12.05,0,0,0-5.43-1.19,11.77,11.77,0,0,0-5.34,1.19,11,11,0,0,0-4,3.49,17.07,17.07,0,0,0-2.56,5.72,31.18,31.18,0,0,0-.9,7.88v2.78a31.39,31.39,0,0,0,.9,7.89,17,17,0,0,0,2.58,5.76,11.07,11.07,0,0,0,4.08,3.51,11.88,11.88,0,0,0,5.35,1.19,10.87,10.87,0,0,0,9.45-4.68q3.31-4.68,3.31-13.67Z"/><path class="cls-2" d="M420.42,430.58a18.32,18.32,0,0,1-2.34,2.43,17,17,0,0,1-3.86,2.49,27.4,27.4,0,0,1-5.67,1.94,33.91,33.91,0,0,1-7.77.79,24,24,0,0,1-9.19-1.72,19.91,19.91,0,0,1-7.18-5,22.7,22.7,0,0,1-4.66-8,32.76,32.76,0,0,1-1.66-10.85v-3.51a36.11,36.11,0,0,1,1.5-10.84,22.66,22.66,0,0,1,4.31-8.06,18.31,18.31,0,0,1,6.87-5,23.43,23.43,0,0,1,9.21-1.72,25.78,25.78,0,0,1,8.48,1.26,17.46,17.46,0,0,1,6.1,3.53,16.46,16.46,0,0,1,3.91,5.39,23.61,23.61,0,0,1,1.9,6.85h-9.06a15.59,15.59,0,0,0-1.1-3.84,9.35,9.35,0,0,0-2.1-3,9.49,9.49,0,0,0-3.29-2,13.33,13.33,0,0,0-4.66-.73,12.4,12.4,0,0,0-5.65,1.21,10.52,10.52,0,0,0-4,3.53,16.69,16.69,0,0,0-2.38,5.7,34.12,34.12,0,0,0-.79,7.69v3.58a28.75,28.75,0,0,0,1,7.77,16.54,16.54,0,0,0,2.72,5.68,11.74,11.74,0,0,0,4.31,3.51,13.26,13.26,0,0,0,5.76,1.21,23,23,0,0,0,4.08-.31,14.74,14.74,0,0,0,2.87-.79,8.46,8.46,0,0,0,1.92-1,9.47,9.47,0,0,0,1.22-1.08V417.2h-11v-7h20.17Z"/><path class="cls-2" d="M439.09,437.48h-9.21V384.27h9.21Z"/><path class="cls-2" d="M480.29,413.73H458.43V430.1H484v7.38H449.19V384.27h34.54v7.46H458.43v14.69h21.86Z"/><path class="cls-2" d="M518.15,423.78a8.11,8.11,0,0,0-.47-2.87,5.69,5.69,0,0,0-1.74-2.32,14.44,14.44,0,0,0-3.47-2,53.61,53.61,0,0,0-5.68-2,54.6,54.6,0,0,1-7-2.59,24.21,24.21,0,0,1-5.54-3.4,14.55,14.55,0,0,1-3.64-4.46,12.3,12.3,0,0,1-1.32-5.77,12.91,12.91,0,0,1,1.37-5.92,14,14,0,0,1,3.86-4.68,18.35,18.35,0,0,1,6-3.07,25.39,25.39,0,0,1,7.68-1.1,23.61,23.61,0,0,1,8.08,1.3,18.1,18.1,0,0,1,6,3.53,15.38,15.38,0,0,1,3.78,5.17,15.19,15.19,0,0,1,1.32,6.27h-9.21a10.17,10.17,0,0,0-.6-3.56,7.41,7.41,0,0,0-1.85-2.81,8.5,8.5,0,0,0-3.14-1.85,13.77,13.77,0,0,0-4.5-.66,14.55,14.55,0,0,0-4.24.55,8.48,8.48,0,0,0-3,1.53,6.06,6.06,0,0,0-1.75,2.34,7.49,7.49,0,0,0-.57,2.92,5.86,5.86,0,0,0,2.8,4.93,29.78,29.78,0,0,0,8.53,3.65,49.43,49.43,0,0,1,7.78,2.92,22.34,22.34,0,0,1,5.46,3.64,13.15,13.15,0,0,1,3.23,4.57,14.73,14.73,0,0,1,1.06,5.72,13.41,13.41,0,0,1-1.33,6,12.92,12.92,0,0,1-3.8,4.57,17.83,17.83,0,0,1-6,2.89,28.37,28.37,0,0,1-7.82,1,28,28,0,0,1-7.57-1,21.38,21.38,0,0,1-6.69-3.14,16.37,16.37,0,0,1-4.77-5.24,14.54,14.54,0,0,1-1.81-7.38h9.25a9.66,9.66,0,0,0,.9,4.33,8.08,8.08,0,0,0,2.45,3,10.27,10.27,0,0,0,3.67,1.68,18.78,18.78,0,0,0,4.57.53q4.82,0,7.25-2A6.31,6.31,0,0,0,518.15,423.78Z"/></g></g></svg>