<svg width="188" height="115" viewBox="0 0 188 115" fill="none" xmlns="http://www.w3.org/2000/svg">
<g clip-path="url(#clip0_182_1635)">
<rect width="188" height="115" fill="white"/>
<path d="M187.527 42.7492H182.709V51.6259C182.709 53.0319 181.925 53.824 180.562 53.824H141.476V43.2203C141.138 43.1242 140.812 43.0328 140.488 42.9484C137.039 42.0603 135.23 42.0251 134.623 42.0251C133.016 42.0251 130.836 42.3134 129.361 43.1968C128.087 43.9207 127.017 44.954 126.25 46.201C125.508 47.452 125.132 48.8857 125.164 50.3394C125.152 51.4995 125.395 52.6482 125.875 53.7047C126.354 54.7613 127.06 55.7002 127.941 56.4556C128.024 56.5259 129.87 58.3467 133.196 58.499H136.861C136.392 60.4862 134.78 61.6555 132.655 61.6555H129.525L131.519 66.0775H132.652C134.777 66.0761 136.83 65.3083 138.433 63.9155C140.036 62.5226 141.081 60.5983 141.377 58.4967L142.817 58.5154H181.027C181.665 58.5189 182.302 58.4505 182.925 58.3116L183.103 58.2694C186.821 57.3156 187.471 53.6951 187.527 51.6236C187.527 51.4994 187.527 51.3892 187.527 51.2744V42.7492ZM136.734 53.7842L136.596 53.8662C135.937 54.2528 135.071 54.4473 134.015 54.4473C132.645 54.4473 131.604 54.0302 130.822 53.1725C130.165 52.3473 129.826 51.3136 129.868 50.2597C129.821 49.0412 130.187 48.0288 130.951 47.2602C131.789 46.3979 132.908 45.9761 134.374 45.9761C135.085 45.9734 135.793 46.0521 136.486 46.2104L136.737 46.269L136.734 53.7842Z" fill="#323232"/>
<path d="M9.61859 42.6953C10.4439 42.6577 11.258 42.4892 12.0303 42.1962V38.4468H7.22098V40.7644C7.22098 42.0673 8.00454 42.6953 9.61859 42.6953Z" fill="#323232"/>
<path d="M115.977 51.654C115.977 53.0062 115.189 53.8146 113.865 53.8146H77.418C75.2925 53.8146 74.6802 52.6265 74.699 50.3277V42.7492H69.9483V51.0213C69.9483 52.9663 69.0381 53.8732 67.0862 53.8732H30.0874C28.7807 53.8732 28.0323 53.0835 28.0323 51.7126V35.6043H23.3403V51.3658C23.3403 55.9565 25.6136 58.4826 29.7379 58.4826H67.363C69.3313 58.4826 71.0791 57.6882 72.0386 56.3595L72.2873 56.015L72.5594 56.3408C73.7324 57.7468 75.3934 58.4826 77.3781 58.4826H114.33C120.103 58.4826 120.727 53.5053 120.727 51.3658V42.7492H115.977V51.654Z" fill="#323232"/>
<path d="M14.1722 58.0374C14.1753 58.0893 14.1816 58.1409 14.191 58.192C14.2156 58.34 14.2298 58.4896 14.2332 58.6396V58.874L14.022 58.956C12.347 59.6121 10.7986 59.9449 9.42154 59.9449C6.31074 59.9449 4.66854 58.4123 4.66854 55.5136V47.286H0V56.3478C0 61.4001 3.06153 63.8466 9.36054 63.8466C11.8379 63.8466 14.9206 63.2068 18.7797 61.8946V47.286H14.1722V58.0374Z" fill="#323232"/>
<path d="M59.037 64.1559C59.037 65.4495 59.8206 66.0775 61.4323 66.0775C62.2576 66.0399 63.0717 65.8714 63.844 65.5783V61.8289H59.037V64.1559Z" fill="#323232"/>
<path d="M67.2246 64.1559C67.2246 65.4495 68.0082 66.0775 69.6199 66.0775C70.442 66.0389 71.2528 65.8704 72.0222 65.5783V61.8289H67.2246V64.1559Z" fill="#323232"/>
<path d="M111.182 64.1559C111.182 65.4495 111.965 66.0775 113.577 66.0775C114.402 66.0399 115.216 65.8714 115.989 65.5783V61.8289H111.182V64.1559Z" fill="#323232"/>
<path d="M174.432 64.1559C174.432 65.4495 175.216 66.0775 176.827 66.0775C177.651 66.0394 178.464 65.8709 179.234 65.5783V61.8289H174.432V64.1559Z" fill="#323232"/>
<path d="M85.7393 0.0999068C82.0867 0.307527 78.4476 0.708028 74.8374 1.29972C74.81 1.30251 74.7849 1.31606 74.7675 1.33737C74.7501 1.35868 74.7419 1.38602 74.7447 1.41337C74.7475 1.44071 74.7611 1.46583 74.7824 1.48319C74.8038 1.50055 74.8311 1.50873 74.8585 1.50593C89.453 1.92539 102.218 9.85301 109.685 21.6777C111.334 24.285 113.618 26.433 116.322 27.9215C119.027 29.4101 122.064 30.1909 125.152 30.1911L130.487 30.2591H148.938C138.604 12.2503 114.185 -1.30377 85.7393 0.0999068Z" fill="#C8102E"/>
<path d="M38.6011 30.1419H50.3733C52.642 30.1373 54.8624 29.4865 56.7739 28.2658C58.6853 27.0451 60.2086 25.3051 61.1649 23.2501C61.8635 21.7392 62.7115 20.3018 63.6962 18.9593C66.6322 15.1909 70.6694 12.4285 75.2479 11.0552C77.4266 10.4551 79.6852 10.1958 81.9434 10.2865L81.9598 10.1811C78.4248 8.96336 74.7128 8.33706 70.9735 8.32748C56.5503 8.3017 44.1048 17.2862 38.6011 30.1419Z" fill="#C8102E"/>
<path d="M16.6026 86.5913V86.4906C18.0672 85.8858 19.3298 84.8781 20.2436 83.5848C21.1682 82.3247 21.6655 80.8025 21.663 79.2402C21.6739 72.8881 17.3463 69.7035 8.6802 69.6863C6.43742 69.6863 3.59407 69.6464 0.0750737 70.1128L0 103.942C1.54836 104.209 7.18345 104.499 8.5019 104.502C18.0626 104.52 22.8493 101.254 22.8618 94.7017C22.9108 92.8303 22.3329 90.9961 21.2196 89.4901C20.1201 88.0216 18.5811 87.0553 16.6026 86.5913ZM6.24271 75.2588C6.73693 75.1932 7.20613 75.1362 7.65031 75.0877C8.08572 75.0391 8.52359 75.0156 8.96172 75.0174C10.9058 75.0174 12.372 75.2518 13.3605 75.7204C14.6758 76.4141 15.3327 77.6498 15.3311 79.4277C15.3311 82.4584 13.2979 83.9691 9.23151 83.9597H6.2169L6.24271 75.2588ZM8.96407 99.0698C8.51724 99.0688 8.0708 99.043 7.62684 98.9924C7.16703 98.944 6.68923 98.8854 6.19344 98.8167L6.21455 89.2862H9.37931C14.126 89.2956 16.4963 90.9469 16.49 94.2401C16.4838 97.4724 13.9751 99.0823 8.96407 99.0698Z" fill="#323232"/>
<path d="M39.2157 78.8254C35.4903 78.8254 32.4882 80.0377 30.2095 82.4623C27.9307 84.8869 26.7874 87.9638 26.7796 91.6928C26.7702 95.411 27.8846 98.4753 30.1226 100.886C32.4577 103.328 35.4707 104.552 39.1618 104.558C42.8872 104.558 45.8893 103.363 48.1681 100.973C50.4468 98.5824 51.5948 95.5086 51.612 91.7514C51.612 88.0302 50.4812 84.9486 48.2197 82.5068C45.9582 80.065 42.9568 78.8379 39.2157 78.8254ZM43.7271 97.0615C42.6698 98.7066 41.152 99.5259 39.1735 99.5197C37.1951 99.5134 35.6803 98.6878 34.6293 97.0428C33.7754 95.6914 33.3507 93.9284 33.3554 91.7538C33.3554 89.6151 33.7871 87.838 34.6504 86.4226C35.7077 84.7776 37.2263 83.9574 39.2064 83.9621C41.1864 83.9668 42.7003 84.8096 43.7482 86.4906C44.6022 87.9075 45.0276 89.6705 45.0244 91.7796C45.0198 93.9573 44.5873 95.7203 43.7271 97.0685V97.0615Z" fill="#323232"/>
<path d="M78.2368 98.7698L78.2766 79.4581L72.3436 79.4464L72.3061 97.3732C72.3061 97.474 72.3061 97.6075 72.3295 97.7692C72.353 97.9309 72.3694 98.1465 72.4023 98.4113C70.5255 99.1299 68.8598 99.4885 67.4053 99.4869C64.1428 99.4869 62.5147 97.9692 62.5209 94.9337L62.5538 79.4253H56.6207L56.5855 95.8711C56.5746 101.698 60.1616 104.62 67.3466 104.635C70.2791 104.635 74.0218 103.836 78.5746 102.238C78.4432 101.448 78.3564 100.766 78.3071 100.188C78.2579 99.6088 78.2344 99.1307 78.2368 98.7698Z" fill="#323232"/>
<path d="M96.4206 78.9519C94.4924 78.9276 92.5884 79.3818 90.8793 80.2736L90.9051 69.5972H84.9721L84.9064 100.129C84.9064 100.459 84.8782 100.869 84.829 101.364C84.7797 101.858 84.7187 102.433 84.653 103.091C87.6812 104.174 90.8769 104.716 94.0933 104.692C97.9142 104.692 101.131 103.496 103.742 101.106C106.384 98.6753 107.709 95.5992 107.717 91.878C107.724 88.1567 106.791 85.1259 104.918 82.7857C102.88 80.2377 100.047 78.9598 96.4206 78.9519ZM99.4469 97.2302C98.1957 98.8097 96.4972 99.5962 94.3514 99.59C93.1413 99.6172 91.9359 99.4316 90.7902 99.0417C90.821 98.896 90.8375 98.7476 90.8394 98.5988V98.3011L90.8676 85.2626C91.8904 84.4815 93.2425 84.0909 94.9238 84.0909C96.9992 84.0909 98.5797 84.8682 99.6651 86.4226C100.619 87.8411 101.094 89.6033 101.089 91.7092C101.088 93.9761 100.541 95.8172 99.4492 97.2326L99.4469 97.2302Z" fill="#323232"/>
<path d="M159.251 87.1327C159.251 84.4003 158.382 82.3412 156.642 80.9555C154.999 79.7057 152.792 79.0754 150.022 79.0644C146.658 79.0443 143.331 79.7643 140.277 81.1735L142.294 85.6727C144.462 84.7204 146.802 84.2212 149.17 84.2058C151.939 84.2058 153.321 84.9658 153.318 86.4859C153.318 87.5716 151.999 88.409 149.36 88.998C145.433 89.8447 142.959 90.5305 141.938 91.0554C139.299 92.4005 137.976 94.4885 137.968 97.3193C137.968 99.9563 139.219 101.935 141.722 103.255C143.664 104.28 146.103 104.795 149.037 104.802C151.805 104.802 155.317 104.183 159.573 102.946C159.376 101.919 159.263 100.878 159.232 99.8337L159.251 87.1327ZM149.088 99.9157C146.021 99.9157 144.491 98.9081 144.497 96.8928C144.497 95.8398 145.108 95.0509 146.329 94.526C146.891 94.2666 148.161 93.9237 150.139 93.4972C151.724 93.1707 152.779 92.745 153.306 92.2201L153.295 98.2754C153.296 98.3991 153.304 98.5227 153.318 98.6456C153.335 98.7956 153.358 98.9854 153.391 99.2151C152 99.664 150.55 99.9002 149.088 99.9157Z" fill="#323232"/>
<path d="M176.919 79.1207C174.082 79.1207 170.339 79.9354 165.691 81.5648C165.821 82.3569 165.91 83.0403 165.958 83.6153C166.007 84.1902 166.03 84.6588 166.029 85.0213L165.989 104.333H171.922L171.959 86.4062C171.959 86.2726 171.959 86.125 171.936 85.961C171.913 85.7969 171.894 85.5977 171.863 85.3681C173.74 84.6463 175.405 84.287 176.858 84.2901C180.12 84.2901 181.749 85.8087 181.745 88.8457L181.712 104.368H187.647L187.68 87.9224C187.692 82.0702 184.105 79.1363 176.919 79.1207Z" fill="#323232"/>
<path d="M123.676 98.3199L116.638 79.5378L109.969 79.5284L119.177 101.57C119.899 103.289 120.821 104.262 121.94 104.49C120.822 107.316 119.117 109.367 116.824 110.641L119.967 115C122.901 113.391 125.19 110.286 126.832 105.685L136.281 79.5776L130.004 79.5659L123.676 98.3199Z" fill="#323232"/>
</g>
<defs>
<clipPath id="clip0_182_1635">
<rect width="188" height="115" fill="white"/>
</clipPath>
</defs>
</svg>
