<?xml version="1.0" encoding="utf-8"?>
<!-- Generator: Adobe Illustrator 21.1.0, SVG Export Plug-In . SVG Version: 6.00 Build 0)  -->
<svg version="1.1" id="Layer_1" xmlns="http://www.w3.org/2000/svg" xmlns:xlink="http://www.w3.org/1999/xlink" x="0px" y="0px"
	 viewBox="0 0 375 81.7" style="enable-background:new 0 0 375 81.7;" xml:space="preserve">
<style type="text/css">
	.st0{fill:#29303A;}
	.st1{clip-path:url(#SVGID_2_);}
	.st2{fill:url(#SVGID_3_);}
	.st3{clip-path:url(#SVGID_5_);}
	.st4{fill:url(#SVGID_6_);}
	.st5{clip-path:url(#SVGID_8_);}
	.st6{fill:url(#SVGID_9_);}
	.st7{clip-path:url(#SVGID_11_);}
	.st8{fill:url(#SVGID_12_);}
</style>
<g id="Layer_2">
	<g id="Layer_1-2">
		<path class="st0" d="M107.6,22c-0.1-1.8,1.4-3.3,3.2-3.4c0.1,0,0.1,0,0.2,0c1.9,0,3.4,1.4,3.4,3.3c0,0,0,0,0,0.1v13.2
			c2.2-3.1,5.2-5.5,10.1-5.5c6.9,0,13.7,5.5,13.7,15.3v0.1c0,9.8-6.7,15.3-13.7,15.3c-4,0-7.8-1.9-10.1-5.2v1.5
			c0,1.9-1.5,3.4-3.4,3.4c-1.9,0-3.4-1.5-3.4-3.4V22z M131.3,45.1V45c0-5.7-3.9-9.5-8.4-9.5s-8.6,3.8-8.6,9.5v0.1
			c0,5.7,4,9.5,8.6,9.5C127.4,54.6,131.3,51,131.3,45.1"/>
		<path class="st0" d="M145.1,33.4c0-1.8,1.4-3.4,3.3-3.4c0,0,0,0,0.1,0c1.9,0,3.4,1.5,3.4,3.4c0,0,0,0,0,0v3
			c1.6-3.7,4.5-6.5,7.4-6.5c1.7-0.1,3.2,1.2,3.4,2.9c0,0.1,0,0.3,0,0.4c0.1,1.6-1.1,3-2.7,3.3c-4.8,0.8-8.1,4.5-8.1,11.5v8.7
			c0,1.9-1.5,3.4-3.4,3.4c0,0,0,0,0,0c-1.8,0-3.3-1.5-3.4-3.3c0,0,0,0,0,0L145.1,33.4z"/>
		<path class="st0" d="M165.6,45.2v-0.1c0-8.7,7-15.8,15.7-15.8s15.8,7,15.8,15.7v0.1c0,8.5-7,15.4-15.5,15.4c-0.1,0-0.2,0-0.3,0
			c-8.4,0.2-15.5-6.5-15.7-14.9C165.6,45.5,165.6,45.4,165.6,45.2 M190.4,45.2v-0.1c0-5.2-3.8-9.5-9.1-9.5s-8.9,4.3-8.9,9.4v0.1
			c0,5.2,3.8,9.5,9,9.5C186.9,54.6,190.4,50.3,190.4,45.2"/>
		<path class="st0" d="M202.1,51.3v-0.1c0-6.4,5-9.5,12.2-9.5c2.7,0,5.4,0.4,8,1.2v-0.7c0-4.2-2.6-6.4-7.3-6.4
			c-2.2,0-4.5,0.4-6.6,1.2c-0.3,0.1-0.7,0.2-1.1,0.2c-1.6,0-2.8-1.2-2.9-2.8c0-1.2,0.7-2.2,1.8-2.7c3-1.2,6.3-1.8,9.5-1.7
			c4.4,0,7.7,1.2,9.8,3.3s3.2,5.3,3.2,9.1v14.5c0,1.8-1.4,3.2-3.2,3.3c0,0-0.1,0-0.1,0c-1.7,0.1-3.2-1.1-3.3-2.8c0,0,0,0,0-0.1v-1.1
			c-2.4,2.8-5.9,4.4-9.6,4.3C207,60.5,202.1,57.3,202.1,51.3 M222.4,49.2v-2c-2.1-0.8-4.4-1.2-6.7-1.2c-4.4,0-6.9,1.9-6.9,4.9v0.1
			c0,2.8,2.5,4.5,5.8,4.5C219,55.6,222.4,53,222.4,49.2"/>
		<path class="st0" d="M266,56.8c0,1.9-1.5,3.4-3.4,3.4c-1.9,0-3.4-1.5-3.4-3.4v-1.8c-2.2,3.1-5.3,5.5-10.1,5.5
			c-6.9,0-13.7-5.5-13.7-15.3V45c0-9.8,6.7-15.4,13.7-15.4c4,0,7.8,1.9,10.1,5.2V22.1c0-1.9,1.5-3.4,3.4-3.4c1.9,0,3.4,1.5,3.4,3.4
			V56.8z M242.3,45v0.1c0,5.7,3.9,9.5,8.5,9.5s8.6-3.8,8.6-9.5V45c0-5.7-4-9.5-8.6-9.5S242.3,39.1,242.3,45"/>
		<path class="st0" d="M273.5,56.8c-0.5-0.4-0.8-1-0.8-1.6c0-1,0.9-1.9,1.9-1.8c0,0,0,0,0,0c0.4,0,0.8,0.1,1.1,0.3
			c2.7,1.9,5.9,3,9.2,3.1c3.5,0,6-1.8,6-4.6v-0.1c0-2.9-3.4-4-7.2-5.1c-4.5-1.3-9.6-2.9-9.6-8.2v-0.1c0-5,4.1-8.3,9.9-8.3
			c3.2,0.1,6.4,0.9,9.3,2.5c0.7,0.4,1.1,1.1,1.1,1.8c0,1-0.9,1.9-1.9,1.8c-0.3,0-0.7-0.1-1-0.2c-2.3-1.4-4.9-2.2-7.5-2.2
			c-3.4,0-5.6,1.8-5.6,4.2v0.1c0,2.7,3.6,3.8,7.5,5c4.5,1.3,9.3,3.1,9.3,8.3v0.1c0,5.5-4.5,8.7-10.3,8.7
			C280.7,60.4,276.8,59.1,273.5,56.8"/>
		<path class="st0" d="M301.2,45.5v-0.1c0.2-8.3,7.1-14.9,15.4-14.8c8,0.2,14.5,6.6,14.8,14.7v0.1c0.1,8.3-6.6,15.1-14.9,15.1
			c-0.1,0-0.2,0-0.3,0c-8.2,0.1-14.9-6.5-15-14.7C301.2,45.8,301.2,45.6,301.2,45.5 M327,45.5v-0.1c0-6.2-4.6-11.3-10.8-11.3
			c-6.3,0-10.6,5.1-10.6,11.2v0.1c0,6.3,4.6,11.3,10.7,11.3C322.6,56.7,327,51.7,327,45.5"/>
		<path class="st0" d="M340.8,34.7h-2.4c-1,0-1.8-0.8-1.9-1.8c0,0,0,0,0-0.1c0-1,0.8-1.8,1.9-1.9h2.4v-2.5c0-3.3,0.9-5.8,2.5-7.5
			c1.7-1.6,3.9-2.4,6.2-2.2c1.1,0,2.3,0.1,3.4,0.3c0.9,0.2,1.6,0.9,1.6,1.9c0,1-0.8,1.8-1.8,1.9c-0.1,0-0.2,0-0.2,0
			c-0.8-0.1-1.6-0.2-2.4-0.3c-3.4,0-5,2-5,6.2V31h7.5c1,0,1.9,0.7,1.9,1.8c0,0,0,0.1,0,0.1c0,1-0.9,1.8-1.9,1.8c0,0,0,0,0,0h-7.4V58
			c0,1.2-0.9,2.2-2.1,2.2c-1.2,0-2.2-1-2.2-2.2L340.8,34.7z"/>
		<path class="st0" d="M361.2,52.2V34.7h-2.4c-1-0.1-1.9-0.9-1.9-1.9c0-1,0.9-1.9,1.9-1.9h2.4v-6.8c0-1.2,0.9-2.2,2.1-2.2
			c0,0,0,0,0,0c1.2,0,2.2,1,2.2,2.2v6.8h7.5c1.1,0,1.9,0.8,2,1.9c0,1.1-0.9,1.9-2,1.9c0,0,0,0,0,0h-7.5v17c0,3.5,2,4.8,4.9,4.8
			c0.9,0,1.8-0.2,2.6-0.4c1,0,1.8,0.8,1.9,1.8c0,0.8-0.5,1.4-1.2,1.7c-1.3,0.6-2.8,0.8-4.3,0.8C364.8,60.4,361.3,58.1,361.2,52.2"/>
		<g>
			<defs>
				<path id="SVGID_1_" d="M69,0.7H19.1C8.7,1,0.4,9.6,0.7,20C0.9,30,9,38.1,19.1,38.4h17.9L53.5,10c3.3-5.6,9.3-9.1,15.8-9.3
					L69,0.7z"/>
			</defs>
			<clipPath id="SVGID_2_">
				<use xlink:href="#SVGID_1_"  style="overflow:visible;"/>
			</clipPath>
			<g class="st1">
				
					<linearGradient id="SVGID_3_" gradientUnits="userSpaceOnUse" x1="-136.967" y1="-317.5076" x2="-128.217" y2="-317.5076" gradientTransform="matrix(-0.9618 3.6556 3.6556 0.9618 1064.856 821.3763)">
					<stop  offset="0" style="stop-color:#F99B1F"/>
					<stop  offset="0.38" style="stop-color:#F68221"/>
					<stop  offset="1" style="stop-color:#F15E24"/>
				</linearGradient>
				<polygon class="st2" points="-9,35.9 4.7,-16.3 78.6,3.2 64.9,55.4 				"/>
			</g>
		</g>
		<g>
			<defs>
				<path id="SVGID_4_" d="M69.5,0.7c-6.6,0.1-12.7,3.6-16,9.3l-9.1,15.5l16.1,27.6c5.3,9,2.3,20.5-6.7,25.7
					c-2.7,1.6-5.7,2.5-8.9,2.6c6.5-0.2,12.5-3.7,15.7-9.3L86,29.1c5.3-9,2.2-20.5-6.7-25.7c-2.8-1.7-6-2.5-9.3-2.6H69.5z"/>
			</defs>
			<clipPath id="SVGID_5_">
				<use xlink:href="#SVGID_4_"  style="overflow:visible;"/>
			</clipPath>
			<g class="st3">
				
					<linearGradient id="SVGID_6_" gradientUnits="userSpaceOnUse" x1="-66.5498" y1="-361.4112" x2="-57.7998" y2="-361.4112" gradientTransform="matrix(-3.4218 -2.8917 -2.8917 3.4218 -1202.4076 1087.5154)">
					<stop  offset="0" style="stop-color:#38B555"/>
					<stop  offset="0.35" style="stop-color:#319E4C"/>
					<stop  offset="1" style="stop-color:#24783D"/>
				</linearGradient>
				<polygon class="st4" points="4.6,47.8 63.9,-22.3 131,34.4 71.7,104.5 				"/>
			</g>
		</g>
		<g>
			<defs>
				<path id="SVGID_7_" d="M28.1,72.1c3.4,5.7,9.5,9.3,16.2,9.3h0.2c10.2,0,18.5-8.2,18.7-18.4v-0.9c-0.1-3.2-1-6.3-2.6-9l-8.7-14.8
					H19.1c-6.6,0-12.6-3.4-16-9L28.1,72.1z"/>
			</defs>
			<clipPath id="SVGID_8_">
				<use xlink:href="#SVGID_7_"  style="overflow:visible;"/>
			</clipPath>
			<g class="st5">
				
					<linearGradient id="SVGID_9_" gradientUnits="userSpaceOnUse" x1="-67.5514" y1="-275.227" x2="-58.8014" y2="-275.227" gradientTransform="matrix(4.2356 0.1923 0.1923 -4.2356 373.6696 -1097.3126)">
					<stop  offset="0" style="stop-color:#FEE000"/>
					<stop  offset="1" style="stop-color:#DBBC26"/>
				</linearGradient>
				<polygon class="st6" points="0.6,81.3 3.1,26.6 65.5,29.4 63,84.2 				"/>
			</g>
		</g>
		<g>
			<defs>
				<path id="SVGID_10_" d="M2.9,29.1L2.9,29.1 M2.9,29.1L2.9,29.1z M2.9,29L2.9,29z M2.9,29L2.9,29z"/>
			</defs>
			<clipPath id="SVGID_11_">
				<use xlink:href="#SVGID_10_"  style="overflow:visible;"/>
			</clipPath>
			<g class="st7">
				
					<linearGradient id="SVGID_12_" gradientUnits="userSpaceOnUse" x1="-67.5414" y1="-270.0072" x2="-58.7914" y2="-270.0072" gradientTransform="matrix(4.2356 0.1923 0.1923 -4.2356 373.9393 -1100.124)">
					<stop  offset="0" style="stop-color:#1B8ECE"/>
					<stop  offset="0.55" style="stop-color:#2679BE"/>
					<stop  offset="1" style="stop-color:#2C6CB5"/>
				</linearGradient>
				<polygon class="st8" points="2.8,29.1 2.8,29 2.9,29 2.9,29.1 				"/>
			</g>
		</g>
	</g>
</g>
</svg>
