<?xml version="1.0" encoding="utf-8"?>
<!-- Generator: Adobe Illustrator 26.4.1, SVG Export Plug-In . SVG Version: 6.00 Build 0)  -->
<svg version="1.1" id="Layer_1" xmlns="http://www.w3.org/2000/svg" xmlns:xlink="http://www.w3.org/1999/xlink" x="0px" y="0px"
	 viewBox="0 0 263.8 78.5" style="enable-background:new 0 0 263.8 78.5;" xml:space="preserve">
<style type="text/css">
	.st0{fill:#0234A0;}
	.st1{fill:#111B35;}
</style>
<g>
	<g>
		<path class="st0" d="M54.1,61.4c-1.2-0.1-1.7,0.4-2.3,1.4c-3.2,6.4-10.7,9.1-17.3,6.3c-6.3-2.7-9.6-9.9-7.5-16.5
			c1.7-5,6.4-8.8,11.5-9.2c5.8-0.4,10.9,2.4,13.4,7.5c0.4,0.9,0.9,1.2,1.9,1.2c2-0.1,4.1-0.1,6.1,0c1,0,1.1-0.3,0.9-1.2
			c-1.3-4.4-3.6-8.1-7.2-10.9c-0.8-0.7-0.8-0.9,0-1.6c3.5-2.9,5.9-6.5,7.2-10.9c0.2-0.8,0.2-1.2-0.8-1.2c-1.9,0.1-3.9,0.1-5.8,0
			c-1.2-0.1-1.8,0.3-2.4,1.5c-3.4,6.6-11.5,9.2-18,5.9c-6.6-3.4-9.3-11.4-6-17.9c2.5-4.9,6.6-7.5,12-7.5c5.5,0,9.6,2.7,12.2,7.5
			c0.3,0.5,0.2,1.3,1.2,1.3c2.6,0,5.2,0,7.9,0c-1.4-9.2-10.7-17-20.3-17c-13,0-25.9,0-38.9,0C0.3,0,0,0.4,0,1.8c0,25,0,49.9,0,74.9
			c0,1.3,0.2,1.8,1.7,1.8c12.9-0.1,25.8,0,38.7,0c1.2,0,2.4-0.1,3.7-0.4c8.3-1.6,15.6-8.7,16.8-16.6C58.7,61.4,56.4,61.5,54.1,61.4z
			 M25.8,40.3c-8.6,7.4-10.2,19.3-4,28.8c0.2,0.3,0.6,0.6,0.6,1.3c-4.4,0-8.8,0-13.2,0c-0.7,0-0.9-0.3-0.8-0.9c0-0.3,0-0.5,0-0.8
			c0-19.6,0-39.2,0-58.8c0-1.3,0.3-1.7,1.7-1.7c4.1,0.1,8.2,0,12.7,0c-2,2.8-3.4,5.5-4.1,8.6c-1.7,8.5,0.6,15.7,7.2,21.5
			C26.8,39.1,26.8,39.4,25.8,40.3z"/>
		<path class="st1" d="M97.8,38.7c1.5-0.7,2.6-1.6,3.3-2.8c2.3-4.4-0.3-9.1-5.3-9.4c-3.6-0.2-7.2-0.1-10.8-0.1c-3.8,0-3.8,0-3.8,3.8
			c0,6.9,0,13.8,0,20.7c0,0.5-0.4,1.4,0.8,1.4c4.8,0,9.7,0.1,14.5-0.2c3.5-0.2,5.7-2.5,6.1-5.7C103,42.6,101.5,40.1,97.8,38.7z
			 M84.9,30.4c0-0.8,0.3-1,1-1c2.7,0,5.4,0,8.2,0c2.8,0.1,4.1,1.4,4,3.9c0,2.3-1.6,3.9-4.1,4c-1.3,0.1-2.7,0-4,0v0c-1.3,0-2.7,0-4,0
			c-0.8,0-1.1-0.1-1.1-1C84.9,34.4,84.9,32.4,84.9,30.4z M95.1,48.9C92,49,88.8,49,85.7,49c-0.7,0-0.8-0.3-0.8-0.9
			c0-2.3,0-4.6,0-6.9c0-0.8,0.4-0.8,1-0.8c1.5,0,3.1,0,4.6,0v0.1c1.5,0,3-0.1,4.5,0c2.4,0.1,3.7,1.6,3.8,4.1
			C98.8,47.3,97.7,48.7,95.1,48.9z"/>
		<path class="st1" d="M140.1,51c-1.4-2.9-2.9-5.8-4.4-8.7c-0.3-0.6-0.4-1,0.4-1.5c3.2-1.9,4.4-5.7,3.3-9.5c-1-3.2-3.4-4.9-7.4-4.9
			c-4.1,0-8.2,0-12.4,0c-1.1,0-1.4,0.2-1.4,1.4c0.1,7.4,0,14.7,0,22.1c0,2.4,0,2.3,2.4,2.3c1,0,1.3-0.2,1.3-1.2c-0.1-2.7,0-5.3,0-8
			c0-0.8,0.2-1.1,1.1-1.1c2.5,0.1,5,0,7.5,0c0.8,0,1.3,0.2,1.6,1c1,2.2,2.4,4.2,3.1,6.5c0.9,2.6,2.5,3.2,4.9,2.8
			c0.1,0,0.2-0.1,0.3-0.1C140.6,51.6,140.3,51.3,140.1,51z M132,38.7c-1.5,0.1-3.1,0-4.6,0c0,0,0,0,0,0c-1.5,0-3,0-4.5,0
			c-0.8,0-1-0.2-1-1c0-2.4,0-4.9,0-7.4c0-0.6,0.1-1,0.9-1c3.2,0.1,6.3,0,9.4,0.1c2.6,0.1,3.9,1.8,3.9,4.5
			C136,36.8,134.5,38.6,132,38.7z"/>
		<path class="st1" d="M202.9,25.8c2.2,0.1,4.8,0.3,7,1.9c1.7,1.2,2.6,2.8,2.7,4.8c0,0.8-0.2,1.2-1.1,1.1c-0.6-0.1-1.2,0-1.8,0
			c-0.5,0-0.8-0.1-0.8-0.7c0-2-1.4-2.9-3.1-3.5c-2.5-0.8-5-0.6-7.4,0.2c-1.2,0.4-2.1,1.2-2.2,2.5c-0.1,1.4,0.6,2.3,1.8,3
			c2.3,1.2,4.9,1.6,7.3,2.4c1.5,0.5,3,0.9,4.3,1.6c2.4,1.2,3.7,3.1,3.6,5.7c0,2.9-1.3,5.3-4,6.4c-4.4,1.8-8.9,1.8-13.3,0
			c-2.6-1.1-4.1-3.2-4.2-6.1c0-0.9,0.2-1.3,1.2-1.2c0.5,0.1,1,0.1,1.4,0c0.9-0.1,1.2,0.1,1.2,1.1c0,1.8,1.1,3,2.8,3.6
			c2.9,1.1,5.9,1,8.8-0.1c1.4-0.5,2.3-1.5,2.4-3.1c0.1-1.6-0.8-2.6-2.1-3.3c-1.8-1-3.9-1.4-5.9-2c-2.1-0.6-4.1-1.1-6-2.2
			c-2.2-1.3-3.3-3.2-3.1-5.7c0.2-2.5,1.6-4.2,3.8-5.3C198.4,26.1,200.5,26,202.9,25.8z"/>
		<path class="st1" d="M250.5,39.4c0,3.7-0.1,7.5,0,11.2c0,1.3-0.4,1.7-1.6,1.5c-0.3,0-0.5,0-0.8,0c-1.1,0.2-1.4-0.3-1.4-1.4
			c0.1-3,0-6,0-9c0-0.9-0.1-1.3-1.2-1.3c-3.9,0.1-7.7,0.1-11.6,0c-1.1,0-1.2,0.4-1.2,1.3c0,3,0,6.1,0,9.1c0,1-0.3,1.2-1.3,1.2
			c-2.4,0-2.4,0-2.4-2.5c0-5.4,0-10.8,0-16.2c0-2,0.1-4,0-5.9c0-1,0.3-1.4,1.3-1.2c0.4,0.1,0.9,0.1,1.3,0c0.9-0.1,1.2,0.2,1.2,1.1
			c-0.1,2.9,0,5.8,0,8.7c0,1,0.2,1.3,1.2,1.3c3.9-0.1,7.7-0.1,11.6,0c0.9,0,1.2-0.3,1.2-1.2c-0.1-2.8,0-5.7,0-8.5
			c0-1.1,0.3-1.6,1.4-1.4c0.3,0,0.5,0,0.8,0c1.2-0.2,1.6,0.2,1.6,1.5C250.4,31.7,250.5,35.5,250.5,39.4z"/>
		<path class="st1" d="M159.1,35.4c0,2.4,0,4.8,0,7.2c0.1,4.8,3.1,7.4,8,6.8c4.1-0.5,5.9-2.6,5.9-6.8c0-5,0-9.9,0-14.9
			c0-1.1,0.2-1.6,1.4-1.4c0.5,0.1,1,0,1.4,0c0.6,0,0.9,0.1,0.9,0.8c-0.1,5.9,0.3,11.9-0.2,17.8c-0.3,3.5-2.4,6-5.9,7.1
			c-3,0.9-6.1,0.9-9.2,0c-3.8-1.1-5.8-4-5.9-8.7c-0.1-5.3,0-10.6,0-15.9c0-0.7,0.2-1.1,1-1c0.2,0,0.3,0,0.5,0c2.2,0,2.2,0,2.2,2.1
			C159.1,30.8,159.1,33.1,159.1,35.4z"/>
	</g>
	<g>
		<path class="st1" d="M259.3,52h-0.5v-2.6h-0.9v-0.4h2.3v0.4h-0.9V52z"/>
		<path class="st1" d="M262,52l-0.9-2.6h0c0,0.1,0,0.1,0,0.2c0,0.1,0,0.2,0,0.3c0,0.1,0,0.2,0,0.3V52h-0.5v-3.1h0.7l0.9,2.5h0
			l0.9-2.5h0.7V52h-0.5v-1.7c0-0.1,0-0.2,0-0.3s0-0.2,0-0.3c0-0.1,0-0.2,0-0.2h0l-0.9,2.6H262z"/>
	</g>
</g>
</svg>
