<svg width="135" height="27" viewBox="0 0 135 27" fill="none" xmlns="http://www.w3.org/2000/svg">
<path d="M71.0119 21.125C69.4366 21.125 68.1191 20.7874 67.0502 20.117C65.9578 19.4708 65.1186 18.434 64.6873 17.1946L67.0221 16.3651C67.2518 17.0355 67.7066 17.6045 68.3161 17.9421C69.0006 18.3809 69.9148 18.5883 71.0072 18.5883C72.0996 18.5883 72.9341 18.3568 73.5952 17.836C74.1531 17.3971 74.4063 16.8811 74.4063 16.1529V16.1288C74.4063 15.8684 74.3547 15.6128 74.2562 15.4054C74.1812 15.2511 73.9749 15.0968 73.7218 14.9377C73.3139 14.7062 72.8591 14.4988 72.3996 14.3686C71.8933 14.1854 71.1807 14.0069 70.2899 13.7996C69.5772 13.6452 69.0193 13.515 68.6161 13.3848C68.1566 13.2546 67.7019 13.1003 67.2471 12.917C66.7642 12.7338 66.3329 12.4782 65.9531 12.1406L65.9015 12.0876C65.5734 11.75 65.2921 11.3883 65.1139 10.9494C64.8842 10.4334 64.7857 9.88849 64.8092 9.34837C64.8092 7.90161 65.3905 6.68634 66.511 5.85686C67.5284 5.10455 68.8458 4.71875 70.4211 4.71875C71.9964 4.71875 73.4686 5.10455 74.561 5.90991C75.6768 6.71045 76.4129 7.8775 76.7973 9.34837L74.3828 9.94154C74.1812 9.06384 73.7733 8.41762 73.1404 7.94984C72.4793 7.48205 71.5932 7.25057 70.4493 7.25057C69.4084 7.25057 68.5692 7.45794 68.0113 7.89679C67.5284 8.25848 67.3268 8.72626 67.3268 9.39659C67.3268 9.60396 67.3502 9.75828 67.43 9.9126C67.4815 10.0139 67.5565 10.1441 67.6316 10.2212C67.7816 10.3515 67.9879 10.4527 68.166 10.5299L68.2176 10.554C68.5739 10.7083 68.9302 10.8385 69.2819 10.9157C69.6382 11.017 70.1727 11.1472 70.829 11.3015C71.8183 11.533 72.5825 11.7162 73.1638 11.9236C73.7733 12.131 74.3547 12.3914 74.9173 12.7C75.6018 13.0858 76.1128 13.5777 76.441 14.1757V14.1998C76.7458 14.793 76.8958 15.4681 76.8723 16.1674C76.8723 17.6672 76.2629 18.9596 75.0955 19.8422C74.0312 20.6958 72.6575 21.1105 71.0072 21.1105L71.0119 21.125Z" fill="black"/>
<path d="M45.4733 16.683L47.3442 18.5177L47.1332 18.7253C45.9469 19.8889 44.4745 20.6614 42.8428 20.9705C42.2895 21.0718 41.7643 21.125 41.211 21.125C40.1044 21.125 39.0259 20.9173 37.999 20.5069C36.447 19.8889 35.1528 18.8316 34.2338 17.4893C33.31 16.1471 32.813 14.549 32.813 12.9219C32.813 11.2948 33.3147 9.72076 34.2338 8.35438C35.1575 7.01214 36.4704 5.95477 37.999 5.33676C39.5276 4.71875 41.211 4.56425 42.8428 4.87325C44.4745 5.18226 45.9516 5.9596 47.1332 7.11836L47.3442 7.32597L45.4733 9.16069L45.2623 8.95308C44.4464 8.1516 43.4429 7.63498 42.3129 7.40323C41.2063 7.19561 40.0481 7.30183 38.9931 7.71223C37.9381 8.1516 37.0425 8.84686 36.4141 9.7787C35.7811 10.7057 35.4388 11.7921 35.4388 12.9025C35.4388 14.013 35.7811 15.0945 36.4141 16.0264C37.0472 16.9534 37.9428 17.6776 38.9931 18.0929C40.0481 18.5322 41.2063 18.6336 42.3129 18.4019C43.4195 18.1701 44.4464 17.6535 45.2623 16.852L45.4733 16.6975V16.683Z" fill="black"/>
<path d="M135 4.71875V14.9871C135 15.6868 134.869 16.3913 134.663 17.0427C134.405 17.7955 133.988 18.5 133.44 19.0983C133.285 19.2527 133.125 19.4361 132.971 19.5664C132.371 20.1116 131.668 20.5266 130.913 20.7872C130.261 21.0188 129.586 21.125 128.855 21.125C128.124 21.125 127.449 20.9947 126.797 20.7872C126.043 20.5266 125.34 20.1116 124.74 19.5664C124.585 19.4361 124.425 19.2817 124.271 19.0983C124.168 18.968 124.06 18.8667 123.985 18.7364C123.882 18.8667 123.802 18.9728 123.699 19.0983C123.544 19.2527 123.385 19.4361 123.23 19.5664C122.607 20.1116 121.927 20.5266 121.172 20.7872C120.521 21.0188 119.846 21.125 119.115 21.125C118.383 21.125 117.708 20.9947 117.057 20.7872C116.302 20.5266 115.599 20.1116 114.999 19.5664C114.844 19.4361 114.685 19.2817 114.53 19.0983C113.982 18.5 113.565 17.8003 113.307 17.0427C113.072 16.3913 112.969 15.7157 112.969 14.9871V4.71875H115.519V14.9871C115.519 15.6096 115.674 16.2369 115.988 16.7821C116.302 17.3274 116.771 17.7713 117.291 18.1091C118.383 18.7316 119.79 18.7316 120.886 18.1091C121.435 17.7955 121.875 17.3274 122.213 16.7821C122.527 16.2369 122.682 15.6144 122.682 14.9871V4.71875H125.26V14.9871C125.26 15.6096 125.415 16.2369 125.729 16.7821C126.043 17.3274 126.511 17.7713 127.032 18.1091C128.124 18.7316 129.53 18.7316 130.627 18.1091C131.175 17.7955 131.616 17.3274 131.93 16.7821C132.244 16.2369 132.399 15.6144 132.399 14.9871V4.71875H135Z" fill="black"/>
<path d="M91.8747 11.0406V21.1249H89.3548V11.0406C89.3548 10.4275 89.2002 9.81449 88.8911 9.27748C88.582 8.74047 88.1182 8.30801 87.5796 7.99912C86.5023 7.38607 85.1112 7.38607 84.0339 7.99912C83.4953 8.30326 83.0597 8.76423 82.7224 9.27748C82.4648 9.70994 82.3102 10.1709 82.2587 10.6794V21.1202H79.6873V0.5H82.2587V6.14097C82.7224 5.80831 83.233 5.55169 83.7482 5.34734C85.0316 4.88636 86.4976 4.88636 87.781 5.34734C88.5257 5.60396 89.219 6.01266 89.8091 6.54491C89.9637 6.67323 90.1183 6.8253 90.2728 7.00589C90.8115 7.61893 91.2237 8.28425 91.4813 9.02086C91.7389 9.65767 91.8654 10.3467 91.8654 11.0358L91.8747 11.0406Z" fill="black"/>
<path d="M108.103 14.6434L108.05 14.7737C107.997 14.9523 107.915 15.1357 107.804 15.3384C107.477 16.0092 107.019 16.6222 106.446 17.1144C105.96 17.5536 105.387 17.8866 104.761 18.1424C104.135 18.3982 103.456 18.5526 102.806 18.5816C102.021 18.6347 101.26 18.5285 100.523 18.2968C100.335 18.2437 100.142 18.1665 99.9258 18.0652C99.2179 17.7563 98.5677 17.3219 98.0525 16.7814C97.9176 16.627 97.7539 16.4725 97.6191 16.294L110.843 10.9466L110.761 10.6908C110.65 10.3578 110.544 10.0489 110.409 9.74006C110.275 9.43119 110.111 9.12232 109.923 8.81344C109.706 8.48044 109.514 8.1957 109.326 7.93991C108.839 7.34629 108.295 6.83472 107.645 6.37141C107.183 6.03841 106.668 5.75366 106.181 5.52201C105.854 5.36757 105.531 5.23726 105.175 5.13592C104.631 4.95735 104.062 4.85117 103.489 4.77395C102.704 4.69674 101.915 4.69674 101.154 4.79808C100.422 4.89943 99.7139 5.10696 99.0638 5.36274C98.3848 5.61853 97.7587 5.98049 97.1616 6.41485C96.5356 6.87816 95.9962 7.38973 95.505 7.98334C95.1535 8.42252 94.8549 8.90997 94.6093 9.37328C94.4456 9.70628 94.3107 10.0152 94.2 10.324C94.0073 10.8404 93.9014 11.3761 93.8195 11.9167C93.7088 12.6647 93.7377 13.4079 93.8484 14.127C93.9544 14.822 94.1759 15.488 94.4456 16.1058C94.7152 16.7476 95.0957 17.3413 95.5339 17.9059C96.0203 18.4995 96.5644 19.0111 97.2146 19.4744C97.6769 19.8074 98.1921 20.0922 98.6785 20.3238C99.006 20.4783 99.3575 20.6086 99.685 20.7099C100.229 20.8885 100.797 20.9946 101.37 21.0719C101.722 21.125 102.078 21.125 102.43 21.125C102.863 21.125 103.297 21.1008 103.706 21.0236C104.438 20.9223 105.146 20.7389 105.796 20.4589C106.475 20.1742 107.101 19.8412 107.698 19.4068C108.324 18.9435 108.864 18.432 109.355 17.8383C109.706 17.3992 110.005 16.9117 110.25 16.4484C110.414 16.1154 110.549 15.8065 110.66 15.4977C110.852 14.9813 110.958 14.4456 111.04 13.905L111.093 13.3886L108.108 14.6483L108.103 14.6434ZM96.5693 13.9195C96.5693 13.9195 96.5596 13.8809 96.55 13.8423C96.4778 13.4128 96.4778 12.9639 96.5211 12.5296C96.6078 11.656 96.8967 10.8018 97.359 10.0538C97.5613 9.73041 97.7924 9.42154 98.0573 9.14645C99.2468 7.89165 101.009 7.22081 102.733 7.33181C104.457 7.44282 106.109 8.31152 107.207 9.64837C107.193 9.66285 106.875 9.7835 106.836 9.79798C106.706 9.85107 106.581 9.89933 106.451 9.95241C106.196 10.0538 105.94 10.1599 105.68 10.2613C105.17 10.4688 104.655 10.6715 104.144 10.879C103.119 11.2893 102.093 11.7043 101.072 12.1145C100.051 12.5248 99.0204 12.9398 97.9995 13.35C97.7443 13.4514 97.489 13.5576 97.229 13.6589L96.8438 13.8133C96.7811 13.8375 96.7185 13.8616 96.6608 13.8857C96.6126 13.905 96.5693 13.9195 96.5693 13.9195Z" fill="black"/>
<path d="M63.2812 12.9219C63.2812 8.38602 59.489 4.71875 54.8437 4.71875C50.1984 4.71875 46.4062 8.41015 46.4062 12.9219C46.4062 17.4336 50.1984 21.125 54.8437 21.125C57.075 21.125 59.0906 20.2805 60.6 18.8956V21.125H63.2531M49.1109 13.6312C49.0922 13.5057 49.0781 13.3803 49.0734 13.2548C49.0547 13.0039 49.0594 12.7481 49.0734 12.4972C49.0875 12.2463 49.1297 11.9906 49.1859 11.7445C49.2422 11.4984 49.3125 11.2523 49.3969 11.0158C49.4812 10.7794 49.5844 10.5478 49.7016 10.321C49.8187 10.0942 49.95 9.88188 50.1 9.67921C50.1562 9.60201 50.2125 9.52963 50.2687 9.45242C51.2437 8.23643 52.7109 7.47885 54.2344 7.32444C55.7156 7.17486 57.2531 7.59466 58.439 8.52596C59.625 9.45725 60.4218 10.9 60.5531 12.4248C60.6609 13.6601 60.3281 14.9292 59.6578 15.957C58.9875 16.9848 57.9797 17.7762 56.8406 18.1911C56.2078 18.4228 55.5375 18.5386 54.8672 18.5386C53.8875 18.5386 52.9078 18.2925 52.0453 17.8099C51.8437 17.699 51.6469 17.5687 51.4594 17.4336C51.2719 17.2984 51.089 17.144 50.9203 16.9848C50.7515 16.8256 50.5875 16.6519 50.4328 16.4733C50.2781 16.2948 50.1375 16.1066 50.0062 15.9087C49.875 15.7109 49.7531 15.5082 49.6453 15.2959C49.5375 15.0836 49.4391 14.8665 49.3547 14.6445C49.2703 14.4225 49.2141 14.1861 49.1625 13.9545" fill="black"/>
<path d="M0.933657 11.602C0.337806 12.1978 0 13.0122 0 13.8563C0 15.0878 0.99465 16.0809 2.22858 16.0809C3.46251 16.0809 4.44777 15.0928 4.45246 13.8712C4.46185 14.3976 4.8888 14.8197 5.41427 14.8197C5.93975 14.8197 6.37608 14.3877 6.37608 13.8563C6.37608 13.0122 6.03827 12.1978 5.44242 11.602C4.84657 11.0061 4.0349 10.6685 3.18569 10.6685C2.33649 10.6685 1.52951 11.0061 0.928965 11.602H0.933657Z" fill="black"/>
<path d="M24.8477 15.1547C25.4435 14.5588 25.7814 13.7445 25.7814 12.9003C25.7814 11.6689 24.7867 10.6758 23.5528 10.6758C22.3188 10.6758 21.3336 11.6639 21.3289 12.8855C21.3195 12.3591 20.8926 11.937 20.3671 11.937C19.8416 11.937 19.4053 12.369 19.4053 12.9003C19.4053 13.7445 19.7431 14.5588 20.3389 15.1547C20.9348 15.7506 21.7465 16.0882 22.5957 16.0882C23.4449 16.0882 24.2518 15.7506 24.8524 15.1547H24.8477Z" fill="black"/>
<path d="M11.0633 25.3485C11.6591 25.9444 12.4708 26.282 13.32 26.282C14.5493 26.282 15.5439 25.2839 15.5439 24.0574C15.5439 22.831 14.554 21.8378 13.3341 21.8329C13.8596 21.823 14.2818 21.3959 14.2818 20.8696C14.2818 20.3432 13.8502 19.9062 13.32 19.9062C12.4755 19.9062 11.6638 20.2439 11.0633 20.8398C10.4674 21.4356 10.1296 22.25 10.1296 23.0941C10.1296 23.9383 10.4674 24.7526 11.0633 25.3485V25.3485Z" fill="black"/>
<path d="M14.6103 1.43352C14.0144 0.837657 13.2027 0.5 12.3582 0.5C11.129 0.5 10.1296 1.49808 10.1296 2.72457C10.1296 3.95106 11.1196 4.94417 12.3394 4.94913C11.814 4.95907 11.3917 5.3861 11.3917 5.91245C11.3917 6.4388 11.8234 6.87577 12.3535 6.87577C13.198 6.87577 14.0097 6.53811 14.6103 5.94224C15.2061 5.34638 15.5439 4.53203 15.5439 3.68788C15.5439 2.84374 15.2061 2.02939 14.6103 1.43352V1.43352Z" fill="black"/>
<path d="M5.68578 3.67725C4.84127 3.67725 4.0296 4.0149 3.42906 4.61077C2.56108 5.47974 2.56108 6.88996 3.42906 7.75893C4.29703 8.6279 5.69986 8.6279 6.56783 7.76886C6.19718 8.14624 6.20188 8.75204 6.57722 9.12446C6.95256 9.50184 7.56248 9.50184 7.93782 9.12446C7.94251 9.11949 7.9519 9.11453 7.95659 9.10459C8.54306 8.50873 8.87148 7.70431 8.87148 6.86513C8.87148 6.02595 8.53367 5.20664 7.93782 4.61077C7.34197 4.0149 6.5303 3.67725 5.68109 3.67725H5.68578Z" fill="black"/>
<path d="M19.1749 17.6317C19.5503 18.0041 19.5503 18.6099 19.1843 18.9873C20.0523 18.1233 21.4598 18.1282 22.3231 18.9972C23.1911 19.8662 23.1911 21.2764 22.3231 22.1454C21.7272 22.7462 20.9156 23.0789 20.0664 23.0789C19.2172 23.0789 18.4102 22.7412 17.8096 22.1454C17.2091 21.5495 16.876 20.7351 16.876 19.891C16.876 19.0469 17.2044 18.2524 17.7909 17.6515C17.7956 17.6466 17.8049 17.6366 17.8096 17.6317C18.185 17.2543 18.7949 17.2543 19.1702 17.6317H19.1749Z" fill="black"/>
<path d="M21.6435 3.93151C20.7756 3.06254 19.3634 3.06254 18.4954 3.93151C17.6321 4.79552 17.6274 6.19581 18.4813 7.06478C18.106 6.70229 17.5054 6.70726 17.1348 7.07967C16.7594 7.45706 16.7594 8.06782 17.1348 8.44023C17.7306 9.0361 18.5423 9.37376 19.3915 9.37376C20.2407 9.37376 21.0477 9.0361 21.6482 8.44023C22.2441 7.84437 22.5819 7.03002 22.5819 6.18587C22.5819 5.34173 22.2441 4.52738 21.6482 3.93151H21.6435Z" fill="black"/>
<path d="M8.6226 18.3105C8.99794 18.6879 8.99794 19.2986 8.6226 19.671C8.25195 20.0435 7.65141 20.0484 7.27138 19.681C8.12996 20.5499 8.12527 21.9502 7.26199 22.8192C6.39402 23.6882 4.98181 23.6882 4.11383 22.8192C4.10445 22.8093 4.09507 22.7993 4.08568 22.7894C3.50391 22.1935 3.18018 21.3941 3.18018 20.5648C3.18018 19.7356 3.51798 18.9063 4.11383 18.3105C4.70968 17.7146 5.52136 17.377 6.37056 17.377C7.21977 17.377 8.02675 17.7146 8.62729 18.3105H8.6226Z" fill="black"/>
</svg>