<?xml version="1.0" encoding="utf-8"?>
<!-- Generator: Adobe Illustrator 21.1.0, SVG Export Plug-In . SVG Version: 6.00 Build 0)  -->
<svg version="1.1" id="Layer_1" xmlns="http://www.w3.org/2000/svg" xmlns:xlink="http://www.w3.org/1999/xlink" x="0px" y="0px"
	 viewBox="0 0 593.9 187.4" style="enable-background:new 0 0 593.9 187.4;" xml:space="preserve">
<style type="text/css">
	.st0{fill:#0B71B8;}
	.st1{fill:#F8A41A;}
</style>
<polygon class="st0" points="270.4,160.7 270.4,142.4 244.8,142.4 244.8,160.7 241.7,160.7 241.7,120.5 244.8,120.5 244.8,139.6 
	270.4,139.6 270.4,120.5 273.5,120.5 273.5,160.7 "/>
<polygon class="st0" points="294.5,139 318.1,139 318.1,141.9 294.5,141.9 294.5,157.7 319.9,157.7 319.9,160.7 291.4,160.7 
	291.4,120.5 319.2,120.5 319.2,123.4 294.5,123.4 "/>
<path class="st0" d="M368.5,160.7l-4.4-9.9h-24l-4.4,9.9h-3.3l18-40.2h3.4l18.1,40.2H368.5z M362.9,148l-10.8-24.5L341.3,148H362.9z
	"/>
<polygon class="st0" points="388.3,120.5 388.3,157.8 410.9,157.8 410.9,160.7 385.2,160.7 385.2,120.5 "/>
<polygon class="st0" points="430.5,123.3 416,123.3 416,120.5 448.2,120.5 448.2,123.3 433.6,123.3 433.6,160.7 430.5,160.7 "/>
<polygon class="st0" points="491,160.7 491,142.4 465.3,142.4 465.3,160.7 462.2,160.7 462.2,120.5 465.3,120.5 465.3,139.6 
	491,139.6 491,120.5 494.1,120.5 494.1,160.7 "/>
<path class="st0" d="M293.1,85.3c-6.9,6.8-15.8,10-25.5,10c-24.9,0-35.4-17.1-35.5-34.6c-0.1-17.5,11.3-35.3,35.5-35.3
	c9.1,0,17.7,3.4,24.6,10.2l-8.4,8.1c-4.4-4.3-10.3-6.3-16.2-6.3c-16.2,0-23.2,12.1-23.1,23.3c0.1,11.1,6.5,22.7,23.1,22.7
	c5.8,0,12.4-2.4,16.8-6.8L293.1,85.3z"/>
<polygon class="st0" points="345.3,93.8 345.3,66.7 312.3,66.7 312.3,93.8 299.7,93.8 299.7,26.8 312.3,26.8 312.3,55 345.3,55 
	345.3,26.8 357.8,26.8 357.8,93.8 "/>
<rect x="370.4" y="26.7" class="st0" width="12.5" height="67"/>
<path class="st0" d="M454.7,93.7h-15l-19.5-22.4H408v22.4h-12.6V26.6c10.6,0,21.3,0.1,31.9,0.1c15.8,0.1,24.1,10.6,24.1,22.2
	c0,9.2-4.2,18.5-16.9,21l20.3,22.9V93.7z M408,38.5v21.4h19.2c8,0,11.5-5.4,11.5-10.7c0-5.4-3.5-10.7-11.5-10.7H408z"/>
<path class="st0" d="M528.5,60.6c-0.2,17.3-10.8,34.7-34.4,34.7c-23.6,0-34.5-16.9-34.5-34.6c0-17.6,11.3-35.3,34.5-35.3
	C517.2,25.4,528.7,43.1,528.5,60.6 M472.1,60.9c0.3,11,6.2,22.8,22,22.8c15.8,0,21.7-11.9,21.9-22.9c0.2-11.3-6.1-23.9-21.9-23.9
	C478.3,36.9,471.8,49.6,472.1,60.9"/>
<polygon class="st0" points="581.3,26.6 593.9,26.6 593.9,93.7 586,93.7 586,93.8 550.8,48.5 550.8,93.7 538.2,93.7 538.2,26.7 
	548.4,26.7 581.3,68.3 "/>
<path class="st0" d="M79,58.9V9.5h27.6v60.3l52.3-30.2l13.8,23.9l-36.5,21.1l9.4,5.5l40-23.1l-23.3-40.3l-46.3,26.7L116,0H69.5
	v123.1l-42.8,24.7l-13.8-23.9l52.3-30.2L12.9,63.5l13.8-23.9l36.5,21.1V49.8l-40-23.1L0,67l46.3,26.7L0,120.4l23.3,40.3l106.6-61.6
	l42.8,24.7l-13.8,23.9l-52.3-30.2V178L79,178v-42.1l-9.4,5.4v46.2l46.5,0l0-53.4l46.3,26.7l23.3-40.3L79,58.9z M79,117.6V69.8
	l41.4,23.9L79,117.6z"/>
<polygon class="st1" points="79,69.8 79,69.8 79,117.6 120.4,93.7 "/>
</svg>
