<?xml version="1.0" encoding="utf-8"?>
<!-- Generator: Adobe Illustrator 24.3.0, SVG Export Plug-In . SVG Version: 6.00 Build 0)  -->
<svg version="1.1" id="Layer_1" xmlns="http://www.w3.org/2000/svg" xmlns:xlink="http://www.w3.org/1999/xlink" x="0px" y="0px"
	 viewBox="0 0 205.8 38.8" style="enable-background:new 0 0 205.8 38.8;" xml:space="preserve">
<style type="text/css">
	.st0{fill:#FF6B00;}
	.st1{fill:#003A5D;}
</style>
<g id="XMLID_3_">
	<path id="XMLID_1_" class="st0" d="M15.9,12.9c-1.6,0-2.8,1.3-2.8,2.9s1.3,2.9,2.8,2.9h8.8v9.4c0,1.5,1.3,2.8,2.8,2.8
		s2.8-1.2,2.8-2.8V12.9H15.9z"/>
</g>
<g>
	<path id="XMLID_152_" class="st1" d="M52.9,15.7l-2.4,1.4c-0.6-1-1.6-1.6-2.8-1.6c-1.9,0-3.3,1.4-3.3,3.5c0,2.2,1.5,3.5,3.3,3.5
		c1.2,0,2.2-0.5,2.9-1.6l2.3,1.6c-1.1,1.6-2.9,2.6-5.2,2.6c-3.7,0-6.3-2.6-6.3-6.2s2.6-6.2,6.3-6.2C49.9,12.9,51.9,13.9,52.9,15.7z"
		/>
	<path id="XMLID_151_" class="st1" d="M61.1,25h-2.8v-4.6l-4.5-7.3h3.3l2.7,4.8l2.7-4.8h3.2l-4.4,7.3V25H61.1z"/>
	<path id="XMLID_150_" class="st1" d="M77.7,16.4c0,1.2-0.7,2.1-1.6,2.5c1,0.4,1.9,1.4,1.9,2.6c0,2.2-1.5,3.4-4.5,3.4h-5.4V13.1h5.1
		C76.1,13.1,77.7,14.2,77.7,16.4z M70.8,17.8H73c1,0,1.7-0.3,1.7-1.2c0-0.9-0.7-1.2-1.7-1.2h-2.2V17.8z M70.8,22.6h2.4
		c1.1,0,1.7-0.3,1.7-1.2c0-0.9-0.6-1.2-1.7-1.2h-2.4V22.6z"/>
	<path id="XMLID_149_" class="st1" d="M81.3,25V13.1h9.1v2.6h-6.2v2.1h5.9v2.5h-5.9v2.2h6.3v2.6h-9.2V25z"/>
	<path id="XMLID_148_" class="st1" d="M103.7,16.9c0,1.9-1.2,3.2-3.3,3.6l3.4,4.5h-3.4l-3.1-4.5h-0.4V25h-2.8V13.1h5.2
		C102.2,13.1,103.7,14.5,103.7,16.9z M96.9,18.1h2.3c1,0,1.6-0.4,1.6-1.2c0-0.8-0.6-1.2-1.6-1.2h-2.3V18.1z"/>
	<path id="XMLID_147_" class="st0" d="M117.3,14.6l-2,2c-0.6-0.6-1.4-1-2.5-1c-1.9,0-3.3,1.4-3.3,3.5c0,2.3,1.5,3.6,3.3,3.6
		c1.7,0,2.7-0.7,3-2.2h-2.9v-2.2h5.7c0,0.3,0.1,0.6,0.1,0.9c0,3.8-2.7,6-5.8,6c-3.5,0-6.3-2.5-6.3-6.2c0-3.6,2.6-6.2,6.3-6.2
		C114.7,12.9,116.2,13.5,117.3,14.6z"/>
	<path id="XMLID_146_" class="st0" d="M131.3,16.9c0,1.9-1.2,3.2-3.3,3.6l3.4,4.5H128l-3.1-4.5h-0.4V25h-2.8V13.1h5.2
		C129.7,13.1,131.3,14.5,131.3,16.9z M124.5,18.1h2.3c1,0,1.6-0.4,1.6-1.2c0-0.8-0.6-1.2-1.6-1.2h-2.3V18.1z"/>
	<path id="XMLID_145_" class="st0" d="M142.9,25l-0.9-2.5h-4.7l-0.9,2.5h-3l4.6-11.9h3.4L146,25H142.9z M141.1,19.9l-1.4-4l-1.4,4
		H141.1z"/>
	<path id="XMLID_144_" class="st0" d="M151.5,25h-2.8V13.1h5.1c2.9,0,4.5,1.6,4.5,4c0,2.3-1.6,3.9-4.5,3.9h-2.3V25z M151.5,18.4h2.2
		c1,0,1.6-0.5,1.6-1.4c0-0.9-0.6-1.4-1.6-1.4h-2.2V18.4z"/>
	<path id="XMLID_143_" class="st0" d="M169,17.7v-4.6h2.8V25H169v-4.7h-5V25h-2.8V13.1h2.8v4.6H169z"/>
	<path id="XMLID_142_" class="st0" d="M175.7,25V13.1h2.8V25C178.5,25,175.7,25,175.7,25z"/>
	<path id="XMLID_141_" class="st0" d="M193.4,15.7l-2.5,1.4c-0.6-1-1.6-1.6-2.8-1.6c-1.9,0-3.3,1.4-3.3,3.5c0,2.2,1.5,3.5,3.3,3.5
		c1.2,0,2.2-0.5,2.9-1.6l2.3,1.6c-1.1,1.6-2.9,2.6-5.2,2.6c-3.7,0-6.3-2.6-6.3-6.2s2.6-6.2,6.3-6.2
		C190.4,12.9,192.4,13.9,193.4,15.7z"/>
	<path id="XMLID_140_" class="st0" d="M200.6,15.4c-1.1,0-1.9,0.4-1.9,1.1c0,0.7,1.1,0.9,2.4,1.2l0.5,0.1c2.3,0.4,3.8,1.5,3.8,3.4
		c0,2.8-2.4,4-5,4c-2,0-3.9-0.5-5.2-1.5l1.4-2.3c0.9,0.6,2.2,1.2,3.8,1.2c1.1,0,1.9-0.4,1.9-1.1s-0.8-0.9-2.4-1.2l-0.6-0.1
		c-2.4-0.4-3.8-1.5-3.7-3.6c0-2.3,2-3.8,4.8-3.8c1.6,0,3,0.3,4.8,1.3l-1.3,2.3C203.2,16,202,15.4,200.6,15.4z"/>
</g>
<g>
	<path id="XMLID_139_" class="st1" d="M44,37.4h-0.8v-4.7H45c1.1,0,1.7,0.5,1.7,1.4s-0.6,1.4-1.7,1.4h-1.1L44,37.4L44,37.4z
		 M44,34.8h1c0.6,0,0.9-0.2,0.9-0.7s-0.3-0.7-0.9-0.7h-1V34.8z"/>
	<path id="XMLID_138_" class="st1" d="M50.1,35.8c0,0.1,0,0.2,0,0.3h-2.4c0.1,0.6,0.5,0.8,1,0.8c0.3,0,0.7-0.1,0.9-0.3l0.3,0.5
		c-0.4,0.3-0.8,0.5-1.3,0.5c-1,0-1.6-0.7-1.6-1.7s0.7-1.7,1.6-1.7C49.5,34.1,50.1,34.8,50.1,35.8z M47.7,35.5h1.7
		c-0.1-0.5-0.4-0.8-0.8-0.8C48,34.7,47.8,35,47.7,35.5z"/>
	<path id="XMLID_137_" class="st1" d="M53.1,34.2l-0.2,0.7c-0.1-0.1-0.3-0.1-0.5-0.1c-0.4,0-0.8,0.3-0.8,0.9v1.8h-0.7v-3.2h0.7v0.4
		c0.2-0.3,0.5-0.4,0.9-0.4C52.8,34.1,53,34.1,53.1,34.2z"/>
	<path id="XMLID_136_" class="st1" d="M55,34.8v2.6h-0.7v-2.6h-0.6v-0.6h0.6v-0.5c0-0.6,0.3-1.2,1.1-1.2c0.4,0,0.7,0.1,0.9,0.2
		l-0.2,0.6c-0.2-0.1-0.4-0.2-0.6-0.2c-0.3,0-0.4,0.2-0.4,0.5v0.5h1.1v0.7H55z"/>
	<path id="XMLID_135_" class="st1" d="M59.7,35.8c0,0.1,0,0.2,0,0.3h-2.4c0.1,0.6,0.5,0.8,1,0.8c0.3,0,0.7-0.1,0.9-0.3l0.3,0.5
		c-0.4,0.3-0.8,0.5-1.3,0.5c-1,0-1.6-0.7-1.6-1.7s0.7-1.7,1.6-1.7C59.1,34.1,59.7,34.8,59.7,35.8z M57.3,35.5H59
		c-0.1-0.5-0.4-0.8-0.8-0.8C57.7,34.7,57.4,35,57.3,35.5z"/>
	<path id="XMLID_134_" class="st1" d="M63.2,34.6l-0.4,0.5c-0.3-0.2-0.5-0.3-0.8-0.3c-0.5,0-0.9,0.4-0.9,1s0.4,1,0.9,1
		c0.3,0,0.6-0.1,0.8-0.3l0.4,0.5c-0.3,0.3-0.7,0.5-1.2,0.5c-1,0-1.7-0.7-1.7-1.7s0.7-1.7,1.7-1.7C62.5,34.1,62.9,34.3,63.2,34.6z"/>
	<path id="XMLID_133_" class="st1" d="M65,34.8v1.4c0,0.4,0.2,0.6,0.5,0.6c0.2,0,0.5-0.1,0.6-0.2l0.3,0.6c-0.3,0.2-0.6,0.3-1,0.3
		c-0.7,0-1.2-0.4-1.2-1.2v-1.5h-0.6v-0.6h0.6v-1h0.7v1h1.2v0.6H65z"/>
	<path id="XMLID_132_" class="st1" d="M67.9,33.1c0,0.3-0.2,0.5-0.5,0.5s-0.5-0.2-0.5-0.5s0.2-0.5,0.5-0.5
		C67.7,32.6,67.9,32.8,67.9,33.1z M67.1,37.4v-3.2h0.7v3.2H67.1z"/>
	<path id="XMLID_131_" class="st1" d="M71.9,35.4v2h-0.7v-1.8c0-0.5-0.3-0.8-0.7-0.8c-0.5,0-0.8,0.3-0.8,0.8v1.8H69v-3.2h0.7v0.4
		c0.3-0.4,0.7-0.5,1-0.5C71.3,34.1,71.9,34.6,71.9,35.4z"/>
	<path id="XMLID_130_" class="st1" d="M75.3,34.6v-0.4H76v3c0,1-0.7,1.6-1.7,1.6c-0.5,0-1-0.1-1.3-0.4l0.3-0.6
		c0.3,0.2,0.7,0.3,1.1,0.3c0.7,0,1-0.4,1-1v-0.3c-0.2,0.3-0.6,0.5-1.1,0.5c-0.7,0-1.5-0.6-1.5-1.7s0.8-1.7,1.5-1.7
		C74.7,34.1,75,34.3,75.3,34.6z M73.4,35.8c0,0.5,0.4,1,0.9,1c0.6,0,0.9-0.4,0.9-1s-0.4-1-0.9-1S73.4,35.2,73.4,35.8z"/>
	<path id="XMLID_129_" class="st1" d="M82.2,35.8c0,1-0.7,1.7-1.6,1.7c-0.5,0-0.8-0.2-1-0.5v1.7h-0.7v-4.6h0.7v0.4
		c0.2-0.3,0.5-0.5,1-0.5C81.5,34.1,82.2,34.8,82.2,35.8z M79.6,35.8c0,0.6,0.4,1,1,1s1-0.5,1-1c0-0.6-0.4-1-1-1
		C79.9,34.8,79.6,35.2,79.6,35.8z"/>
	<path id="XMLID_128_" class="st1" d="M85.5,37.4V37c-0.2,0.3-0.5,0.5-1,0.5c-0.9,0-1.6-0.7-1.6-1.7s0.7-1.7,1.6-1.7
		c0.5,0,0.8,0.2,1,0.5v-0.4h0.7v3.2C86.2,37.4,85.5,37.4,85.5,37.4z M83.6,35.8c0,0.6,0.4,1,1,1s1-0.4,1-1s-0.4-1-1-1
		C83.9,34.8,83.6,35.2,83.6,35.8z"/>
	<path id="XMLID_127_" class="st1" d="M89.9,34.6l-0.4,0.5c-0.2-0.2-0.5-0.3-0.8-0.3c-0.5,0-0.9,0.4-0.9,1s0.4,1,0.9,1
		c0.3,0,0.6-0.1,0.8-0.3l0.4,0.5c-0.3,0.3-0.7,0.5-1.2,0.5c-1,0-1.7-0.7-1.7-1.7s0.7-1.7,1.7-1.7C89.2,34.1,89.6,34.3,89.9,34.6z"/>
	<path id="XMLID_126_" class="st1" d="M91.8,35.4l1.1-1.2h0.9l-1.3,1.5l1.4,1.7H93L91.9,36h-0.3v1.4h-0.7v-4.8h0.7v2.8H91.8z"/>
	<path id="XMLID_125_" class="st1" d="M96.6,37.4V37c-0.2,0.3-0.5,0.5-1,0.5c-0.9,0-1.6-0.7-1.6-1.7s0.7-1.7,1.6-1.7
		c0.5,0,0.8,0.2,1,0.5v-0.4h0.7v3.2C97.3,37.4,96.6,37.4,96.6,37.4z M94.7,35.8c0,0.6,0.4,1,1,1s1-0.4,1-1s-0.4-1-1-1
		S94.7,35.2,94.7,35.8z"/>
	<path id="XMLID_124_" class="st1" d="M100.7,34.6v-0.4h0.7v3c0,1-0.7,1.6-1.7,1.6c-0.5,0-1-0.1-1.3-0.4l0.3-0.6
		c0.3,0.2,0.7,0.3,1.1,0.3c0.7,0,1-0.4,1-1v-0.3c-0.2,0.3-0.6,0.5-1.1,0.5c-0.7,0-1.5-0.6-1.5-1.7s0.8-1.7,1.5-1.7
		C100.1,34.1,100.5,34.3,100.7,34.6z M98.9,35.8c0,0.5,0.4,1,0.9,1c0.6,0,0.9-0.4,0.9-1s-0.4-1-0.9-1S98.9,35.2,98.9,35.8z"/>
	<path id="XMLID_123_" class="st1" d="M103.4,33.1c0,0.3-0.2,0.5-0.5,0.5s-0.5-0.2-0.5-0.5s0.2-0.5,0.5-0.5
		C103.2,32.6,103.4,32.8,103.4,33.1z M102.6,37.4v-3.2h0.7v3.2H102.6z"/>
	<path id="XMLID_122_" class="st1" d="M107.3,35.4v2h-0.7v-1.8c0-0.5-0.3-0.8-0.7-0.8c-0.5,0-0.8,0.3-0.8,0.8v1.8h-0.7v-3.2h0.7v0.4
		c0.3-0.4,0.7-0.5,1-0.5C106.8,34.1,107.3,34.6,107.3,35.4z"/>
	<path id="XMLID_121_" class="st1" d="M110.7,34.6v-0.4h0.7v3c0,1-0.7,1.6-1.7,1.6c-0.5,0-1-0.1-1.3-0.4l0.3-0.6
		c0.3,0.2,0.7,0.3,1.1,0.3c0.7,0,1-0.4,1-1v-0.3c-0.2,0.3-0.6,0.5-1.1,0.5c-0.7,0-1.5-0.6-1.5-1.7s0.8-1.7,1.5-1.7
		C110.1,34.1,110.5,34.3,110.7,34.6z M108.9,35.8c0,0.5,0.4,1,0.9,1c0.6,0,0.9-0.4,0.9-1s-0.4-1-0.9-1S108.9,35.2,108.9,35.8z"/>
	<path id="XMLID_120_" class="st1" d="M117.7,35.8c0,1-0.7,1.7-1.6,1.7c-0.5,0-0.8-0.2-1-0.5v1.7h-0.7v-4.6h0.7v0.4
		c0.2-0.3,0.5-0.5,1-0.5C117,34.1,117.7,34.8,117.7,35.8z M115,35.8c0,0.6,0.4,1,1,1s1-0.5,1-1c0-0.6-0.4-1-1-1S115,35.2,115,35.8z"
		/>
	<path id="XMLID_119_" class="st1" d="M120.7,34.2l-0.2,0.7c-0.1-0.1-0.4-0.1-0.5-0.1c-0.4,0-0.8,0.3-0.8,0.9v1.8h-0.7v-3.2h0.7v0.4
		c0.2-0.3,0.5-0.4,0.9-0.4C120.4,34.1,120.6,34.1,120.7,34.2z"/>
	<path id="XMLID_118_" class="st1" d="M124.2,35.8c0,0.1,0,0.2,0,0.3h-2.4c0.1,0.6,0.5,0.8,1,0.8c0.3,0,0.7-0.1,0.9-0.3l0.3,0.5
		c-0.4,0.3-0.8,0.5-1.3,0.5c-1,0-1.6-0.7-1.6-1.7s0.7-1.7,1.6-1.7C123.6,34.1,124.2,34.8,124.2,35.8z M121.8,35.5h1.7
		c-0.1-0.5-0.4-0.8-0.8-0.8C122.2,34.7,121.9,35,121.8,35.5z"/>
	<path id="XMLID_117_" class="st1" d="M128.4,35.8c0,1-0.7,1.7-1.6,1.7c-0.5,0-0.8-0.2-1-0.5v1.7h-0.7v-4.6h0.7v0.4
		c0.2-0.3,0.5-0.5,1-0.5C127.7,34.1,128.4,34.8,128.4,35.8z M125.7,35.8c0,0.6,0.4,1,1,1s1-0.5,1-1c0-0.6-0.4-1-1-1
		C126.1,34.8,125.7,35.2,125.7,35.8z"/>
	<path id="XMLID_116_" class="st1" d="M131.3,34.2l-0.2,0.7c-0.1-0.1-0.4-0.1-0.5-0.1c-0.4,0-0.8,0.3-0.8,0.9v1.8h-0.7v-3.2h0.7v0.4
		c0.2-0.3,0.5-0.4,0.9-0.4C131,34.1,131.2,34.1,131.3,34.2z"/>
	<path id="XMLID_115_" class="st1" d="M134.7,35.8c0,0.1,0,0.2,0,0.3h-2.4c0.1,0.6,0.5,0.8,1,0.8c0.3,0,0.7-0.1,0.9-0.3l0.3,0.5
		c-0.4,0.3-0.8,0.5-1.3,0.5c-1,0-1.6-0.7-1.6-1.7s0.7-1.7,1.6-1.7C134.1,34.1,134.7,34.8,134.7,35.8z M132.4,35.5h1.7
		c-0.1-0.5-0.4-0.8-0.8-0.8C132.7,34.7,132.4,35,132.4,35.5z"/>
	<path id="XMLID_114_" class="st1" d="M136.8,34.7c-0.4,0-0.6,0.2-0.6,0.4s0.2,0.3,0.5,0.3l0.3,0.1c0.7,0.1,1.1,0.4,1.1,0.9
		c0,0.6-0.5,1.1-1.5,1.1c-0.3,0-0.9-0.1-1.4-0.4l0.3-0.5c0.2,0.2,0.5,0.3,1.1,0.3c0.5,0,0.7-0.2,0.7-0.4s-0.2-0.3-0.6-0.4h-0.3
		c-0.7-0.1-1.1-0.4-1.1-0.9c0-0.6,0.5-1,1.3-1c0.5,0,1,0.1,1.3,0.3l-0.3,0.5C137.6,34.9,137.2,34.7,136.8,34.7z"/>
	<path id="XMLID_113_" class="st1" d="M140.2,34.7c-0.4,0-0.6,0.2-0.6,0.4s0.2,0.3,0.5,0.3l0.3,0.1c0.7,0.1,1.1,0.4,1.1,0.9
		c0,0.6-0.5,1.1-1.5,1.1c-0.3,0-0.9-0.1-1.4-0.4l0.3-0.5c0.2,0.2,0.5,0.3,1.1,0.3c0.5,0,0.7-0.2,0.7-0.4s-0.2-0.3-0.6-0.4h-0.3
		c-0.7-0.1-1.1-0.4-1.1-0.9c0-0.6,0.5-1,1.3-1c0.5,0,1,0.1,1.3,0.3L141,35C141,34.9,140.6,34.7,140.2,34.7z"/>
	<path id="XMLID_112_" class="st1" d="M143.3,36.9c0,0.3-0.3,0.6-0.6,0.6s-0.6-0.3-0.6-0.6s0.3-0.6,0.6-0.6
		C143.1,36.3,143.3,36.6,143.3,36.9z"/>
	<path id="XMLID_111_" class="st1" d="M146.8,37.4H146v-4.7h1.8c1.1,0,1.7,0.5,1.7,1.4s-0.6,1.4-1.7,1.4h-1.1v1.9H146.8z
		 M146.8,34.8h1c0.6,0,0.9-0.2,0.9-0.7s-0.3-0.7-0.9-0.7h-1V34.8z"/>
	<path id="XMLID_110_" class="st1" d="M152.4,34.2l-0.2,0.7c-0.1-0.1-0.4-0.1-0.5-0.1c-0.4,0-0.8,0.3-0.8,0.9v1.8h-0.7v-3.2h0.7v0.4
		c0.2-0.3,0.5-0.4,0.9-0.4C152.1,34.1,152.3,34.1,152.4,34.2z"/>
	<path id="XMLID_109_" class="st1" d="M156.2,35.8c0,1-0.7,1.7-1.7,1.7s-1.7-0.7-1.7-1.7s0.7-1.7,1.7-1.7
		C155.4,34.1,156.2,34.8,156.2,35.8z M153.4,35.8c0,0.6,0.4,1,1,1s1-0.4,1-1s-0.4-1-1-1S153.4,35.2,153.4,35.8z"/>
	<path id="XMLID_108_" class="st1" d="M158,34.8v1.4c0,0.4,0.2,0.6,0.5,0.6c0.2,0,0.5-0.1,0.6-0.2l0.3,0.6c-0.3,0.2-0.6,0.3-1,0.3
		c-0.7,0-1.2-0.4-1.2-1.2v-1.5h-0.6v-0.6h0.6v-1h0.7v1h1.2v0.6H158z"/>
	<path id="XMLID_107_" class="st1" d="M163,35.8c0,0.1,0,0.2,0,0.3h-2.4c0.1,0.6,0.5,0.8,1,0.8c0.3,0,0.7-0.1,0.9-0.3l0.3,0.5
		c-0.4,0.3-0.8,0.5-1.3,0.5c-1,0-1.6-0.7-1.6-1.7s0.7-1.7,1.6-1.7C162.3,34.1,163,34.8,163,35.8z M160.6,35.5h1.7
		c-0.1-0.5-0.4-0.8-0.8-0.8C160.9,34.7,160.6,35,160.6,35.5z"/>
	<path id="XMLID_106_" class="st1" d="M166.5,34.6l-0.4,0.5c-0.2-0.2-0.5-0.3-0.8-0.3c-0.5,0-0.9,0.4-0.9,1s0.4,1,0.9,1
		c0.3,0,0.6-0.1,0.8-0.3l0.4,0.5c-0.3,0.3-0.7,0.5-1.2,0.5c-1,0-1.7-0.7-1.7-1.7s0.7-1.7,1.7-1.7C165.8,34.1,166.2,34.3,166.5,34.6z
		"/>
	<path id="XMLID_105_" class="st1" d="M168.3,34.8v1.4c0,0.4,0.2,0.6,0.5,0.6c0.2,0,0.5-0.1,0.6-0.2l0.3,0.6c-0.3,0.2-0.6,0.3-1,0.3
		c-0.7,0-1.2-0.4-1.2-1.2v-1.5h-0.6v-0.6h0.6v-1h0.7v1h1.2v0.6H168.3z"/>
	<path id="XMLID_104_" class="st1" d="M171.2,33.1c0,0.3-0.2,0.5-0.5,0.5s-0.5-0.2-0.5-0.5s0.2-0.5,0.5-0.5S171.2,32.8,171.2,33.1z
		 M170.4,37.4v-3.2h0.7v3.2H170.4z"/>
	<path id="XMLID_103_" class="st1" d="M175.1,35.4v2h-0.7v-1.8c0-0.5-0.3-0.8-0.7-0.8c-0.5,0-0.8,0.3-0.8,0.8v1.8h-0.7v-3.2h0.7v0.4
		c0.3-0.4,0.7-0.5,1-0.5C174.6,34.1,175.1,34.6,175.1,35.4z"/>
	<path id="XMLID_102_" class="st1" d="M178.5,34.6v-0.4h0.7v3c0,1-0.7,1.6-1.7,1.6c-0.5,0-1-0.1-1.3-0.4l0.3-0.6
		c0.3,0.2,0.7,0.3,1.1,0.3c0.7,0,1-0.4,1-1v-0.3c-0.2,0.3-0.6,0.5-1.1,0.5c-0.7,0-1.5-0.6-1.5-1.7s0.8-1.7,1.5-1.7
		C177.9,34.1,178.2,34.3,178.5,34.6z M176.6,35.8c0,0.5,0.4,1,0.9,1c0.6,0,0.9-0.4,0.9-1s-0.4-1-0.9-1S176.6,35.2,176.6,35.8z"/>
	<path id="XMLID_101_" class="st1" d="M185.4,35.8c0,1-0.7,1.7-1.6,1.7c-0.5,0-0.8-0.2-1-0.5v0.4h-0.7v-4.8h0.7v2
		c0.2-0.3,0.5-0.5,1-0.5C184.7,34.1,185.4,34.8,185.4,35.8z M182.7,35.8c0,0.6,0.4,1,1,1s1-0.5,1-1c0-0.6-0.4-1-1-1
		C183.1,34.8,182.7,35.2,182.7,35.8z"/>
	<path id="XMLID_100_" class="st1" d="M188.4,34.2l-0.2,0.7c-0.1-0.1-0.4-0.1-0.5-0.1c-0.4,0-0.8,0.3-0.8,0.9v1.8h-0.7v-3.2h0.7v0.4
		c0.2-0.3,0.5-0.4,0.9-0.4C188.1,34.1,188.3,34.1,188.4,34.2z"/>
	<path id="XMLID_99_" class="st1" d="M191.4,37.4V37c-0.2,0.3-0.6,0.5-1,0.5c-0.9,0-1.6-0.7-1.6-1.7s0.7-1.7,1.6-1.7
		c0.5,0,0.8,0.2,1,0.5v-0.4h0.7v3.2C192.1,37.4,191.4,37.4,191.4,37.4z M189.5,35.8c0,0.6,0.4,1,1,1s1-0.4,1-1s-0.4-1-1-1
		S189.5,35.2,189.5,35.8z"/>
	<path id="XMLID_98_" class="st1" d="M196.2,35.4v2h-0.7v-1.8c0-0.5-0.3-0.8-0.7-0.8c-0.5,0-0.8,0.3-0.8,0.8v1.8h-0.7v-3.2h0.7v0.4
		c0.3-0.4,0.7-0.5,1-0.5C195.7,34.1,196.2,34.6,196.2,35.4z"/>
	<path id="XMLID_97_" class="st1" d="M199.7,34.6v-2h0.7v4.8h-0.7V37c-0.2,0.3-0.6,0.5-1,0.5c-0.9,0-1.6-0.7-1.6-1.7
		s0.7-1.7,1.6-1.7C199.1,34.1,199.4,34.3,199.7,34.6z M197.8,35.8c0,0.6,0.4,1,1,1s1-0.4,1-1s-0.4-1-1-1
		C198.1,34.8,197.8,35.2,197.8,35.8z"/>
	<path id="XMLID_96_" class="st1" d="M202.7,34.7c-0.4,0-0.6,0.2-0.6,0.4s0.2,0.3,0.5,0.3l0.3,0.1c0.7,0.1,1.1,0.4,1.1,0.9
		c0,0.6-0.5,1.1-1.5,1.1c-0.3,0-0.9-0.1-1.4-0.4l0.3-0.5c0.2,0.2,0.5,0.3,1.1,0.3c0.5,0,0.7-0.2,0.7-0.4s-0.2-0.3-0.6-0.4h-0.3
		c-0.7-0.1-1.1-0.4-1.1-0.9c0-0.6,0.5-1,1.3-1c0.5,0,1,0.1,1.3,0.3l-0.3,0.5C203.5,34.9,203.1,34.7,202.7,34.7z"/>
	<path id="XMLID_95_" class="st1" d="M205.8,36.9c0,0.3-0.3,0.6-0.6,0.6s-0.6-0.3-0.6-0.6s0.3-0.6,0.6-0.6S205.8,36.6,205.8,36.9z"
		/>
</g>
<path id="XMLID_4_" class="st1" d="M22.1,23.6c-1.4,1.3-3.8,2.2-6.2,2.2c-5.6,0-10-4.5-10-10.1s4.5-10,10-10c2.7,0,5.1,1.1,6.9,2.8
	l4.8-3.2C24.7,2.1,20.5,0,15.8,0C7.1,0,0,7.1,0,15.8s7,15.8,15.7,15.8c2.2,0,4.2-0.5,6.2-1.3v-6.7H22.1z"/>
</svg>
