<svg xmlns="http://www.w3.org/2000/svg" viewBox="0 0 156.85 138.73"><defs><style>.cls-1{fill:#0a0a0a;}.cls-2{fill:#c7b00a;}</style></defs><title>delap-logo</title><g id="Layer_2" data-name="Layer 2"><g id="Layer_1-2" data-name="Layer 1"><path class="cls-1" d="M24.55,119.86c-1.51,1.09-2.95,2.25-4.5,3.24a12.42,12.42,0,0,1-14.17-.58,13.11,13.11,0,0,1-4.1-5.1C-.93,111.1-.66,104.93,3.34,99.22c4.49-6.41,12.31-8.29,19.51-4.92,1.9.89,1.9.89,1.9-1.27q0-6.28,0-12.57a12.3,12.3,0,0,0-.56-4.25,3.11,3.11,0,0,0-3.55-2.39c-.3,0-.59,0-.89,0-.46,0-.88-.15-.94-.66s.31-.76.76-.87c1-.24,2.08-.4,3.09-.71A27.14,27.14,0,0,0,28.3,69c1.28-.75,1.58-.57,1.67.94,0,.51,0,1,0,1.52q0,22.78,0,45.57a8.84,8.84,0,0,0,.3,2.89,2.27,2.27,0,0,0,2.47,1.75c.51,0,1,0,1.52,0s1.12-.06,1.14.66-.53.82-1,.9c-1.42.22-2.85.41-4.27.62a11.63,11.63,0,0,0-3.67.95c-.94.48-1.49.1-1.59-.87s0-1.77-.09-2.66C24.73,120.8,24.9,120.32,24.55,119.86Zm.2-11.29c0-1.9-.08-3.81,0-5.71.17-3.21-1.31-5.37-4-6.94-6.12-3.6-13.11-1.5-15.31,4.86A16.58,16.58,0,0,0,8.4,117.6a10.43,10.43,0,0,0,9.87,4c4-.5,6.48-3.17,6.49-7.22C24.76,112.46,24.76,110.51,24.76,108.57Z"/><path class="cls-1" d="M133,97.94c.69-.6,1.23-1.06,1.75-1.53,7.62-6.84,18.51-3.88,21.26,6,2,7.06.42,13.47-5,18.64-4.71,4.53-10.26,4.9-16.16,2.68-2.06-.78-2.06-.8-2.05,1.45s-.05,4.66.07,7c.2,3.66,1.41,4.79,5,5a8.25,8.25,0,0,1,.89.06c.41.06.74.28.75.73s-.38.64-.77.68a7.71,7.71,0,0,1-1,0,105.19,105.19,0,0,0-12.18.12,4.46,4.46,0,0,1-.89,0c-.43,0-.87-.17-1-.66s.3-.8.72-.88c2.4-.44,3.07-2.15,3.14-4.27,0-1.35,0-2.71,0-4.06,0-9.44,0-18.87-.1-28.31,0-2.86-.88-3.62-3.79-3.68h-.63c-.36,0-.7-.08-.79-.49s.18-.73.56-.86c.6-.21,1.21-.37,1.82-.55a21.59,21.59,0,0,0,6.91-3.08c.3-.22.61-.54,1-.29s.34.65.34,1C133,94.28,133,96,133,97.94Zm-.15,10.8q0,3.17,0,6.35a7.28,7.28,0,0,0,1.63,4.7c4.26,5.3,14.16,3.9,16.73-2.62A17,17,0,0,0,149,100a10,10,0,0,0-12.56-2.82c-2.3,1.19-3.73,3-3.6,5.76C132.94,104.85,132.86,106.8,132.87,108.74Z"/><path class="cls-1" d="M113.75,109.17c0,2.62,0,5.25,0,7.87a11.42,11.42,0,0,0,.23,2.14c.5,2.49,1.74,3.37,4.24,3.07.21,0,.42-.08.63-.1s.63,0,.79.26-.07.63-.33.87c-1.89,1.8-6.13,1.85-8.14.08a11.16,11.16,0,0,1-.89-.9c-1.32-1.46-1.38-1.55-3-.37a15,15,0,0,1-6.94,2.84,9.84,9.84,0,0,1-2.53,0c-2.93-.39-5.18-1.74-6-4.72a7.2,7.2,0,0,1,2.35-7.92c2.59-2.15,5.78-2.91,9-3.67,1.52-.36,3.07-.62,4.61-.91.42-.08.87-.07.85-.69a48.87,48.87,0,0,0-.23-7,5.73,5.73,0,0,0-4-4.64,8.65,8.65,0,0,0-5.12-.28,3.46,3.46,0,0,0-2.87,3.54,11.62,11.62,0,0,0,.59,3.62c.3,1.14,0,1.47-1.18,1.39l-.13,0c-4.17-.63-4.93-2.37-2.73-5.72,3.55-5.42,12-7.08,17.41-3.48A6.87,6.87,0,0,1,113.6,100c.12,3,0,6.09,0,9.14Zm-5.23,4.65h0c0-1.27,0-2.54,0-3.81,0-.67-.22-.94-.89-.81-1,.18-2,.3-3,.52-2.51.58-4.9,1.44-6.64,3.45a5.82,5.82,0,0,0-.88,6.65c1,2.18,3,2.87,5.26,2.79a9.06,9.06,0,0,0,2.25-.38,5,5,0,0,0,3.85-4.86C108.58,116.2,108.52,115,108.52,113.83Z"/><path class="cls-1" d="M81.27,93.51q0,10.86,0,21.71a20.84,20.84,0,0,0,.16,2.66c.38,2.87,1.18,3.76,4,4.51.37.1.75.14,1.12.24.54.14,1.15.3,1,1s-.72.57-1.22.54a93.53,93.53,0,0,0-12.68.09c-.55,0-1.2.16-1.39-.52s.46-.9,1-1.1c2.42-.93,2.81-1.45,2.82-4q0-20.57,0-41.14a6.35,6.35,0,0,0-.23-1.88A2.06,2.06,0,0,0,73.7,74c-.63,0-1.27,0-1.9,0-.46,0-.91-.12-1-.6s.38-.74.79-.84a37.5,37.5,0,0,0,4.77-1.72,25.56,25.56,0,0,0,3.42-1.65c1.07-.65,1.43-.46,1.49.79,0,.8,0,1.61,0,2.41Q81.27,83,81.27,93.51Z"/><path class="cls-1" d="M55.24,105.48c-3.09,0-6.18,0-9.27,0-.62,0-1,0-1,.85,0,4.9,1.49,9.17,5.24,12.46,3.55,3.12,8.31,3.41,12.77.88,1-.56,1.91-1.25,2.86-1.88.32-.21.68-.5,1-.16s.17.73,0,1.08a3,3,0,0,1-.49.73c-4.16,4.46-10.55,6.93-16.59,4.84-4.56-1.57-7.38-4.94-8.94-9.4a17.48,17.48,0,0,1,5.35-19.31A12.12,12.12,0,0,1,64.6,98.85a21.8,21.8,0,0,1,1.83,4c.67,2,.2,2.64-1.92,2.71-.93,0-1.86,0-2.79,0H55.24Zm-2.68-2.05c2-.1,4.34.17,6.7-.15,1.08-.15,1.55-.68,1.38-1.82a8.56,8.56,0,0,0-5-6.46,6.39,6.39,0,0,0-8,1.81,12.24,12.24,0,0,0-2.34,5.55c-.18.9.19,1.09,1,1.07C48.26,103.4,50.21,103.43,52.55,103.43Z"/><path class="cls-2" d="M81.73,19.09c4.45-2.19,8.55-4.34,12-7.49A25.8,25.8,0,0,0,101.35.23a22,22,0,0,1-.59,6.09A25.3,25.3,0,0,1,94.53,18.6c-.62.65-.42,1,.12,1.56,5,5,6.76,11.25,6.87,18.12a4.81,4.81,0,0,1-.15.67,23.93,23.93,0,0,0-7.2-12.21A39.4,39.4,0,0,0,81.73,19.09Z"/><path class="cls-2" d="M55.62,0c2.67,10.15,10.31,15.26,19.52,19.08C66.24,23.19,58.75,28.49,55.6,38.2a24.17,24.17,0,0,1,1-7.31,24.33,24.33,0,0,1,5.89-10.8c.61-.64.46-1-.09-1.53C57.4,13.63,55.57,7.49,55.45.7a2.62,2.62,0,0,1,0-.5C55.51.13,55.57.07,55.62,0Z"/></g></g></svg>