<svg xmlns="http://www.w3.org/2000/svg" viewBox="0 0 760.01 399.83"><defs><style>.cls-1{fill:#1c498b;}</style></defs><title>dot-it-logo</title><g id="Layer_2" data-name="Layer 2"><g id="Layer_1-2" data-name="Layer 1"><path class="cls-1" d="M0,399.83c.45-10.24.83-20,1.31-29.81q4-80.85,7.95-161.7c.86-17.47,1.75-34.93,2.58-52.4.11-2.27.25-3.82,3.19-4.53,31.85-7.72,63.32-17,95.75-22.24,7.24-1.16,14.51-1.84,21.89-.8,16.6,2.33,26.42,12.92,27.42,29.77,1.15,19.5-.31,39-1.26,58.4-1.5,30.78-3,61.55-5,92.3-.73,11.6-2,23.28-7.73,33.81-7.4,13.59-19.33,21.74-33.39,27.06-23.57,8.93-48.37,13.5-72.63,20C27,393.17,13.71,396.36,0,399.83ZM92.72,244.89h-.1c.34-6.65.77-13.3,1-20,.46-13.14,1.75-26.26,1.3-39.44-.24-7-3.21-9.61-10.08-9-1.33.12-2.64.41-4,.49-3.95.23-5.48,1.91-5.66,6.22C73.79,216.79,72,250.38,70.41,284c-.85,17.46-1.72,34.93-2.45,52.39-.05,1.3-1.69,4.06,1.84,3.73,8-.74,15.55-7.16,17.26-15.06a91.64,91.64,0,0,0,2-13.81C90.4,289.13,91.52,267,92.72,244.89Z"/><path class="cls-1" d="M327.76,197.81C326.55,221,325.64,239,324.48,257c-2.94,45.28-32.43,71.62-69.43,82-14.49,4-29.17,7.43-44.32,5.18-17.4-2.59-26.37-13-28.76-31.94-2.18-17.32-.52-34.62.39-51.89.91-17.12,1.32-34.26,3.19-51.34,5-45.29,34.88-68.77,71.71-78.21,13.46-3.45,27.07-5.64,41-2.28,18.08,4.37,28.7,17.11,30,35.73C329.16,177.17,328,190.12,327.76,197.81Zm-63.86,36c.69-22.13,2.6-41.21,2.2-60.36-.16-7.75-4.38-9.88-11.17-6-3.34,1.9-4.83,5-5.39,8.55a130.54,130.54,0,0,0-1.5,13.39q-2.47,47.36-4.73,94.73c-.25,5.3-.59,10.63.57,15.91.86,3.93,3.27,5.2,7,4.38,4.6-1,7.79-3.71,8.88-8.4a46.31,46.31,0,0,0,1.21-7.87C262,269,263,249.93,263.91,233.82Z"/><path class="cls-1" d="M574.15,220q4.58-94.79,9.17-189.57c.38-7.86.44-7.81,7.86-9.65,18.07-4.49,36.16-8.94,54.18-13.63,3.21-.84,4.08-.46,3.9,3q-3,58.86-5.82,117.72-2.31,47.39-4.57,94.79c-.45,9.31-1.05,18.61-1.43,27.92-.11,2.62-1.1,3.59-3.69,4.23q-29.07,7.14-58,14.73c-4,1-4-.56-3.86-3.61.83-15.29,1.52-30.59,2.26-45.89Z"/><path class="cls-1" d="M355.81,214.62c1-21.62,2-43.25,3.23-64.87.22-3.92-.61-4.44-4.28-3.38-9,2.63-9.11,2.44-8.68-6.74.3-6.49.79-13,.89-19.46,0-2.79.86-4,3.71-4.72,10.09-2.61,10.06-2.75,10.59-13.39.3-6,.64-12,.82-18,.06-2.15.73-3.19,3-3.74q28.59-7.09,57.1-14.47c3.07-.79,3.3.42,3.15,2.93-.49,8.15-.74,16.31-1.24,24.45-.18,2.88.39,4,3.5,2.88a72.27,72.27,0,0,1,7.26-1.83c6.79-1.72,6.12-2.57,5.79,4.56-.35,7.49-.84,15-1.08,22.46-.08,2.73-.9,4-3.76,4.74-4.47,1.11-10.54.55-12.89,4.15-2.13,3.26-1,8.69-1.17,13.17q-2.45,50.9-4.86,101.81c-.14,3,0,6,.09,9,.27,5.63,1,6.17,6.73,5.57.66-.07,1.32-.2,2-.24,3.22-.22,7.35-3.15,9.22-1,1.59,1.84.18,6.31,0,9.62-.27,6.16-.7,12.31-.84,18.47-.06,2.46-.51,3.81-3.3,4.48-15.86,3.76-31.51,8.39-47.63,11-5,.81-9.93,1-14.85-.45-8.45-2.47-13.64-8.44-14.46-17.14-1.28-13.49,0-27,.53-40.43.35-9.82,1-19.63,1.47-29.44Z"/><path class="cls-1" d="M678,79.84c-3.46.83-6.73,1.39-9.84,2.42s-3.33-.21-3.18-2.77c.51-8.64,1-17.29,1.19-25.95.06-2.79,1.63-3.23,3.63-3.75,9.83-2.57,9.89-2.57,10.6-12.78.42-6,.72-12,.82-18,0-2.85,1.13-4,3.91-4.63Q713,7.63,740.75.39c3.28-.86,4-.48,3.76,3-.65,8.13-.75,16.3-1.28,24.44-.19,2.93.77,3.46,3.38,2.72,4.29-1.22,8.64-2.25,13.41-3.47-.46,10.23-1,20-1.28,29.79-.07,2.23-1.22,2.76-3,3.18-3.56.84-7.06,2-10.65,2.66-2.72.54-3.77,1.76-3.9,4.65-1.68,37.77-3.52,75.52-5.25,113.29a91.85,91.85,0,0,0,.28,10c.18,2.87,1.86,4.18,4.71,3.71,3.45-.56,6.9-1.13,10.31-1.89,2.26-.51,3.34-.37,3.17,2.46-.56,9-1,18-1.24,26.94-.07,2.07-.83,2.91-2.73,3.38-16.17,3.92-32.15,8.67-48.63,11.22a36.58,36.58,0,0,1-11.95.09c-9.84-1.72-16.46-8.75-17-18.72-1.05-20.5.81-40.94,1.74-61.39,1.11-24.45,2.33-48.9,3.49-73.35C678.18,82.14,678,81.16,678,79.84Z"/><path class="cls-1" d="M476.93,180c.92-13.09,6.41-24.22,19-30.55,14.56-7.29,29.39.92,31.24,17.06,1.52,13.29-3.2,24.29-13.72,32.46-7.44,5.78-15.88,7.92-24.73,3.32C480.14,197.81,477.37,189.8,476.93,180Z"/></g></g></svg>