<?xml version="1.0" encoding="utf-8"?>
<!-- Generator: Adobe Illustrator 21.1.0, SVG Export Plug-In . SVG Version: 6.00 Build 0)  -->
<svg version="1.1" id="Layer_1" xmlns="http://www.w3.org/2000/svg" xmlns:xlink="http://www.w3.org/1999/xlink" x="0px" y="0px"
	 viewBox="0 0 392.9 77.4" style="enable-background:new 0 0 392.9 77.4;" xml:space="preserve">
<g>
	<path d="M81.2,51.1c0-7-0.1-14,0-21c0.3-14,10.7-26.5,24-29.3c15.5-3.3,30.8,6,35.4,21.5c0.9,3,1.3,6,1.3,9.1c0,13.9,0,27.7,0,41.6
		c0,0.6,0,1.1-0.2,1.6c-0.5,1.8-2.1,2.9-3.9,2.7c-1.7-0.2-3.1-1.5-3.2-3.3c-0.1-1.2,0-2.3,0-3.5c0-12.9,0-25.8,0-38.7
		c0-11.1-7.1-20.5-17.1-23.2c-14.6-3.9-28.8,7.2-28.9,22.8c-0.1,9,0,17.9,0,26.9c0,5,0,9.9,0,14.9c0,2.6-1.5,4.2-3.7,4.2
		c-2.3,0-3.6-1.6-3.6-4.2C81.2,65.7,81.2,58.4,81.2,51.1C81.2,51.1,81.2,51.1,81.2,51.1z"/>
	<path d="M295.7,51.2c0,7.1,0,14.3,0,21.4c0,0.5,0,1-0.1,1.5c-0.3,1.8-1.8,3.1-3.6,3.1c-1.9,0-3.4-1.3-3.6-3.2c-0.1-0.8,0-1.7,0-2.5
		c0-13.4,0-26.7,0-40.1c0-11.5-7.9-21.3-18.7-23.3c-12.2-2.3-23.8,5.4-26.8,17.8c-0.5,2-0.7,4.1-0.7,6.1c0,13.4,0,26.8,0,40.2
		c0,0.4,0,0.9,0,1.3c-0.1,2.1-1.6,3.6-3.6,3.6c-2,0-3.7-1.4-3.7-3.5c0-14.9-0.5-29.9,0.2-44.7c0.7-14.2,10.9-25.5,23.9-28.2
		c16.4-3.4,32.6,7.4,35.9,24c0.5,2.4,0.7,4.7,0.7,7.1C295.7,38.3,295.7,44.8,295.7,51.2z"/>
	<path d="M370.7,0.1c5.3,0,13.1,2.7,20,7.8c2.3,1.7,2.9,3.8,1.5,5.7c-1.4,1.9-3.7,2.1-6,0.3c-15.4-11.6-37.6-6.9-46.8,9.9
		c-10.3,18.7,1.3,42.2,22.5,45.4c9,1.4,17.1-0.6,24.5-5.9c2.2-1.6,4.4-1.4,5.8,0.4c1.4,1.8,1,4.1-1.2,5.6
		c-12.2,8.8-25.4,10.5-39.2,4.8c-13.6-5.7-21.6-16.3-23.3-31C325.7,19.6,343.6,0,370.7,0.1z"/>
	<path d="M157.6,44.7c3.5,0,3.4,0,4.4,3.3c3.4,11,10,18.8,21.6,21.1c11.2,2.3,19.9-2.4,26.5-11.2c2.6-3.5,4.3-7.5,5.1-11.8
		c0.2-1.1,0.6-1.4,1.7-1.4c1.6,0.1,3.2,0.1,4.8,0c0.8,0,1,0.2,0.9,1c-2.6,16.1-15,29.7-30.9,31.2c-12,1.2-21.6-3.5-29.2-12.6
		c-4.4-5.2-7-11.3-8.3-18c-0.3-1.3-0.1-2,1.4-1.8C156.2,44.8,156.9,44.7,157.6,44.7z"/>
	<path d="M219,32.5c-3.4,0-3.3,0-4.3-3.2c-1.7-5.9-4.7-11-9.3-15.1c-11.2-10-26.8-8.8-36.8,2.7c-3.4,3.9-5.8,8.4-6.9,13.5
		c-0.4,1.9-1.1,2.3-2.8,2.1c-1.3-0.1-2.6-0.1-3.8,0c-0.9,0-1.1-0.2-1-1.1c2.5-14.4,12.8-27.3,27.4-30.6c13.6-3.1,27.4,3.1,35.4,15.8
		c2.9,4.5,4.7,9.4,5.7,14.7c0.2,1.1,0,1.4-1.1,1.3C220.7,32.5,219.9,32.5,219,32.5z"/>
	<path d="M315.4,38.6c0,11.4,0,22.7,0,34.1c0,1.6-0.4,3-1.8,3.9c-2.2,1.4-5.1,0.3-5.7-2.2c-0.1-0.6-0.1-1.2-0.1-1.8
		c0-22.6,0-45.3,0-67.9c0-2.8,1.3-4.4,3.5-4.5c2.4-0.1,4,1.5,4.1,4c0,6,0,12,0,18C315.4,27.6,315.4,33.1,315.4,38.6z"/>
	<path d="M68.8,35.4c-0.8-8.9-3.8-16.9-9.6-23.7c-13-15.2-34.8-15.6-48.5-1c-14.4,15.4-14.3,41,0.4,56.2c6.1,6.3,13.5,10,22.3,10.2
		c12.7,0.3,22.1-5.6,29.1-15.9c0.4-0.6,0.8-1.2,1.1-1.9c0.8-1.9,0-4.4-1.7-5.2c-1.7-0.8-3.3-0.1-4.5,1.9c-0.3,0.4-0.5,0.9-0.8,1.3
		c-9.2,14.4-28.3,16.5-40.3,4.5c-5.5-5.5-8.3-12.4-9.1-20.1C6.9,40.4,7.2,40,8.6,40c9.3,0.1,18.7,0,28.1,0c9.3,0,18.6,0,27.9,0
		C67.8,40.1,69.1,38.7,68.8,35.4z M59.6,32.7c-8.4-0.1-16.8,0-25.2,0c-8.5,0-16.9,0-25.4,0c-1.3,0-1.6-0.2-1.3-1.5
		C10.4,20.5,16.2,12.4,27,8.8c11.8-3.9,24.5,1.7,30.8,13.4c1.5,2.7,2.5,5.6,3.2,8.6C61.3,32.1,61.3,32.7,59.6,32.7z"/>
</g>
</svg>
