<?xml version="1.0" encoding="utf-8"?>
<!-- Generator: Adobe Illustrator 22.0.1, SVG Export Plug-In . SVG Version: 6.00 Build 0)  -->
<svg version="1.1" id="layer" xmlns="http://www.w3.org/2000/svg" xmlns:xlink="http://www.w3.org/1999/xlink" x="0px" y="0px"
	 viewBox="0 0 255.5 50" style="enable-background:new 0 0 255.5 50;" xml:space="preserve">
<style type="text/css">
	.st0{clip-path:url(#SVGID_2_);fill:url(#SVGID_3_);}
</style>
<g>
	<g>
		<defs>
			<path id="SVGID_1_" d="M226,11.7l-3.5,16.5c-1.4,6.3-4.5,7.3-10.1,7.3c-5.2,0-5-2.3-4-6.6l3.7-17.1h-4l-3.7,17.1
				c-1.5,7,0.4,9.9,7.5,9.9c3.5,0,7-0.6,9.2-3.9h0.1l-0.8,3.6h4.1l5.7-26.7L226,11.7L226,11.7z M50.5,30.2c0.6-2.4,2.3-2.8,4.4-2.8
				c2.9,0,4.7,0.2,4.3,2.4c-0.6,2.8-1.8,3.2-5.5,3.2C52.3,33.1,49.8,33.1,50.5,30.2 M50.4,12.4c-2.6,1-4.5,3.1-5.4,7.2h8.7
				c0.5-2.4,2-2.9,4.2-2.9c3.8,0,3.6,1.6,3.1,4L60.1,25h-0.4c-0.3-3.1-4.2-3-6.6-3c-6.3,0-10.1,2-11.5,8.4c-1.4,6.8,1.8,8.3,7.9,8.3
				c3.1,0,7.1-0.6,8.6-4.3h0.3l-1.1,4H66l3.6-16.7c1.9-9.2-1.6-10.3-10.5-10.3C56,11.4,52.9,11.4,50.4,12.4 M163.8,15.1L163.8,15.1
				l0.9-3.4h-3.9l-5.7,26.7h4l3.6-16.6c0.9-4.7,3-7.1,8-7.1c3.4,0,4.3,1.1,3.6,4.4l-0.4,1.8h3.8L178,19c1.1-5-0.7-7.5-5.8-7.5
				C169.3,11.4,165.9,12.2,163.8,15.1 M182.2,25.1c2-9.3,2.7-10.4,9.9-10.4c7.2,0,7.5,1.1,5.5,10.4c-2,9.2-2.7,10.3-9.9,10.3
				C180.5,35.5,180.3,34.4,182.2,25.1 M178.1,25.1c-2.4,11.2-1,13.6,8.9,13.6s12.4-2.4,14.7-13.6c2.4-11.3,1-13.7-8.9-13.7
				C182.9,11.4,180.5,13.8,178.1,25.1 M235.5,25.1c1.5-7.1,2.2-10.4,9.8-10.4c6.8,0,6.9,2.4,5.2,10.4c-1.8,8.6-3.4,10.3-9.6,10.3
				C233.6,35.5,234.1,31.4,235.5,25.1 M237.7,15.1L237.7,15.1l0.6-3.3h-4L226.2,50h4l3.1-14.7h0.1c0.9,3.1,4.8,3.4,7.9,3.4
				c7.8,0,11-3.1,13.3-13.6c0.6-2.6,0.9-4.9,0.9-6.8v-0.1c0-4.2-1.9-6.8-8.5-6.8C243.7,11.4,239.9,12.1,237.7,15.1 M104.5,6.1
				l-1.1,5.7H100l-1.4,6.4h3.2l-2.8,13.2c-1.4,6.7,3.1,7.4,8.6,7.4c7.1,0,10.2-1.6,11.7-8.9l0.5-2.4h-7l-0.3,1.4
				c-0.5,1.8-0.7,3.4-3,3.4c-1.6,0-1.8-0.6-1.5-2.3l2.6-11.9h10.1l1.4-6.4H112l1.1-5.7L104.5,6.1L104.5,6.1z M50.9,1.6l-1.7,7.8h8.2
				l1.7-7.8H50.9z M62.7,1.6l-1.7,7.8h8.2L71,1.6H62.7z M8.1,0.3L0,38.4h10.2l2.9-14h15.5l1.8-8.3H14.9l1.6-7.5h16.9l1.7-8.3
				L8.1,0.3L8.1,0.3z M36.9,0.3l-8.1,38.1h8.7l8.1-38.1H36.9z M77.1,0.3L69,38.4h8.7L80,27.6h1.5l4.1,10.8h10.2l-6.3-13.9l10.3-12.8
				h-9.6l-7.4,10h-1.5l4.5-21.5L77.1,0.3L77.1,0.3z M139.6,0c-6.4,0-11.7,3-13.8,13.3l-2.5,11.8c-2.5,11.8,1.6,13.7,11.8,13.7h4.2
				c8.6,0,13.1-2.1,15-11.1l1.8-8.3h-16.5l-0.8,3.8h12.1l-1,4.7c-1.3,6.1-3.1,7-10.7,7h-4c-7.1,0-9.2-1.6-7.7-8.9l2.6-12.3
				c1.8-8.3,3.4-10,11.6-10h5.3c6.2,0,7.7,1.1,6.8,5.5l-0.5,2.2h4.3l0.6-2.9c1.3-6.1-2.5-8.4-8.2-8.5L139.6,0L139.6,0z"/>
		</defs>
		<clipPath id="SVGID_2_">
			<use xlink:href="#SVGID_1_"  style="overflow:visible;"/>
		</clipPath>
		
			<linearGradient id="SVGID_3_" gradientUnits="userSpaceOnUse" x1="-11.1986" y1="-583.3165" x2="-8.0458" y2="-583.3165" gradientTransform="matrix(81.0496 0 0 81.0496 907.6458 47302.5508)">
			<stop  offset="0" style="stop-color:#CABB9F"/>
			<stop  offset="0.1311" style="stop-color:#AA9778"/>
			<stop  offset="0.2458" style="stop-color:#A08D70"/>
			<stop  offset="0.5619" style="stop-color:#87745E"/>
			<stop  offset="1" style="stop-color:#83725D"/>
		</linearGradient>
		<rect x="0" y="0" class="st0" width="255.5" height="50"/>
	</g>
</g>
</svg>
