<?xml version="1.0" encoding="utf-8"?>
<!-- Generator: Adobe Illustrator 21.1.0, SVG Export Plug-In . SVG Version: 6.00 Build 0)  -->
<svg version="1.1" id="Layer_1" xmlns:sketch="http://www.bohemiancoding.com/sketch/ns"
	 xmlns="http://www.w3.org/2000/svg" xmlns:xlink="http://www.w3.org/1999/xlink" x="0px" y="0px" viewBox="0 0 228 99"
	 style="enable-background:new 0 0 228 99;" xml:space="preserve">
<style type="text/css">
	.st0{fill:#0071BC;}
</style>
<title>invention machine</title>
<desc>Created with Sketch.</desc>
<g id="Testimonials" sketch:type="MSPage">
	<g id="logos" transform="translate(-458.000000, -533.000000)" sketch:type="MSArtboardGroup">
		<g id="invention-machine" transform="translate(458.000000, 533.000000)" sketch:type="MSLayerGroup">
			<g id="Group" transform="translate(23.000000, 16.000000)" sketch:type="MSShapeGroup">
				<g id="Shape" transform="translate(0.000000, 36.000000)">
					<path class="st0" d="M-0.8,44.7L-18.4,1h-0.2c0.1,2.7,0.2,5.5,0.2,8.2v35.5h-3.2V-2.6h5.1L0.2,39.1h0.2L17.3-2.6h5v47.3h-3.4
						V8.8c0-2.5,0.1-5.1,0.4-7.7H19L1.4,44.8h-2.1V44.7z"/>
					<path class="st0" d="M53.3,44.7l-0.9-5.6h-0.2c-1.7,2.2-3.6,3.9-5.5,4.9c-1.9,1-4.1,1.4-6.6,1.4c-3.5,0-6.1-0.9-8.1-2.6
						c-1.9-1.7-2.9-4.2-2.9-7.3c0-3.5,1.4-6.1,4.2-8c2.9-1.9,7-2.9,12.4-3l6.7-0.2v-2.4c0-3.4-0.6-5.9-2-7.6
						c-1.4-1.7-3.6-2.6-6.6-2.6c-3.2,0-6.6,0.9-10.1,2.7l-1.2-2.7c3.9-1.9,7.7-2.7,11.5-2.7c3.9,0,6.7,1,8.7,3
						c1.9,2,2.9,5.1,2.9,9.3v23.4h-2.4V44.7z M40.3,42.4c3.7,0,6.7-1.1,8.8-3.2c2.1-2.1,3.2-5.1,3.2-9v-3.5L46.3,27
						c-5,0.2-8.5,1-10.6,2.4c-2.1,1.2-3.1,3.4-3.1,6.1c0,2.2,0.6,3.9,2,5.1C36,41.8,37.8,42.4,40.3,42.4L40.3,42.4z"/>
					<path class="st0" d="M78.1,45.3c-5,0-9-1.6-11.8-4.7S62,33,62,27.2c0-5.9,1.5-10.3,4.5-13.6c3-3.2,7-4.9,12.2-4.9
						c3,0,6,0.5,8.7,1.6l-0.9,2.9c-3-1-5.7-1.5-8-1.5c-4.4,0-7.6,1.4-9.8,4c-2.2,2.6-3.4,6.5-3.4,11.5c0,4.7,1.1,8.5,3.4,11.2
						c2.2,2.7,5.4,4,9.3,4c3.2,0,6.2-0.6,9-1.7v3C84.7,44.8,81.8,45.3,78.1,45.3L78.1,45.3z"/>
					<path class="st0" d="M117.1,44.7V21.9c0-3.5-0.7-6.1-2.2-7.7c-1.5-1.6-3.9-2.4-7-2.4c-4.2,0-7.3,1.1-9.2,3.2
						c-2,2.1-3,5.6-3,10.3v19.4h-3.2V-5.6h3.2v16.1l-0.1,4.5h0.2c1.4-2.1,3-3.6,5-4.6c2-1,4.5-1.4,7.5-1.4c8,0,12,4.2,12,12.8v23
						h-3.1V44.7z"/>
					<path class="st0" d="M131.8,44.7h-3.2V9.4h3.2V44.7L131.8,44.7z M132.1,2.8h-3.5v-5.5h3.5V2.8L132.1,2.8z"/>
					<path class="st0" d="M165.2,44.7V21.9c0-3.5-0.7-6.1-2.2-7.7c-1.5-1.6-3.9-2.4-7-2.4c-4.2,0-7.3,1.1-9.2,3.2
						c-2,2.1-3,5.6-3,10.3v19.4h-3.2V9.6h2.7l0.6,4.9h0.2c2.2-3.6,6.3-5.5,12.2-5.5c8,0,12,4.2,12,12.8v23h-3.1V44.7z"/>
					<path class="st0" d="M191.1,45.3c-5.1,0-9.1-1.6-12-4.7c-2.9-3.1-4.2-7.6-4.2-13.2s1.4-10.1,4.1-13.4c2.7-3.4,6.5-5.1,11.2-5.1
						c4.1,0,7.5,1.5,9.8,4.4c2.4,2.9,3.6,6.8,3.6,11.8v2.6h-25.5c0,4.9,1.1,8.6,3.4,11.1c2.2,2.5,5.4,3.9,9.5,3.9
						c2,0,3.7-0.1,5.4-0.4c1.5-0.2,3.5-0.9,5.7-1.9v2.9c-2,0.9-3.9,1.5-5.5,1.7C195,45.2,193.1,45.3,191.1,45.3L191.1,45.3z
						 M190.1,11.7c-3.4,0-6.1,1.1-8.2,3.4c-2,2.2-3.2,5.5-3.6,9.7h21.8c0-4.1-0.9-7.2-2.6-9.6S193.2,11.7,190.1,11.7L190.1,11.7z"/>
				</g>
				<g>
					<path id="Shape_1_" class="st0" d="M-21.5,26.1V-12h8.1v38.1H-21.5L-21.5,26.1z"/>
					<path id="Shape_2_" class="st0" d="M19.4,26.1h-8V9.2c0-2.1-0.4-3.7-1.1-4.7c-0.7-1-2-1.6-3.6-1.6c-2.2,0-3.9,0.7-4.9,2.2
						c-1,1.5-1.5,4-1.5,7.3v13.7h-8V-3h6.1l1.1,3.7h0.5C1-0.6,2.2-1.8,3.7-2.5c1.5-0.7,3.4-1.1,5.4-1.1c3.4,0,6,0.9,7.7,2.7
						s2.6,4.5,2.6,8V26.1L19.4,26.1z"/>
					<path id="Shape_3_" class="st0" d="M31.6,26.1L20.5-3h8.3l5.6,16.6c0.6,2.1,1,4.1,1.1,6h0.1c0.1-1.6,0.5-3.6,1.1-6L42.4-3h8.3
						L39.7,26.1H31.6L31.6,26.1z"/>
					<path id="Shape_4_" class="st0" d="M65.4,26.6c-4.7,0-8.3-1.2-11-3.9c-2.6-2.6-4-6.2-4-11c0-4.9,1.2-8.6,3.6-11.3
						c2.5-2.6,5.9-4,10.1-4c4.1,0,7.3,1.1,9.6,3.5s3.5,5.6,3.5,9.7v3.9H58.4c0.1,2.2,0.7,4,2,5.2c1.2,1.2,3,1.9,5.2,1.9
						c1.7,0,3.4-0.1,5-0.5c1.6-0.4,3.2-1,4.9-1.7v6.1c-1.4,0.7-2.9,1.2-4.5,1.5C69.6,26.5,67.6,26.6,65.4,26.6L65.4,26.6z M64.2,2.1
						c-1.7,0-3,0.5-4,1.6c-1,1.1-1.5,2.6-1.6,4.5h11.1c0-2-0.5-3.5-1.5-4.5C67.2,2.6,65.9,2.1,64.2,2.1L64.2,2.1z"/>
					<path id="Shape_5_" class="st0" d="M107.7,26.1h-8V9.2c0-2.1-0.4-3.7-1.1-4.7c-0.7-1-2-1.6-3.6-1.6c-2.2,0-3.9,0.7-4.9,2.2
						c-1,1.5-1.5,4-1.5,7.3v13.7h-8V-3h6.1l1.1,3.7h0.5c0.9-1.4,2.1-2.5,3.6-3.2c1.5-0.7,3.4-1.1,5.4-1.1c3.4,0,6,0.9,7.7,2.7
						s2.6,4.5,2.6,8V26.1L107.7,26.1z"/>
					<path id="Shape_6_" class="st0" d="M125.2,20.3c1.4,0,3.1-0.2,5-0.9v5.9c-2,0.9-4.4,1.4-7.3,1.4c-3.2,0-5.5-0.7-7-2.4
						c-1.5-1.6-2.1-4-2.1-7.2V3h-3.9v-3.4l4.4-2.6l2.2-6.1h5.1v6.2h8.1v6h-8.1v14.1c0,1.1,0.4,2,1,2.5
						C123.4,20,124.1,20.3,125.2,20.3L125.2,20.3z"/>
					<path id="Shape_7_" class="st0" d="M141.2,26.1h-8V-3h8V26.1L141.2,26.1z M141.2-6.6h-8v-7.8h8V-6.6L141.2-6.6z"/>
					<path id="Shape_8_" class="st0" d="M203.5,26.1h-8V9.2c0-2.1-0.4-3.7-1.1-4.7c-0.7-1-2-1.6-3.6-1.6c-2.2,0-3.9,0.7-4.9,2.2
						s-1.5,4-1.5,7.3v13.7h-8V-3h6.1l1.1,3.7h0.5c0.9-1.4,2.1-2.5,3.6-3.2c1.5-0.7,3.4-1.1,5.4-1.1c3.4,0,6,0.9,7.7,2.7
						c1.7,1.9,2.6,4.5,2.6,8V26.1L203.5,26.1z"/>
					<g transform="translate(134.000000, 6.000000)">
						<path id="Shape_9_" class="st0" d="M26.3-6.5c1.5,0,3.6,0.4,5.2,1.5c1.1,0.7,2.5,2.1,2.5,5.5c0,2.4-1.4,4.2-2.9,6.3
							c-0.9,1.2-1.9,2.6-2.5,4.1c-0.7,1.7-1.1,3.9-1.4,5.9h-1.5h-1.5c-0.2-2-0.6-4.1-1.4-5.9c-0.6-1.5-1.6-2.9-2.5-4.1
							c-1.5-2.1-2.9-4-2.9-6.3c0-3.4,1.4-4.6,2.5-5.5c1.5-1.1,3.7-1.5,5.2-1.5h0.1h0.2h0.5C26.2-6.5,26.2-6.5,26.3-6.5L26.3-6.5z
							 M26.3-12.4h-0.6h-0.6c-1.5,0-5.2,0.2-8.5,2.5c-3.7,2.5-5,6.3-5,10.2c0,6.2,4.5,9.7,5.9,12.9c1.4,3.1,1.1,9.3,1.1,9.3h7h7
							c0,0-0.2-6.2,1.1-9.3c1.4-3.2,5.9-6.7,5.9-12.9c0-3.9-1.2-7.7-5-10.2C31.6-12.1,27.8-12.4,26.3-12.4L26.3-12.4L26.3-12.4z"/>
						<rect id="Rectangle-path" x="18.7" y="24.4" class="st0" width="14.1" height="2.9"/>
						<rect id="Rectangle-path_1_" x="18.7" y="29.2" class="st0" width="14.1" height="2.9"/>
					</g>
				</g>
			</g>
		</g>
	</g>
</g>
</svg>
