<svg xmlns="http://www.w3.org/2000/svg" xmlns:xlink="http://www.w3.org/1999/xlink" viewBox="0 0 624.66 207.62"><defs><style>.cls-1{fill:none;}.cls-2{clip-path:url(#clip-path);}.cls-3{fill:url(#未命名的渐变_3);}.cls-4{fill:#fff;}.cls-5{fill:#9a9899;}.cls-6{fill:#555;}.cls-7{clip-path:url(#clip-path-2);}.cls-8{fill:url(#未命名的渐变_2);}</style><clipPath id="clip-path"><path class="cls-1" d="M53,0A17.33,17.33,0,0,0,37.1,10.5L4,87.54a36.7,36.7,0,0,0,.14,29.29l32.58,73.39a26.18,26.18,0,0,0,28.9,15.09l78.45-15.16a18.18,18.18,0,0,0,11-6.79l56.6-74a13.3,13.3,0,0,0-.25-16.47L156,24.69A26,26,0,0,0,140.4,15.5L56.11.28a16.76,16.76,0,0,0-3-.28Z"/></clipPath><linearGradient id="未命名的渐变_3" x1="-1.18" y1="502.27" x2="4.15" y2="502.27" gradientTransform="matrix(0, 38.55, 39.97, 0, -19970.57, 45.67)" gradientUnits="userSpaceOnUse"><stop offset="0" stop-color="#ededed"/><stop offset="0.61" stop-color="#bfbfbe"/><stop offset="1" stop-color="#a7a6a5"/></linearGradient><clipPath id="clip-path-2"><path class="cls-1" d="M52.08,19.06,19.18,91.39a16,16,0,0,0,.12,13.5l32.59,68.29a3.43,3.43,0,0,0,6.05.26L101.6,98.91a10.35,10.35,0,0,0-.18-10.75L57.56,18.69a3.13,3.13,0,0,0-5.48.37"/></clipPath><linearGradient id="未命名的渐变_2" x1="6.94" y1="509.04" x2="12.28" y2="509.04" gradientTransform="matrix(15.98, 0, 0, -29.58, -93.14, 15156.05)" gradientUnits="userSpaceOnUse"><stop offset="0" stop-color="#14c3f4"/><stop offset="0.24" stop-color="#1293ce"/><stop offset="0.5" stop-color="#1062a7"/><stop offset="0.52" stop-color="#115b9d"/><stop offset="0.62" stop-color="#17447b"/><stop offset="0.7" stop-color="#1a3666"/><stop offset="0.75" stop-color="#1b315e"/><stop offset="0.89" stop-color="#182341"/><stop offset="0.95" stop-color="#131932"/><stop offset="1" stop-color="#0e1024"/></linearGradient></defs><title>paramount-workplace-logo</title><g id="Layer_2" data-name="Layer 2"><g id="Layer_1-2" data-name="Layer 1"><g class="cls-2"><rect class="cls-3" width="215.42" height="207.62"/></g><path class="cls-4" d="M201.82,88.79,154.52,29.6a27.09,27.09,0,0,0-16.68-9.81L64.52,7.43a15.34,15.34,0,0,0-16.36,8.74L14.08,92.05a17.55,17.55,0,0,0,.13,14.67l35.17,74.81a15.69,15.69,0,0,0,14.14,9,16,16,0,0,0,2.57-.21l73.33-12.22a22,22,0,0,0,14.12-8.63l48.55-65.4a12.52,12.52,0,0,0-.27-15.26"/><path class="cls-5" d="M194.15,93.49l-75.4-1.33a11.14,11.14,0,0,1-9.17-5.09L63.7,16.16a2.2,2.2,0,0,1,2.19-3.37l69.49,11.15a26.21,26.21,0,0,1,16.37,9.59l44.38,55.95a2.48,2.48,0,0,1-2,4"/><path class="cls-6" d="M137.26,173.28,66.94,184.19a3.66,3.66,0,0,1-3.69-5.5l44-73.37a11,11,0,0,1,9.48-5.36l78.17.07a1.92,1.92,0,0,1,1.55,3.06L151,164.93a21.1,21.1,0,0,1-13.75,8.35"/><g class="cls-7"><rect class="cls-8" x="17.22" y="17.24" width="86.33" height="158.57"/></g><path class="cls-6" d="M231.19,55.3a71.36,71.36,0,0,1,11.11-.81c5.72,0,9.92,1.25,12.58,3.52a11.07,11.07,0,0,1,3.92,8.85,12.07,12.07,0,0,1-3.46,9c-3.06,3.07-8.05,4.64-13.71,4.64a21.08,21.08,0,0,1-4.66-.37v17h-5.79ZM237,75.7a20.57,20.57,0,0,0,4.79.44c7,0,11.25-3.2,11.25-9,0-5.59-4.19-8.29-10.58-8.29a25.73,25.73,0,0,0-5.46.44Zm46.19,14.13a40.31,40.31,0,0,0,.54,7.29h-5.33l-.46-3.83h-.2a12.25,12.25,0,0,1-9.85,4.52c-6.52,0-9.84-4.33-9.84-8.72,0-7.35,6.92-11.37,19.37-11.3v-.64c0-2.51-.73-7-7.32-7a16.81,16.81,0,0,0-8.39,2.26l-1.33-3.64A20.89,20.89,0,0,1,270.92,66c9.85,0,12.24,6.34,12.24,12.43Zm-5.65-8.22c-6.39-.13-13.64.93-13.64,6.84,0,3.58,2.53,5.28,5.53,5.28a8,8,0,0,0,7.79-5.09,5.41,5.41,0,0,0,.33-1.76Zm11-5.41c0-3.57-.06-6.65-.27-9.48h5.13l.2,6h.26A9.59,9.59,0,0,1,302.78,66a6.58,6.58,0,0,1,1.67.19v5.21a9.48,9.48,0,0,0-2-.19c-4.13,0-7.06,2.95-7.85,7.1a14.43,14.43,0,0,0-.27,2.56V97.12h-5.79Zm41.64,13.63a40.86,40.86,0,0,0,.53,7.29h-5.32l-.47-3.83h-.2a12.25,12.25,0,0,1-9.84,4.52c-6.52,0-9.85-4.33-9.85-8.72,0-7.35,6.92-11.37,19.36-11.3v-.64c0-2.51-.73-7-7.32-7a16.8,16.8,0,0,0-8.39,2.26l-1.33-3.64A20.87,20.87,0,0,1,317.94,66c9.85,0,12.25,6.34,12.25,12.43Zm-5.66-8.22c-6.39-.13-13.64.93-13.64,6.84,0,3.58,2.53,5.28,5.53,5.28a8,8,0,0,0,7.79-5.09,5.55,5.55,0,0,0,.33-1.76Zm11-6.66c0-3.14-.07-5.72-.27-8.23h5.12l.27,4.9h.2A11.21,11.21,0,0,1,351,66a9.5,9.5,0,0,1,9.12,6.09h.13a12.78,12.78,0,0,1,3.6-4A11.39,11.39,0,0,1,371,66c4.25,0,10.58,2.64,10.58,13.19V97.12h-5.73V79.92c0-5.85-2.26-9.36-7-9.36a7.52,7.52,0,0,0-6.92,5,8.66,8.66,0,0,0-.47,2.77V97.12h-5.72V78.91c0-4.84-2.26-8.35-6.73-8.35a7.92,7.92,0,0,0-7.25,5.52,7.31,7.31,0,0,0-.46,2.71V97.12h-5.72Zm80.58,6.72c0,11.24-8.25,16.13-16,16.13-8.72,0-15.44-6-15.44-15.64,0-10.17,7.05-16.14,16-16.14,9.25,0,15.51,6.34,15.51,15.64M390.58,82c0,6.66,4.06,11.68,9.79,11.68s9.79-5,9.79-11.8c0-5.15-2.73-11.68-9.66-11.68s-9.91,6-9.91,11.8m55.82,6.85c0,3.13.06,5.89.27,8.29h-5.19l-.33-5H441a12.23,12.23,0,0,1-10.64,5.65c-5.06,0-11.11-2.64-11.11-13.31V66.72h5.86V83.55c0,5.78,1.87,9.67,7.19,9.67a8.45,8.45,0,0,0,7.72-5,7.73,7.73,0,0,0,.53-2.82V66.72h5.86ZM452,75c0-3.14-.06-5.72-.26-8.23H457l.34,5h.13A12,12,0,0,1,468.08,66c4.46,0,11.38,2.51,11.38,12.93V97.12H473.6V79.6c0-4.9-1.93-9-7.45-9a8.26,8.26,0,0,0-7.85,5.65,7.51,7.51,0,0,0-.4,2.57V97.12H452Zm39.65-15.51v7.29h8.39v4.21h-8.39V87.32c0,3.77,1.13,5.9,4.39,5.9a11.31,11.31,0,0,0,3.39-.38l.27,4.15a15,15,0,0,1-5.19.81,8.45,8.45,0,0,1-6.33-2.38c-1.66-1.64-2.26-4.33-2.26-7.92V70.93h-5V66.72h5V61.14Z"/><path class="cls-6" d="M248.13,123.19h8.8l7.29,20.19,7.37-20.19h8.88l-10.22,26.47,9,21.87,18.51-48.59h10.22l-24.47,59.48h-8.13L264.3,155.78l-11.14,26.65h-8l-24.47-59.48h10.14l18.68,48.59,8.8-21.87Zm51,37.37c0-12.14,9-22.71,22.53-22.71s22.54,10.56,22.54,22.71-8.88,22.7-22.54,22.7-22.53-10.56-22.53-22.7m22.53,14.82c7.29,0,13.07-6.44,13.07-14.82s-5.78-14.83-13.07-14.83-13.07,6.54-13.07,14.92,5.79,14.74,13.07,14.74m27.21,7v-43.8h8.46v5.06c3-3.92,6.7-5.71,11.81-5.79h2l-2,8.23c-8.46.58-11.25,4.24-11.25,11.92v24.39Zm56.62,0-14-20.19-7.29,6.88v13.32H375V121.26h9.21v38.79l20.19-21.36h10L397.46,157l17.93,25.38Z"/><path class="cls-6" d="M424.27,182.43V122.94h25c10.72,0,18.43,9.8,18.43,19.35,0,10-7.21,19.43-17.93,19.43H433.65v20.7Zm9.38-29h15.5c5.27,0,9-4.77,9-11.14,0-6.62-4.44-11.06-9.47-11.06h-15Zm38.06-32.17h9.21v48.25c0,3.27,1.76,5.2,4.78,5.2a11.93,11.93,0,0,0,4.53-1.09l1.34,7.46a27.67,27.67,0,0,1-9.72,2c-6.28,0-10.14-3.68-10.14-10ZM528.86,177a20.56,20.56,0,0,1-15,6.37c-13.59,0-23.43-10-23.43-23.13a22.79,22.79,0,0,1,6.42-16.09c4.51-4.66,9.76-6.79,16.51-6.79a20.91,20.91,0,0,1,15.51,6.46v-5.31H537v43.88h-8.17Zm-14.59-1.15a15.41,15.41,0,0,0-.17-30.81,15.17,15.17,0,0,0-15.34,15.12,15.38,15.38,0,0,0,15.51,15.68m100-6-.2-.06c-1.67,4-6.53,6.7-11.47,6.7-6.79,0-12.66-5.19-13.24-12.9h35.1a27.33,27.33,0,0,0,.26-3.35c0-11.81-8.63-22.37-22.37-22.37s-22.79,10.39-22.79,22.79c0,12.23,9,22.62,22.7,22.62a23.34,23.34,0,0,0,14.1-4.47Zm-12-25.2c7,0,12.57,5.11,13.32,12.57H589.05c.59-7.45,6.2-12.57,13.15-12.57M574,169.35c-1.34,3.35-5.86,6-10.38,6-7.21,0-13.15-6.44-13.15-14.91,0-8.63,5.69-14.75,13.07-14.75a11.51,11.51,0,0,1,10.22,5.87l.33-.11,2.33-10a22.26,22.26,0,0,0-12.71-3.66c-13.83,0-22.7,10.3-22.7,22.62s9,22.78,22.7,22.78a23.11,23.11,0,0,0,12.89-3.7l-2.38-10.14Z"/></g></g></svg>