<svg xmlns="http://www.w3.org/2000/svg" viewBox="0 0 361.93 55.26"><defs><style>.cls-1{fill:#003b5d;}.cls-2{fill:#d3441c;}</style></defs><title>rivanna-logo</title><g id="Layer_2" data-name="Layer 2"><g id="Layer_1-2" data-name="Layer 1"><path class="cls-1" d="M299.66,1v54.2H297c-3.14,0-6.28,0-9.43,0a1.68,1.68,0,0,1-1.59-.81Q273.52,36.57,261,18.75c-.18-.26-.38-.51-.72-1V55.15H248.74v-54c.42,0,.84-.08,1.25-.08,3.61,0,7.22,0,10.83,0a1.8,1.8,0,0,1,1.68.87q12.31,17.42,24.66,34.8a3,3,0,0,0,1,.92q0-.71,0-1.42,0-16.85,0-33.69c0-1.45,0-1.46,1.47-1.46Z"/><path class="cls-1" d="M197.49,55.2H186c0-.37-.07-.71-.07-1.05q0-25.95,0-51.89c0-.91.19-1.26,1.18-1.24,3.68.06,7.37,0,11,0a1.71,1.71,0,0,1,1.58.85Q212,19.19,224.24,36.5a3.32,3.32,0,0,0,1.12,1.09q0-.84,0-1.68,0-16.74,0-33.48c0-1.39,0-1.4,1.42-1.4h10.06v54.2h-1.15c-3.5,0-7-.05-10.51,0A2.46,2.46,0,0,1,222.84,54Q210.61,36.4,198.32,18.84c-.2-.29-.42-.57-.83-1.13Z"/><path class="cls-1" d="M179.39,55.2h-13.1c-1.44-4.26-2.93-8.5-4.31-12.78a1.75,1.75,0,0,0-2-1.5c-5.78.07-11.55.05-17.33,0a1.2,1.2,0,0,0-1.37,1c-1.33,4.11-2.74,8.2-4.07,12.31-.23.71-.5,1-1.32,1-3.9-.05-7.8,0-11.86,0,.54-1.49,1-2.9,1.56-4.29q9-24.42,18.06-48.85c.28-.75.59-1.08,1.43-1.07,4.62,0,9.24,0,13.86,0a1.18,1.18,0,0,1,1.35.89q9.52,26.49,19.07,53A1.68,1.68,0,0,1,179.39,55.2ZM151.78,11.92h-.38l-6.82,20.31h14Z"/><path class="cls-1" d="M305.77,55.23l4.11-11.08q7.77-21,15.52-42.06A1.37,1.37,0,0,1,326.95,1c4.58.05,9.17,0,13.75,0a1.23,1.23,0,0,1,1.38,1q9.43,26.23,18.9,52.44a7.56,7.56,0,0,1,.19.79c-4.21,0-8.36,0-12.51,0-.3,0-.74-.48-.86-.83-1.44-4.11-2.85-8.23-4.21-12.38a1.26,1.26,0,0,0-1.43-1.06q-8.88,0-17.76,0c-.81,0-1.1.28-1.34,1q-2,6.22-4.14,12.39c-.12.35-.55.84-.84.85C314,55.25,310,55.23,305.77,55.23Zm20.73-23h14l-6.86-20.36-.34,0Z"/><path class="cls-1" d="M75.11,1.09c.41,0,.73-.06,1-.06,3.68,0,7.37,0,11,0a1.22,1.22,0,0,1,1.38,1Q93.78,17.64,99,33.26q1.7,5.07,3.42,10.13c.11.33.25.65.5,1.27.24-.62.38-1,.5-1.31q6.91-20.59,13.8-41.19A1.39,1.39,0,0,1,118.82,1c3.82.05,7.65,0,11.68,0l-20,54.19c-5.17,0-10.29,0-15.42,0-.3,0-.73-.49-.86-.84-2.25-6.19-4.46-12.4-6.69-18.61l-12-33.46C75.35,1.92,75.24,1.54,75.11,1.09Z"/><path class="cls-1" d="M56.19,55.15v-54H69.08v54Z"/><path class="cls-1" d="M33.94,34,48.89,55.23H46.44c-4.08,0-8.16,0-12.23,0a1.44,1.44,0,0,1-1.4-.71c-3.1-4.7-6.23-9.37-9.33-14.06A2.53,2.53,0,0,1,23,39.2c0-3.93,0-7.87,0-11.8a5.06,5.06,0,0,1,.08-.57h4.19c2.84,0,3.91-1.08,3.9-3.93,0-1.15,0-2.3,0-3.51H43.79c0,1.86,0,3.69,0,5.52q0,1.52,0,3a5.86,5.86,0,0,1-6,6C36.62,34,35.4,34,33.94,34Z"/><path class="cls-1" d="M0,55.18V19.4H10.39c0,1.31,0,2.63,0,3.95,0,2.28,1.16,3.44,3.47,3.47,1.3,0,2.6,0,3.9,0,.28,0,.78.35.78.55.05,2.44,0,4.89,0,7.45H13V55.18Z"/><path class="cls-1" d="M43.79,15.24H31.17c0-1.35,0-2.64,0-3.93q0-3.53-3.52-3.55l-4.33,0a1.06,1.06,0,0,1-.26-.1V0H37.23a6.64,6.64,0,0,1,5.13,2.18,4.94,4.94,0,0,1,1.37,2.71C43.89,8.3,43.79,11.73,43.79,15.24Z"/><path class="cls-2" d="M18.45,7.75c-1.66,0-3.21,0-4.76,0a3,3,0,0,0-3.33,3.36c0,1.33,0,2.66,0,4.06-.41,0-.72.11-1,.11-2.78,0-5.55,0-8.33,0-.75,0-1-.23-1-1,0-3.21,0-6.42,0-9.63A4.63,4.63,0,0,1,4.19.06,9.92,9.92,0,0,1,5.27,0H18.45Z"/><path class="cls-1" d="M361.93,6.35A6.31,6.31,0,1,1,355.59,0,6.36,6.36,0,0,1,361.93,6.35Zm-2.73,3.76a1.14,1.14,0,0,0,.27-.17,5.44,5.44,0,0,0,.65-6.25,5.2,5.2,0,0,0-5.49-2.6,5.31,5.31,0,0,0-4.18,4.56,5.4,5.4,0,0,0,3,5.6,4.89,4.89,0,0,0,5.72-1.16Z"/><path class="cls-1" d="M359.23,10.09c-2.11.27-2.1.27-3.11-1.52-.29-.52-.43-1.29-1.45-1.12v2.64h-1.75V2.64c1.35,0,2.67-.08,4,0a1.82,1.82,0,0,1,1.71,1.56,2.16,2.16,0,0,1-.83,2.3l-.58.4,2,3.19ZM354.69,6.3a9.43,9.43,0,0,0,2-.78,1.24,1.24,0,0,0,0-1.15,9.29,9.29,0,0,0-2-.68Z"/></g></g></svg>