<svg id="Layer_1" data-name="Layer 1" xmlns="http://www.w3.org/2000/svg" xmlns:xlink="http://www.w3.org/1999/xlink" viewBox="0 0 191.53 46.24"><defs><style>.cls-1{fill:none;}.cls-2{clip-path:url(#clip-path);}.cls-3{fill:url(#linear-gradient);}.cls-4{clip-path:url(#clip-path-2);}.cls-5{fill:url(#linear-gradient-2);}.cls-6{fill:#384048;}</style><clipPath id="clip-path" transform="translate(-47.97 -49.26)"><path class="cls-1" d="M66.33,60a7,7,0,1,0,0,14H81.93a9.15,9.15,0,0,1,0,18.29H51.13L48,95.5h34a12.37,12.37,0,1,0,0-24.74H66.33a3.77,3.77,0,0,1,0-7.54h13.9L83.64,60Z"/></clipPath><linearGradient id="linear-gradient" y1="791.14" x2="2.39" y2="791.14" gradientTransform="matrix(19.35, 0, 0, -19.35, 0, 15339.84)" gradientUnits="userSpaceOnUse"><stop offset="0" stop-color="#0088d6"/><stop offset="0.31" stop-color="#009add"/><stop offset="0.7" stop-color="#00abe4"/><stop offset="1" stop-color="#00b1e6"/></linearGradient><clipPath id="clip-path-2" transform="translate(-47.97 -49.26)"><path class="cls-1" d="M65.72,49.26a17.75,17.75,0,0,0,0,35.51H80.91a1.61,1.61,0,1,0,0-3.22H65.72a14.53,14.53,0,1,1,0-29.06H91l3.32-3.23Z"/></clipPath><linearGradient id="linear-gradient-2" x1="0" y1="791.47" x2="2.39" y2="791.47" gradientTransform="matrix(19.35, 0, 0, -19.35, 0, 15335.36)" xlink:href="#linear-gradient"/></defs><title>simpli5-logo</title><g class="cls-2"><rect class="cls-3" y="10.73" width="46.33" height="35.51"/></g><g class="cls-4"><rect class="cls-5" width="46.33" height="35.51"/></g><path class="cls-6" d="M109.34,71.67l1.87-2.22a8.14,8.14,0,0,0,5.58,2.3c1.92,0,3.14-.88,3.14-2.22v-.05c0-1.26-.71-1.95-4-2.7-3.77-.91-5.89-2-5.89-5.28v-.05c0-3,2.53-5.13,6-5.13a9.8,9.8,0,0,1,6.42,2.22l-1.67,2.35a8,8,0,0,0-4.8-1.82c-1.82,0-2.88.94-2.88,2.1v.05c0,1.36.81,2,4.19,2.78,3.74.91,5.69,2.25,5.69,5.18v.05c0,3.31-2.6,5.28-6.32,5.28a10.89,10.89,0,0,1-7.38-2.83" transform="translate(-47.97 -49.26)"/><rect class="cls-6" x="83.97" y="7.3" width="3.11" height="17.69"/><polygon class="cls-6" points="96.86 7.3 100.17 7.3 105.56 15.66 110.94 7.3 114.25 7.3 114.25 24.99 111.14 24.99 111.14 12.3 105.56 20.64 105.45 20.64 99.92 12.35 99.92 24.99 96.86 24.99 96.86 7.3"/><path class="cls-6" d="M171.83,56.56h7c4.12,0,6.72,2.35,6.72,5.91v.05c0,4-3.18,6-7.07,6h-3.51v5.69h-3.11Zm6.72,9.2c2.35,0,3.82-1.31,3.82-3.16v-.05c0-2.07-1.49-3.16-3.82-3.16h-3.61v6.37Z" transform="translate(-47.97 -49.26)"/><polygon class="cls-6" points="145.81 7.3 148.91 7.3 148.91 22.16 158.21 22.16 158.21 24.99 145.81 24.99 145.81 7.3"/><rect class="cls-6" x="166.69" y="7.3" width="3.11" height="17.69"/><path class="cls-6" d="M226.46,71.84l1.92-2.25a6.75,6.75,0,0,0,4.55,2.12c2.12,0,3.51-1.21,3.51-3.06v-.05c0-1.8-1.52-2.93-3.66-2.93a7.56,7.56,0,0,0-3.26.78l-1.87-1.24.51-8.67h10.56v2.76h-7.88l-.28,4.14a7.52,7.52,0,0,1,2.81-.51c3.44,0,6.14,1.82,6.14,5.56v.05c0,3.61-2.63,6-6.54,6a9.07,9.07,0,0,1-6.49-2.7" transform="translate(-47.97 -49.26)"/><path class="cls-6" d="M111.79,83.35h1.82c1.1,0,1.86.57,1.86,1.53v0c0,1.05-.91,1.6-2,1.6h-1.35v1.87h-.37Zm1.75,2.8c.93,0,1.56-.49,1.56-1.23h0c0-.79-.61-1.21-1.52-1.21h-1.42v2.46Z" transform="translate(-47.97 -49.26)"/><path class="cls-6" d="M117.76,85.87h0a2.52,2.52,0,1,1,5,0h0a2.53,2.53,0,0,1-2.53,2.6,2.5,2.5,0,0,1-2.51-2.58m4.66,0h0a2.17,2.17,0,0,0-2.15-2.26,2.14,2.14,0,0,0-2.13,2.24h0a2.14,2.14,0,1,0,4.27,0" transform="translate(-47.97 -49.26)"/><polygon class="cls-6" points="76.87 34.09 77.28 34.09 78.86 38.55 80.33 34.08 80.61 34.08 82.09 38.55 83.66 34.09 84.05 34.09 82.23 39.14 81.93 39.14 80.46 34.79 78.99 39.14 78.69 39.14 76.87 34.09"/><polygon class="cls-6" points="86.56 34.09 90.13 34.09 90.13 34.44 86.93 34.44 86.93 36.41 89.81 36.41 89.81 36.75 86.93 36.75 86.93 38.76 90.17 38.76 90.17 39.11 86.56 39.11 86.56 34.09"/><path class="cls-6" d="M140.74,83.35h2.11a2,2,0,0,1,1.41.5,1.32,1.32,0,0,1,.38.93h0c0,.84-.62,1.32-1.47,1.43l1.66,2.14h-.47l-1.6-2.08h-1.64v2.08h-.37ZM142.8,86c.84,0,1.46-.42,1.46-1.15h0c0-.68-.53-1.1-1.44-1.1h-1.71V86Z" transform="translate(-47.97 -49.26)"/><polygon class="cls-6" points="99.35 34.09 102.92 34.09 102.92 34.44 99.72 34.44 99.72 36.41 102.6 36.41 102.6 36.75 99.72 36.75 99.72 38.76 102.96 38.76 102.96 39.11 99.35 39.11 99.35 34.09"/><path class="cls-6" d="M153.53,83.35h1.67a2.5,2.5,0,0,1,2.67,2.49h0a2.51,2.51,0,0,1-2.67,2.51h-1.67ZM155.2,88a2.13,2.13,0,0,0,2.28-2.15h0a2.14,2.14,0,0,0-2.28-2.16h-1.3V88Z" transform="translate(-47.97 -49.26)"/><path class="cls-6" d="M164.09,83.35h2.07a1.81,1.81,0,0,1,1.3.45,1.08,1.08,0,0,1,.32.79h0a1.24,1.24,0,0,1-.85,1.19c.6.16,1.13.5,1.13,1.2h0c0,.84-.72,1.37-1.8,1.37h-2.18Zm2,2.32c.75,0,1.29-.37,1.29-1h0c0-.55-.45-.92-1.25-.92h-1.69v2Zm.16,2.36c.86,0,1.41-.39,1.41-1h0c0-.62-.54-1-1.52-1h-1.7v2Z" transform="translate(-47.97 -49.26)"/><polygon class="cls-6" points="124.12 37.12 121.97 34.09 122.43 34.09 124.31 36.79 126.19 34.09 126.64 34.09 124.49 37.11 124.49 39.11 124.12 39.11 124.12 37.12"/><path class="cls-6" d="M180.21,87.64l.26-.27a2.21,2.21,0,0,0,1.51.74,1.27,1.27,0,0,0,1.35-1.26h0a1.24,1.24,0,0,0-1.38-1.19,2.26,2.26,0,0,0-1.13.32l-.29-.19.14-2.43h2.82v.36H181l-.12,1.88a2.36,2.36,0,0,1,1.11-.27,1.58,1.58,0,0,1,1.72,1.51h0A1.62,1.62,0,0,1,182,88.45a2.55,2.55,0,0,1-1.75-.81" transform="translate(-47.97 -49.26)"/><path class="cls-6" d="M189.83,83.35h1.67a2.5,2.5,0,0,1,2.66,2.49h0a2.51,2.51,0,0,1-2.66,2.51h-1.67ZM191.5,88a2.13,2.13,0,0,0,2.28-2.15h0a2.14,2.14,0,0,0-2.28-2.16h-1.3V88Z" transform="translate(-47.97 -49.26)"/><polygon class="cls-6" points="150.03 37.12 147.88 34.09 148.35 34.09 150.23 36.79 152.11 34.09 152.56 34.09 150.41 37.11 150.41 39.11 150.03 39.11 150.03 37.12"/><polygon class="cls-6" points="154.94 34.09 155.29 34.09 158.75 38.45 158.75 34.09 159.11 34.09 159.11 39.11 158.83 39.11 155.29 34.65 155.29 39.11 154.94 39.11 154.94 34.09"/><path class="cls-6" d="M211.88,83.31h.36l2.34,5.05h-.41l-.64-1.4h-3l-.64,1.4h-.39Zm1.49,3.31-1.32-2.9-1.33,2.9Z" transform="translate(-47.97 -49.26)"/><polygon class="cls-6" points="169.07 34.09 169.42 34.09 171.43 37.06 173.45 34.09 173.8 34.09 173.8 39.11 173.42 39.11 173.42 34.75 171.44 37.64 171.41 37.64 169.43 34.75 169.43 39.11 169.07 39.11 169.07 34.09"/><rect class="cls-6" x="176.75" y="34.09" width="0.37" height="5.02"/><path class="cls-6" d="M227.81,85.87h0a2.52,2.52,0,0,1,2.51-2.59,2.63,2.63,0,0,1,1.95.8l-.27.27a2.3,2.3,0,0,0-1.69-.74,2.15,2.15,0,0,0-2.11,2.24h0a2.16,2.16,0,0,0,2.12,2.26,2.3,2.3,0,0,0,1.73-.78l.25.24a2.64,2.64,0,0,1-2,.88,2.49,2.49,0,0,1-2.49-2.58" transform="translate(-47.97 -49.26)"/><path class="cls-6" d="M234.4,87.63l.24-.28a2.43,2.43,0,0,0,1.8.75c.75,0,1.27-.42,1.27-1v0c0-.53-.28-.84-1.42-1.07s-1.69-.65-1.69-1.41h0a1.45,1.45,0,0,1,1.61-1.32,2.51,2.51,0,0,1,1.72.61l-.24.29a2.16,2.16,0,0,0-1.5-.56c-.74,0-1.23.42-1.23.95h0c0,.53.28.85,1.46,1.1s1.65.65,1.65,1.38v0c0,.81-.69,1.37-1.66,1.37a2.85,2.85,0,0,1-2-.8" transform="translate(-47.97 -49.26)"/></svg>