<svg xmlns="http://www.w3.org/2000/svg" viewBox="0 0 581.63 576.17"><defs><style>.cls-1{fill:#08aea2;}.cls-2{fill:#012232;}.cls-3{fill:#fff;}.cls-4{fill:#fafbfc;}</style></defs><title>supponor-logo</title><g id="Layer_2" data-name="Layer 2"><g id="Layer_1-2" data-name="Layer 1"><path class="cls-1" d="M56,0H530l.28,46c-2.5.06-5,.17-7.49.17q-202.46,0-404.91,0A72,72,0,0,0,103,47.57C71.72,54.16,51.16,80,51.15,112.67q0,205.21,0,410.41c0,2.33-.12,4.66-.19,7L0,530V56c1.83-1.17,1.41-3.25,1.8-4.9,6-25.52,21.95-41.48,46.85-48.85C51.11,1.52,53.92,2,56,0Z"/><path class="cls-2" d="M530.28,46c10,1.08,20,.23,29.93.45,5.83.13,11.67.21,17.49-.05,3.19-.14,4.27,1,3.82,4a13.78,13.78,0,0,0,0,2q0,258.94.12,517.89c0,4.82-1.12,5.94-5.94,5.93q-259.44-.21-518.89,0c-4.45,0-5.83-.95-5.74-5.62.28-13.48,0-27-.12-40.47.06-2.33.19-4.66.19-7q0-205.21,0-410.41C51.16,80,71.72,54.16,103,47.57a72,72,0,0,1,14.89-1.42q202.46,0,404.91,0C525.29,46.16,527.78,46.05,530.28,46Z"/><path class="cls-2" d="M246.87,200.24c-1.69.21-2.31-.52-2.3-2.22s.62-2.29,2.29-2.28,2.28.59,2.29,2.28S248.55,200.45,246.87,200.24Z"/><path class="cls-3" d="M476.47,281.16v27.57H451.13V214.37c4.6,0,9.33,0,14.06,0,14.64.11,29.29,0,43.92.43,11.24.33,15.92,5.24,16.19,16.53q.36,15.71,0,31.44c-.29,11.59-5.87,17-17.44,17.2-10,.19-20,.2-29.95.3C477.75,280.28,477.62,280.44,476.47,281.16ZM501,258.53V233.47H476.25v25.06Z"/><path class="cls-3" d="M511.52,495.47l16.18,33.3c-8.11,0-15.34.15-22.55-.15-1.13,0-2.51-1.93-3.22-3.26-3.85-7.2-7.53-14.48-11.25-21.74-4.09-8-5-8.37-14.76-6.31v31.11H450.32v-94c1.69-.09,3.29-.26,4.9-.26q25.5,0,51,0c11.74,0,17.18,5.24,17.46,17,.2,8.49,0,17,.18,25.49C524,485.5,521.07,492.3,511.52,495.47Zm-35.33-42.3v25h24.19v-25Z"/><path class="cls-3" d="M450.59,370.69c0-10-.11-20,0-30,.16-11.19,5.41-16.54,16.65-16.7q20.47-.29,41,0c11.13.14,16.59,5.51,16.69,16.71q.29,30.46,0,60.93c-.11,10.52-6,16.21-16.7,16.34q-20.47.25-41,0c-11-.14-16.36-5.75-16.65-16.85q-.2-7.74-.27-15.48c0-5,0-10,0-15Zm25.26,25.37h24.6v-50h-24.6Z"/><path class="cls-3" d="M269.86,433.78c7.84,0,15.16-.21,22.46.16,1.66.08,3.76,1.84,4.75,3.4,8,12.66,15.84,25.45,23.72,38.2a13.62,13.62,0,0,0,4.06,4.55V434.22H350v94.15c-7.16,0-14.41.15-21.63-.16-1.15,0-2.43-2.05-3.26-3.39-8.92-14.26-17.76-28.57-26.64-42.86-.92-1.49-2-2.9-3.77-5.56V528H269.86Z"/><path class="cls-3" d="M361.3,480.8c0-10-.17-20,0-30,.24-11.61,5.35-16.81,16.91-17q20.48-.35,41,0c11.11.19,16.53,4.93,16.79,16.09.48,21,.43,42-.06,62.92-.24,10.44-6.26,15.56-16.82,15.68q-20.23.23-40.46,0c-11.41-.11-16.82-5.44-17.32-16.76-.23-5.15-.35-10.31-.42-15.47s0-10.32,0-15.49Zm25.53,25.67h24.54V456.1H386.83Z"/><path class="cls-3" d="M348.33,250.57c-7.8-2.28-15.48-4.42-23-6.85-.94-.3-1.73-2.12-2-3.36a30.33,30.33,0,0,1-.08-5.54H303.49c-1.49,9.64-1,10.4,7.86,12.78,8.68,2.33,17.4,4.53,26,7.15,9.68,3,13.06,7.41,13.2,17.47a206.64,206.64,0,0,1-.74,22.43c-.84,8.78-5.63,13.54-14.25,13.76-14.64.37-29.31.33-44,0-7.49-.18-13-4.62-13.65-11.55-.78-8.53-.19-17.18-.19-26.26,7.78,2.3,15.43,4.46,23,6.89,1,.33,2,2,2.26,3.17a41.14,41.14,0,0,1,.42,6.52h20.24c2.58-8.44,1.31-10.94-6.73-13.22-8.8-2.49-17.68-4.77-26.43-7.43-10.23-3.11-13.05-7.1-13.14-17.81-.05-6.32-.15-12.66.07-19,.36-10,5.61-15.53,15.59-15.77,13.31-.33,26.65-.31,40,0,9.92.22,15.32,5.84,15.67,15.73.22,6.15,0,12.32,0,18.48A19.74,19.74,0,0,1,348.33,250.57Z"/><path class="cls-3" d="M361.52,214c7.37,0,14.17,0,21,0,3.55,0,2.84,2.55,2.85,4.58q.05,26.23,0,52.47c0,5.12,0,10.23,0,15.57h27.19V214.2h23.77c.11,1.55.33,3.13.32,4.72-.08,23.32-.12,46.63-.3,70-.12,14.57-5.47,19.72-20.11,19.74-12.16,0-24.32,0-36.47,0-12.36-.06-18.43-6.1-18.46-18.43q-.07-35.47,0-70.94C361.29,217.75,361.42,216.27,361.52,214Z"/><path class="cls-3" d="M361.11,417.21V324.33c2-.17,3.75-.46,5.52-.46,18,0,36,0,54,.2,9.68.12,15.29,5.72,15.44,15.24.17,11,.22,22,0,33s-5.46,16.2-16.38,16.58c-9,.32-18,.12-27,.15h-5.85v28.2Zm25.53-49.75h26.52V343H386.64Z"/><path class="cls-4" d="M253.69,209.29c-3.87,1.66-4.88-1-6.09-3.4-.4-.81-.69-2.07-2-1.83s-1,1.54-1,2.42c.07,2.11-.26,3.57-3,3.31-2.84-.27-1.73-2.36-1.82-3.75-.17-2.48,0-5,0-7.48,0-6.52,0-6.52,6.59-6.51s8.36,2.12,6.84,8.9C252.19,205.61,252.19,205.61,253.69,209.29Zm-6.82-9.06c1.68.21,2.28-.52,2.28-2.21s-.62-2.28-2.29-2.28-2.29.6-2.29,2.28S245.18,200.45,246.87,200.24Z"/><path class="cls-3" d="M260.75,184.84H232.88a2.17,2.17,0,0,0-2.16,2.16v27.87a2.17,2.17,0,0,0,2.16,2.16h27.87a2.17,2.17,0,0,0,2.16-2.16V187A2.17,2.17,0,0,0,260.75,184.84Zm-.84,26.72a2.48,2.48,0,0,1-2.48,2.48H236.19a2.48,2.48,0,0,1-2.48-2.48V190.31a2.48,2.48,0,0,1,2.48-2.48h21.24a2.48,2.48,0,0,1,2.48,2.48Z"/></g></g></svg>