<svg xmlns="http://www.w3.org/2000/svg" viewBox="0 0 393.67 450"><defs><style>.cls-1{fill:#ec2e7a;}.cls-2{fill:#ec2e7b;}.cls-3{fill:#cd2477;}.cls-4{fill:#a9266f;}.cls-5{fill:#6e2564;}.cls-6{fill:#8d266b;}.cls-7{fill:#fdfefe;}</style></defs><title>tajammu-for-it-systems-logo</title><g id="Layer_2" data-name="Layer 2"><g id="Layer_1-2" data-name="Layer 1"><path class="cls-1" d="M294.45,186.49c-.44-6.33,1.62-9.2.51-15.49-1.56-8.78-.06-15.6-3-24-.82-2.36,1.47-.9,0-3-.06-.09-2.93-5.91-3-6,.25,0-5.7-3.49-5.45-3.49h.34l0,0q-5.92-2-12-3.58l-.59-.08-.63-.23q-5.13-1.27-10.38-2.2l-2.5-.39-1.59-.28c-3.44-.68-5.63-1.75-6.29-6s-1.86-8.29-4.77-11.62c-1.25-1.89-2.48-3.79-4.68-4.74h0l-.19-.76c-1.47-.45-2.39-2-4.09-2-.4-.9-1.34-1-2.08-1.27a23,23,0,0,0-14.07-.7c-3.11.79-6.24,1.66-8.75,3.87h0a11,11,0,0,0-3.72,2.85h0c-5.3,4.58-7,10.7-6.82,17.33,0,1.34.09,2.69.14,4v.09l0,.38c.18,4.47.31,8.94-.73,13.35-.61,2.61-1.11,5.3-2.81,7.52a13,13,0,0,1-3.29,5.6A10.92,10.92,0,0,1,191.5,158a2.9,2.9,0,0,0-.47.43,2.11,2.11,0,0,0-.55,1.16l.06.09,0,0a.55.55,0,0,0-.8.16c-3.18,3-7.17,4.38-11.26,5.53h0c-4.46.74-8.86,1.59-13.48.64-2.1-.43-4-1.5-6.21-1.51h0a41,41,0,0,1-11.14-8.5h0a27.75,27.75,0,0,0-3.26-4.45l-.15-.17-.17-.19-.72-.81h0c-1.56-1.73-2.84-3.76-5.14-4.68-1-1.44-2.62-2.08-4.12-2.84h0a22.05,22.05,0,0,0-10.89-3.64,7.88,7.88,0,0,0-2.19-.74c-5.73-.17-11.47-.54-17,1.47a39.15,39.15,0,0,0-23,21.12h0a3.82,3.82,0,0,0-1,2.8h0c-1.37,2-1.14,4.37-1.56,6.6-1.33,7.05,0,13.74,2.56,20.28h0l1,2.68c.4.6.49,1.37,1,1.91.67.84,1.32,1.7,2,2.53,2.11,2.55,4.58,4.79,6.78,7.25l.28.31,0,.05A27.65,27.65,0,0,1,95,209.44c.21.49.39,1,.63,1.47a35.32,35.32,0,0,1,3.62,22.47h0l-.5,2.77h0a17.86,17.86,0,0,0-1.49,4.19h0L95,245h0l-4.3,5.61h0l-5.5,4.7-5.07,2.89h0a44.44,44.44,0,0,1-8.34,2.51h0l-.48.09-.95.18c-3.54.64-7.15-.09-10.64,1.07-5.63,1.89-10.28,5-13.4,10.12a17.57,17.57,0,0,0-4,9.48c-.94,6.38,0,12.47,4,17.81h0c3.33,5.79,8.66,8.68,14.9,10.23a3.52,3.52,0,0,0,1.64.22l5.91.8h0l1.32.89h0a13.31,13.31,0,0,0,1,1.84,2.1,2.1,0,0,0,.53.47h0l.06.3,0,.24a18.78,18.78,0,0,0,.68,2.8c.84,2.27,2.37,16.1,4.16,18.71a10.83,10.83,0,0,0,1,1c16.47,7.21,33.07,13.54,49,15,2.45.16,4.55.8,7,1,.27,0,6.61,1,9,1,83.75-1.22,151.23-79.58,151.95-162.28Q294.52,189.11,294.45,186.49Z"/><path class="cls-2" d="M13.73,184.63A13.74,13.74,0,0,0,0,198.3c0,7.42,6.33,13.89,13.64,13.86a14.06,14.06,0,0,0,13.85-13.65A13.77,13.77,0,0,0,13.73,184.63Z"/><path class="cls-2" d="M81.93,212.29a18,18,0,0,0-19.18-6.79c-6.08,1.66-10.66,5.2-12.75,11.42h0a5.61,5.61,0,0,0-.6,1c-3.38,9.54,2.13,20.48,12,23.84a18.64,18.64,0,0,0,23.38-11.59h0C87.47,225.33,86.07,216.57,81.93,212.29Z"/><path class="cls-2" d="M179.29,117c-5.64-2.53-11.39-2.88-16.9.6h0l-.76.1a10.27,10.27,0,0,0-2.82,1.91c-1.78,2-4,3.69-4.75,6.44-3.09,4.45-3.1,12.44,0,17h0a14.91,14.91,0,0,0,6.57,7.43,16,16,0,0,0,14.07,2.86h0a6.2,6.2,0,0,0,2.73-.45c7.26-2.57,12.69-9.6,13.07-17A19.31,19.31,0,0,0,179.29,117Z"/><path class="cls-2" d="M21.39,126.56a7.3,7.3,0,0,0-6.24,5.4,7,7,0,0,0,3.21,7.56,7.4,7.4,0,0,0,8.31-.31,1.36,1.36,0,0,0,.93-.9c2.6-3.71,1.89-7.13-.93-10.36A8.1,8.1,0,0,0,21.39,126.56Z"/><path class="cls-2" d="M83,113.78c-5.53-4.35-14.73-4.18-19.77,3.91a12.69,12.69,0,0,0-.06,12.61h0A7.2,7.2,0,0,0,65,132.74a20.37,20.37,0,0,0,2,1.76c.58.35,1,1,1.78,1,3.28,2.45,8.64,2.45,12.32,0h0C89.32,131.38,90.4,119.57,83,113.78Z"/><path class="cls-2" d="M221.56,59.56h0c-3.73-4.06-11-4.48-16-.93-6.52,3.2-8.92,15-1.91,20.71h0a13.18,13.18,0,0,0,16.66,1.86C228,76.46,228.68,64.5,221.56,59.56Z"/><path class="cls-2" d="M71.54,15.44a7.6,7.6,0,0,0,8.53-1.72A3.55,3.55,0,0,0,82,10.88h0c1.75-3,.65-5.58-1.17-7.94A7.58,7.58,0,0,0,72.18.47c-3.06,1.14-5.12,3.17-5.29,6.65h0C66.65,11.14,68.26,14,71.54,15.44Z"/><path class="cls-2" d="M153.62,63.27a6.89,6.89,0,0,0-5.73-.23,1.86,1.86,0,0,0,.14.24h-.11a.79.79,0,0,0-.36.06s0-.07,0-.11a.81.81,0,0,0-1,.08c-4.77,3.66-5.23,8.94-1,12.26a7.1,7.1,0,0,0,8.16,1A7.57,7.57,0,0,0,153.62,63.27Z"/><path class="cls-2" d="M167.23,38.9h0c.61.09,1.23.15,1.84.27a7.49,7.49,0,0,0,6.75-12.31,6.91,6.91,0,0,0-7.78-2h0a2,2,0,0,0-1.82.87c-2.17.92-3,2.76-3.32,4.9C162.29,34.45,164.36,36.89,167.23,38.9Z"/><path class="cls-2" d="M51.89,83.15c2.82-3.66,1.35-9.18-1.75-10.53h0A7.27,7.27,0,0,0,41.06,84h0A7.38,7.38,0,0,0,51.89,83.15ZM50,72.79h0l.15-.15Z"/><path class="cls-3" d="M318.12,150.86a161.36,161.36,0,0,0-34.28-16.41C332.28,257.68,207.49,394.2,76.72,335.84a161.19,161.19,0,0,0,15.44,34.74C220.75,409.15,352.17,283.13,318.12,150.86Z"/><path class="cls-4" d="M360.28,189.39a162.93,162.93,0,0,0-42.16-38.53c34.05,132.27-97.36,258.29-226,219.71a162.89,162.89,0,0,0,40.28,45.56C253.91,424.8,369.87,308.7,360.28,189.39Z"/><path class="cls-5" d="M211.71,448.78A162.1,162.1,0,0,0,392.6,269.26C365.33,360.3,278.27,431.09,211.71,448.78Z"/><path class="cls-6" d="M392.6,269.26a161.24,161.24,0,0,0-32.32-79.87C369.87,308.7,253.91,424.8,132.45,416.13a161.26,161.26,0,0,0,79.26,32.65C278.27,431.09,365.33,360.3,392.6,269.26Z"/><path class="cls-7" d="M291.81,216.56c-1.08,1.47-3.27,5.44-5.41,7.55-6,7.18-13.87,11.48-22.75,14.06a56.94,56.94,0,0,1-16,1.92c-8.5,0-17-.2-25.47.95-17.47,2.36-31,10.53-39.29,26.43a56.9,56.9,0,0,0-6.42,19.22c-1.17,9.24-.6,18.36,3,27.12.77,1.88,6.07,13.2,12.65,19.38A39.29,39.29,0,0,0,196.5,337c1.85,1.55,10.48,7.4,13.33,7.84a83.68,83.68,0,0,0,14.47,3.66,48.74,48.74,0,0,0,10.94.18,6,6,0,0,1,.74-.13,12.47,12.47,0,0,0,2.9-.36c4-.8,7.82-1.8,11.17-4.21a4,4,0,0,0,.8-2.86c0-6.86,0-13.71,0-20.57,0-2.41-.27-2.66-2.73-2.66q-17.06,0-34.12,0c-.93,0-1.87,0-2.8,0-3.6-.08-5-1.4-4.79-5a28.41,28.41,0,0,1,2.14-10.68c1.5-2.69,4-11.13,11.35-18.42a19.66,19.66,0,0,1,4.34-3.53,51.61,51.61,0,0,1,16.9-8,40.57,40.57,0,0,1,11.29-1.44c13.17.42,26.33.26,39.49.41,4.25,0,6.12,2,6.13,6.25,0,14.27.14,28.54,0,42.81-.09,7.09-.07,14.18-.12,21.28-.06,7.55-.69,15.09-.51,22.65a9.71,9.71,0,0,1-3.42,7.4c-2.66,2.53-6,4.24-8.68,6.68a93.85,93.85,0,0,1-28.37,13.25,107.37,107.37,0,0,1-22.3,3.6,70.49,70.49,0,0,1-14.62.08c-.69,0-8.26-1.07-8.75-1.59-4.33-1.15-8.7-2.18-13-3.49a77.81,77.81,0,0,1-18.44-8.16c-.93-.9-2.25-1.15-3.26-1.93l-7.88-5.19a18.71,18.71,0,0,1-5.2-4.28,141.79,141.79,0,0,1-15.77-17.65c-.94-1.31-3.57-5.1-4-5.66-2.64-3.13-4.11-6.94-6-10.5a181.34,181.34,0,0,1-5.8-17.59,108.11,108.11,0,0,1-2-41.7,131,131,0,0,1,3.57-14.95,95.45,95.45,0,0,1,13-25.82,120.21,120.21,0,0,1,15.06-17.7c.48-.61,15.44-11.36,15.59-11.63,2.83-2.2,6.25-3.32,9.32-5.07,3-1.33,10.15-4.32,10.68-4.61,4.82-1.4,9.63-2.74,14.58-3.72,10.72-2.14,21.52-1.72,32.32-1.75q23.28-.05,46.56,0c7.19,0,8.77,2,7.18,9A45.52,45.52,0,0,1,291.81,216.56Z"/></g></g></svg>