<?xml version="1.0" encoding="utf-8"?>
<!-- Generator: Adobe Illustrator 21.1.0, SVG Export Plug-In . SVG Version: 6.00 Build 0)  -->
<svg version="1.1" id="Layer_1" xmlns="http://www.w3.org/2000/svg" xmlns:xlink="http://www.w3.org/1999/xlink" x="0px" y="0px"
	 viewBox="0 0 356.6 79" style="enable-background:new 0 0 356.6 79;" xml:space="preserve">
<style type="text/css">
	.st0{fill:#FE6400;}
</style>
<title>unibank-new-logo</title>
<g id="Layer_2">
	<g id="Layer_1-2">
		<path class="st0" d="M252.7,30.2c-0.1-1.4,0.8-2.7,2.2-3c9.1-3.3,18.5-4.9,28.1-3.2c9,1.6,15.8,8.1,16.7,17.8
			c1.1,11.4,0.2,22.9,0.5,34.4c0,1.6-0.7,2.4-2.4,2.3c-3.6,0-7.2-0.1-10.8,0c-2.1,0.1-2.8-0.8-2.8-2.8c0.1-8.9,0-17.9,0-26.8
			c0.1-2-0.2-4-0.6-5.9c-0.6-2.9-3.2-5.1-6.2-5.3c-2.1-0.2-4.1-0.1-6.2,0.1c-2,0.3-2.8,1.2-2.8,3.3c0.1,11.3,0,22.6,0,34
			c0,3.2-0.1,3.4-3.4,3.4s-6.6-0.1-9.9,0.1c-1.9,0.1-2.6-0.7-2.6-2.5C252.6,70,252.7,37.8,252.7,30.2z"/>
		<path class="st0" d="M356.4,76c-0.2-0.6-0.5-1.1-0.9-1.6c-5.7-8.2-11.1-16.4-16.9-24.4c-1.5-2.1-1.1-3.5,0.4-5
			c0.5-0.5,1.1-1.1,1.5-1.7c4.3-5,8.5-10,12.8-15c0.6-0.8,1.6-1.5,1.2-2.8c-0.3-1-1.8-0.7-2.7-0.7c-3.8,0-7.6,0.1-11.5,0
			c-4.5,0-8.5,7.2-10.4,9.4s-3.2,4.7-5.4,6.8c-0.5-0.9-0.7-1.9-0.5-2.9c0-10.3-0.1-20.6,0-31c0-1.9-0.7-2.6-2.5-2.6
			c-3.7,0.1-7.3,0.1-11,0c-2,0-2.7,0.8-2.7,2.7c0,22.9,0,45.9,0,68.8c0,2.1,0.8,2.9,2.8,2.9c3.3,0,6.6,0,9.9,0s3.5-0.3,3.5-3.6
			c0-4,0.1-7.9,0-11.9c0-1.4,0.7-3.3,2.2-3.2c1.8-0.2,9.3,12.4,9.3,12.4c1,1.5,2,3.1,3,4.6c0.5,0.8,1.3,1.3,2.3,1.4H355
			C356.8,78.5,356.8,77.3,356.4,76z"/>
		<path class="st0" d="M57.7,7.3c0-1.8-0.9-2.6-2.7-2.6c-3.5,0-7,0-10.6,0s-3.8,0.2-3.8,3.8c0,13.8,0,27.5,0,41.3
			c0,1.3-0.1,2.6-0.2,3.9c-0.5,9-9.9,12.1-17.1,9.3c-3.4-1.3-5.2-4.1-5.9-7.6c-0.4-2.1-0.5-4.3-0.5-6.4c0-13.8,0-27.5,0-41.3
			c0-2.2-0.8-3-3-3c-3.6,0.1-7.2,0-10.8,0C0.5,4.6,0,5.1,0,7.8c0,7.5,0,15,0,22.5l0,0c0,2.9,0,5.8,0,8.7C0.2,45.7-0.4,52.4,0.8,59
			c1.8,9.5,7,16,16.4,19.1c5.3,1.6,10.8,2.1,16.3,1.4c13.8-1.1,23.1-10.2,23.9-23.8C58.3,39.6,57.6,23.4,57.7,7.3z"/>
		<path class="st0" d="M113.7,41.7c-0.8-9-8.2-16.5-17.1-17.8c-9.2-1.4-18.1,0-26.8,2.8c-2.2,0.5-3.6,2.5-3.3,4.7
			c0.2,7.3,0.1,14.5,0.1,21.8c0,7.4,0,14.8,0,22.2c0,2.7,0.3,3,3.1,3c3.2,0,6.4,0,9.6,0s3.3-0.2,3.3-3.5c0-11.4,0-22.8-0.1-34.2
			c0-2,0.7-2.8,2.5-3c2-0.2,4-0.3,5.9-0.2c3.5,0,6.5,2.7,6.8,6.2c0.2,1.7,0.3,3.5,0.3,5.3c0,8.9,0,17.7,0.1,26.6
			c0,1.4,0,2.8,2.1,2.8c3.9,0,7.8,0,11.7,0c1.1,0.1,2.1-0.6,2.2-1.7c0-0.2,0-0.3,0-0.5C114,64.8,114.7,53.2,113.7,41.7z"/>
		<path class="st0" d="M135.2,24.6c-3.5,0.1-7,0-10.5,0c-2.6,0-3,0.5-3,3.1c0,7.9,0,15.9,0,23.8c0,8,0,15.9,0,23.8
			c0,2.6,0.5,3.1,3.1,3.1c3.1,0,6.3,0,9.4,0c3.6,0,4-0.4,4-4.1c0-15.7,0-31.3,0-47C138,25.5,137.2,24.6,135.2,24.6z"/>
		<path class="st0" d="M129.5,0.4c-4.9,0.3-8.3,3.6-8.3,8.6c0,4.8,3.6,8.1,8.8,8.1c5.2,0,8.2-3.1,8.3-8.2
			C138.4,4.6,135.4,0,129.5,0.4z"/>
		<path class="st0" d="M245,57.8c-0.2-4.8,0.5-11.1-0.5-17.3c-1.2-7.7-5-13.5-12.8-15.8c-10.4-3.1-20.4-1.4-29.9,3.7
			c-1.4,0.8-1.6,1.9-0.9,3.3c1.1,2.2,2.3,4.3,3.4,6.5c1.2,2.3,1.9,2.6,4.4,1.5c4.3-1.9,9-2.7,13.6-2.4c3.1,0.1,5.7,2.2,6.4,5.2
			c0.9,3.1,0.3,3.8-2.9,3.6c-6.2-0.4-12.3-0.4-18.3,1.8c-12,4.3-11.8,19.3-5.5,25.6c3.3,3.2,7.5,5.2,12,5.7c9.5,1.3,19.2,0.6,28.4-2
			c1.7-0.2,2.8-1.8,2.6-3.4C244.9,68.9,245,64.1,245,57.8z M222.8,66.5c-1.8-0.1-3.8,0.3-5.6-0.9s-3.1-2.4-2.8-4.6
			c0.3-2,1.9-3.6,3.9-3.8c3.1-0.5,6.2-0.5,9.3,0.1c0.7,0,1.3,0.6,1.3,1.3c0,0.1,0,0.1,0,0.2c0,0.5,0,1.1,0,1.6
			C228.9,66.5,228.9,66.5,222.8,66.5z"/>
		<path class="st0" d="M192.6,41.3c-1.3-8.7-6.3-14.5-15-16.8c-4.6-1.2-9.2-0.6-13.8,0.4c-2.4,0.5-2.7,0.3-2.7-2.1
			c0-5-0.1-9.9,0-14.9c0-2-0.5-2.9-2.7-2.8c-3.1,0.2-6.2,0.1-9.4,0.3c-2.2,0.2-2.7,0.9-2.7,2.9c0.1,10.7,0,21.4,0,32.1l0,0
			c0,10.6,0.1,21.3,0,31.9c0,2.3,0.6,3.3,2.8,4.1c7.8,2.6,15.7,2.9,23.8,2.7c2.7-0.1,5.3-0.7,7.7-1.9c6-2.9,10-7.5,11.5-14.2
			C193.6,55.8,193.7,48.5,192.6,41.3z M176.7,58.7c-0.3,4.7-4.9,7.3-10.3,6.3c-3.9-0.7-3.9-0.7-3.9-4.8c0-2.8,0-5.7,0-8.5
			c0-3.3,0-6.6,0-9.9c0-2.7,0.7-3.5,3.3-3.8c1.9-0.2,3.8-0.2,5.7,0c2.9,0.4,5.1,2.9,5.1,5.9C176.9,48.9,176.9,53.8,176.7,58.7z"/>
	</g>
</g>
</svg>
