<svg xmlns="http://www.w3.org/2000/svg" viewBox="0 0 221.04 221.02"><defs><style>.cls-1{fill:#fff;}.cls-2{fill:#010101;}.cls-3{fill:#020202;}.cls-4{fill:#ff0137;}.cls-5{fill:#ff4c72;}.cls-6{fill:#ff476e;}.cls-7{fill:#ff7491;}.cls-8{fill:#ec223a;}</style></defs><title>top-healthcare-app-development-companies-mobileappdaily-2021</title><g id="Layer_2" data-name="Layer 2"><g id="Layer_1-2" data-name="Layer 1"><path d="M0,110.39C0,48.89,49.47-.3,111.57,0,173.41.3,222.47,51.85,221,113.23c-1.4,58.64-49.83,108.68-112.26,107.78C48.23,220.13-.28,170.54,0,110.39Z"/><path class="cls-1" d="M110.77,129.41q48.74,0,97.48,0c1.87,0,2.6.06,2.11,2.41-8,39-40,71.07-79.11,78.57-35.72,6.86-66.92-2.53-93-27.86-14.32-13.92-23.31-31-27.61-50.57-.45-2-.27-2.58,2-2.57Q61.69,129.47,110.77,129.41Z"/><path class="cls-1" d="M207.35,78.66H13.78c8.89-31.15,40.8-65.8,87.53-69.84C154.13,4.26,195,39.15,207.35,78.66Z"/><path class="cls-1" d="M111.06,219.68A109.31,109.31,0,0,1,3.38,131.52c-.11-.59-1.31-1.9.34-2,1.25-.09,3.08-1,3.55,1.53a93.63,93.63,0,0,0,8.3,25C30,185.15,52.88,204.65,84.43,212.35c39.36,9.6,73.86-.57,102.39-29.44,14.19-14.36,22.87-31.9,26.93-51.69a2.77,2.77,0,0,1,3.76-1.76c.87.51.27,1.35.15,2a95.93,95.93,0,0,1-5.87,19.83q-23.32,54-80.85,66.5a82.22,82.22,0,0,1-9.39,1.37A76.9,76.9,0,0,1,111.06,219.68Z"/><path class="cls-1" d="M6.06,78.69C19.77,33.24,63.3-1.18,115.75,1.41c53.7,2.65,89.07,41.45,99,77.14-3.7.41-3.62.38-4.84-2.81-14.49-38-41.57-61.49-81.52-68.94C77.72-2.64,27,27.84,10.86,76.59,9.89,79.54,8,78.54,6.06,78.69Z"/><path class="cls-2" d="M117.35,49.29c-2.35-1.68-4.3-3-6.13-4.43a1.54,1.54,0,0,0-2.25,0c-1.8,1.38-3.67,2.67-5.75,4.18a32.34,32.34,0,0,1,1.94-6.81,1.71,1.71,0,0,0-.74-2.35c-1.85-1.27-3.63-2.64-6-4.38,2.85,0,5-.06,7.21,0A1.81,1.81,0,0,0,107.8,34c.59-2.19,1.43-4.3,2.31-6.87.88,2.6,1.7,4.82,2.37,7.07a1.63,1.63,0,0,0,1.89,1.35,33.26,33.26,0,0,1,6.89.4c-1.81,1.32-3.58,2.69-5.44,4a1.65,1.65,0,0,0-.74,2.34C115.91,44.34,116.49,46.54,117.35,49.29Z"/><path class="cls-3" d="M133.71,41.74c-1,.87-2.44,1.55-3,2.66s.86,2.54.77,4.5c-2.32-3.25-4.8-2.46-7.67-.07,1.78-4.1,1.78-4.1-2.15-7.54,3.84.91,5.81-.42,6.18-4.22C128.48,40.52,130.06,42.44,133.71,41.74Z"/><path class="cls-3" d="M92.69,37.12c1.7,4.09,1.7,4.09,6.15,4.44-1.24,1-2.92,1.73-3.26,2.85s.6,2.71.9,4.34c-2.43-2.81-4.82-2.92-7.35-.28.35-1.38,1.23-2.92.89-4.1s-2-1.76-3.15-2.89C90.51,42.25,92.41,40.77,92.69,37.12Z"/><rect class="cls-4" x="4.2" y="90.07" width="137.6" height="26.49"/><path class="cls-4" d="M209.43,103.38q0-6.18,0-12.36c0-.2,0-.39,0-.59s.08-.41.38-.41h3.61c.25,0,.36.1.35.35s0,.39,0,.59q0,12.44,0,24.88c0,1,.12.9-.87.91h-3c-.31,0-.48-.09-.45-.43s0-.39,0-.59Q209.43,109.56,209.43,103.38Z"/><path class="cls-1" d="M166.21,101.85c-.37,2.87-.71,5.73-1.11,8.58-.18,1.25.08,1-1.19,1a.92.92,0,0,1-.61-.1,19.33,19.33,0,0,1,.35-2.62c.58-3.93,1.19-7.85,1.8-11.77,0-.25-.06-.57.38-.61.71-.07,1.14.06,1.29.51a4.72,4.72,0,0,1,.16.82q1,6.59,2,13.18c.09.57.08.6-.47.59-1.32,0-1.13.3-1.33-1.18-.37-2.71-.7-5.43-1.05-8.15A.3.3,0,0,0,166.21,101.85Z"/><path class="cls-1" d="M201,101.28c.23-1.21.46-2.41.67-3.63.24-1.37.23-1.38,1.72-1.2a28.54,28.54,0,0,1-.58,3c-.34,1.7-.72,3.39-1.08,5.08a6.26,6.26,0,0,0-.13,1.33q0,2.48,0,5c0,.63,0,.63-.57.64-.8,0-1-.08-1-.66,0-1,0-2,0-2.94a20.29,20.29,0,0,0-.62-5.65c-.44-1.91-.81-3.83-1.21-5.73.07,0,.11-.09.16-.1,1.38-.09,1.39-.08,1.62,1.25s.47,2.64.71,4a.38.38,0,0,1,.06.45C200.87,101.88,200.81,101.53,201,101.28Z"/><path class="cls-1" d="M192.56,109.93c-.06.2-.07.28-.11.36-.48,1.17-.52,1.19-1.8,1.19h-2.44c-.67,0-.68,0-.68-.7q0-5.21,0-10.42c0-1.12,0-2.24,0-3.36,0-.61,0-.61.58-.62.91,0,1,.07,1,1q0,5.71,0,11.43c0,.17,0,.34,0,.5,0,.6,0,.61.59.62Z"/><path class="cls-1" d="M176.89,103.83c0-2.27,0-4.54,0-6.81,0-.26-.19-.64.37-.65.81,0,1.1.1,1.16.62a3.38,3.38,0,0,1,0,.42q0,6.64,0,13.29c0,.14,0,.28,0,.42s-.1.37-.35.36h-.25c-.91,0-.94,0-.94-.92Q176.89,107.2,176.89,103.83Z"/><path class="cls-1" d="M13.62,104.49l0,6.13c0,.2,0,.39,0,.59a.28.28,0,0,1-.32.3h-.08c-1.1.11-1.12.09-1.12-1q0-6.59,0-13.19c0-.22,0-.45,0-.67a.23.23,0,0,1,.18-.23,1.07,1.07,0,0,1,1.51.84c.29,1.4.57,2.79.87,4.19.21,1,.44,2,.66,3,.13.15,0,.37.14.52h0c.1,0,.1.12.1.21a.42.42,0,0,1,.07-.24l1.53-7.65c.14-.72.27-.86.77-.92.89-.1.94-.06.94.84q0,6.68,0,13.35c0,.2,0,.39,0,.59s0,.3-.2.31a6.69,6.69,0,0,1-1.09,0c-.32,0-.23-.34-.23-.54,0-1.76,0-3.53,0-5.29,0-.34,0-.67,0-1-.11-.14-.05-.3-.07-.46,0,.15,0,.32-.07.46-.28,1.19-.56,2.39-.85,3.58-.06.25,0,.6-.39.64a1.11,1.11,0,0,1-1-.3,2.23,2.23,0,0,1-.46-1.06l-.71-3a.46.46,0,0,1,0-.3A.59.59,0,0,1,13.62,104.49Z"/><path class="cls-1" d="M105.54,111.38a1,1,0,0,1-.24.06c-1.64,0-1.34.25-1.54-1.31-.35-2.64-.69-5.28-1-7.91,0-.13,0-.29-.24-.34l-.56,4.29c-.21,1.58-.43,3.16-.62,4.75,0,.37-.15.55-.56.54-1.36,0-1.26.16-1-1.19.69-4.4,1.34-8.8,2-13.2.05-.34,0-.73.57-.72.78,0,1.06.11,1.17.67.19,1,.33,2,.48,3q.83,5.4,1.65,10.79A.93.93,0,0,1,105.54,111.38Z"/><path class="cls-1" d="M79.06,102.79c0,.34-.14.51-.2.72a1.06,1.06,0,0,1-1.18.83c-.81,0-.84,0-.84.87,0,1.37,0,2.74,0,4.12,0,.44.14.59.57.57.84,0,1.68,0,2.55,0a2.4,2.4,0,0,1-.37,1.11.71.71,0,0,1-.68.42c-1.09,0-2.18,0-3.28,0-.25,0-.34-.14-.34-.37s0-.34,0-.5q0-6.59,0-13.19c0-.17,0-.34,0-.5a.46.46,0,0,1,.52-.52H79.7a3.34,3.34,0,0,1-.45,1.14.79.79,0,0,1-.78.4H77.38c-.34,0-.53.13-.53.49,0,1.34,0,2.69,0,4,0,.32.17.36.43.36Z"/><path class="cls-1" d="M68.29,109.9a2.75,2.75,0,0,1-.39,1.11.79.79,0,0,1-.76.43H63.79c-.33,0-.45-.14-.43-.46,0-.14,0-.28,0-.42q0-6.67,0-13.35c0-.89.21-1,1.08-.85a.5.5,0,0,1,.46.5c0,.22,0,.45,0,.67q0,5.62,0,11.25a4.83,4.83,0,0,1,0,.59c-.05.43.17.52.54.51C66.37,109.89,67.29,109.9,68.29,109.9Z"/><path class="cls-1" d="M54.14,104.1c0,2.24,0,4.48,0,6.72,0,.64,0,.64-.66.64s-.88,0-.88-.64c0-1.82,0-3.64,0-5.46q0-4.2,0-8.4c0-.25-.12-.57.35-.6.72,0,1.09.08,1.17.52a3.71,3.71,0,0,1,0,.67Q54.14,100.82,54.14,104.1Z"/><path class="cls-5" d="M17.15,104.65a.4.4,0,0,1,.08-.38.34.34,0,0,1,.06.38Z"/><path class="cls-6" d="M15.43,105a.5.5,0,0,1-.14-.52A.47.47,0,0,1,15.43,105Z"/><path class="cls-7" d="M13.62,104.49c0-.1,0-.26.06-.26s.09.16.06.26h-.12Z"/><path class="cls-6" d="M15.6,105c0,.11,0,.28-.06.29s-.13-.14-.11-.26Z"/><path class="cls-1" d="M156.2,98.52a1.91,1.91,0,0,0-2.11-2.14H151.9c-.63,0-.64,0-.64.65q0,3.44,0,6.88,0,1.38,0,2.77c0,1.4,0,2.8,0,4.2,0,.59,0,.59.61.6H154a2,2,0,0,0,2.22-2.21c0-2.13,0-4.25,0-6.38C156.2,101.43,156.21,100,156.2,98.52Zm-1.55,10.65a.74.74,0,0,1-.76.74l-.67,0c-.29,0-.4-.11-.39-.39s0-.84,0-1.26q0-2.22,0-4.45c0-1.79,0-3.58,0-5.37,0-.44.13-.56.56-.56,1,0,1.27.2,1.28,1.28q0,4.74,0,9.48A4.09,4.09,0,0,1,154.65,109.17Z"/><path class="cls-1" d="M43.91,105.42a1.58,1.58,0,0,0-.74-1.51,1.43,1.43,0,0,0,.74-1.39c0-1.4,0-2.8,0-4.2A1.83,1.83,0,0,0,42,96.37c-.7,0-1.4,0-2.1,0s-.67,0-.67.71q0,4.29,0,8.57c0,1.71,0,3.42,0,5.13,0,.66,0,.67.62.68s1.4,0,2.1,0a1.87,1.87,0,0,0,2-2.08C43.91,108.06,43.89,106.74,43.91,105.42ZM42.36,109a1,1,0,0,1-1.48.9c-.2-.1-.16-.27-.16-.43,0-.73,0-1.46,0-2.18s0-1.46,0-2.18c0-.34.13-.42.44-.44.94,0,1.21.2,1.22,1.14S42.37,107.9,42.36,109Zm0-6.75a1,1,0,0,1-1.44,1c-.26-.1-.19-.3-.21-.49,0,0,0-.06,0-.08q0-1,0-2.09c0-.73,0-1.45,0-2.18,0-.33.11-.43.43-.44.94,0,1.22.2,1.22,1.13S42.37,101.16,42.36,102.22Z"/><path class="cls-1" d="M31.1,98.17a1.86,1.86,0,0,0-2-2c-.42,0-.84,0-1.26,0a1.72,1.72,0,0,0-1.14.46,2.12,2.12,0,0,0-.68,1.73c0,2.52,0,5,0,7.55,0,1.23,0,2.46,0,3.69a1.9,1.9,0,0,0,1.81,1.94,8.16,8.16,0,0,0,1.34,0,1.88,1.88,0,0,0,1.87-2c0-1.87,0-3.75,0-5.62S31.12,100.1,31.1,98.17Zm-1.56,11.2a.85.85,0,0,1-.94.86.84.84,0,0,1-.94-.93c0-1.79,0-3.58,0-5.37h0c0-1.76,0-3.52,0-5.28,0-.72.29-1,.89-1.08a.88.88,0,0,1,1,.73,4,4,0,0,1,0,.75q0,4.86,0,9.73A4.75,4.75,0,0,1,29.54,109.38Z"/><path class="cls-1" d="M117.68,98.35a1.9,1.9,0,0,0-2-2c-.7,0-1.4,0-2.1,0s-.59,0-.6.61q0,3.4,0,6.8c0,2.32,0,4.65,0,7,0,.61.08.66.87.65.64,0,.65,0,.65-.64,0-1.76,0-3.53,0-5.29,0-.89-.07-.84.8-.83a2.24,2.24,0,0,0,1.36-.32,2.35,2.35,0,0,0,1-2Q117.72,100.33,117.68,98.35Zm-1.49,3.92a1.05,1.05,0,0,1-1.44.92c-.26-.1-.2-.31-.2-.49,0-.95,0-1.9,0-2.84,0-.53,0-1.06,0-1.59,0-.33.13-.44.44-.45.83,0,1.19.28,1.21,1.1,0,.53,0,1.06,0,1.59h0C116.19,101.1,116.21,101.68,116.19,102.27Z"/><path class="cls-1" d="M130.63,98.32a1.9,1.9,0,0,0-2-1.93c-.67,0-1.34,0-2,0s-.65,0-.65.64q0,3.4,0,6.8,0,1,0,1.93c0,1.62,0,3.25,0,4.87,0,.22-.09.49.11.64a1.52,1.52,0,0,0,1.21.11c.36-.05.2-.42.2-.64,0-1.79,0-3.58,0-5.38,0-.71,0-.71.74-.72a2.13,2.13,0,0,0,2.38-2.3C130.66,101,130.66,99.67,130.63,98.32Zm-2.6,4.9c-.38,0-.56-.1-.54-.52,0-.75,0-1.51,0-2.26s0-1.45,0-2.18c0-.33.13-.44.44-.45.83,0,1.2.28,1.21,1.11q0,1.59,0,3.18C129.13,102.91,128.81,103.21,128,103.22Z"/><path class="cls-8" d="M91.42,185.05a4.62,4.62,0,0,1,1.28.17,3.39,3.39,0,0,1,1.84,1.28,3.31,3.31,0,0,1,.5,1,4.2,4.2,0,0,1,.17,1.2,4.47,4.47,0,0,1-.16,1.2,4.83,4.83,0,0,1-.49,1.15,9.16,9.16,0,0,1-.75,1.09q-.41.52-1,1.16l-2.73,2.89h5.09v1.33h-7v-1.26l3.73-4a8.34,8.34,0,0,0,1.37-1.82,3.57,3.57,0,0,0,.41-1.64,2.53,2.53,0,0,0-.6-1.78,2.2,2.2,0,0,0-1.71-.66,4,4,0,0,0-.75.07,5.19,5.19,0,0,0-.68.17c-.2.06-.4.14-.61.24l-.48.24-.35.21-.19.11-.52-1.25.16-.1.31-.18.42-.21a5.05,5.05,0,0,1,.56-.24l.64-.2a5.62,5.62,0,0,1,.76-.15A6.14,6.14,0,0,1,91.42,185.05Z"/><path class="cls-8" d="M103.73,197.72a3.46,3.46,0,0,1-2.29-.79,4.72,4.72,0,0,1-1.41-2.21,10.73,10.73,0,0,1-.47-3.35,8.56,8.56,0,0,1,1.07-4.67,3.48,3.48,0,0,1,3.12-1.65,3.38,3.38,0,0,1,3.06,1.66,10.93,10.93,0,0,1,0,9.31A3.37,3.37,0,0,1,103.73,197.72Zm0-1.36q2.41,0,2.41-5a13.53,13.53,0,0,0-.13-2,6.77,6.77,0,0,0-.41-1.56,2.48,2.48,0,0,0-.75-1.05,1.77,1.77,0,0,0-1.12-.37,1.9,1.9,0,0,0-1.17.37,2.53,2.53,0,0,0-.79,1,6.51,6.51,0,0,0-.44,1.56,12.41,12.41,0,0,0-.14,2,11.88,11.88,0,0,0,.25,2.62,3.79,3.79,0,0,0,.83,1.73A1.9,1.9,0,0,0,103.76,196.36Z"/><path class="cls-8" d="M115.32,185.05a4.62,4.62,0,0,1,1.28.17,3.39,3.39,0,0,1,1.84,1.28,3.31,3.31,0,0,1,.5,1,4.2,4.2,0,0,1,.17,1.2,4.47,4.47,0,0,1-.16,1.2,4.83,4.83,0,0,1-.49,1.15,9.16,9.16,0,0,1-.75,1.09q-.41.52-1,1.16L114,196.2h5.09v1.33h-7v-1.26l3.73-4a8.34,8.34,0,0,0,1.37-1.82,3.57,3.57,0,0,0,.41-1.64,2.53,2.53,0,0,0-.6-1.78,2.2,2.2,0,0,0-1.71-.66,4,4,0,0,0-.75.07,5.19,5.19,0,0,0-.68.17c-.2.06-.4.14-.61.24l-.48.24-.35.21-.19.11-.52-1.25.16-.1.31-.18.42-.21a5.05,5.05,0,0,1,.56-.24l.64-.2a5.62,5.62,0,0,1,.76-.15A6.14,6.14,0,0,1,115.32,185.05Z"/><path class="cls-8" d="M124.25,197.53v-1.26h2.37V187a19.7,19.7,0,0,1-2.5,1.08v-1.46a15.16,15.16,0,0,0,1.44-.61q.82-.39,1.41-.75h1.26v11h2.22v1.26Z"/><path d="M58.25,147.75v-7.62H55.52v-.95h6.61v.95H59.38v7.62Z"/><path d="M67.3,147.88a4,4,0,0,1-3.06-1.2,4.54,4.54,0,0,1-1.11-3.22,5.16,5.16,0,0,1,.49-2.31,3.64,3.64,0,0,1,1.44-1.56,4.35,4.35,0,0,1,2.25-.56,3.89,3.89,0,0,1,3,1.22,5.2,5.2,0,0,1,0,6.43A3.93,3.93,0,0,1,67.3,147.88Zm0-.95a2.64,2.64,0,0,0,2.18-.93,4.68,4.68,0,0,0,0-5.08,2.6,2.6,0,0,0-2.17-1,2.67,2.67,0,0,0-2.19,1,4.54,4.54,0,0,0,0,5.07A2.68,2.68,0,0,0,67.29,146.93Z"/><path d="M73.55,147.75v-8.57H76a10.2,10.2,0,0,1,1.13.05,4.17,4.17,0,0,1,.92.21,2,2,0,0,1,.71.41,1.79,1.79,0,0,1,.44.68,2.8,2.8,0,0,1,.16,1,2.63,2.63,0,0,1-.21,1.11,1.67,1.67,0,0,1-.63.72,3,3,0,0,1-1,.38,6.24,6.24,0,0,1-1.31.12H74.68v3.88Zm1.12-4.83h1.56a2.9,2.9,0,0,0,1.51-.31,1.17,1.17,0,0,0,.49-1.08,2,2,0,0,0-.06-.51,1,1,0,0,0-.19-.38,1.13,1.13,0,0,0-.29-.26,1.35,1.35,0,0,0-.41-.16,3.79,3.79,0,0,0-.51-.08l-.62,0H74.68Z"/><path d="M85.08,147.75v-8.57h1.13v3.7h4.55v-3.7h1.12v8.57H90.76v-3.92H86.21v3.92Z"/><path d="M94.55,147.75v-8.57h5.13v.95h-4v2.69h3.78v1H95.68v3h4.18v.95Z"/><path d="M100.93,147.75l3.32-8.57h1.2l3.34,8.57h-1.23l-.88-2.29H103l-.87,2.29Zm2.4-3.21h3q-.75-2.11-1.51-4.18Z"/><path d="M110.47,147.75v-8.57h1.12v7.62h4v.95Z"/><path d="M118.91,147.75v-7.62h-2.74v-.95h6.61v.95H120v7.62Z"/><path d="M124.34,147.75v-8.57h1.13v3.7H130v-3.7h1.12v8.57H130v-3.92h-4.55v3.92Z"/><path d="M137.48,147.88a4.54,4.54,0,0,1-1.61-.29,4.11,4.11,0,0,1-1.34-.82,3.73,3.73,0,0,1-.92-1.37,4.9,4.9,0,0,1-.34-1.87,5.21,5.21,0,0,1,.32-1.85,4.14,4.14,0,0,1,.88-1.43,4,4,0,0,1,1.33-.9,4.2,4.2,0,0,1,1.65-.32,4.11,4.11,0,0,1,2.7.88l-.45.76a3.55,3.55,0,0,0-2.17-.7,2.88,2.88,0,0,0-1.62.47,3,3,0,0,0-1.08,1.27,4.24,4.24,0,0,0-.37,1.81,3.49,3.49,0,0,0,.86,2.48,2.91,2.91,0,0,0,2.23.92,4,4,0,0,0,2.42-.85l.38.89A4.71,4.71,0,0,1,137.48,147.88Z"/><path d="M141.34,147.75l3.32-8.57h1.2l3.34,8.57H148l-.88-2.29h-3.67l-.87,2.29Zm2.4-3.21h3q-.75-2.11-1.51-4.18Z"/><path d="M150.88,147.75v-8.57h2.74a7,7,0,0,1,.95.06,3.35,3.35,0,0,1,.8.21,1.89,1.89,0,0,1,.64.4,1.79,1.79,0,0,1,.4.66,2.76,2.76,0,0,1,.15,1,2.15,2.15,0,0,1-.41,1.35,2,2,0,0,1-1.25.72,1.47,1.47,0,0,1,.76.53,5.08,5.08,0,0,1,.57,1.1l1,2.59H156l-.94-2.52a4.08,4.08,0,0,0-.37-.79,1,1,0,0,0-.44-.37,1.88,1.88,0,0,0-.75-.12H152v3.81ZM152,143h1.59a2.24,2.24,0,0,0,1.32-.34,1.3,1.3,0,0,0,.47-1.13,2.08,2.08,0,0,0-.07-.56,1.14,1.14,0,0,0-.19-.4.93.93,0,0,0-.34-.26,1.76,1.76,0,0,0-.47-.14,4,4,0,0,0-.61,0H152Z"/><path d="M159.2,147.75v-8.57h5.13v.95h-4v2.69h3.78v1h-3.78v3h4.18v.95Z"/><path d="M50.46,162.34l3.32-8.57H55l3.34,8.57H57.1l-.88-2.29H52.55l-.87,2.29Zm2.4-3.21h3Q55.13,157,54.37,155Z"/><path d="M60,162.34v-8.57h2.47a10.2,10.2,0,0,1,1.13.05,4.17,4.17,0,0,1,.92.21,2,2,0,0,1,.71.41,1.79,1.79,0,0,1,.44.68,2.8,2.8,0,0,1,.16,1,2.63,2.63,0,0,1-.21,1.11A1.67,1.67,0,0,1,65,158a3,3,0,0,1-1,.38,6.24,6.24,0,0,1-1.31.12H61.12v3.88Zm1.12-4.83h1.56a2.9,2.9,0,0,0,1.51-.31,1.17,1.17,0,0,0,.49-1.08,2,2,0,0,0-.06-.51,1,1,0,0,0-.19-.38,1.13,1.13,0,0,0-.29-.26,1.35,1.35,0,0,0-.41-.16,3.79,3.79,0,0,0-.51-.08l-.62,0H61.12Z"/><path d="M67.72,162.34v-8.57h2.47a10.2,10.2,0,0,1,1.13.05,4.17,4.17,0,0,1,.92.21,2,2,0,0,1,.71.41,1.79,1.79,0,0,1,.44.68,2.8,2.8,0,0,1,.16,1,2.63,2.63,0,0,1-.21,1.11,1.67,1.67,0,0,1-.63.72,3,3,0,0,1-1,.38,6.24,6.24,0,0,1-1.31.12H68.84v3.88Zm1.12-4.83H70.4a2.9,2.9,0,0,0,1.51-.31,1.17,1.17,0,0,0,.49-1.08,2,2,0,0,0-.06-.51,1,1,0,0,0-.19-.38,1.13,1.13,0,0,0-.29-.26,1.35,1.35,0,0,0-.41-.16,3.79,3.79,0,0,0-.51-.08l-.62,0H68.84Z"/><path d="M79.24,162.34v-8.57h2.11a5.94,5.94,0,0,1,3.8,1.05,3.91,3.91,0,0,1,1.31,3.24,4.06,4.06,0,0,1-1.22,3.16,5,5,0,0,1-3.51,1.11Zm1.12-.95h1.42a3.55,3.55,0,0,0,2.6-.87,3.3,3.3,0,0,0,.88-2.46,3.18,3.18,0,0,0-.94-2.53,4.29,4.29,0,0,0-2.87-.82H80.36Z"/><path d="M88.6,162.34v-8.57h5.13v.95h-4v2.69h3.78v1H89.72v3H93.9v.95Z"/><path d="M98.19,162.34,95,153.78h1.25l1.08,3q1,2.75,1.49,4.18l1.48-4.16,1.1-3.07h1.18l-3.19,8.57Z"/><path d="M104.22,162.34v-8.57h5.13v.95h-4v2.69h3.78v1h-3.78v3h4.18v.95Z"/><path d="M111.6,162.34v-8.57h1.12v7.62h4v.95Z"/><path d="M122,162.47a4,4,0,0,1-3.06-1.2,4.54,4.54,0,0,1-1.11-3.22,5.16,5.16,0,0,1,.49-2.31,3.64,3.64,0,0,1,1.44-1.56,4.35,4.35,0,0,1,2.25-.56,3.89,3.89,0,0,1,3,1.22,5.2,5.2,0,0,1,0,6.43A3.93,3.93,0,0,1,122,162.47Zm0-.95a2.64,2.64,0,0,0,2.18-.93,4.68,4.68,0,0,0,0-5.08,2.6,2.6,0,0,0-2.17-1,2.67,2.67,0,0,0-2.19,1,4.54,4.54,0,0,0,0,5.07A2.68,2.68,0,0,0,122,161.53Z"/><path d="M128.3,162.34v-8.57h2.47a10.2,10.2,0,0,1,1.13.05,4.17,4.17,0,0,1,.92.21,2,2,0,0,1,.71.41,1.79,1.79,0,0,1,.44.68,2.8,2.8,0,0,1,.16,1,2.63,2.63,0,0,1-.21,1.11,1.67,1.67,0,0,1-.63.72,3,3,0,0,1-1,.38,6.24,6.24,0,0,1-1.31.12h-1.58v3.88Zm1.12-4.83H131a2.9,2.9,0,0,0,1.51-.31,1.17,1.17,0,0,0,.49-1.08,2,2,0,0,0-.06-.51,1,1,0,0,0-.19-.38,1.13,1.13,0,0,0-.29-.26,1.35,1.35,0,0,0-.41-.16,3.79,3.79,0,0,0-.51-.08l-.62,0h-1.47Z"/><path d="M136,162.34v-8.57h1.37l1.32,3q1.18,2.68,1.78,4.09.61-1.42,1.79-4.1l1.34-3H145v8.57h-1.07v-6.74q-.58,1.33-1.68,3.79l-1.32,2.95h-.81l-2.54-5.73-.44-1.06v6.79Z"/><path d="M147.63,162.34v-8.57h5.13v.95h-4v2.69h3.78v1h-3.78v3h4.18v.95Z"/><path d="M155,162.34v-8.57h1.19l4.13,6,.63,1v-7h1.07v8.57h-1.2l-4-5.8-.75-1.18v7Z"/><path d="M166.33,162.34v-7.62H163.6v-.95h6.61v.95h-2.75v7.62Z"/><path d="M78,177.06a4.54,4.54,0,0,1-1.61-.29A4.11,4.11,0,0,1,75,176a3.73,3.73,0,0,1-.92-1.37,4.9,4.9,0,0,1-.34-1.87,5.21,5.21,0,0,1,.32-1.85,4.14,4.14,0,0,1,.88-1.43,4,4,0,0,1,1.33-.9,4.2,4.2,0,0,1,1.65-.32,4.11,4.11,0,0,1,2.7.88l-.45.76a3.55,3.55,0,0,0-2.17-.7,2.88,2.88,0,0,0-1.62.47,3,3,0,0,0-1.08,1.27,4.24,4.24,0,0,0-.37,1.81,3.49,3.49,0,0,0,.86,2.48,2.91,2.91,0,0,0,2.23.92,4,4,0,0,0,2.42-.85l.38.89A4.71,4.71,0,0,1,78,177.06Z"/><path d="M86.44,177.06a4,4,0,0,1-3.06-1.2,4.54,4.54,0,0,1-1.11-3.22,5.16,5.16,0,0,1,.49-2.31,3.64,3.64,0,0,1,1.44-1.56,4.35,4.35,0,0,1,2.25-.56,3.89,3.89,0,0,1,3,1.22,5.2,5.2,0,0,1,0,6.43A3.93,3.93,0,0,1,86.44,177.06Zm0-.95a2.64,2.64,0,0,0,2.18-.93,4.68,4.68,0,0,0,0-5.08,2.6,2.6,0,0,0-2.17-1,2.67,2.67,0,0,0-2.19,1,4.54,4.54,0,0,0,0,5.07A2.68,2.68,0,0,0,86.43,176.12Z"/><path d="M92.69,176.93v-8.57h1.37l1.32,3q1.18,2.68,1.78,4.09.61-1.42,1.79-4.1l1.34-3h1.34v8.57h-1.07V170.2q-.58,1.33-1.68,3.79l-1.32,2.95h-.81l-2.54-5.73-.44-1.06v6.79Z"/><path d="M104.31,176.93v-8.57h2.47a10.2,10.2,0,0,1,1.13.05,4.17,4.17,0,0,1,.92.21,2,2,0,0,1,.71.41,1.79,1.79,0,0,1,.44.68,2.8,2.8,0,0,1,.16,1,2.63,2.63,0,0,1-.21,1.11,1.67,1.67,0,0,1-.63.72,3,3,0,0,1-1,.38,6.24,6.24,0,0,1-1.31.12h-1.58v3.88Zm1.12-4.83H107a2.9,2.9,0,0,0,1.51-.31,1.17,1.17,0,0,0,.49-1.08,2,2,0,0,0-.06-.51,1,1,0,0,0-.19-.38,1.13,1.13,0,0,0-.29-.26,1.35,1.35,0,0,0-.41-.16,3.79,3.79,0,0,0-.51-.08l-.62,0h-1.47Z"/><path d="M111,176.93l3.32-8.57h1.2l3.34,8.57h-1.23l-.88-2.29h-3.67l-.87,2.29Zm2.4-3.21h3q-.75-2.11-1.51-4.18Z"/><path d="M120.56,176.93v-8.57h1.19l4.13,6,.64,1v-7h1.07v8.57h-1.2l-4-5.8-.75-1.18v7Z"/><path d="M130.36,176.93v-8.57h1.12v8.57Z"/><path d="M134.11,176.93v-8.57h5.13v.95h-4V172H139v1h-3.78v3h4.18v.95Z"/><path d="M143.84,176.12a2.91,2.91,0,0,0,.64-.06,1.78,1.78,0,0,0,.5-.19,1.2,1.2,0,0,0,.57-.71,2,2,0,0,0,0-1,1,1,0,0,0-.25-.4,1.72,1.72,0,0,0-.5-.34,6.41,6.41,0,0,0-.83-.31l-.26-.07-.27-.08a4.28,4.28,0,0,1-1.79-.89,2.35,2.35,0,0,1-.19-2.8,2.23,2.23,0,0,1,1-.77,3.94,3.94,0,0,1,1.46-.25,3.61,3.61,0,0,1,2.64.89l-.56.76a2.44,2.44,0,0,0-.81-.5,3,3,0,0,0-1.14-.21,2.31,2.31,0,0,0-1.3.32,1.07,1.07,0,0,0-.49,1,1.62,1.62,0,0,0,.11.67,1,1,0,0,0,.42.43,4.5,4.5,0,0,0,.92.38l.22.06.28.08a7.75,7.75,0,0,1,1.24.46,2.68,2.68,0,0,1,.78.56,1.79,1.79,0,0,1,.41.69,3.06,3.06,0,0,1,.12.91,2.37,2.37,0,0,1-.23,1.06,2,2,0,0,1-.63.75,2.91,2.91,0,0,1-.92.44,4.14,4.14,0,0,1-1.13.15,4.43,4.43,0,0,1-1.72-.32,3.6,3.6,0,0,1-1.1-.65l.5-.81a4.38,4.38,0,0,0,1,.56A3.19,3.19,0,0,0,143.84,176.12Z"/><path d="M79.1,64.47h-.37a2.54,2.54,0,0,0-.43-.83,1.07,1.07,0,0,0-.63-.49l-.36,0H75.66v2.81h.81a1.68,1.68,0,0,0,.57-.08.88.88,0,0,0,.35-.23,1,1,0,0,0,.18-.34,2,2,0,0,0,.11-.49H78v2.75h-.37a2.16,2.16,0,0,0-.1-.49,1.26,1.26,0,0,0-.19-.4.74.74,0,0,0-.37-.25,1.92,1.92,0,0,0-.54-.07h-.81v2.41a.64.64,0,0,0,.06.29.47.47,0,0,0,.23.21,1.75,1.75,0,0,0,.32.08l.38.05v.35h-3v-.35l.39,0a1.2,1.2,0,0,0,.32-.06.42.42,0,0,0,.21-.19.64.64,0,0,0,.07-.3v-5a.72.72,0,0,0-.05-.29.42.42,0,0,0-.23-.2,1.68,1.68,0,0,0-.36-.11l-.36-.06v-.35H79.1Z"/><path d="M85.79,67.66l-.13,2.06H79.85v-.35l.39,0a1.33,1.33,0,0,0,.32-.07.45.45,0,0,0,.22-.19.65.65,0,0,0,.06-.3v-5a.72.72,0,0,0-.05-.29.42.42,0,0,0-.23-.2,1.68,1.68,0,0,0-.36-.11l-.36-.06v-.35h5.41v1.69h-.37a2.26,2.26,0,0,0-.43-.8,1.05,1.05,0,0,0-.62-.46l-.36,0H81.9v2.78h.79a1.57,1.57,0,0,0,.55-.07.76.76,0,0,0,.31-.24,1.27,1.27,0,0,0,.19-.38,2.42,2.42,0,0,0,.1-.45h.37v2.74h-.37a2.2,2.2,0,0,0-.11-.5,1.28,1.28,0,0,0-.18-.38.71.71,0,0,0-.35-.25,1.84,1.84,0,0,0-.52-.06H81.9v2.1a2.22,2.22,0,0,0,0,.5.46.46,0,0,0,.17.28.74.74,0,0,0,.35.12,5.56,5.56,0,0,0,.63,0h.43l.45,0a2.63,2.63,0,0,0,.39-.07.59.59,0,0,0,.28-.14,3.16,3.16,0,0,0,.48-.72,4.84,4.84,0,0,0,.32-.71Z"/><path d="M93.43,69.72H90.52v-.35a3,3,0,0,0,.64-.1c.17,0,.25-.11.25-.18a.76.76,0,0,0,0-.11.52.52,0,0,0,0-.11l-.58-1.57H88.34q-.14.34-.22.6l-.16.47a3.37,3.37,0,0,0-.09.35,1.23,1.23,0,0,0,0,.22q0,.2.31.31a2.51,2.51,0,0,0,.7.13v.35H86.22v-.35l.32-.06a1,1,0,0,0,.32-.13,1.24,1.24,0,0,0,.31-.28,1.81,1.81,0,0,0,.21-.4q.53-1.32,1.16-3l1.13-2.92h.39l2.33,6a1.21,1.21,0,0,0,.17.31,1.17,1.17,0,0,0,.26.23,1.11,1.11,0,0,0,.3.12,1.49,1.49,0,0,0,.31.05Zm-2.81-2.86-1.06-2.71-1,2.71Z"/><path d="M99.23,64.62h-.34a2.32,2.32,0,0,0-.16-.42,3.8,3.8,0,0,0-.26-.46,2.32,2.32,0,0,0-.32-.4.64.64,0,0,0-.34-.19l-.39,0H96.7V68.7a.64.64,0,0,0,.07.3.46.46,0,0,0,.24.21l.37.09a2.68,2.68,0,0,0,.44.06v.35h-3.3v-.35l.42,0a1.63,1.63,0,0,0,.39-.07.48.48,0,0,0,.24-.18.6.6,0,0,0,.08-.32V63.11H95l-.43,0a.6.6,0,0,0-.34.19,2.56,2.56,0,0,0-.32.4,3.36,3.36,0,0,0-.26.47,2.87,2.87,0,0,0-.16.41h-.35v-1.9h6.1Z"/><path d="M107.1,63.07a2.77,2.77,0,0,0-.4.06,1.26,1.26,0,0,0-.43.16.69.69,0,0,0-.23.47,5,5,0,0,0-.06.87v3a2,2,0,0,1-.24,1,2.12,2.12,0,0,1-.64.71,2.68,2.68,0,0,1-.82.38,3.18,3.18,0,0,1-.83.12,3.53,3.53,0,0,1-1.12-.17,2.5,2.5,0,0,1-.83-.45,1.87,1.87,0,0,1-.5-.64,1.78,1.78,0,0,1-.17-.76V63.74a.66.66,0,0,0-.06-.29.55.55,0,0,0-.23-.21,1.16,1.16,0,0,0-.32-.11l-.32-.05v-.35h2.91v.35l-.35,0-.31.07a.35.35,0,0,0-.22.2.78.78,0,0,0-.06.3v3.86a3,3,0,0,0,.06.59,1.54,1.54,0,0,0,.24.57,1.45,1.45,0,0,0,.52.44,2,2,0,0,0,.91.17,2.14,2.14,0,0,0,.91-.17,1.51,1.51,0,0,0,.58-.45,1.7,1.7,0,0,0,.29-.56,2.11,2.11,0,0,0,.08-.59V64.69a4.18,4.18,0,0,0-.08-.89.75.75,0,0,0-.23-.46,1.32,1.32,0,0,0-.47-.19,3.1,3.1,0,0,0-.46-.08v-.35h2.86Z"/><path d="M114.67,69.72h-1.88q-.63-1-1.13-1.7t-1.1-1.47h-.72v2.22a.79.79,0,0,0,.05.3.38.38,0,0,0,.23.2,1.51,1.51,0,0,0,.31.06l.37,0v.35h-3v-.35l.34,0a1.18,1.18,0,0,0,.31-.06.42.42,0,0,0,.21-.19.66.66,0,0,0,.07-.32V63.71a.87.87,0,0,0,0-.31.36.36,0,0,0-.23-.2l-.32-.08-.34,0v-.35h3.23a3.66,3.66,0,0,1,.83.09,2.25,2.25,0,0,1,.7.29,1.48,1.48,0,0,1,.49.52,1.52,1.52,0,0,1,.18.77,1.93,1.93,0,0,1-.12.71,1.48,1.48,0,0,1-.36.54,2.17,2.17,0,0,1-.53.37,4,4,0,0,1-.69.26l.86,1.15.84,1.14a2.34,2.34,0,0,0,.39.44,2.09,2.09,0,0,0,.35.23,1.2,1.2,0,0,0,.32.1l.32,0Zm-2.59-5.21a1.28,1.28,0,0,0-1.4-1.38h-.84v3h.65a1.53,1.53,0,0,0,1.59-1.62Z"/><path d="M121.18,67.66,121,69.72h-5.81v-.35l.39,0a1.33,1.33,0,0,0,.32-.07.45.45,0,0,0,.22-.19.65.65,0,0,0,.06-.3v-5a.72.72,0,0,0-.05-.29.42.42,0,0,0-.23-.2,1.68,1.68,0,0,0-.36-.11l-.36-.06v-.35h5.41v1.69h-.37a2.26,2.26,0,0,0-.43-.8,1.05,1.05,0,0,0-.62-.46l-.36,0h-1.58v2.78h.79a1.57,1.57,0,0,0,.55-.07.76.76,0,0,0,.31-.24,1.27,1.27,0,0,0,.19-.38,2.42,2.42,0,0,0,.1-.45h.37v2.74h-.37a2.2,2.2,0,0,0-.11-.5,1.28,1.28,0,0,0-.18-.38.71.71,0,0,0-.35-.25,1.84,1.84,0,0,0-.52-.06h-.79v2.1a2.22,2.22,0,0,0,0,.5.46.46,0,0,0,.17.28.74.74,0,0,0,.35.12,5.56,5.56,0,0,0,.63,0h.43l.45,0a2.63,2.63,0,0,0,.39-.07.59.59,0,0,0,.28-.14,3.16,3.16,0,0,0,.48-.72,4.84,4.84,0,0,0,.32-.71Z"/><path d="M128.67,66.26a3.36,3.36,0,0,1-.33,1.55,3.17,3.17,0,0,1-.87,1.07,3.79,3.79,0,0,1-1.22.63,4.73,4.73,0,0,1-1.4.21H122v-.35l.37,0a1.19,1.19,0,0,0,.3-.06.42.42,0,0,0,.21-.19.64.64,0,0,0,.07-.3v-5a.76.76,0,0,0-.06-.3.42.42,0,0,0-.22-.21,1.34,1.34,0,0,0-.33-.11l-.31,0v-.35H125a4.08,4.08,0,0,1,1.24.19,3.72,3.72,0,0,1,1.06.52,3,3,0,0,1,1,1.15A3.74,3.74,0,0,1,128.67,66.26Zm-1.21,0a4.07,4.07,0,0,0-.19-1.27,2.93,2.93,0,0,0-.55-1,2.41,2.41,0,0,0-.84-.64,2.56,2.56,0,0,0-1.1-.23H124v5.37a.69.69,0,0,0,.26.62,1.48,1.48,0,0,0,.8.17,2.53,2.53,0,0,0,1.09-.22,2,2,0,0,0,.76-.62,2.75,2.75,0,0,0,.45-1A5.05,5.05,0,0,0,127.46,66.26Z"/><path d="M137.62,63.55a3.43,3.43,0,0,1,.72,1.17,4.19,4.19,0,0,1,.26,1.51,4.12,4.12,0,0,1-.27,1.51,3.36,3.36,0,0,1-.74,1.16,3.21,3.21,0,0,1-1.06.73,3.42,3.42,0,0,1-2.64,0,3.13,3.13,0,0,1-1.06-.76,3.45,3.45,0,0,1-.7-1.16,4.17,4.17,0,0,1-.25-1.46,4.08,4.08,0,0,1,.27-1.52,3.53,3.53,0,0,1,.73-1.16,3.17,3.17,0,0,1,1.08-.74,3.3,3.3,0,0,1,1.28-.26,3.33,3.33,0,0,1,1.31.26A3.13,3.13,0,0,1,137.62,63.55Zm-.73,5a3.28,3.28,0,0,0,.4-1,6.37,6.37,0,0,0,0-2.59,3.28,3.28,0,0,0-.41-1,2,2,0,0,0-.68-.65,1.85,1.85,0,0,0-.94-.23,1.8,1.8,0,0,0-1,.27,2.11,2.11,0,0,0-.68.72,3.47,3.47,0,0,0-.37,1,6,6,0,0,0-.12,1.22,5.88,5.88,0,0,0,.13,1.28,3.25,3.25,0,0,0,.4,1,2,2,0,0,0,.67.68,1.83,1.83,0,0,0,1,.24,1.86,1.86,0,0,0,1-.25A1.93,1.93,0,0,0,136.88,68.51Z"/><path d="M146.48,63.07a2.21,2.21,0,0,0-.42.08,1.5,1.5,0,0,0-.41.15.69.69,0,0,0-.24.47,5.28,5.28,0,0,0-.06.89v5.12h-.43l-4.24-5.72v3.61a4.34,4.34,0,0,0,.08.93.87.87,0,0,0,.23.46,1.15,1.15,0,0,0,.47.2,2.82,2.82,0,0,0,.47.1v.35h-2.87v-.35a2.73,2.73,0,0,0,.45-.1,1.18,1.18,0,0,0,.39-.16.72.72,0,0,0,.24-.42,5,5,0,0,0,.06-1V64.28a1.37,1.37,0,0,0-.08-.45.84.84,0,0,0-.21-.35,1.49,1.49,0,0,0-.48-.28,1.73,1.73,0,0,0-.49-.13v-.35h2l3.93,5.33V64.73a4.24,4.24,0,0,0-.08-.94.75.75,0,0,0-.23-.44,1.65,1.65,0,0,0-.45-.18,2.48,2.48,0,0,0-.48-.1v-.35h2.84Z"/></g></g></svg>