<svg width="1920" height="443" viewBox="0 0 1920 443"  xmlns="http://www.w3.org/2000/svg">
<rect width="100%" height="100%" fill="white"/>
<g clip-path="url(#clip0_3312_4388)">
<mask id="mask0_3312_4388" style="mask-type:luminance" maskUnits="userSpaceOnUse" x="0" y="0" width="1920" height="2270">
<path d="M1920 0H0V2270H1920V0Z" fill="white"/>
</mask>
<g mask="url(#mask0_3312_4388)">
<path d="M-134.809 175.679C-7.7674 168.35 119.274 161.017 245.943 145.672C372.612 130.326 498.917 106.96 625.989 100.284C753.061 93.6082 880.908 103.624 1008.17 101.04C1135.43 98.4567 1262.11 83.2686 1389.21 77.1876C1516.31 71.1033 1643.84 74.1225 1771.4 77.9435C1898.95 81.7612 2026.55 86.3835 2154.15 91.0025L2250.67 2170.36C2123.56 2176.26 1996.46 2182.17 1869.35 2188.07C1742.24 2193.97 1615.12 2199.87 1488.02 2205.77C1360.91 2211.67 1233.8 2217.57 1106.69 2223.47C979.585 2229.37 852.477 2235.27 725.369 2241.17C598.261 2247.07 471.145 2252.97 344.038 2258.87C216.93 2264.77 89.8225 2270.67 -37.2853 2276.57L-134.809 175.679Z" fill="#89C6FF" fill-opacity="0.19"/>
<path d="M-135.375 163.478C-8.19743 159.089 118.981 154.702 246.662 161.157C374.343 167.615 502.536 184.918 630.135 189.599C757.735 194.284 884.748 186.344 1011.6 174.975C1138.46 163.607 1265.15 148.806 1391.5 126.511C1517.84 104.219 1643.85 74.4322 1771.12 71.8949C1898.38 69.3609 2023.97 6.28489 2152.5 31.0001L2250.67 2170.36C2123.56 2176.26 1996.46 2182.16 1869.35 2188.06C1742.24 2193.96 1615.12 2199.87 1488.02 2205.77C1360.91 2211.67 1233.8 2217.57 1106.69 2223.47C979.585 2229.37 852.477 2235.27 725.369 2241.17C598.262 2247.07 471.146 2252.97 344.038 2258.87C216.93 2264.77 89.8223 2270.67 -37.2855 2276.57L-135.375 163.478Z" fill="#89C6FF" fill-opacity="0.19"/>
<path d="M-132.217 231.514C-5.67293 213.468 120.871 195.423 247.536 179.975C374.2 164.528 500.993 151.678 628.296 149.968C755.598 148.258 883.417 157.685 1011.19 166.104C1138.96 174.526 1266.69 181.944 1393.66 173.015C1520.62 164.087 1646.84 138.816 1773.56 124.55C1900.28 110.285 2027.51 107.029 2154.74 103.772L2250.67 2170.36C2123.56 2176.26 1996.46 2182.16 1869.35 2188.07C1742.24 2193.97 1615.12 2199.87 1488.02 2205.77C1360.91 2211.67 1233.8 2217.57 1106.69 2223.47C979.585 2229.37 852.477 2235.27 725.369 2241.17C598.262 2247.07 471.146 2252.97 344.038 2258.87C216.93 2264.77 89.8225 2270.67 -37.2853 2276.57L-132.217 231.514Z" fill="#89C6FF" fill-opacity="0.19"/>
<path d="M-131.598 244.839C-4.93095 229.444 121.736 214.049 248.725 205.603C375.715 197.158 503.035 195.661 629.771 181.751C756.507 167.837 882.667 141.512 1010.1 142.515C1137.52 143.518 1266.22 171.856 1393.56 170.957C1520.9 170.059 1646.89 139.93 1773.46 122.492C1900.04 105.055 2027.2 100.31 2154.36 95.5625L2250.67 2170.36C2123.56 2176.26 1996.46 2182.16 1869.35 2188.06C1742.24 2193.97 1615.12 2199.87 1488.02 2205.77C1360.91 2211.67 1233.8 2217.57 1106.69 2223.47C979.585 2229.37 852.477 2235.27 725.37 2241.17C598.262 2247.07 471.146 2252.97 344.038 2258.87C216.93 2264.77 89.8229 2270.67 -37.285 2276.57L-131.598 244.839Z" fill="#89C6FF" fill-opacity="0.19"/>
<path d="M-131.593 244.947C-3.61398 257.813 124.365 270.678 251.301 261.083C378.237 251.488 504.139 219.435 631.062 209.544C757.984 199.654 885.936 211.928 1012.96 204.146C1139.98 196.367 1266.07 168.531 1393.28 164.914C1520.49 161.292 1648.84 181.889 1776.04 177.972C1903.24 174.059 2029.3 145.632 2155.36 117.205L2250.67 2170.36C2123.56 2176.26 1996.46 2182.16 1869.35 2188.06C1742.24 2193.97 1615.12 2199.87 1488.02 2205.77C1360.91 2211.67 1233.8 2217.57 1106.69 2223.47C979.585 2229.37 852.478 2235.27 725.37 2241.17C598.262 2247.07 471.146 2252.97 344.038 2258.87C216.931 2264.77 89.823 2270.67 -37.2848 2276.57L-131.593 244.947Z" fill="#89C6FF" fill-opacity="0.19"/>
<path d="M-130.595 266.478C-4.30798 242.885 121.978 219.29 249.015 211.862C376.052 204.435 503.847 213.172 631.632 221.847C759.416 230.522 887.198 239.134 1014.1 228.758C1141 218.378 1267.02 189.011 1394.14 183.371C1521.26 177.73 1649.49 195.814 1776.75 193.355C1904.02 190.897 2030.33 167.892 2156.65 144.891L2250.67 2170.36C2123.56 2176.26 1996.45 2182.16 1869.35 2188.06C1742.24 2193.96 1615.12 2199.87 1488.02 2205.77C1360.91 2211.67 1233.8 2217.57 1106.69 2223.47C979.584 2229.37 852.477 2235.27 725.369 2241.17C598.261 2247.07 471.145 2252.97 344.037 2258.87C216.929 2264.77 89.8219 2270.67 -37.2859 2276.57L-130.595 266.478Z" fill="#89C6FF" fill-opacity="0.19"/>
<path d="M-130.85 260.963C-4.04826 248.452 122.752 235.944 250.045 234.034C377.338 232.12 505.131 240.805 632.091 231.712C759.051 222.62 885.185 195.746 1012.41 192.477C1139.64 189.21 1267.97 209.544 1395.74 217.845C1523.5 226.142 1650.72 222.406 1777.64 212.446C1904.56 202.49 2031.19 186.313 2157.82 170.136L2250.67 2170.36C2123.56 2176.26 1996.46 2182.16 1869.35 2188.07C1742.24 2193.97 1615.12 2199.87 1488.02 2205.77C1360.91 2211.67 1233.8 2217.57 1106.69 2223.47C979.586 2229.37 852.478 2235.27 725.37 2241.17C598.262 2247.07 471.146 2252.97 344.038 2258.87C216.931 2264.77 89.8232 2270.67 -37.2846 2276.57L-130.85 260.963Z" fill="#89C6FF" fill-opacity="0.19"/>
<path d="M-130.27 273.48C-2.89828 273.245 124.472 273.007 252.196 280.391C379.921 287.772 508.007 302.776 634.813 290.376C761.619 277.976 887.154 238.173 1014.14 229.606C1141.12 221.042 1269.56 243.711 1397.32 251.897C1525.08 260.082 1652.18 253.787 1779.22 246.501C1906.26 239.212 2033.26 230.93 2160.26 222.645L2250.67 2170.36C2123.56 2176.27 1996.46 2182.17 1869.35 2188.07C1742.24 2193.97 1615.12 2199.87 1488.02 2205.77C1360.91 2211.67 1233.8 2217.57 1106.69 2223.47C979.585 2229.37 852.478 2235.27 725.37 2241.17C598.262 2247.07 471.145 2252.97 344.037 2258.87C216.93 2264.77 89.8224 2270.67 -37.2854 2276.57L-130.27 273.48Z" fill="#89C6FF" fill-opacity="0.19"/>
<path d="M-126.562 353.358C0.730736 351.428 128.022 349.499 254.762 335.657C381.501 321.812 507.695 296.055 634.665 287.192C761.635 278.329 889.39 286.364 1016.56 281.797C1143.73 277.23 1270.31 260.062 1397.03 245.639C1523.74 231.216 1650.59 219.535 1777.93 218.709C1905.27 217.879 2033.12 227.901 2160.97 237.922L2250.67 2170.36C2123.56 2176.26 1996.45 2182.16 1869.35 2188.07C1742.24 2193.97 1615.12 2199.87 1488.02 2205.77C1360.91 2211.67 1233.8 2217.57 1106.69 2223.47C979.584 2229.37 852.478 2235.27 725.37 2241.17C598.262 2247.07 471.145 2252.97 344.037 2258.87C216.929 2264.77 89.8221 2270.67 -37.2857 2276.57L-126.562 353.358Z" fill="#89C6FF" fill-opacity="0.19"/>
<path d="M-128 314.207C-0.771149 310.914 126.458 307.622 253.895 308.812C381.331 309.999 508.984 315.669 636.369 315.719C763.753 315.77 890.876 310.208 1018.12 307.247C1145.36 304.286 1272.73 303.929 1400.01 301.852C1527.3 299.774 1654.51 295.975 1781.2 281.073C1907.89 266.171 2034.07 240.161 2160.24 214.151L2251.09 2171.21C2123.98 2177.11 1996.87 2183.01 1869.77 2188.91C1742.66 2194.81 1615.54 2200.71 1488.43 2206.61C1361.33 2212.51 1234.22 2218.41 1107.11 2224.31C980.003 2230.21 852.895 2236.11 725.787 2242.01C598.679 2247.91 471.563 2253.81 344.455 2259.71C217.348 2265.61 90.2399 2271.51 -36.8679 2277.41L-128 314.207Z" fill="#89C6FF" fill-opacity="0.19"/>
</g>
</g>
<defs>
<clipPath id="clip0_3312_4388">
<rect width="1920" height="443" fill="white"/>
</clipPath>
</defs>
</svg>
