<?xml version="1.0" encoding="UTF-8"?>
<svg id="Layer_1" data-name="Layer 1" xmlns="http://www.w3.org/2000/svg" viewBox="0 0 24 24">
  <defs>
    <style>
      .cls-1 {
        fill: #a6120d;
      }

      .cls-2 {
        fill: #ffd5cd;
      }

      .cls-3 {
        fill: #dd1b16;
      }

      .cls-4 {
        fill: #b3b3b3;
      }

      .cls-5 {
        fill: #f2f2f2;
      }
    </style>
  </defs>
  <path class="cls-2" d="M12,0h0C18.63,0,24,5.37,24,12h0c0,6.63-5.37,12-12,12h0C5.37,24,0,18.63,0,12H0C0,5.37,5.37,0,12,0Z"/>
  <g id="g48">
    <polygon id="polygon50" class="cls-4" points="4.9 17.03 11.98 20.93 19.1 16.98 20.43 5.98 11.97 3.07 3.57 6.03 4.9 17.03"/>
    <polygon id="polygon52" class="cls-1" points="11.95 20 18.35 16.46 19.59 6.61 11.95 4.01 11.95 20"/>
    <polygon id="polygon54" class="cls-3" points="11.95 20 11.95 4.01 4.52 6.66 5.65 16.5 11.95 20"/>
    <path id="path56" class="cls-5" d="M14.06,12.52l-2.1,.98h-2.22l-1.04,2.6-1.94,.04L11.95,4.59l2.1,7.93Zm-.2-.49l-1.88-3.73-1.55,3.67h1.53l1.9,.06Z"/>
    <polygon id="polygon58" class="cls-4" points="13.72 11.96 11.96 11.96 11.95 13.5 14.39 13.5 15.53 16.14 17.39 16.18 11.95 4.59 11.97 8.29 13.72 11.96"/>
  </g>
</svg>