<?xml version="1.0" encoding="utf-8"?>
<!-- Generator: Adobe Illustrator 28.2.0, SVG Export Plug-In . SVG Version: 6.00 Build 0)  -->
<svg version="1.1" id="Layer_1" xmlns="http://www.w3.org/2000/svg" xmlns:xlink="http://www.w3.org/1999/xlink" x="0px" y="0px"
	 viewBox="0 0 24 24" style="enable-background:new 0 0 24 24;" xml:space="preserve">
<style type="text/css">
	.st0{fill:none;}
	.st1{fill:#CDFFF6;}
	.st2{fill:none;stroke:#005C4B;stroke-width:1.3;stroke-linecap:round;stroke-linejoin:round;}
</style>
<path class="st0" d="M12,0L12,0c6.6,0,12,5.4,12,12l0,0c0,6.6-5.4,12-12,12l0,0C5.4,24,0,18.6,0,12l0,0C0,5.3,5.4,0,12,0z"/>
<path class="st1" d="M12.1,0L12.1,0c6.6,0,12,5.4,12,12l0,0c0,6.6-5.4,12-12,12l0,0c-6.6,0-12-5.4-12-12l0,0C0.1,5.3,5.5,0,12.1,0z"
	/>
<g>
	<g>
		<path class="st2" d="M13,2.6c-0.6,0-1.2,0-1.8,0.1C9,2.9,7,3.9,5.5,5.4C4,6.9,3,8.9,2.8,11.2"/>
		<polyline class="st2" points="12.1,1.3 13,2.6 11.8,3.9 		"/>
	</g>
</g>
<g>
	<g>
		<path class="st2" d="M11.8,21.2c0.6,0,1.2,0,1.8-0.1c2.2-0.3,4.2-1.3,5.6-2.8c1.5-1.5,2.4-3.6,2.5-5.9"/>
		<polyline class="st2" points="12.7,22.6 11.8,21.2 12.9,20 		"/>
	</g>
</g>
<path class="st2" d="M12.2,17.7H7.3c-0.7,0-1.2-0.6-1.2-1.2v-4.9c0-0.7,0.6-1.2,1.2-1.2h4.9c0.7,0,1.2,0.6,1.2,1.2v4.9
	C13.5,17.1,12.9,17.7,12.2,17.7z"/>
<path class="st2" d="M11.1,9.9v-2c0-0.7,0.6-1.2,1.2-1.2h4.9c0.7,0,1.2,0.6,1.2,1.2v4.9c0,0.7-0.6,1.2-1.2,1.2h-3.8"/>
</svg>
