<?xml version="1.0" encoding="UTF-8"?>
<svg id="Layer_1" data-name="Layer 1" xmlns="http://www.w3.org/2000/svg" viewBox="0 0 24 24">
  <defs>
    <style>
      .cls-1 {
        stroke: #005c4b;
        stroke-linecap: round;
        stroke-linejoin: round;
        stroke-width: 1.3px;
      }

      .cls-1, .cls-2 {
        fill: none;
      }

      .cls-3 {
        fill: #cdfff6;
      }
    </style>
  </defs>
  <path class="cls-2" d="M11.7-.04h0C18.33-.04,23.7,5.33,23.7,11.96h0c0,6.63-5.37,12-12,12h0C5.08,23.96-.3,18.59-.3,11.96H-.3C-.3,5.33,5.08-.04,11.7-.04Z"/>
  <path class="cls-3" d="M12,0h0c6.63,0,12,5.37,12,12h0c0,6.63-5.37,12-12,12h0C5.37,24,0,18.63,0,12H0C0,5.37,5.37,0,12,0Z"/>
  <polygon class="cls-1" points="12 6.97 13.52 10.05 16.91 10.54 14.46 12.94 15.04 16.32 12 14.72 8.96 16.32 9.54 12.94 7.09 10.54 10.48 10.05 12 6.97"/>
  <path class="cls-1" d="M11.98,3.58C7.36,3.58,3.58,7.32,3.58,11.98c0,1.87,.62,3.62,1.7,5.03l-.71,2.66c-.08,.25,.17,.46,.42,.42l2.87-.75h.04c1.21,.71,2.62,1.08,4.12,1.08,4.61,0,8.4-3.74,8.4-8.4S16.59,3.58,11.98,3.58Z"/>
</svg>