<?xml version="1.0" encoding="utf-8"?>
<!-- Generator: Adobe Illustrator 26.4.1, SVG Export Plug-In . SVG Version: 6.00 Build 0)  -->
<svg version="1.1" id="Layer_1" xmlns="http://www.w3.org/2000/svg" xmlns:xlink="http://www.w3.org/1999/xlink" x="0px" y="0px"
	 viewBox="0 0 24 24" style="enable-background:new 0 0 24 24;" xml:space="preserve">
<style type="text/css">
	.st0{fill:#D5CDFF;}
	.st1{fill:none;stroke:#0E005C;stroke-width:1.4;stroke-linecap:round;stroke-miterlimit:10;}
	.st2{fill:none;stroke:#0E005C;stroke-width:1.4;stroke-linecap:round;stroke-linejoin:round;stroke-miterlimit:10;}
</style>
<path class="st0" d="M12,0L12,0c6.6,0,12,5.4,12,12l0,0c0,6.6-5.4,12-12,12l0,0C5.4,24,0,18.6,0,12l0,0C0,5.4,5.4,0,12,0z"/>
<g>
	<polyline class="st1" points="7.3,17.6 4.7,17.6 4.7,20.1 	"/>
	<path class="st1" d="M20.2,8.3C20.7,9.5,21,10.8,21,12c0,2.3-0.9,4.6-2.7,6.4c-1.7,1.7-4,2.6-6.3,2.6c-2.5,0-4.4-0.7-6-2.1
		c-0.3-0.2-1.3-1.3-1.3-1.3"/>
	<path class="st1" d="M3.8,15.7C3.3,14.5,3,13.2,3,12c0-2.3,0.9-4.6,2.7-6.4C7.4,3.9,9.7,3,12,3c2.5,0,4.4,0.7,6,2.1
		c0.3,0.2,1.3,1.3,1.3,1.3"/>
	<polyline class="st1" points="16.7,6.4 19.3,6.4 19.3,3.9 	"/>
	<polyline class="st2" points="7.7,13.6 11.1,11 12.9,12.7 16.3,10.1 	"/>
</g>
</svg>
