<svg width="24" height="24" viewBox="0 0 24 24" fill="none" xmlns="http://www.w3.org/2000/svg">
<g clip-path="url(#clip0_8823_32898)">
<rect width="24" height="24" rx="12" fill="#D6EBFF"/>
<path fill-rule="evenodd" clip-rule="evenodd" d="M16.3077 7.54039C16.5615 7.79423 16.5615 8.20578 16.3077 8.45963L8.45972 16.3076C8.20588 16.5614 7.79432 16.5614 7.54048 16.3076C7.28664 16.0538 7.28664 15.6422 7.54048 15.3884L15.3885 7.54039C15.6423 7.28655 16.0539 7.28655 16.3077 7.54039Z" fill="#002F5C"/>
<path fill-rule="evenodd" clip-rule="evenodd" d="M8.85012 6.65001C8.18738 6.65001 7.6501 7.18728 7.6501 7.85003C7.6501 8.51275 8.18735 9.05001 8.85012 9.05001C9.51287 9.05001 10.0501 8.51277 10.0501 7.85003C10.0501 7.18726 9.51285 6.65001 8.85012 6.65001ZM6.3501 7.85003C6.3501 6.46931 7.46941 5.35001 8.85012 5.35001C10.2309 5.35001 11.3501 6.46933 11.3501 7.85003C11.3501 9.23074 10.2308 10.35 8.85012 10.35C7.46943 10.35 6.3501 9.23077 6.3501 7.85003Z" fill="#002F5C"/>
<path fill-rule="evenodd" clip-rule="evenodd" d="M14.9477 14.606C14.285 14.606 13.7478 15.1432 13.7478 15.806C13.7478 16.4687 14.285 17.006 14.9477 17.006C15.6105 17.006 16.1478 16.4687 16.1478 15.806C16.1478 15.1433 15.6105 14.606 14.9477 14.606ZM12.4478 15.806C12.4478 14.4253 13.567 13.306 14.9477 13.306C16.3284 13.306 17.4478 14.4252 17.4478 15.806C17.4478 17.1867 16.3284 18.306 14.9477 18.306C13.567 18.306 12.4478 17.1867 12.4478 15.806Z" fill="#002F5C"/>
</g>
<defs>
<clipPath id="clip0_8823_32898">
<rect width="24" height="24" rx="12" fill="white"/>
</clipPath>
</defs>
</svg>
