<svg width="24" height="24" viewBox="0 0 24 24" fill="none" xmlns="http://www.w3.org/2000/svg">
<rect width="24" height="24" rx="12" fill="#F6CDFF"/>
<path fill-rule="evenodd" clip-rule="evenodd" d="M8.06688 18.634L5.29536 8.29053C5.19274 7.90756 5.10781 7.59061 5.05485 7.32652C4.99996 7.05283 4.96956 6.7918 4.99883 6.52336C5.06719 5.89634 5.37132 5.31804 5.85983 4.92474C6.01141 4.8027 6.22075 4.7132 6.37716 4.65192C6.55742 4.58128 6.76984 4.51044 6.98715 4.44318C7.42039 4.30909 7.91254 4.17722 8.28452 4.07754L8.28996 4.07609C8.45647 4.03147 8.6339 4.05483 8.78319 4.14102C8.91668 4.21809 9.01791 4.33977 9.06974 4.48371C9.07556 4.48931 9.08382 4.49669 9.09512 4.50572C9.14935 4.54904 9.24156 4.60302 9.3687 4.64928C9.629 4.74401 9.93558 4.77122 10.1839 4.70469C10.4321 4.63817 10.684 4.46132 10.8621 4.24913C10.9491 4.14549 11.0019 4.05264 11.0272 3.98801C11.0325 3.97459 11.0359 3.96409 11.0382 3.95634C10.9785 3.62701 11.1806 3.30153 11.5097 3.21336L11.5151 3.2119C11.8871 3.11223 12.3793 2.98034 12.8216 2.87984C13.0435 2.82943 13.2629 2.78456 13.4543 2.7556C13.6204 2.73047 13.8465 2.7033 14.0388 2.7332C14.6587 2.82958 15.2109 3.17856 15.5835 3.68721C15.743 3.90502 15.8472 4.14624 15.9366 4.41072C16.0229 4.66623 16.1079 4.98362 16.2107 5.36725L18.9815 15.708C19.0843 16.0916 19.1693 16.409 19.2224 16.6735C19.2772 16.9473 19.3076 17.2083 19.2784 17.4768C19.21 18.1037 18.9062 18.6818 18.4176 19.0752C18.266 19.1972 18.0566 19.2867 17.9002 19.348C17.72 19.4186 17.5075 19.4895 17.2902 19.5568C16.8569 19.6909 16.3647 19.8228 15.9927 19.9224L15.9873 19.9239C15.8208 19.9685 15.6433 19.9451 15.494 19.8589C15.3606 19.7819 15.2593 19.6602 15.2075 19.5163C15.2017 19.5107 15.1934 19.5033 15.1821 19.4943C15.1279 19.4509 15.0357 19.397 14.9086 19.3507C14.6483 19.256 14.3417 19.2288 14.0934 19.2953C13.8451 19.3618 13.5932 19.5387 13.4151 19.7509C13.3282 19.8545 13.2753 19.9473 13.25 20.012C13.2447 20.0254 13.2413 20.0359 13.2391 20.0436C13.2987 20.3729 13.0966 20.6984 12.7675 20.7866L12.7621 20.788C12.3901 20.8877 11.898 21.0196 11.4557 21.1201C11.2339 21.1705 11.0145 21.2154 10.8231 21.2443C10.657 21.2694 10.4309 21.2966 10.2386 21.2667C9.61903 21.1704 9.0665 20.8218 8.69373 20.3129C8.53415 20.095 8.42994 19.8537 8.34063 19.5892C8.25443 19.334 8.1695 19.017 8.06688 18.634ZM9.5723 19.1733C9.64198 19.3797 9.69496 19.4798 9.74248 19.5447C9.92198 19.7898 10.1757 19.9413 10.4384 19.9821C10.4283 19.9806 10.4284 19.9806 10.4415 19.9798C10.4633 19.9786 10.5213 19.9752 10.6286 19.9589C10.7749 19.9368 10.9594 19.8997 11.1677 19.8524C11.4361 19.7914 11.7273 19.7173 12.0016 19.6452C12.0134 19.6077 12.0262 19.5719 12.0395 19.538C12.1262 19.3164 12.2611 19.1037 12.4193 18.9152C12.7317 18.5429 13.2003 18.1888 13.7569 18.0396C14.3136 17.8904 14.8964 17.9629 15.3531 18.1291C15.5844 18.2133 15.8076 18.33 15.9935 18.4785C16.0219 18.5012 16.0509 18.5258 16.0799 18.5524C16.3535 18.4777 16.6427 18.3963 16.9058 18.3149C17.1098 18.2517 17.2882 18.1916 17.4259 18.1376C17.527 18.098 17.579 18.0719 17.5985 18.0621C17.6095 18.0566 17.6102 18.0562 17.6036 18.0615C17.8099 17.8949 17.9531 17.6374 17.986 17.3359C17.9947 17.2559 17.9905 17.1426 17.9477 16.929C17.9039 16.7105 17.8301 16.4338 17.7208 16.0257L14.96 5.72244C14.8507 5.31436 14.7762 5.03784 14.7049 4.82676C14.6353 4.62051 14.5823 4.52034 14.5347 4.45541C14.355 4.21009 14.1015 4.05856 13.8391 4.01777C13.8491 4.01933 13.849 4.01934 13.836 4.02009C13.8141 4.02136 13.7561 4.02473 13.6488 4.04097C13.5025 4.06311 13.3179 4.1002 13.1097 4.14752C12.8411 4.20854 12.5499 4.28267 12.2756 4.35476C12.2638 4.39227 12.251 4.4281 12.2378 4.46197C12.151 4.68351 12.0162 4.89622 11.8579 5.0848C11.5455 5.45705 11.077 5.81124 10.5203 5.9604C9.96365 6.10956 9.38079 6.03709 8.92413 5.87091C8.69279 5.78672 8.46965 5.66993 8.28376 5.52144C8.25534 5.49874 8.22633 5.47411 8.19734 5.44754C7.92378 5.52224 7.63455 5.60365 7.37153 5.68506C7.16752 5.7482 6.9892 5.80833 6.85145 5.86231C6.75036 5.90192 6.69844 5.92801 6.67892 5.93782C6.6679 5.94335 6.66719 5.94371 6.67378 5.93839C6.46745 6.1051 6.32404 6.36281 6.29117 6.66426C6.28245 6.74423 6.28666 6.85743 6.32947 7.0709C6.37328 7.28936 6.4471 7.56605 6.55645 7.97417L9.31721 18.2774C9.42656 18.6855 9.50099 18.9621 9.5723 19.1733Z" fill="#4B005C"/>
<path fill-rule="evenodd" clip-rule="evenodd" d="M6.16331 11.5305C6.0704 11.1837 6.27618 10.8273 6.62293 10.7344L7.83034 10.4109C8.17709 10.318 8.53351 10.5237 8.62642 10.8705C8.71933 11.2172 8.51355 11.5737 8.1668 11.6666L6.95939 11.9901C6.61264 12.083 6.25622 11.8772 6.16331 11.5305ZM9.78553 10.5599C9.69262 10.2131 9.8984 9.85673 10.2452 9.76382L12.66 9.11677C13.0067 9.02386 13.3631 9.22964 13.4561 9.57639C13.549 9.92314 13.3432 10.2796 12.9964 10.3725L10.5816 11.0195C10.2349 11.1124 9.87844 10.9067 9.78553 10.5599ZM14.6152 9.26581C14.5222 8.91905 14.728 8.56263 15.0748 8.46972L16.2822 8.1462C16.6289 8.05329 16.9854 8.25906 17.0783 8.60582C17.1712 8.95257 16.9654 9.30899 16.6187 9.4019L15.4112 9.72543C15.0645 9.81834 14.7081 9.61256 14.6152 9.26581Z" fill="#4B005C"/>
</svg>
