<svg width="24" height="24" viewBox="0 0 24 24" fill="none" xmlns="http://www.w3.org/2000/svg">
<g clip-path="url(#clip0_8898_19495)">
<rect width="24" height="24" rx="12" fill="#D5CDFF"/>
<path fill-rule="evenodd" clip-rule="evenodd" d="M12.0008 8.13569C11.271 8.13569 10.6794 8.72732 10.6794 9.45712C10.6794 10.1869 11.271 10.7786 12.0008 10.7786C12.7306 10.7786 13.3223 10.1869 13.3223 9.45712C13.3223 8.72732 12.7306 8.13569 12.0008 8.13569ZM9.37939 9.45712C9.37939 8.00935 10.553 6.83569 12.0008 6.83569C13.4486 6.83569 14.6223 8.00935 14.6223 9.45712C14.6223 10.9049 13.4486 12.0786 12.0008 12.0786C10.553 12.0786 9.37939 10.9049 9.37939 9.45712Z" fill="#0E005C"/>
<path fill-rule="evenodd" clip-rule="evenodd" d="M11.9994 11.1643C12.2767 11.1643 12.5234 11.3402 12.6139 11.6023L18.1424 27.6309C18.2109 27.8295 18.1792 28.0491 18.0572 28.2202C17.9352 28.3913 17.7381 28.4928 17.5279 28.4928H6.47081C6.26068 28.4928 6.06351 28.3913 5.94153 28.2202C5.81955 28.0491 5.78781 27.8295 5.85633 27.6309L11.3849 11.6023C11.4753 11.3402 11.7221 11.1643 11.9994 11.1643ZM11.9994 13.8077L7.38258 27.1928H16.6162L11.9994 13.8077Z" fill="#0E005C"/>
<path fill-rule="evenodd" clip-rule="evenodd" d="M9.56258 18.9048C9.81239 18.647 10.2239 18.6405 10.4817 18.8903L17.3817 25.576C17.6395 25.8258 17.646 26.2373 17.3962 26.4952C17.1464 26.753 16.7349 26.7595 16.4771 26.5096L9.57708 19.8239C9.31927 19.5741 9.31278 19.1626 9.56258 18.9048Z" fill="#0E005C"/>
<path fill-rule="evenodd" clip-rule="evenodd" d="M14.4392 18.9048C14.689 19.1626 14.6825 19.5741 14.4247 19.8239L7.52468 26.5096C7.26686 26.7595 6.85536 26.753 6.60555 26.4952C6.35575 26.2373 6.36224 25.8258 6.62005 25.576L13.52 18.8903C13.7779 18.6405 14.1894 18.647 14.4392 18.9048Z" fill="#0E005C"/>
<path fill-rule="evenodd" clip-rule="evenodd" d="M5.80435 4.45918C6.10304 4.65831 6.18375 5.06188 5.98462 5.36057C5.19329 6.54757 4.72236 7.96626 4.72236 9.45716C4.72236 10.9534 5.19626 12.4105 5.97888 13.5453C6.18269 13.8408 6.10834 14.2456 5.81282 14.4494C5.5173 14.6532 5.11251 14.5788 4.9087 14.2833C3.97704 12.9324 3.42236 11.2181 3.42236 9.45716C3.42236 7.69091 3.98 6.02389 4.90296 4.63946C5.10209 4.34077 5.50565 4.26005 5.80435 4.45918Z" fill="#0E005C"/>
<path fill-rule="evenodd" clip-rule="evenodd" d="M15.7348 6.14447C16.0258 5.93429 16.4322 5.99982 16.6423 6.29084C17.2873 7.18389 17.6225 8.30593 17.6225 9.45712C17.6225 10.6175 17.2825 11.6882 16.6518 12.6099C16.4491 12.9062 16.0446 12.982 15.7483 12.7793C15.4521 12.5766 15.3762 12.1721 15.5789 11.8758C16.0626 11.1689 16.3225 10.3539 16.3225 9.45712C16.3225 8.55117 16.0578 7.70179 15.5885 7.05198C15.3783 6.76096 15.4438 6.35465 15.7348 6.14447Z" fill="#0E005C"/>
<path fill-rule="evenodd" clip-rule="evenodd" d="M8.25358 6.13497C8.54985 6.33769 8.6257 6.7422 8.42299 7.03847C7.93936 7.74531 7.67939 8.56037 7.67939 9.45714C7.67939 10.3631 7.94417 11.2125 8.41348 11.8623C8.62366 12.1533 8.55813 12.5596 8.26711 12.7698C7.97608 12.98 7.56978 12.9144 7.3596 12.6234C6.71462 11.7304 6.37939 10.6083 6.37939 9.45714C6.37939 8.29676 6.71943 7.22611 7.35009 6.30438C7.5528 6.00811 7.95731 5.93226 8.25358 6.13497Z" fill="#0E005C"/>
<path fill-rule="evenodd" clip-rule="evenodd" d="M18.1878 4.50776C18.4833 4.30396 18.8881 4.3783 19.0919 4.67383C20.0236 6.02474 20.5782 7.73906 20.5782 9.49999C20.5782 11.2662 20.0206 12.9333 19.0976 14.3177C18.8985 14.6164 18.4949 14.6971 18.1963 14.498C17.8976 14.2988 17.8168 13.8953 18.016 13.5966C18.8073 12.4096 19.2782 10.9909 19.2782 9.49999C19.2782 8.00379 18.8043 6.54668 18.0217 5.41188C17.8179 5.11636 17.8923 4.71157 18.1878 4.50776Z" fill="#0E005C"/>
</g>
<defs>
<clipPath id="clip0_8898_19495">
<rect width="24" height="24" rx="12" fill="white"/>
</clipPath>
</defs>
</svg>
