<svg width="24" height="24" viewBox="0 0 24 24" fill="none" xmlns="http://www.w3.org/2000/svg">
<rect width="24" height="24" rx="12" fill="#F6CDFF"/>
<path fill-rule="evenodd" clip-rule="evenodd" d="M10.1736 4.53974C10.4278 4.79323 10.4284 5.20479 10.1749 5.45898L7.45986 8.18148C7.20637 8.43567 6.79482 8.43623 6.54062 8.18274C6.28643 7.92925 6.28587 7.5177 6.53936 7.26351L9.25436 4.54101C9.50785 4.28682 9.9194 4.28625 10.1736 4.53974Z" fill="#4B005C"/>
<path fill-rule="evenodd" clip-rule="evenodd" d="M14.0406 4.53974C14.2948 4.28625 14.7064 4.28682 14.9599 4.54101L17.6749 7.26351C17.9284 7.5177 17.9278 7.92925 17.6736 8.18274C17.4194 8.43623 17.0078 8.43567 16.7544 8.18148L14.0394 5.45898C13.7859 5.20479 13.7864 4.79323 14.0406 4.53974Z" fill="#4B005C"/>
<path fill-rule="evenodd" clip-rule="evenodd" d="M4.83443 8.64678C4.79988 8.67137 4.64961 8.7867 4.64961 9.3875C4.64961 9.75216 4.6903 9.96264 4.73282 10.0789C4.75276 10.1334 4.77058 10.1601 4.77925 10.1712C4.78691 10.1811 4.79201 10.1848 4.79699 10.1879C4.81212 10.1971 4.86271 10.2207 5.00613 10.2319C5.1171 10.2405 5.22967 10.2396 5.37739 10.2385C5.43457 10.238 5.49701 10.2375 5.56667 10.2375H18.4325C18.5022 10.2375 18.5647 10.238 18.6218 10.2385C18.7695 10.2396 18.8821 10.2405 18.9931 10.2319C19.1365 10.2207 19.1871 10.1971 19.2022 10.1879C19.2072 10.1848 19.2123 10.1811 19.22 10.1712C19.2286 10.1601 19.2465 10.1334 19.2664 10.0789C19.3089 9.96264 19.3496 9.75216 19.3496 9.3875C19.3496 8.7867 19.1993 8.67137 19.1648 8.64678C19.072 8.58075 18.8853 8.5375 18.4325 8.5375H5.56667C5.11394 8.5375 4.92722 8.58075 4.83443 8.64678ZM4.08067 7.5876C4.55435 7.25051 5.15116 7.2375 5.56667 7.2375H18.4325C18.8481 7.2375 19.4449 7.25051 19.9185 7.5876C20.4505 7.96614 20.6496 8.60081 20.6496 9.3875C20.6496 10.239 20.473 10.9341 19.8811 11.2965C19.613 11.4607 19.3261 11.5098 19.0943 11.5279C18.9223 11.5413 18.7295 11.5397 18.5654 11.5383C18.5184 11.5379 18.4737 11.5375 18.4325 11.5375H5.56667C5.52553 11.5375 5.48085 11.5379 5.43379 11.5383C5.26976 11.5397 5.07688 11.5413 4.90493 11.5279C4.67313 11.5098 4.38621 11.4607 4.11811 11.2965C3.52627 10.9341 3.34961 10.239 3.34961 9.3875C3.34961 8.60081 3.54875 7.96614 4.08067 7.5876Z" fill="#4B005C"/>
<path fill-rule="evenodd" clip-rule="evenodd" d="M19.1357 10.3645C19.4867 10.4398 19.7101 10.7855 19.6348 11.1365L18.441 16.6964C18.3161 17.3824 18.149 18.1665 17.6203 18.7501C17.0553 19.3739 16.2027 19.65 15.0057 19.65H8.81483C7.68208 19.65 6.83775 19.3502 6.25658 18.7301C5.70082 18.1371 5.48162 17.3478 5.36211 16.589L4.35987 11.1171C4.29519 10.764 4.52902 10.4253 4.88213 10.3606C5.23524 10.296 5.57392 10.5298 5.6386 10.8829L6.64384 16.3712L6.64514 16.3795C6.75373 17.073 6.92293 17.5401 7.20511 17.8411C7.46394 18.1173 7.91164 18.35 8.81483 18.35H15.0057C16.0225 18.35 16.4407 18.1161 16.6569 17.8774C16.9069 17.6014 17.0326 17.1754 17.1638 16.4538L17.1656 16.4436L18.3637 10.8636C18.4391 10.5126 18.7847 10.2891 19.1357 10.3645Z" fill="#4B005C"/>
</svg>
