<svg width="24" height="24" viewBox="0 0 24 24" fill="none" xmlns="http://www.w3.org/2000/svg">
<rect width="24" height="24" rx="12" fill="#FFCDE7"/>
<path fill-rule="evenodd" clip-rule="evenodd" d="M19.5409 4.48931C19.6974 4.61255 19.7888 4.80078 19.7888 5.00001V16.5862C19.7888 16.7906 19.6926 16.9831 19.5293 17.1059C19.3659 17.2286 19.1542 17.2674 18.9579 17.2106L10.3141 14.7068L11.7712 20.85C11.8171 21.0434 11.7719 21.2472 11.6487 21.4031C11.5254 21.5591 11.3375 21.65 11.1388 21.65H7.7102C7.42225 21.65 7.16862 21.4606 7.08692 21.1845L4.92652 13.8838C3.54234 13.6473 2.48877 12.4418 2.48877 10.9902V10.0443C2.48877 8.423 3.80313 7.10863 5.42448 7.10863H7.63286L18.9863 4.36816C19.1799 4.32141 19.3843 4.36606 19.5409 4.48931ZM7.0602 8.40863H5.42448C4.5211 8.40863 3.78877 9.14097 3.78877 10.0443V10.9902C3.78877 11.8935 4.5211 12.6259 5.42448 12.6259H7.0602V8.40863ZM7.61796 13.9259H6.29469L8.19571 20.35H10.3166L8.87952 14.2913L7.61796 13.9259ZM8.3602 12.7874L18.4888 15.7212V5.82558L8.3602 8.2704V12.7874Z" fill="#5C002F"/>
</svg>
