<svg width="24" height="24" viewBox="0 0 24 24" fill="none" xmlns="http://www.w3.org/2000/svg">
<rect width="24" height="24" rx="12" fill="#E7FFCD"/>
<path fill-rule="evenodd" clip-rule="evenodd" d="M12.8248 4.90255C12.4297 4.56582 11.848 4.56582 11.4528 4.90255L10.3674 5.82749C10.3674 5.8275 10.3674 5.82748 10.3674 5.82749C9.98978 6.14927 9.52031 6.34361 9.02595 6.38306L7.60562 6.49634C7.60561 6.49634 7.60563 6.49634 7.60562 6.49634C7.0876 6.5377 6.67606 6.94915 6.63481 7.46612L6.52109 8.88759C6.52109 8.88763 6.5211 8.88755 6.52109 8.88759C6.4817 9.38091 6.28887 9.85052 5.96645 10.2289L5.04113 11.3144C5.04111 11.3144 5.04114 11.3144 5.04113 11.3144C4.70457 11.7094 4.70455 12.2904 5.04138 12.6857L5.96587 13.7712C5.96583 13.7711 5.96592 13.7712 5.96587 13.7712C6.28717 14.1483 6.48235 14.6175 6.52186 15.1123C6.52186 15.1123 6.52187 15.1124 6.52186 15.1123L6.63558 16.5338C6.67691 17.0517 7.08738 17.4624 7.6044 17.5037C7.60437 17.5037 7.60443 17.5037 7.6044 17.5037L9.0263 17.617C9.52076 17.6564 9.99011 17.8508 10.3677 18.1726L11.4527 19.0975C11.4527 19.0975 11.4528 19.0975 11.4527 19.0975C11.8478 19.4341 12.4296 19.4342 12.8248 19.0975C12.8248 19.0975 12.8248 19.0974 12.8248 19.0975L13.9099 18.1725C14.2876 17.8506 14.757 17.6566 15.2512 17.6172L16.6731 17.5037C16.6731 17.5037 16.6731 17.5037 16.6731 17.5037C17.1901 17.4624 17.6007 17.0518 17.642 16.5338L17.7557 15.1124C17.7557 15.1124 17.7557 15.1123 17.7557 15.1124C17.7952 14.6176 17.9902 14.1481 18.3116 13.7709C18.3116 13.7709 18.3117 13.7708 18.3116 13.7709L19.2361 12.6857C19.5728 12.2906 19.5729 11.7092 19.2361 11.314L18.3116 10.229C18.3116 10.229 18.3116 10.229 18.3116 10.229C17.9903 9.85198 17.7949 9.38267 17.7554 8.88759L17.6424 7.46595C17.6424 7.46588 17.6424 7.46601 17.6424 7.46595C17.6011 6.94876 17.1902 6.53777 16.6726 6.49643C16.6725 6.49643 16.6726 6.49644 16.6726 6.49643L15.2512 6.38315C14.7564 6.34367 14.2875 6.14901 13.9102 5.82746L12.8248 4.90255ZM10.6096 3.91309C11.4907 3.16231 12.787 3.16231 13.6681 3.91311L14.7534 4.83802C14.9229 4.98249 15.133 5.06958 15.3545 5.08726C15.3544 5.08726 15.3545 5.08726 15.3545 5.08726L16.7758 5.20054C17.9295 5.29261 18.8462 6.20845 18.9383 7.36254L19.0513 8.78418C19.069 9.0053 19.1564 9.21601 19.3011 9.38583L20.2256 10.4709C20.2256 10.4708 20.2256 10.4709 20.2256 10.4709C20.9763 11.3518 20.9765 12.6477 20.2257 13.5287C20.2257 13.5287 20.2257 13.5287 20.2257 13.5287L19.3012 14.6139C19.1567 14.7835 19.0693 14.9944 19.0516 15.2158L18.9379 16.6372C18.9379 16.6372 18.9379 16.6371 18.9379 16.6372C18.8458 17.7905 17.9309 18.7075 16.7765 18.7996L15.3546 18.913C15.1326 18.9308 14.9223 19.0178 14.7532 19.1619C14.7532 19.1619 14.7532 19.1618 14.7532 19.1619L13.6681 20.0868C12.7872 20.8375 11.4906 20.8378 10.6095 20.087L9.52444 19.162C9.52442 19.162 9.52447 19.162 9.52444 19.162C9.35516 19.0178 9.14476 18.9306 8.92305 18.9129C8.92303 18.9129 8.92308 18.9129 8.92305 18.9129L7.50116 18.7996C6.34689 18.7075 5.43182 17.7908 5.33972 16.6375C5.33972 16.6374 5.33972 16.6375 5.33972 16.6375L5.226 15.216C5.20835 14.9947 5.12105 14.7841 4.97642 14.6144L4.05193 13.5289C4.05189 13.5288 4.05197 13.5289 4.05193 13.5289C3.30138 12.648 3.3008 11.3523 4.05167 10.4712L4.977 9.38566C4.97698 9.38569 4.97702 9.38564 4.977 9.38566C5.12055 9.21719 5.20743 9.00702 5.22521 8.78418L5.33893 7.36271C5.33892 7.36275 5.33893 7.36266 5.33893 7.36271C5.43111 6.20836 6.34891 5.2925 7.50221 5.20046L8.92253 5.08718C8.92253 5.08718 8.92254 5.08718 8.92253 5.08718C9.14437 5.06947 9.35492 4.98228 9.52417 4.83804L10.6096 3.91309C10.6097 3.91308 10.6096 3.9131 10.6096 3.91309ZM15.2651 9.76258C15.519 10.0164 15.519 10.428 15.2651 10.6818L11.7095 14.2375C11.5876 14.3594 11.4223 14.4278 11.2499 14.4278C11.0775 14.4278 10.9122 14.3594 10.7903 14.2375L9.01246 12.4596C8.75862 12.2058 8.75862 11.7942 9.01246 11.5404C9.2663 11.2866 9.67786 11.2866 9.9317 11.5404L11.2499 12.8586L14.3459 9.76259C14.5997 9.50874 15.0113 9.50874 15.2651 9.76258Z" fill="#2F5C00"/>
</svg>
