<svg width="24" height="24" viewBox="0 0 24 24" fill="none" xmlns="http://www.w3.org/2000/svg">
<rect width="24" height="24" rx="12" fill="#CDFFF6"/>
<path fill-rule="evenodd" clip-rule="evenodd" d="M5.2501 5.72501C5.60908 5.72501 5.9001 6.01602 5.9001 6.37501V16.975H18.7501C19.1091 16.975 19.4001 17.266 19.4001 17.625C19.4001 17.984 19.1091 18.275 18.7501 18.275H5.2501C4.89111 18.275 4.6001 17.984 4.6001 17.625V6.37501C4.6001 6.01602 4.89111 5.72501 5.2501 5.72501Z" fill="#005C4B"/>
<path fill-rule="evenodd" clip-rule="evenodd" d="M18.0847 7.04039C18.3386 7.29423 18.3386 7.70578 18.0847 7.95963L12.4597 13.5846C12.2059 13.8385 11.7943 13.8385 11.5405 13.5846L9.7501 11.7942L5.70972 15.8346C5.45588 16.0885 5.04432 16.0885 4.79048 15.8346C4.53664 15.5808 4.53664 15.1692 4.79048 14.9154L9.29048 10.4154C9.54432 10.1615 9.95588 10.1615 10.2097 10.4154L12.0001 12.2058L17.1655 7.04039C17.4193 6.78655 17.8309 6.78655 18.0847 7.04039Z" fill="#005C4B"/>
<path fill-rule="evenodd" clip-rule="evenodd" d="M14.1626 7.50001C14.1626 7.14102 14.4536 6.85001 14.8126 6.85001H17.6251C17.9841 6.85001 18.2751 7.14102 18.2751 7.50001V10.3125C18.2751 10.6715 17.9841 10.9625 17.6251 10.9625C17.2661 10.9625 16.9751 10.6715 16.9751 10.3125V8.15001H14.8126C14.4536 8.15001 14.1626 7.85899 14.1626 7.50001Z" fill="#005C4B"/>
</svg>
