<svg width="24" height="24" viewBox="0 0 24 24" fill="none" xmlns="http://www.w3.org/2000/svg">
<rect width="24" height="24" rx="12" fill="#FFD5CD"/>
<path fill-rule="evenodd" clip-rule="evenodd" d="M13.3501 10C13.3501 9.64102 13.6411 9.35001 14.0001 9.35001H16.0001C16.3591 9.35001 16.6501 9.64102 16.6501 10C16.6501 10.359 16.3591 10.65 16.0001 10.65H14.0001C13.6411 10.65 13.3501 10.359 13.3501 10Z" fill="#5C0E00"/>
<path fill-rule="evenodd" clip-rule="evenodd" d="M7.3501 10C7.3501 9.64102 7.64111 9.35001 8.0001 9.35001H10.0001C10.3591 9.35001 10.6501 9.64102 10.6501 10C10.6501 10.359 10.3591 10.65 10.0001 10.65H8.0001C7.64111 10.65 7.3501 10.359 7.3501 10Z" fill="#5C0E00"/>
<path fill-rule="evenodd" clip-rule="evenodd" d="M9.0001 8.35001C9.35908 8.35001 9.6501 8.64102 9.6501 9.00001V11C9.6501 11.359 9.35908 11.65 9.0001 11.65C8.64111 11.65 8.3501 11.359 8.3501 11V9.00001C8.3501 8.64102 8.64111 8.35001 9.0001 8.35001Z" fill="#5C0E00"/>
<path fill-rule="evenodd" clip-rule="evenodd" d="M15.2503 6.35001C16.4072 6.35001 17.5227 6.78714 18.35 7.57462C19.1784 8.36314 19.6501 9.43964 19.6501 10.5693C19.6501 11.699 19.1784 12.7755 18.35 13.564C17.523 14.3511 16.4081 14.7882 15.2518 14.7886C15.2513 14.7886 15.2508 14.7886 15.2503 14.7886L10.8446 14.8054L7.9283 17.8741C7.91769 17.8858 7.90663 17.8971 7.89513 17.908C7.49174 18.2919 6.97465 18.5396 6.4206 18.6208C5.86665 18.7019 5.29881 18.6132 4.79833 18.3652C4.29752 18.1171 3.88675 17.7203 3.63123 17.2271C3.37541 16.7334 3.29052 16.172 3.39162 15.626L3.3938 15.6142L3.39391 15.6142L4.56825 9.86518C4.56913 9.85967 4.57008 9.85417 4.5711 9.84867C4.7538 8.86395 5.29385 7.97883 6.08756 7.34501C6.88037 6.71191 7.87715 6.36815 8.90262 6.36787L8.90177 6.36787L8.9036 7.01778L8.90355 6.36787M15.2503 6.35001V7.00001V6.35001ZM15.2503 7.65001L8.90543 7.66786L8.90364 7.66787C8.16622 7.66792 7.45653 7.91545 6.89877 8.36086C6.34867 8.80014 5.98254 9.40239 5.85408 10.0606C5.8523 10.0729 5.85016 10.0852 5.84765 10.0974L4.66893 15.8679C4.62246 16.1254 4.6623 16.3913 4.7855 16.6291C4.90985 16.8691 5.1146 17.0711 5.37554 17.2004C5.63683 17.3299 5.93734 17.3777 6.23222 17.3345C6.52091 17.2922 6.78392 17.1658 6.98623 16.9782L10.0935 13.7087C10.2156 13.5802 10.3849 13.5071 10.5622 13.5065L15.2479 13.4886L15.2503 13.4886C16.0825 13.4886 16.8745 13.1736 17.4537 12.6224C18.0317 12.0721 18.3501 11.3329 18.3501 10.5693C18.3501 9.80569 18.0317 9.06646 17.4537 8.51624C16.8747 7.96517 16.0831 7.65023 15.2512 7.65001C15.2509 7.65001 15.2506 7.65001 15.2503 7.65001Z" fill="#5C0E00"/>
<path fill-rule="evenodd" clip-rule="evenodd" d="M18.7744 9.3611C19.1273 9.29504 19.4669 9.52754 19.5329 9.88039L20.6129 15.6493C20.7035 16.1806 20.6281 16.7286 20.3964 17.2145C20.1647 17.7007 19.787 18.102 19.3146 18.3565C18.8418 18.6111 18.3008 18.704 17.771 18.6197C17.2414 18.5354 16.7551 18.2791 16.3813 17.8925C16.3697 17.8805 16.3587 17.8683 16.3483 17.8557L13.5099 14.5959C13.2742 14.3252 13.3025 13.9146 13.5733 13.6789C13.844 13.4431 14.2546 13.4715 14.4903 13.7423L17.3282 17.0015C17.5078 17.182 17.7344 17.2975 17.9753 17.3359C18.2216 17.3751 18.4745 17.3324 18.6982 17.2119C18.9223 17.0912 19.1074 16.8975 19.2229 16.6551C19.3379 16.4139 19.3766 16.1396 19.3321 15.8724L18.2551 10.1196C18.1891 9.76675 18.4216 9.42716 18.7744 9.3611Z" fill="#5C0E00"/>
</svg>
