<svg width="24" height="24" viewBox="0 0 24 24" fill="none" xmlns="http://www.w3.org/2000/svg">
<rect width="24" height="24" rx="12" fill="#D6EBFF"/>
<path fill-rule="evenodd" clip-rule="evenodd" d="M8.5201 8.61001C8.73549 8.8972 8.67729 9.30462 8.3901 9.52001L5.08343 12L8.3901 14.48C8.67729 14.6954 8.73549 15.1028 8.5201 15.39C8.30471 15.6772 7.89729 15.7354 7.6101 15.52L3.6101 12.52C3.44642 12.3973 3.3501 12.2046 3.3501 12C3.3501 11.7954 3.44642 11.6028 3.6101 11.48L7.6101 8.48001C7.89729 8.26462 8.30471 8.32283 8.5201 8.61001Z" fill="#002F5C"/>
<path fill-rule="evenodd" clip-rule="evenodd" d="M15.4801 8.61001C15.6955 8.32283 16.1029 8.26462 16.3901 8.48001L20.3901 11.48C20.5538 11.6028 20.6501 11.7954 20.6501 12C20.6501 12.2046 20.5538 12.3973 20.3901 12.52L16.3901 15.52C16.1029 15.7354 15.6955 15.6772 15.4801 15.39C15.2647 15.1028 15.3229 14.6954 15.6101 14.48L18.9168 12L15.6101 9.52001C15.3229 9.30462 15.2647 8.8972 15.4801 8.61001Z" fill="#002F5C"/>
<path fill-rule="evenodd" clip-rule="evenodd" d="M13.1574 7.36941C13.5057 7.45648 13.7174 7.80939 13.6304 8.15766L11.6304 16.1577C11.5433 16.5059 11.1904 16.7177 10.8421 16.6306C10.4938 16.5435 10.2821 16.1906 10.3692 15.8424L12.3692 7.84236C12.4562 7.49409 12.8091 7.28235 13.1574 7.36941Z" fill="#002F5C"/>
</svg>
