<svg width="24" height="24" viewBox="0 0 24 24" fill="none" xmlns="http://www.w3.org/2000/svg">
<rect width="24" height="24" rx="12" fill="#FFF6CD"/>
<path fill-rule="evenodd" clip-rule="evenodd" d="M5.0001 7.15001C4.8068 7.15001 4.65009 7.30671 4.6501 7.50001L4.65028 16.5C4.65028 16.6933 4.80698 16.85 5.00028 16.85H19.0001C19.1934 16.85 19.3501 16.6933 19.3501 16.5V7.50001C19.3501 7.30671 19.1934 7.15001 19.0001 7.15001L5.0001 7.15001ZM3.3501 7.50004C3.35008 6.58876 4.08882 5.85001 5.0001 5.85001L19.0001 5.85001C19.9113 5.85001 20.6501 6.58874 20.6501 7.50001V16.5C20.6501 17.4113 19.9113 18.15 19.0001 18.15H5.00028C4.08902 18.15 3.35029 17.4113 3.35028 16.5L3.3501 7.50004Z" fill="#5C4B00"/>
<path fill-rule="evenodd" clip-rule="evenodd" d="M3.3501 9.50001C3.3501 9.14102 3.64111 8.85001 4.0001 8.85001H20.0001C20.3591 8.85001 20.6501 9.14102 20.6501 9.50001C20.6501 9.85899 20.3591 10.15 20.0001 10.15H4.0001C3.64111 10.15 3.3501 9.85899 3.3501 9.50001Z" fill="#5C4B00"/>
<path fill-rule="evenodd" clip-rule="evenodd" d="M6.3501 14.3C6.3501 13.941 6.64111 13.65 7.0001 13.65H8.33343C8.69242 13.65 8.98343 13.941 8.98343 14.3C8.98343 14.659 8.69242 14.95 8.33343 14.95H7.0001C6.64111 14.95 6.3501 14.659 6.3501 14.3ZM9.31452 14.3C9.31452 13.941 9.60554 13.65 9.96452 13.65H14.1112C14.4702 13.65 14.7612 13.941 14.7612 14.3C14.7612 14.659 14.4702 14.95 14.1112 14.95H9.96452C9.60554 14.95 9.31452 14.659 9.31452 14.3Z" fill="#5C4B00"/>
</svg>
