<svg width="24" height="24" viewBox="0 0 24 24" fill="none" xmlns="http://www.w3.org/2000/svg">
<g clip-path="url(#clip0_8823_32902)">
<rect width="24" height="24" rx="12" fill="#F6CDFF"/>
<path fill-rule="evenodd" clip-rule="evenodd" d="M10.1722 13.113C10.4632 13.3232 10.5287 13.7295 10.3185 14.0205L8.54518 16.476L9.93281 19.358C10.0885 19.6814 9.95259 20.0699 9.62914 20.2256C9.30569 20.3813 8.91724 20.2454 8.76151 19.9219L7.20595 16.6912C7.10249 16.4763 7.12502 16.222 7.26466 16.0286L9.26466 13.2594C9.47485 12.9684 9.88115 12.9028 10.1722 13.113Z" fill="#4B005C"/>
<path fill-rule="evenodd" clip-rule="evenodd" d="M14.5639 13.113C14.8549 12.9028 15.2612 12.9684 15.4714 13.2594L17.4714 16.0286C17.6111 16.222 17.6336 16.4763 17.5301 16.6912L15.9746 19.9219C15.8188 20.2454 15.4304 20.3813 15.1069 20.2256C14.7835 20.0699 14.6475 19.6814 14.8033 19.358L16.1909 16.476L14.4175 14.0205C14.2074 13.7295 14.2729 13.3232 14.5639 13.113Z" fill="#4B005C"/>
<path fill-rule="evenodd" clip-rule="evenodd" d="M12.3021 3.70671C10.9102 3.70671 9.78193 4.83501 9.78193 6.22685C9.78193 7.61868 10.9102 8.74699 12.3021 8.74699C13.6939 8.74699 14.8222 7.61868 14.8222 6.22685C14.8222 4.83501 13.6939 3.70671 12.3021 3.70671ZM8.48193 6.22685C8.48193 4.11704 10.1923 2.40671 12.3021 2.40671C14.4119 2.40671 16.1222 4.11704 16.1222 6.22685C16.1222 8.33666 14.4119 10.047 12.3021 10.047C10.1923 10.047 8.48193 8.33666 8.48193 6.22685Z" fill="#4B005C"/>
<path fill-rule="evenodd" clip-rule="evenodd" d="M9.69093 7.6735C9.94825 7.58034 10.2364 7.65832 10.4116 7.86856C10.8473 8.39151 11.556 8.74701 12.3037 8.74701C12.999 8.74701 13.6827 8.44231 14.256 7.91676C14.446 7.74258 14.721 7.69714 14.957 7.80093C15.1929 7.90473 15.3452 8.13814 15.3452 8.39591V13.5C15.3452 13.859 15.0542 14.15 14.6952 14.15H9.91221C9.55322 14.15 9.26221 13.859 9.26221 13.5V8.28468C9.26221 8.01101 9.43361 7.76666 9.69093 7.6735ZM10.5622 9.61825V12.85H14.0452V9.6278C13.5129 9.89164 12.9246 10.047 12.3037 10.047C11.6851 10.047 11.0875 9.89052 10.5622 9.61825Z" fill="#4B005C"/>
<path fill-rule="evenodd" clip-rule="evenodd" d="M-4.71494 2.65001C-6.69038 2.65001 -8.2918 4.25142 -8.2918 6.22686C-8.2918 8.2023 -6.69038 9.80372 -4.71494 9.80372C-2.7395 9.80372 -1.13809 8.2023 -1.13809 6.22686C-1.13809 4.25142 -2.7395 2.65001 -4.71494 2.65001ZM-9.5918 6.22686C-9.5918 3.53345 -7.40835 1.35001 -4.71494 1.35001C-2.02153 1.35001 0.161914 3.53345 0.161914 6.22686C0.161914 8.92027 -2.02153 11.1037 -4.71494 11.1037C-7.40835 11.1037 -9.5918 8.92027 -9.5918 6.22686Z" fill="#4B005C"/>
<path fill-rule="evenodd" clip-rule="evenodd" d="M-1.96243 3.32575C-1.85304 3.10359 -1.62692 2.96289 -1.37929 2.96289H10.4114C10.6885 2.96289 10.9351 3.13855 11.0257 3.40043C11.1163 3.6623 11.0309 3.9528 10.813 4.124C10.163 4.63472 9.72661 5.40294 9.72661 6.22687C9.72661 6.81089 9.90408 7.33303 10.2516 7.76739C10.4077 7.9625 10.4381 8.22982 10.3299 8.45502C10.2216 8.68022 9.99387 8.82345 9.74401 8.82345H-0.989977C-1.22415 8.82345 -1.44023 8.69748 -1.55561 8.4937C-1.67099 8.28992 -1.66783 8.03983 -1.54735 7.83902C-1.28328 7.39891 -1.13943 6.85093 -1.13943 6.22687C-1.13943 5.37647 -1.42115 4.62455 -1.8945 4.0092C-2.04548 3.81292 -2.07182 3.54791 -1.96243 3.32575ZM-0.244775 4.26289C0.0152512 4.85955 0.160572 5.51985 0.160572 6.22687C0.160572 6.6737 0.104468 7.11015 -0.0115364 7.52345H8.64601C8.49939 7.11276 8.42661 6.67652 8.42661 6.22687C8.42661 5.50592 8.63791 4.8371 8.98278 4.26289H-0.244775Z" fill="#4B005C"/>
</g>
<defs>
<clipPath id="clip0_8823_32902">
<rect width="24" height="24" rx="12" fill="white"/>
</clipPath>
</defs>
</svg>
