<svg width="24" height="24" viewBox="0 0 24 24" fill="none" xmlns="http://www.w3.org/2000/svg">
<rect width="24" height="24" rx="12" fill="#FFD5CD"/>
<path fill-rule="evenodd" clip-rule="evenodd" d="M5.3501 5.00001C5.3501 4.64102 5.64111 4.35001 6.0001 4.35001H18.0001C18.3591 4.35001 18.6501 4.64102 18.6501 5.00001C18.6501 5.35899 18.3591 5.65001 18.0001 5.65001H17.6501V8.85001H18.0001C18.3591 8.85001 18.6501 9.14102 18.6501 9.50001C18.6501 9.85899 18.3591 10.15 18.0001 10.15H17.6501V13.85H18.0001C18.3591 13.85 18.6501 14.141 18.6501 14.5C18.6501 14.859 18.3591 15.15 18.0001 15.15H17.6501V18.35H18.0001C18.3591 18.35 18.6501 18.641 18.6501 19C18.6501 19.359 18.3591 19.65 18.0001 19.65H6.0001C5.64111 19.65 5.3501 19.359 5.3501 19C5.3501 18.641 5.64111 18.35 6.0001 18.35H6.3501V15.15H6.0001C5.64111 15.15 5.3501 14.859 5.3501 14.5C5.3501 14.141 5.64111 13.85 6.0001 13.85H6.3501V10.15H6.0001C5.64111 10.15 5.3501 9.85899 5.3501 9.50001C5.3501 9.14102 5.64111 8.85001 6.0001 8.85001H6.3501V5.65001H6.0001C5.64111 5.65001 5.3501 5.35899 5.3501 5.00001ZM7.6501 5.65001V8.85001H16.3501V5.65001H7.6501ZM16.3501 10.15H7.6501V13.85H16.3501V10.15ZM16.3501 15.15H7.6501V18.35H16.3501V15.15Z" fill="#5C0E00"/>
</svg>
