<svg width="24" height="24" viewBox="0 0 24 24" fill="none" xmlns="http://www.w3.org/2000/svg">
<rect width="24" height="24" rx="12" fill="#D6EBFF"/>
<path fill-rule="evenodd" clip-rule="evenodd" d="M11.5771 3.50649C11.8205 3.29785 12.1797 3.29785 12.4231 3.50649L19.4231 9.50649C19.6297 9.68351 19.7041 9.97041 19.6098 10.2255C19.5154 10.4806 19.2721 10.65 19.0001 10.65H5.00013C4.72812 10.65 4.48488 10.4806 4.3905 10.2255C4.29613 9.97041 4.37059 9.68351 4.57711 9.50649L11.5771 3.50649ZM6.75725 9.35001H17.243L12.0001 4.85611L6.75725 9.35001Z" fill="#002F5C"/>
<path fill-rule="evenodd" clip-rule="evenodd" d="M7.0001 9.35001C7.35908 9.35001 7.6501 9.64102 7.6501 10V18C7.6501 18.359 7.35908 18.65 7.0001 18.65C6.64111 18.65 6.3501 18.359 6.3501 18V10C6.3501 9.64102 6.64111 9.35001 7.0001 9.35001Z" fill="#002F5C"/>
<path fill-rule="evenodd" clip-rule="evenodd" d="M10.0001 9.35001C10.3591 9.35001 10.6501 9.64102 10.6501 10V18C10.6501 18.359 10.3591 18.65 10.0001 18.65C9.64111 18.65 9.3501 18.359 9.3501 18V10C9.3501 9.64102 9.64111 9.35001 10.0001 9.35001Z" fill="#002F5C"/>
<path fill-rule="evenodd" clip-rule="evenodd" d="M14.0001 9.35001C14.3591 9.35001 14.6501 9.64102 14.6501 10V18C14.6501 18.359 14.3591 18.65 14.0001 18.65C13.6411 18.65 13.3501 18.359 13.3501 18V10C13.3501 9.64102 13.6411 9.35001 14.0001 9.35001Z" fill="#002F5C"/>
<path fill-rule="evenodd" clip-rule="evenodd" d="M17.0001 9.35001C17.3591 9.35001 17.6501 9.64102 17.6501 10V18C17.6501 18.359 17.3591 18.65 17.0001 18.65C16.6411 18.65 16.3501 18.359 16.3501 18V10C16.3501 9.64102 16.6411 9.35001 17.0001 9.35001Z" fill="#002F5C"/>
<path fill-rule="evenodd" clip-rule="evenodd" d="M4.3501 18C4.3501 17.641 4.64111 17.35 5.0001 17.35L19.0001 17.35C19.3591 17.35 19.6501 17.641 19.6501 18C19.6501 18.359 19.3591 18.65 19.0001 18.65L5.0001 18.65C4.64111 18.65 4.3501 18.359 4.3501 18Z" fill="#002F5C"/>
</svg>
