<svg width="24" height="24" viewBox="0 0 24 24" fill="none" xmlns="http://www.w3.org/2000/svg">
<rect width="24" height="24" rx="12" fill="#CDFFD5"/>
<path fill-rule="evenodd" clip-rule="evenodd" d="M4.3501 13C4.3501 8.77503 7.77512 5.35001 12.0001 5.35001C16.2251 5.35001 19.6501 8.77503 19.6501 13C19.6501 13.2539 19.5023 13.4845 19.2717 13.5905C19.0411 13.6966 18.7698 13.6587 18.5771 13.4935C18.0989 13.0837 17.7005 12.7939 17.3784 12.6098C17.043 12.4182 16.8523 12.3773 16.7728 12.3773C16.6934 12.3773 16.5026 12.4182 16.1673 12.6098C15.8451 12.7939 15.4467 13.0837 14.9686 13.4935C14.7107 13.7146 14.3261 13.6998 14.0859 13.4596C13.3083 12.682 12.6154 12.3773 12.0001 12.3773C11.3848 12.3773 10.6919 12.682 9.91426 13.4596C9.67409 13.6998 9.28951 13.7146 9.03163 13.4935C8.55347 13.0837 8.15508 12.7939 7.83291 12.6098C7.49757 12.4182 7.3068 12.3773 7.22737 12.3773C7.14794 12.3773 6.95718 12.4182 6.62183 12.6098C6.29966 12.7939 5.90128 13.0837 5.42311 13.4935C5.23038 13.6587 4.95911 13.6966 4.72849 13.5905C4.49787 13.4845 4.3501 13.2539 4.3501 13ZM5.80926 11.5809C5.86594 11.5458 5.9218 11.5126 5.97685 11.4811C6.38393 11.2485 6.81185 11.0773 7.22737 11.0773C7.64289 11.0773 8.07081 11.2485 8.47789 11.4811C8.77264 11.6495 9.09077 11.8703 9.43105 12.1385C10.2292 11.4648 11.087 11.0773 12.0001 11.0773C12.9132 11.0773 13.771 11.4648 14.5692 12.1385C14.9094 11.8703 15.2275 11.6495 15.5223 11.4811C15.9294 11.2485 16.3573 11.0773 16.7728 11.0773C17.1883 11.0773 17.6163 11.2485 18.0233 11.4811C18.0784 11.5126 18.1343 11.5458 18.1909 11.5809C17.5463 8.75708 15.0193 6.65001 12.0001 6.65001C8.98092 6.65001 6.45388 8.75708 5.80926 11.5809Z" fill="#005C0E"/>
<path fill-rule="evenodd" clip-rule="evenodd" d="M12.0001 11.35C12.3591 11.35 12.6501 11.641 12.6501 12V17.0909C12.6501 17.7564 13.2324 18.35 14.0001 18.35C14.7678 18.35 15.3501 17.7564 15.3501 17.0909C15.3501 16.7319 15.6411 16.4409 16.0001 16.4409C16.3591 16.4409 16.6501 16.7319 16.6501 17.0909C16.6501 18.5342 15.4245 19.65 14.0001 19.65C12.5757 19.65 11.3501 18.5342 11.3501 17.0909V12C11.3501 11.641 11.6411 11.35 12.0001 11.35Z" fill="#005C0E"/>
<path fill-rule="evenodd" clip-rule="evenodd" d="M12.0001 4.35001C12.3591 4.35001 12.6501 4.64102 12.6501 5.00001V6.00001C12.6501 6.35899 12.3591 6.65001 12.0001 6.65001C11.6411 6.65001 11.3501 6.35899 11.3501 6.00001V5.00001C11.3501 4.64102 11.6411 4.35001 12.0001 4.35001Z" fill="#005C0E"/>
</svg>
