<svg width="24" height="24" viewBox="0 0 24 24" fill="none" xmlns="http://www.w3.org/2000/svg">
<rect width="24" height="24" rx="12" fill="#E7FFCD"/>
<path fill-rule="evenodd" clip-rule="evenodd" d="M14.2397 16.8565L19.2244 16.8565C20.0313 16.8565 20.6854 16.2024 20.6854 15.3955L20.6854 5.83722C20.6854 5.03017 20.031 4.37599 19.224 4.37622L4.77504 4.37849C3.96831 4.37872 3.31445 5.03276 3.31445 5.83949L3.31446 15.3955C3.31446 16.2024 3.96857 16.8565 4.77546 16.8565H9.54684L10.6979 16.857L13.0887 16.8566L14.2397 16.8565ZM19.3636 6.14564C19.3636 5.97445 19.2248 5.83568 19.0536 5.83573L4.98802 5.83799C4.81689 5.83804 4.6782 5.97678 4.6782 6.1479L4.6782 15.2403C4.6782 15.4115 4.81695 15.5503 4.98811 15.5503H13.6641L19.0537 15.5503C19.2249 15.5503 19.3636 15.4115 19.3636 15.2404L19.3636 6.14564Z" fill="#2F5C00"/>
<path d="M20 13.5861L4 13.5861" stroke="#2F5C00" stroke-width="1.3" stroke-linecap="round" stroke-linejoin="round"/>
<path d="M9.89259 16.5067C9.89259 16.5067 10.0017 19.6238 7.82617 19.6238H16.1736C13.9981 19.6238 14.1072 16.5067 14.1072 16.5067" stroke="#2F5C00" stroke-width="1.3" stroke-linecap="round" stroke-linejoin="round"/>
</svg>
