<svg width="24" height="24" viewBox="0 0 24 24" fill="none" xmlns="http://www.w3.org/2000/svg">
<rect width="24" height="24" rx="12" fill="#D5CDFF"/>
<path fill-rule="evenodd" clip-rule="evenodd" d="M14.5209 6.66574C14.2302 6.63652 13.9352 6.64787 13.6444 6.70084C13.0168 6.8152 12.4389 7.11813 11.9878 7.56925C11.5367 8.02037 11.2337 8.59827 11.1194 9.22592C11.005 9.85357 11.0846 10.5012 11.3477 11.0824C11.4592 11.3289 11.4064 11.6187 11.2151 11.81L6.85203 16.1731C6.72273 16.3024 6.6501 16.4777 6.6501 16.6606C6.6501 16.8434 6.72273 17.0188 6.85203 17.1481C6.98132 17.2774 7.15668 17.35 7.33953 17.35C7.52238 17.35 7.69774 17.2774 7.82703 17.1481L12.1901 12.785C12.3814 12.5937 12.6712 12.5409 12.9177 12.6524C13.4989 12.9155 14.1465 12.9951 14.7742 12.8807C15.4018 12.7664 15.9797 12.4635 16.4309 12.0123C16.882 11.5612 17.1849 10.9833 17.2993 10.3557C17.3522 10.0649 17.3636 9.76993 17.3344 9.47922L15.7377 11.0758C15.4982 11.3106 15.1761 11.4421 14.8407 11.4421C14.5053 11.4421 14.1833 11.3106 13.9437 11.0758L13.9391 11.0713L12.9243 10.0564C12.6895 9.81686 12.558 9.49479 12.558 9.15938C12.558 8.82396 12.6895 8.50192 12.9243 8.26239L12.9288 8.25774L14.5209 6.66574ZM13.4114 5.4219C14.299 5.26017 15.2149 5.3728 16.0369 5.74477C16.2313 5.83274 16.3701 6.01052 16.4084 6.22044C16.4466 6.43037 16.3794 6.64569 16.2285 6.79657L13.8657 9.15938L14.8407 10.1344L17.2035 7.77158C17.3544 7.6207 17.5697 7.55348 17.7797 7.59173C17.9896 7.62997 18.1674 7.76882 18.2553 7.96322C18.6273 8.78522 18.7399 9.70106 18.5782 10.5887C18.4165 11.4763 17.9881 12.2936 17.3501 12.9316C16.7121 13.5696 15.8948 13.998 15.0072 14.1597C14.2708 14.2939 13.5149 14.2392 12.8093 14.0042L8.74627 18.0673C8.37318 18.4404 7.86716 18.65 7.33953 18.65C6.8119 18.65 6.30588 18.4404 5.93279 18.0673C5.5597 17.6942 5.3501 17.1882 5.3501 16.6606C5.3501 16.1329 5.5597 15.6269 5.93279 15.2538L9.99586 11.1908C9.76091 10.4852 9.70624 9.72933 9.84042 8.99289C10.0022 8.10526 10.4306 7.28799 11.0685 6.65001C11.7065 6.01203 12.5238 5.58363 13.4114 5.4219Z" fill="#0E005C"/>
</svg>
