<svg width="24" height="24" viewBox="0 0 24 24" fill="none" xmlns="http://www.w3.org/2000/svg">
<rect width="24" height="24" rx="12" fill="#CDFFF6"/>
<path fill-rule="evenodd" clip-rule="evenodd" d="M4.52846 4.72571C4.63513 4.49655 4.86497 4.35001 5.11774 4.35001H18.8825C19.1352 4.35001 19.3651 4.49655 19.4717 4.72571L21.5894 9.27511C21.6294 9.36102 21.6501 9.45464 21.6501 9.54941H21.0001C21.6501 9.54941 21.6501 9.54917 21.6501 9.54941L21.6501 9.55043L21.6501 9.55182L21.6501 9.55572L21.65 9.56787L21.6493 9.609C21.6485 9.64364 21.6471 9.69249 21.6442 9.75353C21.6385 9.87544 21.6272 10.0469 21.6049 10.2518C21.5606 10.6581 21.471 11.2113 21.287 11.7735C21.0221 12.5827 20.504 13.5529 19.5325 13.9981V19C19.5325 19.359 19.2414 19.65 18.8825 19.65H5.11774C4.75876 19.65 4.46774 19.359 4.46774 19V13.8332C4.26909 13.7253 4.08654 13.5987 3.91957 13.457C3.36537 12.9867 3.0154 12.3774 2.79215 11.809C2.56819 11.2388 2.45918 10.6777 2.40523 10.2656C2.37803 10.0579 2.36429 9.88375 2.35732 9.75958C2.35383 9.6974 2.35203 9.64748 2.3511 9.61184C2.35063 9.59401 2.35038 9.57973 2.35025 9.56924L2.35012 9.55639L2.3501 9.55216L2.3501 9.55059C2.3501 9.55031 2.3501 9.54941 3.0001 9.54941H2.3501C2.3501 9.45464 2.37082 9.36102 2.41081 9.27511L4.52846 4.72571ZM4.01963 8.89941L5.53215 5.65001H18.468L19.9806 8.89941H4.01963ZM3.70855 10.1994C3.75751 10.5294 3.84569 10.9353 4.00217 11.3337C4.17597 11.7763 4.42159 12.178 4.76078 12.4659C5.08788 12.7435 5.53373 12.9433 6.17657 12.9433C6.81941 12.9433 7.26525 12.7435 7.59236 12.4659C7.93155 12.178 8.17717 11.7763 8.35097 11.3337C8.50745 10.9353 8.59562 10.5294 8.64459 10.1994H3.70855ZM9.30091 12.3692C9.08904 12.7583 8.80789 13.1393 8.43357 13.457C7.8673 13.9376 7.12196 14.2433 6.17657 14.2433C6.03589 14.2433 5.89964 14.2366 5.76775 14.2234V18.35H18.2325V14.2416C17.3434 14.2168 16.637 13.9171 16.0948 13.4571C15.6892 13.1129 15.393 12.6944 15.1759 12.2719C14.9587 12.6944 14.6626 13.1129 14.2571 13.457C13.6908 13.9376 12.9455 14.2433 12.0001 14.2433C10.5494 14.2433 9.74044 13.3077 9.30091 12.3692ZM15.8845 10.1994C15.9333 10.5294 16.0212 10.9355 16.1776 11.3339C16.3512 11.7764 16.5967 12.178 16.9359 12.4658C17.2631 12.7434 17.7093 12.9433 18.353 12.9433C19.2379 12.9433 19.7462 12.302 20.0515 11.3692C20.1863 10.9573 20.2613 10.5377 20.3024 10.1994H15.8845ZM14.4681 10.1994C14.4192 10.5294 14.331 10.9353 14.1745 11.3337C14.0007 11.7763 13.7551 12.178 13.4159 12.4659C13.0888 12.7435 12.6429 12.9433 12.0001 12.9433C11.1153 12.9433 10.607 12.302 10.3017 11.3692C10.1669 10.9573 10.0919 10.5377 10.0508 10.1994H14.4681Z" fill="#005C4B"/>
</svg>
