<svg width="24" height="24" viewBox="0 0 24 24" fill="none" xmlns="http://www.w3.org/2000/svg">
<rect width="24" height="24" rx="12" fill="#FFCDE7"/>
<path fill-rule="evenodd" clip-rule="evenodd" d="M4.3501 7.35463C4.3501 6.23805 5.25503 5.22481 6.46911 5.362C8.0584 5.54159 10.2748 6.02956 11.8949 7.1648L11.5446 7.66469L11.8949 7.1648C11.9567 7.20809 12.0435 7.20809 12.1053 7.1648L12.4783 7.69712L12.1053 7.1648C13.7254 6.02956 15.9418 5.54159 17.5311 5.362C18.7452 5.22481 19.6501 6.23805 19.6501 7.35463V15.24C19.6501 16.3889 18.7473 17.2856 17.6771 17.4065C16.1606 17.5779 14.2044 18.034 12.8513 18.9822C12.3417 19.3393 11.6585 19.3393 11.1489 18.9822C9.79578 18.034 7.83958 17.5779 6.32314 17.4065C5.2529 17.2856 4.3501 16.3889 4.3501 15.24V7.35463ZM6.32314 6.65378C6.00016 6.61729 5.6501 6.88759 5.6501 7.35463V15.24C5.6501 15.6746 6.00229 16.062 6.46911 16.1147C7.88659 16.2749 9.80291 16.6804 11.3501 17.5716V8.34791C11.2807 8.31415 11.2134 8.27465 11.1489 8.22944C9.79578 7.2813 7.83958 6.82514 6.32314 6.65378ZM12.6501 8.34791V17.5716C14.1973 16.6804 16.1136 16.2749 17.5311 16.1147C17.9979 16.062 18.3501 15.6746 18.3501 15.24V7.35463C18.3501 6.88759 18 6.61729 17.6771 6.65378C16.1606 6.82514 14.2044 7.2813 12.8513 8.22944C12.7868 8.27465 12.7195 8.31414 12.6501 8.34791Z" fill="#5C002F"/>
</svg>
