<svg width="24" height="24" viewBox="0 0 24 24" fill="none" xmlns="http://www.w3.org/2000/svg">
<rect width="24" height="24" rx="12" fill="#FFF6CD"/>
<path fill-rule="evenodd" clip-rule="evenodd" d="M4.3501 9.00001C4.3501 8.08874 5.08883 7.35001 6.0001 7.35001H18.0001C18.9114 7.35001 19.6501 8.08874 19.6501 9.00001V17C19.6501 17.9113 18.9114 18.65 18.0001 18.65H6.0001C5.08883 18.65 4.3501 17.9113 4.3501 17V9.00001ZM6.0001 8.65001C5.8068 8.65001 5.6501 8.80671 5.6501 9.00001V17C5.6501 17.1933 5.8068 17.35 6.0001 17.35H18.0001C18.1934 17.35 18.3501 17.1933 18.3501 17V9.00001C18.3501 8.80671 18.1934 8.65001 18.0001 8.65001H6.0001Z" fill="#5C4B00"/>
<path fill-rule="evenodd" clip-rule="evenodd" d="M8.93545 4.79356C9.28771 4.50001 9.74389 4.35001 10.2001 4.35001H13.8001C14.2563 4.35001 14.7125 4.50001 15.0647 4.79356C15.4205 5.08998 15.6501 5.52018 15.6501 6.00001V8.00001C15.6501 8.35899 15.3591 8.65001 15.0001 8.65001C14.6411 8.65001 14.3501 8.35899 14.3501 8.00001V6.00001C14.3501 5.9494 14.3269 5.87089 14.2325 5.79224C14.1347 5.71072 13.9804 5.65001 13.8001 5.65001H10.2001C10.0198 5.65001 9.86552 5.71072 9.76769 5.79224C9.67332 5.87089 9.6501 5.9494 9.6501 6.00001V8.00001C9.6501 8.35899 9.35908 8.65001 9.0001 8.65001C8.64111 8.65001 8.3501 8.35899 8.3501 8.00001V6.00001C8.3501 5.52018 8.57974 5.08998 8.93545 4.79356Z" fill="#5C4B00"/>
<path fill-rule="evenodd" clip-rule="evenodd" d="M12.0001 10.35C12.3591 10.35 12.6501 10.641 12.6501 11V15C12.6501 15.359 12.3591 15.65 12.0001 15.65C11.6411 15.65 11.3501 15.359 11.3501 15V11C11.3501 10.641 11.6411 10.35 12.0001 10.35Z" fill="#5C4B00"/>
<path fill-rule="evenodd" clip-rule="evenodd" d="M9.3501 13C9.3501 12.641 9.64111 12.35 10.0001 12.35H14.0001C14.3591 12.35 14.6501 12.641 14.6501 13C14.6501 13.359 14.3591 13.65 14.0001 13.65H10.0001C9.64111 13.65 9.3501 13.359 9.3501 13Z" fill="#5C4B00"/>
</svg>
