<svg width="24" height="24" viewBox="0 0 24 24" fill="none" xmlns="http://www.w3.org/2000/svg">
<rect width="24" height="24" rx="12" fill="#CDFFD5"/>
<path fill-rule="evenodd" clip-rule="evenodd" d="M16.4617 13.5565C16.5515 13.2089 16.906 12.9999 17.2536 13.0896C17.9391 13.2666 18.5464 13.6663 18.9802 14.2259C19.414 14.7854 19.6496 15.4732 19.6501 16.1812L19.6501 17.4544C19.6501 17.8134 19.3591 18.1044 19.0001 18.1044C18.6412 18.1044 18.3501 17.8134 18.3501 17.4544L18.3501 16.1822C18.3501 16.1821 18.3501 16.1822 18.3501 16.1822C18.3498 15.7623 18.21 15.3542 17.9528 15.0223C17.6955 14.6904 17.3352 14.4534 16.9286 14.3484C16.581 14.2586 16.372 13.9041 16.4617 13.5565Z" fill="#005C0E"/>
<path fill-rule="evenodd" clip-rule="evenodd" d="M5.28602 13.9222C5.88527 13.3229 6.69804 12.9863 7.54552 12.9863H12.6364C13.4839 12.9863 14.2966 13.3229 14.8959 13.9222C15.4951 14.5214 15.8318 15.3342 15.8318 16.1817V17.4544C15.8318 17.8134 15.5408 18.1044 15.1818 18.1044C14.8228 18.1044 14.5318 17.8134 14.5318 17.4544V16.1817C14.5318 15.679 14.3321 15.1969 13.9766 14.8414C13.6212 14.486 13.1391 14.2863 12.6364 14.2863H7.54552C7.04283 14.2863 6.56072 14.486 6.20526 14.8414C5.84979 15.1969 5.6501 15.679 5.6501 16.1817V17.4544C5.6501 17.8134 5.35908 18.1044 5.0001 18.1044C4.64111 18.1044 4.3501 17.8134 4.3501 17.4544V16.1817C4.3501 15.3342 4.68676 14.5214 5.28602 13.9222Z" fill="#005C0E"/>
<path fill-rule="evenodd" clip-rule="evenodd" d="M13.9145 5.92152C14.0036 5.57375 14.3577 5.36401 14.7054 5.45306C15.3928 5.62904 16.002 6.02879 16.4371 6.58928C16.8721 7.14976 17.1083 7.8391 17.1083 8.54862C17.1083 9.25815 16.8721 9.94749 16.4371 10.508C16.002 11.0685 15.3928 11.4682 14.7054 11.6442C14.3577 11.7332 14.0036 11.5235 13.9145 11.1757C13.8255 10.828 14.0352 10.4739 14.383 10.3848C14.7907 10.2804 15.1521 10.0433 15.4101 9.71085C15.6682 9.37838 15.8083 8.96949 15.8083 8.54862C15.8083 8.12776 15.6682 7.71886 15.4101 7.3864C15.1521 7.05394 14.7907 6.81682 14.383 6.71243C14.0352 6.62339 13.8255 6.26928 13.9145 5.92152Z" fill="#005C0E"/>
<path fill-rule="evenodd" clip-rule="evenodd" d="M10.0904 6.65001C9.04363 6.65001 8.19502 7.49862 8.19502 8.54543C8.19502 9.59225 9.04363 10.4409 10.0904 10.4409C11.1373 10.4409 11.9859 9.59225 11.9859 8.54543C11.9859 7.49862 11.1373 6.65001 10.0904 6.65001ZM6.89502 8.54543C6.89502 6.78065 8.32566 5.35001 10.0904 5.35001C11.8552 5.35001 13.2859 6.78065 13.2859 8.54543C13.2859 10.3102 11.8552 11.7409 10.0904 11.7409C8.32566 11.7409 6.89502 10.3102 6.89502 8.54543Z" fill="#005C0E"/>
</svg>
