<svg width="24" height="24" viewBox="0 0 24 24" fill="none" xmlns="http://www.w3.org/2000/svg">
<rect width="24" height="24" rx="12" fill="#D5CDFF"/>
<path fill-rule="evenodd" clip-rule="evenodd" d="M3.3501 7.00001C3.3501 6.64102 3.64111 6.35001 4.0001 6.35001H14.5456C14.9045 6.35001 15.1956 6.64102 15.1956 7.00001V8.85001H17.6624C17.8641 8.85001 18.0544 8.94363 18.1774 9.10343L20.5151 12.1391C20.6026 12.2528 20.6501 12.3923 20.6501 12.5357V15.5714C20.6501 15.9304 20.3591 16.2214 20.0001 16.2214H18C17.7225 17.0561 16.9252 17.65 16.0001 17.65C15.075 17.65 14.2777 17.0561 14.0001 16.2214H9.63641C9.3589 17.0561 8.56157 17.65 7.63646 17.65C6.71134 17.65 5.91402 17.0561 5.63651 16.2214H4.0001C3.64111 16.2214 3.3501 15.9304 3.3501 15.5714V7.00001ZM5.63651 14.9214C5.91402 14.0867 6.71134 13.4929 7.63646 13.4929C8.56157 13.4929 9.3589 14.0867 9.63641 14.9214H13.8956V7.65001H4.6501V14.9214H5.63651ZM15.1956 13.6506V10.15H17.3426L19.3501 12.757V14.9214H18C17.7225 14.0867 16.9252 13.4929 16.0001 13.4929C15.7161 13.4929 15.4441 13.5488 15.1956 13.6506ZM7.63646 14.7929C7.18104 14.7929 6.83192 15.1524 6.83192 15.5714C6.83192 15.9904 7.18104 16.35 7.63646 16.35C8.09188 16.35 8.44101 15.9904 8.44101 15.5714C8.44101 15.1524 8.09188 14.7929 7.63646 14.7929ZM16.0001 14.7929C15.5447 14.7929 15.1956 15.1524 15.1956 15.5714C15.1956 15.9904 15.5447 16.35 16.0001 16.35C16.4555 16.35 16.8046 15.9904 16.8046 15.5714C16.8046 15.1524 16.4555 14.7929 16.0001 14.7929Z" fill="#0E005C"/>
</svg>
