<svg width="24" height="24" viewBox="0 0 24 24" fill="none" xmlns="http://www.w3.org/2000/svg">
<rect width="24" height="24" rx="12" fill="#D6EBFF"/>
<path fill-rule="evenodd" clip-rule="evenodd" d="M5.15129 5.03609C5.10476 5.06095 4.93888 5.11046 4.78265 5.14611C4.53742 5.20199 4.49698 5.23032 4.48654 5.35338C4.47949 5.43617 4.51582 5.52611 4.57318 5.56792C4.65687 5.62898 4.60752 5.63712 4.24887 5.62149C4.01621 5.61137 3.76134 5.57804 3.68243 5.54751C3.52693 5.48727 3.17725 5.59019 3.17725 5.6962C3.17725 5.727 3.13918 5.73789 3.09265 5.72051C3.03393 5.69851 3.00804 5.72431 3.00804 5.80473C3.00804 5.86849 3.00455 5.93923 3.00021 5.96189C2.99592 5.98455 3.05937 6.03544 3.14121 6.07493C3.2231 6.11438 3.29005 6.1679 3.29005 6.19381C3.29005 6.21977 3.40793 6.23699 3.55198 6.2321C3.82518 6.2228 3.95457 6.32671 3.76004 6.39916C3.5566 6.47496 3.53342 6.53872 3.66061 6.67261C3.72761 6.74313 3.81272 6.80078 3.84977 6.80078C3.88683 6.80078 3.89879 6.82971 3.87634 6.86514C3.84972 6.90717 3.86523 6.91839 3.92112 6.89749C3.96884 6.87961 4.04752 6.91201 4.09901 6.97065C4.18553 7.06917 4.18423 7.07583 4.0791 7.07583C3.94543 7.07583 3.94227 7.09662 4.04707 7.28739C4.09112 7.3677 4.14058 7.47541 4.15699 7.52685C4.18401 7.61178 4.20194 7.61288 4.35485 7.53851C4.50956 7.4632 4.54464 7.46639 4.79483 7.57833C4.94435 7.64523 5.07864 7.70942 5.09325 7.72097C5.10786 7.73247 5.12405 7.87786 5.12918 8.04404C5.13493 8.23074 5.17244 8.38268 5.22737 8.44187C5.27774 8.49611 5.30295 8.58715 5.28558 8.65189C5.2646 8.73023 5.2972 8.79871 5.38941 8.86989C5.56285 9.00373 5.61964 9.14802 5.51434 9.18741C5.46978 9.20407 5.43329 9.25562 5.43329 9.30199C5.43329 9.36767 5.50346 9.38621 5.75258 9.38621C6.0316 9.38621 6.09025 9.40596 6.21789 9.5426C6.2982 9.62863 6.41467 9.72694 6.47671 9.76099C6.54693 9.79955 6.55962 9.82359 6.51027 9.82463C6.44953 9.8259 6.45483 9.85197 6.53311 9.9363C6.66701 10.0806 6.77846 10.0756 6.84157 9.92255C6.8696 9.85445 6.89465 9.82353 6.89713 9.85379C6.91625 10.0848 7.09064 10.7239 7.18979 10.9265C7.33429 11.2217 7.48629 11.5572 7.56982 11.7654C7.6498 11.9647 7.74726 11.9554 7.8939 11.7345C7.98888 11.5914 8.01235 11.4759 8.00671 11.1797C8.00073 10.8664 8.01669 10.7966 8.10479 10.7507C8.16265 10.7205 8.28956 10.6066 8.38679 10.4976C8.48403 10.3886 8.62069 10.2504 8.69046 10.1904C8.76022 10.1305 8.81736 10.0488 8.81736 10.0089C8.81736 9.96898 8.87449 9.93614 8.94426 9.93597C9.01403 9.93575 9.14042 9.90038 9.22508 9.85731C9.36834 9.78442 9.38396 9.78772 9.45069 9.90494C9.49011 9.97426 9.60664 10.1395 9.70962 10.2722C9.82998 10.4274 9.88836 10.5567 9.87308 10.6347C9.83985 10.8041 9.99152 10.8448 10.1195 10.7008L10.2238 10.5836L10.288 10.7412C10.3232 10.828 10.3832 10.9732 10.4213 11.064C10.4594 11.1548 10.4968 11.3756 10.5045 11.5548C10.5146 11.7905 10.5536 11.9274 10.6455 12.0499C10.7154 12.143 10.8027 12.323 10.8397 12.45C10.9016 12.6626 11.1246 12.9068 11.2568 12.9068C11.2885 12.9068 11.2951 12.8539 11.2721 12.783C11.2501 12.7149 11.2189 12.591 11.2027 12.5075C11.1865 12.4241 11.0967 12.2931 11.0031 12.2163C10.7316 11.9934 10.6112 11.7151 10.6533 11.4078C10.6731 11.2641 10.7122 11.1465 10.7403 11.1465C10.7684 11.1465 10.7914 11.1713 10.7914 11.2015C10.7914 11.2318 10.8207 11.2565 10.8566 11.2565C10.9536 11.2565 11.3554 11.6744 11.3554 11.7753C11.3554 11.8488 11.3732 11.8517 11.4682 11.7938C11.5303 11.7561 11.581 11.6998 11.581 11.6689C11.581 11.638 11.6361 11.5882 11.7033 11.5584C12.0296 11.4135 11.979 11.0396 11.577 10.625C11.4241 10.4672 11.299 10.3197 11.299 10.2971C11.299 10.2744 11.3515 10.184 11.4156 10.096C11.5422 9.92271 11.8066 9.87045 11.8066 10.0188C11.8066 10.0642 11.832 10.1013 11.863 10.1013C11.894 10.1013 11.9194 10.0642 11.9194 10.0188C11.9194 9.97343 11.9575 9.93322 12.004 9.92942C12.182 9.91496 12.2067 9.9072 12.2458 9.85379C12.2679 9.82353 12.3495 9.79047 12.427 9.78035C12.6522 9.75097 12.9223 9.45569 13.0182 9.13421C13.1273 8.76791 13.1261 8.67109 13.0124 8.67109C12.9417 8.67109 12.9353 8.65409 12.9844 8.59644C13.0335 8.53874 13.0086 8.47306 12.8752 8.30764C12.7802 8.18987 12.649 8.05317 12.5836 8.00388L12.4647 7.91422L12.6151 7.76757C12.6978 7.68692 12.7654 7.61255 12.7654 7.60232C12.7654 7.55259 12.4822 7.53911 12.4336 7.58653C12.3969 7.62229 12.3481 7.61178 12.2907 7.55578C12.2427 7.50897 12.1721 7.4605 12.1338 7.44807C12.0893 7.4336 12.1271 7.35967 12.2388 7.24327C12.4068 7.06785 12.5831 7.05135 12.5179 7.21714C12.4824 7.30763 12.5736 7.37618 12.6239 7.29674C12.6887 7.19448 12.9357 7.23398 12.9811 7.35384C13.0047 7.416 13.0844 7.49643 13.1582 7.53262C13.2388 7.57217 13.324 7.69132 13.3717 7.83138L13.4511 8.06434L13.6159 7.98122C13.7065 7.93556 13.7807 7.87445 13.7807 7.84551C13.7807 7.81658 13.6653 7.67543 13.5242 7.53185C13.3105 7.31429 13.2769 7.25224 13.3224 7.15955C13.4353 6.92983 13.4452 6.74638 13.3523 6.60803C13.2643 6.477 13.2654 6.47073 13.3758 6.47073C13.4777 6.47073 13.4877 6.44592 13.4596 6.26444C13.4172 5.99143 13.3844 5.96497 13.1809 6.03984C13.0305 6.09523 12.9939 6.08847 12.8887 5.98582C12.8225 5.92124 12.6979 5.85138 12.6117 5.83053C12.5257 5.80968 12.341 5.69922 12.2014 5.58508C11.9177 5.35316 11.7084 5.26052 11.4679 5.26052C11.2974 5.26052 11.2005 5.33869 11.2981 5.3975C11.3716 5.44183 11.3729 5.73855 11.2997 5.78267C11.2692 5.8011 11.1543 5.79202 11.0445 5.76243C10.8943 5.722 10.8067 5.72805 10.6912 5.7868C10.4946 5.8868 10.3473 5.88592 10.0951 5.78311C9.98373 5.73773 9.79338 5.7006 9.67212 5.7006C9.5508 5.7006 9.4222 5.66605 9.38628 5.62386C9.35035 5.58161 9.22971 5.5304 9.1182 5.50999C8.87895 5.4662 8.76242 5.54223 8.87179 5.67078C8.93456 5.74449 8.9177 5.75561 8.74297 5.75561C8.63248 5.75561 8.52633 5.73085 8.50715 5.7006C8.4512 5.61231 8.21319 5.6369 7.98894 5.75412C7.77022 5.86843 7.59402 5.85765 7.36982 5.71616C7.30271 5.67375 7.14597 5.6292 7.0216 5.61715C6.86769 5.60219 6.6995 5.52424 6.4951 5.37307C6.17147 5.13378 6.11276 5.11492 6.00858 5.21652C5.95596 5.26784 5.92584 5.26784 5.87322 5.21652C5.836 5.18021 5.74987 5.15051 5.68185 5.15051C5.61383 5.15051 5.54576 5.11904 5.53064 5.08053C5.49815 4.99802 5.27199 4.97151 5.15129 5.03609ZM6.41563 6.32534C6.37936 6.41748 6.27931 6.45153 6.27931 6.37171C6.27931 6.31818 6.40514 6.19007 6.43199 6.21625C6.44253 6.22654 6.43515 6.27561 6.41563 6.32534ZM14.583 6.55857C14.6268 6.6522 14.6254 6.70853 14.5779 6.76436C14.5274 6.82372 14.5322 6.85716 14.5991 6.91135C14.6468 6.94991 14.7021 6.96559 14.722 6.94617C14.742 6.9267 14.7223 6.91041 14.6784 6.90997C14.6106 6.90926 14.6109 6.90145 14.68 6.85876C14.7249 6.83109 14.801 6.82828 14.8492 6.85254C14.9063 6.88126 14.9743 6.86118 15.0439 6.79511C15.1491 6.69538 15.1491 6.69302 15.0439 6.66227C14.985 6.64505 14.8437 6.58564 14.7298 6.5303L14.5228 6.42963L14.583 6.55857ZM14.7553 7.13832C14.7726 7.20983 14.8035 7.32034 14.8239 7.38393C14.8712 7.53103 14.6944 7.7317 14.6193 7.61624C14.5869 7.56623 14.5717 7.58895 14.5711 7.68857C14.5704 7.80943 14.5386 7.83952 14.3813 7.86829C14.158 7.90916 13.8408 8.21473 13.971 8.26347C14.0153 8.28009 14.0644 8.34142 14.08 8.39984C14.0957 8.45826 14.1363 8.50606 14.1702 8.50606C14.267 8.50606 14.2423 8.24218 14.1403 8.18652C14.0649 8.14531 14.0809 8.12556 14.2312 8.07446C14.3917 8.01989 14.4051 8.02242 14.3429 8.09553C14.2563 8.1973 14.2953 8.24603 14.4244 8.19768C14.4772 8.17799 14.507 8.12788 14.4907 8.0864C14.449 7.98051 14.5151 7.9925 14.6054 8.10725C14.6765 8.19757 14.6833 8.19636 14.7148 8.08777C14.7389 8.00477 14.787 7.97616 14.8849 7.98667C14.96 7.9947 15.0215 7.97726 15.0215 7.94789C15.0215 7.91851 15.0504 7.91191 15.0857 7.9332C15.1321 7.96114 15.138 7.91257 15.107 7.75766C15.0834 7.63983 15.0584 7.48152 15.0516 7.40588C15.0334 7.20499 15.0345 7.2068 14.8727 7.10339C14.7254 7.00926 14.7242 7.00959 14.7553 7.13832ZM13.1651 9.50646C13.1232 9.58776 13.1059 9.69707 13.1265 9.74943C13.187 9.90335 13.284 9.75582 13.2612 9.54447L13.2411 9.3587L13.1651 9.50646ZM11.7482 10.2412C11.6961 10.3024 11.6931 10.3427 11.7375 10.386C11.8264 10.4727 11.9758 10.3988 11.9758 10.2681C11.9758 10.1359 11.8504 10.1211 11.7482 10.2412ZM13.3228 10.4176C13.2896 10.6238 13.3086 10.8691 13.367 10.9882C13.4059 11.0676 13.4254 11.1445 13.4104 11.1592C13.3954 11.1738 13.4254 11.2201 13.4772 11.262C13.5614 11.3301 13.5671 11.3251 13.5311 11.2146C13.4987 11.1149 13.5107 11.094 13.5935 11.1066C13.74 11.1288 13.8439 11.2012 13.8089 11.2565C13.7923 11.2826 13.8024 11.3181 13.8312 11.3355C13.86 11.3528 13.875 11.3236 13.8646 11.2705C13.8542 11.2175 13.8438 11.1579 13.8414 11.1381C13.839 11.1184 13.7609 11.0764 13.6679 11.0447C13.4955 10.9861 13.4523 10.8629 13.551 10.7109C13.5838 10.6604 13.5713 10.5878 13.5155 10.5047C13.431 10.3788 13.3359 10.3359 13.3228 10.4176ZM13.9764 11.4353C14.0031 11.6583 13.9435 11.7006 13.8262 11.542C13.7036 11.3763 13.6115 11.3468 13.6115 11.4733C13.6115 11.5362 13.6483 11.5866 13.6943 11.5866C13.7421 11.5866 13.7643 11.6191 13.7468 11.6635C13.7302 11.7058 13.7437 11.7568 13.7768 11.7768C13.8099 11.7968 13.8371 11.7772 13.8371 11.7334C13.8371 11.6897 13.8779 11.6573 13.928 11.6614C14.0611 11.6727 14.1292 11.455 14.0315 11.3307C13.9592 11.2385 13.954 11.2483 13.9764 11.4353ZM8.03874 11.9536C8.05651 12.2193 8.11037 12.2809 8.24974 12.195C8.31906 12.1522 8.31584 12.1127 8.22706 11.9208C8.09001 11.6244 8.01759 11.637 8.03874 11.9536ZM13.0966 11.7929C13.0265 11.8801 13.0285 11.882 13.1179 11.8137C13.2119 11.7418 13.2417 11.6966 13.1953 11.6966C13.1837 11.6966 13.1392 11.7399 13.0966 11.7929ZM14.0404 11.8112C13.9817 11.8674 13.9108 11.8996 13.8829 11.8827C13.8204 11.8451 13.6675 11.9623 13.6687 12.0471C13.6693 12.0868 13.6845 12.0894 13.711 12.0542C13.7852 11.9556 13.9499 11.9775 13.9499 12.0858C13.9499 12.1419 14.003 12.2155 14.068 12.2495C14.1734 12.3045 14.1821 12.2988 14.1488 12.1964C14.1217 12.113 14.1359 12.0817 14.201 12.0817C14.2698 12.0817 14.282 12.0468 14.2539 11.9304C14.2023 11.7168 14.1623 11.6946 14.0404 11.8112ZM12.8782 12.2742C12.8367 12.3498 12.7699 12.4117 12.7297 12.4117C12.6895 12.4117 12.6288 12.4624 12.5948 12.5244C12.5608 12.5863 12.4711 12.66 12.3954 12.688C12.3198 12.7161 12.2578 12.7794 12.2578 12.8289C12.2578 12.8972 12.2241 12.9105 12.1168 12.8842C11.9927 12.8538 11.9758 12.8673 11.9758 12.9973C11.9758 13.221 12.1477 13.5546 12.2809 13.5895C12.3458 13.6065 12.4687 13.6208 12.5539 13.6211C12.6392 13.6216 12.709 13.6467 12.709 13.6769C12.709 13.7072 12.7281 13.7315 12.7513 13.7311C12.8518 13.7291 12.9298 13.6357 12.9582 13.4836C12.9749 13.3937 13.0145 13.3117 13.0462 13.3014C13.0779 13.2911 13.1038 13.2229 13.1038 13.1498C13.1038 13.0682 13.1366 13.0168 13.1884 13.0168C13.235 13.0168 13.273 12.9921 13.273 12.9618C13.273 12.9315 13.2497 12.9068 13.2211 12.9068C13.1926 12.9068 13.1521 12.8309 13.1312 12.7381C13.1036 12.6152 13.1203 12.5402 13.1927 12.4621C13.2882 12.3592 13.2873 12.3503 13.1722 12.2457C13.0158 12.1037 12.9694 12.1081 12.8782 12.2742ZM10.1146 12.3415C10.1146 12.3557 10.2159 12.4796 10.3398 12.6168C10.4637 12.7541 10.6004 12.9312 10.6437 13.0104C10.6871 13.0895 10.7758 13.2519 10.841 13.3712C10.9818 13.6288 11.2906 13.952 11.3961 13.952C11.4373 13.952 11.4951 14.0139 11.5246 14.0895C11.5541 14.1651 11.5893 14.227 11.6028 14.227C11.6164 14.227 11.8264 14.2641 12.0696 14.3095C12.3127 14.3549 12.5878 14.3895 12.6808 14.3863C12.8439 14.3807 12.8419 14.3779 12.6244 14.308C12.5004 14.2681 12.4242 14.232 12.4552 14.2277C12.4863 14.2235 12.4524 14.1969 12.38 14.1686C12.3077 14.1403 12.1885 14.1318 12.1152 14.1498C12.0354 14.1693 11.9304 14.1472 11.8535 14.0947C11.7829 14.0465 11.68 14.007 11.6248 14.007C11.5482 14.007 11.5246 13.9624 11.5246 13.8177C11.5246 13.7136 11.5476 13.6145 11.5757 13.5976C11.6038 13.5807 11.6136 13.5176 11.5975 13.4574C11.5814 13.3973 11.5445 13.3624 11.5155 13.3799C11.4845 13.3986 11.4909 13.4493 11.5313 13.503C11.569 13.5533 11.5237 13.5197 11.4306 13.4284C11.3376 13.3371 11.2453 13.1998 11.2256 13.1233C11.2037 13.0384 11.1025 12.9361 10.9661 12.8614C10.8431 12.794 10.674 12.659 10.5902 12.5615C10.4638 12.4142 10.1146 12.2527 10.1146 12.3415ZM14.4463 13.0482C14.4339 13.152 14.4307 13.2368 14.4391 13.2368C14.4477 13.2368 14.4927 13.165 14.5393 13.0772C14.6101 12.9435 14.6113 12.9128 14.5464 12.8885C14.4922 12.8682 14.4621 12.9161 14.4463 13.0482ZM14.0343 12.962C14.0099 13.0005 13.9156 13.0123 13.7889 12.9926C13.6758 12.975 13.5452 12.9853 13.4987 13.0154C13.4375 13.055 13.5028 13.0704 13.735 13.071C14.019 13.0717 14.1842 13.007 14.1021 12.927C14.0866 12.9119 14.0561 12.9276 14.0343 12.962ZM15.0242 13.234C14.9791 13.2619 14.9157 13.2717 14.8832 13.2559C14.8506 13.2402 14.8875 13.2778 14.9651 13.3396C15.0426 13.4014 15.1568 13.4621 15.2189 13.4744C15.3236 13.4953 15.3229 13.4974 15.2101 13.5044C15.1192 13.51 15.0956 13.5387 15.1169 13.6181C15.1326 13.6765 15.1873 13.7216 15.2385 13.7183C15.2898 13.7151 15.4497 13.7638 15.594 13.8267C15.8872 13.9544 15.9836 14.1216 15.8431 14.2586C15.7169 14.3818 15.7326 14.4055 15.9149 14.3665C16.0247 14.343 16.0979 14.3589 16.1474 14.4171C16.2496 14.5372 16.4723 14.5232 16.5443 14.392C16.6305 14.2349 16.7762 14.2552 16.9391 14.447C17.0167 14.5383 17.1626 14.6358 17.2634 14.6637C17.4756 14.7224 17.5039 14.6613 17.3193 14.5433C17.2493 14.4985 17.1552 14.3951 17.1104 14.3134C17.0407 14.1863 17.0404 14.158 17.108 14.1172C17.1693 14.0802 17.153 14.0544 17.0349 14.0019C16.9512 13.9647 16.8827 13.903 16.8827 13.8646C16.8827 13.7954 16.3368 13.5137 16.1953 13.51C16.1546 13.5089 16.0579 13.4737 15.9803 13.4317C15.852 13.3623 15.8222 13.3681 15.6499 13.496C15.4514 13.6434 15.3628 13.6109 15.3607 13.39C15.3603 13.3382 15.3108 13.2701 15.2508 13.2388C15.1202 13.1706 15.1268 13.1708 15.0242 13.234ZM13.335 13.41C13.2897 13.5366 13.2901 13.6031 13.3361 13.6573C13.3708 13.698 13.3858 13.781 13.3696 13.8417C13.3533 13.9023 13.3603 13.952 13.3851 13.952C13.446 13.952 13.4979 13.8098 13.5022 13.6312L13.5058 13.4844L13.5675 13.6219C13.6014 13.6975 13.6241 13.7811 13.6179 13.8075C13.6118 13.8339 13.6447 13.8413 13.6909 13.824C13.7478 13.8027 13.7648 13.8182 13.7435 13.8723C13.7263 13.9161 13.7403 13.952 13.7746 13.952C13.8623 13.952 13.8523 13.8336 13.7473 13.6283C13.6765 13.4899 13.6719 13.4359 13.7255 13.3729C13.7628 13.329 13.816 13.3067 13.8434 13.3232C13.871 13.3398 13.8935 13.3271 13.8935 13.2951C13.8935 13.2218 13.8043 13.2206 13.6676 13.292C13.597 13.3289 13.5503 13.3289 13.527 13.292C13.4642 13.193 13.398 13.2337 13.335 13.41ZM11.7784 13.5669C11.7976 13.5972 11.8244 13.6219 11.8381 13.6219C11.8519 13.6219 11.863 13.5972 11.863 13.5669C11.863 13.5366 11.8361 13.5119 11.8033 13.5119C11.7705 13.5119 11.7592 13.5366 11.7784 13.5669ZM14.2601 13.6219C14.2409 13.6522 14.2663 13.6769 14.3165 13.6769C14.3667 13.6769 14.392 13.6522 14.3729 13.6219C14.3537 13.5917 14.3283 13.5669 14.3165 13.5669C14.3046 13.5669 14.2792 13.5917 14.2601 13.6219ZM14.5139 13.5882C14.5139 13.5999 14.59 13.6203 14.6831 13.6336C14.7761 13.6469 14.8523 13.6374 14.8523 13.6124C14.8523 13.5874 14.7761 13.5669 14.6831 13.5669C14.59 13.5669 14.5139 13.5765 14.5139 13.5882ZM17.6159 13.8695C17.5773 13.9148 17.4664 13.9536 17.3693 13.9557C17.2007 13.9592 17.1986 13.9621 17.3207 14.0195C17.462 14.0859 17.6979 13.9997 17.7522 13.8617C17.7916 13.7615 17.7035 13.7665 17.6159 13.8695ZM15.3411 13.9887C15.3204 14.0088 15.3035 14.0509 15.3035 14.0822C15.3035 14.1166 15.3298 14.1134 15.3702 14.0739C15.4069 14.0381 15.4238 13.996 15.4078 13.9804C15.3918 13.9647 15.3617 13.9685 15.3411 13.9887ZM18.0671 13.997C18.0671 14.0635 18.1741 14.141 18.2133 14.1029C18.2274 14.089 18.2004 14.0464 18.1531 14.0081C18.0995 13.9647 18.0671 13.9605 18.0671 13.997ZM12.8782 14.4041C12.8782 14.4259 12.9672 14.4404 13.0759 14.4364C13.1846 14.4325 13.2586 14.4146 13.2404 14.3969C13.1929 14.3505 12.8782 14.3568 12.8782 14.4041ZM13.4108 14.3972C13.3934 14.4246 13.4442 14.447 13.5235 14.447C13.6963 14.447 13.7103 14.4157 13.5551 14.3761C13.4931 14.3603 13.4282 14.3698 13.4108 14.3972ZM13.991 14.3756C14.0431 14.4124 14.0313 14.4488 13.9433 14.5223C13.879 14.576 13.8413 14.6345 13.8596 14.6523C13.8778 14.6702 13.9378 14.645 13.993 14.5963C14.0481 14.5477 14.1561 14.4834 14.2331 14.4534C14.3642 14.4024 14.3653 14.3988 14.2506 14.3955C14.1833 14.3936 14.0818 14.3774 14.025 14.3594C13.956 14.3375 13.9447 14.3429 13.991 14.3756ZM13.3306 14.5859C13.3698 14.632 13.4135 14.6584 13.4278 14.6446C13.4668 14.6064 13.3874 14.5021 13.3192 14.5021C13.2818 14.5021 13.2861 14.5336 13.3306 14.5859ZM16.2939 14.8362C16.2702 14.9096 16.2399 15.0191 16.2267 15.0797C16.1618 15.375 16.0884 15.5876 16.0194 15.6795C15.9474 15.7756 15.9282 15.7701 15.65 15.5751C15.3427 15.3598 15.3143 15.2538 15.5125 15.0605C15.5755 14.9991 15.5781 14.9717 15.5243 14.9392C15.486 14.9162 15.423 14.9092 15.3842 14.9237C15.3454 14.9382 15.2359 14.9109 15.1409 14.863C14.9978 14.7908 14.9734 14.7894 14.9991 14.8546C15.0196 14.9067 14.9858 14.9395 14.8998 14.9515C14.8272 14.9616 14.7191 15.0479 14.6558 15.1463C14.5298 15.342 14.4494 15.3678 14.3456 15.2458C14.2909 15.1815 14.2513 15.1776 14.1566 15.227C14.0002 15.3087 13.8935 15.4147 13.8935 15.4883C13.8935 15.5207 13.8539 15.5472 13.8055 15.5472C13.7527 15.5472 13.7339 15.573 13.7584 15.6116C13.786 15.6551 13.7682 15.6643 13.7035 15.6401C13.6367 15.6152 13.5932 15.6414 13.5592 15.7271C13.4821 15.9219 13.2676 16.0751 12.9628 16.153C12.8077 16.1928 12.6145 16.2699 12.5335 16.3247C12.4524 16.3794 12.37 16.4083 12.3502 16.3891C12.3304 16.3698 12.3142 16.4062 12.3142 16.47C12.3142 16.5338 12.2866 16.6026 12.2528 16.623C12.2158 16.6453 12.2055 16.7341 12.2271 16.8463C12.2468 16.9487 12.2425 17.0325 12.2177 17.0325C12.1927 17.0325 12.1816 17.2308 12.1929 17.4733C12.2088 17.8151 12.1926 17.9451 12.1205 18.0524C12.0693 18.1285 12.0428 18.2148 12.0614 18.2442C12.1108 18.3222 12.3768 18.306 12.5398 18.2152C12.6174 18.1719 12.7769 18.1357 12.8943 18.1346C13.0117 18.1335 13.1714 18.092 13.2491 18.0423C13.3269 17.9927 13.4846 17.9319 13.5997 17.9073C13.7147 17.8827 13.8782 17.8463 13.9629 17.8264C14.277 17.7526 14.5703 17.917 14.5703 18.1669V18.3033L14.7677 18.1564C14.9534 18.0182 15.0452 18.0325 14.8974 18.1767C14.8448 18.228 14.8461 18.2427 14.9034 18.2427C14.944 18.2427 14.9635 18.2774 14.9468 18.3198C14.9301 18.3622 14.9337 18.4139 14.9549 18.4347C14.976 18.4555 14.9933 18.5361 14.9933 18.6138C14.9933 18.7859 15.257 18.9026 15.4205 18.8029C15.4965 18.7566 15.5264 18.7616 15.5513 18.8248C15.5796 18.897 15.6033 18.8966 15.7509 18.8222C15.843 18.7758 15.9659 18.7378 16.0241 18.7378C16.0862 18.7378 16.2532 18.5895 16.4287 18.3784C16.5931 18.1808 16.7732 17.9954 16.829 17.9662C16.9738 17.8906 17.2574 17.3746 17.2972 17.1142C17.3226 16.9483 17.3041 16.8533 17.2229 16.7325C17.1634 16.6441 17.1276 16.5515 17.1433 16.5267C17.159 16.5019 17.1322 16.4668 17.0837 16.4486C17.0352 16.4305 16.9955 16.3676 16.9955 16.309C16.9955 16.2503 16.9309 16.1394 16.852 16.0623C16.748 15.961 16.7003 15.8441 16.6788 15.6385C16.6615 15.4727 16.6118 15.3266 16.5594 15.2871C16.51 15.2499 16.463 15.1632 16.455 15.0946C16.4469 15.0259 16.4171 14.9096 16.3887 14.8362L16.337 14.7027L16.2939 14.8362ZM14.7289 14.8697C14.7696 14.8856 14.8183 14.8836 14.837 14.8653C14.8557 14.8471 14.8224 14.8341 14.763 14.8365C14.6973 14.8391 14.6839 14.8521 14.7289 14.8697ZM20.8308 15.7673C20.8308 15.7975 20.8689 15.8223 20.9154 15.8223C20.9619 15.8223 21 15.7975 21 15.7673C21 15.737 20.9619 15.7123 20.9154 15.7123C20.8689 15.7123 20.8308 15.737 20.8308 15.7673ZM19.026 16.193C19.026 16.2566 19.2426 16.4544 19.2763 16.4217C19.2894 16.4088 19.2385 16.3403 19.1631 16.2695C19.0877 16.1987 19.026 16.1643 19.026 16.193ZM19.308 18.483C19.308 18.6829 19.2803 18.751 19.1622 18.8416C19.0821 18.9031 19.0338 18.9807 19.055 19.0141C19.0761 19.0475 19.0489 19.1227 18.9945 19.1813C18.9402 19.2399 18.9216 19.2879 18.9532 19.2879C19.0236 19.2879 19.3192 19.0708 19.3813 18.9735C19.4061 18.9346 19.4592 18.9028 19.4994 18.9028C19.5396 18.9028 19.6168 18.855 19.671 18.7966C19.7657 18.6946 19.7648 18.6916 19.649 18.7211C19.4999 18.7592 19.373 18.6086 19.4072 18.4342C19.4205 18.3662 19.4036 18.2938 19.3697 18.2734C19.3285 18.2486 19.308 18.3183 19.308 18.483ZM18.5466 19.2701C18.4535 19.3462 18.2251 19.4791 18.0389 19.5655C17.8528 19.6519 17.629 19.77 17.5415 19.8279C17.409 19.9156 17.398 19.9391 17.4756 19.9681C17.6572 20.0361 17.7772 20.0007 18.0107 19.8104C18.1407 19.7045 18.2933 19.6179 18.3498 19.6179C18.4063 19.6179 18.461 19.5984 18.4714 19.5747C18.4817 19.5509 18.5726 19.4749 18.6735 19.4059C18.7743 19.3369 18.8568 19.2558 18.8568 19.2259C18.8568 19.1959 18.8335 19.1853 18.8052 19.2024C18.7768 19.2195 18.7451 19.2106 18.7346 19.1827C18.7243 19.1547 18.6396 19.194 18.5466 19.2701ZM15.224 19.3591C15.2052 19.4506 15.2042 19.5394 15.2217 19.5565C15.27 19.6036 15.5349 19.4405 15.6235 19.3091C15.6987 19.1975 15.6929 19.1929 15.48 19.1929C15.2782 19.1929 15.255 19.2079 15.224 19.3591Z" fill="#002F5C"/>
</svg>
