<svg width="24" height="24" viewBox="0 0 24 24" fill="none" xmlns="http://www.w3.org/2000/svg">
<rect width="24" height="24" rx="12" fill="#FFCDE7"/>
<path fill-rule="evenodd" clip-rule="evenodd" d="M14.2993 2.21315C14.3677 2.33801 14.3717 2.39407 14.3096 2.35647C14.2535 2.32265 14.1796 2.33917 14.1454 2.3932C14.0418 2.55682 13.8995 2.50309 13.9576 2.32226C14.0093 2.16192 14.0048 2.16192 13.8706 2.32071C13.7927 2.41292 13.6964 2.4565 13.6565 2.41765C13.6166 2.3787 13.6146 2.46588 13.652 2.61153C13.7025 2.80801 13.6791 2.89151 13.5611 2.93578C13.3744 3.00565 13.3465 3.42365 13.5247 3.48164C13.6214 3.51315 13.6219 3.57578 13.5268 3.77961C13.4135 4.02248 13.4212 4.03775 13.6575 4.03775C13.7956 4.03775 13.883 4.07825 13.8517 4.12773C13.7615 4.27028 13.9904 4.35582 14.1393 4.2352C14.3276 4.08259 14.7676 4.20659 15.1945 4.53278C15.391 4.68287 15.5784 4.77981 15.6108 4.74811C15.6433 4.71631 15.7485 4.71989 15.8446 4.75584C15.965 4.80097 15.9833 4.84302 15.9036 4.89115C15.8276 4.93696 15.8195 5.00993 15.88 5.10338C15.9575 5.22303 15.9726 5.21878 15.9738 5.07671C15.9746 4.98364 16.0203 4.90758 16.0753 4.90758C16.1891 4.90758 16.5133 5.2529 16.532 5.39391C16.5389 5.44542 16.5506 5.54187 16.5582 5.60827C16.5679 5.69235 16.6013 5.68501 16.6681 5.58411C16.7446 5.46852 16.7643 5.4864 16.7656 5.67273C16.7664 5.80118 16.7961 5.87792 16.8315 5.84332C16.8669 5.80872 16.9594 5.85588 17.0368 5.94808C17.1143 6.04019 17.1494 6.06135 17.1149 5.99486C17.0805 5.92846 17.0995 5.87405 17.1571 5.87405C17.2147 5.87405 17.2624 5.92846 17.263 5.99486C17.2648 6.18207 18.0346 6.51125 18.1673 6.38164C18.227 6.32336 18.3371 6.29872 18.4121 6.32684C18.6207 6.40503 18.575 6.24266 18.301 5.93146C18.1649 5.77702 18.0537 5.59435 18.0537 5.52554C18.0537 5.45673 17.9841 5.3624 17.8991 5.31591C17.8086 5.26653 17.7415 5.09411 17.7373 4.90042C17.7333 4.71834 17.6772 4.46058 17.6125 4.32769C17.5477 4.1948 17.512 4.01243 17.533 3.92255C17.554 3.83257 17.5027 3.63686 17.4191 3.48763C17.2691 3.21992 17.2663 3.21915 17.2035 3.4337C17.1317 3.67929 17.0576 3.70296 16.8858 3.53518C16.7117 3.36509 16.7395 3.2838 16.9898 3.23142C17.1176 3.20465 17.0643 3.18967 16.8647 3.19615C16.4346 3.21016 16.1839 3.08867 16.3854 2.964C16.4921 2.89799 16.4867 2.88059 16.3585 2.87943C16.27 2.87866 16.1412 2.81178 16.0724 2.73079C16.0036 2.64989 15.8698 2.60766 15.7751 2.63704C15.6731 2.66874 15.5794 2.63086 15.5454 2.54426C15.5138 2.46385 15.4282 2.42036 15.3553 2.44771C15.2042 2.50434 14.536 2.25451 14.4422 2.10625C14.3183 1.91035 14.1871 2.00845 14.2993 2.21315ZM12.8825 3.04383C12.7256 3.06702 12.6104 3.14521 12.6104 3.22833C12.6104 3.30768 12.5689 3.34759 12.5182 3.31705C12.384 3.23606 12.2733 3.45729 12.3907 3.57191C12.4574 3.63705 12.567 3.62961 12.7235 3.54939C12.9499 3.43322 12.9517 3.43525 12.785 3.61907C12.6523 3.76511 12.64 3.83469 12.7305 3.92313C12.7951 3.98614 12.8113 4.03775 12.7666 4.03775C12.7217 4.03775 12.7434 4.10627 12.8146 4.19007C12.9217 4.31619 12.9201 4.35688 12.8049 4.42647C12.5848 4.55916 12.74 4.61966 13.0607 4.52611C13.2213 4.47924 13.2748 4.43719 13.1795 4.43265C12.9756 4.42289 12.958 4.31967 13.13 4.14165C13.2218 4.04664 13.224 4.00286 13.1386 3.97213C13.0528 3.9412 13.0555 3.87045 13.1495 3.69359C13.2187 3.56321 13.2543 3.34808 13.2282 3.21557C13.2023 3.08307 13.1752 2.98111 13.1679 2.98913C13.1607 2.99705 13.0322 3.0217 12.8825 3.04383ZM12.1155 3.6298C12.1155 3.7941 12.3352 4.23105 12.4178 4.23105C12.6076 4.23105 12.5706 3.9383 12.3558 3.74124C12.2236 3.62004 12.1155 3.56988 12.1155 3.6298ZM11.6932 4.14638C11.7604 4.21249 11.8403 4.24216 11.8707 4.21239C11.9012 4.18263 11.8462 4.1286 11.7487 4.09226C11.6076 4.03988 11.5963 4.05089 11.6932 4.14638ZM6.37218 4.39438C6.31627 4.5437 6.24679 4.73091 6.21779 4.81025C6.17642 4.92362 6.12407 4.90284 5.97403 4.71361C5.81222 4.50949 5.76798 4.4948 5.68484 4.61763C5.54233 4.82804 5.56173 5.0021 5.73492 5.06704C5.86596 5.11605 5.86279 5.1405 5.71167 5.24845C5.59122 5.33447 5.48146 5.34423 5.35854 5.28006C5.26047 5.22874 5.09766 5.2124 4.99671 5.24372C4.72049 5.32935 4.56135 5.94074 4.72406 6.29099C4.83688 6.53357 4.633 6.74388 4.28493 6.74388C4.12826 6.74388 4.0001 6.77654 4 6.81636C3.9999 6.92142 5.02799 6.83685 5.09925 6.726C5.1322 6.67458 5.35488 6.61485 5.59409 6.5932C5.88813 6.56653 5.95127 6.57755 5.78886 6.62732C5.49849 6.71633 5.37814 6.96462 5.64734 6.91958C5.74838 6.90267 5.86526 6.84536 5.90713 6.7922C5.9869 6.69101 6.27371 6.98443 6.27945 7.17309C6.28123 7.22943 6.40366 7.35826 6.55161 7.45945C6.69967 7.56064 6.76776 7.58722 6.70304 7.51851C6.6102 7.41992 6.71026 7.2332 7.17759 6.6338C7.5033 6.21589 7.79209 5.87405 7.8193 5.87405C7.84652 5.87405 7.59752 6.22198 7.26607 6.64723C6.93462 7.07248 6.70986 7.42041 6.76677 7.42041C6.82368 7.42041 6.87019 7.50739 6.87019 7.6137C6.87019 7.77984 6.99094 7.84479 7.26607 7.82662C7.35029 7.82111 7.31803 9.20084 7.23074 9.3347C7.18551 9.40419 7.18175 9.57816 7.22242 9.72129C7.2631 9.86443 7.30071 10.1193 7.30595 10.2875C7.31189 10.4759 7.40116 10.666 7.53823 10.7821C7.66066 10.8858 7.76091 11.0164 7.76091 11.0721C7.76091 11.1279 7.88334 11.221 8.03308 11.2789L8.30524 11.3841L8.03308 11.3334C7.82158 11.2939 7.76091 11.3196 7.76091 11.4488C7.76091 11.578 7.73449 11.5891 7.64215 11.4989C7.45708 11.3182 7.36504 11.361 7.36504 11.6277C7.36504 11.7623 7.29289 12.0341 7.20461 12.2317C6.86376 12.9953 6.75044 13.88 6.96174 14.1287C7.01934 14.1965 7.0427 14.275 7.0136 14.3033C6.91216 14.4024 7.30655 15.2027 7.58198 15.4567C7.73479 15.5976 7.85988 15.7608 7.85988 15.8192C7.85988 15.8776 7.96865 15.9254 8.10166 15.9254C8.31811 15.9254 9.04751 16.2696 9.04751 16.3718C9.04751 16.3942 8.87114 16.3247 8.65559 16.2173C8.07108 15.9261 7.92025 15.9533 7.99735 16.3361C8.03209 16.5088 8.15224 16.7724 8.26437 16.9217C8.42015 17.1291 8.44192 17.2242 8.35651 17.3246C8.26882 17.4279 8.30435 17.4838 8.52248 17.5856C8.6928 17.6651 8.81345 17.8072 8.83463 17.9532C8.87599 18.2386 9.34441 18.8242 9.34441 18.5906C9.34441 18.5068 9.30077 18.4382 9.24733 18.4382C9.19398 18.4382 9.12203 18.3186 9.08749 18.1724C9.05305 18.0262 8.87164 17.6291 8.68449 17.2898C8.4823 16.9235 8.35631 16.5703 8.37412 16.42L8.40421 16.167L8.62689 16.3844C8.74941 16.504 8.84957 16.6925 8.84957 16.8031C8.84957 16.9138 9.00545 17.19 9.19596 17.4171C9.38648 17.6442 9.54374 17.869 9.54552 17.9166C9.5472 17.9642 9.70674 18.1555 9.89993 18.3416C10.33 18.7556 10.5508 19.1478 10.4699 19.3538C10.3843 19.5716 10.6862 19.862 11.286 20.1391C12.0776 20.5048 12.7681 20.6772 13.1565 20.6061C13.3986 20.5617 13.5759 20.5901 13.7489 20.7008C13.8848 20.7877 13.9959 20.833 13.9959 20.8014C13.9959 20.7698 14.0659 20.8123 14.1514 20.8959C14.3429 21.0828 15.1828 21.108 15.1851 20.9269C15.1861 20.845 15.2204 20.8527 15.2915 20.951C15.3682 21.0569 15.4098 21.0642 15.4456 20.9785C15.4727 20.9139 15.6945 20.7635 15.9387 20.6445C16.3153 20.4607 16.3536 20.4174 16.1908 20.3586C15.954 20.2731 15.1869 20.4453 14.9856 20.6291C14.8544 20.749 14.8542 20.775 14.9843 20.8536C15.0994 20.9231 15.0837 20.939 14.9125 20.9264C14.7073 20.9113 14.7029 20.896 14.8417 20.689C14.9234 20.5673 14.9447 20.4678 14.8889 20.4678C14.8332 20.4678 14.7877 20.3808 14.7877 20.2745C14.7877 20.1457 14.7217 20.0812 14.5898 20.0812C14.3801 20.0812 14.3236 20.2219 14.4924 20.3238C14.5477 20.3572 14.5707 20.4198 14.5434 20.4628C14.4696 20.5794 14.0949 20.6567 14.0949 20.5554C14.0949 20.5072 14.1951 20.4664 14.3176 20.4649C14.513 20.4623 14.5196 20.4501 14.3712 20.3656C14.1684 20.2502 14.2453 19.9846 14.4817 19.9846C14.8133 19.9846 15.182 19.7473 15.1828 19.5334C15.1832 19.4181 15.2106 19.2551 15.2436 19.171C15.2826 19.0718 15.2495 19.0181 15.1493 19.0181C14.8266 19.0181 14.493 19.2503 14.3937 19.5441C14.31 19.7917 14.2113 19.8692 13.8633 19.96C13.265 20.1163 13.0587 20.033 12.7028 19.4915C12.4309 19.0775 12.3996 18.9621 12.4505 18.5595C12.4824 18.3068 12.5085 17.9817 12.5086 17.8373C12.5087 17.6558 12.5934 17.5219 12.7823 17.4046C12.9326 17.3111 13.0858 17.1927 13.1226 17.1416C13.1595 17.0904 13.4489 17.0411 13.7659 17.0319C14.5201 17.0102 14.5652 17.001 14.4037 16.901C14.3087 16.8423 14.4269 16.7831 14.7921 16.7067C15.1429 16.6332 15.3497 16.6289 15.4162 16.6937C15.4825 16.7585 15.5594 16.7549 15.6482 16.6829C15.7486 16.6016 15.8291 16.6177 15.9772 16.7485C16.085 16.8438 16.1733 16.9744 16.1733 17.0387C16.1733 17.103 16.3062 17.3028 16.4686 17.4828L16.7639 17.81L16.7655 17.4927C16.7664 17.3182 16.6547 16.959 16.5176 16.6945C16.2828 16.2422 16.2771 16.1966 16.4204 15.9259C16.5042 15.7676 16.7033 15.4929 16.8628 15.3155C17.2612 14.8724 17.3058 14.5501 17.0115 14.24C16.8823 14.1039 16.8216 13.9924 16.8766 13.9924C16.9317 13.9924 16.9511 13.9519 16.9198 13.9024C16.8884 13.853 16.9092 13.7845 16.9658 13.7503C17.0225 13.7161 17.0567 13.7403 17.0417 13.8041C17.0268 13.8678 17.0656 13.9384 17.128 13.9609C17.1905 13.9834 17.2392 13.9454 17.2362 13.8764C17.2134 13.3477 17.2805 13.1591 17.5557 12.9791C17.7441 12.8559 17.8148 12.754 17.7533 12.694C17.5934 12.5378 17.6455 12.2774 17.893 11.9965L18.1282 11.7294L17.9268 11.4634C17.6886 11.1487 17.5588 11.1898 17.5588 11.58C17.5588 11.8125 17.4883 11.8974 17.159 12.0615C16.9342 12.1734 16.717 12.3688 16.663 12.5077C16.61 12.6435 16.4782 12.7773 16.37 12.8049C16.2618 12.8326 16.1733 12.9078 16.1733 12.972C16.1733 13.145 15.7423 13.5092 15.5376 13.5092C15.3972 13.5092 15.3732 13.4582 15.4227 13.2654C15.4666 13.0946 15.4402 13.0048 15.3345 12.9652C15.2515 12.934 15.1836 12.8309 15.1836 12.736C15.1836 12.4975 14.9105 12.4152 14.7983 12.6199C14.7481 12.7117 14.7117 12.9479 14.7174 13.1449C14.7363 13.7963 14.5134 13.7719 14.3892 13.1089C14.2918 12.588 14.3332 12.4945 14.7192 12.3643L15.0351 12.2578L14.6887 12.292C14.4982 12.3109 14.2671 12.2879 14.1752 12.241C14.073 12.1888 13.9841 12.1933 13.9467 12.2525C13.8739 12.3674 13.5011 12.3837 13.5011 12.2721C13.5011 12.2296 13.5545 12.1426 13.6199 12.0788C13.7122 11.9886 13.6683 11.9628 13.4219 11.9628C13.2477 11.9628 13.1052 11.9239 13.1052 11.8763C13.1052 11.8283 13.2517 11.8221 13.4353 11.8626C13.6599 11.9121 13.8239 11.8934 13.949 11.804C14.1637 11.6508 14.4908 11.63 14.4908 11.7695C14.4908 11.8227 14.5528 11.8662 14.6287 11.8662C14.7045 11.8662 14.7922 11.9314 14.8235 12.0112C14.8572 12.0969 15.0058 12.1561 15.1869 12.1561C15.5325 12.1561 15.8764 12.3058 15.8764 12.4564C15.8764 12.5115 15.8096 12.6218 15.7279 12.7015C15.6463 12.7812 15.5794 12.9294 15.5794 13.0308C15.5794 13.1914 15.6107 13.2012 15.8223 13.107C15.9558 13.0476 16.0619 12.9725 16.058 12.94C16.0348 12.7479 16.0917 12.6394 16.2155 12.6394C16.2933 12.6394 16.4425 12.5331 16.5472 12.4031C16.6519 12.2731 16.9 12.0911 17.0987 11.9986C17.405 11.8559 17.4599 11.7826 17.4599 11.5157C17.4599 11.3426 17.4146 11.1738 17.3593 11.1404C17.2942 11.1011 17.3089 10.9883 17.4011 10.8206C17.4793 10.6781 17.5676 10.4855 17.5973 10.3926C17.627 10.2997 17.8533 10.128 18.1 10.0109C18.3466 9.89381 18.5485 9.73405 18.5485 9.65576C18.5485 9.57758 18.6184 9.43821 18.7037 9.34611C18.8345 9.2049 18.8386 9.14672 18.7294 8.97604C18.6582 8.86461 18.4992 8.77347 18.3762 8.77347C18.2533 8.77347 18.1525 8.7408 18.1524 8.70098C18.1522 8.66117 18.0218 8.62405 17.8625 8.61855C17.6785 8.61226 17.4586 8.49716 17.2599 8.30318C16.9255 7.97661 16.4913 7.70252 16.6131 7.89485C16.7407 8.09665 16.5661 8.38688 16.317 8.38688C16.1475 8.38688 16.0607 8.31962 16.0187 8.1558C15.9554 7.90964 15.5473 7.75307 15.0853 7.79782C14.7486 7.83039 14.7356 7.85996 14.9303 8.1501C15.0234 8.28888 15.0763 8.46198 15.0477 8.53475C15.0191 8.60743 15.1248 8.80189 15.2825 8.96677C15.5795 9.27729 15.5835 9.44353 15.3016 9.76411C15.2198 9.85718 15.1996 9.93324 15.2566 9.93324C15.4512 9.93324 15.6407 10.6581 15.4726 10.7595C15.3187 10.8524 14.8977 10.479 14.7818 10.1469C14.6962 9.90154 14.6291 9.842 14.4879 9.88579C14.387 9.9171 14.0916 9.83988 13.8288 9.71356C13.5669 9.58763 13.2785 9.50103 13.1879 9.52113C13.0878 9.54327 12.9978 9.47958 12.9586 9.35886C12.923 9.24956 12.8241 9.16006 12.7387 9.16006C12.3798 9.16006 12.9153 7.62984 13.2784 7.61776C13.4523 7.61206 13.4337 7.32376 13.2595 7.32376C13.181 7.32376 13.092 7.28433 13.0615 7.2361C13.0309 7.18797 13.0871 7.16922 13.1862 7.19454C13.2864 7.22006 13.4294 7.16487 13.508 7.07035C13.6265 6.9278 13.6269 6.9134 13.5105 6.98192C13.4133 7.03904 13.394 7.02812 13.4464 6.94548C13.4874 6.88054 13.5806 6.84961 13.6532 6.87686C13.8477 6.94974 13.8806 6.74156 13.7234 6.43383C13.5255 6.04647 13.3335 6.08513 13.3833 6.50226C13.4271 6.86759 13.2603 6.97206 13.1542 6.64578C13.1195 6.53869 13.0477 6.47723 12.9948 6.50922C12.8596 6.59079 12.6104 6.36705 12.6104 6.16399C12.6104 6.07073 12.5436 5.94025 12.4619 5.87405C12.3376 5.77334 12.3135 5.78823 12.3135 5.96577C12.3135 6.08242 12.3764 6.23928 12.4533 6.31438C12.5649 6.4233 12.5699 6.50004 12.4781 6.69285C12.4002 6.85637 12.3526 6.88817 12.331 6.79094C12.3134 6.71189 12.2551 6.64723 12.2014 6.64723C12.1478 6.64723 12.1255 6.68154 12.1521 6.72339C12.2413 6.8644 11.6879 6.84246 11.4588 6.69584C11.1355 6.48892 11.0334 6.51521 11.0849 6.7922C11.1095 6.92509 11.0843 7.03382 11.0289 7.03382C10.9733 7.03382 10.9279 6.96858 10.9279 6.88885C10.9279 6.80341 10.8366 6.7433 10.7052 6.74243C10.4423 6.74069 10.081 6.55493 10.3341 6.55155C10.5391 6.54884 9.93664 6.07527 9.72257 6.07082C9.63123 6.06889 9.49712 6.00936 9.42458 5.93851C9.35193 5.86758 9.22635 5.80466 9.14529 5.79867C9.06433 5.79267 8.85551 5.77885 8.68122 5.76803C8.50704 5.75711 8.33909 5.68365 8.30801 5.60469C8.26031 5.48311 8.21785 5.48901 8.031 5.64345C7.81099 5.82524 7.81089 5.82524 7.98359 5.6248C8.21825 5.35264 8.20449 5.27832 7.85988 4.9559C7.69658 4.8031 7.56298 4.59927 7.56298 4.50291C7.56298 4.33446 7.5029 4.31378 6.9172 4.28063C6.80695 4.27444 6.66216 4.23636 6.59536 4.19606C6.51598 4.14812 6.43879 4.21674 6.37218 4.39438ZM10.6339 4.42057C10.5538 4.47005 10.5125 4.53413 10.5421 4.56303C10.5717 4.59202 10.6818 4.5522 10.7867 4.47469C10.9953 4.32054 10.8685 4.2756 10.6339 4.42057ZM11.2248 4.77063C11.2248 4.90439 11.1993 4.91057 11.0722 4.80755C10.948 4.70694 10.8972 4.70732 10.8 4.80987C10.7127 4.90207 10.7119 4.91869 10.7974 4.87182C10.8616 4.83664 10.9419 4.85133 10.9755 4.90468C11.0335 4.9962 11.3689 4.99437 11.4597 4.90197C11.4828 4.87849 11.4395 4.8032 11.3633 4.73467C11.249 4.63175 11.2248 4.63803 11.2248 4.77063ZM12.433 4.76154C12.4502 4.86718 12.5452 4.96895 12.6441 4.9875C12.9034 5.03631 13.3032 4.92178 13.3032 4.79875C13.3032 4.73574 13.2337 4.7223 13.13 4.76522C12.8765 4.86988 12.5914 4.83867 12.4902 4.69495C12.427 4.60507 12.4107 4.62392 12.433 4.76154ZM11.8818 4.85925C11.9131 4.93899 11.9563 5.00422 11.9777 5.00422C11.9991 5.00422 12.0166 4.93899 12.0166 4.85925C12.0166 4.77952 11.9734 4.71428 11.9207 4.71428C11.868 4.71428 11.8505 4.77952 11.8818 4.85925ZM10.0372 5.05554C10.0372 5.13702 9.97534 5.2268 9.89973 5.25512C9.81996 5.28498 9.78324 5.38559 9.81244 5.49452C9.86153 5.67786 9.87142 5.67728 10.2222 5.47151C10.4198 5.35554 10.6005 5.24594 10.6238 5.22806C10.6879 5.17867 10.3021 4.91415 10.1609 4.91067C10.0929 4.90893 10.0372 4.97417 10.0372 5.05554ZM12.8825 5.25328C12.8418 5.29349 12.8083 5.42783 12.8083 5.55192C12.8083 5.71729 12.8643 5.7774 13.0183 5.7774C13.174 5.7774 13.2024 5.74609 13.128 5.65659C13.0728 5.5902 13.0116 5.45576 12.9922 5.35795C12.9727 5.26015 12.9233 5.21308 12.8825 5.25328ZM13.2366 5.54787C13.2829 5.82708 13.2623 5.87405 13.0932 5.87405C12.7771 5.87405 12.9594 6.02279 13.3073 6.0486C13.4811 6.06155 13.6819 6.02472 13.7535 5.96664C13.8505 5.88806 13.9919 5.91996 14.3083 6.0918C14.6342 6.26885 14.7485 6.39662 14.7998 6.64143C14.8549 6.90499 14.8339 6.96877 14.6786 7.0084C14.3758 7.08572 14.4603 7.25727 14.7714 7.19648C14.9311 7.16526 15.1703 7.20169 15.327 7.28104C15.4783 7.35768 15.6972 7.41905 15.8134 7.41732C16.0093 7.41451 16.0122 7.40494 15.8532 7.28694C15.6626 7.14564 15.7187 7.01787 15.9355 7.09915C16.0118 7.12776 16.0743 7.10833 16.0743 7.05595C16.0743 6.94481 15.7617 6.67265 15.7159 6.74388C15.6988 6.77045 15.5832 6.70638 15.4589 6.60142C15.2427 6.41866 15.2413 6.40899 15.4272 6.37294C15.534 6.35217 15.6379 6.38367 15.6581 6.44292C15.7193 6.6221 15.8764 6.56363 15.8764 6.36164C15.8764 6.2214 15.7849 6.15597 15.5215 6.10774C15.3263 6.07198 15.0555 5.94219 14.9198 5.81935C14.784 5.69651 14.6098 5.61977 14.5325 5.64877C14.4551 5.67776 14.3918 5.65466 14.3918 5.59745C14.3918 5.54033 14.3296 5.51684 14.2535 5.54535C14.1774 5.57386 14.0327 5.51211 13.9318 5.40802C13.831 5.30402 13.6212 5.21955 13.4654 5.22033C13.1993 5.22158 13.1856 5.2413 13.2366 5.54787ZM11.888 5.45499C11.9306 5.56314 11.9133 5.5929 11.8355 5.54593C11.6672 5.44436 11.6933 5.63572 11.8669 5.77644C11.9848 5.87202 12.0227 5.86951 12.0566 5.76416C12.1341 5.52283 12.0841 5.29417 11.9537 5.29417C11.8742 5.29417 11.849 5.35573 11.888 5.45499ZM12.3135 5.49432C12.3135 5.67235 12.33 5.67844 12.4619 5.54961C12.5436 5.46987 12.6104 5.3798 12.6104 5.34935C12.6104 5.319 12.5436 5.29417 12.4619 5.29417C12.3777 5.29417 12.3135 5.38086 12.3135 5.49432ZM13.7485 5.39081C13.7822 5.44397 13.7402 5.48746 13.6554 5.48746C13.5706 5.48746 13.5011 5.44397 13.5011 5.39081C13.5011 5.33766 13.543 5.29417 13.5942 5.29417C13.6455 5.29417 13.7149 5.33766 13.7485 5.39081ZM10.3877 5.48089C10.3518 5.53762 10.3476 5.62393 10.3783 5.67254C10.4091 5.72115 10.3783 5.78291 10.31 5.80988C10.2416 5.83674 10.2832 5.86226 10.4025 5.86642C10.7238 5.87772 10.7904 6.06735 10.4731 6.06735C10.211 6.06735 10.2088 6.07208 10.383 6.26006C10.5212 6.40909 10.6702 6.44804 11.0416 6.43229C11.3057 6.42107 11.5217 6.37787 11.5217 6.33631C11.5217 6.29466 11.5984 6.26064 11.6923 6.26064C11.8323 6.26064 11.8235 6.23387 11.6428 6.11016C11.52 6.02627 11.4228 5.85791 11.4228 5.72927C11.4228 5.60257 11.3782 5.472 11.3238 5.43914C11.2694 5.40628 11.2248 5.47209 11.2248 5.58527C11.2248 5.77247 11.2107 5.7774 11.0693 5.63929C10.9837 5.55579 10.8761 5.48746 10.8299 5.48746C10.7839 5.48746 10.6802 5.46272 10.5996 5.43257C10.5191 5.40231 10.4237 5.42406 10.3877 5.48089ZM12.0166 6.45393C12.0166 6.50709 12.086 6.55058 12.1709 6.55058C12.2557 6.55058 12.2976 6.50709 12.264 6.45393C12.2303 6.40078 12.161 6.35729 12.1097 6.35729C12.0584 6.35729 12.0166 6.40078 12.0166 6.45393ZM14.3423 6.45393C14.376 6.50709 14.4231 6.55058 14.4471 6.55058C14.4712 6.55058 14.4908 6.50709 14.4908 6.45393C14.4908 6.40078 14.4436 6.35729 14.386 6.35729C14.3284 6.35729 14.3087 6.40078 14.3423 6.45393ZM9.88874 6.93717C9.88874 7.01691 9.83312 7.07132 9.76503 7.05798C9.69704 7.04464 9.64132 7.07702 9.64132 7.12989C9.64132 7.18266 9.54116 7.20769 9.41864 7.18536C9.29612 7.16304 9.17369 7.1409 9.14648 7.13617C9.11926 7.13143 9.1638 7.08466 9.24545 7.03237C9.37737 6.94771 9.37737 6.92615 9.24545 6.83782C9.1345 6.76359 9.19715 6.74523 9.49287 6.76533C9.76652 6.78389 9.88874 6.83695 9.88874 6.93717ZM11.9898 7.28549C11.9569 7.31757 11.8715 7.32105 11.8001 7.29312C11.7211 7.26229 11.7446 7.23939 11.8599 7.23475C11.9642 7.23059 12.0226 7.2534 11.9898 7.28549ZM13.6001 7.46873C13.6001 7.61912 13.6562 7.71035 13.7485 7.71035C13.8302 7.71035 13.897 7.67092 13.897 7.62279C13.897 7.57456 13.9971 7.55707 14.1197 7.58384C14.3079 7.62501 14.2964 7.60123 14.0454 7.43046C13.6626 7.1699 13.6001 7.17531 13.6001 7.46873ZM12.165 7.6137C12.1314 7.66686 12.0593 7.71035 12.0049 7.71035C11.9505 7.71035 11.9334 7.66686 11.9671 7.6137C12.0007 7.56055 12.0728 7.51706 12.1272 7.51706C12.1817 7.51706 12.1987 7.56055 12.165 7.6137ZM12.8805 7.76872C12.8476 7.80081 12.7622 7.80429 12.6908 7.77636C12.6119 7.74553 12.6353 7.72262 12.7506 7.71799C12.8549 7.71383 12.9133 7.73664 12.8805 7.76872ZM6.81923 8.00271C6.78468 8.05712 6.81546 8.08979 6.88761 8.07519C6.96006 8.0605 7.01261 8.12371 7.00509 8.21668C6.99767 8.30918 7.03102 8.36098 7.07931 8.33179C7.12761 8.3027 7.1671 8.19446 7.1671 8.09124C7.1671 7.89417 6.92661 7.833 6.81923 8.00271ZM10.3514 8.02204C10.4871 7.88953 10.6313 7.86576 10.6304 7.97613C10.6295 8.07336 10.0573 8.38688 9.88073 8.38688C9.71832 8.38688 9.69318 8.23341 9.84084 8.1443C9.89617 8.11086 9.91378 8.03992 9.88003 7.98647C9.84619 7.93303 9.91121 7.94588 10.0243 8.01489C10.1867 8.11395 10.2557 8.1155 10.3514 8.02204ZM11.8186 8.00029C11.8186 8.05345 11.7714 8.09694 11.7138 8.09694C11.6562 8.09694 11.6365 8.05345 11.6702 8.00029C11.7038 7.94714 11.7509 7.90364 11.775 7.90364C11.799 7.90364 11.8186 7.94714 11.8186 8.00029ZM6.87801 9.02311C6.88276 9.1357 6.90622 9.15861 6.93779 9.08158C6.96639 9.0118 6.96283 8.9284 6.92997 8.89631C6.89711 8.86422 6.87376 8.92124 6.87801 9.02311ZM10.631 9.00204C10.2598 9.13174 10.0984 9.11029 10.337 8.963C10.417 8.91351 10.5939 8.87485 10.73 8.87708C10.9443 8.88046 10.9311 8.89718 10.631 9.00204ZM17.5093 9.16006C17.543 9.21322 17.5233 9.25671 17.4657 9.25671C17.4081 9.25671 17.3609 9.21322 17.3609 9.16006C17.3609 9.1069 17.3805 9.06341 17.4045 9.06341C17.4286 9.06341 17.4757 9.1069 17.5093 9.16006ZM11.5301 9.39656C11.5799 9.3665 11.6207 9.40719 11.6207 9.48692C11.6207 9.56666 11.5762 9.65876 11.5217 9.69162C11.4673 9.72448 11.4228 9.70882 11.4228 9.65692C11.4228 9.60493 11.4078 9.50451 11.3895 9.43377C11.3712 9.36292 11.375 9.33789 11.3979 9.3781C11.4209 9.4183 11.4804 9.42661 11.5301 9.39656ZM18.9442 9.35335C18.9314 9.43309 18.9328 9.54182 18.9474 9.59497C18.9619 9.64813 18.9837 9.80035 18.9958 9.93324C19.0079 10.0661 19.0236 10.2066 19.0306 10.2453C19.0512 10.3591 19.731 9.99277 19.7337 9.86646C19.7362 9.74806 19.5647 9.60928 19.3897 9.58811C19.3353 9.58144 19.2383 9.56946 19.1743 9.56134C19.1103 9.55332 19.0375 9.47059 19.0126 9.37752C18.9781 9.24888 18.9618 9.24308 18.9442 9.35335ZM19.8351 9.93324C19.8351 9.98639 19.8823 10.0299 19.9399 10.0299C19.9975 10.0299 20.0172 9.98639 19.9836 9.93324C19.9499 9.88008 19.9028 9.83659 19.8788 9.83659C19.8547 9.83659 19.8351 9.88008 19.8351 9.93324ZM17.2619 10.1806C17.2619 10.2634 17.2174 10.3044 17.1629 10.2715C17.1085 10.2386 17.064 10.1709 17.064 10.1208C17.064 10.0708 17.1085 10.0299 17.1629 10.0299C17.2174 10.0299 17.2619 10.0977 17.2619 10.1806ZM11.8768 10.7784C11.7688 10.884 11.6946 10.7161 11.7722 10.5414C11.8459 10.3759 11.8512 10.376 11.8922 10.5448C11.9158 10.6421 11.9089 10.7471 11.8768 10.7784ZM12.5553 11.0688C12.6575 11.3937 12.4936 11.3304 12.2212 10.9398C12.0213 10.6533 12.0044 10.5802 12.1216 10.5095C12.2671 10.4217 12.4092 10.605 12.5553 11.0688ZM16.5043 10.5656C16.472 10.6477 16.4244 10.694 16.3985 10.6687C16.3726 10.6434 16.3807 10.5762 16.4166 10.5196C16.5142 10.3653 16.5712 10.3953 16.5043 10.5656ZM17.6297 10.7938C17.4221 11.1368 17.4157 11.2269 17.6037 11.1565C17.6885 11.1246 17.8304 11.2095 17.95 11.3636C18.126 11.5903 18.169 11.6055 18.2767 11.4796C18.4953 11.2242 18.6729 11.2553 18.4966 11.5181C18.3925 11.673 18.3749 11.7728 18.4442 11.8146C18.5016 11.8493 18.5485 11.8349 18.5485 11.7827C18.5485 11.7304 18.6638 11.5539 18.8047 11.3904C18.9457 11.2269 19.0161 11.093 18.9613 11.093C18.9065 11.093 18.78 11.0672 18.6803 11.0356C18.5295 10.9878 18.524 10.9957 18.6475 11.0824C18.7748 11.1718 18.7699 11.1869 18.6136 11.1882C18.3751 11.1901 17.9155 10.8381 18.0503 10.7568C18.2133 10.6584 18.169 10.5131 17.9761 10.5131C17.8789 10.5131 17.723 10.6394 17.6297 10.7938ZM7.23044 10.8978C7.42056 11.2701 7.61028 11.3934 7.51201 11.0809C7.42828 10.8148 7.27626 10.6098 7.16255 10.6098C7.119 10.6098 7.14948 10.7394 7.23044 10.8978ZM18.9444 10.8571C18.9444 10.9399 18.9896 10.9804 19.0449 10.9471C19.1003 10.9136 19.12 10.8459 19.0886 10.7964C19.0038 10.6623 18.9444 10.6873 18.9444 10.8571ZM14.0557 11.5501C13.9552 11.6483 13.8721 11.5004 13.9547 11.37C14.017 11.2714 14.0404 11.2714 14.0738 11.3696C14.0968 11.4368 14.0886 11.518 14.0557 11.5501ZM8.77722 11.4464C8.71022 11.4728 8.57661 11.4745 8.48032 11.4499C8.38402 11.4254 8.43885 11.4037 8.60215 11.4018C8.76545 11.3999 8.84423 11.4199 8.77722 11.4464ZM9.37104 11.543C9.30403 11.5695 9.17043 11.5711 9.07413 11.5466C8.97783 11.522 9.03266 11.5004 9.19596 11.4984C9.35926 11.4965 9.43804 11.5165 9.37104 11.543ZM13.0063 11.7269C13.0063 11.839 12.8374 11.8624 12.1403 11.847L11.2743 11.8278L11.9967 11.7944C12.5123 11.7704 12.7347 11.7208 12.774 11.6208C12.8398 11.4534 13.0063 11.5295 13.0063 11.7269ZM9.864 11.6402C9.79601 11.6671 9.68467 11.6671 9.61658 11.6402C9.54859 11.6135 9.60421 11.5915 9.74029 11.5915C9.87637 11.5915 9.93209 11.6135 9.864 11.6402ZM10.8042 11.7421C10.6546 11.7642 10.4095 11.7642 10.2599 11.7421C10.1102 11.72 10.2327 11.7019 10.532 11.7019C10.8314 11.7019 10.9538 11.72 10.8042 11.7421ZM10.6558 12.1235C10.5878 12.1503 10.4764 12.1503 10.4083 12.1235C10.3403 12.0967 10.396 12.0748 10.532 12.0748C10.6681 12.0748 10.7238 12.0967 10.6558 12.1235ZM11.8186 12.881C11.8186 12.9607 11.7755 13.026 11.7227 13.026C11.6701 13.026 11.6526 12.9607 11.6838 12.881C11.7152 12.8012 11.7584 12.736 11.7797 12.736C11.8011 12.736 11.8186 12.8012 11.8186 12.881ZM9.54235 14.8623C9.54235 14.9154 9.49514 14.9589 9.43754 14.9589C9.37994 14.9589 9.36025 14.9154 9.3939 14.8623C9.42755 14.8091 9.47466 14.7656 9.49871 14.7656C9.52276 14.7656 9.54235 14.8091 9.54235 14.8623ZM10.6761 16.8164C11.0087 17.1958 11.0489 17.2149 11.2529 17.0908C11.4533 16.969 11.4606 16.9713 11.3365 17.1179C11.1304 17.3614 10.9914 17.3153 10.639 16.8872C10.3296 16.5112 10.2991 16.4978 9.85549 16.5447C9.49673 16.5826 9.46011 16.5754 9.6908 16.5124C10.2128 16.3701 10.3116 16.4006 10.6761 16.8164ZM12.1155 17.7983C12.1155 17.849 12.1026 17.8724 12.0868 17.8503C12.071 17.8282 11.9341 17.636 11.7827 17.4234L11.5075 17.0368L11.8115 17.3714C11.9788 17.5554 12.1155 17.7476 12.1155 17.7983ZM12.3856 18.0133C12.3528 18.0454 12.2674 18.0489 12.196 18.021C12.117 17.9901 12.1405 17.9672 12.2558 17.9626C12.3601 17.9584 12.4185 17.9813 12.3856 18.0133ZM16.5197 18.4382C16.5533 18.4914 16.7675 18.5351 16.9956 18.5354C17.2237 18.5358 17.5346 18.5993 17.6863 18.6766C17.8828 18.7767 18.0325 18.7912 18.2059 18.7267C18.4493 18.6363 18.5598 18.4825 18.3258 18.5595C18.2578 18.5819 17.9794 18.5426 17.7073 18.472C17.1165 18.319 16.4319 18.2995 16.5197 18.4382ZM19.1591 18.461C18.9049 18.5253 18.8536 18.5731 18.9355 18.6694C18.9939 18.738 19.0124 18.8229 18.9766 18.8578C18.9407 18.8928 18.9425 18.9214 18.9806 18.9214C19.0186 18.9214 19.09 18.8236 19.1393 18.704C19.2284 18.4872 19.2288 18.4873 19.238 18.7281C19.2461 18.9397 19.2599 18.9487 19.3482 18.8006C19.4037 18.7076 19.5333 18.6315 19.6363 18.6315C19.7392 18.6315 19.8478 18.5929 19.8776 18.5459C19.9592 18.4169 19.5324 18.3666 19.1591 18.461ZM17.8069 19.307C17.7723 19.3617 17.812 19.3779 17.9001 19.345C18.0715 19.2807 18.1029 19.2114 17.9605 19.2114C17.9093 19.2114 17.8402 19.2544 17.8069 19.307ZM14.8882 20.1537C14.8893 20.3608 14.9109 20.3875 14.9856 20.2745C15.1107 20.0854 15.1107 19.8879 14.9856 19.8879C14.9312 19.8879 14.8874 20.0076 14.8882 20.1537ZM15.9105 20.7403C15.56 20.9226 15.2354 21.3164 15.5253 21.2077C15.6152 21.1741 15.6634 21.1866 15.6325 21.2354C15.6015 21.2843 15.6215 21.3515 15.6768 21.385C15.7322 21.4183 15.7774 21.3981 15.7774 21.3399C15.7774 21.2653 15.8338 21.2637 15.9688 21.3342C16.2828 21.4984 16.3331 21.4551 16.3572 20.9994C16.3827 20.519 16.3607 20.5063 15.9105 20.7403ZM16.1485 21.5101C15.9989 21.5287 15.8764 21.5916 15.8764 21.6501C15.8764 21.7086 15.9043 21.7291 15.9384 21.6959C15.9726 21.6626 16.1284 21.6999 16.2848 21.7789C16.5046 21.8899 16.5694 21.8945 16.5706 21.7992C16.5717 21.7132 16.5942 21.7086 16.6448 21.7837C16.7694 21.9683 17.3369 22.0876 17.2906 21.9193C17.2791 21.8779 17.3518 21.7714 17.452 21.6829C17.6169 21.5371 17.649 21.536 17.7881 21.672C17.9471 21.8272 18.1202 21.7142 18.0042 21.5309C17.9171 21.3933 17.6363 21.4115 17.4052 21.5695C17.1114 21.7704 16.8114 21.7911 16.6046 21.6246C16.5034 21.5432 16.2982 21.4917 16.1485 21.5101Z" fill="#5C002F"/>
</svg>
