<svg width="24" height="24" viewBox="0 0 24 24" fill="none" xmlns="http://www.w3.org/2000/svg">
<rect width="24" height="24" rx="12" fill="#D5CDFF"/>
<path fill-rule="evenodd" clip-rule="evenodd" d="M13.9837 3.07007L13.8855 3.16837L13.9837 3.26659V3.07007ZM13.9837 3.31574L13.8364 3.36746L13.9605 3.43986L13.9837 3.31574ZM13.42 3.39071L13.3451 3.71135L13.4925 3.51482L13.42 3.39071ZM15.362 3.80965L15.3128 4.17679L15.0672 4.37331V4.49743L14.9431 4.93962L15.1396 5.06374L15.0904 5.28351H15.2379L15.0904 5.30941L15.0414 5.50593L15.2637 5.43088L15.1887 5.60415L15.437 5.50593L15.2896 5.38181L15.437 5.33266L15.2896 5.30941L15.4111 5.28351L15.2896 5.18529H15.4111L15.2638 5.03784L15.3879 5.01467L15.362 4.86722L15.3387 4.6448L15.5585 4.00617L15.362 3.80965ZM11.5997 3.93112V4.07857H11.4755L11.5247 4.22586L11.6229 4.20269L11.747 4.17679L11.6229 4.30091L11.8944 4.39921L12.0909 4.10439L11.9436 3.98027L11.8195 4.07857L11.7962 3.93112L11.7703 4.12764L11.623 3.98035L11.5997 3.93112ZM11.3772 4.10439V4.49743L11.2558 4.17679L11.2066 4.35006L11.0825 4.22594L11.2066 4.15354L10.9842 4.22594L11.0825 4.71985L11.279 4.52333V4.6448L11.354 4.57239L11.4264 4.6707L11.1083 4.79225L11.1316 4.91637L11.3772 4.84132L11.1807 4.93962L11.3048 5.01459L11.1083 4.96544L11.2299 5.16196L11.3541 5.33266L11.5505 4.6707L11.6229 4.62154L11.747 4.57239L11.6229 4.42511V4.42246L11.5013 4.25176L11.4523 4.35006L11.3772 4.10439ZM11.7471 4.59573L11.623 4.6448L11.6979 4.7431L11.7471 4.59573ZM11.8453 4.71985L11.6979 4.79225V5.01459L11.8195 4.96544L11.8453 5.08707L11.9435 4.93962L11.8453 4.71985ZM15.437 5.555L15.2637 5.60415L15.1396 5.72826L15.2404 5.77742L15.1396 5.89897L15.2896 5.84982L15.2145 6.24286L15.3387 6.34108L15.4861 6.21961L15.7059 6.43938L16.0757 6.24286L15.5843 6.02309L15.437 5.80067V5.555ZM17.3298 6.09549L16.6161 6.26868V6.41613L16.8876 6.56341L16.7894 6.68753L16.8384 6.80917L16.6161 6.66172L16.5437 6.93329L16.3213 7.08057V7.22802L16.1247 7.32633L16.0498 7.10391L16.1247 6.98235L16.0498 7.0315L16.0006 7.34958L15.9282 7.25128L15.6076 7.69603L15.7317 7.76844L15.5585 7.86674L15.6335 8.11241L15.437 8.21063L15.2145 8.06326L15.3878 7.84349L15.3128 7.74518L14.7957 7.69603L14.9922 7.79434L15.3128 8.62957L14.969 8.50545L14.8215 8.77685L14.7465 8.95021L14.7311 9.01226L14.8215 9.14673L14.9431 9.31735H14.5992L14.55 9.41565L14.5992 9.29401L14.3302 9.24494L14.3043 9.41565L14.5992 9.51387L14.55 9.73629L14.0588 9.56302L13.8855 9.24494L13.9346 9.04842L13.6166 8.97346L13.7148 8.90105L13.3941 8.67864L14.5501 8.80275L14.6483 8.62957L14.7724 8.33474L14.4595 8.09685L14.4518 8.08907L14.4027 8.04001L13.689 7.79425L13.4692 7.81759L13.42 7.99086L13.4433 7.79434L13.2727 7.81759L13.2235 7.69603H13.3709L13.2235 7.62107L13.1252 7.79434L12.9753 7.69603L12.9029 7.79434L12.7296 7.62107H12.952L13.0503 7.4737L12.7555 7.34958L12.6314 7.52285L12.7064 7.32633L12.5823 7.27718L12.5331 7.52285L12.4607 7.57192V7.34958L12.3133 7.69603L12.3625 7.39873L12.215 7.34958L12.0909 7.74518L11.8479 7.5926L11.8711 7.74518L11.9203 7.84349L11.7962 7.74518L11.6229 7.99086L11.5997 8.01411L11.6229 7.96496L11.6721 7.74518L11.6229 7.84349L11.5737 7.96496V7.81767L11.4755 7.89255L11.5505 8.04001L11.3772 7.9417L11.3048 8.23653L11.1316 8.28559L11.3282 8.33474H11.1083V8.55452L11.0592 8.3839L10.9351 8.4563L11.0333 8.50545H10.886L11.0101 8.62957L10.7877 8.72779L10.9351 8.80019L10.6403 8.8519L10.7127 8.90105L10.5421 9.12083L10.7127 9.09758L10.467 9.16998L10.5421 9.2682L10.467 9.21913L10.3456 9.46472H10.4929L10.1981 9.58883L10.3456 9.56302L10.1981 9.66124L10.2705 9.75954L10.149 9.80869L10.1231 9.68705L9.8284 10.0078L9.97577 10.0569L10.1723 9.88366L10.074 10.1293L9.87747 10.1551L9.8543 10.031L9.65513 10.0802L9.63188 10.3025L9.50776 10.2043L9.60598 10.3517L9.36031 10.2043L9.53358 10.3258L9.21294 10.3025L9.33706 10.5224L9.26209 10.4241L9.21294 10.499L9.11472 10.45L9.16379 10.5224L8.96727 10.4241V10.5224L9.23884 10.5973L8.96727 10.5482L8.89487 10.6465L9.04232 10.7189L8.86905 10.6956L8.99317 10.7447L8.89487 10.843H9.14062L9.18969 10.768L9.28791 10.8921L9.36031 10.768V10.8663L9.21302 10.9904L9.16379 10.8663L8.8458 10.843L8.94402 10.9412H8.8199L8.86905 11.0395L8.96727 10.9904L8.81998 11.1145L8.8458 11.2127L8.94402 11.1145L8.8458 11.311L9.18969 11.1377L8.77075 11.4326L8.8199 11.5308L9.01642 11.4584L8.8458 11.6058L8.99317 11.6549L8.9182 11.7273L8.79665 11.6291L8.77075 11.8023L8.99317 12.0712H9.23884L9.55683 11.7273L9.7301 11.7765L9.8284 11.4584L9.84644 11.8592H9.84131L9.85422 12.0738L9.94731 12.0532C9.94731 12.0532 9.93175 12.13 9.92149 12.1798L9.90337 12.2445L9.95508 12.1669C9.97643 12.1352 9.99646 12.1022 9.99646 12.1022L9.92918 12.3143L9.9267 12.3194L10.1206 12.7772L10.0249 12.8651L10.0017 12.8832V12.8857L10.0482 13.253L10.3481 13.2813L10.4904 12.9866L10.7437 13.0305L10.9377 12.516L10.9273 12.3918L10.9248 12.3687L10.9119 12.1256L10.948 12.1203H11.0101L10.9326 12.0815L10.873 12.0479L10.9377 12.035L11.1316 11.9988L11.1394 11.9549L11.1626 11.867L11.2066 11.9988L11.2712 11.9343L11.3799 11.836L11.3721 11.8307L11.3773 11.8256L11.3204 11.7919L11.31 11.7842H11.3075L11.2609 11.7506L11.2712 11.7429L11.2816 11.7376L11.2998 11.7247L11.4523 11.6291L11.3359 11.4429L11.3256 11.4247L11.2583 11.311L11.0851 11.2593L11.2067 10.3827L11.2661 10.4344L11.3049 10.4732L11.6177 10.2069L11.6229 10.2017L11.747 10.0801L11.7497 10.0724L11.8945 9.83451L11.8918 9.82938L11.8246 9.49839L11.866 9.52421L11.8711 9.52678L11.9203 9.56302L11.9099 9.47249L11.897 9.34581L11.9281 9.36393L12.0159 9.41821V9.41565H12.0186L12.0211 9.39753L12.0237 9.38975V9.38462L12.0495 9.26828L12.3367 9.2941L12.5098 9.58892L11.822 10.4707L11.8195 10.4732L11.9436 10.9671L11.8945 11.311L12.1168 11.4584L12.1349 11.4455L12.1401 11.4403L12.2125 11.3938L12.1891 11.6058L12.1943 11.6032L13.2469 11.1636L13.2727 11.311L13.6166 11.4093L13.1976 11.5308L13.1745 11.6705V11.673L12.952 11.6549L12.908 11.6498H12.9055L12.7296 11.6291L12.378 11.7946L12.3055 11.8282L12.3832 12.1747L12.559 12.1798L12.5331 12.5754L12.471 12.6298L12.3961 12.6789L12.2823 12.5496L12.2745 12.5393L12.166 12.3919L11.9694 12.4901L11.9513 12.5419L11.9435 12.5574L11.9384 12.5729L11.8117 12.8832L11.8582 13.2297L11.8764 13.3435L11.8945 13.4986H11.747L11.8582 13.2297L11.747 13.4495L11.6229 13.4986V13.6228L11.7212 13.5969L11.6307 13.6693H11.6126L11.6101 13.6822L11.4755 13.7701L11.5997 13.6228L11.354 13.721L11.1575 13.5245L10.418 13.7934L10.3947 13.9666L10.0507 13.6228L9.55683 13.7442L9.63188 13.5736H9.40946L9.28791 13.3512L9.36031 13.0305L9.70428 12.7849L9.53358 12.6634L9.70428 12.2935L9.23884 12.4669L9.01642 13.3512L9.11472 13.3279L9.16379 13.4753L9.06557 13.5245L9.31124 13.8683L9.06557 13.6951L8.99317 13.8916L8.89487 13.7443H8.69835L8.7475 13.8916L8.40104 13.7701L8.25359 13.8683L8.32864 14.0649L8.18119 14.1373L8.10622 13.8683L7.86055 14.2122L7.98467 14.3364H7.68993L7.86055 14.458L7.22192 14.4838L7.17277 14.7527L7.07447 14.7785L6.68143 14.9492L6.2859 14.6544V15.0966L5.96775 15.0475L5.91868 14.8768H5.47649L5.59804 15.0241L5.47649 14.9751V15.1716L5.91868 15.4431L5.96775 15.8594L6.1152 15.9836L6.0169 16.2033L6.04015 16.2551L5.69626 16.992L4.31805 16.4516L4.1965 16.2783L3.70524 16.3533L3.80346 16.6972L3.48282 17.4342L3.13893 17.8272H3.2863L3.16218 17.9746L3.3122 18.0496H3.26305L3.06396 18.4917L3.65609 18.6391L3.87586 19.2287L4.2948 19.1072L4.93343 19.3528L5.205 19.1305L5.42477 19.1563L5.54889 18.9107L5.69626 18.8615L5.79456 18.8356L5.74541 18.7632L5.67301 18.665L5.74541 18.4426L5.82038 18.3935L6.1876 18.0729L6.85213 17.9254V17.5583L6.9995 17.4083L7.22192 17.3592L7.76233 17.6798L8.54841 17.2868L8.9182 17.5324L9.09139 18.1479L10.3456 19.1563L10.4929 19.5985L10.2964 19.8933L10.418 19.9424L10.5911 19.6217L10.7877 19.5493L10.5911 19.2779L10.7128 19.0322L10.9842 19.0813L11.1316 19.2778L11.1807 19.1563L10.4438 18.6133L10.5162 18.4659L10.1231 18.3676L9.85422 17.7781L9.53358 17.5091L9.50776 17.0411L9.87747 16.9428L9.90593 17.0593L9.95252 17.3255L10.1464 17.142L10.4929 17.8505L10.7334 17.8971L10.948 18.0857L10.9687 18.1323L11.2894 18.2797L11.4988 18.515L11.3979 19.0555L11.5764 19.2648L11.6229 19.3269V19.3089L11.8323 19.5907L11.9591 19.5571L11.8557 19.6424L11.9591 19.8105L12.5977 19.8674L12.5046 19.9347L12.0418 19.8726L11.9694 19.9889L12.1375 20.382L12.2797 20.2915L12.3832 20.5216L12.4297 20.3664L12.5977 20.4905L12.4685 20.0924L12.6986 20.1337L12.5409 19.963L12.7038 19.8933L12.8512 20.0251L12.8615 19.8519L12.3883 19.6217L12.5253 19.5467L12.515 19.4226L12.6236 19.464L12.3883 19.0089L12.4943 18.9598L12.7917 19.1873L12.7296 19.04L12.9184 19.0916L12.7038 18.8822L13.1227 18.7659L13.3994 18.8202V18.8176L13.6166 18.8614L13.4433 19.1072L13.8131 18.7142L14.2294 18.665L13.9398 18.3211L13.8131 18.1685L13.72 18.1918L14.0122 17.7496L14.0225 17.4678L14.0329 17.2014L14.0768 17.2738L14.082 17.2868L14.2553 17.1885L14.2061 16.8187L14.2449 16.8963V16.8989L14.2553 16.917L14.2889 16.8524L14.4285 16.6972L14.4776 16.5007L14.7724 16.3275L14.9198 16.4516L14.6483 16.4748L14.7957 16.5007L14.7465 16.5731L15.2379 16.524L15.2637 16.6481L14.9922 16.8679L15.1655 16.8187L15.2637 17.1394L15.437 17.1627L16.0757 16.648L15.7809 16.7463H15.6335L15.4602 16.5731L15.6076 16.3042L15.5844 16.4748L15.7809 16.2033L16.5669 15.7611L16.4687 16.0326L16.2463 16.0818L16.4196 16.2059L16.2955 16.5731L16.0757 16.7204L17.0971 17.093L17.6165 17.1223L17.8971 17.134C18.0076 17.1449 18.1187 17.1489 18.2297 17.1542L18.5953 17.1391L18.8016 17.0924C18.8736 17.0828 18.946 17.0746 19.0182 17.0665C19.145 17.0549 19.2325 17.0492 19.3493 17.0736C19.4188 17.0671 19.4679 17.0833 19.5324 17.0986L19.6365 17.0992L19.8338 17.1281L19.7428 17.0702L19.6766 17.0291L19.1993 16.6713L19.0519 16.2524L19.026 16.4023L18.708 16.0817L18.7312 15.6137L19.0519 15.443L19.0752 15.1223L19.4191 14.7293L19.5147 14.6957V14.6104L19.432 14.507L19.3389 14.4242L19.2975 14.2458L19.2355 14.0079L18.8606 13.6873L18.7778 13.4261V13.3123L18.9536 13.1468L19.0881 13.0537L19.2251 12.9399L19.4113 12.7951L19.6492 12.7124L19.8664 12.6607L19.9905 12.5857L20.1793 12.5754L20.2517 12.4926L20.3241 12.4719L20.3551 12.5443L20.4689 12.565L20.5827 12.4823L20.624 12.534L20.637 12.4642L20.5258 12.2444L20.637 12.4616L20.6551 12.3582L20.7585 12.3788L20.8826 12.2547L20.937 12.1823L20.8516 11.9961L20.7999 11.9651L20.7378 12.0375L20.6551 11.9961L20.562 12.0479L20.5206 12.0065L20.4275 11.9961L20.4379 11.9031L20.1482 11.8203L20.0216 11.81L19.9803 11.7686V11.7247L19.8975 11.6419L19.8664 11.2696L19.8147 11.1972L19.7009 11.1868L19.6285 11.2489L19.5458 11.4247L19.4734 11.5488H19.3906L19.3493 11.5799L18.995 11.4144L18.9019 11.3213L18.933 11.2178L19.1734 10.9903L19.2355 10.7912L19.1734 10.6567L19.0778 10.6154H18.9019L18.7985 10.5326L18.7778 10.2844L18.8295 10.1396L18.6227 9.58875L18.4882 9.22674L18.3331 8.94491L18.2477 8.86216V8.75873L18.2684 8.71736L17.6685 7.88734L17.7926 7.3883L17.8857 6.84011L17.834 6.43408L17.7823 6.40305L17.459 6.14969L17.2574 6.12122L17.3298 6.09549ZM16.2722 6.24278L16.3472 6.39023H16.5669L16.5437 6.29201L16.5178 6.26868H16.4687L16.2722 6.24278ZM5.57471 7.12981L5.49974 7.37539L5.47649 7.17887L5.37562 7.34958L5.30322 7.22802L5.2774 7.34958L5.1791 7.27718L5.49974 7.5461H5.32647L5.40152 7.67022L5.08088 7.49695L5.30322 7.91589L5.00848 7.96496L5.22825 8.06326L5.42477 8.4563L5.74541 8.48211L6.1152 8.50545L6.40994 8.38381L6.36079 8.28559L6.48242 8.33474L6.45909 7.86674L6.60646 7.81759L6.43319 7.84349L6.41002 7.64432L6.2859 7.76844L6.0893 7.62115L5.99108 7.79434L6.0169 7.57192L5.84363 7.67022L5.82046 7.5461L5.79456 7.4737L5.52564 7.69603L5.67301 7.42463L5.57471 7.12981ZM15.4111 7.12981L15.362 7.32633L15.5094 7.39873L15.6076 7.20221L15.4111 7.12981ZM16.2463 7.27709L16.1247 7.59525L16.5178 8.30893L16.7894 8.13822L16.8618 7.71937L16.8126 8.16148L16.5178 8.30893L16.0989 7.59525L16.2463 7.27709ZM17.2315 7.27709L17.2574 7.32633H17.2548L17.2315 7.27709ZM11.279 7.89255L11.1807 8.08907L11.354 7.94179L11.279 7.89255ZM12.8279 7.89255L12.7788 8.11241H12.6081L12.8279 7.89255ZM10.9609 8.08907L10.8368 8.21071L10.9092 8.25978L10.9609 8.08907ZM11.0101 8.11241L10.9092 8.358L11.0333 8.25978L11.0101 8.11241ZM13.4925 8.18738L13.5674 8.48211L13.4692 8.55452L13.4925 8.18738ZM12.5098 8.40715H12.7788L12.7296 8.50545L12.5098 8.40715ZM13.3451 9.02261L13.3941 9.14673L13.2727 9.09758L13.3451 9.02261ZM15.1913 9.53977L15.3878 9.75954L16.0265 9.95862V9.98187L15.3878 9.75954L15.1913 9.56302V9.53977ZM12.7555 9.73629L13.0011 9.88357L12.7788 9.8604L12.7555 9.73629ZM14.0588 9.80869L14.2811 9.93281H14.157L14.2061 10.1551L14.0588 9.80869ZM18.1908 9.80869L18.4597 10.1293L18.4106 10.2766L18.4546 10.3052L18.4597 10.3025L18.4908 10.3258L18.5347 10.3517L18.6588 10.3025L18.5839 10.3749L18.7312 10.499L18.4908 10.3258L18.4546 10.3052L18.3124 10.3517L18.4106 10.2043H18.2633L18.3124 10.031L18.1908 9.80869ZM13.9605 9.98187L14.0588 10.0802H13.9346L13.9605 9.98187ZM12.8046 10.106L13.2235 10.5224L13.0244 10.4007L13.0503 10.5973H13.2959L13.2727 10.4241L13.3941 10.4732V10.7059L13.3787 10.7344L13.1486 10.9412L13.2546 10.9645L13.2493 10.9723L13.0735 11.0162L12.952 10.843L13.0994 10.8921L13.2468 10.7448L12.9261 10.5224L12.9753 10.3517L12.8046 10.106ZM14.1829 10.1784L14.4285 10.3025L14.6483 10.7447L14.5759 10.8921L14.3794 10.8663L14.5009 10.7939L14.2061 10.5714L14.082 10.3258L14.2553 10.499L14.157 10.2767L14.3302 10.4732L14.4027 10.3749L14.1829 10.1784ZM12.6572 10.3025L12.7064 10.5714L12.7296 10.3749L12.8279 10.4732L12.7555 10.3517L12.877 10.4008L12.6572 10.7447V11.0162L12.8046 10.9412L12.7555 11.1377L12.5823 10.9412L12.6805 10.5973L12.6573 10.4008L12.559 10.3517L12.6572 10.3025ZM13.2959 10.6206L13.1976 10.6697L13.2727 10.7447L13.3217 10.6206H13.2959ZM12.2874 10.6697H12.4839V10.7939L12.3133 10.843V11.0162L12.4839 10.843L12.3625 11.0395L12.4607 11.1377L12.3133 11.0162V11.0395L12.2874 10.6697ZM13.6166 10.7189L14.0588 11.0653L13.8131 11.4092L13.4433 10.9412L13.6166 10.7189ZM18.5606 10.7447L18.6098 10.7939L18.4106 11.0653L18.5606 10.7447ZM14.9922 10.9904L15.0414 11.0653L14.8939 11.0886L14.9922 10.9904ZM6.50824 11.1377L6.28582 11.2851L6.26257 11.3602L6.38412 11.3343L6.50824 11.1377ZM6.75383 11.1869L6.63236 11.4816L6.48234 11.4092L6.45909 11.7041L6.26257 11.7765L6.48234 11.8747L6.13845 12.3194L6.31172 12.1721L6.45909 12.0738L6.48234 12.2211L6.40994 12.1721L6.21342 12.5393L6.23667 12.6375L6.26257 12.5651L6.65561 12.6375L6.45909 12.7849L6.50824 12.9814L6.60646 12.9323L6.45909 13.1806L6.53406 13.2788L6.1876 13.2038L6.0169 13.3279H6.1876L6.16427 13.4753L5.77123 13.6227L6.13845 13.9407L6.40994 13.8683L6.1876 14.039L5.91868 13.9407L5.45059 14.2356L5.94193 14.3364L6.04015 14.1864L6.82888 14.4088L7.19602 14.3597L7.22192 14.2873L6.97625 14.1632H7.12362L7.39254 13.8916L7.34339 13.6951L7.07447 13.6227H7.04865L7.12362 13.4003V13.3771L7.0978 13.3279L6.97625 13.2788L7.14687 13.302L7.17277 13.1806L6.97625 12.9323L6.95035 12.3686L6.63236 12.1721L6.90128 12.2212L6.75383 12.1229L6.95035 12.0971L7.22192 11.7765L6.70476 11.6291L7.12362 11.311L6.75383 11.1869ZM15.2145 11.3602L15.0904 11.4584L15.1887 11.4816L15.4111 11.6058L15.3387 11.8256L14.9922 11.6291L15.2145 11.6549L15.0414 11.4326L15.2145 11.3602ZM6.31172 11.4326L6.33497 11.704L6.38412 11.6058L6.31172 11.4326ZM16.3704 11.6058L16.3963 12.0738L16.2463 11.7273L16.3704 11.6058ZM18.1159 11.6549L18.165 11.7273L18.24 11.6549L17.821 12.1953V12.2936L17.7979 12.441L17.9193 12.5393L18.0667 12.3918L18.0175 12.6634L18.2141 12.6375L18.0175 12.8108L18.0667 12.7125L17.772 12.516L17.821 12.0971L17.7228 11.9988L17.3789 11.8747L17.1073 11.9006L16.9212 12.0325L16.7894 12.1462L16.7712 12.141L16.7635 12.1462L16.4687 12.0246L16.7712 12.141L16.9212 12.0325L17.1074 11.8747L17.4022 11.8515L17.7228 11.9988L17.7978 12.0479L17.772 11.9238L17.8961 11.973L18.1159 11.7765V11.6549ZM10.2705 11.7273L10.467 11.7532L10.3946 11.973L10.074 12.0971L10.1231 11.8747L10.2705 11.9006V11.7273ZM6.28582 11.8514L6.16427 11.9497H6.31172L6.28582 11.8514ZM13.1486 11.8747V12.0971L13.0011 11.9238L13.1486 11.8747ZM12.1168 11.9238L12.0418 11.9497L12.1168 12.0479L12.2384 11.973L12.1168 11.9238ZM13.8855 11.9497L14.0096 12.0479L13.8131 12.0738L13.8855 11.9497ZM20.1328 12.097L20.2801 12.1953L20.1819 12.2936L20.1328 12.097ZM11.9927 12.1229L12.0418 12.3428L12.2874 12.1229H11.9927ZM5.69626 12.1721L5.45059 12.2936L5.59804 12.3686L5.45059 12.4901L5.12995 12.3428L5.1791 12.5393L4.98258 12.6143L5.22825 12.8108L4.91018 12.9581L5.1791 13.0305L4.76281 13.0073L4.88436 13.1055L4.71366 13.1547L4.88436 13.2296L4.71366 13.253L4.88436 13.2788L4.76281 13.3512L5.205 13.3771L5.62386 13.4003L5.84363 12.7358L6.08938 12.6634L6.06605 12.3194H5.79456L5.91868 12.2704L5.84363 12.1721L5.72216 12.2936L5.69626 12.1721ZM11.4264 12.3428L11.2299 12.4901L11.2558 12.6867L11.4264 12.3428ZM9.33706 12.4901L9.50776 12.5393L9.36031 12.5651L9.38621 12.7125L9.33706 12.5884L9.21294 12.6634L9.33706 12.4901ZM9.97577 12.9581L9.90337 13.1314L9.85422 12.9814L9.65513 13.0564L9.8284 13.5477V13.3771L10.0249 13.1547L9.97577 12.9581ZM9.45861 13.1055L9.40946 13.253L9.58273 13.302V13.1055H9.45861ZM17.821 13.4495L17.6737 13.7261L17.7202 13.9512L17.7254 13.9692L17.9193 14.114L17.772 14.2381V14.2614L17.7228 14.8768L17.7486 14.2614L17.772 14.0881L17.7254 13.9692L17.7228 13.9666L17.7202 13.9512L17.6504 13.7701L17.6737 13.7261L17.6737 13.721L17.821 13.4495ZM10.2214 13.5736L10.0999 13.646L10.2214 13.6951V13.5736ZM16.2722 13.9407L16.298 13.9899L16.3213 14.0649L16.2955 13.9899L16.2722 13.9407ZM18.3382 14.0157L18.2891 14.0416L18.2141 14.0649L18.2891 14.039L18.3382 14.0157ZM17.3789 14.6053L17.5263 14.7036V14.9001L17.4771 15.319L17.2548 15.4431L17.2315 15.2699H17.3789L17.3298 15.0241L17.4539 14.9983L17.503 14.7785L17.3789 14.6053ZM14.4518 15.1716L14.3794 15.1975H14.2319L14.157 15.2207L14.2319 15.1948H14.3794L14.4518 15.1716ZM6.63236 15.2207L6.58321 15.319V15.3681L6.55731 15.4173L6.58064 15.3681V15.319L6.63236 15.2207ZM14.082 15.2207L14.0329 15.2466H13.8855L13.8131 15.2699L13.8855 15.244H14.0329L14.082 15.2207ZM14.4518 15.244L15.362 15.5905L15.4861 15.5155L15.5843 15.9577L15.2637 16.0326L15.2145 16.2525L14.9431 16.3998L15.1655 16.2525L15.2145 15.9836L15.4861 15.9344V15.6629L14.4518 15.244ZM13.6657 15.2699L13.6166 15.2957H13.4692L13.3941 15.319L13.4692 15.2931H13.6166L13.6657 15.2699ZM6.55731 15.4664L6.53414 15.5155V15.5905L6.48234 15.6887L6.53149 15.5905V15.5155L6.55731 15.4664ZM8.64663 17.853L8.37771 18.0496L8.45011 18.3935L8.64663 18.197V17.853ZM8.52516 18.4918L8.20452 18.5667L8.18119 19.3037L8.54841 19.2287L8.64663 18.7866L8.52516 18.4918ZM6.73058 18.6159L6.45909 18.6883L6.60646 18.8356L6.77973 18.7374L6.73058 18.6159ZM12.6081 19.5493L12.4839 19.5985L12.952 19.8933L12.877 19.6734L12.6081 19.5493ZM11.7962 19.7717L11.7212 19.87L11.8686 19.8933L11.7962 19.7717ZM10.2964 19.795L9.33706 19.8209L9.38621 19.9915L10.074 20.3613L10.2964 19.795ZM12.7555 20.7801V20.9276L13.1252 21L13.5674 20.9509L13.6166 20.8293L13.4433 20.9276L12.7555 20.7801ZM9.9085 20.7828L9.93696 20.881L10.0378 20.8914L10.0275 20.7931L9.9085 20.7828Z" fill="#0E005C"/>
</svg>
