<svg width="24" height="24" viewBox="0 0 24 24" fill="none" xmlns="http://www.w3.org/2000/svg">
<rect width="24" height="24" rx="12" fill="#F6CDFF"/>
<path fill-rule="evenodd" clip-rule="evenodd" d="M5.55405 6.13191C5.28882 6.26134 5.01147 6.36417 4.69723 6.44956C4.55192 6.48902 4.54925 6.49137 4.58763 6.54613C4.60923 6.577 4.77815 6.76156 4.96295 6.95625C5.14778 7.15094 5.29899 7.31561 5.29899 7.32221C5.29899 7.32878 5.23614 7.34203 5.15929 7.35163C4.98419 7.37352 4.93205 7.42566 4.94059 7.5704C4.94936 7.7189 4.90421 7.75394 4.65883 7.78923C4.54558 7.80551 4.43475 7.83395 4.41253 7.85242C4.3903 7.8709 4.31635 7.97124 4.24819 8.07542C4.0792 8.33365 4.00587 8.38033 3.77276 8.37816C3.66959 8.3772 3.49887 8.35169 3.383 8.31994C3.26961 8.28886 3.17009 8.27015 3.16186 8.27838C3.15364 8.28661 3.13741 8.43847 3.12579 8.61585C3.11035 8.85173 3.09009 8.97135 3.05037 9.06111C2.98092 9.21815 2.98208 9.23308 3.06139 9.20294C3.10403 9.18671 3.171 9.18762 3.25447 9.2055C3.40271 9.2373 3.49524 9.32766 3.61758 9.56007C3.69275 9.7029 3.78805 9.85143 4.07832 10.2781C4.15408 10.3895 4.23789 10.5234 4.26454 10.5757C4.29117 10.6279 4.36585 10.7326 4.43048 10.8083C4.49797 10.8873 4.55513 10.9841 4.5648 11.0356C4.57482 11.089 4.62983 11.1797 4.70096 11.26C4.88625 11.4691 4.91329 11.506 4.96497 11.6198C5.01923 11.7392 5.0279 11.8445 4.98686 11.8855C4.96745 11.9049 4.97803 11.9405 5.02293 12.0067C5.05791 12.0582 5.10811 12.1536 5.13453 12.2186C5.17963 12.3296 5.19164 12.3393 5.33185 12.3787C5.60663 12.4557 5.99569 12.8582 6.1009 13.1743C6.13213 13.2682 6.1836 13.3766 6.21529 13.4152C6.24699 13.4539 6.29957 13.5658 6.33217 13.664C6.38498 13.823 6.38946 13.8711 6.37339 14.1069C6.35722 14.3442 6.36092 14.3829 6.40938 14.4832C6.44346 14.5537 6.46339 14.646 6.46339 14.7332C6.46339 14.8472 6.48191 14.9043 6.56898 15.0583C6.77599 15.4245 6.96925 15.6203 7.12381 15.6203C7.14663 15.6203 7.25538 15.7061 7.36546 15.811C7.47556 15.9158 7.59099 16.0097 7.62201 16.0195C7.65852 16.0311 7.68745 16.071 7.70417 16.1329C7.71835 16.1854 7.7525 16.2423 7.78003 16.2594C7.80759 16.2766 7.83846 16.329 7.8486 16.3759C7.85877 16.4228 7.88734 16.5078 7.91207 16.5647C7.95544 16.6645 8.00145 16.7806 8.06878 16.9604C8.08632 17.0072 8.12004 17.0596 8.14369 17.0768C8.16734 17.094 8.20302 17.1489 8.22292 17.1987C8.27772 17.3357 8.41654 17.5263 8.62098 17.7451C8.85583 17.9966 8.86426 18.0078 8.88509 18.0956C8.89464 18.136 8.92349 18.1923 8.94916 18.2208C9.05015 18.3327 9.23239 18.6361 9.24774 18.7179C9.26725 18.8219 9.30231 18.8028 9.39448 18.6378C9.44959 18.5393 9.45192 18.5218 9.42028 18.4442C9.37034 18.3218 9.4216 18.0709 9.51407 17.9851C9.61802 17.8886 9.6604 17.8869 9.8111 17.9731C9.97489 18.0668 9.99137 18.0679 10.258 18.0015C10.5586 17.9267 10.8823 17.9253 11.108 17.9978C11.2588 18.0463 11.3488 18.0562 11.6453 18.057L12.0013 18.0581L12.0593 18.1349C12.1786 18.2934 12.227 18.3341 12.2796 18.3203C12.3702 18.2966 12.4872 18.1488 12.5633 17.962C12.6405 17.772 12.8573 17.432 12.9616 17.337C13.1317 17.1821 13.5836 16.9813 13.8275 16.9523C13.9115 16.9424 14.0892 16.9122 14.2224 16.8853C14.3556 16.8584 14.4934 16.8364 14.5287 16.8364C14.5639 16.8364 14.7343 16.8069 14.9075 16.7707C15.0806 16.7346 15.3387 16.6813 15.481 16.6522C15.8401 16.5788 16.5697 16.3778 16.7877 16.2923C16.8517 16.2671 16.974 16.2203 17.0594 16.1882C17.3502 16.0788 17.6909 15.9032 17.7445 15.8351C17.7739 15.7977 17.8026 15.7428 17.8084 15.7131C17.8141 15.6834 17.8374 15.5768 17.8601 15.4761C17.8829 15.3755 17.9188 15.1776 17.9399 15.0363C17.9611 14.8949 17.9964 14.7171 18.0184 14.641C18.0404 14.5649 18.0592 14.4223 18.0601 14.3241L18.0618 14.1456L17.9135 13.9718C17.8319 13.8762 17.7603 13.7854 17.7544 13.77C17.7483 13.7542 17.679 13.7425 17.5956 13.7432C17.5141 13.7438 17.2961 13.7187 17.1111 13.6874C16.9261 13.6561 16.5837 13.6061 16.3503 13.5762C16.1168 13.5464 15.9056 13.5111 15.881 13.4979C15.7779 13.4428 15.2651 12.8143 15.1281 12.5752C15.0848 12.4997 15.0292 12.4432 14.9764 12.421C14.9013 12.3894 14.8941 12.377 14.9037 12.2953C14.9123 12.2214 14.9057 12.2047 14.8677 12.2047C14.8421 12.2047 14.8211 12.1942 14.8211 12.1813C14.8211 12.1684 14.7758 12.164 14.7204 12.1714C14.6297 12.1836 14.6107 12.1753 14.528 12.0876C14.4775 12.0341 14.4225 11.9571 14.4056 11.9164C14.3888 11.8757 14.3648 11.8425 14.3523 11.8425C14.3397 11.8425 14.3295 11.8266 14.3295 11.8072C14.3295 11.7149 14.1669 11.4244 14.0582 11.3225C13.9777 11.2471 13.9453 11.1982 13.9551 11.1673C13.964 11.1392 13.9397 11.0884 13.8907 11.0326C13.7868 10.9143 13.7786 10.7068 13.8819 10.8101C13.9026 10.8308 13.9153 10.8232 13.9283 10.7821C13.9412 10.7414 13.9202 10.6836 13.8532 10.5751C13.8021 10.4922 13.7603 10.4132 13.7603 10.3995C13.7603 10.3858 13.713 10.3418 13.6552 10.3018C13.5974 10.2617 13.5224 10.1961 13.4886 10.156C13.4548 10.1158 13.4159 10.0829 13.4021 10.0829C13.3576 10.0829 13.1641 9.83104 13.1789 9.79243C13.1888 9.76663 13.1624 9.74619 13.092 9.7251C13.0364 9.70844 12.9748 9.69452 12.9551 9.69416C12.9064 9.6933 12.8291 9.53106 12.8461 9.46568C12.8557 9.42919 12.8282 9.37441 12.7574 9.28861C12.701 9.22027 12.6329 9.11778 12.606 9.06086L12.557 8.95735L12.293 8.95001C12.0436 8.94304 12.026 8.9389 11.976 8.87533C11.9469 8.83833 11.9093 8.76186 11.8923 8.70543C11.8754 8.64902 11.8371 8.58677 11.8071 8.56713C11.7512 8.53051 11.2197 8.47219 11.1579 8.49589C11.113 8.51312 10.0254 8.38069 9.89369 8.34196C9.83741 8.3254 9.72765 8.25365 9.64788 8.18122C9.56859 8.10926 9.41212 7.98081 9.30011 7.89579C9.18812 7.81076 8.98293 7.65388 8.84416 7.54714C8.29578 7.12542 7.97288 6.8838 7.82477 6.78439C7.50241 6.56802 7.3269 6.45717 7.22671 6.40668C7.16979 6.37801 7.05917 6.31953 6.9809 6.27671C6.77811 6.16581 6.50807 6.07556 6.3241 6.05721C6.23705 6.04854 6.11924 6.03118 6.06232 6.01866C5.89063 5.98088 5.84072 5.992 5.55405 6.13191ZM11.6337 7.70348C11.5869 7.73081 11.501 7.94014 11.4729 8.09524C11.4634 8.14766 11.4259 8.24371 11.3896 8.30871L11.3235 8.42691L11.384 8.42862C11.5687 8.43379 11.7621 8.46047 11.8346 8.49079C11.9004 8.51827 11.9262 8.55235 11.9612 8.65759C12.0268 8.85509 12.0506 8.87015 12.2885 8.86441C12.4006 8.86172 12.4924 8.85737 12.4924 8.85476C12.4924 8.85214 12.4458 8.76003 12.3889 8.65001C12.3319 8.54001 12.2854 8.43485 12.2854 8.41635C12.2854 8.39785 12.2568 8.35189 12.2219 8.31425C12.1711 8.25944 12.1348 8.24578 12.0402 8.24578H11.9219L11.9661 8.17462C12.0403 8.05516 12.1109 7.98703 12.1605 7.98703C12.2579 7.98703 12.1927 7.81193 12.0637 7.72687C11.9803 7.67191 11.7128 7.65735 11.6337 7.70348ZM12.2912 7.87059C12.2961 7.94174 12.3103 7.97409 12.3367 7.97409C12.395 7.97409 12.3948 7.9043 12.3363 7.83177L12.2841 7.76708L12.2912 7.87059ZM18.2561 10.8222C18.182 10.8625 18.1668 10.8966 18.2108 10.9239C18.2251 10.9327 18.2367 11.0032 18.2367 11.0807C18.2367 11.1581 18.2478 11.2215 18.2614 11.2215C18.2968 11.2215 18.3233 11.0539 18.3054 10.9435C18.2968 10.8903 18.3024 10.8348 18.3183 10.8155C18.3536 10.7731 18.345 10.774 18.2561 10.8222ZM14.2175 10.9239C14.2371 11.0518 14.252 11.0736 14.2515 10.9735C14.2513 10.932 14.24 10.8805 14.2264 10.8592C14.2095 10.8328 14.2067 10.8534 14.2175 10.9239ZM14.6173 11.0165C14.602 11.0604 14.5819 11.1536 14.5726 11.2235C14.5633 11.2936 14.5443 11.3508 14.5304 11.3508C14.5159 11.3508 14.5124 11.3801 14.5221 11.4188C14.5362 11.4751 14.5317 11.4839 14.4961 11.4702C14.4641 11.4579 14.4572 11.4644 14.4692 11.4956C14.478 11.5187 14.4915 11.5897 14.4992 11.6535C14.513 11.7688 14.6027 12.0429 14.64 12.0838C14.6666 12.113 14.8639 12.0513 14.9069 12.0002C14.9464 11.9534 15.0282 11.7429 15.0282 11.688C15.0282 11.6681 15.0032 11.6251 14.9726 11.5926C14.914 11.5303 14.8991 11.3701 14.9367 11.207C14.9532 11.1354 14.9438 11.1186 14.8384 11.0323C14.6965 10.916 14.6534 10.9129 14.6173 11.0165ZM18.1247 11.0274C18.1119 11.074 18.0111 11.1952 17.8724 11.3309C17.7455 11.4551 17.6416 11.5681 17.6416 11.582C17.6416 11.6196 17.5384 11.7646 17.4226 11.8898C17.3663 11.9506 17.2784 12.0842 17.2271 12.1866C17.1306 12.3794 17.0108 12.489 16.8279 12.552C16.7441 12.5809 16.0215 12.5452 15.9273 12.5075C15.8248 12.4664 15.8043 12.4684 15.7601 12.523C15.6707 12.6336 15.5934 12.6638 15.4106 12.6597C15.3153 12.6576 15.2462 12.6621 15.257 12.6696C15.278 12.6843 15.4895 12.9436 15.5974 13.087C15.633 13.1342 15.7178 13.233 15.7858 13.3065C15.9134 13.4445 15.9486 13.4592 16.2184 13.4875C16.2825 13.4943 16.4513 13.5165 16.5936 13.537C16.7359 13.5575 16.9106 13.5803 16.9817 13.5877C17.0529 13.5951 17.1344 13.606 17.1629 13.6119C17.4346 13.6679 17.5378 13.6829 17.6022 13.6754C17.673 13.6672 17.6795 13.6564 17.709 13.4985C17.7263 13.406 17.7543 13.2954 17.7713 13.2527C17.7883 13.21 17.8226 13.0907 17.8477 12.9877C17.8875 12.8234 17.8886 12.7916 17.8564 12.7296C17.8237 12.6665 17.8246 12.6554 17.865 12.6259C17.8899 12.6077 17.94 12.5911 17.9764 12.5889C18.0962 12.5818 18.1051 12.5796 18.1348 12.5498C18.1568 12.5278 18.151 12.5071 18.1116 12.4677C17.974 12.3302 17.9643 11.85 18.098 11.7987C18.1453 11.7805 18.2471 11.8823 18.2221 11.9228C18.196 11.965 18.2303 11.9469 18.3117 11.8755C18.378 11.8173 18.392 11.7858 18.392 11.6941V11.5831L18.2858 11.6001C18.1917 11.6151 18.1808 11.6116 18.189 11.5689C18.1941 11.5425 18.2331 11.5029 18.2757 11.4811C18.3183 11.4592 18.359 11.4373 18.3661 11.4323C18.3732 11.4273 18.3301 11.3807 18.2704 11.3288C18.1705 11.242 18.1611 11.2229 18.154 11.0921C18.147 10.9654 18.1438 10.9583 18.1247 11.0274ZM18.0971 11.9094C18.0727 11.9731 18.0787 12.2084 18.1074 12.3083C18.1216 12.358 18.1582 12.4174 18.1887 12.4404C18.2305 12.4719 18.24 12.4985 18.2274 12.5487C18.2135 12.6042 18.1883 12.6197 18.0743 12.6434L17.9379 12.6717L17.9476 12.7738C17.953 12.83 17.9394 12.9374 17.9174 13.0126C17.7947 13.432 17.771 13.5262 17.7712 13.5931C17.7714 13.6456 17.8189 13.7229 17.9374 13.8633C18.1885 14.1609 18.1946 14.2117 18.0553 14.844C18.0287 14.965 18.0003 15.1287 17.9921 15.2079C17.984 15.2871 17.9542 15.4354 17.9259 15.5375C17.8976 15.6396 17.8745 15.7519 17.8745 15.7871C17.8745 15.8223 17.8519 15.872 17.8242 15.8974C17.7697 15.9477 17.3858 16.1443 17.137 16.2494C16.9774 16.3168 16.3771 16.5183 16.2802 16.5369C16.2503 16.5427 16.1456 16.5709 16.0475 16.5996C15.9494 16.6283 15.84 16.6554 15.8044 16.66C15.7562 16.6661 15.7418 16.6814 15.748 16.72C15.7588 16.7873 16.0106 17.3552 16.052 17.4057C16.0696 17.427 16.103 17.4907 16.1263 17.5471C16.1496 17.6035 16.1786 17.6559 16.1906 17.6635C16.2235 17.6842 16.3478 17.9913 16.3478 18.0518C16.3478 18.0807 16.3582 18.1043 16.3709 18.1043C16.3972 18.1043 16.4772 18.2916 16.4772 18.3532C16.4772 18.3757 16.496 18.4337 16.5189 18.4821C16.5755 18.6012 16.6664 18.5987 16.9314 18.4707C17.3221 18.2819 17.4139 18.2656 17.7487 18.3254C17.8324 18.3403 17.8548 18.3314 17.9492 18.2461C18.0536 18.1518 18.0556 18.1468 18.0556 17.977C18.0556 17.815 18.0609 17.799 18.1397 17.7264C18.2813 17.5957 18.2972 17.5893 18.5478 17.5609C18.7017 17.5434 18.8077 17.5181 18.8367 17.4919C18.8895 17.4441 18.9871 17.1983 18.9871 17.1132C18.9871 16.9298 19.2553 16.7488 19.5804 16.7129C19.7802 16.6908 19.7955 16.6619 19.7229 16.4434C19.6389 16.1904 19.7141 15.5904 19.8479 15.4456C19.9249 15.3623 20.0119 15.3702 20.0609 15.465C20.083 15.5077 20.1181 15.5426 20.1389 15.5426C20.1768 15.5426 20.255 15.3898 20.255 15.3157C20.255 15.2689 20.388 14.9993 20.4111 14.9993C20.4538 14.9993 20.7036 14.6483 20.8163 14.43C20.9737 14.1252 21.0246 13.9747 20.9893 13.9187C20.9751 13.8962 20.8965 13.8427 20.8146 13.7998C20.673 13.7256 20.6188 13.671 20.5008 13.4834C20.3663 13.2695 20.1492 13.0125 20.0822 12.9877C20.0122 12.9619 19.6865 12.8773 19.414 12.8142C19.3429 12.7978 19.2396 12.7645 19.1845 12.7403C19.1294 12.7161 19.0785 12.6964 19.0715 12.6964C19.0645 12.6964 19.0025 12.6551 18.9338 12.6047C18.7823 12.4934 18.5838 12.2445 18.4862 12.0432L18.4142 11.8947L18.3145 11.9748C18.2069 12.0613 18.1591 12.0564 18.1591 11.9589C18.1591 11.8846 18.1189 11.8526 18.0971 11.9094Z" fill="#4B005C"/>
</svg>
