<svg width="24" height="24" viewBox="0 0 24 24" fill="none" xmlns="http://www.w3.org/2000/svg">
<rect width="24" height="24" rx="12" fill="#D6EBFF"/>
<path fill-rule="evenodd" clip-rule="evenodd" d="M15.9484 6.00965C16.8279 5.13012 18.2496 5.13012 19.1291 6.00965C20.0086 6.88918 20.0086 8.31089 19.1291 9.19042L9.32918 18.9904C8.44965 19.8699 7.02795 19.8699 6.14842 18.9904C5.26889 18.1108 5.26889 16.6891 6.14842 15.8096L15.9484 6.00965ZM18.2099 6.92889C17.838 6.55704 17.2394 6.55704 16.8676 6.92889L7.06766 16.7288C6.69581 17.1007 6.69581 17.6993 7.06766 18.0711C7.4395 18.443 8.03809 18.443 8.40994 18.0711L18.2099 8.27118C18.5817 7.89933 18.5817 7.30074 18.2099 6.92889Z" fill="#002F5C"/>
<path fill-rule="evenodd" clip-rule="evenodd" d="M14.6792 7.54039C14.933 7.28655 15.3445 7.28655 15.5984 7.54039L17.5984 9.54039C17.8522 9.79423 17.8522 10.2058 17.5984 10.4596C17.3445 10.7135 16.933 10.7135 16.6792 10.4596L14.6792 8.45963C14.4253 8.20578 14.4253 7.79423 14.6792 7.54039Z" fill="#002F5C"/>
<path fill-rule="evenodd" clip-rule="evenodd" d="M8.67917 3.54037C8.84724 3.3723 9.09366 3.30937 9.32174 3.37627L10.1388 3.61594L10.9558 3.37627C11.1839 3.30937 11.4303 3.3723 11.5984 3.54037C11.7665 3.70845 11.8294 3.95486 11.7625 4.18295L11.5228 4.99999L11.7625 5.81703C11.8294 6.04512 11.7665 6.29154 11.5984 6.45961C11.4303 6.62769 11.1839 6.69062 10.9558 6.62371L10.1388 6.38405L9.32174 6.62371C9.09366 6.69062 8.84724 6.62769 8.67917 6.45961C8.51109 6.29153 8.44816 6.04512 8.51507 5.81703L8.75473 4.99999L8.51507 4.18295C8.44816 3.95486 8.51109 3.70845 8.67917 3.54037ZM10.0794 4.94061C10.083 4.98011 10.083 5.01987 10.0794 5.05938C10.1189 5.05575 10.1587 5.05575 10.1982 5.05938C10.1945 5.01987 10.1945 4.98011 10.1982 4.94061C10.1587 4.94423 10.1189 4.94423 10.0794 4.94061Z" fill="#002F5C"/>
<path fill-rule="evenodd" clip-rule="evenodd" d="M2.67917 9.54037C2.84724 9.3723 3.09366 9.30937 3.32174 9.37627L4.13879 9.61594L4.95583 9.37627C5.18391 9.30937 5.43033 9.3723 5.5984 9.54037C5.76648 9.70845 5.82941 9.95486 5.76251 10.1829L5.52284 11L5.76251 11.817C5.82941 12.0451 5.76648 12.2915 5.5984 12.4596C5.43033 12.6277 5.18391 12.6906 4.95583 12.6237L4.13879 12.384L3.32174 12.6237C3.09366 12.6906 2.84724 12.6277 2.67917 12.4596C2.51109 12.2915 2.44816 12.0451 2.51507 11.817L2.75473 11L2.51507 10.1829C2.44816 9.95486 2.51109 9.70845 2.67917 9.54037ZM4.0794 10.9406C4.08302 10.9801 4.08302 11.0199 4.0794 11.0594C4.11891 11.0558 4.15866 11.0558 4.19817 11.0594C4.19455 11.0199 4.19455 10.9801 4.19817 10.9406C4.15866 10.9442 4.11891 10.9442 4.0794 10.9406Z" fill="#002F5C"/>
<path fill-rule="evenodd" clip-rule="evenodd" d="M18.6792 14.5404C18.8472 14.3723 19.0937 14.3094 19.3217 14.3763L20.1388 14.6159L20.9558 14.3763C21.1839 14.3094 21.4303 14.3723 21.5984 14.5404C21.7665 14.7084 21.8294 14.9549 21.7625 15.1829L21.5228 16L21.7625 16.817C21.8294 17.0451 21.7665 17.2915 21.5984 17.4596C21.4303 17.6277 21.1839 17.6906 20.9558 17.6237L20.1388 17.384L19.3217 17.6237C19.0937 17.6906 18.8472 17.6277 18.6792 17.4596C18.5111 17.2915 18.4482 17.0451 18.5151 16.817L18.7547 16L18.5151 15.1829C18.4482 14.9549 18.5111 14.7084 18.6792 14.5404ZM20.0794 15.9406C20.083 15.9801 20.083 16.0199 20.0794 16.0594C20.1189 16.0558 20.1587 16.0558 20.1982 16.0594C20.1945 16.0199 20.1945 15.9801 20.1982 15.9406C20.1587 15.9442 20.1189 15.9442 20.0794 15.9406Z" fill="#002F5C"/>
</svg>
