<svg width="24" height="24" viewBox="0 0 24 24" fill="none" xmlns="http://www.w3.org/2000/svg">
<rect width="24" height="24" rx="12" fill="#F6CDFF"/>
<path d="M5.35352 14.3672L5.01758 12.8398C4.99935 12.7487 4.9694 12.6146 4.92773 12.4375C4.88607 12.2578 4.84049 12.0664 4.79102 11.8633C4.74414 11.6576 4.69987 11.4674 4.6582 11.293C4.61914 11.1185 4.59049 10.9909 4.57227 10.9102H4.53711C4.51888 10.9909 4.49023 11.1185 4.45117 11.293C4.41211 11.4674 4.36784 11.6576 4.31836 11.8633C4.27148 12.069 4.22721 12.263 4.18555 12.4453C4.14388 12.625 4.11263 12.7617 4.0918 12.8555L3.74023 14.3672H2.45898L1.2168 10H2.4043L2.9082 11.9336C2.94206 12.069 2.97461 12.2305 3.00586 12.418C3.03711 12.6029 3.06445 12.7826 3.08789 12.957C3.11393 13.1289 3.13346 13.2656 3.14648 13.3672H3.17773C3.18294 13.2917 3.19336 13.1914 3.20898 13.0664C3.22721 12.9414 3.24674 12.8125 3.26758 12.6797C3.29102 12.5443 3.31185 12.4232 3.33008 12.3164C3.35091 12.207 3.36654 12.1328 3.37695 12.0938L3.91602 10H5.22852L5.74023 12.0938C5.75846 12.1693 5.7819 12.2891 5.81055 12.4531C5.8418 12.6172 5.86914 12.7865 5.89258 12.9609C5.91602 13.1328 5.92904 13.2682 5.93164 13.3672H5.96289C5.97331 13.2786 5.99154 13.1471 6.01758 12.9727C6.04362 12.7982 6.07357 12.6159 6.10742 12.4258C6.14388 12.2331 6.18034 12.069 6.2168 11.9336L6.74023 10H7.9082L6.65039 14.3672H5.35352Z" fill="#4B005C"/>
<path d="M12.8451 14.3672L12.5091 12.8398C12.4909 12.7487 12.461 12.6146 12.4193 12.4375C12.3776 12.2578 12.3321 12.0664 12.2826 11.8633C12.2357 11.6576 12.1914 11.4674 12.1498 11.293C12.1107 11.1185 12.0821 10.9909 12.0638 10.9102H12.0287C12.0104 10.9909 11.9818 11.1185 11.9427 11.293C11.9037 11.4674 11.8594 11.6576 11.8099 11.8633C11.763 12.069 11.7188 12.263 11.6771 12.4453C11.6354 12.625 11.6042 12.7617 11.5834 12.8555L11.2318 14.3672H9.95055L8.70836 10H9.89586L10.3998 11.9336C10.4336 12.069 10.4662 12.2305 10.4974 12.418C10.5287 12.6029 10.556 12.7826 10.5795 12.957C10.6055 13.1289 10.625 13.2656 10.638 13.3672H10.6693C10.6745 13.2917 10.6849 13.1914 10.7005 13.0664C10.7188 12.9414 10.7383 12.8125 10.7591 12.6797C10.7826 12.5443 10.8034 12.4232 10.8216 12.3164C10.8425 12.207 10.8581 12.1328 10.8685 12.0938L11.4076 10H12.7201L13.2318 12.0938C13.25 12.1693 13.2735 12.2891 13.3021 12.4531C13.3334 12.6172 13.3607 12.7865 13.3841 12.9609C13.4076 13.1328 13.4206 13.2682 13.4232 13.3672H13.4545C13.4649 13.2786 13.4831 13.1471 13.5091 12.9727C13.5352 12.7982 13.5651 12.6159 13.599 12.4258C13.6354 12.2331 13.6719 12.069 13.7084 11.9336L14.2318 10H15.3998L14.142 14.3672H12.8451Z" fill="#4B005C"/>
<path d="M20.3366 14.3672L20.0007 12.8398C19.9825 12.7487 19.9525 12.6146 19.9109 12.4375C19.8692 12.2578 19.8236 12.0664 19.7741 11.8633C19.7273 11.6576 19.683 11.4674 19.6413 11.293C19.6023 11.1185 19.5736 10.9909 19.5554 10.9102H19.5202C19.502 10.9909 19.4734 11.1185 19.4343 11.293C19.3952 11.4674 19.351 11.6576 19.3015 11.8633C19.2546 12.069 19.2103 12.263 19.1687 12.4453C19.127 12.625 19.0958 12.7617 19.0749 12.8555L18.7234 14.3672H17.4421L16.1999 10H17.3874L17.8913 11.9336C17.9252 12.069 17.9577 12.2305 17.989 12.418C18.0202 12.6029 18.0476 12.7826 18.071 12.957C18.0971 13.1289 18.1166 13.2656 18.1296 13.3672H18.1609C18.1661 13.2917 18.1765 13.1914 18.1921 13.0664C18.2103 12.9414 18.2299 12.8125 18.2507 12.6797C18.2741 12.5443 18.295 12.4232 18.3132 12.3164C18.334 12.207 18.3497 12.1328 18.3601 12.0938L18.8991 10H20.2116L20.7234 12.0938C20.7416 12.1693 20.765 12.2891 20.7937 12.4531C20.8249 12.6172 20.8523 12.7865 20.8757 12.9609C20.8991 13.1328 20.9122 13.2682 20.9148 13.3672H20.946C20.9564 13.2786 20.9747 13.1471 21.0007 12.9727C21.0267 12.7982 21.0567 12.6159 21.0905 12.4258C21.127 12.2331 21.1635 12.069 21.1999 11.9336L21.7234 10H22.8913L21.6335 14.3672H20.3366Z" fill="#4B005C"/>
</svg>
