<svg width="24" height="24" viewBox="0 0 24 24" fill="none" xmlns="http://www.w3.org/2000/svg">
<rect width="24" height="24" rx="12" fill="#D5CDFF"/>
<path fill-rule="evenodd" clip-rule="evenodd" d="M7.79212 3.52118C7.97161 3.21029 8.36914 3.10377 8.68003 3.28326L12.0186 5.21078C12.3295 5.39028 12.436 5.78781 12.2565 6.0987L10.3562 9.39011C10.1767 9.701 9.77919 9.80751 9.4683 9.62802C9.15741 9.44853 9.05089 9.051 9.23039 8.74011L10.4696 6.59375C9.85971 6.72469 9.27589 6.9588 8.74438 7.2885C7.87881 7.82543 7.18637 8.59349 6.7443 9.50626C6.30218 10.4192 6.12772 11.4417 6.24222 12.4563C6.28247 12.813 6.02593 13.1348 5.66921 13.1751C5.31248 13.2153 4.99067 12.9588 4.95041 12.602C4.80848 11.3444 5.02455 10.0747 5.5743 8.93962C6.1241 7.80439 6.98502 6.85006 8.05911 6.18378C8.5987 5.84906 9.18089 5.59423 9.78773 5.4239L8.03003 4.4091C7.71914 4.22961 7.61262 3.83207 7.79212 3.52118Z" fill="#0E005C"/>
<path fill-rule="evenodd" clip-rule="evenodd" d="M17.3617 15.5526C17.0509 15.7321 16.6533 15.6255 16.4738 15.3146L14.5735 12.0232C14.394 11.7124 14.5006 11.3148 14.8115 11.1353C15.1223 10.9558 15.5199 11.0624 15.6994 11.3732L16.9384 13.5194C17.1298 12.9257 17.2189 12.3029 17.1991 11.6777C17.1669 10.6597 16.8475 9.6752 16.278 8.8359C15.7085 7.99653 14.9112 7.33491 13.9753 6.92678C13.6462 6.78328 13.4958 6.4002 13.6393 6.07115C13.7828 5.74209 14.1659 5.59166 14.4949 5.73516C15.6551 6.2411 16.6456 7.06235 17.3537 8.10597C18.0619 9.14965 18.4585 10.3732 18.4984 11.6366C18.5185 12.2713 18.4482 12.9032 18.2923 13.5142L20.0503 12.4992C20.3612 12.3197 20.7587 12.4262 20.9382 12.7371C21.1177 13.048 21.0112 13.4456 20.7003 13.625L17.3617 15.5526Z" fill="#0E005C"/>
<path fill-rule="evenodd" clip-rule="evenodd" d="M6.13854 19.65C5.77955 19.65 5.48854 19.359 5.48854 19L5.48854 15C5.48854 14.641 5.77955 14.35 6.13854 14.35L9.98224 14.35C10.3412 14.35 10.6322 14.641 10.6322 15C10.6322 15.359 10.3412 15.65 9.98224 15.65L7.4348 15.65C7.86785 16.1524 8.3835 16.5725 8.95927 16.8891C9.86732 17.3884 10.8889 17.6115 11.9097 17.5354C12.9308 17.4592 13.9142 17.0862 14.7461 16.4561C15.0322 16.2393 15.4399 16.2956 15.6567 16.5817C15.8734 16.8679 15.8172 17.2756 15.531 17.4923C14.5024 18.2715 13.2807 18.7367 12.0065 18.8318C10.732 18.9269 9.45952 18.6477 8.33292 18.0283C7.7643 17.7156 7.24516 17.3229 6.78854 16.8641L6.78854 19C6.78854 19.359 6.49752 19.65 6.13854 19.65Z" fill="#0E005C"/>
</svg>
