<svg width="24" height="24" viewBox="0 0 24 24" fill="none" xmlns="http://www.w3.org/2000/svg">
<rect width="24" height="24" rx="12" fill="#D5CDFF"/>
<path fill-rule="evenodd" clip-rule="evenodd" d="M9.16982 5.54039C9.42366 5.79423 9.42366 6.20578 9.16982 6.45963L7.70801 7.92143H18.1388C18.4978 7.92143 18.7888 8.21245 18.7888 8.57143C18.7888 8.93042 18.4978 9.22143 18.1388 9.22143H7.70801L9.16982 10.6832C9.42366 10.9371 9.42366 11.3486 9.16982 11.6025C8.91598 11.8563 8.50442 11.8563 8.25058 11.6025L5.67915 9.03105C5.42531 8.77721 5.42531 8.36566 5.67915 8.11182L8.25058 5.54039C8.50442 5.28655 8.91598 5.28655 9.16982 5.54039ZM15.1077 12.3975C15.3616 12.1437 15.7731 12.1437 16.027 12.3975L18.5984 14.969C18.8522 15.2228 18.8522 15.6344 18.5984 15.8882L16.027 18.4596C15.7731 18.7135 15.3616 18.7135 15.1077 18.4596C14.8539 18.2058 14.8539 17.7942 15.1077 17.5404L16.5695 16.0786H6.13877C5.77978 16.0786 5.48877 15.7876 5.48877 15.4286C5.48877 15.0696 5.77978 14.7786 6.13877 14.7786H16.5695L15.1077 13.3168C14.8539 13.0629 14.8539 12.6514 15.1077 12.3975Z" fill="#0E005C"/>
</svg>
