<svg width="24" height="24" viewBox="0 0 24 24" fill="none" xmlns="http://www.w3.org/2000/svg">
<rect width="24" height="24" rx="12" fill="#CDFFF6"/>
<path fill-rule="evenodd" clip-rule="evenodd" d="M12.1386 19.0053C12.8842 19.0053 13.4886 18.4009 13.4886 17.6553C13.4886 16.9097 12.8842 16.3053 12.1386 16.3053C11.393 16.3053 10.7886 16.9097 10.7886 17.6553C10.7886 18.4009 11.393 19.0053 12.1386 19.0053ZM14.7886 17.6553C14.7886 19.1188 13.6021 20.3053 12.1386 20.3053C10.675 20.3053 9.48857 19.1188 9.48857 17.6553C9.48857 16.1917 10.675 15.0053 12.1386 15.0053C13.6021 15.0053 14.7886 16.1917 14.7886 17.6553Z" fill="#005C4B"/>
<path fill-rule="evenodd" clip-rule="evenodd" d="M17.1386 8.93615C17.8842 8.93615 18.4886 8.33173 18.4886 7.58615C18.4886 6.84056 17.8842 6.23615 17.1386 6.23615C16.393 6.23615 15.7886 6.84056 15.7886 7.58615C15.7886 8.33173 16.393 8.93615 17.1386 8.93615ZM19.7886 7.58614C19.7886 9.0497 18.6021 10.2361 17.1386 10.2361C15.675 10.2361 14.4886 9.0497 14.4886 7.58615C14.4886 6.12259 15.675 4.93615 17.1386 4.93615C18.6021 4.93614 19.7886 6.12259 19.7886 7.58614Z" fill="#005C4B"/>
<path fill-rule="evenodd" clip-rule="evenodd" d="M7.13857 8.93615C7.88416 8.93615 8.48857 8.33173 8.48857 7.58615C8.48857 6.84056 7.88416 6.23615 7.13857 6.23615C6.39299 6.23615 5.78857 6.84056 5.78857 7.58615C5.78857 8.33173 6.39299 8.93615 7.13857 8.93615ZM9.78857 7.58614C9.78857 9.0497 8.60213 10.2361 7.13857 10.2361C5.67502 10.2361 4.48857 9.0497 4.48857 7.58615C4.48857 6.12259 5.67502 4.93615 7.13857 4.93615C8.60213 4.93614 9.78857 6.12259 9.78857 7.58614Z" fill="#005C4B"/>
<path fill-rule="evenodd" clip-rule="evenodd" d="M12.7509 13.2615L17.0644 13.2615C17.2367 13.2615 17.4021 13.193 17.524 13.0711C17.6459 12.9492 17.7144 12.7839 17.7144 12.6115L17.7144 9.58614L16.4144 9.58614L16.4144 11.9615L7.78746 11.9615L7.78746 9.58614L6.48746 9.58614L6.48746 12.6115C6.48746 12.9705 6.77848 13.2615 7.13746 13.2615L11.4509 13.2615L11.4509 16.0286L12.7509 16.0286L12.7509 13.2615Z" fill="#005C4B"/>
</svg>
