<svg width="24" height="24" viewBox="0 0 24 24" fill="none" xmlns="http://www.w3.org/2000/svg">
<rect width="24" height="24" rx="12" fill="#D6EBFF"/>
<path fill-rule="evenodd" clip-rule="evenodd" d="M4.3252 4.99964C4.32538 4.64079 4.61634 4.34998 4.9752 4.34998H6.30853C6.66751 4.34998 6.95853 4.64099 6.95853 4.99998C6.95853 5.35896 6.66751 5.64998 6.30853 5.64998H5.64672C5.65497 5.80534 5.66638 5.98392 5.68215 6.18067C5.73985 6.90034 5.85492 7.85009 6.08238 8.79181C6.31214 9.74301 6.64465 10.6345 7.10905 11.2745C7.56087 11.8971 8.10012 12.2389 8.7903 12.2389C9.59746 12.2389 10.2079 11.8713 10.7011 11.2515C11.2096 10.6124 11.5727 9.72443 11.8238 8.77778C12.0726 7.83965 12.1989 6.89307 12.2623 6.17537C12.2795 5.98074 12.292 5.80397 12.3011 5.64998H11.6419C11.2829 5.64998 10.9919 5.35896 10.9919 4.99998C10.9919 4.64099 11.2829 4.34998 11.6419 4.34998H12.9752C13.3342 4.34998 13.6252 4.64099 13.6252 4.99998H12.9752C13.6252 4.99998 13.6252 4.99975 13.6252 4.99998V5.00101L13.6252 5.00277L13.6252 5.00843L13.625 5.02817C13.6249 5.04501 13.6246 5.06913 13.6241 5.10006C13.623 5.16191 13.6208 5.25104 13.6166 5.36356C13.608 5.58846 13.5911 5.90763 13.5573 6.28986C13.49 7.05133 13.3546 8.07697 13.0804 9.11106C12.8083 10.1366 12.3868 11.2209 11.7183 12.0609C11.1551 12.7687 10.4053 13.3131 9.4403 13.4832V16.5C9.4403 18.1279 9.89462 19.2108 10.5005 19.8863C11.1066 20.5621 11.9141 20.8867 12.7351 20.9128C14.4222 20.9665 15.9884 19.797 15.9884 18C15.9884 17.641 16.2795 17.35 16.6384 17.35C16.9974 17.35 17.2884 17.641 17.2884 18C17.2884 20.703 14.9306 22.2834 12.6937 22.2121C11.5526 22.1758 10.3981 21.7191 9.53269 20.7543C8.66699 19.7891 8.1403 18.3721 8.1403 16.5V13.4741C7.24667 13.2905 6.56225 12.7344 6.05689 12.038C5.44791 11.1988 5.06534 10.1181 4.81872 9.09703C4.56981 8.06652 4.4472 7.04406 4.38631 6.28456C4.35575 5.9034 4.34049 5.58518 4.33286 5.36108C4.32904 5.24896 4.32712 5.16022 4.32616 5.09872C4.32568 5.06797 4.32544 5.04402 4.32532 5.02735L4.32521 5.00785L4.3252 5.00232L4.3252 4.99964C4.3252 4.99943 4.3252 4.99964 4.9752 4.99998L4.3252 4.99964Z" fill="#002F5C"/>
<path fill-rule="evenodd" clip-rule="evenodd" d="M16.6388 15.65C16.1693 15.65 15.7888 16.0305 15.7888 16.5C15.7888 16.9694 16.1693 17.35 16.6388 17.35C17.1082 17.35 17.4888 16.9694 17.4888 16.5C17.4888 16.0305 17.1082 15.65 16.6388 15.65ZM14.4888 16.5C14.4888 15.3126 15.4514 14.35 16.6388 14.35C17.8262 14.35 18.7888 15.3126 18.7888 16.5C18.7888 17.6874 17.8262 18.65 16.6388 18.65C15.4514 18.65 14.4888 17.6874 14.4888 16.5Z" fill="#002F5C"/>
<path fill-rule="evenodd" clip-rule="evenodd" d="M19.8845 11.5301C19.6956 11.8353 19.2949 11.9296 18.9897 11.7406C18.3102 11.32 17.4955 11.0684 16.6383 11.0684C15.7758 11.0684 14.9396 11.3227 14.2952 11.7353C13.9929 11.9289 13.5909 11.8408 13.3973 11.5385C13.2037 11.2362 13.2919 10.8342 13.5942 10.6406C14.452 10.0912 15.5323 9.76837 16.6383 9.76837C17.7494 9.76837 18.7995 10.0939 19.674 10.6353C19.9792 10.8242 20.0735 11.2249 19.8845 11.5301Z" fill="#002F5C"/>
<path fill-rule="evenodd" clip-rule="evenodd" d="M18.7805 13.5665C18.5419 13.8347 18.1311 13.8588 17.8628 13.6202C17.4833 13.2826 17.0724 13.1218 16.638 13.1218C16.194 13.1218 15.7662 13.2891 15.4261 13.6084C15.1644 13.8541 14.7531 13.8411 14.5073 13.5794C14.2616 13.3177 14.2746 12.9063 14.5363 12.6606C15.1139 12.1184 15.8586 11.8218 16.638 11.8218C17.4271 11.8218 18.1377 12.1248 18.7268 12.6488C18.995 12.8874 19.0191 13.2983 18.7805 13.5665Z" fill="#002F5C"/>
</svg>
