<svg width="24" height="24" viewBox="0 0 24 24" fill="none" xmlns="http://www.w3.org/2000/svg">
<rect width="24" height="24" rx="12" fill="#FFD5CD"/>
<path fill-rule="evenodd" clip-rule="evenodd" d="M12.1094 5.1804C9.10678 5.1804 6.73084 7.62018 6.78985 10.6504L6.79009 10.6631L6.78997 10.9696C6.8573 10.9575 6.92411 10.9485 6.98948 10.9414C7.33763 10.904 7.78132 10.9128 8.29072 10.9229L8.33253 10.9237C9.22906 10.9415 10.0735 11.64 10.0735 12.6832V14.3776C10.0735 14.405 10.0736 14.4326 10.0736 14.4603C10.0738 14.7209 10.0739 14.9951 10.0585 15.2496C10.0414 15.53 10.0034 15.8328 9.90374 16.1129C9.80053 16.4029 9.62289 16.6906 9.31893 16.8971C9.01923 17.1006 8.66263 17.1804 8.28176 17.1804C6.74858 17.1804 5.48997 15.9021 5.48997 14.3776L5.48997 13.9926C5.48997 13.9675 5.48997 13.9426 5.48997 13.9179V10.6692C5.42052 6.92455 8.3708 3.8804 12.1094 3.8804C15.8486 3.8804 18.7888 6.92377 18.7888 10.5967V13.8604C18.7888 13.8822 18.7888 13.9041 18.7888 13.9262V16.5304C18.7888 18.5462 17.1546 20.1804 15.1388 20.1804H13.1094C12.7504 20.1804 12.4594 19.8894 12.4594 19.5304C12.4594 19.1714 12.7504 18.8804 13.1094 18.8804H15.1388C16.3879 18.8804 17.4094 17.9058 17.4844 16.6754C17.0528 16.9524 16.5423 17.1141 15.997 17.1141C15.6161 17.1141 15.2595 17.0343 14.9598 16.8307C14.6559 16.6243 14.4782 16.3366 14.375 16.0466C14.2753 15.7665 14.2374 15.4636 14.2203 15.1833C14.2048 14.9288 14.205 14.6546 14.2052 14.394C14.2052 14.3662 14.2052 14.3387 14.2052 14.3113V12.6168C14.2052 11.5737 15.0497 10.8752 15.9462 10.8574L15.988 10.8566C16.4974 10.8465 16.9411 10.8376 17.2893 10.8751C17.3546 10.8821 17.4214 10.8912 17.4888 10.9033V10.5967C17.4888 7.62446 15.1135 5.1804 12.1094 5.1804ZM17.4888 13.9641C17.4888 13.3251 17.4881 12.8941 17.4579 12.5821C17.4329 12.3239 17.3935 12.2372 17.3825 12.2172C17.3622 12.2071 17.3002 12.1838 17.1502 12.1676C16.8947 12.1401 16.5355 12.146 15.972 12.1572C15.7048 12.1624 15.5052 12.3575 15.5052 12.6168V14.3113C15.5052 14.3375 15.5052 14.3634 15.5052 14.389C15.5051 14.6588 15.505 14.892 15.5179 15.1042C15.5321 15.3378 15.5602 15.4996 15.5998 15.6107C15.6358 15.7119 15.6705 15.7419 15.6903 15.7554C15.7143 15.7717 15.7929 15.8141 15.997 15.8141C16.8036 15.8141 17.4888 15.1265 17.4888 14.3113V13.9641ZM6.82084 12.6484C6.79063 12.9604 6.78997 13.3914 6.78997 14.0304V14.3776C6.78997 15.1928 7.47516 15.8804 8.28176 15.8804C8.48583 15.8804 8.56442 15.838 8.58848 15.8217C8.60828 15.8082 8.64297 15.7782 8.67897 15.6771C8.71852 15.5659 8.74664 15.4041 8.76086 15.1706C8.77378 14.9584 8.77368 14.7252 8.77356 14.4553C8.77355 14.4298 8.77354 14.4039 8.77354 14.3776V12.6832C8.77354 12.4238 8.5739 12.2288 8.30678 12.2235C7.74328 12.2123 7.38406 12.2065 7.12855 12.234C6.97856 12.2501 6.91651 12.2734 6.89624 12.2835C6.88525 12.3035 6.84583 12.3902 6.82084 12.6484Z" fill="#5C002F"/>
<path d="M12.1385 20.7304C11.4757 20.7304 10.9385 20.1931 10.9385 19.5304C10.9385 18.8676 11.4757 18.3304 12.1385 18.3304C12.8012 18.3304 13.3385 18.8676 13.3385 19.5304C13.3385 20.1931 12.8012 20.7304 12.1385 20.7304Z" fill="#5C002F"/>
</svg>
