<svg width="24" height="24" viewBox="0 0 24 24" fill="none" xmlns="http://www.w3.org/2000/svg">
<rect width="24" height="24" rx="12" fill="#CDFFD5"/>
<path fill-rule="evenodd" clip-rule="evenodd" d="M8.56061 4.75253C7.99403 5.38556 7.78877 6.30813 7.78877 7.49998V8.99998C7.78877 9.35896 7.49775 9.64998 7.13877 9.64998C6.77978 9.64998 6.48877 9.35896 6.48877 8.99998V7.49998C6.48877 6.20932 6.70017 4.88189 7.59193 3.88554C8.49544 2.87607 9.96416 2.34998 12.1388 2.34998C14.3134 2.34998 15.7821 2.87607 16.6856 3.88554C17.5774 4.88189 17.7888 6.20932 17.7888 7.49998V8.99998C17.7888 9.35896 17.4978 9.64998 17.1388 9.64998C16.7798 9.64998 16.4888 9.35896 16.4888 8.99998V7.49998C16.4888 6.30813 16.2835 5.38556 15.7169 4.75253C15.1621 4.13263 14.1308 3.64998 12.1388 3.64998C10.1467 3.64998 9.11543 4.13263 8.56061 4.75253Z" fill="#005C0E"/>
<path fill-rule="evenodd" clip-rule="evenodd" d="M12.1388 12.65C11.3932 12.65 10.7888 13.2544 10.7888 14C10.7888 14.7456 11.3932 15.35 12.1388 15.35C12.8844 15.35 13.4888 14.7456 13.4888 14C13.4888 13.2544 12.8844 12.65 12.1388 12.65ZM9.48877 14C9.48877 12.5364 10.6752 11.35 12.1388 11.35C13.6023 11.35 14.7888 12.5364 14.7888 14C14.7888 15.4635 13.6023 16.65 12.1388 16.65C10.6752 16.65 9.48877 15.4635 9.48877 14Z" fill="#005C0E"/>
<path fill-rule="evenodd" clip-rule="evenodd" d="M5.13765 9.64998C4.9453 9.64998 4.78877 9.80573 4.78877 9.99998V18C4.78877 18.1942 4.9453 18.35 5.13766 18.35H19.1399C19.3322 18.35 19.4888 18.1942 19.4888 18V9.99998C19.4888 9.80573 19.3322 9.64998 19.1399 9.64998H5.13765ZM3.48877 9.99998C3.48877 9.08965 4.22544 8.34998 5.13765 8.34998H19.1399C20.0521 8.34998 20.7888 9.08965 20.7888 9.99998V18C20.7888 18.9103 20.0521 19.65 19.1399 19.65H5.13766C4.22544 19.65 3.48877 18.9103 3.48877 18V9.99998Z" fill="#005C0E"/>
</svg>
