<svg width="24" height="24" viewBox="0 0 24 24" fill="none" xmlns="http://www.w3.org/2000/svg">
<rect width="24" height="24" rx="12" fill="#E7FFCD"/>
<path fill-rule="evenodd" clip-rule="evenodd" d="M12.8248 4.90252C12.4297 4.56579 11.848 4.56579 11.4528 4.90252L10.3674 5.82746C10.3674 5.82747 10.3674 5.82745 10.3674 5.82746C9.98978 6.14924 9.52031 6.34358 9.02595 6.38303L7.60562 6.49631C7.60561 6.49631 7.60563 6.49631 7.60562 6.49631C7.0876 6.53766 6.67606 6.94911 6.63481 7.46609L6.52109 8.88756C6.52109 8.8876 6.5211 8.88752 6.52109 8.88756C6.4817 9.38088 6.28887 9.85049 5.96645 10.2288L5.04113 11.3144C5.04111 11.3144 5.04114 11.3143 5.04113 11.3144C4.70457 11.7094 4.70455 12.2904 5.04138 12.6856L5.96587 13.7712C5.96583 13.7711 5.96592 13.7712 5.96587 13.7712C6.28717 14.1482 6.48235 14.6174 6.52186 15.1123C6.52186 15.1122 6.52187 15.1123 6.52186 15.1123L6.63558 16.5338C6.67691 17.0517 7.08738 17.4624 7.6044 17.5037C7.60437 17.5037 7.60443 17.5037 7.6044 17.5037L9.0263 17.6169C9.52076 17.6564 9.99011 17.8508 10.3677 18.1725L11.4527 19.0975C11.4527 19.0975 11.4528 19.0975 11.4527 19.0975C11.8478 19.4341 12.4296 19.4341 12.8248 19.0974C12.8248 19.0974 12.8248 19.0974 12.8248 19.0974L13.9099 18.1725C14.2876 17.8506 14.757 17.6566 15.2512 17.6171L16.6731 17.5037C16.6731 17.5037 16.6731 17.5037 16.6731 17.5037C17.1901 17.4624 17.6007 17.0518 17.642 16.5337L17.7557 15.1123C17.7557 15.1124 17.7557 15.1123 17.7557 15.1123C17.7952 14.6176 17.9902 14.1481 18.3116 13.7708C18.3116 13.7709 18.3117 13.7708 18.3116 13.7708L19.2361 12.6856C19.5728 12.2906 19.5729 11.7092 19.2361 11.314L18.3116 10.229C18.3116 10.229 18.3116 10.229 18.3116 10.229C17.9903 9.85195 17.7949 9.38264 17.7554 8.88756L17.6424 7.46592C17.6424 7.46585 17.6424 7.46598 17.6424 7.46592C17.6011 6.94873 17.1902 6.53774 16.6726 6.4964C16.6725 6.4964 16.6726 6.49641 16.6726 6.4964L15.2512 6.38312C14.7564 6.34364 14.2875 6.14898 13.9102 5.82743L12.8248 4.90252ZM10.6096 3.91306C11.4907 3.16227 12.787 3.16228 13.6681 3.91308L14.7534 4.83799C14.9229 4.98246 15.133 5.06955 15.3545 5.08723C15.3544 5.08723 15.3545 5.08723 15.3545 5.08723L16.7758 5.20051C17.9295 5.29258 18.8462 6.20842 18.9383 7.36251L19.0513 8.78415C19.069 9.00527 19.1564 9.21598 19.3011 9.38579L20.2256 10.4708C20.2256 10.4708 20.2256 10.4708 20.2256 10.4708C20.9763 11.3518 20.9765 12.6476 20.2257 13.5287C20.2257 13.5287 20.2257 13.5287 20.2257 13.5287L19.3012 14.6139C19.1567 14.7835 19.0693 14.9943 19.0516 15.2157L18.9379 16.6371C18.9379 16.6372 18.9379 16.6371 18.9379 16.6371C18.8458 17.7904 17.9309 18.7074 16.7765 18.7996L15.3546 18.913C15.1326 18.9307 14.9223 19.0178 14.7532 19.1618C14.7532 19.1619 14.7532 19.1618 14.7532 19.1618L13.6681 20.0868C12.7872 20.8375 11.4906 20.8378 10.6095 20.0869L9.52444 19.162C9.52442 19.162 9.52447 19.162 9.52444 19.162C9.35516 19.0177 9.14476 18.9305 8.92305 18.9128C8.92303 18.9128 8.92308 18.9128 8.92305 18.9128L7.50116 18.7996C6.34689 18.7074 5.43182 17.7908 5.33972 16.6374C5.33972 16.6374 5.33972 16.6375 5.33972 16.6374L5.226 15.216C5.20835 14.9947 5.12105 14.7841 4.97642 14.6143L4.05193 13.5288C4.05189 13.5288 4.05197 13.5289 4.05193 13.5288C3.30138 12.6479 3.3008 11.3523 4.05167 10.4712L4.977 9.38563C4.97698 9.38566 4.97702 9.38561 4.977 9.38563C5.12055 9.21715 5.20743 9.00699 5.22521 8.78415L5.33893 7.36268C5.33892 7.36272 5.33893 7.36263 5.33893 7.36268C5.43111 6.20833 6.34891 5.29247 7.50221 5.20043L8.92253 5.08715C8.92253 5.08715 8.92254 5.08715 8.92253 5.08715C9.14437 5.06944 9.35492 4.98225 9.52417 4.83801L10.6096 3.91306C10.6097 3.91305 10.6096 3.91307 10.6096 3.91306ZM15.2651 9.76255C15.519 10.0164 15.519 10.4279 15.2651 10.6818L11.7095 14.2374C11.5876 14.3593 11.4223 14.4278 11.2499 14.4278C11.0775 14.4278 10.9122 14.3593 10.7903 14.2374L9.01246 12.4596C8.75862 12.2058 8.75862 11.7942 9.01246 11.5404C9.2663 11.2865 9.67786 11.2865 9.9317 11.5404L11.2499 12.8586L14.3459 9.76255C14.5997 9.50871 15.0113 9.50871 15.2651 9.76255Z" fill="#2F5C00"/>
</svg>
