<svg width="24" height="24" viewBox="0 0 24 24" fill="none" xmlns="http://www.w3.org/2000/svg">
<rect width="24" height="24" rx="12" fill="#FFD5CD"/>
<path fill-rule="evenodd" clip-rule="evenodd" d="M9.14738 4.34996C9.17996 4.34999 9.21297 4.35001 9.24641 4.35001H15.0308C15.0643 4.35001 15.0973 4.34999 15.1299 4.34996C15.7017 4.34952 16.1435 4.34918 16.5426 4.48933C16.8938 4.61269 17.2114 4.81395 17.4713 5.07848C17.7681 5.38053 17.9495 5.77924 18.1802 6.28651C18.1936 6.31604 18.2072 6.34594 18.221 6.37621L19.601 9.40358C19.601 9.40357 19.601 9.40358 19.601 9.40358C19.6054 9.41324 19.6098 9.42281 19.6141 9.43227C19.6328 9.47323 19.6506 9.51228 19.6675 9.55001H20.1388C20.4978 9.55001 20.7888 9.84103 20.7888 10.2C20.7888 10.559 20.4978 10.85 20.1388 10.85H19.8999V16.2666C19.8999 17.5982 18.7974 18.65 17.4721 18.65C16.1469 18.65 15.0443 17.5984 15.0443 16.2667V16.0501L9.23321 16.05V16.2667C9.23321 17.5984 8.13065 18.65 6.80544 18.65C5.48022 18.65 4.37766 17.5984 4.37766 16.2667V10.85H4.13877C3.77978 10.85 3.48877 10.559 3.48877 10.2C3.48877 9.84103 3.77978 9.55001 4.13877 9.55001H4.60961C4.62832 9.50813 4.64823 9.46446 4.66937 9.41813C4.67321 9.40971 4.67708 9.40121 4.681 9.39262L6.05545 6.37741C6.06908 6.34752 6.08251 6.31799 6.09578 6.28883C6.32716 5.78011 6.50874 5.38089 6.8059 5.07848C7.06605 4.81374 7.38407 4.61259 7.735 4.48933C8.13403 4.34918 8.57555 4.34952 9.14738 4.34996ZM5.67766 10.85V14.75L18.5999 14.7501V10.85H5.67766ZM18.5914 10.4345C18.5873 10.4033 18.5819 10.3721 18.575 10.3413C18.5689 10.3137 18.5616 10.2864 18.5533 10.2595C18.5367 10.206 18.5128 10.1506 18.4181 9.94281L18.239 9.55001H19.2798M18.239 9.55001H6.03795L7.23835 6.91663C7.53058 6.27555 7.6178 6.10703 7.73315 5.98964C7.85269 5.86799 8.00038 5.77398 8.16581 5.71587C8.32819 5.65884 8.52862 5.65001 9.24641 5.65001H15.0308C15.7487 5.65001 15.9494 5.65884 16.1118 5.71587C16.2769 5.77388 16.4243 5.86778 16.5441 5.98964C16.6592 6.10685 16.7462 6.27498 17.0381 6.91542L18.239 9.55001ZM18.5999 16.0501L16.3443 16.0501V16.2667C16.3443 16.8496 16.8336 17.35 17.4721 17.35C18.1105 17.35 18.5999 16.8495 18.5999 16.2666V16.0501ZM5.67766 16.05V16.2667C5.67766 16.8496 6.16697 17.35 6.80544 17.35C7.4439 17.35 7.93321 16.8496 7.93321 16.2667V16.05H5.67766Z" fill="#5C0E00"/>
</svg>
