<svg width="24" height="24" viewBox="0 0 24 24" fill="none" xmlns="http://www.w3.org/2000/svg">
<g clip-path="url(#clip0_9168_52900)">
<rect width="24" height="24" rx="12" fill="#CDFFF6"/>
<path fill-rule="evenodd" clip-rule="evenodd" d="M11.8656 5.91017C12.0389 5.82991 12.2387 5.82991 12.4119 5.91017L17.4119 8.22596C17.6417 8.33238 17.7888 8.56255 17.7888 8.81577V14.6052C17.7888 14.8372 17.6652 15.0516 17.4644 15.1678L12.4644 18.0625C12.263 18.1791 12.0145 18.1791 11.8131 18.0625L6.8131 15.1678C6.61236 15.0516 6.48877 14.8372 6.48877 14.6052V8.81577C6.48877 8.56255 6.63582 8.33238 6.86559 8.22596L11.8656 5.91017ZM7.78877 9.86914L11.4888 11.7256V16.3726L7.78877 14.2305V9.86914ZM12.7888 16.3726L16.4888 14.2305V9.86914L12.7888 11.7256V16.3726ZM12.1388 10.5973L15.6427 8.83919L12.1388 7.21631L8.63483 8.83919L12.1388 10.5973Z" fill="#005C4B"/>
<path fill-rule="evenodd" clip-rule="evenodd" d="M7.26487 5.43274C6.0153 6.20786 5.01534 7.31691 4.37692 8.63512C3.73843 9.95346 3.48665 11.4297 3.65192 12.8942C3.69218 13.2509 3.43563 13.5727 3.07891 13.613C2.72219 13.6532 2.40038 13.3967 2.36012 13.04C2.16742 11.3324 2.46081 9.60903 3.20691 8.06848C3.95308 6.52781 5.12151 5.23249 6.57959 4.32802C7.5793 3.70789 8.68694 3.2896 9.84067 3.08934L9.7478 3.0195C9.46087 2.80376 9.40316 2.39627 9.6189 2.10935C9.83464 1.82242 10.2421 1.76471 10.5291 1.98045L11.9081 3.01735C12.1818 3.22318 12.2489 3.60613 12.0614 3.89275L11.1823 5.23626C10.9858 5.53666 10.583 5.62085 10.2826 5.4243C9.98215 5.22776 9.89796 4.8249 10.0945 4.5245L10.2114 4.34587C9.16655 4.50691 8.16404 4.87497 7.26487 5.43274Z" fill="#005C4B"/>
<path fill-rule="evenodd" clip-rule="evenodd" d="M20.3066 11.5418C20.2601 10.0721 19.7996 8.6516 18.9772 7.4396C18.1548 6.22749 17.0022 5.27131 15.6513 4.6822C15.3222 4.53871 15.1718 4.15562 15.3153 3.82657C15.4588 3.49751 15.8419 3.34708 16.1709 3.49058C17.7461 4.17747 19.0919 5.29325 20.053 6.70967C21.0142 8.1262 21.5517 9.78575 21.606 11.5007C21.6421 12.6439 21.4621 13.7799 21.0813 14.8523C21.3372 14.83 21.5928 14.9615 21.7169 15.2042C21.8802 15.5239 21.7536 15.9154 21.4339 16.0788L20.118 16.7514C19.8109 16.9084 19.4346 16.7981 19.2608 16.5002L18.5766 15.3276C18.3957 15.0175 18.5005 14.6195 18.8105 14.4386C19.1206 14.2577 19.5186 14.3624 19.6995 14.6725L19.7359 14.7348C20.1452 13.7214 20.3412 12.6345 20.3066 11.5418Z" fill="#005C4B"/>
<path fill-rule="evenodd" clip-rule="evenodd" d="M8.22686 19.3885C9.52291 20.0831 10.9834 20.3945 12.4442 20.2883C13.9051 20.1821 15.3095 19.662 16.4951 18.7866C16.7839 18.5734 17.1909 18.6347 17.4041 18.9235C17.6174 19.2123 17.5561 19.6193 17.2673 19.8325C15.8849 20.8531 14.2457 21.4608 12.5384 21.5849C10.8311 21.709 9.12512 21.3448 7.61278 20.5343C6.6648 20.0262 5.81782 19.3557 5.10618 18.5575C5.07709 18.8895 4.79831 19.15 4.45869 19.15C4.09971 19.15 3.80869 18.859 3.80869 18.5L3.80869 16.6536C3.80869 16.4794 3.87854 16.3126 4.0026 16.1904C4.12665 16.0683 4.29454 16.001 4.46863 16.0036L6.14896 16.0293C6.5079 16.0348 6.79443 16.3302 6.78894 16.6892C6.78345 17.0481 6.48802 17.3347 6.12908 17.3292L5.76739 17.3236C6.43695 18.1732 7.273 18.8773 8.22686 19.3885Z" fill="#005C4B"/>
</g>
<defs>
<clipPath id="clip0_9168_52900">
<rect width="24" height="24" rx="12" fill="white"/>
</clipPath>
</defs>
</svg>
