<svg width="24" height="24" viewBox="0 0 24 24" fill="none" xmlns="http://www.w3.org/2000/svg">
<rect width="24" height="24" rx="12" fill="#FFCDE7"/>
<path fill-rule="evenodd" clip-rule="evenodd" d="M10.8839 8.65001C10.2794 8.65001 9.78877 9.14111 9.78877 9.7425C9.78877 10.1668 9.88383 10.358 9.96823 10.4608C10.0619 10.5749 10.2217 10.6775 10.5326 10.7828L14.1596 11.9851C14.5582 12.1199 14.9917 12.3219 15.3138 12.714C15.6454 13.1177 15.7888 13.6346 15.7888 14.2575C15.7888 15.5789 14.7141 16.65 13.3936 16.65H11.1358C9.66925 16.65 8.48877 15.4652 8.48877 14C8.48877 13.641 8.77978 13.35 9.13877 13.35C9.49775 13.35 9.78877 13.641 9.78877 14C9.78877 14.7494 10.3894 15.35 11.1358 15.35H13.3936C13.9982 15.35 14.4888 14.8589 14.4888 14.2575C14.4888 13.8332 14.3937 13.642 14.3093 13.5392C14.2156 13.4251 14.0558 13.3225 13.7449 13.2172L10.1179 12.0149C9.71937 11.8801 9.28588 11.6781 8.96373 11.286C8.63209 10.8823 8.48877 10.3654 8.48877 9.7425C8.48877 8.42113 9.5634 7.35001 10.8839 7.35001H13.1418C14.6083 7.35001 15.7888 8.53482 15.7888 10C15.7888 10.359 15.4978 10.65 15.1388 10.65C14.7798 10.65 14.4888 10.359 14.4888 10C14.4888 9.2506 13.8881 8.65001 13.1418 8.65001H10.8839Z" fill="#5C002F"/>
<path fill-rule="evenodd" clip-rule="evenodd" d="M12.1388 6.35001C12.4978 6.35001 12.7888 6.64102 12.7888 7.00001V17C12.7888 17.359 12.4978 17.65 12.1388 17.65C11.7798 17.65 11.4888 17.359 11.4888 17V7.00001C11.4888 6.64102 11.7798 6.35001 12.1388 6.35001Z" fill="#5C002F"/>
<path fill-rule="evenodd" clip-rule="evenodd" d="M12.1388 4.65001C8.07948 4.65001 4.78877 7.94071 4.78877 12C4.78877 16.0593 8.07948 19.35 12.1388 19.35C16.1981 19.35 19.4888 16.0593 19.4888 12C19.4888 7.94071 16.1981 4.65001 12.1388 4.65001ZM3.48877 12C3.48877 7.22274 7.36151 3.35001 12.1388 3.35001C16.916 3.35001 20.7888 7.22274 20.7888 12C20.7888 16.7773 16.916 20.65 12.1388 20.65C7.36151 20.65 3.48877 16.7773 3.48877 12Z" fill="#5C002F"/>
</svg>
