<svg width="24" height="24" viewBox="0 0 24 24" fill="none" xmlns="http://www.w3.org/2000/svg">
<rect width="24" height="24" rx="12" fill="#D6EBFF"/>
<path fill-rule="evenodd" clip-rule="evenodd" d="M14.5913 10.5334C14.849 10.7833 14.8553 11.1948 14.6054 11.4525L11.6963 14.4525C11.5739 14.5787 11.4055 14.65 11.2297 14.65C11.0538 14.65 10.8855 14.5788 10.763 14.4525L9.67213 13.3275C9.42223 13.0698 9.42856 12.6583 9.68628 12.4084C9.94399 12.1585 10.3555 12.1648 10.6054 12.4225L11.2297 13.0663L13.6721 10.5475C13.922 10.2898 14.3335 10.2835 14.5913 10.5334Z" fill="#002F5C"/>
<path fill-rule="evenodd" clip-rule="evenodd" d="M10.5824 2.34986C10.602 2.34993 10.6208 2.34999 10.6388 2.34999H13.6388C13.6567 2.34999 13.6755 2.34993 13.6952 2.34986C14.0244 2.34868 14.5806 2.3467 15.0306 2.64666C15.5799 3.01287 15.7888 3.66415 15.7888 4.49999C15.7888 4.51794 15.7888 4.53677 15.7889 4.5564C15.7901 4.8856 15.7921 5.44186 15.4921 5.8918C15.1259 6.44112 14.4746 6.64999 13.6388 6.64999H10.6388C10.6208 6.64999 10.602 6.65006 10.5824 6.65013C10.2532 6.6513 9.69691 6.65329 9.24696 6.35333C8.69765 5.98711 8.48877 5.33584 8.48877 4.49999C8.48877 3.66415 8.69765 3.01287 9.24696 2.64666C9.69691 2.3467 10.2532 2.34868 10.5824 2.34986ZM9.96738 3.72878C9.94996 3.7402 9.78877 3.84578 9.78877 4.49999C9.78877 5.15421 9.94996 5.25979 9.96738 5.2712C9.96765 5.27138 9.96788 5.27153 9.96807 5.27166C9.99677 5.29079 10.0539 5.31626 10.1739 5.33226C10.2992 5.34897 10.4422 5.34999 10.6388 5.34999H13.6388C14.293 5.34999 14.3986 5.18881 14.41 5.17138C14.4102 5.17112 14.4103 5.17089 14.4104 5.17069C14.4296 5.14199 14.455 5.08487 14.471 4.96487C14.4877 4.83956 14.4888 4.69656 14.4888 4.49999C14.4888 3.84578 14.3276 3.7402 14.3102 3.72878C14.3099 3.72861 14.3097 3.72846 14.3095 3.72833C14.2808 3.70919 14.2236 3.68373 14.1036 3.66773C13.9783 3.65102 13.8353 3.64999 13.6388 3.64999H10.6388C10.4422 3.64999 10.2992 3.65102 10.1739 3.66773C10.0539 3.68373 9.99677 3.70919 9.96807 3.72833C9.96788 3.72846 9.96765 3.72861 9.96738 3.72878Z" fill="#002F5C"/>
<path fill-rule="evenodd" clip-rule="evenodd" d="M7.13877 4.65001C6.94547 4.65001 6.78877 4.80671 6.78877 5.00001V19C6.78877 19.1933 6.94547 19.35 7.13877 19.35H17.1388C17.3321 19.35 17.4888 19.1933 17.4888 19V5.00001C17.4888 4.80671 17.3321 4.65001 17.1388 4.65001H15.6388C15.2798 4.65001 14.9888 4.35899 14.9888 4.00001C14.9888 3.64102 15.2798 3.35001 15.6388 3.35001H17.1388C18.05 3.35001 18.7888 4.08874 18.7888 5.00001V19C18.7888 19.9113 18.05 20.65 17.1388 20.65H7.13877C6.2275 20.65 5.48877 19.9113 5.48877 19V5.00001C5.48877 4.08874 6.2275 3.35001 7.13877 3.35001H8.63877C8.99775 3.35001 9.28877 3.64102 9.28877 4.00001C9.28877 4.35899 8.99775 4.65001 8.63877 4.65001H7.13877Z" fill="#002F5C"/>
</svg>
