<svg width="24" height="24" viewBox="0 0 24 24" fill="none" xmlns="http://www.w3.org/2000/svg">
<rect width="24" height="24" rx="12" fill="#E7FFCD"/>
<path fill-rule="evenodd" clip-rule="evenodd" d="M11.5388 4.35001C11.8978 4.35001 12.1888 4.64102 12.1888 5.00001V7.4367C12.1888 7.79569 11.8978 8.08751 11.5388 8.08751C11.1798 8.08751 10.8888 7.79649 10.8888 7.4375V6.86876H5.13877C4.77978 6.86876 4.48877 6.57774 4.48877 6.21876C4.48877 5.85977 4.77978 5.56876 5.13877 5.56876H10.8888V5.00081C10.8888 4.64182 11.1798 4.35001 11.5388 4.35001ZM13.6888 6.21876C13.6888 5.85977 13.9798 5.56876 14.3388 5.56876H19.1388C19.4978 5.56876 19.7888 5.85977 19.7888 6.21876C19.7888 6.57774 19.4978 6.86876 19.1388 6.86876H14.3388C13.9798 6.86876 13.6888 6.57774 13.6888 6.21876ZM14.9388 9.63126C15.2978 9.63126 15.5888 9.92227 15.5888 10.2813V12.718C15.5888 13.0769 15.2978 13.3688 14.9388 13.3688C14.5798 13.3688 14.2888 13.0777 14.2888 12.7188V12.15H5.13877C4.77978 12.15 4.48877 11.859 4.48877 11.5C4.48877 11.141 4.77978 10.85 5.13877 10.85H14.2888V10.2821C14.2888 9.92307 14.5798 9.63126 14.9388 9.63126ZM17.0888 11.5C17.0888 11.141 17.3798 10.85 17.7388 10.85H19.1388C19.4978 10.85 19.7888 11.141 19.7888 11.5C19.7888 11.859 19.4978 12.15 19.1388 12.15H17.7388C17.3798 12.15 17.0888 11.859 17.0888 11.5ZM7.13877 14.9125C7.49775 14.9125 7.78877 15.2035 7.78877 15.5625V17.9992C7.78877 18.3582 7.49775 18.65 7.13877 18.65C6.77978 18.65 6.48877 18.359 6.48877 18V17.4313H5.13877C4.77978 17.4313 4.48877 17.1402 4.48877 16.7813C4.48877 16.4223 4.77978 16.1313 5.13877 16.1313H6.48877V15.5633C6.48877 15.2043 6.77978 14.9125 7.13877 14.9125ZM9.28877 16.7813C9.28877 16.4223 9.57978 16.1313 9.93877 16.1313H19.1388C19.4978 16.1313 19.7888 16.4223 19.7888 16.7813C19.7888 17.1402 19.4978 17.4313 19.1388 17.4313H9.93877C9.57978 17.4313 9.28877 17.1402 9.28877 16.7813Z" fill="#2F5C00"/>
</svg>
