<svg width="24" height="24" viewBox="0 0 24 24" fill="none" xmlns="http://www.w3.org/2000/svg">
<rect width="24" height="24" rx="12" fill="#FFF6CD"/>
<path fill-rule="evenodd" clip-rule="evenodd" d="M16.6014 13.5565C16.6911 13.2089 17.0456 12.9999 17.3932 13.0896C18.089 13.2693 18.6125 13.628 19.1013 14.2031C19.601 14.7908 19.7534 15.4971 19.7984 16.1433C19.8265 16.5472 19.813 17.0068 19.8008 17.4215C19.7947 17.6299 19.7889 17.827 19.7889 18C19.7889 18.359 19.4979 18.65 19.1389 18.65C18.7799 18.65 18.4889 18.359 18.4889 18C18.4889 17.7394 18.4965 17.5026 18.5036 17.278C18.5152 16.9139 18.5258 16.582 18.5015 16.2335C18.4651 15.7093 18.3511 15.3277 18.1109 15.0451C17.7668 14.6404 17.4646 14.4507 17.0682 14.3484C16.7206 14.2586 16.5116 13.9041 16.6014 13.5565Z" fill="#5C4B00"/>
<path fill-rule="evenodd" clip-rule="evenodd" d="M5.42518 13.9222C6.02444 13.323 6.8372 12.9863 7.68468 12.9863H12.7755C13.623 12.9863 14.4358 13.323 15.035 13.9222C15.6343 14.5215 15.971 15.3342 15.971 16.1817V18C15.971 18.359 15.6799 18.65 15.321 18.65C14.962 18.65 14.671 18.359 14.671 18V16.1817C14.671 15.679 14.4713 15.1969 14.1158 14.8415C13.7603 14.486 13.2782 14.2863 12.7755 14.2863H7.68468C7.18199 14.2863 6.69988 14.486 6.34442 14.8415C5.98895 15.1969 5.78926 15.679 5.78926 16.1817V18C5.78926 18.359 5.49824 18.65 5.13926 18.65C4.78027 18.65 4.48926 18.359 4.48926 18V16.1817C4.48926 15.3342 4.82592 14.5215 5.42518 13.9222Z" fill="#5C4B00"/>
<path fill-rule="evenodd" clip-rule="evenodd" d="M14.0537 5.92152C14.1427 5.57375 14.4968 5.36401 14.8446 5.45306C15.5319 5.62904 16.1412 6.02879 16.5762 6.58928C17.0113 7.14976 17.2474 7.8391 17.2474 8.54862C17.2474 9.25815 17.0113 9.94749 16.5762 10.508C16.1412 11.0685 15.5319 11.4682 14.8446 11.6442C14.4968 11.7332 14.1427 11.5235 14.0537 11.1757C13.9646 10.828 14.1744 10.4739 14.5221 10.3848C14.9298 10.2804 15.2912 10.0433 15.5493 9.71085C15.8073 9.37838 15.9474 8.96949 15.9474 8.54862C15.9474 8.12776 15.8073 7.71886 15.5493 7.3864C15.2912 7.05394 14.9298 6.81682 14.5221 6.71243C14.1744 6.62339 13.9646 6.26928 14.0537 5.92152Z" fill="#5C4B00"/>
<path fill-rule="evenodd" clip-rule="evenodd" d="M10.2296 6.65001C9.18279 6.65001 8.33418 7.49862 8.33418 8.54543C8.33418 9.59225 9.18279 10.4409 10.2296 10.4409C11.2764 10.4409 12.125 9.59225 12.125 8.54543C12.125 7.49862 11.2764 6.65001 10.2296 6.65001ZM7.03418 8.54543C7.03418 6.78065 8.46482 5.35001 10.2296 5.35001C11.9944 5.35001 13.425 6.78065 13.425 8.54543C13.425 10.3102 11.9944 11.7409 10.2296 11.7409C8.46482 11.7409 7.03418 10.3102 7.03418 8.54543Z" fill="#5C4B00"/>
</svg>
