<svg width="24" height="24" viewBox="0 0 24 24" fill="none" xmlns="http://www.w3.org/2000/svg">
<rect width="24" height="24" rx="12" fill="#D5CDFF"/>
<path fill-rule="evenodd" clip-rule="evenodd" d="M3.81369 11.35H7.49873C7.56946 9.04942 8.01334 6.95383 8.71636 5.37202C8.92148 4.91051 9.1523 4.48453 9.40808 4.1067C6.3332 5.17028 4.07317 7.97995 3.81369 11.35ZM12.1388 2.34998C6.80922 2.34998 2.48877 6.67043 2.48877 12C2.48877 17.3295 6.80922 21.65 12.1388 21.65C17.4683 21.65 21.7888 17.3295 21.7888 12C21.7888 6.67043 17.4683 2.34998 12.1388 2.34998ZM12.1388 3.64998C11.798 3.64998 11.4244 3.80266 11.0299 4.1781C10.632 4.55672 10.2442 5.13531 9.90432 5.9C9.28684 7.28934 8.86986 9.19835 8.79937 11.35H15.4782C15.4077 9.19835 14.9907 7.28934 14.3732 5.9C14.0334 5.13531 13.6455 4.55672 13.2476 4.1781C12.8532 3.80266 12.4796 3.64998 12.1388 3.64998ZM16.7788 11.35C16.7081 9.04942 16.2642 6.95383 15.5612 5.37202C15.3561 4.91051 15.1252 4.48453 14.8695 4.1067C17.9443 5.17028 20.2044 7.97995 20.4638 11.35H16.7788ZM15.4782 12.65H8.79937C8.86986 14.8016 9.28684 16.7106 9.90432 18.0999C10.2442 18.8646 10.632 19.4432 11.0299 19.8219C11.4244 20.1973 11.798 20.35 12.1388 20.35C12.4796 20.35 12.8532 20.1973 13.2476 19.8219C13.6455 19.4432 14.0334 18.8646 14.3732 18.0999C14.9907 16.7106 15.4077 14.8016 15.4782 12.65ZM14.8695 19.8933C15.1252 19.5154 15.3561 19.0894 15.5612 18.6279C16.2642 17.0461 16.7081 14.9505 16.7788 12.65H20.4638C20.2044 16.02 17.9443 18.8297 14.8695 19.8933ZM9.40808 19.8933C9.15231 19.5154 8.92148 19.0894 8.71636 18.6279C8.01334 17.0461 7.56946 14.9505 7.49873 12.65H3.81369C4.07317 16.02 6.33321 18.8297 9.40808 19.8933Z" fill="#0E005C"/>
</svg>
