<svg width="24" height="24" viewBox="0 0 24 24" fill="none" xmlns="http://www.w3.org/2000/svg">
<g clip-path="url(#clip0_9168_52871)">
<rect width="24" height="24" rx="12" fill="#FFCDE7"/>
<path fill-rule="evenodd" clip-rule="evenodd" d="M3.48877 7.00001C3.48877 4.98417 5.12293 3.35001 7.13877 3.35001H17.1388C19.1546 3.35001 20.7888 4.98417 20.7888 7.00001V27C20.7888 29.0158 19.1546 30.65 17.1388 30.65H7.13877C5.12293 30.65 3.48877 29.0158 3.48877 27V7.00001ZM7.13877 4.65001C5.8409 4.65001 4.78877 5.70214 4.78877 7.00001V27C4.78877 28.2979 5.8409 29.35 7.13877 29.35H17.1388C18.4366 29.35 19.4888 28.2979 19.4888 27V7.00001C19.4888 5.70214 18.4366 4.65001 17.1388 4.65001H7.13877ZM8.51064 7.00001C8.51064 6.64102 8.80166 6.35001 9.16064 6.35001H15.5606C15.9196 6.35001 16.2106 6.64102 16.2106 7.00001C16.2106 7.35899 15.9196 7.65001 15.5606 7.65001H9.16064C8.80166 7.65001 8.51064 7.35899 8.51064 7.00001ZM8.51064 27.1111C8.51064 26.7521 8.80166 26.4611 9.16064 26.4611H15.5606C15.9196 26.4611 16.2106 26.7521 16.2106 27.1111C16.2106 27.4701 15.9196 27.7611 15.5606 27.7611H9.16064C8.80166 27.7611 8.51064 27.4701 8.51064 27.1111Z" fill="#5C002F"/>
<path fill-rule="evenodd" clip-rule="evenodd" d="M10.8839 12.65C10.2794 12.65 9.78877 13.1411 9.78877 13.7425C9.78877 14.1667 9.88383 14.358 9.96823 14.4608C10.0619 14.5748 10.2217 14.6774 10.5326 14.7828L14.1596 15.9851C14.5582 16.1199 14.9917 16.3218 15.3138 16.714C15.6454 17.1177 15.7888 17.6345 15.7888 18.2575C15.7888 19.5788 14.7141 20.65 13.3936 20.65H11.1358C9.66925 20.65 8.48877 19.4652 8.48877 18C8.48877 17.641 8.77978 17.35 9.13877 17.35C9.49775 17.35 9.78877 17.641 9.78877 18C9.78877 18.7494 10.3894 19.35 11.1358 19.35H13.3936C13.9982 19.35 14.4888 18.8589 14.4888 18.2575C14.4888 17.8332 14.3937 17.6419 14.3093 17.5392C14.2156 17.4251 14.0558 17.3225 13.7449 17.2172L10.1179 16.0149C9.71937 15.8801 9.28588 15.6781 8.96373 15.286C8.63209 14.8823 8.48877 14.3654 8.48877 13.7425C8.48877 12.4211 9.5634 11.35 10.8839 11.35H13.1418C14.6083 11.35 15.7888 12.5348 15.7888 14C15.7888 14.359 15.4978 14.65 15.1388 14.65C14.7798 14.65 14.4888 14.359 14.4888 14C14.4888 13.2506 13.8881 12.65 13.1418 12.65H10.8839Z" fill="#5C002F"/>
<path fill-rule="evenodd" clip-rule="evenodd" d="M12.1388 10.35C12.4978 10.35 12.7888 10.641 12.7888 11V21C12.7888 21.359 12.4978 21.65 12.1388 21.65C11.7798 21.65 11.4888 21.359 11.4888 21V11C11.4888 10.641 11.7798 10.35 12.1388 10.35Z" fill="#5C002F"/>
</g>
<defs>
<clipPath id="clip0_9168_52871">
<rect width="24" height="24" rx="12" fill="white"/>
</clipPath>
</defs>
</svg>
