<svg width="24" height="24" viewBox="0 0 24 24" fill="none" xmlns="http://www.w3.org/2000/svg">
<rect width="24" height="24" rx="12" fill="#F6CDFF"/>
<path fill-rule="evenodd" clip-rule="evenodd" d="M15.7165 5.43223C16.0301 5.607 16.1426 6.00287 15.9679 6.31644L15.5208 7.11868C15.7588 7.08285 16.0024 7.06429 16.2501 7.06429C18.9614 7.06429 21.1501 9.27922 21.1501 12C21.1501 14.7208 18.9614 16.9357 16.2501 16.9357C13.5388 16.9357 11.3501 14.7208 11.3501 12C11.3501 9.98691 9.73321 8.36429 7.7501 8.36429C5.76699 8.36429 4.1501 9.98691 4.1501 12C4.1501 14.0131 5.76699 15.6357 7.7501 15.6357C7.93175 15.6357 8.11013 15.6222 8.28435 15.596L7.44262 15.1441C7.12634 14.9743 7.00761 14.5802 7.17742 14.264C7.34724 13.9477 7.74129 13.8289 8.05757 13.9988L10.1826 15.1397C10.3935 15.2529 10.5251 15.473 10.5251 15.7124C10.5251 15.8445 10.4825 15.9554 10.4762 15.9719C10.4759 15.9727 10.4756 15.9733 10.4755 15.9736C10.4608 16.0138 10.4435 16.0531 10.4283 16.0862C10.397 16.1541 10.3559 16.2352 10.3109 16.3209C10.2197 16.4942 10.0962 16.7166 9.96231 16.9525C9.69372 17.4259 9.37254 17.973 9.1587 18.3324C8.97514 18.6409 8.57624 18.7422 8.26773 18.5586C7.95923 18.375 7.85794 17.9761 8.0415 17.6676C8.16952 17.4525 8.33619 17.1697 8.50612 16.8772C8.2596 16.9157 8.00709 16.9357 7.7501 16.9357C5.03878 16.9357 2.8501 14.7208 2.8501 12C2.8501 9.27922 5.03878 7.06429 7.7501 7.06429C10.4614 7.06429 12.6501 9.27922 12.6501 12C12.6501 14.0131 14.267 15.6357 16.2501 15.6357C18.2332 15.6357 19.8501 14.0131 19.8501 12C19.8501 9.98691 18.2332 8.36429 16.2501 8.36429C16.0684 8.36429 15.8901 8.37783 15.7158 8.40396L16.5576 8.8559C16.8739 9.02571 16.9926 9.41977 16.8228 9.73605C16.653 10.0523 16.2589 10.1711 15.9426 10.0012L13.8176 8.86032C13.6642 8.77793 13.5502 8.63741 13.5013 8.47027C13.4523 8.30312 13.4725 8.12333 13.5573 7.9712L14.8323 5.68356C15.0071 5.36999 15.403 5.25746 15.7165 5.43223Z" fill="#4B005C"/>
</svg>
