<svg width="24" height="24" viewBox="0 0 24 24" fill="none" xmlns="http://www.w3.org/2000/svg">
<rect width="24" height="24" rx="12" fill="#FFCDE7"/>
<path fill-rule="evenodd" clip-rule="evenodd" d="M12.1388 2.65001C6.97491 2.65001 2.78877 6.83614 2.78877 12C2.78877 17.1639 6.97491 21.35 12.1388 21.35C17.3026 21.35 21.4888 17.1639 21.4888 12C21.4888 6.83614 17.3026 2.65001 12.1388 2.65001ZM1.48877 12C1.48877 6.11817 6.25694 1.35001 12.1388 1.35001C18.0206 1.35001 22.7888 6.11817 22.7888 12C22.7888 17.8818 18.0206 22.65 12.1388 22.65C6.25694 22.65 1.48877 17.8818 1.48877 12Z" fill="#5C002F"/>
<path fill-rule="evenodd" clip-rule="evenodd" d="M13.4748 6.53783C13.5967 6.65973 13.6652 6.8251 13.6652 6.99753V10.2643L14.8288 9.46437C15.0471 9.31427 15.3347 9.31171 15.5557 9.45789L19.0557 11.7733C19.2376 11.8937 19.3471 12.0973 19.3471 12.3154V19.365C19.3471 19.724 19.056 20.015 18.6971 20.015C18.3381 20.015 18.0471 19.724 18.0471 19.365V12.6648L15.204 10.784L13.6652 11.8419V21.5C13.6652 21.859 13.3742 22.15 13.0152 22.15C12.6562 22.15 12.3652 21.859 12.3652 21.5V7.64778L7.25068 7.64975V20.2381C7.25068 20.5971 6.95967 20.8881 6.60068 20.8881C6.2417 20.8881 5.95068 20.5971 5.95068 20.2381V7C5.95068 6.64111 6.24155 6.35014 6.60043 6.35L13.015 6.34753C13.1874 6.34747 13.3528 6.41592 13.4748 6.53783Z" fill="#5C002F"/>
</svg>
