<svg width="24" height="24" viewBox="0 0 24 24" fill="none" xmlns="http://www.w3.org/2000/svg">
<rect width="24" height="24" rx="12" fill="#E7FFCD"/>
<path fill-rule="evenodd" clip-rule="evenodd" d="M14.2208 4.53149C14.0534 4.43484 13.8394 4.4922 13.7427 4.6596C12.9683 6.00082 11.0325 6.00082 10.2581 4.6596C10.1615 4.4922 9.94741 4.43484 9.78001 4.53149L6.64278 6.34277C6.47538 6.43942 6.41802 6.65348 6.51467 6.82088C7.2889 8.16188 6.32141 9.83873 4.77256 9.83873C4.57926 9.83873 4.42256 9.99543 4.42256 10.1887V13.8113C4.42256 14.0046 4.57926 14.1613 4.77256 14.1613C6.32144 14.1613 7.28871 15.8383 6.51455 17.1791C6.4179 17.3465 6.47526 17.5606 6.64266 17.6572L9.77989 19.4685C9.94729 19.5652 10.1613 19.5078 10.258 19.3404C11.0324 17.9991 12.9684 17.9991 13.7428 19.3404C13.8395 19.5078 14.0535 19.5652 14.2209 19.4685L17.3582 17.6572C17.5256 17.5606 17.5829 17.3465 17.4863 17.1791C16.7118 15.8377 17.6803 14.1613 19.2289 14.1613C19.4222 14.1613 19.5789 14.0046 19.5789 13.8113V10.1887C19.5789 9.99543 19.4222 9.83873 19.2289 9.83873C17.6804 9.83873 16.7116 8.1624 17.4861 6.82088C17.5828 6.65348 17.5254 6.43942 17.358 6.34277L14.2208 4.53149ZM12.6169 4.0096C13.0725 3.22042 14.0816 2.95002 14.8708 3.40566L18.008 5.21694C18.7972 5.67257 19.0676 6.6817 18.612 7.47088C18.3381 7.94523 18.6805 8.53873 19.2289 8.53873C20.1401 8.53873 20.8789 9.27746 20.8789 10.1887V13.8113C20.8789 14.7226 20.1401 15.4613 19.2289 15.4613C18.6806 15.4613 18.3382 16.0547 18.6121 16.5291C19.0677 17.3183 18.7973 18.3274 18.0082 18.7831L14.8709 20.5943C14.0817 21.05 13.0726 20.7796 12.617 19.9904C12.343 19.5158 11.6579 19.5158 11.3838 19.9904C10.9282 20.7796 9.91907 21.05 9.12989 20.5943L5.99266 18.7831L6.31766 18.2201L5.99266 18.7831C5.20348 18.3274 4.93308 17.3183 5.38872 16.5291C5.66279 16.0544 5.32012 15.4613 4.77256 15.4613C3.86129 15.4613 3.12256 14.7226 3.12256 13.8113V10.1887C3.12256 9.27746 3.86129 8.53873 4.77256 8.53873C5.32028 8.53873 5.6629 7.94556 5.38884 7.47088C4.93321 6.6817 5.2036 5.67257 5.99278 5.21694L9.13001 3.40566C9.91919 2.95002 10.9283 3.22042 11.384 4.0096L10.8283 4.33043L11.384 4.0096C11.6579 4.48415 12.3429 4.48415 12.6169 4.0096Z" fill="#2F5C00"/>
<path fill-rule="evenodd" clip-rule="evenodd" d="M11.9997 9.25584C10.626 9.25584 9.44844 10.4481 9.44844 12.0001C9.44844 13.5521 10.626 14.7444 11.9997 14.7444C13.3734 14.7444 14.5509 13.5521 14.5509 12.0001C14.5509 10.4481 13.3734 9.25584 11.9997 9.25584ZM8.14844 12.0001C8.14844 9.80291 9.83737 7.95584 11.9997 7.95584C14.162 7.95584 15.8509 9.80291 15.8509 12.0001C15.8509 14.1973 14.162 16.0444 11.9997 16.0444C9.83737 16.0444 8.14844 14.1973 8.14844 12.0001Z" fill="#2F5C00"/>
</svg>
