<svg width="24" height="24" viewBox="0 0 24 24" fill="none" xmlns="http://www.w3.org/2000/svg">
<rect width="24" height="24" rx="12" fill="#D6EBFF"/>
<path fill-rule="evenodd" clip-rule="evenodd" d="M7.38369 3.35067L12.8787 3.35001C12.9837 3.35001 13.0796 3.35001 13.1658 3.35082C13.4187 3.3532 13.6423 3.36176 13.8724 3.41885C14.1189 3.47999 14.353 3.58079 14.5669 3.71622C14.8095 3.86986 15.0118 4.07914 15.2692 4.34539C15.2838 4.36059 15.2987 4.37597 15.3138 4.39153L18.0351 7.20377C18.0487 7.21778 18.0621 7.23163 18.0754 7.24531C18.3365 7.51488 18.5377 7.7227 18.6857 7.97226C18.8151 8.1905 18.9108 8.42826 18.9686 8.6769C19.022 8.90704 19.0306 9.13156 19.033 9.39267C19.0339 9.48225 19.0339 9.58198 19.0339 9.6917L19.0332 19.0001C19.0331 19.9114 18.2944 20.65 17.3832 20.65H7.38389C6.47262 20.65 5.73389 19.9113 5.73389 19V5.00067C5.73389 4.08947 6.4725 3.35078 7.38369 3.35067ZM12.5097 4.65005L7.38385 4.65067C7.19056 4.65069 7.03389 4.80738 7.03389 5.00067V19C7.03389 19.1933 7.19059 19.35 7.38389 19.35H17.3832C17.5764 19.35 17.7331 19.1933 17.7332 19L17.7339 10.0487H15.9162C15.4525 10.0487 15.0642 10.0487 14.7466 10.0219C14.4147 9.99383 14.1023 9.9331 13.8075 9.77785C13.3553 9.53978 12.9926 9.1617 12.7665 8.70318C12.6199 8.40575 12.5622 8.09097 12.5354 7.75239C12.5097 7.42662 12.5097 7.02716 12.5097 6.5452V4.65005ZM13.8097 4.77822C13.8306 4.78959 13.8511 4.80169 13.8714 4.81452C13.9663 4.87462 14.0566 4.96181 14.3796 5.29556L17.1009 8.10779C17.4225 8.44014 17.5077 8.53437 17.5676 8.63534C17.5893 8.67198 17.609 8.70982 17.6267 8.74866H15.9432C15.4455 8.74866 15.1124 8.74812 14.856 8.72647C14.6079 8.70551 14.4904 8.66827 14.4131 8.62756C14.21 8.52058 14.0403 8.34698 13.9325 8.12828C13.8893 8.04077 13.8521 7.91129 13.8314 7.64989C13.8102 7.38148 13.8097 7.03368 13.8097 6.51938V4.77822Z" fill="#002F5C"/>
</svg>
