<svg width="24" height="24" viewBox="0 0 24 24" fill="none" xmlns="http://www.w3.org/2000/svg">
<rect width="24" height="24" rx="12" fill="#FFF6CD"/>
<path fill-rule="evenodd" clip-rule="evenodd" d="M11.3378 3.36009C12.3529 3.26294 13.3092 3.8642 14.3924 4.94717L17.2437 7.79805C18.2727 8.82691 18.8544 9.77302 18.7829 10.7866C18.7137 11.7681 18.0375 12.5873 17.2437 13.3809L12.6526 17.9713C12.1523 18.4694 11.7017 18.8783 11.2727 19.1641C10.8379 19.4536 10.3806 19.6469 9.8751 19.65C9.36876 19.6531 8.90824 19.4649 8.46799 19.1754C8.03396 18.8899 7.57768 18.4778 7.0701 17.9703L4.21878 15.1195C3.67971 14.5805 3.25102 14.108 2.95931 13.6682C2.66355 13.2224 2.47361 12.7585 2.48972 12.2488C2.50571 11.7429 2.72167 11.2972 3.01815 10.8816C3.31156 10.4703 3.72591 10.0314 4.21782 9.53755L8.80891 4.94717C9.21197 4.54417 9.60375 4.17624 9.99903 3.89974C10.3988 3.62009 10.8382 3.40791 11.3378 3.36009ZM10.7442 4.965C10.4485 5.17181 10.1244 5.47025 9.72807 5.86648L5.13891 10.4549C5.13876 10.4551 5.13905 10.4548 5.13891 10.4549C4.64628 10.9496 4.30114 11.3216 4.07648 11.6365C3.85482 11.9473 3.79369 12.1438 3.78907 12.2898C3.78458 12.432 3.83053 12.6299 4.04261 12.9496C4.25874 13.2754 4.60984 13.6721 5.13795 14.2002L7.98926 17.051C8.48294 17.5446 8.8631 17.8793 9.18233 18.0892C9.49534 18.2951 9.7049 18.351 9.86709 18.35C10.0301 18.349 10.2399 18.2899 10.5521 18.082C10.8701 17.8703 11.2465 17.5368 11.7349 17.0505C11.7348 17.0506 11.7351 17.0504 11.7349 17.0505L16.3245 12.4616C17.1294 11.6568 17.4544 11.1452 17.4862 10.6952C17.5156 10.2771 17.298 9.69069 16.3245 8.71736L13.4732 5.86648C12.422 4.81541 11.8455 4.61744 11.4617 4.65418C11.2618 4.67331 11.0353 4.76136 10.7442 4.965Z" fill="#5C4B00"/>
<path fill-rule="evenodd" clip-rule="evenodd" d="M17.6358 14.35C18.2423 14.35 18.6734 14.7915 18.9192 15.269L19.4135 16.228C19.8171 17.0182 19.9251 17.8609 19.59 18.5549C19.2395 19.2808 18.5006 19.65 17.6386 19.65C16.7765 19.65 16.0377 19.2808 15.6872 18.5549C15.3521 17.8609 15.4601 17.0182 15.8637 16.228L15.8648 16.2258L16.357 15.2709C16.5993 14.7924 17.0282 14.35 17.6358 14.35ZM17.6369 15.6775C17.6064 15.7097 17.5632 15.7662 17.5162 15.8593L17.5137 15.8642L17.0209 16.8203C16.7299 17.3906 16.7594 17.7857 16.8578 17.9896C16.9409 18.1616 17.1476 18.35 17.6386 18.35C18.1295 18.35 18.3363 18.1616 18.4193 17.9896C18.5177 17.7858 18.5472 17.3906 18.2563 16.8203L17.7635 15.8642C17.714 15.7682 17.6687 15.7101 17.6369 15.6775Z" fill="#5C4B00"/>
<path fill-rule="evenodd" clip-rule="evenodd" d="M16.5655 12.5153C12.2182 11.3238 7.65291 11.3654 3.31979 12.6242C2.97506 12.7243 2.61441 12.5261 2.51426 12.1813C2.41411 11.8366 2.61238 11.476 2.95711 11.3758C7.51961 10.0503 12.3299 10.0062 16.9103 11.2619L16.9126 11.2625L17.3126 11.3738C17.6585 11.47 17.8609 11.8283 17.7647 12.1742C17.6685 12.52 17.3101 12.7224 16.9643 12.6262L16.5666 12.5156C16.5662 12.5155 16.5658 12.5154 16.5655 12.5153Z" fill="#5C4B00"/>
</svg>
