<svg width="24" height="24" viewBox="0 0 24 24" fill="none" xmlns="http://www.w3.org/2000/svg">
<rect width="24" height="24" rx="12" fill="#FFD5CD"/>
<path fill-rule="evenodd" clip-rule="evenodd" d="M4.88476 13.6627C5.29838 13.249 5.85938 13.0167 6.44432 13.0167H9.55544C10.1404 13.0167 10.7014 13.249 11.115 13.6627C11.5286 14.0763 11.761 14.6373 11.761 15.2222V16C11.761 16.359 11.47 16.65 11.111 16.65C10.752 16.65 10.461 16.359 10.461 16V15.2222C10.461 14.982 10.3656 14.7517 10.1958 14.5819C10.0259 14.4121 9.7956 14.3167 9.55544 14.3167H6.44432C6.20416 14.3167 5.97383 14.4121 5.804 14.5819C5.63418 14.7517 5.53877 14.982 5.53877 15.2222V16C5.53877 16.359 5.24775 16.65 4.88877 16.65C4.52978 16.65 4.23877 16.359 4.23877 16V15.2222C4.23877 14.6373 4.47114 14.0763 4.88476 13.6627Z" fill="#5C0E00"/>
<path fill-rule="evenodd" clip-rule="evenodd" d="M7.99999 9.65001C7.49986 9.65001 7.09443 10.0554 7.09443 10.5556C7.09443 11.0557 7.49986 11.4611 7.99999 11.4611C8.50011 11.4611 8.90554 11.0557 8.90554 10.5556C8.90554 10.0554 8.50011 9.65001 7.99999 9.65001ZM5.79443 10.5556C5.79443 9.33747 6.78189 8.35001 7.99999 8.35001C9.21808 8.35001 10.2055 9.33747 10.2055 10.5556C10.2055 11.7737 9.21808 12.7611 7.99999 12.7611C6.78189 12.7611 5.79443 11.7737 5.79443 10.5556Z" fill="#5C0E00"/>
<path fill-rule="evenodd" clip-rule="evenodd" d="M20.0001 6.15001L4.00055 6.15001C3.80725 6.15001 3.65055 6.3067 3.65055 6.49999L3.6501 17.5C3.65009 17.6933 3.80679 17.85 4.0001 17.85H20.0001C20.1934 17.85 20.3501 17.6933 20.3501 17.5V6.50001C20.3501 6.30671 20.1934 6.15001 20.0001 6.15001ZM4.00055 4.85001L20.0001 4.85001C20.9113 4.85001 21.6501 5.58874 21.6501 6.50001V17.5C21.6501 18.4113 20.9113 19.15 20.0001 19.15H4.0001C3.0888 19.15 2.35006 18.4112 2.3501 17.4999L2.35055 6.49994C2.35058 5.5887 3.0893 4.85001 4.00055 4.85001Z" fill="#5C0E00"/>
<path fill-rule="evenodd" clip-rule="evenodd" d="M13.3501 10C13.3501 9.64102 13.6411 9.35001 14.0001 9.35001H18.0001C18.3591 9.35001 18.6501 9.64102 18.6501 10C18.6501 10.359 18.3591 10.65 18.0001 10.65H14.0001C13.6411 10.65 13.3501 10.359 13.3501 10Z" fill="#5C0E00"/>
<path fill-rule="evenodd" clip-rule="evenodd" d="M13.3501 13C13.3501 12.641 13.6411 12.35 14.0001 12.35H18.0001C18.3591 12.35 18.6501 12.641 18.6501 13C18.6501 13.359 18.3591 13.65 18.0001 13.65H14.0001C13.6411 13.65 13.3501 13.359 13.3501 13Z" fill="#5C0E00"/>
<path fill-rule="evenodd" clip-rule="evenodd" d="M13.3501 16C13.3501 15.641 13.6411 15.35 14.0001 15.35H18.0001C18.3591 15.35 18.6501 15.641 18.6501 16C18.6501 16.359 18.3591 16.65 18.0001 16.65H14.0001C13.6411 16.65 13.3501 16.359 13.3501 16Z" fill="#5C0E00"/>
</svg>
