<svg width="24" height="24" viewBox="0 0 24 24" fill="none" xmlns="http://www.w3.org/2000/svg">
<rect width="24" height="24" rx="12" fill="#D5CDFF"/>
<path fill-rule="evenodd" clip-rule="evenodd" d="M9.13877 5.65001C7.28862 5.65001 5.78877 7.14985 5.78877 9V12.8644C5.78877 14.7146 7.28861 16.2144 9.13877 16.2144H9.68877C9.91099 16.2144 10.1225 16.2831 10.2856 16.3637C10.4463 16.4431 10.6337 16.5706 10.7704 16.7557L11.8182 18.1486C11.9441 18.3161 12.0663 18.35 12.1388 18.35C12.2112 18.35 12.3334 18.3161 12.4593 18.1486L13.5093 16.7528L13.5118 16.7495C13.7662 16.4158 14.1664 16.2144 14.5888 16.2144H15.1388C16.9889 16.2144 18.4888 14.7146 18.4888 12.8644V9.00001C18.4888 7.14985 16.9889 5.65001 15.1388 5.65001H9.13877ZM4.48877 9C4.48877 6.43188 6.57065 4.35001 9.13877 4.35001H15.1388C17.7069 4.35001 19.7888 6.43188 19.7888 9.00001V12.8644C19.7888 15.4325 17.7069 17.5144 15.1388 17.5144H14.5888C14.5846 17.5144 14.5768 17.5155 14.5673 17.5203C14.5581 17.5249 14.5509 17.531 14.5462 17.5369C14.5461 17.5372 14.5459 17.5374 14.5457 17.5376L13.4982 18.9301C13.1621 19.3769 12.6753 19.65 12.1388 19.65C11.6022 19.65 11.1154 19.3769 10.7793 18.9301L9.73773 17.5455C9.73158 17.5412 9.72204 17.5353 9.70964 17.5291C9.69466 17.5217 9.68136 17.5169 9.67244 17.5144H9.13877C6.57064 17.5144 4.48877 15.4325 4.48877 12.8644V9Z" fill="#0E005C"/>
<path fill-rule="evenodd" clip-rule="evenodd" d="M10.1207 12.3751C10.4658 12.2763 10.8257 12.476 10.9245 12.8211C11.0483 13.2539 11.5121 13.5606 12.1396 13.5606C12.7671 13.5606 13.2308 13.2539 13.3547 12.8211C13.4535 12.476 13.8133 12.2763 14.1584 12.3751C14.5036 12.4739 14.7033 12.8337 14.6045 13.1789C14.2663 14.3603 13.1211 14.8606 12.1396 14.8606C11.1581 14.8606 10.0128 14.3603 9.67467 13.1789C9.57589 12.8337 9.7756 12.4739 10.1207 12.3751Z" fill="#0E005C"/>
<path d="M10.1382 10C10.1382 10.5523 9.69047 11 9.13818 11C8.5859 11 8.13818 10.5523 8.13818 10C8.13818 9.44772 8.5859 9 9.13818 9C9.69047 9 10.1382 9.44772 10.1382 10Z" fill="#0E005C"/>
<path fill-rule="evenodd" clip-rule="evenodd" d="M9.13818 9.7C8.9725 9.7 8.83818 9.83431 8.83818 10C8.83818 10.1657 8.9725 10.3 9.13818 10.3C9.30387 10.3 9.43818 10.1657 9.43818 10C9.43818 9.83431 9.30387 9.7 9.13818 9.7ZM9.13818 11C9.69047 11 10.1382 10.5523 10.1382 10C10.1382 9.44772 9.69047 9 9.13818 9C8.5859 9 8.13818 9.44772 8.13818 10C8.13818 10.5523 8.5859 11 9.13818 11Z" fill="#0E005C"/>
<path d="M16.1382 10C16.1382 10.5523 15.6905 11 15.1382 11C14.5859 11 14.1382 10.5523 14.1382 10C14.1382 9.44772 14.5859 9 15.1382 9C15.6905 9 16.1382 9.44772 16.1382 10Z" fill="#0E005C"/>
<path fill-rule="evenodd" clip-rule="evenodd" d="M15.1382 9.7C14.9725 9.7 14.8382 9.83431 14.8382 10C14.8382 10.1657 14.9725 10.3 15.1382 10.3C15.3039 10.3 15.4382 10.1657 15.4382 10C15.4382 9.83431 15.3039 9.7 15.1382 9.7ZM15.1382 11C15.6905 11 16.1382 10.5523 16.1382 10C16.1382 9.44772 15.6905 9 15.1382 9C14.5859 9 14.1382 9.44772 14.1382 10C14.1382 10.5523 14.5859 11 15.1382 11Z" fill="#0E005C"/>
</svg>
