<svg width="24" height="24" viewBox="0 0 24 24" fill="none" xmlns="http://www.w3.org/2000/svg">
<g clip-path="url(#clip0_9168_52746)">
<rect width="24" height="24" rx="12" fill="#CDFFD5"/>
<path d="M17.2257 18.5958C16.9719 18.3419 16.9719 17.9304 17.2257 17.6765C17.4796 17.4227 17.8911 17.4227 18.145 17.6765L24.1326 23.6642C24.3865 23.918 24.3865 24.3296 24.1326 24.5834C23.8788 24.8373 23.4672 24.8373 23.2134 24.5834L17.2257 18.5958Z" fill="#005C0E"/>
<path fill-rule="evenodd" clip-rule="evenodd" d="M2.9001 11.6167C2.9001 16.2835 6.68329 20.0667 11.3501 20.0667C16.0169 20.0667 19.8001 16.2835 19.8001 11.6167C19.8001 6.94986 16.0169 3.16667 11.3501 3.16667C6.68329 3.16667 2.9001 6.94986 2.9001 11.6167ZM11.3501 1.86667C5.96532 1.86667 1.6001 6.23189 1.6001 11.6167C1.6001 17.0014 5.96532 21.3667 11.3501 21.3667C16.7349 21.3667 21.1001 17.0014 21.1001 11.6167C21.1001 6.23189 16.7349 1.86667 11.3501 1.86667Z" fill="#005C0E"/>
<mask id="mask0_9168_52746" style="mask-type:alpha" maskUnits="userSpaceOnUse" x="1" y="1" width="21" height="21">
<path d="M1.6001 11.6167C1.6001 6.23189 5.96532 1.86667 11.3501 1.86667C16.7349 1.86667 21.1001 6.23189 21.1001 11.6167C21.1001 17.0014 16.7349 21.3667 11.3501 21.3667C5.96532 21.3667 1.6001 17.0014 1.6001 11.6167Z" fill="#FFAA5B"/>
</mask>
<g mask="url(#mask0_9168_52746)">
<path fill-rule="evenodd" clip-rule="evenodd" d="M2.9001 11.6167C2.9001 16.2835 6.68329 20.0667 11.3501 20.0667C16.0169 20.0667 19.8001 16.2835 19.8001 11.6167C19.8001 6.94986 16.0169 3.16667 11.3501 3.16667C6.68329 3.16667 2.9001 6.94986 2.9001 11.6167ZM11.3501 1.86667C5.96532 1.86667 1.6001 6.23189 1.6001 11.6167C1.6001 17.0014 5.96532 21.3667 11.3501 21.3667C16.7349 21.3667 21.1001 17.0014 21.1001 11.6167C21.1001 6.23189 16.7349 1.86667 11.3501 1.86667Z" fill="#005C0E"/>
<path d="M6.79395 16.1167H5.52637V11.0625C5.52637 10.8942 5.52816 10.7259 5.53174 10.5576C5.53532 10.3893 5.5389 10.2246 5.54248 10.0634C5.54964 9.90231 5.55859 9.74834 5.56934 9.60153C5.49414 9.68389 5.40104 9.77341 5.29004 9.87009C5.18262 9.96677 5.06803 10.067 4.94629 10.1709L4.04395 10.8906L3.41016 10.0903L5.74121 8.26413H6.79395V16.1167Z" fill="#005C0E"/>
<path d="M12.4736 21.043H11.2061V15.9888C11.2061 15.8205 11.2078 15.6522 11.2114 15.4839C11.215 15.3157 11.2186 15.1509 11.2222 14.9898C11.2293 14.8287 11.2383 14.6747 11.249 14.5279C11.1738 14.6102 11.0807 14.6998 10.9697 14.7964C10.8623 14.8931 10.7477 14.9934 10.626 15.0972L9.72363 15.817L9.08984 15.0167L11.4209 13.1905H12.4736V21.043Z" fill="#005C0E"/>
<path d="M14.0796 5.52322C14.0796 6.15701 14.0295 6.72456 13.9292 7.22586C13.8325 7.72358 13.6785 8.14611 13.4673 8.49344C13.256 8.84077 12.9803 9.10574 12.6401 9.28836C12.3 9.47098 11.8882 9.56229 11.4048 9.56229C10.7996 9.56229 10.3001 9.40294 9.90625 9.08426C9.51237 8.76199 9.22054 8.30008 9.03076 7.69852C8.84098 7.09337 8.74609 6.36828 8.74609 5.52322C8.74609 4.67817 8.83203 3.95486 9.00391 3.3533C9.17936 2.74816 9.46224 2.28445 9.85254 1.96219C10.2428 1.63992 10.7603 1.47879 11.4048 1.47879C12.0135 1.47879 12.5148 1.63992 12.9087 1.96219C13.3062 2.28087 13.5998 2.74279 13.7896 3.34793C13.9829 3.94949 14.0796 4.67459 14.0796 5.52322ZM10.019 5.52322C10.019 6.18566 10.062 6.73888 10.1479 7.18289C10.2375 7.6269 10.3843 7.95991 10.5884 8.18192C10.7925 8.40034 11.0646 8.50955 11.4048 8.50955C11.745 8.50955 12.0171 8.40034 12.2212 8.18192C12.4253 7.96349 12.5721 7.63227 12.6616 7.18826C12.7547 6.74425 12.8013 6.18924 12.8013 5.52322C12.8013 4.86437 12.7565 4.31294 12.667 3.86893C12.5775 3.42492 12.4307 3.09191 12.2266 2.8699C12.0225 2.64432 11.7485 2.53152 11.4048 2.53152C11.061 2.53152 10.7871 2.64432 10.583 2.8699C10.3825 3.09191 10.2375 3.42492 10.1479 3.86893C10.062 4.31294 10.019 4.86437 10.019 5.52322Z" fill="#005C0E"/>
<path d="M20.7144 12.185C20.7144 12.8188 20.6642 13.3864 20.564 13.8877C20.4673 14.3854 20.3133 14.8079 20.1021 15.1552C19.8908 15.5026 19.6151 15.7675 19.2749 15.9502C18.9347 16.1328 18.5229 16.2241 18.0396 16.2241C17.4344 16.2241 16.9349 16.0647 16.541 15.7461C16.1471 15.4238 15.8553 14.9619 15.6655 14.3603C15.4757 13.7552 15.3809 13.0301 15.3809 12.185C15.3809 11.34 15.4668 10.6167 15.6387 10.0151C15.8141 9.40996 16.097 8.94626 16.4873 8.62399C16.8776 8.30173 17.395 8.14059 18.0396 8.14059C18.6483 8.14059 19.1496 8.30173 19.5435 8.62399C19.9409 8.94268 20.2345 9.40459 20.4243 10.0097C20.6177 10.6113 20.7144 11.3364 20.7144 12.185ZM16.6538 12.185C16.6538 12.8475 16.6968 13.4007 16.7827 13.8447C16.8722 14.2887 17.019 14.6217 17.2231 14.8437C17.4272 15.0621 17.6994 15.1714 18.0396 15.1714C18.3797 15.1714 18.6519 15.0621 18.856 14.8437C19.0601 14.6253 19.2069 14.2941 19.2964 13.8501C19.3895 13.4061 19.436 12.851 19.436 12.185C19.436 11.5262 19.3913 10.9747 19.3018 10.5307C19.2122 10.0867 19.0654 9.75371 18.8613 9.53171C18.6572 9.30612 18.3833 9.19333 18.0396 9.19333C17.6958 9.19333 17.4219 9.30612 17.2178 9.53171C17.0173 9.75371 16.8722 10.0867 16.7827 10.5307C16.6968 10.9747 16.6538 11.5262 16.6538 12.185Z" fill="#005C0E"/>
</g>
</g>
<defs>
<clipPath id="clip0_9168_52746">
<rect width="24" height="24" rx="12" fill="white"/>
</clipPath>
</defs>
</svg>
