<svg width="24" height="24" viewBox="0 0 24 24" fill="none" xmlns="http://www.w3.org/2000/svg">
<rect width="24" height="24" rx="12" fill="#CDFFD5"/>
<path fill-rule="evenodd" clip-rule="evenodd" d="M6.0001 5.65001C5.8068 5.65001 5.6501 5.80671 5.6501 6.00001V18C5.6501 18.1933 5.8068 18.35 6.0001 18.35H18.0001C18.1934 18.35 18.3501 18.1933 18.3501 18V6.00001C18.3501 5.80671 18.1934 5.65001 18.0001 5.65001H6.0001ZM4.3501 6.00001C4.3501 5.08874 5.08883 4.35001 6.0001 4.35001H18.0001C18.9114 4.35001 19.6501 5.08874 19.6501 6.00001V18C19.6501 18.9113 18.9114 19.65 18.0001 19.65H6.0001C5.08883 19.65 4.3501 18.9113 4.3501 18V6.00001Z" fill="#005C0E"/>
<path fill-rule="evenodd" clip-rule="evenodd" d="M2.13867 14.35C2.13867 13.991 2.42969 13.7 2.78867 13.7L4.48867 13.7C4.84766 13.7 5.13867 13.991 5.13867 14.35C5.13867 14.709 4.84766 15 4.48867 15L2.78867 15C2.42969 15 2.13867 14.709 2.13867 14.35Z" fill="#005C0E"/>
<path fill-rule="evenodd" clip-rule="evenodd" d="M19.1387 14.35C19.1387 13.991 19.4297 13.7 19.7887 13.7L21.4887 13.7C21.8477 13.7 22.1387 13.991 22.1387 14.35C22.1387 14.709 21.8477 15 21.4887 15L19.7887 15C19.4297 15 19.1387 14.709 19.1387 14.35Z" fill="#005C0E"/>
<path fill-rule="evenodd" clip-rule="evenodd" d="M2.13867 10.35C2.13867 9.99103 2.42969 9.70001 2.78867 9.70001L4.48867 9.70001C4.84766 9.70001 5.13867 9.99103 5.13867 10.35C5.13867 10.709 4.84766 11 4.48867 11L2.78867 11C2.42969 11 2.13867 10.709 2.13867 10.35Z" fill="#005C0E"/>
<path fill-rule="evenodd" clip-rule="evenodd" d="M19.1387 10.35C19.1387 9.99103 19.4297 9.70001 19.7887 9.70001L21.4887 9.70001C21.8477 9.70001 22.1387 9.99103 22.1387 10.35C22.1387 10.709 21.8477 11 21.4887 11L19.7887 11C19.4297 11 19.1387 10.709 19.1387 10.35Z" fill="#005C0E"/>
<path fill-rule="evenodd" clip-rule="evenodd" d="M9.78848 19C10.1475 19 10.4385 19.291 10.4385 19.65V21.35C10.4385 21.709 10.1475 22 9.78848 22C9.42949 22 9.13848 21.709 9.13848 21.35V19.65C9.13848 19.291 9.42949 19 9.78848 19Z" fill="#005C0E"/>
<path fill-rule="evenodd" clip-rule="evenodd" d="M9.78848 2C10.1475 2 10.4385 2.29101 10.4385 2.65V4.35C10.4385 4.70899 10.1475 5 9.78848 5C9.42949 5 9.13848 4.70899 9.13848 4.35V2.65C9.13848 2.29101 9.42949 2 9.78848 2Z" fill="#005C0E"/>
<path fill-rule="evenodd" clip-rule="evenodd" d="M13.7885 19C14.1475 19 14.4385 19.291 14.4385 19.65V21.35C14.4385 21.709 14.1475 22 13.7885 22C13.4295 22 13.1385 21.709 13.1385 21.35V19.65C13.1385 19.291 13.4295 19 13.7885 19Z" fill="#005C0E"/>
<path fill-rule="evenodd" clip-rule="evenodd" d="M13.7885 2C14.1475 2 14.4385 2.29101 14.4385 2.65V4.35C14.4385 4.70899 14.1475 5 13.7885 5C13.4295 5 13.1385 4.70899 13.1385 4.35V2.65C13.1385 2.29101 13.4295 2 13.7885 2Z" fill="#005C0E"/>
<path fill-rule="evenodd" clip-rule="evenodd" d="M9.54696 13.2168C9.29895 12.9573 9.3083 12.5458 9.56784 12.2978C10.3111 11.5875 11.21 11.2056 12.1382 11.2056C13.0664 11.2056 13.9653 11.5875 14.7086 12.2978C14.9681 12.5458 14.9775 12.9573 14.7295 13.2168C14.4815 13.4764 14.07 13.4857 13.8105 13.2377C13.281 12.7318 12.695 12.5056 12.1382 12.5056C11.5815 12.5056 10.9954 12.7318 10.466 13.2377C10.2064 13.4857 9.79496 13.4764 9.54696 13.2168Z" fill="#005C0E"/>
<path fill-rule="evenodd" clip-rule="evenodd" d="M7.43018 11.1C7.1797 10.8428 7.18511 10.4313 7.44227 10.1808C8.03649 9.60204 8.68881 9.15063 9.37652 8.8224L9.37734 8.82201C11.1435 7.9821 13.1238 7.97353 14.9004 8.8224C15.5881 9.15063 16.2404 9.60204 16.8346 10.1808C17.0918 10.4313 17.0972 10.8428 16.8467 11.1C16.5962 11.3571 16.1847 11.3626 15.9276 11.1121C15.4328 10.6302 14.8972 10.2614 14.3404 9.99563L14.3401 9.99549C12.9208 9.31722 11.3517 9.32277 9.93605 9.99583C9.3794 10.2616 8.84394 10.6303 8.34934 11.1121C8.09218 11.3626 7.68066 11.3571 7.43018 11.1Z" fill="#005C0E"/>
<path fill-rule="evenodd" clip-rule="evenodd" d="M11.6754 15.3519C11.4216 15.0981 11.4216 14.6865 11.6754 14.4327L11.6818 14.4263C11.9356 14.1724 12.3472 14.1724 12.601 14.4263C12.8549 14.6801 12.8549 15.0917 12.601 15.3455L12.5947 15.3519C12.3408 15.6057 11.9293 15.6057 11.6754 15.3519Z" fill="#005C0E"/>
</svg>
