<svg width="24" height="24" viewBox="0 0 24 24" fill="none" xmlns="http://www.w3.org/2000/svg">
<rect width="24" height="24" rx="12" fill="#CDFFF6"/>
<path fill-rule="evenodd" clip-rule="evenodd" d="M16.6009 13.5565C16.6906 13.2089 17.0451 12.9999 17.3927 13.0896C18.0885 13.2693 18.612 13.628 19.1009 14.2031C19.6005 14.7908 19.7529 15.4971 19.7979 16.1433C19.826 16.5472 19.8125 17.0068 19.8003 17.4215C19.7942 17.6299 19.7884 17.827 19.7884 18C19.7884 18.359 19.4974 18.65 19.1384 18.65C18.7795 18.65 18.4884 18.359 18.4884 18C18.4884 17.7394 18.496 17.5026 18.5031 17.278C18.5147 16.9139 18.5253 16.582 18.501 16.2335C18.4646 15.7093 18.3506 15.3277 18.1104 15.0451C17.7663 14.6404 17.4641 14.4507 17.0677 14.3484C16.7201 14.2586 16.5111 13.9041 16.6009 13.5565Z" fill="#005C4B"/>
<path fill-rule="evenodd" clip-rule="evenodd" d="M5.42469 13.9222C6.02395 13.323 6.83672 12.9863 7.6842 12.9863H12.775C13.6225 12.9863 14.4353 13.323 15.0346 13.9222C15.6338 14.5215 15.9705 15.3342 15.9705 16.1817V18C15.9705 18.359 15.6795 18.65 15.3205 18.65C14.9615 18.65 14.6705 18.359 14.6705 18V16.1817C14.6705 15.679 14.4708 15.1969 14.1153 14.8415C13.7599 14.486 13.2777 14.2863 12.775 14.2863H7.6842C7.1815 14.2863 6.69939 14.486 6.34393 14.8415C5.98847 15.1969 5.78877 15.679 5.78877 16.1817V18C5.78877 18.359 5.49775 18.65 5.13877 18.65C4.77978 18.65 4.48877 18.359 4.48877 18V16.1817C4.48877 15.3342 4.82543 14.5215 5.42469 13.9222Z" fill="#005C4B"/>
<path fill-rule="evenodd" clip-rule="evenodd" d="M14.0532 5.92152C14.1422 5.57375 14.4963 5.36401 14.8441 5.45306C15.5314 5.62904 16.1407 6.02879 16.5757 6.58928C17.0108 7.14976 17.2469 7.8391 17.2469 8.54862C17.2469 9.25815 17.0108 9.94749 16.5757 10.508C16.1407 11.0685 15.5314 11.4682 14.8441 11.6442C14.4963 11.7332 14.1422 11.5235 14.0532 11.1757C13.9641 10.828 14.1739 10.4739 14.5216 10.3848C14.9294 10.2804 15.2907 10.0433 15.5488 9.71085C15.8069 9.37838 15.9469 8.96949 15.9469 8.54862C15.9469 8.12776 15.8069 7.71886 15.5488 7.3864C15.2907 7.05394 14.9294 6.81682 14.5216 6.71243C14.1739 6.62339 13.9641 6.26928 14.0532 5.92152Z" fill="#005C4B"/>
<path fill-rule="evenodd" clip-rule="evenodd" d="M10.2291 6.65001C9.1823 6.65001 8.33369 7.49862 8.33369 8.54543C8.33369 9.59225 9.1823 10.4409 10.2291 10.4409C11.2759 10.4409 12.1245 9.59225 12.1245 8.54543C12.1245 7.49862 11.2759 6.65001 10.2291 6.65001ZM7.03369 8.54543C7.03369 6.78065 8.46433 5.35001 10.2291 5.35001C11.9939 5.35001 13.4245 6.78065 13.4245 8.54543C13.4245 10.3102 11.9939 11.7409 10.2291 11.7409C8.46433 11.7409 7.03369 10.3102 7.03369 8.54543Z" fill="#005C4B"/>
</svg>
