<svg width="24" height="24" viewBox="0 0 24 24" fill="none" xmlns="http://www.w3.org/2000/svg">
<g clip-path="url(#clip0_9168_52733)">
<rect width="24" height="24" rx="12" fill="#FFF6CD"/>
<path fill-rule="evenodd" clip-rule="evenodd" d="M11.8134 3.43733C12.0147 3.3209 12.2629 3.3209 12.4642 3.43733L18.9648 7.1968C19.4747 7.4917 19.7888 8.03608 19.7888 8.62514V9.72294C19.7888 13.0537 18.2305 16.1927 15.5773 18.2063L13.1363 20.0589C12.5466 20.5065 11.731 20.5065 11.1413 20.0589L8.70026 18.2063C6.04708 16.1927 4.48877 13.0537 4.48877 9.72295V8.62514C4.48877 8.03608 4.8028 7.4917 5.31273 7.1968L11.8134 3.43733ZM12.1388 4.75088L5.96355 8.32216C5.85538 8.38471 5.78877 8.50019 5.78877 8.62514V9.72295C5.78877 12.6472 7.15686 15.403 9.48619 17.1708L11.9272 19.0234C12.0523 19.1183 12.2253 19.1183 12.3504 19.0234L14.7914 17.1708C17.1207 15.403 18.4888 12.6472 18.4888 9.72294V8.62514C18.4888 8.50019 18.4222 8.38471 18.314 8.32216L12.1388 4.75088Z" fill="#5C4B00"/>
</g>
<defs>
<clipPath id="clip0_9168_52733">
<rect width="24" height="24" rx="12" fill="white"/>
</clipPath>
</defs>
</svg>
