<svg width="24" height="24" viewBox="0 0 24 24" fill="none" xmlns="http://www.w3.org/2000/svg">
<rect width="24" height="24" rx="12" fill="#F6CDFF"/>
<path fill-rule="evenodd" clip-rule="evenodd" d="M6.48877 5.00001C6.48877 4.08874 7.2275 3.35001 8.13877 3.35001H16.1388C17.05 3.35001 17.7888 4.08874 17.7888 5.00001V7.00001C17.7888 7.91128 17.05 8.65001 16.1388 8.65001H8.13877C7.2275 8.65001 6.48877 7.91128 6.48877 7.00001V5.00001ZM8.13877 4.65001C7.94547 4.65001 7.78877 4.80671 7.78877 5.00001V7.00001C7.78877 7.19331 7.94547 7.35001 8.13877 7.35001H16.1388C16.3321 7.35001 16.4888 7.19331 16.4888 7.00001V5.00001C16.4888 4.80671 16.3321 4.65001 16.1388 4.65001H8.13877Z" fill="#4B005C"/>
<path fill-rule="evenodd" clip-rule="evenodd" d="M11.6791 10.5404C11.9329 10.2865 12.3445 10.2865 12.5983 10.5404L16.8409 14.783C17.0948 15.0369 17.0948 15.4484 16.8409 15.7022L12.5983 19.9449C12.3445 20.1987 11.9329 20.1987 11.6791 19.9449L7.43641 15.7022C7.18257 15.4484 7.18257 15.0369 7.43641 14.783L11.6791 10.5404ZM12.1387 11.9192L8.81527 15.2426L12.1387 18.566L15.4621 15.2426L12.1387 11.9192Z" fill="#4B005C"/>
<path fill-rule="evenodd" clip-rule="evenodd" d="M11.6385 11V8H12.9385V11H11.6385Z" fill="#4B005C"/>
<path fill-rule="evenodd" clip-rule="evenodd" d="M15.4888 15C15.4888 14.641 15.7798 14.35 16.1388 14.35H20.1388C20.4978 14.35 20.7888 14.641 20.7888 15V18C20.7888 18.359 20.4978 18.65 20.1388 18.65C19.7798 18.65 19.4888 18.359 19.4888 18V15.65H16.1388C15.7798 15.65 15.4888 15.359 15.4888 15Z" fill="#4B005C"/>
<path fill-rule="evenodd" clip-rule="evenodd" d="M8.78857 15C8.78857 15.359 8.49756 15.65 8.13857 15.65H4.63857C4.27959 15.65 3.98857 15.359 3.98857 15C3.98857 14.641 4.27959 14.35 4.63857 14.35H8.13857C8.49756 14.35 8.78857 14.641 8.78857 15Z" fill="#4B005C"/>
</svg>
