<svg width="24" height="24" viewBox="0 0 24 24" fill="none" xmlns="http://www.w3.org/2000/svg">
<rect width="24" height="24" rx="12" fill="#CDFFF6"/>
<path fill-rule="evenodd" clip-rule="evenodd" d="M8.20474 10.85H9.36956C9.42763 9.88752 9.61363 8.99812 9.90035 8.27247C9.01934 8.8468 8.38802 9.7721 8.20474 10.85ZM12.0001 6.35001C9.15583 6.35001 6.8501 8.65574 6.8501 11.5C6.8501 14.3443 9.15583 16.65 12.0001 16.65C14.8444 16.65 17.1501 14.3443 17.1501 11.5C17.1501 8.65574 14.8444 6.35001 12.0001 6.35001ZM12.0001 7.65001C11.9355 7.65001 11.8249 7.67677 11.6697 7.8245C11.5111 7.9754 11.3388 8.22449 11.1799 8.58202C10.9228 9.16036 10.7344 9.9475 10.6722 10.85H13.328C13.2658 9.9475 13.0774 9.16036 12.8203 8.58202C12.6614 8.22449 12.4891 7.9754 12.3305 7.8245C12.1753 7.67677 12.0647 7.65001 12.0001 7.65001ZM14.6306 10.85C14.5726 9.88752 14.3866 8.99812 14.0998 8.27247C14.9809 8.8468 15.6122 9.7721 15.7955 10.85H14.6306ZM13.328 12.15H10.6722C10.7344 13.0525 10.9228 13.8397 11.1799 14.418C11.3388 14.7755 11.5111 15.0246 11.6697 15.1755C11.8249 15.3232 11.9355 15.35 12.0001 15.35C12.0647 15.35 12.1753 15.3232 12.3305 15.1755C12.4891 15.0246 12.6614 14.7755 12.8203 14.418C13.0774 13.8397 13.2658 13.0525 13.328 12.15ZM14.0998 14.7275C14.3866 14.0019 14.5726 13.1125 14.6306 12.15H15.7955C15.6122 13.2279 14.9809 14.1532 14.0998 14.7275ZM9.90035 14.7275C9.61363 14.0019 9.42763 13.1125 9.36956 12.15H8.20474C8.38802 13.2279 9.01934 14.1532 9.90035 14.7275Z" fill="#005C4B"/>
<path fill-rule="evenodd" clip-rule="evenodd" d="M19.5 5.65016L4.50004 5.65273C4.30676 5.65276 4.1501 5.80945 4.1501 6.00273V17.2143C4.1501 17.4076 4.3068 17.5643 4.5001 17.5643H13.9459C13.9458 17.5643 13.946 17.5643 13.9459 17.5643H19.5001C19.6934 17.5643 19.8501 17.4076 19.8501 17.2143V6.00016C19.8501 5.80684 19.6934 5.65013 19.5 5.65016ZM14.596 18.8643H19.5001C20.4114 18.8643 21.1501 18.1255 21.1501 17.2143V6.00016C21.1501 5.08878 20.4112 4.35 19.4998 4.35016L4.49982 4.35273C3.58866 4.35288 2.8501 5.09157 2.8501 6.00273V17.2143C2.8501 18.1255 3.58883 18.8643 4.5001 18.8643H9.17479V20.35H7.76418C7.4052 20.35 7.11418 20.641 7.11418 21C7.11418 21.359 7.4052 21.65 7.76418 21.65H16.5218C16.8807 21.65 17.1718 21.359 17.1718 21C17.1718 20.641 16.8807 20.35 16.5218 20.35H14.596V18.8643ZM10.4748 18.8648V20.35H13.296V18.8644L10.4748 18.8648Z" fill="#005C4B"/>
</svg>
