<svg width="24" height="24" viewBox="0 0 24 24" fill="none" xmlns="http://www.w3.org/2000/svg">
<rect width="24" height="24" rx="12" fill="#FFF6CD"/>
<path fill-rule="evenodd" clip-rule="evenodd" d="M17.0246 9.97516C17.3836 9.97516 17.6746 10.2662 17.6746 10.6252V19C17.6746 19.359 17.3836 19.65 17.0246 19.65C16.6656 19.65 16.3746 19.359 16.3746 19V10.6252C16.3746 10.2662 16.6656 9.97516 17.0246 9.97516ZM12.1388 12.35C12.4978 12.35 12.7888 12.641 12.7888 13L12.7888 19C12.7888 19.359 12.4978 19.65 12.1388 19.65C11.7798 19.65 11.4888 19.359 11.4888 19L11.4888 13C11.4888 12.641 11.7798 12.35 12.1388 12.35ZM7.13877 15.85C7.49776 15.85 7.78877 16.141 7.78877 16.5L7.78877 19C7.78877 19.359 7.49775 19.65 7.13877 19.65C6.77978 19.65 6.48877 19.359 6.48877 19L6.48877 16.5C6.48877 16.141 6.77979 15.85 7.13877 15.85Z" fill="#5C4B00"/>
<path fill-rule="evenodd" clip-rule="evenodd" d="M16.2929 4.4666C16.6378 4.55074 16.8513 4.89595 16.7727 5.24207L15.7727 9.644C15.6931 9.99407 15.3449 10.2134 14.9948 10.1339C14.6448 10.0543 14.4254 9.70607 14.505 9.35601L15.1677 6.43877L6.47331 11.6554C6.16548 11.8401 5.76622 11.7402 5.58152 11.4324C5.39683 11.1246 5.49664 10.7253 5.80447 10.5406L14.448 5.35455L11.4847 4.63148C11.136 4.54638 10.9222 4.19467 11.0073 3.84592C11.0924 3.49717 11.4442 3.28343 11.7929 3.36853L16.2929 4.4666Z" fill="#5C4B00"/>
</svg>
