<svg width="24" height="24" viewBox="0 0 24 24" fill="none" xmlns="http://www.w3.org/2000/svg">
<rect width="24" height="24" rx="12" fill="#FFD5CD"/>
<path fill-rule="evenodd" clip-rule="evenodd" d="M5.0001 7.15001C4.8068 7.15001 4.65009 7.30671 4.6501 7.50001L4.65028 16.5C4.65028 16.6933 4.80698 16.85 5.00028 16.85H12.0002C12.3592 16.85 12.6502 17.141 12.6502 17.5C12.6502 17.859 12.3592 18.15 12.0002 18.15H5.00028C4.08902 18.15 3.35029 17.4113 3.35028 16.5L3.3501 7.50004C3.35008 6.58876 4.08882 5.85001 5.0001 5.85001L19.0001 5.85001C19.9113 5.85001 20.6501 6.58874 20.6501 7.50001V12C20.6501 12.359 20.3591 12.65 20.0001 12.65C19.6411 12.65 19.3501 12.359 19.3501 12V7.50001C19.3501 7.30671 19.1934 7.15001 19.0001 7.15001L5.0001 7.15001Z" fill="#5C0E00"/>
<path fill-rule="evenodd" clip-rule="evenodd" d="M19.5913 14.5333C19.849 14.7832 19.8553 15.1948 19.6054 15.4525L16.6963 18.4525C16.5739 18.5787 16.4055 18.65 16.2297 18.65C16.0538 18.65 15.8855 18.5787 15.763 18.4525L14.6721 17.3275C14.4222 17.0698 14.4286 16.6582 14.6863 16.4083C14.944 16.1584 15.3555 16.1648 15.6054 16.4225L16.2297 17.0663L18.6721 14.5475C18.922 14.2898 19.3335 14.2834 19.5913 14.5333Z" fill="#5C0E00"/>
<path fill-rule="evenodd" clip-rule="evenodd" d="M3.3501 9.49998C3.3501 9.14099 3.64111 8.84998 4.0001 8.84998H20.0001C20.3591 8.84998 20.6501 9.14099 20.6501 9.49998C20.6501 9.85896 20.3591 10.15 20.0001 10.15H4.0001C3.64111 10.15 3.3501 9.85896 3.3501 9.49998Z" fill="#5C0E00"/>
<path fill-rule="evenodd" clip-rule="evenodd" d="M6.3501 14.3C6.3501 13.941 6.64111 13.65 7.0001 13.65H8.33343C8.69242 13.65 8.98343 13.941 8.98343 14.3C8.98343 14.659 8.69242 14.95 8.33343 14.95H7.0001C6.64111 14.95 6.3501 14.659 6.3501 14.3Z" fill="#5C0E00"/>
</svg>
