<svg width="24" height="24" viewBox="0 0 24 24" fill="none" xmlns="http://www.w3.org/2000/svg">
<rect width="24" height="24" rx="12" fill="#FFF6CD"/>
<path fill-rule="evenodd" clip-rule="evenodd" d="M13.4757 5.18941C13.5976 5.31131 13.6662 5.47668 13.6662 5.64911V8.91591L14.8297 8.11595C15.0481 7.96585 15.3356 7.96329 15.5566 8.10947L19.0566 10.4249C19.2386 10.5453 19.348 10.7489 19.348 10.967V18.2397H20.433C20.792 18.2397 21.083 18.5307 21.083 18.8897C21.083 19.2487 20.792 19.5397 20.433 19.5397H3.91465C3.55566 19.5397 3.26465 19.2487 3.26465 18.8897C3.26465 18.5307 3.55566 18.2397 3.91465 18.2397H5.95161V5.65158C5.95161 5.29269 6.24247 5.00172 6.60136 5.00158L13.0159 4.99912C13.1883 4.99905 13.3537 5.0675 13.4757 5.18941ZM7.25161 18.2397H12.3662V6.29936L7.25161 6.30133V18.2397ZM13.6662 18.2397H18.048V11.3164L15.205 9.43557L13.6662 10.4935V18.2397Z" fill="#5C4B00"/>
</svg>
