<svg width="24" height="24" viewBox="0 0 24 24" fill="none" xmlns="http://www.w3.org/2000/svg">
<rect width="24" height="24" rx="12" fill="#FFD5CD"/>
<path fill-rule="evenodd" clip-rule="evenodd" d="M15.5685 5.16453C15.4319 5.02726 15.2116 5.02676 15.075 5.16149C14.6525 5.5784 14.131 6.09368 13.7723 6.4508L13.1104 7.10983L14.5219 8.51514C14.7762 8.76843 14.7771 9.17999 14.5238 9.43438C14.2706 9.68877 13.859 9.68966 13.6046 9.43637L12.1892 8.02708L10.6124 9.59706L12.0238 11.0024C12.2782 11.2557 12.2791 11.6672 12.0258 11.9216C11.7725 12.176 11.361 12.1769 11.1066 11.9236L9.69119 10.5143L8.11418 12.0845L9.52581 13.49C9.7802 13.7433 9.78109 14.1549 9.5278 14.4093C9.2745 14.6637 8.86295 14.6646 8.60856 14.4113L7.19295 13.0018L6.52729 13.6645C6.16972 14.0206 5.66637 14.5455 5.26276 14.9705C5.13694 15.1029 5.13766 15.3108 5.26665 15.4432C5.66844 15.8556 6.16867 16.3663 6.5261 16.7222L7.5266 17.7184C7.88745 18.0777 8.42273 18.5634 8.84956 18.9432C8.97431 19.0542 9.15987 19.0542 9.28462 18.9431C9.71119 18.5634 10.2461 18.0779 10.6069 17.7186L17.852 10.5049C18.2113 10.1472 18.6938 9.62872 19.0732 9.21432C19.1878 9.08919 19.1888 8.90217 19.0788 8.77724C18.6973 8.34365 18.2106 7.80309 17.8518 7.4458L18.3104 6.98518L17.8518 7.4458L16.8513 6.44962C16.4928 6.09273 15.9818 5.57992 15.5685 5.16453ZM14.162 4.23608C14.8094 3.59733 15.8499 3.60418 16.4901 4.24762C16.9033 4.66299 17.4124 5.17387 17.7685 5.52839L17.3099 5.989L17.7685 5.52839L18.769 6.52457C19.1611 6.915 19.6726 7.48421 20.0547 7.9184C20.6054 8.54414 20.5927 9.47987 20.032 10.0922C19.6517 10.5076 19.1516 11.0454 18.7692 11.4261L11.5242 18.6399C11.1353 19.0271 10.5763 19.5337 10.149 19.9141C9.53155 20.4637 8.60291 20.4639 7.98537 19.9143C7.55778 19.5338 6.99842 19.027 6.60936 18.6396L5.60885 17.6435C5.24376 17.2799 4.73747 16.7629 4.3355 16.3504C3.72068 15.7193 3.71193 14.7156 4.32015 14.0752C4.72391 13.6501 5.23832 13.1134 5.61004 12.7433L12.8551 5.52957C13.2161 5.17014 13.7394 4.65299 14.162 4.23608Z" fill="#5C0E00"/>
</svg>
