<svg width="24" height="24" viewBox="0 0 24 24" fill="none" xmlns="http://www.w3.org/2000/svg">
<rect width="24" height="24" rx="12" fill="#E7FFCD"/>
<path fill-rule="evenodd" clip-rule="evenodd" d="M11.4888 3.67493C7.18097 4.00661 3.78877 7.60716 3.78877 12C3.78877 16.6116 7.52719 20.35 12.1388 20.35C14.0906 20.35 15.8861 19.6803 17.3078 18.5581L11.6611 12.4409C11.5503 12.3208 11.4888 12.1634 11.4888 12V3.67493ZM12.7888 3.67493V11.35H20.4638C20.1487 7.2567 16.8821 3.99009 12.7888 3.67493ZM20.4638 12.65H13.6234L18.2629 17.6761C19.5064 16.3351 20.3149 14.5849 20.4638 12.65ZM2.48877 12C2.48877 6.67046 6.80922 2.35001 12.1388 2.35001C17.4683 2.35001 21.7888 6.67046 21.7888 12C21.7888 17.3296 17.4683 21.65 12.1388 21.65C6.80922 21.65 2.48877 17.3296 2.48877 12Z" fill="#2F5C00"/>
</svg>
