<svg width="24" height="24" viewBox="0 0 24 24" fill="none" xmlns="http://www.w3.org/2000/svg">
<rect width="24" height="24" rx="12" fill="#D6EBFF"/>
<path fill-rule="evenodd" clip-rule="evenodd" d="M4.54045 5.54041C4.66235 5.4185 4.82769 5.35001 5.0001 5.35001H19.0001C19.3591 5.35001 19.6501 5.64102 19.6501 6.00001V16C19.6501 16.9113 18.9114 17.65 18.0001 17.65H6.00119C5.08999 17.65 4.35129 16.9114 4.35119 16.0002L4.3501 6.00008C4.35008 5.82767 4.41855 5.66233 4.54045 5.54041ZM5.65017 6.65001L5.65119 16C5.65121 16.1933 5.80791 16.35 6.00119 16.35H18.0001C18.1934 16.35 18.3501 16.1933 18.3501 16V6.65001H5.65017Z" fill="#002F5C"/>
<path fill-rule="evenodd" clip-rule="evenodd" d="M3.3501 6.00001C3.3501 5.64102 3.64111 5.35001 4.0001 5.35001H20.0001C20.3591 5.35001 20.6501 5.64102 20.6501 6.00001C20.6501 6.35899 20.3591 6.65001 20.0001 6.65001H4.0001C3.64111 6.65001 3.3501 6.35899 3.3501 6.00001Z" fill="#002F5C"/>
<path fill-rule="evenodd" clip-rule="evenodd" d="M12.0002 16.35C12.3592 16.35 12.6502 16.641 12.6502 17V18.9983L15.2909 20.3186C15.612 20.4792 15.7421 20.8696 15.5816 21.1907C15.4211 21.5118 15.0306 21.6419 14.7095 21.4814L12.0098 20.1315L9.30611 21.5735C8.98936 21.7425 8.59563 21.6226 8.4267 21.3059C8.25776 20.9891 8.37759 20.5954 8.69434 20.4265L11.3502 19.01V17C11.3502 16.641 11.6412 16.35 12.0002 16.35Z" fill="#002F5C"/>
<path fill-rule="evenodd" clip-rule="evenodd" d="M16.2491 10.5834C16.4791 10.859 16.4423 11.2689 16.1667 11.499L13.7938 13.4802C13.5676 13.6611 13.2749 13.7496 12.977 13.6999C12.6766 13.6498 12.4247 13.468 12.2695 13.2123L12.2677 13.2094L11.5319 11.983L9.4167 13.749C9.14114 13.979 8.73124 13.9422 8.50116 13.6666C8.27109 13.391 8.30796 12.9811 8.58353 12.7511L10.9454 10.7791C11.1754 10.5863 11.4754 10.4949 11.779 10.5483C12.081 10.6014 12.3288 10.7874 12.4807 11.0377L12.4825 11.0406L13.2184 12.2671L15.3335 10.5011C15.6091 10.271 16.019 10.3079 16.2491 10.5834Z" fill="#002F5C"/>
</svg>
