<svg width="24" height="24" viewBox="0 0 24 24" fill="none" xmlns="http://www.w3.org/2000/svg">
<rect width="24" height="24" rx="12" fill="#F6CDFF"/>
<path fill-rule="evenodd" clip-rule="evenodd" d="M11.8662 5.40993C12.0391 5.33003 12.2384 5.33003 12.4114 5.40993L21.4114 9.56783C21.6415 9.67412 21.7888 9.90446 21.7888 10.1579V14.3158C21.7888 14.6748 21.4978 14.9658 21.1388 14.9658C20.7798 14.9658 20.4888 14.6748 20.4888 14.3158V11.1742L18.2888 12.1906V16.4211C18.2888 16.6732 18.143 16.9025 17.9147 17.0096L12.4147 19.5885C12.2399 19.6705 12.0377 19.6705 11.8628 19.5885L6.36282 17.0096C6.13455 16.9025 5.98877 16.6732 5.98877 16.4211V12.1906L2.86616 10.748C2.63608 10.6417 2.48877 10.4113 2.48877 10.1579C2.48877 9.90446 2.63608 9.67412 2.86616 9.56783L11.8662 5.40993ZM7.28877 12.7912V16.0079L12.1388 18.2821L16.9888 16.0079V12.7912L12.4114 14.9059C12.2384 14.9858 12.0391 14.9858 11.8662 14.9059L7.28877 12.7912ZM19.5889 10.1579L12.1388 13.5998L4.68862 10.1579L12.1388 6.71602L19.5889 10.1579Z" fill="#4B005C"/>
</svg>
