<svg width="24" height="24" viewBox="0 0 24 24" fill="none" xmlns="http://www.w3.org/2000/svg">
<rect width="24" height="24" rx="12" fill="#F6CDFF"/>
<path fill-rule="evenodd" clip-rule="evenodd" d="M15.3498 6.65336C15.3416 6.65868 15.3235 6.67136 15.2929 6.69728C15.2199 6.7593 15.1274 6.85107 14.9678 7.01066L14.9665 7.01197L14.9646 7.01386L13.2174 8.76097L15.3779 10.9214L17.1269 9.1724L17.1329 9.16641C17.2895 9.00986 17.38 8.91853 17.4414 8.84621C17.4674 8.81559 17.4801 8.79744 17.4854 8.78921C17.4899 8.77066 17.4899 8.75133 17.4854 8.73282C17.4801 8.72459 17.4674 8.70636 17.4412 8.67559C17.379 8.60231 17.287 8.50955 17.1269 8.34952L15.7874 7.01001C15.628 6.85064 15.5357 6.75903 15.4628 6.69712C15.4324 6.67132 15.4143 6.65867 15.4061 6.65335C15.3876 6.64889 15.3683 6.64889 15.3498 6.65336ZM14.4587 11.8406L12.2982 9.68021L6.78877 15.1896V17.35L8.94925 17.35L14.4587 11.8406ZM14.9392 5.4195C15.2244 5.32684 15.5316 5.32684 15.8168 5.4195C16.0185 5.48506 16.1753 5.5968 16.304 5.70601C16.4225 5.80656 16.5527 5.93682 16.6912 6.07529L16.7066 6.09077L18.0617 7.44576C18.2008 7.58484 18.3314 7.71549 18.4323 7.83424C18.5417 7.96318 18.6536 8.12022 18.7193 8.32225C18.812 8.60747 18.8119 8.91467 18.7193 9.19981C18.6537 9.40172 18.5418 9.55865 18.4325 9.68751C18.3318 9.80614 18.2012 9.93663 18.0624 10.0755L18.0469 10.091L18.0409 10.097L9.6781 18.4596C9.55621 18.5815 9.39088 18.65 9.21849 18.65L6.13877 18.65C5.96638 18.65 5.80105 18.5815 5.67915 18.4596C5.55725 18.3377 5.48877 18.1724 5.48877 18V14.9203C5.48877 14.7479 5.55725 14.5826 5.67915 14.4607L14.0504 6.08951L14.064 6.07593C14.2027 5.93725 14.3331 5.80685 14.4516 5.7062C14.5804 5.59691 14.7373 5.48509 14.9392 5.4195Z" fill="#4B005C"/>
</svg>
