<svg width="24" height="24" viewBox="0 0 24 24" fill="none" xmlns="http://www.w3.org/2000/svg">
<rect width="24" height="24" rx="12" fill="#D5CDFF"/>
<path fill-rule="evenodd" clip-rule="evenodd" d="M6.08172 6.65628C6.0006 6.6504 5.89108 6.65001 5.6989 6.65001H5.13877C4.77978 6.65001 4.48877 6.35899 4.48877 6.00001C4.48877 5.64102 4.77978 5.35001 5.13877 5.35001H5.6989C5.70523 5.35001 5.71154 5.35001 5.71784 5.35001C5.88434 5.34999 6.04182 5.34998 6.17571 5.35969C6.32276 5.37035 6.48444 5.39482 6.65089 5.46539C6.8904 5.56693 7.10039 5.73185 7.25494 5.94469C7.36187 6.09195 7.42154 6.24488 7.46386 6.38611C7.50271 6.51574 7.53644 6.67021 7.57177 6.83199L7.75772 7.68334L17.7484 7.68334C18.0125 7.68332 18.2514 7.68331 18.4471 7.70044C18.6528 7.71845 18.8893 7.76015 19.111 7.89512C19.4166 8.08125 19.6434 8.37507 19.7427 8.72091C19.8152 8.97315 19.7899 9.21336 19.7501 9.41507C19.7122 9.60723 19.6451 9.83537 19.5716 10.0855L18.4678 13.8394C18.4614 13.8611 18.455 13.8831 18.4486 13.9054C18.3754 14.1573 18.2928 14.442 18.1124 14.6664C17.9567 14.86 17.7531 15.0099 17.5232 15.1018C17.2587 15.2075 16.9635 15.2066 16.6977 15.2057C16.6742 15.2056 16.6509 15.2056 16.6279 15.2056H9.40073L9.52584 15.7784C9.56533 15.9592 9.58786 16.0603 9.6098 16.1338C9.61862 16.1633 9.62484 16.1793 9.62785 16.1863C9.63981 16.2009 9.65683 16.2146 9.67865 16.2247C9.68572 16.2262 9.70536 16.2297 9.7452 16.2326C9.82663 16.2385 9.93644 16.2389 10.1285 16.2389H16.2377C17.4606 16.2389 18.4733 17.2147 18.4733 18.4445C18.4733 19.6742 17.4606 20.65 16.2377 20.65C15.0148 20.65 14.0022 19.6742 14.0022 18.4445C14.0022 18.1206 14.0724 17.8143 14.1982 17.5389H11.1422C11.268 17.8143 11.3383 18.1206 11.3383 18.4445C11.3383 19.6742 10.3256 20.65 9.10269 20.65C7.87979 20.65 6.86712 19.6742 6.86712 18.4445C6.86712 17.4875 7.4803 16.6844 8.32858 16.3751C8.30495 16.281 8.28266 16.1789 8.25983 16.0743L6.30454 7.12233C6.26428 6.93801 6.24105 6.83427 6.21858 6.75931C6.20897 6.72724 6.20229 6.71052 6.19924 6.7036C6.18683 6.68824 6.1694 6.67413 6.14777 6.66417C6.14074 6.66264 6.12125 6.65915 6.08172 6.65628ZM6.19736 6.69963C6.19708 6.69906 6.19736 6.69962 6.19736 6.69963V6.69963ZM16.2377 17.5389C15.7093 17.5389 15.3022 17.956 15.3022 18.4445C15.3022 18.9329 15.7093 19.35 16.2377 19.35C16.7662 19.35 17.1733 18.9329 17.1733 18.4445C17.1733 17.956 16.7662 17.5389 16.2377 17.5389ZM9.11678 13.9056L8.04167 8.98334H17.7228C18.0208 8.98334 18.2017 8.98393 18.3337 8.99548C18.3989 9.00119 18.4316 9.00833 18.4441 9.01161C18.4651 9.02672 18.4799 9.04614 18.4886 9.06659C18.4879 9.08041 18.4851 9.11049 18.4747 9.16351C18.4499 9.28907 18.401 9.45811 18.3183 9.73934L17.2206 13.4727C17.1706 13.6426 17.1424 13.7374 17.1167 13.8059C17.1058 13.835 17.0987 13.85 17.0955 13.8563C17.0824 13.8711 17.0649 13.8842 17.0446 13.893C17.038 13.8943 17.02 13.8974 16.9835 13.9C16.9082 13.9052 16.8068 13.9056 16.6279 13.9056H9.11678ZM17.0935 13.8598C17.0932 13.8603 17.0935 13.8598 17.0935 13.8598V13.8598ZM9.10269 17.5389C8.57422 17.5389 8.16712 17.956 8.16712 18.4445C8.16712 18.9329 8.57422 19.35 9.10269 19.35C9.63116 19.35 10.0383 18.9329 10.0383 18.4445C10.0383 17.956 9.63116 17.5389 9.10269 17.5389Z" fill="#0E005C"/>
</svg>
