<svg width="24" height="24" viewBox="0 0 24 24" fill="none" xmlns="http://www.w3.org/2000/svg">
<rect width="24" height="24" rx="12" fill="#CDFFD5"/>
<path fill-rule="evenodd" clip-rule="evenodd" d="M14.5442 5.65144C13.8851 5.62955 12.958 5.85652 12.2931 6.05746C11.9629 6.15728 11.6588 6.35965 11.4036 6.63993L9.0267 9.25065C8.81778 9.48011 8.65594 9.77084 8.60262 10.011C8.55208 10.2388 8.61217 10.2969 8.65365 10.3283C8.66174 10.3344 8.70465 10.3603 8.80499 10.3847C8.89983 10.4078 9.01271 10.4217 9.1301 10.428C9.23615 10.4336 9.33494 10.4324 9.41102 10.4294L12.2472 8.71334C13.0273 8.24131 14.0424 8.49157 14.5138 9.27212L18.202 15.3799H18.8691V7.73962C18.8093 7.69291 18.7388 7.63877 18.6589 7.5788C18.3748 7.3655 17.9748 7.08083 17.5116 6.79492C16.5552 6.20461 15.4423 5.68126 14.5442 5.65144ZM19.151 6.3274C18.8826 6.13463 18.557 5.91249 18.1944 5.68868C17.2145 5.08385 15.8507 4.39411 14.5873 4.35215C13.6938 4.32248 12.5845 4.61131 11.917 4.81306C11.3305 4.99035 10.832 5.33685 10.4424 5.76474L9.97091 6.28258C9.26221 6.12172 8.50475 6.26521 7.88906 6.46512C7.25475 6.67107 6.67251 6.96936 6.26937 7.2191H4.5207C4.50422 6.32209 3.77192 5.6 2.87098 5.6H1.13877C0.779784 5.6 0.48877 5.89102 0.48877 6.25C0.48877 6.60899 0.779784 6.9 1.13877 6.9H2.87098C3.06428 6.9 3.22098 7.0567 3.22098 7.25V16.5C3.22098 16.6933 3.06428 16.85 2.87098 16.85H1.13877C0.779784 16.85 0.48877 17.141 0.48877 17.5C0.48877 17.859 0.779784 18.15 1.13877 18.15H2.87098C3.78225 18.15 4.52098 17.4113 4.52098 16.5V16.2388H5.30434L6.71196 18.5829C7.13756 19.2917 7.77556 20.2542 8.85281 20.5678C9.01283 20.6144 9.19556 20.65 9.38724 20.65C9.88578 20.65 10.3804 20.4047 10.6795 20.2324C10.7672 20.1819 10.8481 20.1316 10.9197 20.085C11.0055 20.1202 11.1031 20.1574 11.2083 20.1927C11.5378 20.303 12.1114 20.4545 12.627 20.2876C13.0835 20.1398 13.4383 19.7595 13.6341 19.5219C13.6535 19.4985 13.6721 19.4753 13.6901 19.4525C13.7408 19.4673 13.7941 19.482 13.8494 19.496C14.1818 19.5804 14.746 19.686 15.237 19.5085C15.6025 19.3764 15.914 19.0908 16.0942 18.9076C16.112 18.8895 16.1293 18.8715 16.1461 18.8539C16.2445 18.8743 16.3558 18.8942 16.4745 18.9098C16.6806 18.937 16.9274 18.9538 17.1764 18.93C17.4196 18.9068 17.7155 18.8402 17.9763 18.659C18.2357 18.4787 18.3994 18.2273 18.5042 18.0088C18.6111 17.7859 18.6783 17.552 18.7217 17.3529C18.7658 17.151 18.7894 16.9661 18.8022 16.8326C18.8082 16.771 18.8119 16.7191 18.8142 16.6799H18.8788C18.9685 17.5065 19.6687 18.15 20.5191 18.15H22.1388C22.4978 18.15 22.7888 17.859 22.7888 17.5C22.7888 17.141 22.4978 16.85 22.1388 16.85H20.5191C20.3258 16.85 20.1691 16.6933 20.1691 16.5V7.43272C20.1692 7.42978 20.1692 7.42683 20.1691 7.42389V7.25C20.1691 7.05671 20.3258 6.9 20.5191 6.9H22.1388C22.4978 6.9 22.7888 6.60899 22.7888 6.25C22.7888 5.89102 22.4978 5.6 22.1388 5.6H20.5191C19.9496 5.6 19.4475 5.88854 19.151 6.3274ZM17.505 16.7404L17.2788 16.3659L13.401 9.94412C13.301 9.77855 13.0856 9.72547 12.9202 9.82559L9.94887 11.6234C9.86753 11.6726 9.77638 11.7034 9.68185 11.7135L9.61239 11.0672C9.68185 11.7135 9.68198 11.7135 9.68185 11.7135L9.67918 11.7138L9.67513 11.7142L9.66304 11.7154C9.65324 11.7163 9.63999 11.7175 9.62366 11.7188C9.59106 11.7214 9.54585 11.7246 9.49096 11.7271C9.38212 11.7322 9.23059 11.7351 9.06123 11.7261C8.76569 11.7105 8.25019 11.6532 7.86929 11.365C7.28077 10.9198 7.21723 10.2532 7.33351 9.72933C7.44703 9.21792 7.7425 8.73015 8.06543 8.37545L8.80075 7.56782C8.63817 7.59932 8.46735 7.64416 8.29053 7.70158C7.691 7.89624 7.13683 8.19811 6.82214 8.40904C6.71509 8.48079 6.58912 8.5191 6.46024 8.5191H4.52098V14.9388H5.67221C5.90045 14.9388 6.11196 15.0585 6.22946 15.2541L7.82647 17.9137C8.26649 18.6465 8.67902 19.1632 9.21621 19.3196C9.29651 19.343 9.35294 19.35 9.38724 19.35C9.50408 19.35 9.70553 19.2819 9.9432 19.1545L9.0733 17.8632C8.87273 17.5654 8.95151 17.1615 9.24924 16.9609C9.54697 16.7603 9.95092 16.8391 10.1515 17.1369L11.2921 18.8301C11.3777 18.8689 11.4932 18.9171 11.621 18.9599C11.9301 19.0634 12.1446 19.0773 12.2266 19.0507C12.3014 19.0266 12.4533 18.9106 12.6312 18.6949C12.6366 18.6883 12.642 18.6817 12.6473 18.6751L11.2192 16.621C11.0143 16.3263 11.0872 15.9212 11.3819 15.7163C11.6767 15.5114 12.0817 15.5842 12.2866 15.879L13.8599 18.1419C13.9437 18.1714 14.0514 18.206 14.1692 18.2359C14.4789 18.3146 14.7029 18.3192 14.7951 18.2859C14.8528 18.2651 14.9516 18.198 15.0697 18.0902L13.7898 16.4262C13.5709 16.1416 13.6241 15.7335 13.9087 15.5147C14.1932 15.2958 14.6013 15.349 14.8202 15.6336L16.299 17.5562C16.3941 17.579 16.5149 17.604 16.6442 17.621C16.7929 17.6406 16.9347 17.6471 17.0528 17.6359C17.1766 17.624 17.2262 17.5971 17.2344 17.5915C17.2415 17.5865 17.2814 17.5523 17.3321 17.4466C17.3807 17.3453 17.4209 17.2164 17.4516 17.0758C17.4785 16.9525 17.495 16.8342 17.505 16.7404Z" fill="#005C4B"/>
</svg>
