<svg width="24" height="24" viewBox="0 0 24 24" fill="none" xmlns="http://www.w3.org/2000/svg">
<rect width="24" height="24" rx="12" fill="#E7FFCD"/>
<path fill-rule="evenodd" clip-rule="evenodd" d="M9.63877 7.65001C9.16933 7.65001 8.78877 8.03056 8.78877 8.50001C8.78877 8.96945 9.16933 9.35001 9.63877 9.35001C10.1082 9.35001 10.4888 8.96945 10.4888 8.50001C10.4888 8.03056 10.1082 7.65001 9.63877 7.65001ZM7.48877 8.50001C7.48877 7.31259 8.45136 6.35001 9.63877 6.35001C10.8262 6.35001 11.7888 7.31259 11.7888 8.50001C11.7888 9.68742 10.8262 10.65 9.63877 10.65C8.45136 10.65 7.48877 9.68742 7.48877 8.50001Z" fill="#2F5C00"/>
<path fill-rule="evenodd" clip-rule="evenodd" d="M17.356 12.9179C16.9572 12.5607 16.2878 12.5607 15.8891 12.9179L12.4457 15.9988C11.5532 16.798 10.1367 16.798 9.24422 15.9988L9.23872 15.9939L8.96866 15.7464C8.6125 15.4295 8.01196 15.3899 7.60204 15.6692L4.53372 18.0163C4.24859 18.2344 3.84063 18.1801 3.62253 17.8949C3.40442 17.6098 3.45876 17.2018 3.74389 16.9837L6.82459 14.6272C6.83192 14.6216 6.83938 14.6161 6.84694 14.6108C7.74375 13.9836 9.02178 14.0486 9.8384 14.7801L9.84385 14.785L10.1139 15.0325C10.513 15.3875 11.1804 15.3868 11.5784 15.0304L15.0218 11.9495C15.9135 11.1509 17.3283 11.1502 18.2209 11.9474C18.2217 11.9481 18.2225 11.9488 18.2232 11.9495L20.5681 14.0119C20.8376 14.249 20.864 14.6598 20.6269 14.9293C20.3898 15.1989 19.9791 15.2252 19.7095 14.9881L17.356 12.9179Z" fill="#2F5C00"/>
<path fill-rule="evenodd" clip-rule="evenodd" d="M5.13877 5.65001C4.94547 5.65001 4.78877 5.80671 4.78877 6.00001V18C4.78877 18.1933 4.94547 18.35 5.13877 18.35H19.1388C19.3321 18.35 19.4888 18.1933 19.4888 18V6.00001C19.4888 5.80671 19.3321 5.65001 19.1388 5.65001H5.13877ZM3.48877 6.00001C3.48877 5.08874 4.2275 4.35001 5.13877 4.35001H19.1388C20.05 4.35001 20.7888 5.08874 20.7888 6.00001V18C20.7888 18.9113 20.05 19.65 19.1388 19.65H5.13877C4.2275 19.65 3.48877 18.9113 3.48877 18V6.00001Z" fill="#2F5C00"/>
</svg>
