<svg width="24" height="24" viewBox="0 0 24 24" fill="none" xmlns="http://www.w3.org/2000/svg">
<rect width="24" height="24" rx="12" fill="#F6CDFF"/>
<path fill-rule="evenodd" clip-rule="evenodd" d="M12.1388 8.65001C10.2886 8.65001 8.78877 10.1499 8.78877 12C8.78877 13.8502 10.2886 15.35 12.1388 15.35C13.9889 15.35 15.4888 13.8502 15.4888 12C15.4888 10.1499 13.9889 8.65001 12.1388 8.65001ZM7.48877 12C7.48877 9.43188 9.57065 7.35001 12.1388 7.35001C14.7069 7.35001 16.7888 9.43188 16.7888 12C16.7888 14.5681 14.7069 16.65 12.1388 16.65C9.57065 16.65 7.48877 14.5681 7.48877 12Z" fill="#4B005C"/>
<path fill-rule="evenodd" clip-rule="evenodd" d="M11.6792 2.54039C11.933 2.28655 12.3445 2.28655 12.5984 2.54039L14.5984 4.54039C14.8522 4.79423 14.8522 5.20578 14.5984 5.45963C14.3445 5.71347 13.933 5.71347 13.6792 5.45963L12.1388 3.91924L10.5984 5.45963C10.3445 5.71347 9.93299 5.71347 9.67915 5.45963C9.42531 5.20578 9.42531 4.79423 9.67915 4.54039L11.6792 2.54039Z" fill="#4B005C"/>
<path fill-rule="evenodd" clip-rule="evenodd" d="M21.5982 11.5404C21.852 11.7942 21.852 12.2058 21.5982 12.4596L19.5982 14.4596C19.3444 14.7135 18.9328 14.7135 18.679 14.4596C18.4251 14.2058 18.4251 13.7942 18.679 13.5404L20.2193 12L18.679 10.4596C18.4251 10.2058 18.4251 9.79423 18.679 9.54039C18.9328 9.28655 19.3444 9.28655 19.5982 9.54039L21.5982 11.5404Z" fill="#4B005C"/>
<path fill-rule="evenodd" clip-rule="evenodd" d="M2.67915 12.4596C2.42531 12.2058 2.42531 11.7942 2.67915 11.5404L4.67915 9.54037C4.93299 9.28653 5.34455 9.28653 5.59839 9.54037C5.85223 9.79422 5.85223 10.2058 5.59839 10.4596L4.05801 12L5.59839 13.5404C5.85223 13.7942 5.85223 14.2058 5.59839 14.4596C5.34455 14.7135 4.93299 14.7135 4.67915 14.4596L2.67915 12.4596Z" fill="#4B005C"/>
<path fill-rule="evenodd" clip-rule="evenodd" d="M12.5982 21.4596C12.3444 21.7135 11.9328 21.7135 11.679 21.4596L9.67895 19.4596C9.42511 19.2058 9.42511 18.7942 9.67895 18.5404C9.9328 18.2865 10.3444 18.2865 10.5982 18.5404L12.1386 20.0808L13.679 18.5404C13.9328 18.2865 14.3444 18.2865 14.5982 18.5404C14.852 18.7942 14.852 19.2058 14.5982 19.4596L12.5982 21.4596Z" fill="#4B005C"/>
</svg>
