<svg width="24" height="24" viewBox="0 0 24 24" fill="none" xmlns="http://www.w3.org/2000/svg">
<rect width="24" height="24" rx="12" fill="#FFCDE7"/>
<path fill-rule="evenodd" clip-rule="evenodd" d="M12.3601 8.09033C12.7191 8.09033 13.0101 8.38134 13.0101 8.74033L13.0102 13.683C13.0102 14.042 12.7192 14.333 12.3602 14.333C12.0012 14.333 11.7102 14.042 11.7102 13.683L11.7101 8.74033C11.7101 8.38135 12.0012 8.09033 12.3601 8.09033ZM11.6719 16.4312C11.6719 16.0722 11.9629 15.7812 12.3219 15.7812H12.3985C12.7574 15.7812 13.0485 16.0722 13.0485 16.4312V16.4999C13.0485 16.8584 12.7581 17.1492 12.3996 17.1499L12.323 17.15C12.1504 17.1503 11.9848 17.082 11.8627 16.96C11.7405 16.8381 11.6719 16.6726 11.6719 16.5V16.4312Z" fill="#5C002F"/>
<path fill-rule="evenodd" clip-rule="evenodd" d="M12.4352 4.65001C8.37586 4.65001 5.08516 7.94072 5.08516 12C5.08516 13.3218 5.54881 14.8023 6.17885 15.8947C6.26324 16.041 6.28735 16.2145 6.24609 16.3783L5.63718 18.7954L7.8952 18.1774C8.06254 18.1316 8.24124 18.1546 8.39153 18.2412C9.47698 18.8672 11.1059 19.35 12.4348 19.35C16.4942 19.35 19.7852 16.0593 19.7852 12C19.7852 7.94072 16.4944 4.65001 12.4352 4.65001ZM3.78516 12C3.78516 7.22275 7.65789 3.35001 12.4352 3.35001C17.2124 3.35001 21.0852 7.22275 21.0852 12C21.0852 16.7773 17.2121 20.65 12.4348 20.65C10.9548 20.65 9.23452 20.1629 7.98384 19.5009L4.90648 20.3432C4.68358 20.4042 4.44505 20.3423 4.27998 20.1805C4.11491 20.0188 4.04813 19.7816 4.10458 19.5575L4.92263 16.3102C4.26386 15.0808 3.78516 13.4888 3.78516 12Z" fill="#5C002F"/>
</svg>
