<svg width="24" height="24" viewBox="0 0 24 24" fill="none" xmlns="http://www.w3.org/2000/svg">
<rect width="24" height="24" rx="12" fill="#CDFFF6"/>
<path fill-rule="evenodd" clip-rule="evenodd" d="M16.9888 5.50028C16.9888 5.30694 16.832 5.15023 16.6387 5.15028L7.63867 5.15285C7.44541 5.1529 7.28877 5.30959 7.28877 5.50285V16.5C7.28877 16.6933 7.44547 16.85 7.63877 16.85H14.1387C14.1386 16.85 14.1387 16.85 14.1387 16.85H16.6388C16.8321 16.85 16.9888 16.6933 16.9888 16.5V5.50028ZM14.7888 18.15H16.6388C17.55 18.15 18.2888 17.4113 18.2888 16.5V5.50028C18.2888 4.58883 17.5498 3.85002 16.6383 3.85028L7.6383 3.85285C6.72721 3.85311 5.98877 4.59176 5.98877 5.50285V16.5C5.98877 17.4113 6.7275 18.15 7.63877 18.15H9.48877V19.85H8.13877C7.77978 19.85 7.48877 20.141 7.48877 20.5C7.48877 20.859 7.77978 21.15 8.13877 21.15H16.6388C16.9978 21.15 17.2888 20.859 17.2888 20.5C17.2888 20.141 16.9978 19.85 16.6388 19.85H14.7888V18.15ZM10.7888 18.1506V19.85H13.4888V18.1501L10.7888 18.1506Z" fill="#005C4B"/>
</svg>
