<svg width="24" height="24" viewBox="0 0 24 24" fill="none" xmlns="http://www.w3.org/2000/svg">
<g clip-path="url(#clip0_9166_9656)">
<rect width="24" height="24" rx="12" fill="#CDFFD5"/>
<path fill-rule="evenodd" clip-rule="evenodd" d="M4.83594 11.1171H8.71094V12.4171H4.83594V11.1171ZM15.2511 11.1171H19.2511V12.4171H15.2511V11.1171Z" fill="#005C0E"/>
<path fill-rule="evenodd" clip-rule="evenodd" d="M-2.37256 9.57334C-2.37256 8.66207 -1.63383 7.92334 -0.722559 7.92334H3.75921C4.67048 7.92334 5.40921 8.66207 5.40921 9.57334V14.0551C5.40921 14.9664 4.67048 15.7051 3.75921 15.7051H-0.722558C-1.63383 15.7051 -2.37256 14.9664 -2.37256 14.0551V9.57334ZM-0.722559 9.22334C-0.915858 9.22334 -1.07256 9.38004 -1.07256 9.57334V14.0551C-1.07256 14.2484 -0.915858 14.4051 -0.722558 14.4051H3.75921C3.95251 14.4051 4.10921 14.2484 4.10921 14.0551V9.57334C4.10921 9.38004 3.95251 9.22334 3.75921 9.22334H-0.722559Z" fill="#005C0E"/>
<path fill-rule="evenodd" clip-rule="evenodd" d="M18.5913 9.94489C18.5913 9.03362 19.33 8.29489 20.2413 8.29489H24.7231C25.6343 8.29489 26.3731 9.03362 26.3731 9.94489V14.4267C26.3731 15.3379 25.6343 16.0767 24.7231 16.0767H20.2413C19.33 16.0767 18.5913 15.3379 18.5913 14.4267V9.94489ZM20.2413 9.59489C20.048 9.59489 19.8913 9.75159 19.8913 9.94489V14.4267C19.8913 14.62 20.048 14.7767 20.2413 14.7767H24.7231C24.9164 14.7767 25.0731 14.62 25.0731 14.4267V9.94489C25.0731 9.75159 24.9164 9.59489 24.7231 9.59489H20.2413Z" fill="#005C0E"/>
<path fill-rule="evenodd" clip-rule="evenodd" d="M8.10938 9.57334C8.10938 8.66207 8.8481 7.92334 9.75937 7.92334H14.2411C15.1524 7.92334 15.8911 8.66207 15.8911 9.57334V14.0551C15.8911 14.9664 15.1524 15.7051 14.2411 15.7051H9.75938C8.84811 15.7051 8.10938 14.9664 8.10938 14.0551V9.57334ZM9.75937 9.22334C9.56608 9.22334 9.40937 9.38004 9.40937 9.57334V14.0551C9.40937 14.2484 9.56608 14.4051 9.75938 14.4051H14.2411C14.4344 14.4051 14.5911 14.2484 14.5911 14.0551V9.57334C14.5911 9.38004 14.4344 9.22334 14.2411 9.22334H9.75937Z" fill="#005C0E"/>
</g>
<defs>
<clipPath id="clip0_9166_9656">
<rect width="24" height="24" rx="12" fill="white"/>
</clipPath>
</defs>
</svg>
