<svg width="24" height="24" viewBox="0 0 24 24" fill="none" xmlns="http://www.w3.org/2000/svg">
<rect width="24" height="24" rx="12" fill="#FFCDE7"/>
<path d="M14.2399 11.8544L10.3711 13.1216L7.00152 14.6096L6.06072 14.8592C5.82072 15.0896 5.57112 15.32 5.29272 15.5504C4.99512 15.8096 4.71672 16.04 4.50552 16.2128C4.26552 16.4048 3.91992 16.7504 3.73752 16.9712C3.46872 17.3072 3.25752 17.6624 3.17112 17.9312C3.00792 18.4208 3.08472 18.92 3.40152 19.3808C3.79512 19.9664 4.59192 20.5616 5.51352 20.9648C5.98392 21.176 6.78072 21.4352 7.37592 21.5888C8.36472 21.8384 10.2847 22.1168 11.3407 22.1552C11.5519 22.1648 11.8399 22.1648 11.8495 22.1552C11.8687 22.136 12.0415 21.8288 12.2239 21.4352C12.8767 20.1104 13.3375 18.8624 13.5967 17.8064C13.7503 17.1632 13.8655 16.3088 13.9519 15.2912C13.9711 15.0032 13.9807 14.0528 13.9615 13.736C13.9327 13.208 13.8847 12.7856 13.8175 12.3632C13.8079 12.3056 13.7983 12.248 13.8079 12.248C13.8175 12.2384 13.8559 12.2288 14.3359 12.0944L14.2399 11.8544ZM13.3567 12.3728C13.3951 12.3728 13.4815 13.2752 13.5103 13.8416C13.5199 13.9568 13.5103 14.0432 13.5103 14.0432C13.4911 14.0432 13.0207 13.7648 12.6751 13.5536C12.3871 13.3712 11.8303 12.9968 11.7439 12.9296C11.7151 12.9104 11.7151 12.9104 11.9551 12.824C12.3583 12.68 13.3183 12.3728 13.3567 12.3728ZM11.3791 13.0256C11.4079 13.0256 11.4751 13.064 11.6383 13.16C12.2431 13.5344 13.0591 13.9952 13.4143 14.1488C13.5199 14.1968 13.5295 14.1776 13.2895 14.3504C12.7615 14.7152 12.0895 15.0704 11.2831 15.4256C11.1391 15.4928 11.0239 15.5408 11.0143 15.5408C11.0047 15.5408 11.0239 15.464 11.0527 15.3776C11.2447 14.648 11.3599 13.9088 11.3695 13.3232C11.3503 13.0256 11.3503 13.0256 11.3791 13.0256ZM10.9759 13.1792C10.9951 13.1984 10.9855 13.8512 10.9567 14.0336C10.9087 14.456 10.8223 14.8592 10.6879 15.3104C10.6591 15.416 10.6303 15.512 10.6207 15.512C10.6111 15.5312 10.2079 15.1376 10.0735 14.984C9.84312 14.7248 9.67032 14.456 9.53592 14.1968C9.46872 14.0624 9.36312 13.8032 9.37272 13.8032C9.42072 13.7648 10.9663 13.1696 10.9759 13.1792ZM9.06552 13.928C9.08472 13.9376 9.10392 13.9856 9.11352 14.0336C9.20952 14.2928 9.42072 14.6672 9.60312 14.8976C9.80472 15.1568 10.0639 15.4448 10.2751 15.6272C10.3423 15.6848 10.4095 15.7424 10.4191 15.752C10.4383 15.7712 10.4383 15.7712 9.96792 15.944C9.41112 16.1552 8.81592 16.3664 8.12472 16.5872C7.96152 16.6448 7.79832 16.6928 7.63512 16.7504C7.60632 16.76 7.61592 16.7408 7.69272 16.6256C8.03832 16.088 8.55672 15.0416 8.84472 14.2928C8.89272 14.168 8.94072 14.0336 8.95032 14.0048C8.95992 13.9664 8.97912 13.9472 9.01752 13.928C9.03672 13.9376 9.05592 13.928 9.06552 13.928ZM8.47992 14.168C8.48952 14.1776 8.33592 14.4848 8.19192 14.7728C7.90392 15.3296 7.59672 15.8672 7.18392 16.5296C7.11672 16.6448 7.04952 16.7504 7.03992 16.76C7.02072 16.7792 7.02072 16.7792 6.97272 16.6832C6.87672 16.4912 6.79032 16.232 6.75192 16.0016C6.70392 15.7712 6.71352 15.3776 6.77112 15.128C6.80952 14.9456 6.80952 14.9456 6.89592 14.9072C7.25112 14.7248 8.46072 14.1584 8.47992 14.168ZM13.5199 14.3792V14.504C13.5199 15.1568 13.4527 16.0496 13.3471 16.7024C13.3279 16.8176 13.3183 16.9136 13.3087 16.9136C13.3087 16.9136 13.2223 16.8944 13.1263 16.8656C12.6847 16.7312 12.2143 16.5296 11.7823 16.2896C11.4943 16.136 11.0815 15.8768 11.1007 15.8672C11.1007 15.8672 11.2255 15.8 11.3695 15.7232C11.9455 15.4256 12.4927 15.0992 12.9727 14.7824C13.1551 14.6672 13.4239 14.4656 13.4815 14.4176L13.5199 14.3792ZM6.27192 15.2432C6.28152 15.2432 6.28152 15.2624 6.26232 15.368C6.25272 15.4448 6.23352 15.5888 6.23352 15.6848C6.21432 16.1072 6.28152 16.424 6.49272 16.856C6.55032 16.9712 6.59832 17.0768 6.59832 17.0768C6.57912 17.096 4.63992 17.6624 4.03512 17.8256C3.85272 17.8736 3.69912 17.9216 3.67992 17.9216C3.66072 17.9312 3.66072 17.9216 3.66072 17.8736C3.72792 17.4416 4.05432 16.8848 4.51512 16.4048C4.82232 16.088 5.06232 15.9056 5.47512 15.6656C5.77272 15.512 6.22392 15.2528 6.27192 15.2432C6.26232 15.2432 6.26232 15.2432 6.27192 15.2432ZM10.8319 16.0592C10.8319 16.0592 10.9087 16.0976 10.9855 16.1456C11.6095 16.5104 12.4831 16.8464 13.2223 17.0192L13.2895 17.0384L13.1935 17.0864C12.7999 17.3072 11.5231 17.8352 10.2175 18.3248C10.0255 18.392 9.84312 18.4688 9.80472 18.4784C9.76632 18.4976 9.73752 18.4976 9.73752 18.4976C9.73752 18.4976 9.78552 18.392 9.85272 18.2672C10.2175 17.5856 10.5823 16.7504 10.7743 16.1744C10.8127 16.1072 10.8319 16.0592 10.8319 16.0592ZM10.3711 16.2128C10.3711 16.2128 10.3519 16.28 10.3231 16.3472C10.0639 16.9616 9.73752 17.6336 9.30552 18.392C9.19992 18.584 9.10392 18.7376 9.10392 18.7376C9.10392 18.7376 9.01752 18.6896 8.91192 18.6224C8.28792 18.2384 7.74072 17.7776 7.38552 17.3168L7.33752 17.2496L7.60632 17.1728C8.55672 16.9136 9.37272 16.6352 10.1791 16.2896C10.2655 16.2512 10.3615 16.2128 10.3711 16.2128ZM13.2607 17.2208C13.2607 17.288 13.1167 17.8928 12.9919 18.3248C12.8863 18.6896 12.7999 18.9776 12.6367 19.4864C12.5695 19.7072 12.5023 19.8896 12.5023 19.8896C12.5023 19.8896 12.4831 19.8896 12.4639 19.88C11.5999 19.7264 10.8127 19.5056 10.0831 19.208C9.88152 19.1216 9.58392 18.9968 9.56472 18.9776C9.55512 18.968 9.73752 18.8912 9.95832 18.7952C11.2927 18.2096 12.6655 17.5568 13.1455 17.2688C13.2031 17.24 13.2511 17.2208 13.2607 17.2208ZM6.58872 17.4512C6.59832 17.4608 6.22392 17.9888 5.70552 18.7184C5.52312 18.9776 5.31192 19.2752 5.23512 19.3808C5.15832 19.496 5.03352 19.6688 4.96632 19.7744L4.84152 19.9664L4.70712 19.8512C4.55352 19.7264 4.28472 19.448 4.15992 19.2944C3.91032 18.9776 3.73752 18.6512 3.67032 18.3536C3.64152 18.2096 3.64152 18.1424 3.67032 18.1328C3.71832 18.1232 4.49592 17.9408 5.22552 17.768C5.62872 17.672 6.09912 17.5664 6.27192 17.5184C6.44472 17.48 6.57912 17.4512 6.58872 17.4512ZM6.96312 17.5952L7.05912 17.7008C7.48152 18.1712 7.91352 18.5168 8.43192 18.824C8.52792 18.872 8.59512 18.92 8.58552 18.9296C8.56632 18.9488 6.78072 19.5824 5.94552 19.8608C5.48472 20.024 5.10072 20.1584 5.09112 20.1584C5.09112 20.1584 5.06232 20.1392 5.03352 20.12L4.98552 20.0816L5.07192 19.9568C5.35032 19.5632 5.69592 19.1216 6.44472 18.2192L6.96312 17.5952ZM9.29592 19.2656C9.29592 19.2656 9.43032 19.3136 9.58392 19.3712C9.96792 19.5152 10.2655 19.6016 10.6687 19.7072C11.1679 19.832 11.8879 19.9568 12.3103 19.9952C12.3775 20.0048 12.4063 20.0048 12.3967 20.0144C12.3775 20.024 11.9455 20.168 11.6287 20.2736C11.1295 20.4272 9.59352 20.888 8.33592 21.2432C8.10552 21.3104 7.90392 21.368 7.89432 21.368C7.86552 21.3776 7.76952 21.3488 7.76952 21.3392C7.76952 21.3296 7.83672 21.2432 7.92312 21.1472C8.34552 20.648 8.75832 20.0816 9.11352 19.5536C9.20952 19.3808 9.29592 19.2656 9.29592 19.2656ZM8.77752 19.2752C8.77752 19.2752 8.57592 19.6112 8.21112 20.1872C8.05752 20.4272 7.88472 20.7056 7.81752 20.8016C7.75992 20.8976 7.67352 21.0416 7.62552 21.128L7.53912 21.2816L7.49112 21.272C7.38552 21.2432 6.64632 20.984 6.45432 20.9072C6.21432 20.8112 5.96472 20.696 5.77272 20.5904C5.54232 20.4656 5.24472 20.2736 5.27352 20.2736C5.28312 20.2736 5.67672 20.1584 6.16632 20.0336C7.44312 19.688 8.15352 19.4864 8.62392 19.3328C8.70072 19.2944 8.77752 19.2752 8.77752 19.2752ZM12.4159 20.1296C12.4351 20.1584 11.9551 21.4736 11.7823 21.8864C11.7439 21.9824 11.7343 22.0016 11.7055 22.0016C11.6575 22.0016 10.9663 21.9056 10.5535 21.8384C9.82392 21.7232 8.60472 21.512 8.29752 21.4448L8.23032 21.4256L8.66232 21.3296C9.60312 21.1184 10.0447 21.0032 10.5055 20.8688C11.0815 20.696 11.6479 20.4752 12.2239 20.2064C12.3199 20.168 12.3967 20.1296 12.4159 20.1296Z" fill="url(#paint0_linear_9168_50830)"/>
<path d="M10.2465 2.83999C10.1793 2.83039 9.14246 3.20479 8.47046 3.47359C7.56806 3.83839 6.86726 4.19359 6.43526 4.50079C6.27206 4.61599 6.07046 4.81759 6.04166 4.89439C6.03206 4.92319 6.02246 4.96159 6.02246 4.99039L6.41606 5.36479L7.34726 5.66239L9.56486 6.05599L12.0993 6.48799L12.1281 6.26719C12.1185 6.26719 12.1089 6.26719 12.1089 6.26719L11.7729 6.21919L11.7057 6.10399C11.3601 5.49919 10.9761 4.74079 10.7553 4.23199C10.5825 3.83839 10.4193 3.37759 10.3329 3.05119C10.2849 2.84959 10.2753 2.83999 10.2465 2.83999ZM10.1985 2.98399C10.2081 2.98399 10.2177 3.07039 10.2273 3.16639C10.2753 3.57919 10.3713 3.97279 10.5153 4.39519C10.6209 4.72159 10.6209 4.70239 10.4961 4.66399C10.1985 4.57759 8.86406 4.34719 7.89446 4.21279C7.74086 4.19359 7.60646 4.17439 7.60646 4.16479C7.59686 4.15519 8.30726 3.78079 8.61446 3.63679C9.01766 3.45439 10.1217 3.00319 10.1985 2.98399ZM7.37606 4.29919L7.49126 4.33759C8.11526 4.54879 9.67046 4.84639 10.5345 4.91359C10.6305 4.92319 10.7169 4.93279 10.7169 4.93279C10.7169 4.93279 10.6401 4.98079 10.5345 5.02879C10.1217 5.23999 9.66086 5.48959 9.34406 5.69119C9.24806 5.74879 9.16166 5.79679 9.15206 5.79679C9.14246 5.79679 9.07526 5.78719 9.01766 5.77759L8.90246 5.75839L8.61446 5.47039C8.09606 4.97119 7.69286 4.58719 7.53926 4.43359L7.37606 4.29919ZM7.26086 4.38559L7.67366 4.90399C7.89446 5.19199 8.12486 5.46079 8.17286 5.52799C8.22086 5.58559 8.25926 5.64319 8.25926 5.64319C8.24966 5.65279 7.66406 5.53759 7.35686 5.47039C7.04006 5.39359 6.90566 5.36479 6.71366 5.29759L6.55046 5.24959V5.21119C6.55046 5.01919 6.80006 4.72159 7.22246 4.42399L7.26086 4.38559ZM10.7649 5.08639C10.7745 5.08639 10.7937 5.11519 10.8225 5.19199C10.9185 5.41279 11.2353 5.99839 11.3121 6.11359C11.3313 6.15199 11.3793 6.15199 10.9665 6.08479C9.97766 5.92159 9.66086 5.87359 9.66086 5.86399C9.66086 5.86399 9.68966 5.84479 9.72806 5.81599C10.0353 5.64319 10.3425 5.43199 10.6209 5.20159C10.6881 5.14399 10.7457 5.09599 10.7649 5.08639Z" fill="url(#paint1_linear_9168_50830)"/>
<path d="M6.06058 4.84641C6.06058 4.84641 5.99338 4.952 6.06058 5.1056C6.09898 5.2016 6.21418 5.3168 6.33898 5.432C6.33898 5.432 7.64458 6.69921 7.79818 6.88161C8.51818 7.71681 8.83498 8.5328 8.86378 9.656C8.88298 10.3856 8.74858 11.0192 8.40298 11.7584C7.79818 13.0832 6.51178 14.552 4.53418 16.1744L4.82218 16.0784C5.00458 15.9344 5.26378 15.7904 5.85898 15.464C7.24138 14.7056 8.78698 14.0144 10.6878 13.304C13.4238 12.2768 17.9262 11.0672 20.4894 10.6736L20.7582 10.6352L20.7198 10.568C20.4894 10.2032 20.3262 9.9824 20.1342 9.7424C19.5774 9.0416 18.8958 8.4848 18.0606 8.0144C16.9182 7.3712 15.4302 6.87201 13.5486 6.49761C13.1934 6.43041 12.4158 6.296 11.7822 6.2C10.4382 5.9888 9.57418 5.84481 8.62378 5.68161C8.27818 5.62401 7.76938 5.53761 7.43338 5.46081C7.26058 5.42241 6.92458 5.3456 6.65578 5.2496C6.42538 5.1824 6.12778 5.09601 6.06058 4.84641ZM6.81898 5.58561C6.81898 5.58561 6.86698 5.6048 6.93418 5.624C7.04938 5.6624 7.19338 5.71041 7.35658 5.74881C7.48138 5.78721 7.61578 5.816 7.74058 5.8544C7.91338 5.9024 8.06698 5.94081 8.06698 5.94081C8.08618 5.96001 8.38378 6.91041 8.47978 7.26561C8.51818 7.40001 8.54698 7.52481 8.54698 7.52481C8.54698 7.52481 8.50858 7.47681 8.47018 7.40961C8.12458 6.80481 7.58698 6.20001 6.96298 5.70081C6.87658 5.63361 6.81898 5.58561 6.81898 5.58561ZM8.25898 5.9792C8.27818 5.9792 8.33578 5.9888 8.41258 6.008C8.91178 6.1232 9.80458 6.2864 10.371 6.3824C10.467 6.4016 10.5438 6.41121 10.5438 6.42081C10.5438 6.43041 10.5054 6.44961 10.467 6.46881C10.371 6.51681 9.97738 6.74721 9.85258 6.83361C9.52618 7.05441 9.23818 7.2848 9.02698 7.496C8.94058 7.5824 8.87338 7.64961 8.87338 7.64961C8.87338 7.64961 8.85418 7.6016 8.84458 7.5344C8.73898 7.1312 8.51818 6.5264 8.31658 6.104C8.27818 6.0464 8.24938 5.9792 8.25898 5.9792C8.24938 5.9792 8.24938 5.9792 8.25898 5.9792ZM10.7838 6.4592C10.803 6.4688 10.8318 6.56481 10.8894 6.78561C10.995 7.20801 11.043 7.68801 11.0334 8.12961C11.0238 8.25441 11.0238 8.3696 11.0142 8.3792L11.0046 8.408L10.851 8.36C10.5342 8.264 10.0254 8.11041 9.59338 7.98561C9.34378 7.91841 9.14218 7.8608 9.14218 7.8512C9.14218 7.832 9.50698 7.46721 9.66058 7.33281C9.95818 7.07361 10.7646 6.4496 10.7838 6.4592ZM10.9854 6.488C10.995 6.4784 12.195 6.6896 12.7422 6.7952C13.1454 6.872 13.7406 6.9968 13.779 7.016C13.7982 7.0256 13.731 7.05441 13.539 7.14081C12.771 7.48641 12.195 7.80321 11.619 8.17761C11.4654 8.27361 11.3406 8.36 11.3406 8.36C11.3406 8.36 11.331 8.27361 11.331 8.17761C11.331 7.62081 11.2158 7.064 11.0142 6.584C11.0046 6.536 10.9854 6.4976 10.9854 6.488ZM14.0958 7.1024C14.1054 7.112 14.067 7.352 14.0286 7.4864C13.923 7.9184 13.635 8.5712 13.2894 9.176C13.2318 9.2816 13.1742 9.36801 13.1646 9.37761C13.155 9.37761 13.0782 9.33921 12.9918 9.28161C12.6558 9.08001 12.2622 8.89761 11.8494 8.72481C11.7342 8.67681 11.6286 8.63841 11.6286 8.62881C11.6094 8.60961 12.5502 7.98561 13.0494 7.688C13.443 7.448 14.0862 7.0928 14.0958 7.1024ZM14.3166 7.14081C14.3454 7.14081 14.8734 7.2848 15.1518 7.3712C15.843 7.5728 16.6302 7.86081 17.139 8.10081L17.3502 8.19681L17.1966 8.2352C15.939 8.5232 14.8638 8.85921 13.827 9.28161C13.7406 9.32001 13.6638 9.34881 13.6638 9.34881C13.6542 9.34881 13.683 9.2816 13.7214 9.1952C14.0382 8.5328 14.2398 7.8416 14.2878 7.2464C14.307 7.1888 14.3166 7.14081 14.3166 7.14081ZM9.01738 8.36C9.02698 8.3504 9.43018 8.44641 9.65098 8.51361C9.98698 8.60961 10.6878 8.84 10.6878 8.8592C10.6878 8.8592 10.611 8.92641 10.515 9.0128C10.131 9.32961 9.76618 9.66561 9.32458 10.0976C9.19018 10.2224 9.08458 10.328 9.07498 10.328C9.06538 10.328 9.06538 10.3088 9.06538 10.2896C9.13258 9.80001 9.11338 9.1664 9.02698 8.5232C9.02698 8.4272 9.01738 8.36 9.01738 8.36ZM17.5614 8.36961C17.571 8.37921 17.3694 8.67681 17.2542 8.84961C17.0814 9.09921 16.8222 9.43521 16.2366 10.1648C15.9294 10.5488 15.5838 10.9904 15.4686 11.1344C15.3534 11.2784 15.2574 11.4032 15.2478 11.4032C15.2478 11.4032 15.2094 11.3552 15.1614 11.288C14.835 10.7984 14.4414 10.3664 13.9806 9.9824C13.8942 9.9056 13.7982 9.82881 13.7598 9.80961C13.731 9.79041 13.7022 9.76161 13.7022 9.76161C13.7022 9.75201 14.2014 9.5408 14.5758 9.3872C15.2382 9.1184 16.1406 8.792 16.8126 8.5904C17.1774 8.4656 17.5614 8.36001 17.5614 8.36961ZM17.7918 8.4272C17.8014 8.4272 17.8782 8.45601 17.955 8.51361C18.6654 8.91681 19.3662 9.4448 19.9134 9.9824C20.067 10.136 20.451 10.5296 20.4414 10.5392C20.4414 10.5392 20.307 10.5488 20.1534 10.5584C18.9246 10.6544 17.3502 10.9136 15.8334 11.2784C15.7278 11.2976 15.6414 11.3264 15.6318 11.3264C15.6222 11.3264 15.7374 11.2112 15.8814 11.0768C16.7742 10.2224 17.1774 9.6752 17.6574 8.7152C17.7246 8.552 17.7822 8.4368 17.7918 8.4272C17.7822 8.4272 17.7822 8.4272 17.7918 8.4272ZM11.2734 9.08961C11.3118 9.09921 11.6958 9.2816 11.9838 9.41601C12.243 9.55041 12.6462 9.7616 12.6654 9.7712C12.6654 9.7712 12.531 9.848 12.3582 9.9344C11.811 10.2128 11.3406 10.472 10.8414 10.7696C10.6974 10.856 10.5822 10.9232 10.5822 10.9232C10.5726 10.9232 10.5726 10.9136 10.6494 10.7696C10.9086 10.2896 11.1198 9.71361 11.2446 9.15681C11.2542 9.11841 11.2638 9.08961 11.2734 9.08961ZM10.899 9.1664C10.9086 9.176 10.8126 9.53121 10.7454 9.73281C10.6302 10.1072 10.419 10.568 10.227 10.9232C10.179 11.0096 10.1118 11.1248 10.0734 11.192L9.99658 11.3072L9.83338 11.1536C9.64138 10.9712 9.48778 10.856 9.28618 10.7504C9.20938 10.712 9.14218 10.6736 9.14218 10.664C9.14218 10.6448 9.64138 10.184 10.0254 9.85761C10.3038 9.61761 10.8894 9.1568 10.899 9.1664ZM13.2222 10.1168L13.3662 10.2128C13.6926 10.424 14.0766 10.712 14.3742 10.9616C14.5374 11.096 14.8638 11.384 14.931 11.4608L14.9694 11.4992L14.7294 11.5664C13.3854 11.9408 12.3582 12.2672 11.1486 12.7088C11.0142 12.7568 10.899 12.7952 10.8894 12.7952C10.8702 12.7952 10.8606 12.8144 11.1582 12.536C11.9262 11.8256 12.6174 11.0384 13.1262 10.28L13.2222 10.1168ZM12.6078 10.2704C12.6174 10.28 12.2142 10.8368 11.9742 11.1632C11.6862 11.5472 11.1774 12.1808 10.8318 12.5936C10.6878 12.7664 10.563 12.9104 10.5534 12.9104C10.5438 12.9104 10.5438 12.872 10.5438 12.8048C10.5438 12.4496 10.4574 12.0752 10.2942 11.7488C10.227 11.6144 10.2174 11.5856 10.227 11.5664C10.2846 11.5184 11.1294 11.0288 11.6766 10.7408C12.0318 10.5488 12.5982 10.2608 12.6078 10.2704ZM8.91178 11.1728C8.92138 11.1728 8.98858 11.2112 9.06538 11.2496C9.24778 11.3552 9.42058 11.4704 9.56458 11.5856C9.57418 11.5952 9.49738 11.6528 9.39178 11.7296C9.11338 11.9312 8.69098 12.248 8.45098 12.44C8.19178 12.6416 8.18218 12.6512 8.21098 12.6032C8.40298 12.3056 8.49898 12.1424 8.60458 11.9312C8.69098 11.7392 8.78698 11.5184 8.85418 11.3168C8.87338 11.24 8.90218 11.1728 8.91178 11.1728ZM9.90058 11.9504C9.91978 11.9504 9.92938 11.9696 10.0158 12.0944C10.179 12.344 10.3134 12.68 10.3422 12.9488L10.3518 13.0064L9.94858 13.16C9.22858 13.4384 8.56618 13.7168 8.12458 13.9184C7.99978 13.976 7.77898 14.0816 7.63498 14.1488C7.49098 14.2256 7.37578 14.2736 7.37578 14.2736C7.37578 14.2736 7.46218 14.2064 7.57738 14.12C8.45098 13.4864 9.20938 12.7856 9.77578 12.0944C9.83338 12.0176 9.89098 11.9504 9.90058 11.9504ZM9.44938 12.056C9.45898 12.0656 9.12298 12.4496 8.90218 12.68C8.33578 13.256 7.77898 13.7072 7.08778 14.1488C7.00138 14.2064 6.92458 14.2544 6.91498 14.264C6.89578 14.2736 6.92458 14.2448 7.22218 13.9184C7.41418 13.7072 7.55818 13.5344 7.73098 13.3232C7.84618 13.1792 7.86538 13.16 8.01898 13.0448C8.44138 12.7184 9.43018 12.0464 9.44938 12.056Z" fill="url(#paint2_radial_9168_50830)"/>
<defs>
<linearGradient id="paint0_linear_9168_50830" x1="6.00129" y1="20.2475" x2="7.4004" y2="19.4207" gradientUnits="userSpaceOnUse">
<stop stop-color="#909CA9"/>
<stop offset="1" stop-color="#EDEDEE"/>
</linearGradient>
<linearGradient id="paint1_linear_9168_50830" x1="6.03306" y1="4.66521" x2="7.15959" y2="4.66521" gradientUnits="userSpaceOnUse">
<stop stop-color="#939FAB"/>
<stop offset="1" stop-color="#DCDEE1"/>
</linearGradient>
<radialGradient id="paint2_radial_9168_50830" cx="0" cy="0" r="1" gradientUnits="userSpaceOnUse" gradientTransform="translate(11.7142 9.82243) rotate(-171.457) scale(1.45142 2.90355)">
<stop stop-color="#EE352C"/>
<stop offset="1" stop-color="#A91D22"/>
</radialGradient>
</defs>
</svg>
