<svg width="24" height="24" viewBox="0 0 24 24" fill="none" xmlns="http://www.w3.org/2000/svg">
<rect width="24" height="24" rx="12" fill="#FFF6CD"/>
<g clip-path="url(#clip0_9168_50848)">
<mask id="mask0_9168_50848" style="mask-type:luminance" maskUnits="userSpaceOnUse" x="4" y="4" width="16" height="16">
<path d="M19.5763 4H4.42334V19.9529H19.5763V4Z" fill="white"/>
</mask>
<g mask="url(#mask0_9168_50848)">
<path d="M9.22354 16.8471C9.22354 17.3647 8.80001 17.8353 8.23531 17.8353C7.6706 17.8353 7.24707 17.4118 7.24707 16.8471V12.6118C7.24707 12.0941 7.6706 11.6235 8.23531 11.6235C8.80001 11.6235 9.22354 12.0471 9.22354 12.6118V16.8471Z" fill="#231F20"/>
</g>
<mask id="mask1_9168_50848" style="mask-type:luminance" maskUnits="userSpaceOnUse" x="4" y="4" width="16" height="16">
<path d="M19.5763 4H4.42334V19.9529H19.5763V4Z" fill="white"/>
</mask>
<g mask="url(#mask1_9168_50848)">
<path d="M12.0471 17.9765C12.0471 18.4941 11.6236 18.9647 11.0589 18.9647C10.4941 18.9647 10.1177 18.5412 10.1177 17.9765V11.5294C10.1177 11.0118 10.5412 10.5412 11.1059 10.5412C11.6706 10.5412 12.0941 10.9647 12.0941 11.5294V17.9765H12.0471Z" fill="#231F20"/>
</g>
<mask id="mask2_9168_50848" style="mask-type:luminance" maskUnits="userSpaceOnUse" x="4" y="4" width="16" height="16">
<path d="M19.5763 4H4.42334V19.9529H19.5763V4Z" fill="white"/>
</mask>
<g mask="url(#mask2_9168_50848)">
<path d="M6.35294 15.9059C6.35294 16.4235 5.92941 16.8941 5.3647 16.8941C4.79999 16.8941 4.37646 16.4706 4.37646 15.9059V13.6C4.37646 13.0823 4.79999 12.6118 5.3647 12.6118C5.92941 12.6118 6.35294 13.0823 6.35294 13.6V15.9059Z" fill="#231F20"/>
</g>
<mask id="mask3_9168_50848" style="mask-type:luminance" maskUnits="userSpaceOnUse" x="4" y="4" width="16" height="16">
<path d="M19.5763 4H4.42334V19.9529H19.5763V4Z" fill="white"/>
</mask>
<g mask="url(#mask3_9168_50848)">
<path d="M14.8703 19.0117C14.8703 19.5294 14.4468 20 13.8821 20C13.3644 20 12.9409 19.5294 12.9409 19.0117V10.447C12.9409 9.92939 13.3644 9.4588 13.9292 9.4588C14.4468 9.4588 14.9174 9.88233 14.9174 10.447V19.0117H14.8703Z" fill="#231F20"/>
</g>
<mask id="mask4_9168_50848" style="mask-type:luminance" maskUnits="userSpaceOnUse" x="4" y="4" width="16" height="16">
<path d="M19.5763 4H4.42334V19.9529H19.5763V4Z" fill="white"/>
</mask>
<g mask="url(#mask4_9168_50848)">
<path d="M17.9764 18.5883C17.7882 18.5883 17.647 18.5412 17.4587 18.4941L16.2823 18.1177C16.094 18.0706 15.9529 17.8353 16.047 17.6471C16.094 17.4588 16.3293 17.3177 16.5176 17.4118L17.7411 17.7883C17.9764 17.8824 18.2587 17.8353 18.494 17.6471C18.7293 17.5059 18.8235 17.2236 18.8235 16.9883V9.12944C18.8235 8.75297 18.5882 8.42355 18.2587 8.32944L6.72934 4.84708C6.49404 4.75297 6.21169 4.80002 5.9764 4.9412C5.78816 5.12944 5.64698 5.36473 5.64698 5.64708V11.0588C5.64698 11.2941 5.45875 11.4353 5.27051 11.4353C5.03522 11.4353 4.89404 11.2471 4.89404 11.0588V5.64708C4.89404 5.12944 5.12934 4.65885 5.55287 4.37649C5.9764 4.04708 6.49404 4.00002 6.96463 4.1412L18.447 7.62355C19.1058 7.81179 19.5764 8.47061 19.5764 9.1765V17.0353C19.5764 17.553 19.3411 18.0236 18.9176 18.353C18.6352 18.4471 18.3058 18.5883 17.9764 18.5883Z" fill="#231F20"/>
</g>
</g>
<defs>
<clipPath id="clip0_9168_50848">
<rect width="16" height="16" fill="white" transform="translate(4 4)"/>
</clipPath>
</defs>
</svg>
