<svg width="24" height="24" viewBox="0 0 24 24" fill="none" xmlns="http://www.w3.org/2000/svg">
<g clip-path="url(#clip0_8823_45370)">
<rect width="24" height="24" rx="12" fill="#CDE7FF"/>
<g clip-path="url(#clip1_8823_45370)">
<path d="M24 0H0V24H24V0Z" fill="#512BD4"/>
<path d="M4.27741 15.3333C4.10772 15.3333 3.96348 15.2768 3.84469 15.1637C3.7259 15.0477 3.6665 14.9099 3.6665 14.7505C3.6665 14.588 3.7259 14.4489 3.84469 14.3329C3.96348 14.2169 4.10772 14.1589 4.27741 14.1589C4.44994 14.1589 4.5956 14.2169 4.71439 14.3329C4.836 14.4489 4.89681 14.588 4.89681 14.7505C4.89681 14.9099 4.836 15.0477 4.71439 15.1637C4.5956 15.2768 4.44994 15.3333 4.27741 15.3333Z" fill="white"/>
<path d="M11.0612 15.2376H9.95813L7.05208 10.6529C6.97855 10.5369 6.91771 10.4166 6.86966 10.2919H6.84419C6.86682 10.4253 6.87813 10.7109 6.87813 11.1488V15.2376H5.90234V9H7.0775L9.88603 13.4759C10.0048 13.6616 10.0812 13.7892 10.1151 13.8587H10.1321C10.1038 13.6935 10.0897 13.4136 10.0897 13.0192V9H11.0612V15.2376Z" fill="white"/>
<path d="M15.8131 15.2376H12.3979V9H15.6774V9.87868H13.4077V11.6447H15.4992V12.519H13.4077V14.3633H15.8131V15.2376Z" fill="white"/>
<path d="M20.6668 9.87868H18.9189V15.2376H17.9092V9.87868H16.1655V9H20.6668V9.87868Z" fill="white"/>
</g>
</g>
<defs>
<clipPath id="clip0_8823_45370">
<rect width="24" height="24" rx="12" fill="white"/>
</clipPath>
<clipPath id="clip1_8823_45370">
<rect width="24" height="24" fill="white"/>
</clipPath>
</defs>
</svg>
