<svg width="24" height="24" viewBox="0 0 24 24" fill="none" xmlns="http://www.w3.org/2000/svg">
<rect width="24" height="24" rx="12" fill="#F6CDFF"/>
<path fill-rule="evenodd" clip-rule="evenodd" d="M6.48877 4.00001C6.48877 3.08874 7.2275 2.35001 8.13877 2.35001H16.1388C17.05 2.35001 17.7888 3.08874 17.7888 4.00001V19C17.7888 19.9113 17.05 20.65 16.1388 20.65H8.13877C7.2275 20.65 6.48877 19.9113 6.48877 19V4.00001ZM8.13877 3.65001C7.94547 3.65001 7.78877 3.80671 7.78877 4.00001V19C7.78877 19.1933 7.94547 19.35 8.13877 19.35H16.1388C16.3321 19.35 16.4888 19.1933 16.4888 19V4.00001C16.4888 3.80671 16.3321 3.65001 16.1388 3.65001H8.13877ZM9.62744 18.1111C9.62744 17.7521 9.91846 17.4611 10.2774 17.4611H14.2774C14.6364 17.4611 14.9274 17.7521 14.9274 18.1111C14.9274 18.4701 14.6364 18.7611 14.2774 18.7611H10.2774C9.91846 18.7611 9.62744 18.4701 9.62744 18.1111Z" fill="#4B005C"/>
</svg>
