<svg width="24" height="24" viewBox="0 0 24 24" fill="none" xmlns="http://www.w3.org/2000/svg">
<rect width="24" height="24" rx="12" fill="#D5CDFF"/>
<g clip-path="url(#clip0_9168_50846)">
<path d="M17.8333 8.57143C16.3889 8.57143 15.1111 9.27857 14.3611 10.3262L11.3056 14.6738C10.5556 15.7214 9.27778 16.4286 7.83333 16.4286C5.52778 16.4286 3.66667 14.6738 3.66667 12.5C3.66667 10.3262 5.52778 8.57143 7.83333 8.57143C9.27778 8.57143 10.5278 9.25238 11.2778 10.3L11.8333 11.0857L12.8333 9.67143L12.6944 9.4619C11.6389 7.96905 9.86111 7 7.83333 7C4.61111 7 2 9.4619 2 12.5C2 15.5381 4.61111 18 7.83333 18C9.86111 18 11.6667 17.031 12.6944 15.5381L13.8333 13.9143L14.3611 14.6738C15.1111 15.7214 16.3889 16.4286 17.8333 16.4286C20.1389 16.4286 22 14.6738 22 12.5C22 10.3262 20.1389 8.57143 17.8333 8.57143ZM17.8333 14.8571C16.9722 14.8571 16.1944 14.4381 15.75 13.7833L14.8333 12.5L15.75 11.1905C16.1944 10.5619 16.9722 10.1429 17.8333 10.1429C19.2222 10.1429 20.3333 11.1905 20.3333 12.5C20.3333 13.8095 19.2222 14.8571 17.8333 14.8571Z" fill="#6428B4"/>
</g>
<defs>
<clipPath id="clip0_9168_50846">
<rect width="20" height="11" fill="white" transform="translate(2 7)"/>
</clipPath>
</defs>
</svg>
