<svg width="24" height="24" viewBox="0 0 24 24" fill="none" xmlns="http://www.w3.org/2000/svg">
<rect width="24" height="24" rx="12" fill="#FFD5CD"/>
<path fill-rule="evenodd" clip-rule="evenodd" d="M4.3501 7.00001C4.3501 6.08874 5.08883 5.35001 6.0001 5.35001H18.0001C18.9114 5.35001 19.6501 6.08874 19.6501 7.00001V17C19.6501 17.9113 18.9114 18.65 18.0001 18.65H6.0001C5.08883 18.65 4.3501 17.9113 4.3501 17V7.00001ZM6.0001 6.65001C5.8068 6.65001 5.6501 6.80671 5.6501 7.00001V17C5.6501 17.1933 5.8068 17.35 6.0001 17.35H18.0001C18.1934 17.35 18.3501 17.1933 18.3501 17V7.00001C18.3501 6.80671 18.1934 6.65001 18.0001 6.65001H6.0001Z" fill="#5C0E00"/>
<path fill-rule="evenodd" clip-rule="evenodd" d="M4.3501 9.00001C4.3501 8.64102 4.64111 8.35001 5.0001 8.35001L19.0001 8.35C19.3591 8.35 19.6501 8.64102 19.6501 9C19.6501 9.35899 19.3591 9.65 19.0001 9.65L5.0001 9.65001C4.64111 9.65001 4.3501 9.35899 4.3501 9.00001Z" fill="#5C0E00"/>
<path fill-rule="evenodd" clip-rule="evenodd" d="M10.5201 11.61C10.7355 11.8972 10.6773 12.3046 10.3901 12.52L9.08343 13.5L10.3901 14.48C10.6773 14.6954 10.7355 15.1028 10.5201 15.39C10.3047 15.6772 9.89729 15.7354 9.6101 15.52L7.6101 14.02C7.44642 13.8973 7.3501 13.7046 7.3501 13.5C7.3501 13.2954 7.44642 13.1028 7.6101 12.98L9.6101 11.48C9.89729 11.2646 10.3047 11.3228 10.5201 11.61Z" fill="#5C0E00"/>
<path fill-rule="evenodd" clip-rule="evenodd" d="M13.4799 11.61C13.2645 11.8972 13.3227 12.3046 13.6099 12.52L14.9166 13.5L13.6099 14.48C13.3227 14.6954 13.2645 15.1028 13.4799 15.39C13.6953 15.6772 14.1027 15.7354 14.3899 15.52L16.3899 14.02C16.5536 13.8973 16.6499 13.7046 16.6499 13.5C16.6499 13.2954 16.5536 13.1028 16.3899 12.98L14.3899 11.48C14.1027 11.2646 13.6953 11.3228 13.4799 11.61Z" fill="#5C0E00"/>
</svg>
