<svg width="24" height="24" viewBox="0 0 24 24" fill="none" xmlns="http://www.w3.org/2000/svg">
<rect width="24" height="24" rx="12" fill="#D6EBFF"/>
<path d="M14.8538 12.4915V16.1583C14.8539 16.5451 14.736 16.9228 14.5158 17.241C14.2956 17.5591 13.9837 17.8025 13.6216 17.9388L12.3226 18.4278C12.265 18.4495 12.203 18.4569 12.1419 18.4494C12.0808 18.4419 12.0225 18.4197 11.9719 18.3846C11.9213 18.3496 11.8799 18.3028 11.8514 18.2482C11.8229 18.1937 11.808 18.1331 11.8081 18.0715V13.6045L9.26407 14.5338C9.1179 14.5876 8.99178 14.685 8.90273 14.8129C8.81367 14.9407 8.76598 15.0927 8.76607 15.2485V21.238C8.76607 21.7668 9.29107 22.1343 9.78832 21.9528L17.4091 19.168C17.7754 19.0343 18.0918 18.7912 18.3153 18.4716C18.5388 18.1521 18.6587 17.7715 18.6586 17.3815V9.772C18.6583 10.1618 18.5383 10.5421 18.3148 10.8615C18.0914 11.1809 17.7752 11.4239 17.4091 11.5578L14.8538 12.4915ZM14.8538 12.0925V10.9923C14.8538 10.6051 14.7357 10.2271 14.5153 9.90886C14.2948 9.59058 13.9825 9.34713 13.6201 9.211L12.3241 8.7235C12.2665 8.70196 12.2045 8.69467 12.1435 8.70227C12.0825 8.70986 12.0242 8.73211 11.9737 8.76711C11.9231 8.80211 11.8818 8.84883 11.8532 8.90327C11.8246 8.95772 11.8097 9.01827 11.8096 9.07975V12.5223C11.8096 13.048 11.2883 13.4155 10.7933 13.2393L5.84632 11.4723C5.69839 11.4195 5.5704 11.3223 5.4799 11.1939C5.3894 11.0655 5.34082 10.9123 5.34082 10.7553V4.76125C5.34082 4.2355 5.86207 3.868 6.35782 4.045L17.3963 7.987C17.706 8.09767 17.9818 8.2867 18.1967 8.53564C18.4116 8.78459 18.5583 9.08497 18.6226 9.4075C18.5206 10.0533 17.8351 11.0035 17.2801 11.206L14.8538 12.0925Z" fill="#0B53CE"/>
</svg>
