<svg width="24" height="24" viewBox="0 0 24 24" fill="none" xmlns="http://www.w3.org/2000/svg">
<rect width="24" height="24" rx="12" fill="#FFF6CD"/>
<g clip-path="url(#clip0_8823_45407)">
<path d="M7.68431 10.878C7.68431 11.122 7.71063 11.3198 7.75668 11.4648C7.80931 11.6099 7.8751 11.7681 7.96721 11.9396C8.0001 11.9923 8.01326 12.0451 8.01326 12.0912C8.01326 12.1571 7.97379 12.2231 7.88826 12.289L7.47379 12.5659C7.41458 12.6055 7.35537 12.6253 7.30273 12.6253C7.23694 12.6253 7.17115 12.5923 7.10537 12.533C7.01326 12.4341 6.93431 12.3286 6.86852 12.2231C6.80273 12.111 6.73694 11.9857 6.66458 11.8341C6.15142 12.4407 5.50668 12.744 4.73037 12.744C4.17773 12.744 3.73694 12.5857 3.41458 12.2692C3.09221 11.9527 2.92773 11.5308 2.92773 11.0033C2.92773 10.4429 3.1251 9.98791 3.52642 9.64505C3.92773 9.3022 4.46063 9.13077 5.13826 9.13077C5.36194 9.13077 5.59221 9.15055 5.83563 9.18351C6.07905 9.21648 6.32905 9.26923 6.59221 9.32857V8.84725C6.59221 8.34615 6.48694 7.9967 6.283 7.79231C6.07247 7.58791 5.71721 7.48901 5.21063 7.48901C4.98037 7.48901 4.74352 7.51538 4.5001 7.57472C4.25668 7.63406 4.01984 7.70659 3.78958 7.7989C3.68431 7.84505 3.60537 7.87143 3.55931 7.88461C3.51326 7.8978 3.48037 7.90439 3.45405 7.90439C3.36194 7.90439 3.31589 7.83846 3.31589 7.7V7.37692C3.31589 7.27143 3.32905 7.19231 3.36194 7.14615C3.39484 7.1 3.45405 7.05384 3.54616 7.00769C3.77642 6.88901 4.05273 6.79011 4.3751 6.71099C4.69747 6.62527 5.03958 6.58571 5.40142 6.58571C6.18431 6.58571 6.75668 6.76373 7.1251 7.11978C7.48694 7.47582 7.67115 8.01648 7.67115 8.74176V10.878H7.68431ZM5.01326 11.8802C5.23037 11.8802 5.45405 11.8407 5.69089 11.7615C5.92773 11.6824 6.13826 11.5374 6.31589 11.3396C6.42116 11.2143 6.5001 11.0758 6.53958 10.9176C6.57905 10.7593 6.60537 10.5681 6.60537 10.344V10.067C6.41458 10.0209 6.21063 9.98132 6.0001 9.95494C5.78958 9.92857 5.58563 9.91538 5.38168 9.91538C4.94089 9.91538 4.61852 10.0011 4.40142 10.1791C4.18431 10.3571 4.07905 10.6077 4.07905 10.9374C4.07905 11.2473 4.158 11.478 4.32247 11.6363C4.48037 11.8011 4.71063 11.8802 5.01326 11.8802ZM10.2962 12.5923C10.1777 12.5923 10.0988 12.5725 10.0462 12.5264C9.99352 12.4868 9.94747 12.3945 9.908 12.2692L8.36194 7.17252C8.32247 7.04066 8.30273 6.95494 8.30273 6.90879C8.30273 6.80329 8.35537 6.74395 8.46063 6.74395H9.10537C9.23037 6.74395 9.31589 6.76373 9.36194 6.80989C9.41458 6.84945 9.45405 6.94176 9.49352 7.06703L10.5988 11.4319L11.6251 7.06703C11.658 6.93516 11.6975 6.84945 11.7501 6.80989C11.8027 6.77033 11.8948 6.74395 12.0133 6.74395H12.5396C12.6646 6.74395 12.7501 6.76373 12.8027 6.80989C12.8554 6.84945 12.9014 6.94176 12.9277 7.06703L13.9672 11.4846L15.1054 7.06703C15.1448 6.93516 15.1909 6.84945 15.2369 6.80989C15.2896 6.77033 15.3751 6.74395 15.4935 6.74395H16.1054C16.2106 6.74395 16.2698 6.7967 16.2698 6.90879C16.2698 6.94176 16.2633 6.97472 16.2567 7.01428C16.2501 7.05384 16.2369 7.10659 16.2106 7.17912L14.6251 12.2758C14.5856 12.4077 14.5396 12.4934 14.4869 12.533C14.4343 12.5725 14.3488 12.5989 14.2369 12.5989H13.6712C13.5462 12.5989 13.4606 12.5791 13.408 12.533C13.3554 12.4868 13.3093 12.4011 13.283 12.2692L12.2633 8.01648L11.2501 12.2626C11.2172 12.3945 11.1777 12.4802 11.1251 12.5264C11.0725 12.5725 10.9804 12.5923 10.8619 12.5923H10.2962ZM18.7501 12.7703C18.408 12.7703 18.0659 12.7308 17.7369 12.6516C17.408 12.5725 17.1514 12.4868 16.9804 12.3879C16.8751 12.3286 16.8027 12.2626 16.7764 12.2033C16.7501 12.144 16.7369 12.078 16.7369 12.0187V11.6824C16.7369 11.544 16.7896 11.478 16.8883 11.478C16.9277 11.478 16.9672 11.4846 17.0067 11.4978C17.0462 11.511 17.1054 11.5374 17.1712 11.5637C17.3948 11.6626 17.6383 11.7418 17.8948 11.7945C18.158 11.8473 18.4146 11.8736 18.6777 11.8736C19.0922 11.8736 19.4146 11.8011 19.6383 11.656C19.8619 11.511 19.9804 11.3 19.9804 11.0297C19.9804 10.8451 19.9212 10.6934 19.8027 10.5681C19.6843 10.4429 19.4606 10.3308 19.1383 10.2253L18.1843 9.92857C17.704 9.77692 17.3488 9.55274 17.1317 9.25604C16.9146 8.96593 16.8027 8.64285 16.8027 8.3C16.8027 8.02307 16.8619 7.77912 16.9804 7.56813C17.0988 7.35714 17.2567 7.17252 17.454 7.02747C17.6514 6.87582 17.8751 6.76373 18.1383 6.68461C18.4014 6.60549 18.6777 6.57253 18.9672 6.57253C19.1119 6.57253 19.2633 6.57912 19.408 6.5989C19.5593 6.61868 19.6975 6.64505 19.8356 6.67143C19.9672 6.70439 20.0922 6.73736 20.2106 6.77692C20.329 6.81648 20.4212 6.85604 20.4869 6.8956C20.579 6.94835 20.6448 7.0011 20.6843 7.06044C20.7238 7.11318 20.7435 7.18571 20.7435 7.27802V7.58791C20.7435 7.72637 20.6909 7.7989 20.5922 7.7989C20.5396 7.7989 20.454 7.77252 20.3422 7.71978C19.9672 7.54835 19.5462 7.46263 19.079 7.46263C18.704 7.46263 18.408 7.52198 18.204 7.64725C18.0001 7.77252 17.8948 7.96373 17.8948 8.23406C17.8948 8.41868 17.9606 8.57692 18.0922 8.7022C18.2238 8.82747 18.4672 8.95274 18.8159 9.06483L19.7501 9.36154C20.2238 9.51318 20.5659 9.72417 20.7698 9.9945C20.9738 10.2648 21.0725 10.5747 21.0725 10.9176C21.0725 11.2011 21.0133 11.4582 20.9014 11.6824C20.783 11.9066 20.6251 12.1044 20.4212 12.2626C20.2172 12.4275 19.9738 12.5462 19.6909 12.6319C19.3948 12.7242 19.0856 12.7703 18.7501 12.7703Z" fill="#252F3E"/>
<path fill-rule="evenodd" clip-rule="evenodd" d="M19.9935 15.9747C17.8291 17.5769 14.6843 18.4275 11.9804 18.4275C8.19092 18.4275 4.77644 17.0231 2.1975 14.689C1.99355 14.5044 2.17776 14.2539 2.42118 14.3989C5.21065 16.0209 8.65144 17.0033 12.2107 17.0033C14.612 17.0033 17.2501 16.5022 19.6778 15.4736C20.0396 15.3088 20.3488 15.711 19.9935 15.9747Z" fill="#FF9900"/>
<path fill-rule="evenodd" clip-rule="evenodd" d="M20.895 14.9462C20.6187 14.5901 19.0661 14.7747 18.3621 14.8604C18.1516 14.8868 18.1187 14.7022 18.3095 14.5637C19.5463 13.6934 21.5792 13.944 21.8161 14.2341C22.0529 14.5308 21.7503 16.5681 20.5924 17.544C20.4147 17.6956 20.2437 17.6165 20.3226 17.4187C20.5858 16.7659 21.1713 15.2956 20.895 14.9462Z" fill="#FF9900"/>
</g>
<defs>
<clipPath id="clip0_8823_45407">
<rect width="20" height="12" fill="white" transform="translate(2 6.5)"/>
</clipPath>
</defs>
</svg>
