<svg width="24" height="24" viewBox="0 0 24 24" fill="none" xmlns="http://www.w3.org/2000/svg">
<rect width="24" height="24" rx="12" fill="#D6EBFF"/>
<g clip-path="url(#clip0_8823_45402)">
<path d="M20.771 17C20.9122 16.7584 21 16.4863 21 16.2418V7.7581C21 7.51369 20.9124 7.24159 20.7711 7.00003L12 12L20.771 17Z" fill="#00599C"/>
<path d="M12.7794 21.8166L20.2206 17.5748C20.4349 17.4526 20.6298 17.2416 20.771 17L12 12L3.229 17C3.37024 17.2416 3.56512 17.4526 3.77942 17.5748L11.2206 21.8166C11.6492 22.061 12.3508 22.061 12.7794 21.8166Z" fill="#004482"/>
<path d="M20.7711 6.99997C20.6298 6.75836 20.4349 6.54735 20.2206 6.42515L12.7794 2.1833C12.3508 1.9389 11.6492 1.9389 11.2206 2.1833L3.77941 6.42515C3.35071 6.66949 3 7.26935 3 7.75809V16.2418C3 16.4862 3.08771 16.7584 3.229 17L12 12L20.7711 6.99997Z" fill="#659AD2"/>
<path d="M12 17.9242C8.69159 17.9242 6 15.2666 6 12C6 8.73339 8.69159 6.07581 12 6.07581C14.1348 6.07581 16.1258 7.21012 17.1959 9.03605L14.5993 10.5197C14.0637 9.6057 13.0676 9.03791 12 9.03791C10.3458 9.03791 9 10.3667 9 12C9 13.6333 10.3458 14.9621 12 14.9621C13.0678 14.9621 14.0638 14.3943 14.5995 13.4802L17.1961 14.9637C16.126 16.7898 14.1349 17.9242 12 17.9242Z" fill="white"/>
<path d="M18 11.6709H17.3333V11.0126H16.6667V11.6709H16V12.3291H16.6667V12.9874H17.3333V12.3291H18V11.6709Z" fill="white"/>
<path d="M20.5 11.6709H19.8333V11.0126H19.1667V11.6709H18.5V12.3291H19.1667V12.9874H19.8333V12.3291H20.5V11.6709Z" fill="white"/>
</g>
<defs>
<clipPath id="clip0_8823_45402">
<rect width="18" height="20" fill="white" transform="translate(3 2)"/>
</clipPath>
</defs>
</svg>
