<svg width="24" height="24" viewBox="0 0 24 24" fill="none" xmlns="http://www.w3.org/2000/svg">
<rect width="24" height="24" rx="12" fill="#D6EBFF"/>
<g clip-path="url(#clip0_9168_50862)">
<path d="M22 7H2V16.8901H12.1099" fill="url(#paint0_linear_9168_50862)"/>
<path d="M11.89 8.978V13.6373L10.1758 8.978H8.46147L7.01092 12.8461C6.8351 11.8791 5.82411 11.5274 5.0329 11.2637C4.50543 11.0879 3.934 10.8681 3.934 10.5604C3.934 10.3406 4.24169 10.1209 4.81312 10.1648C5.20873 10.2088 5.56038 10.2088 6.26367 10.5604L6.96697 9.3736C6.30763 9.02195 5.42851 8.84613 4.72521 8.84613C3.89005 8.84613 3.18675 9.10987 2.74719 9.54943C2.4395 9.85712 2.30763 10.2527 2.26367 10.6923C2.26367 11.3077 2.48345 11.7472 2.96697 12.0989C3.36257 12.3626 3.84609 12.5384 4.28565 12.6703C4.85708 12.8461 5.29664 13.022 5.29664 13.3296C5.25268 13.7253 4.81312 13.8132 4.50543 13.8132C3.97796 13.8571 3.5384 13.7692 2.87906 13.3736L2.26367 14.5604C2.92301 14.956 3.62631 15.1318 4.46147 15.1318C5.0329 15.1318 5.91202 14.956 6.39554 14.5165L6.30763 14.9121H7.97796L8.28565 14.1648C8.94499 14.3406 9.69224 14.3846 10.3516 14.1648L10.5714 14.9121H13.5604V13.1538H14.1758C15.7142 13.1538 16.6373 12.4066 16.6373 11.0879C16.6373 9.59338 15.7582 8.978 13.8681 8.978H11.89ZM8.68125 12.8461L9.29664 10.8681H9.3406L9.95598 12.8461C9.51642 12.978 9.07686 12.978 8.68125 12.8461ZM13.5604 11.8351V10.2527H13.9999C14.5714 10.2527 15.0109 10.4285 15.0109 11C15.0109 11.6154 14.5714 11.8351 13.9999 11.8351H13.5604Z" fill="white"/>
</g>
<defs>
<linearGradient id="paint0_linear_9168_50862" x1="2" y1="7" x2="2" y2="16.8901" gradientUnits="userSpaceOnUse">
<stop stop-color="#00AAEE"/>
<stop offset="1" stop-color="#0055AA"/>
</linearGradient>
<clipPath id="clip0_9168_50862">
<rect width="20" height="9.89011" fill="white" transform="translate(2 7)"/>
</clipPath>
</defs>
</svg>
