<svg width="24" height="24" viewBox="0 0 24 24" fill="none" xmlns="http://www.w3.org/2000/svg">
<rect width="24" height="24" rx="12" fill="#D6EBFF"/>
<path fill-rule="evenodd" clip-rule="evenodd" d="M7.77081 3C7.23065 3.00115 6.7019 3.30859 6.42998 3.77759L2.20076 11.144C1.93308 11.6142 1.93308 12.2289 2.20076 12.6992L6.42998 20.0655C6.70192 20.5346 7.23065 20.8421 7.77081 20.8431H16.2292C16.7694 20.842 17.2981 20.5346 17.57 20.0655L21.7992 12.6992C22.0669 12.2289 22.0669 11.6142 21.7992 11.144L17.57 3.77759C17.2981 3.30859 16.7694 3.00106 16.2292 3H7.77081ZM7.84757 7.30942C7.85919 7.30827 7.87137 7.30827 7.88303 7.30942H9.34198C9.40656 7.31076 9.4692 7.34818 9.50145 7.40439L11.9764 11.8266C11.9888 11.8485 11.9969 11.8728 11.9999 11.8978C12.003 11.8728 12.011 11.8485 12.0234 11.8266L14.4924 7.40439C14.5257 7.34648 14.5913 7.30885 14.6578 7.30942H16.1168C16.246 7.31057 16.3427 7.47373 16.2822 7.58841L13.8663 11.9216L16.2822 16.2488C16.3484 16.3641 16.2493 16.5349 16.1168 16.5337H14.6578C14.5901 16.5331 14.5242 16.4929 14.4924 16.4328L12.0234 12.0106C12.011 11.9887 12.003 11.9644 11.9999 11.9394C11.9969 11.9644 11.9888 11.9887 11.9764 12.0106L9.50145 16.4328C9.47067 16.4912 9.40769 16.5311 9.34198 16.5337H7.88303C7.75049 16.5349 7.65139 16.3641 7.71766 16.2488L10.1335 11.9216L7.71766 7.58841C7.65975 7.48378 7.7304 7.33175 7.84757 7.30942Z" fill="#3498DB"/>
</svg>
