<svg width="24" height="24" viewBox="0 0 24 24" fill="none" xmlns="http://www.w3.org/2000/svg">
<rect width="24" height="24" rx="12" fill="#CDFFD5"/>
<path d="M11.1879 2.21337C11.6797 1.92952 12.3203 1.92824 12.8117 2.21337C15.284 3.62189 17.757 5.0282 20.2288 6.43757C20.6937 6.70162 21.0047 7.22331 20.9999 7.76345V16.2376C21.0034 16.8001 20.6617 17.3343 20.1712 17.5924C17.7071 18.9931 15.2443 20.3956 12.7806 21.7963C12.2786 22.0857 11.6251 22.0634 11.1388 21.7503C10.4 21.3185 9.66002 20.8889 8.92121 20.4575C8.77024 20.3667 8.60005 20.2945 8.49345 20.1469C8.58769 20.0188 8.75618 20.0029 8.89309 19.947C9.20146 19.8481 9.48467 19.6894 9.76796 19.5354C9.8396 19.486 9.92706 19.5049 9.99572 19.5491C10.6274 19.9143 11.2536 20.2902 11.8874 20.6519C12.0226 20.7306 12.1595 20.6261 12.2751 20.5611C14.6931 19.1832 17.1142 17.8104 19.5318 16.432C19.6214 16.3886 19.6709 16.2927 19.6636 16.1938C19.6653 13.3983 19.664 10.6024 19.6645 7.80691C19.6747 7.69465 19.6103 7.59143 19.5096 7.54549C17.054 6.15115 14.5998 4.75467 12.1446 3.35997C12.1021 3.33049 12.0517 3.31467 12.0001 3.31459C11.9485 3.31451 11.898 3.33018 11.8554 3.35955C9.40025 4.75467 6.94638 6.15243 4.49124 7.5467C4.39093 7.59271 4.3236 7.69422 4.33554 7.80691C4.33597 10.6024 4.33554 13.3983 4.33554 16.1942C4.33128 16.2425 4.3418 16.2909 4.36567 16.3329C4.38954 16.375 4.42563 16.4087 4.46906 16.4295C5.12423 16.8041 5.78024 17.176 6.43583 17.5493C6.80516 17.7498 7.25864 17.8689 7.66555 17.7153C8.02464 17.5855 8.27635 17.216 8.2695 16.8315C8.27289 14.0524 8.26781 11.2728 8.27205 8.49414C8.26307 8.37077 8.37914 8.26884 8.49811 8.28045C8.81291 8.27831 9.12813 8.27617 9.44292 8.2813C9.57432 8.27831 9.66475 8.41116 9.6485 8.53545C9.64723 11.3322 9.65189 14.129 9.64638 16.9257C9.64723 17.6711 9.34352 18.4821 8.65975 18.8468C7.81737 19.2868 6.7762 19.1935 5.944 18.7716C5.22355 18.409 4.53603 17.9811 3.82838 17.5927C3.33662 17.3361 2.9966 16.7998 3.00006 16.2377V7.76345C2.9949 7.21213 3.31825 6.68096 3.79765 6.42076C6.26134 5.01886 8.7246 3.6159 11.1879 2.21337Z" fill="#8CC84B"/>
<path d="M13.337 8.08347C14.4115 8.01373 15.5619 8.04216 16.5288 8.57589C17.2774 8.98489 17.6924 9.8433 17.7057 10.6819C17.6847 10.795 17.5675 10.8574 17.4604 10.8496C17.1486 10.8492 16.8368 10.8539 16.525 10.8475C16.3928 10.8526 16.3159 10.7297 16.2993 10.6118C16.2097 10.2106 15.9927 9.81316 15.6182 9.61963C15.0432 9.32937 14.3765 9.34397 13.7495 9.35002C13.2918 9.37453 12.7996 9.41449 12.4118 9.68588C12.1141 9.89145 12.0237 10.3064 12.13 10.6407C12.2301 10.8806 12.5049 10.9581 12.7297 11.0294C14.0246 11.3709 15.3968 11.3369 16.667 11.7863C17.1929 11.9695 17.7074 12.3257 17.8874 12.8809C18.1228 13.6249 18.0196 14.5143 17.4946 15.1117C17.0688 15.6032 16.4487 15.8708 15.8302 16.0161C15.0074 16.2011 14.1535 16.2058 13.3179 16.1236C12.5322 16.0333 11.7145 15.8252 11.1079 15.2854C10.5893 14.8313 10.3359 14.1238 10.3611 13.4409C10.3671 13.3256 10.481 13.2451 10.5905 13.2546C10.9045 13.252 11.2184 13.2512 11.5324 13.255C11.6578 13.246 11.7507 13.3553 11.7572 13.4744C11.8151 13.8567 11.9576 14.258 12.2882 14.4846C12.9263 14.8997 13.7269 14.8713 14.4575 14.8829C15.0628 14.8558 15.7423 14.8476 16.2362 14.4442C16.4968 14.2142 16.5741 13.8292 16.5036 13.4981C16.4273 13.2185 16.1373 13.0882 15.8882 13.003C14.6098 12.5953 13.2223 12.7432 11.9563 12.2822C11.4424 12.099 10.9454 11.7528 10.7479 11.2204C10.4724 10.4669 10.5987 9.53494 11.1787 8.95775C11.7443 8.38364 12.5608 8.16254 13.337 8.0834V8.08347Z" fill="#8CC84B"/>
</svg>
