<svg width="24" height="24" viewBox="0 0 24 24" fill="none" xmlns="http://www.w3.org/2000/svg">
<rect width="24" height="24" rx="12" fill="#D6EBFF"/>
<path fill-rule="evenodd" clip-rule="evenodd" d="M6.98073 9.25638C7.96222 7.52035 9.84439 6.35001 12.0001 6.35001C14.6973 6.35001 16.9713 8.18364 17.581 10.6688C19.3067 10.9035 20.6501 12.3604 20.6501 14.1428C20.6501 16.0908 19.0455 17.65 17.091 17.65L7.63646 17.65C5.28022 17.65 3.3501 15.7708 3.3501 13.4284C3.3501 11.3077 4.93284 9.56674 6.98073 9.25638ZM12.0001 7.65001C10.2205 7.65001 8.69047 8.67424 7.98133 10.1469C7.87951 10.3583 7.6716 10.4985 7.43739 10.5135C5.87116 10.6142 4.6501 11.8907 4.6501 13.4284C4.6501 15.0309 5.97608 16.35 7.63646 16.35L17.091 16.35C18.3498 16.35 19.3501 15.3508 19.3501 14.1428C19.3501 12.9349 18.3498 11.9357 17.091 11.9357C17.0777 11.9357 17.0646 11.9358 17.0509 11.936C16.724 11.9416 16.4438 11.7034 16.3966 11.3798C16.0911 9.28012 14.2464 7.65001 12.0001 7.65001Z" fill="#002F5C"/>
</svg>
