<svg width="24" height="24" viewBox="0 0 24 24" fill="none" xmlns="http://www.w3.org/2000/svg">
<rect width="24" height="24" rx="12" fill="#D5CDFF"/>
<g clip-path="url(#clip0_9167_50388)">
<path d="M19.3636 20.5685H16.4489L16.6534 18.114H15.2216L15.017 20.5685H8.98295L8.77841 18.114H7.34659L7.55114 20.5685H4.63636L3 9.93217L7.09091 3.38672H16.9091L21 9.93217L19.3636 20.5685ZM16.0909 6.65945H13.461L13.6364 7.88672H10.3636L10.539 6.65945H7.90909L6.27273 9.93217L7.09091 16.4776H16.9091L17.7273 9.93217L16.0909 6.65945ZM14.6591 14.3054C14.4332 14.3054 14.25 13.624 14.25 12.7835C14.25 11.9431 14.4332 11.2617 14.6591 11.2617C14.885 11.2617 15.0682 11.9431 15.0682 12.7835C15.0682 13.624 14.885 14.3054 14.6591 14.3054ZM9.49432 14.4322C9.2684 14.4322 9.08523 13.7508 9.08523 12.9104C9.08523 12.0699 9.2684 11.3885 9.49432 11.3885C9.72024 11.3885 9.90341 12.0699 9.90341 12.9104C9.90341 13.7508 9.72024 14.4322 9.49432 14.4322Z" fill="#0E005C"/>
</g>
<defs>
<clipPath id="clip0_9167_50388">
<rect width="18" height="18" fill="white" transform="translate(3 3)"/>
</clipPath>
</defs>
</svg>
