<svg width="24" height="24" viewBox="0 0 24 24" fill="none" xmlns="http://www.w3.org/2000/svg">
<rect width="24" height="24" rx="12" fill="#D5CDFF"/>
<path fill-rule="evenodd" clip-rule="evenodd" d="M3.8501 5.50001C3.8501 4.58874 4.58883 3.85001 5.5001 3.85001H18.5001C19.4114 3.85001 20.1501 4.58874 20.1501 5.50001V18.5C20.1501 19.4113 19.4114 20.15 18.5001 20.15H5.5001C4.58883 20.15 3.8501 19.4113 3.8501 18.5V5.50001ZM5.5001 5.15001C5.3068 5.15001 5.1501 5.30671 5.1501 5.50001V18.5C5.1501 18.6933 5.3068 18.85 5.5001 18.85H18.5001C18.6934 18.85 18.8501 18.6933 18.8501 18.5V5.50001C18.8501 5.30671 18.6934 5.15001 18.5001 5.15001H5.5001Z" fill="#0E005C"/>
<path fill-rule="evenodd" clip-rule="evenodd" d="M9.56969 8.88846C9.81589 8.88846 10.041 9.02756 10.1511 9.24777L12.6126 14.1708C12.7731 14.4919 12.643 14.8824 12.3219 15.0429C12.0008 15.2035 11.6104 15.0733 11.4498 14.7522L9.56969 10.9919L7.68953 14.7522C7.52898 15.0733 7.13855 15.2035 6.81746 15.0429C6.49638 14.8824 6.36623 14.4919 6.52677 14.1708L8.98831 9.24777C9.09842 9.02756 9.32349 8.88846 9.56969 8.88846Z" fill="#0E005C"/>
<path fill-rule="evenodd" clip-rule="evenodd" d="M11.4159 13.8462H7.72363V12.5462H11.4159V13.8462Z" fill="#0E005C"/>
<path fill-rule="evenodd" clip-rule="evenodd" d="M15.7582 8.92308C16.1172 8.92308 16.4082 9.2141 16.4082 9.57308L16.4082 14.4269C16.4082 14.7859 16.1172 15.0769 15.7582 15.0769C15.3992 15.0769 15.1082 14.7859 15.1082 14.4269L15.1082 9.57308C15.1082 9.2141 15.3992 8.92308 15.7582 8.92308Z" fill="#0E005C"/>
</svg>
