<svg width="24" height="24" viewBox="0 0 24 24" fill="none" xmlns="http://www.w3.org/2000/svg">
<rect width="24" height="24" rx="12" fill="#D6EBFF"/>
<g clip-path="url(#clip0_9168_50793)">
<path d="M3.8749 15.8787H5.21074V10.1921H3.8749V15.8787ZM4.54014 9.44631C4.9586 9.44631 5.28585 9.12442 5.28585 8.72207C5.28585 8.31434 4.9586 7.99246 4.54014 7.99246C4.12706 7.99246 3.7998 8.31436 3.7998 8.72207C3.7998 9.12443 4.12706 9.44631 4.54014 9.44631ZM9.65834 8.00852C7.39981 8.00852 5.98343 9.54822 5.98343 12.0107C5.98343 14.4732 7.39967 16.0075 9.65834 16.0075C11.9115 16.0075 13.3279 14.4732 13.3279 12.0107C13.3279 9.54822 11.9117 8.00852 9.65834 8.00852ZM9.65834 9.18878C11.0371 9.18878 11.9169 10.2832 11.9169 12.0107C11.9169 13.7328 11.0371 14.8272 9.65834 14.8272C8.27424 14.8272 7.39981 13.7328 7.39981 12.0107C7.39981 10.2832 8.27427 9.18878 9.65834 9.18878ZM13.8914 13.7006C13.9504 15.1277 15.1199 16.0075 16.901 16.0075C18.7734 16.0075 19.9536 15.0847 19.9536 13.6148C19.9536 12.4614 19.2884 11.8122 17.7165 11.4528L16.826 11.2489C15.8764 11.0236 15.4848 10.7232 15.4848 10.2082C15.4848 9.5644 16.0749 9.13522 16.9494 9.13522C17.8346 9.13522 18.4407 9.56977 18.5051 10.294H19.8249C19.7927 8.93135 18.6661 8.00856 16.9601 8.00856C15.2755 8.00856 14.0792 8.93666 14.0792 10.3101C14.0792 11.4152 14.7552 12.1019 16.1821 12.4292L17.1853 12.6653C18.1617 12.896 18.5587 13.2178 18.5587 13.7758C18.5587 14.4196 17.9096 14.8809 16.9762 14.8809C16.032 14.8809 15.3185 14.4142 15.2326 13.7007L13.8914 13.7006Z" fill="#002F5C"/>
</g>
<defs>
<clipPath id="clip0_9168_50793">
<rect width="17.0008" height="10" fill="white" transform="translate(3.7998 7)"/>
</clipPath>
</defs>
</svg>
