<svg width="24" height="24" viewBox="0 0 24 24" fill="none" xmlns="http://www.w3.org/2000/svg">
<rect width="24" height="24" rx="12" fill="#CDFFF6"/>
<g clip-path="url(#clip0_9168_50864)">
<path fill-rule="evenodd" clip-rule="evenodd" d="M12.0606 3.03497C10.0496 3.03944 8.08588 3.6451 6.42175 4.77413C4.75763 5.90317 3.46911 7.504 2.72174 9.37093C1.97437 11.2379 1.8023 13.2856 2.22764 15.2511C2.65298 17.2166 3.6563 19.01 5.10868 20.4009C5.45187 20.7285 5.90117 20.9223 6.37501 20.9469C6.84885 20.9716 7.31583 20.8255 7.69118 20.5353C8.93162 19.6153 10.4351 19.1186 11.9795 19.1186C13.5238 19.1186 15.0273 19.6153 16.2677 20.5353C16.6465 20.8351 17.1214 20.9868 17.6038 20.9621C18.0863 20.9373 18.5432 20.7379 18.8893 20.4009C20.3345 19.0173 21.3354 17.2351 21.7647 15.281C22.1939 13.3269 22.0322 11.2893 21.3001 9.42734C20.5679 7.56542 19.2984 5.96339 17.6531 4.82508C16.0078 3.68677 14.061 3.06364 12.0606 3.03497ZM12.0043 18.1209C11.3392 18.1425 10.6768 18.0279 10.0576 17.7843C9.43839 17.5407 8.87549 17.1731 8.40342 16.7042C7.93134 16.2352 7.56005 15.6748 7.31231 15.0572C7.06457 14.4396 6.94562 13.778 6.96274 13.1128C6.94021 12.4406 7.05316 11.7708 7.29484 11.1432C7.53652 10.5155 7.90201 9.94295 8.36954 9.45949C8.83707 8.97603 9.3971 8.59157 10.0163 8.329C10.6355 8.06643 11.3011 7.93112 11.9737 7.93112C12.6462 7.93112 13.3119 8.06643 13.9311 8.329C14.5503 8.59157 15.1103 8.97603 15.5778 9.45949C16.0453 9.94295 16.4108 10.5155 16.6525 11.1432C16.8942 11.7708 17.0071 12.4406 16.9846 13.1128C17.0023 13.7753 16.8849 14.4345 16.6395 15.0501C16.3941 15.6657 16.0258 16.2249 15.5572 16.6935C15.0886 17.1621 14.5294 17.5304 13.9138 17.7758C13.2982 18.0212 12.639 18.1386 11.9765 18.1209" fill="#005C4B"/>
</g>
<defs>
<clipPath id="clip0_9168_50864">
<rect width="20" height="20" fill="white" transform="translate(2 2)"/>
</clipPath>
</defs>
</svg>
