<svg width="24" height="24" viewBox="0 0 24 24" fill="none" xmlns="http://www.w3.org/2000/svg">
<rect width="24" height="24" rx="12" fill="#FFCDE7"/>
<g clip-path="url(#clip0_9168_50850)">
<path d="M15.4531 9.42188C16.7344 10.75 16.8125 12.3594 16.8125 12.7344H7.26562C7.26562 12.4062 7.34375 10.625 8.79688 9.25C10.125 8 11.6875 7.95312 12.0469 7.95312C12.3594 7.95312 14.0781 8 15.4531 9.42188ZM21.6719 12C21.6719 17.3438 17.3438 21.6719 12 21.6719C6.65625 21.6719 2.3125 17.3438 2.3125 12C2.3125 6.65625 6.65625 2.3125 12 2.3125C17.3438 2.3125 21.6719 6.65625 21.6719 12ZM19.2969 14.5469C19.3281 14.1719 19.3438 13.625 19.2969 12.9844V12.9688H17.9062V12.4688H19.25C19.1406 11.2188 18.8438 9.35938 17.4844 7.78125C17.4531 7.73438 17.4062 7.70312 17.375 7.65625L16.3125 8.71875L15.9531 8.35938L17.0156 7.29688C15.2812 5.64063 13.0625 5.375 12.2812 5.32812V6.78125H11.7812V5.3125C11.0156 5.34375 8.79687 5.59375 7.01562 7.32812L8.03125 8.34375L7.6875 8.71875L6.67188 7.70312C5.23438 9.3125 4.90625 11.2344 4.78125 12.4688H6.07812V12.9688H4.73438V13.0312C4.6875 13.6562 4.70312 14.1875 4.73438 14.5469H19.2969Z" fill="#B7111D"/>
</g>
<defs>
<clipPath id="clip0_9168_50850">
<rect width="20" height="20" fill="white" transform="translate(2 2)"/>
</clipPath>
</defs>
</svg>
