<svg width="24" height="24" viewBox="0 0 24 24" fill="none" xmlns="http://www.w3.org/2000/svg">
<rect width="24" height="24" rx="12" fill="#D6EBFF"/>
<g clip-path="url(#clip0_8823_45395)">
<path d="M11.6052 4.00013C10.9705 4.00313 10.3643 4.05829 9.83093 4.15444C8.25969 4.43725 7.97442 5.0292 7.97442 6.12085V7.56259H11.6874V8.04317H7.97442H6.58095C5.50184 8.04317 4.55694 8.70399 4.26139 9.96108C3.92047 11.402 3.90535 12.3012 4.26139 13.8057C4.52532 14.9257 5.15564 15.7236 6.23475 15.7236H7.51137V13.9953C7.51137 12.7467 8.57174 11.6453 9.83093 11.6453H13.5396C14.572 11.6453 15.3961 10.7793 15.3961 9.723V6.12085C15.3961 5.09566 14.5473 4.32554 13.5396 4.15444C12.9018 4.04627 12.24 3.99712 11.6052 4.00013ZM9.59724 5.15969C9.98077 5.15969 10.294 5.484 10.294 5.88277C10.294 6.28012 9.98077 6.60143 9.59724 6.60143C9.21234 6.60143 8.90051 6.28012 8.90051 5.88277C8.90051 5.484 9.21234 5.15969 9.59724 5.15969Z" fill="url(#paint0_linear_8823_45395)"/>
<path d="M15.8594 8.04315V9.72298C15.8594 11.0253 14.7756 12.1215 13.5398 12.1215H9.83112C8.81525 12.1215 7.97461 13.0073 7.97461 14.0438V17.6459C7.97461 18.6711 8.84962 19.2741 9.83112 19.5682C11.0065 19.9203 12.1335 19.984 13.5398 19.5682C14.4746 19.2925 15.3963 18.7376 15.3963 17.6459V16.2042H11.6876V15.7236H15.3963H17.2529C18.332 15.7236 18.7341 14.9567 19.1094 13.8057C19.497 12.6207 19.4805 11.4812 19.1094 9.96106C18.8427 8.86658 18.3333 8.04315 17.2529 8.04315H15.8594ZM13.7735 17.1653C14.1584 17.1653 14.4702 17.4867 14.4702 17.884C14.4702 18.2828 14.1584 18.6071 13.7735 18.6071C13.39 18.6071 13.0768 18.2828 13.0768 17.884C13.0768 17.4867 13.39 17.1653 13.7735 17.1653Z" fill="url(#paint1_linear_8823_45395)"/>
</g>
<defs>
<linearGradient id="paint0_linear_8823_45395" x1="4" y1="4" x2="12.6957" y2="11.2731" gradientUnits="userSpaceOnUse">
<stop stop-color="#5A9FD4"/>
<stop offset="1" stop-color="#306998"/>
</linearGradient>
<linearGradient id="paint1_linear_8823_45395" x1="13.6843" y1="17.7628" x2="10.5363" y2="13.433" gradientUnits="userSpaceOnUse">
<stop stop-color="#FFD43B"/>
<stop offset="1" stop-color="#FFE873"/>
</linearGradient>
<clipPath id="clip0_8823_45395">
<rect width="16" height="16" fill="white" transform="translate(4 4)"/>
</clipPath>
</defs>
</svg>
