<svg width="24" height="24" viewBox="0 0 24 24" fill="none" xmlns="http://www.w3.org/2000/svg">
<rect width="24" height="24" rx="12" fill="#D6EBFF"/>
<path fill-rule="evenodd" clip-rule="evenodd" d="M5.86855 8.00547L10.3644 11.2793C10.3654 11.2801 10.3665 11.2808 10.3675 11.2816L11.5376 12.1089L12.705 11.2835L12.87 11.1541C12.9844 11.0645 13.1497 10.9353 13.3536 10.7761C13.7614 10.458 14.324 10.0204 14.9431 9.54289C15.5876 9.04577 16.2966 8.50279 16.957 8.00547H5.86855ZM18.2869 8.63374C17.498 9.22064 16.5692 9.9304 15.7371 10.5723C15.1204 11.0479 14.5597 11.484 14.1532 11.8011C13.95 11.9597 13.7854 12.0885 13.6716 12.1776L13.4958 12.3154C13.4958 12.3154 13.4951 12.3159 13.0936 11.8048L13.4958 12.3154C13.4872 12.3221 13.4778 12.3292 13.4689 12.3355L11.9136 13.4352C11.9136 13.4352 11.9129 13.4357 11.5376 12.905C11.1624 13.4357 11.1624 13.4357 11.1624 13.4357L9.60819 12.3368C9.60268 12.3329 9.59723 12.329 9.59184 12.3249L4.78828 8.82698V16.5297C4.78828 16.7231 4.94482 16.8795 5.13802 16.8795H17.9372C18.1304 16.8795 18.2869 16.7231 18.2869 16.5297V8.63374ZM11.5376 12.905L11.1624 13.4357C11.3873 13.5947 11.6887 13.5942 11.9136 13.4352L11.5376 12.905ZM3.48828 8.35521C3.48828 7.44393 4.22676 6.70547 5.13802 6.70547H18.9369C19.2959 6.70547 19.5869 6.99649 19.5869 7.35547V16.5297C19.5869 17.4409 18.8486 18.1795 17.9372 18.1795H5.13802C4.22665 18.1795 3.48828 17.4409 3.48828 16.5297V8.35521Z" fill="#002F5C"/>
<path d="M18.6387 9C19.4671 9 20.1387 8.32843 20.1387 7.5C20.1387 6.67157 19.4671 6 18.6387 6C17.8102 6 17.1387 6.67157 17.1387 7.5C17.1387 8.32843 17.8102 9 18.6387 9Z" fill="#002F5C"/>
<path fill-rule="evenodd" clip-rule="evenodd" d="M18.6388 6.65001C18.1693 6.65001 17.7888 7.03056 17.7888 7.50001C17.7888 7.96945 18.1693 8.35001 18.6388 8.35001C19.1082 8.35001 19.4888 7.96945 19.4888 7.50001C19.4888 7.03056 19.1082 6.65001 18.6388 6.65001ZM16.4888 7.50001C16.4888 6.31259 17.4514 5.35001 18.6388 5.35001C19.8262 5.35001 20.7888 6.31259 20.7888 7.50001C20.7888 8.68742 19.8262 9.65001 18.6388 9.65001C17.4514 9.65001 16.4888 8.68742 16.4888 7.50001Z" fill="#002F5C"/>
</svg>
