<svg width="24" height="24" viewBox="0 0 24 24" fill="none" xmlns="http://www.w3.org/2000/svg">
<rect width="24" height="24" rx="12" fill="#FFF6CD"/>
<g clip-path="url(#clip0_9168_50493)">
<path d="M8.91 7.51551L7.49692 7.74501L6.20775 8.31026L5.11284 8.99901L4.07084 10.2705L3.48225 10.894L2.91292 11.1038L2.76242 10.7358L3.02567 10.3559L3.08484 9.82009L3.26109 9.82726L3.45375 10.003L3.40175 9.45717L3.18817 9.31384L3.19484 9.10584L2.68892 9.39201L2.23084 9.93251L2.13525 10.4155L2.33125 10.8023L2.51392 11.4594L2.8855 11.6353L3.27634 11.6162L3.647 11.4008L3.39975 12.6548L3.647 14.0499L3.37484 14.6941L2.48334 15.6547L2.64184 16.2285L3.06417 16.8934L3.86042 17.4537L4.28275 17.5116L4.75234 17.5274L4.45934 18.7302L5.53667 19.1716L6.87884 19.3483L7.338 19.0481L7.37334 18.2356L7.88559 17.3878L7.92092 16.7168L9.15717 16.8051L10.3051 16.6992L9.15717 17.3878L9.3515 18.218L10.0755 19.3483L10.7819 19.6484L11.3471 19.4188L11.5766 18.9597L12.7599 18.059L12.9895 18.2532L14.8439 18.3239L15.2148 18.0238L15.25 17.4938L15.1265 17.2643L15.0381 15.8338L14.42 14.5975L14.526 14.05L14.8968 14.2443L15.9388 15.2156L16.451 15.251L17.0161 15.0213L17.5813 14.5975L17.8638 13.6792L19.524 13.7851L20.5307 13.3967L21.343 12.6372L21.9258 11.5422L22.067 10.253L21.9434 8.75176L21.6256 7.40967L21.3077 6.98584L20.8663 6.84451L20.0891 7.69217L19.3827 7.93942L18.7645 6.91509L18.1464 6.35001L17.8108 6.13809L16.4686 5.02542L15.3913 4.44259L14.314 4.35434L13.0602 4.56626L11.9652 4.97234L11.2058 5.59051L10.6053 6.31467L9.98725 6.49134L8.90984 7.51559" fill="#FFFF00"/>
<path d="M4.81202 10.7029C3.60186 12.1145 3.87069 13.8263 4.20611 15.5038C4.02715 15.0515 3.84815 14.5993 3.66911 14.1471L3.47119 12.9032C3.49002 12.4792 3.50877 12.0552 3.52777 11.6313L4.03644 10.4158L4.79961 9.28518L5.98677 8.29601L7.28694 7.75893L8.81336 7.5611L7.40002 9.17218C6.26519 9.54018 5.59611 9.78818 4.81194 10.7029" fill="#FFFFCC"/>
<path d="M10.5095 6.4021C9.66823 7.22293 9.20865 7.8421 8.67315 8.80318C8.29023 9.49068 7.86065 10.1529 7.4579 10.8308C7.25432 11.174 7.23507 11.4617 7.17415 11.8574L6.58057 11.1508C6.6749 10.8681 6.76907 10.5854 6.86323 10.3028L7.82432 8.57868L9.85948 6.57176C10.0761 6.51518 10.2928 6.45876 10.5095 6.4021ZM14.6646 4.3671C13.9906 4.61968 12.8716 4.70293 12.794 5.47626C12.7387 6.0256 12.8354 6.3016 13.1665 6.88276C12.3487 6.03651 12.1465 6.16743 10.5661 6.43043L11.2444 5.46943L12.4316 4.73443L13.958 4.39526L14.6646 4.3671Z" fill="#FFFFCC"/>
<path d="M16.5242 14.8287C16.7485 14.9672 16.7437 15.0676 16.7062 15.1625C16.8831 15.0917 17.0601 15.0208 17.237 14.9502L17.581 14.4883L17.8363 13.8303L17.51 13.5851L16.0842 13.7671C16.049 13.8631 16.0135 13.9592 15.9781 14.0553C15.9882 14.1917 15.9985 14.3283 16.0085 14.4647C16.054 14.5457 16.0995 14.6266 16.1451 14.7075C16.2159 14.7428 16.2865 14.7783 16.3574 14.8137C16.4131 14.8187 16.4686 14.8238 16.5242 14.8287ZM16.3915 12.3905C15.6768 12.5967 15.6824 12.6536 15.4714 13.3627C15.75 12.9157 15.9562 12.6901 16.3915 12.3905ZM21.1435 7.08458C21.0165 7.14333 20.8927 7.17149 20.8134 7.28774C20.6424 7.53791 20.4959 7.74833 20.2131 7.92391C20.0707 8.01241 19.9235 8.06974 19.7725 8.11683C19.6472 8.15574 19.5719 8.12091 19.4653 8.19766C19.5286 8.20849 19.5919 8.21966 19.6551 8.23074H20.0735L20.5892 7.91233L20.8925 7.59374L21.1435 7.08458ZM9.75921 8.67058C9.47813 9.43999 9.23238 10.0995 8.80655 10.796C9.35221 10.208 9.68313 9.70816 9.99571 9.04341C10.1172 8.78508 10.1401 8.48208 10.4784 8.59474C10.4935 8.85274 10.548 9.11041 10.5632 9.36824C10.746 8.05841 11.2613 7.51049 12.4592 7.00208L11.443 7.12349L10.4873 7.33582L10.0171 8.01833L9.75921 8.67058ZM12.08 8.64024C12.3383 9.85608 12.7103 11.0231 12.8719 12.2582C12.9768 13.0608 12.9882 13.4464 12.5845 14.1389C12.1431 14.1103 11.8691 14.1601 11.4422 14.3C9.7428 14.8571 8.76805 15.6762 7.62305 14.0257L8.71971 14.5426C8.9803 14.4913 9.24088 14.4402 9.50138 14.3888C9.96155 14.121 10.4216 13.853 10.8818 13.5851L11.9586 13.3726L12.3075 11.9167L12.0496 9.99024C12.0396 9.68691 12.0295 9.38358 12.0193 9.08024C12.0396 8.93358 12.0599 8.78683 12.08 8.64024ZM15.0074 16.1636C14.8646 17.1514 15.3361 17.6824 15.1409 17.9552C15.0856 18.0324 15.0107 18.1672 14.9271 18.2042C14.6284 18.3362 14.2176 18.1795 14.1884 18.2567H13.2025L12.8081 18.0899L13.4148 17.377C13.612 16.9473 13.8092 16.5175 14.0063 16.0877L14.3855 14.7833H14.5827L15.0074 16.1636Z" fill="#CCCC00"/>
<path d="M13.3502 13.2918C13.4303 13.7403 13.5694 13.8469 13.7804 14.2811C13.64 14.9894 13.4144 15.8317 13.1429 16.4567C13.0284 16.7202 12.936 16.8656 12.734 17.0692C12.3932 17.4134 12.0488 17.7131 11.6624 18.0114C11.384 18.2258 11.1899 18.1183 10.8466 18.0697C10.7006 18.3343 10.6604 18.4814 10.3916 18.6157C9.97846 18.8222 9.60871 18.3772 9.28438 18.1152C9.51855 18.481 9.75271 18.8466 9.98671 19.2123C10.1485 19.364 10.3104 19.5156 10.4721 19.6673L10.8817 19.7281L11.4276 19.3942C11.5238 19.2123 11.6198 19.0302 11.7159 18.8483C11.9181 18.6967 12.1205 18.545 12.3225 18.3932C12.5704 18.1809 12.8181 17.9685 13.0659 17.7562L13.536 17.0887L13.9606 16.3001C14.1428 15.7541 14.3248 15.208 14.5069 14.662C14.522 14.4547 14.537 14.2474 14.5523 14.04C14.3248 13.939 14.0973 13.8377 13.8697 13.7367C13.7029 13.58 13.517 13.4486 13.3502 13.2918ZM7.90871 16.4517C8.67421 16.4517 9.48271 16.4092 10.184 16.0877C10.3823 15.7902 10.5782 15.547 10.821 15.2839C10.6 15.7012 10.5307 15.9371 10.4721 16.4062L10.2446 16.74C9.66821 16.7551 9.09188 16.7702 8.51546 16.7855C8.3283 16.7652 8.1413 16.745 7.95421 16.7248C7.93396 16.7044 7.9138 16.6842 7.89355 16.6641C7.89871 16.5932 7.90371 16.5225 7.90871 16.4517ZM7.80263 15.9209L7.74313 15.3822C7.61238 16.1696 7.6438 16.6972 7.28146 17.4025C7.0108 17.716 6.67755 18.0013 6.29588 18.1541C6.32813 18.3474 6.3378 18.4682 6.31905 18.61C6.2518 19.12 5.2318 18.8947 4.81213 18.8743L6.8318 19.3943L7.2868 19.2123C7.33746 18.9192 7.38805 18.6257 7.43855 18.3326L7.86321 17.5439L7.93905 17.0585L7.80255 15.921M6.66488 11.4767C6.6438 11.8596 6.61905 12.0192 6.78788 12.3572C7.00246 12.7868 7.26596 13.1907 7.49913 13.6153L7.57497 12.7659C7.27171 12.3361 6.9683 11.9064 6.66496 11.4767M3.5513 14.3684C3.48555 14.5081 3.42005 14.6479 3.3543 14.7877C3.53496 15.3964 3.69572 15.782 4.0398 16.3137C3.9798 16.5292 3.93496 16.6234 3.79713 16.799C3.4943 16.7525 3.22538 16.739 2.91847 16.74C3.25722 17.0027 3.59597 17.2658 3.93472 17.5287C4.10155 17.4982 4.26847 17.4679 4.4353 17.4377L4.93588 16.9372L4.22297 15.8298C3.99897 15.3427 3.77513 14.8555 3.5513 14.3684ZM21.1456 6.88324C21.352 7.81132 21.6181 8.66791 21.5934 9.61857C21.563 10.7848 21.3358 12.2581 20.2551 12.9613C19.045 13.749 17.6243 13.3764 16.2965 13.0389L17.9195 13.7063C18.4251 13.7317 18.9308 13.757 19.4364 13.7822C19.7802 13.6811 20.124 13.58 20.4677 13.4788C20.7357 13.2563 21.0037 13.034 21.2717 12.8114L21.8784 11.5374L22.1059 10.0661C22.0453 9.58566 21.9845 9.10541 21.9239 8.62507L21.5902 7.19932C21.442 7.09391 21.2939 6.98849 21.1456 6.88324ZM3.0858 9.64957C2.53647 10.0072 2.32063 10.1642 2.38088 10.8269L2.54505 11.4223L2.7778 11.5798L3.0653 11.6757L3.58546 11.5524C3.67455 11.2763 3.76347 11.0003 3.85238 10.7242L3.11322 11.0871H2.94213C2.87827 10.9889 2.81438 10.8908 2.75046 10.7927L2.98322 10.4505L3.10638 9.80024C3.15888 9.81616 3.21138 9.83224 3.2638 9.84807C3.32771 9.89841 3.39155 9.94857 3.45546 9.99866L3.42805 9.65649L3.29805 9.43749C3.25472 9.40082 3.21138 9.36449 3.16805 9.32791L3.0858 9.64957ZM15.4116 4.42749C15.8993 4.88032 16.4977 5.27382 16.8877 5.82716C17.0386 6.04132 17.2063 6.15091 16.8852 6.45349C17.2245 6.35657 17.3506 6.36707 17.6223 6.39999C18.1165 6.45982 18.5796 7.16232 18.6091 7.66566C18.6033 7.71274 18.4719 7.81966 18.0898 7.92516C18.0823 7.93982 17.8741 7.89666 17.8793 7.91082C17.919 8.01941 17.972 8.03607 18.0531 8.08682C18.0706 8.20766 18.082 8.39407 18.1643 8.52624C18.4047 8.52191 18.6397 8.54816 18.8751 8.59474C18.9543 8.72616 18.9425 8.85757 18.9358 8.98907L19.2088 8.94366C19.1836 8.73632 19.1583 8.52907 19.133 8.32174C19.2139 8.18524 19.2947 8.04866 19.3757 7.91232L19.0268 7.12349C18.8044 6.91116 18.582 6.69874 18.3594 6.48641L18.2952 6.48324C18.045 6.3297 17.7948 6.17615 17.5446 6.02257L16.3205 5.02107L15.4116 4.42749ZM16.233 8.16474C16.2073 8.20974 16.1685 8.28157 16.1187 8.33141C16.3218 8.52349 16.422 8.65216 16.4945 8.92391C16.2648 9.03782 16.0353 9.15191 15.8057 9.26574L15.2229 9.82449C14.9671 9.68682 14.9035 9.58116 14.7797 9.31866C14.6355 9.35691 14.4991 9.39366 14.3801 9.34991C14.4556 9.35049 14.502 9.33166 14.5775 9.28499L14.9483 8.89974C15.1666 8.73441 15.385 8.56891 15.6033 8.40366L16.032 8.26391C16.0866 8.24149 16.1785 8.18724 16.233 8.16474Z" fill="#CCCC00"/>
<path d="M16.8666 8.84992C16.1361 9.24325 15.4366 9.63875 15.0631 10.3857C15.0631 9.43758 16.015 9.02025 16.8665 8.84983M14.9181 6.98483C14.3757 7.35467 13.9922 8.101 14.0404 8.82833C13.8637 8.1985 13.9263 7.60342 14.4687 7.16842C14.5604 7.124 14.6518 7.07942 14.7434 7.035C14.8016 7.01833 14.8598 7.00167 14.9181 6.98483Z" fill="#CCCC00"/>
<path d="M22.2171 8.70199C22.1188 8.08174 21.9557 7.47966 21.7293 7.04674C21.7018 6.99383 21.66 6.94016 21.6082 6.88899C21.4958 6.77816 21.3293 6.67316 21.1574 6.61408C20.9753 6.55141 20.7832 6.53866 20.6307 6.61833C20.5911 6.63916 20.5543 6.66583 20.5215 6.69916C20.4228 6.79916 20.3394 6.92083 20.256 7.04258C20.1633 7.17824 20.0699 7.31458 19.9583 7.40983C19.8288 7.52049 19.6669 7.58766 19.5142 7.64899C19.4499 7.49303 19.3726 7.34275 19.2831 7.19974C19.1787 7.03324 19.0598 6.87733 18.9289 6.72141C18.8332 6.60657 18.7247 6.50304 18.6055 6.41283C18.4927 6.32674 18.3772 6.25424 18.2427 6.17008C17.8821 5.94424 17.575 5.67491 17.2618 5.40008C17.1195 5.27524 16.9758 5.14924 16.8352 5.03333C16.0893 4.41833 15.3937 4.12008 14.6497 4.07333C13.9108 4.02683 13.1305 4.22983 12.2093 4.61766C11.7646 4.80474 11.4344 5.02591 11.1468 5.29183C10.872 5.54599 10.6388 5.83866 10.3823 6.18041C10.2332 6.19099 10.101 6.21308 9.96609 6.26708C9.81742 6.32658 9.66775 6.42291 9.48842 6.58116C9.3636 6.69129 9.24135 6.80429 9.12175 6.92008C9.01219 7.02637 8.90456 7.13464 8.79892 7.24483C7.96025 7.37958 7.27692 7.52833 6.66492 7.76533C6.03909 8.00783 5.48742 8.34133 4.92084 8.84366C4.69775 9.04074 4.49437 9.25908 4.31359 9.49558C4.14126 9.72133 3.99376 9.95866 3.86434 10.2089C3.75101 10.3343 3.63742 10.4609 3.51451 10.5717C3.39467 10.6796 3.26692 10.7705 3.12376 10.8256L3.12384 10.8257C3.04059 10.8577 3.00617 10.8765 3.00242 10.8752C2.99826 10.8729 2.99592 10.8604 2.99009 10.8374C3.19567 10.6412 3.22801 10.353 3.24701 10.0668C3.27167 10.0963 3.29534 10.1327 3.31992 10.1707C3.34709 10.2126 3.37492 10.2558 3.40826 10.2979L3.54784 10.474L3.59684 10.2543C3.63801 10.0702 3.66884 9.82516 3.62084 9.61266C3.58984 9.47474 3.52584 9.35183 3.41434 9.26474C3.42501 9.23691 3.43509 9.21124 3.44501 9.18591C3.48001 9.09633 3.51609 9.00441 3.54667 8.91758L3.60717 8.74549L3.42717 8.77666C3.18767 8.81833 2.67301 9.10116 2.31051 9.47724C2.17592 9.61699 2.06017 9.77141 1.98426 9.93341C1.90526 10.102 1.86984 10.2784 1.90051 10.4549C1.92717 10.6092 2.00442 10.7607 2.14467 10.9036C2.17026 11.0067 2.19384 11.0961 2.21909 11.1767C2.24801 11.2685 2.27909 11.3506 2.31801 11.4314C2.42351 11.6507 2.59167 11.7847 2.78634 11.8472C2.94276 11.8975 3.11576 11.9 3.28542 11.8628C3.25097 12.0649 3.2302 12.2692 3.22326 12.4741C3.21251 12.7603 3.22301 13.0766 3.25451 13.4436C3.26142 13.5242 3.27184 13.6127 3.28526 13.7091C3.29692 13.7912 3.31076 13.8719 3.32567 13.952C3.29401 14.0385 3.26209 14.1252 3.23026 14.2117L3.08217 14.6147L2.75634 14.9377C2.65492 15.0379 2.55351 15.1384 2.45217 15.2388C2.44384 15.2472 2.40959 15.28 2.37859 15.3099C2.17317 15.5076 2.13251 15.5468 2.19084 15.8947C2.22821 16.1173 2.30087 16.3325 2.40609 16.5322C2.50692 16.7242 2.64226 16.9112 2.81592 17.0854C3.03259 17.3026 3.38776 17.5724 3.75959 17.7137C3.97209 17.7944 4.19109 17.8339 4.39667 17.8009C4.38617 17.8326 4.37601 17.8641 4.36442 17.8959C4.33189 17.9862 4.29575 18.0751 4.25609 18.1624C4.00384 18.7153 4.26276 19.0041 4.66576 19.1878C4.86701 19.2795 5.10626 19.3418 5.32851 19.3998C5.37401 19.4115 5.41951 19.4235 5.47684 19.439C5.74017 19.5102 6.19526 19.6409 6.61092 19.6672C7.06459 19.6958 7.47375 19.6022 7.58342 19.195C7.62675 19.0336 7.652 18.91 7.66225 18.7889C7.67167 18.6766 7.66809 18.5631 7.65492 18.4226C7.78426 18.1359 7.83909 18.0553 7.93367 17.9171C7.95217 17.8897 7.97459 17.8571 7.98134 17.8467C8.08275 17.6965 8.13025 17.5898 8.1475 17.4697C8.16417 17.3538 8.15 17.2383 8.12909 17.0618C8.12709 17.0451 8.12409 17.0206 8.11967 16.9882C8.38089 17.0221 8.64393 17.0401 8.90734 17.0422C9.0395 17.043 9.17159 17.0391 9.30367 17.0322C9.26992 17.0494 9.23684 17.0666 9.20067 17.0852L9.1515 17.1104C8.80117 17.2906 8.78659 17.6318 8.89625 17.9829C8.99509 18.2995 9.19859 18.6227 9.32625 18.8193C9.59459 19.2329 9.85067 19.583 10.1612 19.7732C10.4866 19.9727 10.8584 19.9962 11.3383 19.7364C11.5825 19.6042 11.6595 19.4695 11.7632 19.2878C11.7949 19.2324 11.8299 19.172 11.8689 19.1124C11.9698 19.0456 12.2208 18.8385 12.4673 18.6347C12.5512 18.5654 12.635 18.4964 12.7296 18.4193C12.7948 18.4672 12.8734 18.5005 12.9685 18.5232C13.092 18.5527 13.2391 18.5661 13.4153 18.5787C13.5473 18.5884 13.9774 18.5881 14.2553 18.588C14.3412 18.588 14.4124 18.588 14.4552 18.5882C14.7421 18.59 14.9737 18.5749 15.1487 18.4757C15.3352 18.37 15.4458 18.1827 15.4699 17.8469C15.4804 17.6977 15.4824 17.6057 15.4617 17.5118C15.4423 17.4238 15.4046 17.3441 15.3398 17.2274C15.3358 17.0823 15.3319 16.9371 15.3281 16.792C15.3241 16.6381 15.3198 16.484 15.3158 16.3301C15.3108 16.1486 15.2908 16.0011 15.254 15.856C15.2175 15.7119 15.1653 15.5733 15.0955 15.407C15.0521 15.3022 15.011 15.1965 14.9723 15.0898L14.8717 15.1267L14.8872 15.121L14.9723 15.0898V15.0894C14.9123 14.9276 14.8532 14.77 14.7703 14.6014C14.7757 14.5689 14.7811 14.5339 14.7863 14.4966L14.9463 14.6507L15.1822 14.878C15.362 15.0512 15.5264 15.2088 15.7196 15.3227C15.9193 15.4406 16.1439 15.509 16.4348 15.4952C16.7393 15.4808 17.0651 15.3526 17.3333 15.1547C17.5928 14.9631 17.8011 14.7047 17.888 14.4188L17.9633 14.1708L18.0235 13.9729C18.4505 14.0452 18.9088 14.0686 19.3515 14.0222C19.7787 13.9773 20.1913 13.8686 20.5473 13.6787C21.0704 13.3996 21.4627 12.9884 21.7446 12.5002H21.7448C22.0598 11.9545 22.2362 11.3115 22.3032 10.6498C22.3569 10.1192 22.3276 9.39774 22.2171 8.70199ZM16.6848 13.1618C16.4388 13.079 16.2677 12.9582 16.0515 12.8219C16.1103 13.0872 16.1371 13.3677 16.0588 13.6324C15.9344 14.0526 15.7336 14.7399 16.304 14.8667C16.5211 14.9149 16.6196 14.908 16.926 14.7498C16.678 14.806 16.5529 14.7923 16.3824 14.7607C16.2279 14.7322 16.146 14.6342 16.1028 14.5184C16.1568 14.5573 16.2448 14.5785 16.3953 14.6147C16.8182 14.7167 17.2211 14.5131 17.2999 14.2199C17.3458 14.0486 17.338 13.9586 17.4354 13.7251C17.5229 13.7522 17.6133 13.7767 17.7062 13.7992L17.549 14.3117C17.4132 14.755 16.8836 15.1125 16.4161 15.1042C15.9839 15.0967 15.7098 14.8259 15.4114 14.5605C15.2059 14.3775 15.0081 14.2026 14.8121 14.0292C14.2742 13.8595 13.843 13.6612 13.3438 13.2916C13.6991 13.7091 13.94 13.9402 14.4355 14.148C14.3635 14.883 14.108 15.419 13.8903 16.1224C13.7916 16.4404 13.0135 17.715 12.7978 17.8392C12.6441 17.9278 11.6809 18.739 11.4998 18.8461C11.3648 19.0252 11.2464 19.2729 11.0435 19.3801C10.4253 19.707 10.0281 19.0811 9.69542 18.5525C9.544 18.3117 9.12334 17.618 9.49 17.4237C9.83667 17.2401 10.0308 17.1089 10.3846 16.8766C10.4366 16.9713 10.5257 17.0628 10.5838 17.1574L10.5453 16.8469C10.5219 16.6594 10.5229 16.5072 10.5378 16.3185C10.5523 16.1358 10.5666 15.9532 10.5809 15.7704C10.5277 15.9562 10.4213 16.1418 10.3683 16.3274C10.347 16.4017 10.3294 16.4617 10.3193 16.5174C9.52559 16.6796 8.73767 16.6897 7.94384 16.5481C7.89317 16.2542 7.8315 15.9479 7.77976 15.7283C7.76409 15.9742 7.77417 16.654 7.77292 17.0347C7.77192 17.3295 7.75959 17.4305 7.60742 17.6813C7.46509 17.9162 7.40484 17.9695 7.20542 18.3663C7.22209 18.6167 7.22234 18.7822 7.15584 19.0198C7.04526 19.4149 5.92917 19.1088 5.63484 19.0282C5.27226 18.929 4.52276 18.7815 4.71126 18.2982C4.87709 17.8728 4.98225 17.4243 5.06334 16.8292C4.39909 15.8722 3.78142 14.561 3.66284 13.3992C3.57076 12.4971 3.62601 11.9418 3.82117 11.39C4.13051 10.5157 4.56334 9.75883 5.25767 9.14941C6.19434 8.32749 7.06984 7.99749 8.44084 7.78874C8.11117 8.15791 7.785 8.54808 7.4295 8.96649C7.06959 9.39008 6.85584 9.81791 6.62725 10.2813C6.31159 10.9212 6.31842 11.1647 6.73684 11.7266C7.09742 12.2107 7.29209 12.4287 7.44959 12.9024C7.31959 13.1704 7.27225 13.397 7.22859 13.7629C7.67009 14.2457 7.99825 14.5763 8.42692 14.6782C8.8475 14.7782 9.19859 14.7588 9.57492 14.5665C10.4105 14.1393 11.1837 13.5877 12.1263 13.5648C12.5623 12.4928 12.5183 11.597 12.3089 10.5597C12.1659 9.85133 12.1085 9.18058 12.0641 8.45841C11.8873 9.20216 11.8541 9.85616 11.9853 10.5971C12.1434 11.4898 12.2663 12.4762 11.8265 13.2609C10.9741 13.3262 10.2437 13.8447 9.4755 14.2426C9.16667 14.4026 8.84517 14.4182 8.50342 14.3243C8.18617 14.2372 7.97209 14.0272 7.63034 13.6331C7.62492 13.2373 7.71425 13.0547 7.896 12.6962C8.188 12.1207 8.51025 11.5849 8.86392 11.0187C8.43092 11.5413 8.02059 11.9781 7.67975 12.5037C7.54942 12.1325 7.36309 11.944 7.0545 11.526C6.75309 11.1177 6.72159 10.9391 6.947 10.4666C7.17359 9.99183 7.36575 9.57458 7.7515 9.15808C8.41792 8.43833 9.0285 7.63733 9.75734 6.92849C10.1531 6.54366 10.3138 6.55691 10.8387 6.47741C11.3132 6.40541 11.7763 6.31466 12.2602 6.20233C11.7923 6.24591 11.3399 6.26191 10.8843 6.27316L10.8702 6.27358C11.3185 5.70116 11.5786 5.38216 12.3065 5.06583C14.0988 4.28749 15.2377 4.20333 16.6456 5.38674C17.0105 5.69358 17.3292 5.99133 17.6991 6.25591C17.5649 6.26741 17.4493 6.29149 17.2964 6.35149C17.4825 6.31599 17.6974 6.35116 17.8906 6.38649C17.9448 6.42166 18.0006 6.45599 18.0575 6.48958C18.3188 6.64349 18.467 6.72849 18.6437 6.97458C18.8303 7.23466 18.986 7.49458 19.1231 7.78108C19.0333 7.74891 18.9578 7.72183 18.8907 7.70191C18.8158 7.66757 18.7335 7.65226 18.6513 7.65735C18.5691 7.66244 18.4894 7.68777 18.4193 7.73108L18.4084 7.73608C18.2639 7.80649 18.0401 7.88666 17.8903 7.91099C17.9668 7.93733 18.1358 7.94724 18.2154 7.91566C18.2261 7.91149 18.2369 7.90816 18.2481 7.90558C18.2111 7.96845 18.1884 8.03864 18.1814 8.11124C18.1721 8.20709 18.1906 8.3036 18.2348 8.38916L18.2353 8.39008C18.2488 8.42191 18.2676 8.45116 18.2883 8.47233C18.2198 8.49758 18.1499 8.52641 18.0778 8.55766C18.4119 8.50683 18.7131 8.49808 19.039 8.54099C19.0605 8.64374 19.0822 8.75266 19.1023 8.86341L18.9812 8.87291C18.9779 8.87315 18.9747 8.87343 18.9714 8.87374C18.8172 8.75049 18.6453 8.77124 18.4106 8.82483C17.6966 8.98758 17.8643 9.38816 17.536 9.99183C17.877 9.57499 17.8517 9.13883 18.4074 9.00716C18.5369 8.97658 18.6251 8.93816 18.7128 8.95133C18.555 9.03066 18.4186 9.16224 18.3644 9.31499C18.2119 9.74574 18.3066 10.1087 18.139 10.511C18.3465 10.1513 18.3591 9.80033 18.5448 9.42183C18.6114 9.28599 18.8588 9.06849 19.0106 9.06516L19.1356 9.06241C19.1723 9.30174 19.1945 9.53949 19.1803 9.73666C19.1544 10.0965 19.0609 10.6306 19.005 10.835C19.193 10.5932 19.2787 10.0813 19.3613 9.72083C19.4473 9.34566 19.4255 8.89541 19.3503 8.49224C19.2469 7.93916 19.8166 8.02916 20.1473 7.76849C20.3903 7.57683 20.5578 7.27091 20.7806 7.05408C21.0017 6.83908 21.3498 7.15499 21.4367 7.36508C21.8137 8.27733 21.9854 9.71241 21.8859 10.632C21.7741 11.6638 21.2758 12.7902 20.3657 13.2982C19.2055 13.9457 17.8376 13.5502 16.6848 13.1618ZM15.0363 17.7447C14.9985 18.1704 14.8566 18.1985 14.4828 18.192C14.3129 18.189 13.6366 18.1859 13.4649 18.1712C13.2224 18.1502 13.0863 18.1286 13.0122 18.0732C13.3932 17.7936 14.0405 16.6389 14.1668 16.2413C14.3003 15.8213 14.4463 15.4548 14.555 15.0667C14.605 15.2289 14.6444 15.3897 14.7172 15.562C14.8386 15.85 14.898 16.0279 14.9067 16.3368L14.9342 17.3146C15.0386 17.4972 15.0548 17.5362 15.0363 17.7446V17.7447ZM3.57026 14.5195C3.81217 15.3564 4.22434 16.1788 4.68126 16.8702V16.8823C4.65251 17.0012 4.61942 17.1169 4.55001 17.2098C4.22334 17.6468 3.39267 17.0054 3.15217 16.7601C2.88934 16.4916 2.71342 16.1738 2.67151 15.8757C2.64101 15.6583 2.67067 15.653 2.82234 15.4992L3.43584 14.8781L3.57026 14.5195ZM3.10817 9.25616C3.04617 9.38924 3.00217 9.49016 2.97226 9.59399C2.84201 10.0438 3.03117 10.4453 2.62276 10.7714C2.81467 11.1586 2.80584 11.3131 3.25226 11.1342C3.42442 11.065 3.56642 10.9683 3.69326 10.8538C3.63186 11.0133 3.57542 11.1747 3.52401 11.3377C3.51517 11.3652 3.50676 11.3929 3.49867 11.4204C3.17942 11.5559 2.75951 11.642 2.59884 11.3065C2.52084 11.1436 2.47676 10.9837 2.41984 10.7779C1.89409 10.2332 2.68001 9.51408 3.10817 9.25616ZM3.36659 9.83316C3.30167 9.76816 3.24976 9.72424 3.16584 9.73374C3.17292 9.67874 3.18234 9.62566 3.19559 9.57583C3.20226 9.55016 3.20942 9.52499 3.21709 9.49974C3.32592 9.56316 3.35459 9.67816 3.36659 9.83316ZM19.1314 7.79866C19.1513 7.84049 19.1708 7.88308 19.1899 7.92616C19.1741 7.93783 19.159 7.95008 19.1449 7.96299C19.119 7.90254 19.0816 7.84769 19.0348 7.80149C19.0662 7.80033 19.0983 7.79933 19.1315 7.79866H19.1314ZM14.6588 14.6175H14.6589L14.6588 14.6176L14.6588 14.6175ZM1.30734 10.7948C1.39101 9.84758 1.57517 9.43858 2.24817 8.72566C1.40401 9.32049 1.19334 9.59091 1.30734 10.7948Z" fill="black"/>
<path d="M1.08974 10.0211C1.18266 9.59474 1.26932 9.43382 1.53224 9.0839C1.10566 9.38182 1.05016 9.50415 1.08966 10.0211M10.9939 4.07782C10.4882 4.19974 10.3917 4.29324 10.2401 4.78899C10.4821 4.42599 10.6214 4.3079 10.9939 4.07782Z" fill="black"/>
<path d="M11.7913 4.00567C10.7882 4.2515 10.4935 4.42633 10.1603 5.58892C10.5838 4.73742 10.9045 4.42392 11.7913 4.00558M13.9517 8.24367C14.0586 7.77 14.2486 7.31358 14.9842 6.96042C14.0092 7.20458 13.8263 7.61408 13.9517 8.24367ZM20.1557 8.27642C20.7331 8.07058 21.0114 7.60633 21.1497 7.06017C20.9237 7.51792 20.5749 7.90075 20.1012 8.13525C19.8469 8.26109 19.6845 8.21717 19.4006 8.19025C19.6893 8.27317 19.8722 8.37742 20.1557 8.27642ZM16.2222 8.74058C16.1481 8.58532 16.016 8.46535 15.8544 8.4065C15.9961 8.33092 16.1352 8.2515 16.2437 8.15275C15.9257 8.29992 15.5557 8.264 15.2828 8.44825C15.0426 8.61058 14.7109 9.12492 14.4667 9.343C14.6436 9.27433 14.814 9.15558 14.9709 9.0305C14.9718 9.14931 15.005 9.26564 15.067 9.36699C15.129 9.46834 15.2174 9.55088 15.3228 9.60575C15.2326 9.72398 15.1607 9.85519 15.1097 9.99492C15.5746 9.44392 16.2487 9.02775 16.8825 8.84983C16.7053 8.84733 16.4956 8.88042 16.2819 8.95067C16.2739 8.87778 16.2537 8.80676 16.2222 8.74058ZM15.5532 12.9041C15.5307 13.0468 15.4997 13.2241 15.4771 13.3668C15.5375 13.2053 15.6102 13.0177 15.6804 12.8637C15.7549 12.7007 15.7968 12.6853 15.9549 12.5993C16.067 12.5383 16.2705 12.4545 16.3826 12.3935C16.2672 12.4129 16.0606 12.4553 15.9452 12.4748C15.6372 12.5268 15.601 12.6008 15.5532 12.9041ZM10.2917 7.3955C9.93424 7.74883 9.58699 8.96133 9.47607 9.4465C9.65082 9.0435 10.0882 7.91617 10.4237 7.62942C10.5163 7.55017 10.5811 7.5015 10.6507 7.46608C10.4105 7.86883 10.4282 7.969 10.5124 8.50858C10.584 7.96 10.7737 7.74808 11.0849 7.33883C11.4261 7.25325 11.7454 7.15067 12.0954 7.01417C11.7012 7.05873 11.3066 7.09968 10.9117 7.137C10.5802 7.16842 10.5268 7.16308 10.2917 7.3955Z" fill="black"/>
<path d="M15.1618 9.4595C15.1306 9.39383 15.1267 9.31845 15.151 9.24992C15.1754 9.18139 15.2259 9.12531 15.2915 9.094C15.3273 9.07704 15.3663 9.068 15.4059 9.06749C15.4455 9.06698 15.4847 9.07501 15.521 9.09104C15.5572 9.10708 15.5895 9.13073 15.6157 9.16039C15.642 9.19005 15.6615 9.22502 15.673 9.26291C15.5425 9.35983 15.4229 9.47383 15.3226 9.606C15.2551 9.57883 15.1953 9.5295 15.1618 9.4595M18.2146 8.2785C18.2256 8.16558 18.3218 8.08233 18.4348 8.09325C18.4891 8.09861 18.5391 8.12526 18.5738 8.16737C18.6085 8.20949 18.6252 8.26365 18.6201 8.318C18.6177 8.34131 18.6115 8.36405 18.6015 8.38525C18.4982 8.403 18.3948 8.43316 18.2883 8.47233C18.2438 8.42675 18.2083 8.34358 18.2146 8.2785Z" fill="#FFFFCC"/>
</g>
<defs>
<clipPath id="clip0_9168_50493">
<rect width="21.3333" height="16" fill="white" transform="translate(1 4)"/>
</clipPath>
</defs>
</svg>
