<svg width="24" height="24" viewBox="0 0 24 24" fill="none" xmlns="http://www.w3.org/2000/svg">
<g clip-path="url(#clip0_8823_45383)">
<rect width="24" height="24" rx="12" fill="#CDFFD5"/>
<path d="M15.5554 9.74225C15.2007 9.74225 14.9121 9.44284 14.9121 9.07507C14.9121 8.7073 15.2007 8.40814 15.5554 8.40814C15.9102 8.40814 16.1988 8.70724 16.1988 9.07507C16.1988 9.4429 15.9102 9.74225 15.5554 9.74225ZM8.44455 9.74225C8.08981 9.74225 7.80126 9.44284 7.80126 9.07507C7.80126 8.7073 8.08976 8.40814 8.44455 8.40814C8.79929 8.40814 9.08784 8.70724 9.08784 9.07507C9.08784 9.4429 8.79935 9.74225 8.44455 9.74225ZM15.7861 5.72453L17.0719 3.41584C17.1073 3.35213 17.1169 3.27646 17.0985 3.20544C17.0802 3.13442 17.0354 3.07385 16.974 3.03702C16.9125 3.00034 16.8396 2.99043 16.7711 3.00946C16.7026 3.02849 16.6441 3.07491 16.6086 3.13853L15.3068 5.4764C14.3112 5.00541 13.1931 4.74299 12 4.74299C10.8069 4.74299 9.68881 5.00541 8.69325 5.4764L7.39135 3.13853C7.35582 3.07491 7.29739 3.02849 7.2289 3.00946C7.1604 2.99043 7.08742 3.00034 7.02596 3.03702C6.96454 3.07382 6.91973 3.13439 6.90137 3.20542C6.88301 3.27645 6.8926 3.35214 6.92804 3.41584L8.21381 5.72453C6.30062 6.80332 4.91141 8.68734 4.43095 10.9524C4.30977 11.5237 4.77497 12.0245 5.35897 12.0245H18.6409C19.2249 12.0245 19.6901 11.5237 19.5689 10.9524C19.0883 8.68736 17.6992 6.80336 15.7861 5.72453Z" fill="#3DDB85"/>
<path d="M5.27503 12.9789C4.72275 12.9789 4.27503 13.4266 4.27503 13.9789V27.5C4.27503 28.0523 4.72275 28.5 5.27503 28.5H18.7249C19.2772 28.5 19.7249 28.0523 19.7249 27.5V13.9789C19.7249 13.4266 19.2772 12.9789 18.7249 12.9789H5.27503Z" fill="#3DDB85"/>
<path d="M1.91667 13.4561C1.41041 13.4561 1 13.8834 1 14.4105V22.0456C1 22.5727 1.41041 23 1.91667 23H2.375C2.88126 23 3.29167 22.5727 3.29167 22.0456V14.4105C3.29167 13.8834 2.88126 13.4561 2.375 13.4561H1.91667Z" fill="#3DDB85"/>
<path d="M21.625 13.4561C21.1187 13.4561 20.7083 13.8834 20.7083 14.4105V22.0456C20.7083 22.5727 21.1187 23 21.625 23H22.0833C22.5896 23 23 22.5727 23 22.0456V14.4105C23 13.8834 22.5896 13.4561 22.0833 13.4561H21.625Z" fill="#3DDB85"/>
</g>
<defs>
<clipPath id="clip0_8823_45383">
<rect width="24" height="24" rx="12" fill="white"/>
</clipPath>
</defs>
</svg>
