<svg width="24" height="24" viewBox="0 0 24 24" fill="none" xmlns="http://www.w3.org/2000/svg">
<rect width="24" height="24" rx="12" fill="#D5CDFF"/>
<g clip-path="url(#clip0_9124_10065)">
<mask id="mask0_9124_10065" style="mask-type:luminance" maskUnits="userSpaceOnUse" x="1" y="6" width="22" height="12">
<path d="M1.30908 11.933C1.30908 15.0389 6.09555 17.5567 11.9997 17.5567C17.9039 17.5567 22.6904 15.0389 22.6904 11.933C22.6904 8.82721 17.9039 6.30933 11.9997 6.30933C6.09555 6.30933 1.30908 8.82721 1.30908 11.933Z" fill="white"/>
</mask>
<g mask="url(#mask0_9124_10065)">
<path d="M1.30908 11.933C1.30908 15.0389 6.09555 17.5567 11.9997 17.5567C17.9039 17.5567 22.6904 15.0389 22.6904 11.933C22.6904 8.82721 17.9039 6.30933 11.9997 6.30933C6.09555 6.30933 1.30908 8.82721 1.30908 11.933Z" fill="url(#paint0_radial_9124_10065)"/>
</g>
<mask id="mask1_9124_10065" style="mask-type:luminance" maskUnits="userSpaceOnUse" x="0" y="5" width="24" height="14">
<path d="M0.86377 5.66898H23.1359V18.1971H0.86377V5.66898Z" fill="white"/>
</mask>
<g mask="url(#mask1_9124_10065)">
<path d="M12.0001 17.1392C17.6737 17.1392 22.2731 14.8083 22.2731 11.933C22.2731 9.05776 17.6737 6.72684 12.0001 6.72684C6.32653 6.72684 1.72705 9.05776 1.72705 11.933C1.72705 14.8083 6.32653 17.1392 12.0001 17.1392Z" fill="#777BB3"/>
</g>
<mask id="mask2_9124_10065" style="mask-type:luminance" maskUnits="userSpaceOnUse" x="0" y="5" width="24" height="14">
<path d="M0.86377 5.66898H23.1359V18.1971H0.86377V5.66898Z" fill="white"/>
</mask>
<g mask="url(#mask2_9124_10065)">
<path d="M7.1179 12.5786C7.58442 12.5786 7.93269 12.4925 8.15305 12.3229C8.37106 12.1551 8.52163 11.8643 8.60055 11.4586C8.67413 11.0794 8.6461 10.8147 8.51726 10.6718C8.38552 10.5259 8.1007 10.4519 7.67072 10.4519H6.92518L6.51187 12.5786H7.1179ZM4.67945 15.1982C4.64484 15.1982 4.61197 15.1828 4.58997 15.156C4.56793 15.1293 4.559 15.0941 4.56561 15.0601L5.66097 9.42437C5.67156 9.36989 5.71932 9.33053 5.77484 9.33053H8.13562C8.87756 9.33053 9.4298 9.53198 9.77691 9.92936C10.1259 10.3288 10.2336 10.8872 10.0972 11.589C10.0417 11.8749 9.94616 12.1404 9.81334 12.3781C9.68036 12.6161 9.50462 12.8363 9.29091 13.0328C9.03509 13.2722 8.74555 13.4458 8.43111 13.548C8.12166 13.6488 7.72424 13.6999 7.24991 13.6999H6.29399L6.021 15.1044C6.0104 15.1589 5.96269 15.1982 5.90716 15.1982H4.67945Z" fill="black"/>
<path d="M7.02061 10.5678H7.67052C8.18947 10.5678 8.36973 10.6817 8.43098 10.7496C8.5326 10.8622 8.55178 11.0998 8.48647 11.4366C8.41308 11.8136 8.27705 12.0809 8.08209 12.231C7.88249 12.3846 7.558 12.4625 7.1177 12.4625H6.65238L7.02061 10.5678ZM8.13541 9.21449H5.7746C5.66355 9.21449 5.56808 9.29322 5.54689 9.40222L4.45153 15.038C4.43831 15.106 4.45617 15.1763 4.50021 15.2298C4.5443 15.2833 4.60995 15.3142 4.67924 15.3142H5.90692C6.01801 15.3142 6.11348 15.2355 6.13467 15.1265L6.38941 13.8159H7.24971C7.73621 13.8159 8.14578 13.7628 8.4669 13.6582C8.79716 13.5509 9.101 13.369 9.36993 13.1175C9.59235 12.9129 9.77555 12.6832 9.91436 12.4348C10.0532 12.1862 10.153 11.9091 10.2109 11.6111C10.3545 10.8724 10.2378 10.2809 9.86406 9.85304C9.49394 9.42933 8.91231 9.21449 8.13541 9.21449ZM6.37092 12.6945H7.1177C7.61267 12.6945 7.98136 12.6013 8.22361 12.4148C8.4659 12.2283 8.62931 11.917 8.71422 11.4807C8.79546 11.0619 8.75845 10.7663 8.60321 10.5941C8.44776 10.4219 8.13692 10.3358 7.67052 10.3358H6.82936L6.37092 12.6945ZM8.13541 9.4465C8.84561 9.4465 9.36371 9.63287 9.68936 10.0057C10.015 10.3784 10.113 10.8988 9.98311 11.5668C9.92964 11.842 9.8392 12.0936 9.71186 12.3216C9.58438 12.5497 9.41792 12.7582 9.21221 12.9474C8.96706 13.1768 8.69473 13.3403 8.39506 13.4376C8.09539 13.5353 7.71371 13.5839 7.24971 13.5839H6.19812L5.90692 15.0822H4.67924L5.7746 9.4465H8.13541Z" fill="white"/>
<path d="M12.9119 13.6999C12.8773 13.6999 12.8444 13.6844 12.8224 13.6577C12.8004 13.6309 12.7914 13.5958 12.798 13.5618L13.2826 11.0682C13.3287 10.831 13.3173 10.6608 13.2506 10.5889C13.2098 10.5449 13.0871 10.4712 12.7245 10.4712H11.8466L11.2374 13.606C11.2268 13.6605 11.1791 13.6999 11.1236 13.6999H9.90556C9.87091 13.6999 9.83808 13.6844 9.81604 13.6577C9.794 13.6309 9.78507 13.5958 9.79168 13.5618L10.887 7.92602C10.8976 7.87154 10.9454 7.83218 11.0009 7.83218H12.2189C12.2536 7.83218 12.2864 7.84764 12.3084 7.87436C12.3305 7.90112 12.3394 7.93627 12.3328 7.97029L12.0685 9.33052H13.0128C13.7322 9.33052 14.22 9.45735 14.5041 9.71827C14.7938 9.98446 14.8841 10.4101 14.7728 10.9834L14.2631 13.606C14.2525 13.6605 14.2048 13.6999 14.1493 13.6999H12.9119Z" fill="black"/>
<path d="M12.2187 7.71614H11.0007C10.8896 7.71614 10.7942 7.79487 10.773 7.90387L9.67761 13.5396C9.66438 13.6076 9.68225 13.678 9.72633 13.7314C9.77041 13.7849 9.83606 13.8159 9.90536 13.8159H11.1234C11.2344 13.8159 11.3299 13.7371 11.3511 13.6281L11.9421 10.5872H12.7243C13.0863 10.5872 13.1623 10.6645 13.1653 10.6678C13.1873 10.6914 13.2162 10.8009 13.1685 11.046L12.684 13.5396C12.6707 13.6076 12.6886 13.678 12.7327 13.7314C12.7768 13.7849 12.8424 13.8159 12.9117 13.8159H14.1491C14.2601 13.8159 14.3556 13.7371 14.3768 13.6281L14.8864 11.0055C15.006 10.3899 14.9037 9.92812 14.5824 9.63286C14.2759 9.35133 13.7624 9.21449 13.0126 9.21449H12.2089L12.4465 7.99242C12.4597 7.9244 12.4418 7.85403 12.3978 7.80059C12.3537 7.74711 12.288 7.71614 12.2187 7.71614ZM12.2187 7.94814L11.9275 9.44649H13.0126C13.6953 9.44649 14.1663 9.56566 14.4254 9.80369C14.6846 10.0419 14.7623 10.4278 14.6587 10.9613L14.1491 13.5839H12.9117L13.3962 11.0903C13.4514 10.8066 13.4311 10.6131 13.3354 10.51C13.2396 10.4068 13.0359 10.3552 12.7243 10.3552H11.7508L11.1234 13.5839H9.90536L11.0007 7.94814H12.2187Z" fill="white"/>
<path d="M16.6999 12.5786C17.1664 12.5786 17.5147 12.4925 17.7351 12.3229C17.9531 12.1551 18.1037 11.8643 18.1826 11.4586C18.2562 11.0794 18.2282 10.8147 18.0993 10.6718C17.9675 10.5259 17.6827 10.4519 17.2527 10.4519H16.5072L16.0939 12.5786H16.6999ZM14.2615 15.1982C14.2269 15.1982 14.194 15.1828 14.172 15.156C14.15 15.1293 14.141 15.0941 14.1476 15.0601L15.243 9.42437C15.2536 9.36989 15.3013 9.33053 15.3569 9.33053H17.7176C18.4596 9.33053 19.0118 9.53198 19.359 9.92936C19.7079 10.3288 19.8157 10.8872 19.6793 11.589C19.6237 11.8749 19.5282 12.1404 19.3954 12.3781C19.2624 12.6161 19.0866 12.8363 18.8729 13.0328C18.6171 13.2722 18.3276 13.4458 18.0131 13.548C17.7037 13.6488 17.3063 13.6999 16.8319 13.6999H15.876L15.6031 15.1044C15.5925 15.1589 15.5448 15.1982 15.4892 15.1982H14.2615Z" fill="black"/>
<path d="M16.6031 10.5678H17.253C17.772 10.5678 17.9522 10.6817 18.0135 10.7496C18.1151 10.8622 18.1343 11.0998 18.069 11.4365C17.9956 11.8136 17.8595 12.0809 17.6646 12.231C17.465 12.3846 17.1405 12.4625 16.7002 12.4625H16.2349L16.6031 10.5678ZM17.7179 9.21449H15.3571C15.2461 9.21449 15.1506 9.29322 15.1294 9.40222L14.0341 15.038C14.0208 15.106 14.0387 15.1763 14.0827 15.2298C14.1268 15.2833 14.1925 15.3142 14.2618 15.3142H15.4894C15.6005 15.3142 15.696 15.2355 15.7172 15.1265L15.9719 13.8159H16.8322C17.3187 13.8159 17.7283 13.7628 18.0494 13.6582C18.3796 13.5509 18.6836 13.369 18.9525 13.1174C19.1749 12.9128 19.358 12.6832 19.4968 12.4348C19.6357 12.1862 19.7355 11.9091 19.7933 11.6111C19.937 10.8723 19.8203 10.2808 19.4465 9.853C19.0764 9.42933 18.4948 9.21449 17.7179 9.21449ZM15.9534 12.6945H16.7002C17.1952 12.6945 17.5638 12.6013 17.8061 12.4148C18.0484 12.2283 18.2118 11.917 18.2967 11.4807C18.378 11.0619 18.341 10.7663 18.1857 10.5941C18.0302 10.4219 17.7194 10.3358 17.253 10.3358H16.4118L15.9534 12.6945ZM17.7179 9.4465C18.4281 9.4465 18.9462 9.63287 19.2718 10.0057C19.5975 10.3784 19.6955 10.8988 19.5656 11.5668C19.5121 11.842 19.4217 12.0936 19.2943 12.3216C19.1669 12.5497 19.0004 12.7582 18.7947 12.9474C18.5495 13.1768 18.2772 13.3403 17.9775 13.4376C17.6779 13.5353 17.2962 13.5839 16.8322 13.5839H15.7806L15.4894 15.0822H14.2618L15.3571 9.4465H17.7179Z" fill="white"/>
</g>
</g>
<defs>
<radialGradient id="paint0_radial_9124_10065" cx="0" cy="0" r="1" gradientUnits="userSpaceOnUse" gradientTransform="translate(7.7278 8.28644) scale(14.0384)">
<stop stop-color="#AEB2D5"/>
<stop offset="0.3" stop-color="#AEB2D5"/>
<stop offset="0.75" stop-color="#484C89"/>
<stop offset="1" stop-color="#484C89"/>
</radialGradient>
<clipPath id="clip0_9124_10065">
<rect width="22" height="11.866" fill="white" transform="translate(1 6)"/>
</clipPath>
</defs>
</svg>
