<svg width="24" height="24" viewBox="0 0 24 24" fill="none" xmlns="http://www.w3.org/2000/svg">
<rect width="24" height="24" rx="12" fill="#FFF6CD"/>
<path d="M3.00049 12.4643C3.7014 11.7634 4.47238 11.0625 5.17329 10.3616C5.31348 10.2214 5.45368 10.2214 5.59387 10.3616C6.22468 10.9924 6.85551 11.6232 7.48633 12.2541C7.62651 12.3942 7.69661 12.5344 7.48633 12.6746C6.64524 13.5157 5.80412 14.3568 4.96303 15.1979C4.75276 15.4082 4.68266 15.3381 4.47238 15.1979C3.98175 14.7072 3.56122 14.1465 3.00049 13.726C3.00049 13.3755 3.00049 12.955 3.00049 12.4643Z" fill="#F38027"/>
<path d="M11.3409 3.00208C11.4811 3.07217 11.6212 3.14226 11.7614 3.28244C12.3922 3.91326 13.0231 4.54408 13.6539 5.1749C13.7941 5.31508 13.8642 5.38517 13.6539 5.52535C12.953 6.15617 12.3221 6.85708 11.6212 7.55799C11.4811 7.69817 11.411 7.69817 11.2708 7.55799C10.4297 6.7169 9.51849 5.80572 8.6774 4.96462C8.53722 4.82444 8.53722 4.68426 8.6774 4.54408C9.16804 4.05344 9.72879 3.5628 10.1493 3.00208C10.5699 3.00208 10.9203 3.00208 11.3409 3.00208Z" fill="#F38027"/>
<path d="M9.3086 17.5109C9.3086 18.1417 9.3086 18.7024 9.3086 19.3332C9.3086 19.5435 9.23849 19.6136 9.02821 19.6136C8.3273 19.6136 7.69651 19.6136 6.9956 19.6136C6.85542 19.6136 6.78533 19.5435 6.64514 19.4734C6.15451 18.9828 5.80405 18.4921 5.94423 17.7912C6.01433 17.0903 5.94423 16.3894 5.94423 15.6885C5.94423 15.4782 6.0143 15.4081 6.22457 15.4081C7.13576 15.4081 8.11703 15.4081 9.02821 15.4081C9.23849 15.4081 9.3086 15.4782 9.3086 15.6885C9.3086 16.2492 9.3086 16.8801 9.3086 17.5109Z" fill="#F3822A"/>
<path d="M14.6362 6.5066C14.6362 5.87578 14.6362 5.31505 14.6362 4.68423C14.6362 4.47396 14.7063 4.40387 14.9166 4.40387C15.6175 4.40387 16.2484 4.40387 16.9493 4.40387C17.0895 4.40387 17.1595 4.47396 17.2997 4.54405C17.7904 5.03469 18.1408 5.52533 18.0006 6.22624C17.9305 6.92715 18.0006 7.62806 18.0006 8.32897C18.0006 8.53924 17.9305 8.60933 17.7203 8.60933C16.8091 8.60933 15.8278 8.60933 14.9166 8.60933C14.7063 8.60933 14.6362 8.53924 14.6362 8.32897C14.6362 7.69815 14.6362 7.06733 14.6362 6.5066Z" fill="#F3822A"/>
<path d="M17.4379 14.6371C18.0687 14.6371 18.6294 14.6371 19.3304 14.6371C19.5406 14.6371 19.6107 14.7072 19.6107 14.9175C19.6107 15.5483 19.6107 16.2492 19.6107 16.8801C19.6107 17.0202 19.5406 17.1604 19.4705 17.3006C18.9799 17.7912 18.4893 18.0716 17.7183 18.0015C17.0174 17.9314 16.3865 18.0015 15.6856 18.0015C15.4753 18.0015 15.4053 18.0015 15.4053 17.7211C15.4053 16.81 15.4053 15.8287 15.4053 14.9175C15.4053 14.7072 15.4753 14.6371 15.6856 14.6371C16.2463 14.6371 16.8772 14.6371 17.4379 14.6371Z" fill="#F3822A"/>
<path d="M6.50605 9.38036C5.87523 9.38036 5.31452 9.38036 4.6837 9.38036C4.47343 9.38036 4.40332 9.31027 4.40332 9.1C4.40332 8.39909 4.40332 7.76826 4.40332 7.13745C4.40332 6.99726 4.47342 6.85708 4.54351 6.78699C5.03415 6.29635 5.52479 5.9459 6.29579 6.08608C6.9967 6.15617 7.62749 6.08608 8.3284 6.08608C8.53867 6.08608 8.60878 6.08608 8.60878 6.36644C8.60878 7.27763 8.60878 8.2589 8.60878 9.17009C8.60878 9.38036 8.53867 9.45045 8.3284 9.45045C7.69758 9.31027 7.06678 9.38036 6.50605 9.38036Z" fill="#F38027"/>
<path d="M20.9432 10.7822C21.0834 11.3429 20.8031 11.7634 20.3825 12.1139C19.8218 12.6045 19.3311 13.1653 18.8405 13.6559C18.7003 13.7961 18.6302 13.7961 18.49 13.6559C17.8592 12.955 17.1583 12.3242 16.5275 11.6934C16.3873 11.5532 16.3873 11.4831 16.5275 11.3429C17.3686 10.5018 18.2097 9.66071 19.0508 8.74953C19.191 8.53926 19.3311 8.60935 19.5414 8.74953C19.8919 9.17008 20.3124 9.59062 20.733 9.94108C20.9432 10.1513 21.0834 10.4317 20.9432 10.7822Z" fill="#F38027"/>
<path d="M13.1637 20.9453C12.673 21.0154 12.3226 20.8051 12.0422 20.4547C11.5516 19.894 10.9207 19.3332 10.36 18.7725C10.2198 18.6323 10.2198 18.4921 10.36 18.3519C10.9908 17.7211 11.6217 17.0903 12.2525 16.4595C12.3927 16.3193 12.5328 16.2492 12.673 16.4595C13.5141 17.3006 14.3552 18.1417 15.1963 18.9828C15.3365 19.123 15.3365 19.2631 15.1963 19.4033C14.8459 19.7538 14.4253 20.1042 14.0748 20.5248C13.8646 20.9453 13.5141 21.0855 13.1637 20.9453Z" fill="#F38027"/>
</svg>
