<svg width="24" height="24" viewBox="0 0 24 24" fill="none" xmlns="http://www.w3.org/2000/svg">
<rect width="24" height="24" rx="12" fill="#D6EBFF"/>
<g clip-path="url(#clip0_9168_50860)">
<path d="M17.7008 6.82581C17.075 6.82581 16.475 6.95247 15.95 7.20497C15.3375 6.10414 14.1758 5.34581 12.8758 5.34581C12.3999 5.3458 11.9289 5.44358 11.4923 5.63309C11.0557 5.8226 10.6626 6.09979 10.3375 6.44747L10.325 6.43497C9.95934 5.9611 9.48956 5.5777 8.95201 5.31442C8.41447 5.05114 7.82357 4.91504 7.22501 4.91664C5.10001 4.91664 3.35001 6.66164 3.35001 8.83747C3.35001 9.38247 3.46251 9.91331 3.67501 10.3941C3.16301 10.6998 2.73936 11.1334 2.44568 11.6524C2.152 12.1714 1.99842 12.7578 2.00001 13.3541C2.00001 15.2516 3.50085 16.7691 5.33751 16.7691C5.57501 16.7691 5.80001 16.7575 6.02501 16.7058C6.27424 17.4014 6.73218 18.0031 7.33626 18.4287C7.94034 18.8542 8.66109 19.0828 9.40001 19.0833C10.1088 19.0821 10.8013 18.8715 11.3907 18.4778C11.9801 18.0841 12.44 17.5251 12.7125 16.8708C13.125 17.0608 13.5875 17.1866 14.0875 17.1866C14.6517 17.1868 15.2054 17.034 15.6897 16.7445C16.1739 16.455 16.5706 16.0396 16.8375 15.5425C17.1133 15.5933 17.4 15.63 17.6875 15.63C20.075 15.63 22.0008 13.6566 22.0008 11.2283C22.0008 8.79997 20.075 6.82581 17.7008 6.82581Z" fill="#22A0E0"/>
</g>
<defs>
<clipPath id="clip0_9168_50860">
<rect width="20" height="20" fill="white" transform="translate(2 2)"/>
</clipPath>
</defs>
</svg>
