<svg width="24" height="24" viewBox="0 0 24 24" fill="none" xmlns="http://www.w3.org/2000/svg">
<rect width="24" height="24" rx="12" fill="#D6EBFF"/>
<path d="M9.2507 4.22699H14.1328L9.0647 19.2433C9.01261 19.3976 8.91345 19.5317 8.78116 19.6267C8.64887 19.7217 8.49012 19.7728 8.32727 19.7728H4.52777C4.40437 19.7728 4.28275 19.7435 4.17296 19.6871C4.06317 19.6308 3.96837 19.5492 3.89639 19.4489C3.82442 19.3487 3.77735 19.2328 3.75906 19.1108C3.74078 18.9887 3.75182 18.8641 3.79127 18.7472L8.51308 4.75649C8.56515 4.60213 8.66433 4.46798 8.79666 4.37296C8.92899 4.27793 9.08779 4.227 9.2507 4.22699Z" fill="url(#paint0_linear_8823_45412)"/>
<path d="M16.3452 14.299H8.60334C8.53136 14.2989 8.46103 14.3205 8.40151 14.3609C8.34198 14.4014 8.29602 14.4588 8.26961 14.5258C8.24321 14.5928 8.23758 14.6661 8.25346 14.7363C8.26934 14.8065 8.306 14.8703 8.35865 14.9194L13.3334 19.5626C13.4782 19.6977 13.669 19.7729 13.867 19.7728H18.2508L16.3452 14.299Z" fill="#0078D4"/>
<path d="M9.25069 4.227C9.086 4.22636 8.92542 4.27841 8.79241 4.37553C8.6594 4.47264 8.56093 4.60975 8.51138 4.76681L3.79706 18.7344C3.75496 18.8518 3.74175 18.9775 3.75853 19.1011C3.77531 19.2246 3.8216 19.3423 3.89348 19.4441C3.96536 19.546 4.06071 19.629 4.17147 19.6862C4.28224 19.7435 4.40515 19.7731 4.52981 19.7728H8.42738C8.57254 19.7469 8.70821 19.6829 8.82054 19.5873C8.93288 19.4918 9.01784 19.3682 9.06675 19.2291L10.0069 16.4584L13.365 19.5906C13.5057 19.707 13.6823 19.7713 13.8649 19.7728H18.2323L16.3168 14.2989L10.7329 14.3002L14.1504 4.227H9.25069Z" fill="url(#paint1_linear_8823_45412)"/>
<path d="M15.4866 4.75576C15.4347 4.60164 15.3356 4.46771 15.2035 4.37286C15.0714 4.278 14.9128 4.22699 14.7501 4.22701H9.30908C9.47173 4.22701 9.63027 4.27804 9.7624 4.37289C9.89452 4.46775 9.99356 4.60165 10.0456 4.75576L14.7676 18.747C14.8071 18.8639 14.8181 18.9886 14.7999 19.1107C14.7816 19.2327 14.7345 19.3487 14.6626 19.449C14.5906 19.5492 14.4958 19.6309 14.386 19.6873C14.2762 19.7436 14.1545 19.773 14.0311 19.773H19.4723C19.5957 19.773 19.7174 19.7436 19.8271 19.6872C19.9369 19.6308 20.0317 19.5491 20.1037 19.4489C20.1756 19.3486 20.2227 19.2327 20.2409 19.1106C20.2592 18.9886 20.2481 18.8639 20.2086 18.747L15.4866 4.75576Z" fill="url(#paint2_linear_8823_45412)"/>
<defs>
<linearGradient id="paint0_linear_8823_45412" x1="11.0301" y1="5.37899" x2="5.95989" y2="20.3576" gradientUnits="userSpaceOnUse">
<stop stop-color="#114A8B"/>
<stop offset="1" stop-color="#0669BC"/>
</linearGradient>
<linearGradient id="paint1_linear_8823_45412" x1="12.6139" y1="12.3594" x2="11.4411" y2="12.756" gradientUnits="userSpaceOnUse">
<stop stop-opacity="0.3"/>
<stop offset="0.071" stop-opacity="0.2"/>
<stop offset="0.321" stop-opacity="0.1"/>
<stop offset="0.623" stop-opacity="0.05"/>
<stop offset="1" stop-opacity="0"/>
</linearGradient>
<linearGradient id="paint2_linear_8823_45412" x1="11.9691" y1="4.94213" x2="17.5347" y2="19.7698" gradientUnits="userSpaceOnUse">
<stop stop-color="#3CCBF4"/>
<stop offset="1" stop-color="#2892DF"/>
</linearGradient>
</defs>
</svg>
