<svg width="24" height="24" viewBox="0 0 24 24" fill="none" xmlns="http://www.w3.org/2000/svg">
<rect width="24" height="24" rx="12" fill="#E7FFCD"/>
<g clip-path="url(#clip0_9168_50856)">
<path d="M16.2198 18.9C18.3198 17.34 19.6398 14.82 19.6398 12C19.6398 7.19999 15.7398 3.29999 10.9398 3.29999C6.1998 3.29999 2.2998 7.19999 2.2998 12C2.2998 16.68 6.0198 20.52 10.6998 20.64H19.6398V18.9H16.2198ZM4.1598 12C4.1598 8.21999 7.2198 5.15999 10.9998 5.15999C14.7798 5.15999 17.8398 8.21999 17.8398 12C17.8398 15.78 14.7798 18.84 10.9998 18.84C7.2198 18.84 4.1598 15.78 4.1598 12Z" fill="#C4E86B"/>
<path d="M15.08 7.8C14 6.72 12.62 6.12 11.06 6.12C9.56 6.12 8.12 6.72 7.04 7.8C4.82 10.02 4.82 13.68 7.04 15.96L7.16 15.84C6.92 15.6 5.78 14.22 5.78 11.88C5.78 9.42 7.58 7.44 10.4 7.2C10.58 7.2 10.82 7.14 11 7.14C12.26 7.14 13.4 7.62 14.3 8.52C16.1 10.38 16.1 13.44 14.3 15.3L15.02 15.96C17.3 13.68 17.3 10.02 15.08 7.8Z" fill="#C4E86B"/>
<path d="M13.8799 8.99999C13.1599 8.21999 12.1399 7.79999 11.1199 7.79999C10.0399 7.79999 9.07986 8.21999 8.35986 8.99999C6.85986 10.56 6.85986 13.08 8.35986 14.64L8.53986 14.46C7.93986 13.8 7.63986 12.9 7.63986 12C7.63986 10.14 9.07986 8.63999 10.9399 8.63999C12.9799 8.63999 14.3599 10.2 14.2399 12C14.1799 12.6 13.8799 13.32 13.3399 13.92L13.9999 14.58C15.3799 13.14 15.3799 10.56 13.8799 8.99999Z" fill="#C4E86B"/>
<path d="M12.6807 10.26C12.2607 9.83998 11.7207 9.59998 11.1207 9.59998C10.5207 9.59998 9.98066 9.83998 9.56066 10.26C8.72066 11.1 8.72066 12.54 9.56066 13.38L9.74066 13.2C9.44066 12.9 9.20066 12.42 9.20066 11.88C9.20066 10.92 9.92066 10.14 10.7607 10.14C11.4807 10.14 12.0807 10.68 12.2607 11.34C12.3207 11.46 12.3207 11.52 12.3207 11.64C12.3207 11.7 12.3207 11.76 12.3207 11.82C12.3207 12.18 12.2607 12.48 12.0807 12.72L12.6207 13.26C13.5207 12.54 13.5207 11.16 12.6807 10.26Z" fill="#C4E86B"/>
</g>
<defs>
<clipPath id="clip0_9168_50856">
<rect width="18" height="18" fill="white" transform="translate(2 3)"/>
</clipPath>
</defs>
</svg>
