<svg width="24" height="24" viewBox="0 0 24 24" fill="none" xmlns="http://www.w3.org/2000/svg">
<rect width="24" height="24" rx="12" fill="#D6EBFF"/>
<path d="M17.8955 15.8281C17.1337 15.8087 16.5434 15.8863 16.0482 16.0997C15.9054 16.1578 15.6769 16.1579 15.6578 16.3422C15.734 16.4198 15.7435 16.5459 15.8102 16.6526C15.9246 16.8466 16.1244 17.1085 16.3053 17.2444C16.5052 17.3995 16.7053 17.5547 16.9147 17.6905C17.286 17.9233 17.7051 18.0591 18.0669 18.2919C18.2764 18.4276 18.4858 18.6024 18.6953 18.7478C18.8 18.8253 18.8666 18.9516 19 19V18.971C18.9333 18.8836 18.9142 18.7575 18.8476 18.6605C18.7525 18.5635 18.6572 18.4762 18.5619 18.3792C18.2858 18.0009 17.9431 17.6711 17.5717 17.3995C17.2671 17.1861 16.6005 16.8951 16.4767 16.5362C16.4767 16.5362 16.4671 16.5265 16.4577 16.5168C16.6671 16.4974 16.9147 16.4198 17.1147 16.3616C17.4384 16.2743 17.7336 16.2937 18.0669 16.2064C18.2192 16.1676 18.3715 16.1191 18.5239 16.0706V15.9833C18.3526 15.8087 18.2288 15.5759 18.0478 15.411C17.5622 14.9841 17.0289 14.5671 16.4767 14.2179C16.1815 14.0239 15.8006 13.8977 15.4864 13.7329C15.3722 13.6746 15.1817 13.6456 15.1151 13.5486C14.9436 13.3352 14.8484 13.0539 14.7247 12.8017C14.4486 12.2681 14.1819 11.6765 13.9439 11.1139C13.7726 10.7356 13.6678 10.3572 13.4583 10.0081C12.4776 8.35905 11.4111 7.35994 9.77339 6.38018C9.42105 6.17651 9.0021 6.0892 8.55458 5.98254C8.31662 5.97279 8.07849 5.95344 7.84047 5.94368C7.68811 5.87578 7.53574 5.69151 7.40242 5.6042C6.85978 5.25496 5.45998 4.49843 5.06007 5.49754C4.80296 6.12801 5.44099 6.74877 5.6599 7.06896C5.8219 7.29203 6.03129 7.54421 6.14557 7.79644C6.21223 7.96125 6.23122 8.13598 6.29788 8.31054C6.4503 8.73723 6.59303 9.21264 6.79307 9.61039C6.89782 9.81406 7.01204 10.0274 7.14536 10.2118C7.22154 10.3184 7.35481 10.367 7.38343 10.5415C7.25016 10.7356 7.24059 11.0266 7.16435 11.2691C6.82158 12.3652 6.95496 13.7232 7.44051 14.5283C7.59282 14.7707 7.95469 15.3044 8.4403 15.1006C8.86883 14.926 8.7736 14.3731 8.89729 13.8881C8.92597 13.7716 8.90692 13.6941 8.96401 13.6165V13.6359C9.09733 13.9074 9.23059 14.1694 9.35439 14.441C9.6496 14.9163 10.1637 15.411 10.5922 15.7409C10.8208 15.9154 11.0017 16.2161 11.2874 16.3228V16.2937H11.2683C11.2111 16.2063 11.1254 16.1676 11.0493 16.0996C10.8779 15.9251 10.6874 15.7117 10.5542 15.5177C10.1543 14.9744 9.80191 14.373 9.48771 13.7522C9.3354 13.4516 9.20202 13.1218 9.07828 12.8211C9.02109 12.7046 9.02109 12.53 8.92591 12.4719C8.78307 12.6853 8.57362 12.8696 8.46887 13.1315C8.28805 13.5486 8.26895 14.0627 8.20229 14.5961C8.16419 14.6059 8.18319 14.5961 8.16414 14.6156C7.85952 14.5379 7.75477 14.2179 7.64044 13.9463C7.35475 13.2576 7.30714 12.1518 7.55479 11.3564C7.62145 11.1527 7.90713 10.5125 7.79286 10.3185C7.73572 10.1341 7.54521 10.0274 7.44051 9.88197C7.31677 9.69764 7.1834 9.46493 7.09774 9.26115C6.8692 8.71794 6.75492 8.11652 6.50738 7.57331C6.39311 7.32108 6.19324 7.05926 6.03129 6.82643C5.85041 6.56456 5.65043 6.38018 5.50759 6.0698C5.46003 5.96314 5.39332 5.78852 5.4695 5.67211C5.48855 5.5945 5.52658 5.56545 5.60282 5.54605C5.72662 5.43928 6.07896 5.5751 6.20265 5.6333C6.555 5.77871 6.85015 5.91464 7.14536 6.11831C7.27862 6.21532 7.42147 6.39964 7.59282 6.44815H7.7928C8.09753 6.516 8.44025 6.46755 8.72593 6.5548C9.23064 6.71967 9.68763 6.96219 10.0971 7.22413C11.3445 8.02921 12.3727 9.17384 13.0679 10.5415C13.1822 10.7645 13.2298 10.9684 13.3345 11.2011C13.5345 11.6765 13.7821 12.1615 13.9819 12.6271C14.1819 13.0829 14.3723 13.5486 14.658 13.9269C14.8009 14.1305 15.3721 14.2373 15.6292 14.344C15.8197 14.4313 16.1149 14.5089 16.2863 14.6156C16.61 14.8192 16.9337 15.0521 17.2384 15.2751C17.3908 15.3916 17.8668 15.6341 17.8955 15.8281Z" fill="#00546B"/>
<path d="M8.1833 7.39862C8.02146 7.39862 7.90724 7.41813 7.79297 7.44718V7.46658H7.81201C7.88825 7.6218 8.02146 7.72852 8.11664 7.86428C8.19287 8.01944 8.25948 8.17471 8.33572 8.32993C8.34518 8.32018 8.35471 8.31053 8.35471 8.31053C8.48808 8.21346 8.55469 8.0583 8.55469 7.82547C8.49755 7.75762 8.48803 7.68971 8.44041 7.6218C8.38333 7.52474 8.25948 7.47629 8.1833 7.39862Z" fill="#00546B"/>
</svg>
