<svg width="24" height="24" viewBox="0 0 24 24" fill="none" xmlns="http://www.w3.org/2000/svg">
<rect width="24" height="24" rx="12" fill="#D6EBFF"/>
<g clip-path="url(#clip0_9168_50866)">
<path d="M12.2328 13.1628C15.3153 13.1628 17.8142 10.6639 17.8142 7.5814C17.8142 4.49888 15.3153 2 12.2328 2C9.15024 2 6.65137 4.49888 6.65137 7.5814C6.65137 10.6639 9.15024 13.1628 12.2328 13.1628Z" fill="#036C70"/>
<path d="M16.8839 17.814C19.7095 17.814 22.0001 15.5233 22.0001 12.6977C22.0001 9.87206 19.7095 7.58142 16.8839 7.58142C14.0582 7.58142 11.7676 9.87206 11.7676 12.6977C11.7676 15.5233 14.0582 17.814 16.8839 17.814Z" fill="#1A9BA1"/>
<path d="M12.93 21.5349C15.1135 21.5349 16.8835 19.7649 16.8835 17.5814C16.8835 15.398 15.1135 13.6279 12.93 13.6279C10.7466 13.6279 8.97656 15.398 8.97656 17.5814C8.97656 19.7649 10.7466 21.5349 12.93 21.5349Z" fill="#37C6D0"/>
<path opacity="0.1" d="M13.1628 7.0372V16.9628C13.1605 17.3077 12.9515 17.6175 12.6326 17.7488C12.5311 17.7918 12.4219 17.8139 12.3117 17.8139H8.98144C8.9768 17.7349 8.9768 17.6605 8.9768 17.5814C8.97525 17.5037 8.97835 17.4261 8.9861 17.3488C9.07123 15.8621 9.98715 14.5503 11.3535 13.9581V13.093C8.31257 12.6111 6.23802 9.75526 6.71991 6.71428C6.72326 6.69322 6.72671 6.67217 6.73029 6.65115C6.75344 6.49429 6.78607 6.33896 6.82797 6.18604H12.3117C12.781 6.18782 13.1611 6.56786 13.1628 7.0372Z" fill="black"/>
<path opacity="0.2" d="M11.8467 6.65118H6.73038C6.21354 9.68668 8.25531 12.5664 11.2908 13.0833C11.3827 13.0989 11.475 13.1123 11.5676 13.1233C10.1257 13.807 9.07503 15.7489 8.98573 17.3489C8.97799 17.4261 8.97488 17.5038 8.97642 17.5814C8.97642 17.6605 8.97642 17.7349 8.98107 17.814C8.98946 17.9703 9.00968 18.1258 9.04153 18.2791H11.8462C12.1911 18.2768 12.5009 18.0678 12.6322 17.7489C12.6752 17.6473 12.6973 17.5382 12.6973 17.4279V7.50235C12.6956 7.03319 12.3158 6.65323 11.8467 6.65118Z" fill="black"/>
<path opacity="0.2" d="M11.8466 6.65118H6.73034C6.21361 9.68696 8.25569 12.5668 11.2915 13.0836C11.3536 13.0941 11.4158 13.1037 11.4783 13.1121C10.0829 13.8451 9.07361 15.7824 8.98616 17.3489H11.8466C12.3152 17.3453 12.6942 16.9663 12.6978 16.4977V7.50235C12.696 7.03301 12.316 6.65297 11.8466 6.65118Z" fill="black"/>
<path opacity="0.2" d="M11.3814 6.65118H6.73019C6.24226 9.51699 8.03799 12.2768 10.8558 12.9917C9.78883 14.2107 9.13442 15.7357 8.98601 17.3489H11.3814C11.8507 17.3471 12.2307 16.967 12.2325 16.4977V7.50235C12.2323 7.03238 11.8513 6.65145 11.3814 6.65118Z" fill="black"/>
<path d="M2.85256 6.65118H11.38C11.8509 6.65118 12.2326 7.03289 12.2326 7.50374V16.0312C12.2326 16.502 11.8509 16.8837 11.38 16.8837H2.85256C2.3817 16.8837 2 16.502 2 16.0312V7.50374C2 7.03289 2.3817 6.65118 2.85256 6.65118Z" fill="url(#paint0_linear_9168_50866)"/>
<path d="M5.80776 11.6632C5.60797 11.5307 5.44108 11.3543 5.31985 11.1474C5.20239 10.9312 5.14385 10.6878 5.15008 10.4418C5.13962 10.1087 5.25202 9.78344 5.46589 9.52787C5.69064 9.27199 5.98113 9.0825 6.30589 8.97996C6.67602 8.85813 7.0637 8.7981 7.45333 8.80229C7.96573 8.78357 8.47741 8.85521 8.96496 9.01392V10.0837C8.75312 9.95536 8.52238 9.86118 8.28124 9.80462C8.01958 9.74046 7.7511 9.70828 7.4817 9.7088C7.19761 9.69837 6.91534 9.75812 6.65984 9.88276C6.46259 9.96784 6.33467 10.1619 6.33426 10.3767C6.33346 10.507 6.38352 10.6325 6.4738 10.7265C6.58043 10.8373 6.70656 10.9275 6.84589 10.9925C7.00093 11.0697 7.23349 11.1724 7.54357 11.3004C7.57771 11.3112 7.61099 11.3246 7.6431 11.3404C7.94828 11.4597 8.24269 11.6049 8.5231 11.7744C8.73546 11.9053 8.91368 12.0848 9.04311 12.2981C9.1758 12.5399 9.24011 12.8132 9.22915 13.0888C9.2443 13.4308 9.13968 13.7673 8.93334 14.0405C8.72767 14.2915 8.45269 14.4766 8.14264 14.5725C7.77795 14.6868 7.39733 14.7421 7.01519 14.7363C6.67234 14.7378 6.32999 14.7098 5.99194 14.6525C5.70651 14.6058 5.42796 14.524 5.16264 14.4088V13.2809C5.41625 13.462 5.69959 13.5974 5.99985 13.6809C6.2991 13.7742 6.61017 13.824 6.92357 13.8288C7.21363 13.8472 7.50318 13.7857 7.76078 13.6511C7.94123 13.5493 8.05098 13.3564 8.04637 13.1493C8.04757 13.0051 7.99055 12.8666 7.88823 12.7651C7.76098 12.6402 7.61366 12.5375 7.45242 12.4614C7.26638 12.3684 6.99242 12.2457 6.63056 12.0935C6.34269 11.9777 6.06706 11.8336 5.80776 11.6632Z" fill="white"/>
</g>
<defs>
<linearGradient id="paint0_linear_9168_50866" x1="3.7776" y1="5.98502" x2="10.455" y2="17.5499" gradientUnits="userSpaceOnUse">
<stop stop-color="#058F92"/>
<stop offset="0.5" stop-color="#038489"/>
<stop offset="1" stop-color="#026D71"/>
</linearGradient>
<clipPath id="clip0_9168_50866">
<rect width="20" height="19.5349" fill="white" transform="translate(2 2)"/>
</clipPath>
</defs>
</svg>
