<svg width="24" height="24" viewBox="0 0 24 24" fill="none" xmlns="http://www.w3.org/2000/svg">
<rect width="24" height="24" rx="12" fill="#CDE7FF"/>
<path d="M12.1372 21.7255C17.5842 21.7255 21.9999 17.3098 21.9999 11.8627C21.9999 6.4157 17.5842 2 12.1372 2C6.69011 2 2.27441 6.4157 2.27441 11.8627C2.27441 17.3098 6.69011 21.7255 12.1372 21.7255Z" fill="#004E8C"/>
<path opacity="0.1" d="M5.30116 4.77386C4.29854 5.66731 3.48894 6.7561 2.922 7.9735C2.35505 9.1909 2.04269 10.5113 2.00408 11.8536C1.96546 13.196 2.2014 14.5322 2.69743 15.7801C3.19346 17.0281 3.93913 18.1616 4.88873 19.1112C5.83833 20.0609 6.97186 20.8065 8.21984 21.3026C9.46782 21.7986 10.8039 22.0345 12.1463 21.9959C13.4887 21.9573 14.8091 21.6449 16.0265 21.078C17.2439 20.511 18.3327 19.7014 19.2261 18.6988L5.30116 4.77386Z" fill="white"/>
<path d="M12.5347 7.97928L9.67139 15.7462H8.65738L5.84033 7.97928H6.85434L9.01182 14.1435C9.08622 14.367 9.13886 14.5972 9.16901 14.8308H9.19058C9.22288 14.5911 9.28074 14.3555 9.36318 14.1281L11.5576 7.96387L12.5347 7.97928Z" fill="white"/>
<path d="M13.6538 15.7462V7.97928H15.8637C16.4376 7.94857 17.0036 8.12341 17.4602 8.47242C17.6512 8.62661 17.8039 8.82282 17.9066 9.04576C18.0092 9.26869 18.059 9.51233 18.052 9.75766C18.058 10.1696 17.9292 10.5722 17.6852 10.9042C17.439 11.2348 17.0933 11.4778 16.6989 11.5977V11.6193C17.1759 11.6577 17.6228 11.868 17.9564 12.211C18.279 12.5666 18.4485 13.0351 18.428 13.5147C18.4381 13.8204 18.379 14.1244 18.2552 14.4041C18.1314 14.6837 17.946 14.9318 17.7129 15.1298C17.2085 15.5506 16.5664 15.7701 15.9099 15.7462H13.6538ZM14.5784 8.79912V11.308H15.5031C15.9241 11.3278 16.3383 11.1966 16.6712 10.9381C16.8154 10.8125 16.929 10.6555 17.0033 10.4792C17.0775 10.3029 17.1105 10.112 17.0996 9.92101C17.0996 9.16692 16.6034 8.78988 15.6109 8.78988L14.5784 8.79912ZM14.5784 12.1247V14.9202H15.8113C16.2544 14.9459 16.692 14.8113 17.0441 14.5411C17.191 14.4123 17.307 14.252 17.3833 14.0722C17.4596 13.8923 17.4943 13.6976 17.4849 13.5024C17.4849 12.586 16.8602 12.1278 15.6109 12.1278L14.5784 12.1247Z" fill="white"/>
</svg>
