<svg width="24" height="24" viewBox="0 0 24 24" fill="none" xmlns="http://www.w3.org/2000/svg">
<rect width="24" height="24" rx="12" fill="#D6EBFF"/>
<path d="M2.38941 10.3967C2.35861 10.3967 2.32782 10.3657 2.35861 10.3348L2.57416 10.0254C2.60495 9.99451 2.63574 9.96357 2.69733 9.96357H6.57716C6.60795 9.96357 6.63874 9.99451 6.60795 10.0254L6.4232 10.3039C6.39241 10.3348 6.36161 10.3657 6.30003 10.3657L2.38941 10.3967ZM0.757414 11.3866C0.726622 11.3866 0.695829 11.3557 0.726622 11.3247L0.942168 11.0154C0.97296 10.9844 1.00375 10.9535 1.06534 10.9535H6.0229C6.05369 10.9535 6.08448 10.9844 6.08448 11.0154L5.9921 11.3247C5.9921 11.3557 5.93052 11.3866 5.89973 11.3866H0.757414ZM3.37476 12.4075C3.34397 12.4075 3.31317 12.3765 3.34397 12.3456L3.49793 12.0672C3.52872 12.0363 3.55951 12.0053 3.6211 12.0053H5.77656C5.80735 12.0053 5.83814 12.0363 5.83814 12.0672L5.80735 12.3147C5.80735 12.3456 5.77656 12.3765 5.74577 12.3765L3.37476 12.4075ZM14.6447 10.1801L12.828 10.6442C12.674 10.6751 12.6432 10.706 12.5201 10.5204C12.3661 10.3348 12.2429 10.2111 11.9966 10.1183C11.3192 9.77796 10.6417 9.87077 10.0259 10.2729C9.28688 10.737 8.91737 11.4485 8.91737 12.3456C8.91737 13.2118 9.53322 13.9233 10.3954 14.0471C11.1344 14.1399 11.7503 13.8924 12.2429 13.3355C12.3353 13.2118 12.4277 13.0881 12.5509 12.9334H10.457C10.2414 12.9334 10.1799 12.7787 10.2414 12.5931C10.3954 12.2528 10.6417 11.696 10.7957 11.4175C10.8265 11.3557 10.9189 11.2319 11.0728 11.2319H15.0142C14.9835 11.5413 14.9835 11.8197 14.9527 12.1291C14.8295 12.9024 14.5524 13.6449 14.0597 14.2636C13.2899 15.2845 12.2737 15.9341 10.9805 16.1197C9.90273 16.2744 8.91737 16.0579 8.05519 15.4082C7.25459 14.7895 6.7927 13.9852 6.66954 12.9953C6.51557 11.8197 6.88508 10.737 7.5933 9.8089C8.36311 8.78802 9.37926 8.13838 10.6417 7.92183C11.6579 7.73622 12.6432 7.85996 13.5054 8.44773C14.0905 8.81896 14.4908 9.34486 14.7679 9.99451C14.7987 10.1183 14.7679 10.1492 14.6447 10.1801Z" fill="#00ACD7"/>
<path d="M18.2175 16.2125C17.2321 16.1816 16.3391 15.9032 15.5693 15.2535C14.9227 14.6967 14.5224 13.9852 14.3992 13.1499C14.2145 11.9125 14.5532 10.8298 15.2922 9.87076C16.0928 8.81896 17.0474 8.29305 18.3406 8.04557C19.4491 7.85996 20.4961 7.95276 21.4199 8.60241C22.282 9.19018 22.8055 9.99451 22.9595 11.0463C23.1442 12.5312 22.7131 13.7068 21.7278 14.7276C21.0196 15.4701 20.1266 15.9032 19.1412 16.1197C18.8025 16.1816 18.4946 16.1816 18.2175 16.2125ZM20.804 11.8197C20.804 11.665 20.804 11.5722 20.7732 11.4485C20.5885 10.3657 19.6031 9.74702 18.5562 9.99451C17.54 10.2111 16.8934 10.8607 16.6471 11.8816C16.4623 12.7168 16.8626 13.583 17.6324 13.9543C18.2175 14.2017 18.8333 14.1708 19.3876 13.8924C20.2805 13.4593 20.7424 12.7478 20.804 11.8197Z" fill="#00ACD7"/>
</svg>
