<svg width="24" height="24" viewBox="0 0 24 24" fill="none" xmlns="http://www.w3.org/2000/svg">
<rect width="24" height="24" rx="12" fill="#D5CDFF"/>
<g clip-path="url(#clip0_9168_50842)">
<path d="M10.2379 2.46631L10.1368 2.52809C9.97594 2.62636 9.82443 2.73624 9.68304 2.85629L9.97468 2.64908H12.45L12.9 6.09091L10.65 8.36364L8.4 9.94336V11.765C8.4 13.0372 9.05831 14.217 10.1358 14.8758L12.5045 16.324L7.5 19.2728H6.53479L4.73582 18.1729C3.65829 17.5141 3 16.3343 3 15.062V8.93664C3 7.66395 3.65871 6.48386 4.73678 5.82518L10.1368 2.52585C10.1703 2.5054 10.204 2.48556 10.2379 2.46631Z" fill="url(#paint0_radial_9168_50842)"/>
<path d="M10.2379 2.46631L10.1368 2.52809C9.97594 2.62636 9.82443 2.73624 9.68304 2.85629L9.97468 2.64908H12.45L12.9 6.09091L10.65 8.36364L8.4 9.94336V11.765C8.4 13.0372 9.05831 14.217 10.1358 14.8758L12.5045 16.324L7.5 19.2728H6.53479L4.73582 18.1729C3.65829 17.5141 3 16.3343 3 15.062V8.93664C3 7.66395 3.65871 6.48386 4.73678 5.82518L10.1368 2.52585C10.1703 2.5054 10.204 2.48556 10.2379 2.46631Z" fill="url(#paint1_linear_9168_50842)"/>
<path d="M15.5999 9.72729V11.7638C15.5999 13.0361 14.9416 14.2158 13.864 14.8747L8.46403 18.1763C7.35937 18.8517 5.98494 18.8761 4.86084 18.2494L10.1356 21.4746C11.2816 22.1753 12.718 22.1753 13.864 21.4746L19.264 18.1729C20.3416 17.5141 20.9998 16.3343 20.9998 15.062V13.5909L20.5498 12.9091L15.5999 9.72729Z" fill="url(#paint2_radial_9168_50842)"/>
<path d="M15.5999 9.72729V11.7638C15.5999 13.0361 14.9416 14.2158 13.864 14.8747L8.46403 18.1763C7.35937 18.8517 5.98494 18.8761 4.86084 18.2494L10.1356 21.4746C11.2816 22.1753 12.718 22.1753 13.864 21.4746L19.264 18.1729C20.3416 17.5141 20.9998 16.3343 20.9998 15.062V13.5909L20.5498 12.9091L15.5999 9.72729Z" fill="url(#paint3_linear_9168_50842)"/>
<path d="M19.2631 5.82516L13.8631 2.52584C12.7531 1.84762 11.3708 1.82661 10.244 2.46281L10.1367 2.52835C9.05861 3.18704 8.3999 4.36711 8.3999 5.6398V9.95066L10.1367 8.88948C11.2822 8.18962 12.7176 8.18962 13.8631 8.88948L19.2631 12.1888C20.3075 12.8269 20.9583 13.9543 20.998 15.1812C20.9993 15.1415 20.9999 15.1018 20.9999 15.062V8.93662C20.9999 7.66394 20.3412 6.48385 19.2631 5.82516Z" fill="url(#paint4_radial_9168_50842)"/>
<path d="M19.2631 5.82516L13.8631 2.52584C12.7531 1.84762 11.3708 1.82661 10.244 2.46281L10.1367 2.52835C9.05861 3.18704 8.3999 4.36711 8.3999 5.6398V9.95066L10.1367 8.88948C11.2822 8.18962 12.7176 8.18962 13.8631 8.88948L19.2631 12.1888C20.3075 12.8269 20.9583 13.9543 20.998 15.1812C20.9993 15.1415 20.9999 15.1018 20.9999 15.062V8.93662C20.9999 7.66394 20.3412 6.48385 19.2631 5.82516Z" fill="url(#paint5_linear_9168_50842)"/>
</g>
<defs>
<radialGradient id="paint0_radial_9168_50842" cx="0" cy="0" r="1" gradientUnits="userSpaceOnUse" gradientTransform="translate(9.03837 5.9265) rotate(110.34) scale(15.1477 26.2206)">
<stop offset="0.06441" stop-color="#AE7FE2"/>
<stop offset="1" stop-color="#0078D4"/>
</radialGradient>
<linearGradient id="paint1_linear_9168_50842" x1="9.08036" y1="18.3039" x2="6.90565" y2="14.5802" gradientUnits="userSpaceOnUse">
<stop stop-color="#114A8B"/>
<stop offset="1" stop-color="#0078D4" stop-opacity="0"/>
</linearGradient>
<radialGradient id="paint2_radial_9168_50842" cx="0" cy="0" r="1" gradientUnits="userSpaceOnUse" gradientTransform="translate(5.89332 17.6142) rotate(-8.45047) scale(13.9756 9.32109)">
<stop offset="0.133928" stop-color="#D59DFF"/>
<stop offset="1" stop-color="#5E438F"/>
</radialGradient>
<linearGradient id="paint3_linear_9168_50842" x1="19.3603" y1="12.6258" x2="17.0336" y2="15.9288" gradientUnits="userSpaceOnUse">
<stop stop-color="#493474"/>
<stop offset="1" stop-color="#8C66BA" stop-opacity="0"/>
</linearGradient>
<radialGradient id="paint4_radial_9168_50842" cx="0" cy="0" r="1" gradientUnits="userSpaceOnUse" gradientTransform="translate(19.6747 13.1382) rotate(-165.634) scale(11.2221 19.0589)">
<stop offset="0.0584996" stop-color="#50E6FF"/>
<stop offset="1" stop-color="#436DCD"/>
</radialGradient>
<linearGradient id="paint5_linear_9168_50842" x1="8.83901" y1="2.48028" x2="12.219" y2="2.48028" gradientUnits="userSpaceOnUse">
<stop stop-color="#2D3F80"/>
<stop offset="1" stop-color="#436DCD" stop-opacity="0"/>
</linearGradient>
<clipPath id="clip0_9168_50842">
<rect width="18" height="20" fill="white" transform="translate(3 2)"/>
</clipPath>
</defs>
</svg>
