<svg width="24" height="24" viewBox="0 0 24 24" fill="none" xmlns="http://www.w3.org/2000/svg">
<g clip-path="url(#clip0_8823_45393)">
<rect width="24" height="24" rx="12" fill="#FFF6CD"/>
<g clip-path="url(#clip1_8823_45393)">
<path d="M8.81874 17.4201C8.81874 17.4201 8.01532 17.8848 9.39051 18.042C11.0565 18.2311 11.908 18.204 13.7439 17.8584C13.7439 17.8584 14.2266 18.1594 14.9007 18.4201C10.785 20.1746 5.58608 18.3185 8.81874 17.4201Z" fill="#5382A1"/>
<path d="M8.31562 15.1306C8.31562 15.1306 7.41451 15.794 8.79071 15.9356C10.5704 16.1182 11.9758 16.1332 14.4078 15.6674C14.4078 15.6674 14.7442 16.0066 15.2731 16.1921C10.297 17.6394 4.75446 16.3062 8.31562 15.1306Z" fill="#5382A1"/>
<path d="M12.5556 11.2469C13.5697 12.4082 12.2892 13.4532 12.2892 13.4532C12.2892 13.4532 14.8642 12.131 13.6816 10.4754C12.5771 8.93133 11.7301 8.16416 16.3154 5.51907C16.3154 5.51907 9.11801 7.30704 12.5556 11.2469Z" fill="#F8981D"/>
<path d="M17.9987 19.1135C17.9987 19.1135 18.5932 19.6008 17.3439 19.9777C14.9682 20.6936 7.45623 20.9097 5.36943 20.0063C4.61927 19.6817 6.02602 19.2312 6.46853 19.1367C6.93003 19.0371 7.19375 19.0557 7.19375 19.0557C6.35951 18.4711 1.80152 20.2035 4.87852 20.6996C13.2699 22.0532 20.1753 20.0901 17.9987 19.1135Z" fill="#5382A1"/>
<path d="M9.20491 12.7584C9.20491 12.7584 5.38382 13.6611 7.85177 13.9889C8.89381 14.1277 10.9711 14.0963 12.906 13.9351C14.4874 13.8024 16.0752 13.5203 16.0752 13.5203C16.0752 13.5203 15.5176 13.7578 15.1142 14.0318C11.234 15.0468 3.73805 14.5746 5.89603 13.5363C7.72104 12.6589 9.20491 12.7584 9.20491 12.7584Z" fill="#5382A1"/>
<path d="M16.0597 16.5694C20.0042 14.5307 18.1804 12.5715 16.9075 12.8354C16.5955 12.9 16.4564 12.956 16.4564 12.956C16.4564 12.956 16.5722 12.7755 16.7934 12.6974C19.3117 11.8168 21.2485 15.2947 15.9805 16.6721C15.9805 16.6721 16.0415 16.6179 16.0597 16.5694Z" fill="#5382A1"/>
<path d="M13.6812 1.24796C13.6812 1.24796 15.8657 3.42151 11.6093 6.76381C8.1961 9.44492 10.831 10.9736 11.6079 12.7202C9.61554 10.9322 8.15343 9.35829 9.13433 7.8934C10.5741 5.74307 14.5626 4.70051 13.6812 1.24796Z" fill="#F8981D"/>
<path d="M9.59245 22.0939C13.3786 22.3349 19.1927 21.9601 19.3305 20.1782C19.3305 20.1782 19.0658 20.8537 16.2014 21.3902C12.9698 21.9951 8.98408 21.9245 6.62012 21.5368C6.62012 21.5368 7.10405 21.9352 9.59245 22.0939Z" fill="#5382A1"/>
<path d="M5.08776 30.822C4.80681 31.23 4.35302 31.5528 3.85623 31.7354L3.36963 31.1658C3.74777 30.9728 4.07207 30.6611 4.22275 30.3708C4.35308 30.1126 4.40703 29.7798 4.40703 28.9841V23.5171H5.45411V28.9091C5.45406 29.9731 5.36855 30.4028 5.08776 30.822Z" fill="#5382A1"/>
</g>
</g>
<defs>
<clipPath id="clip0_8823_45393">
<rect width="24" height="24" rx="12" fill="white"/>
</clipPath>
<clipPath id="clip1_8823_45393">
<rect width="17" height="31" fill="white" transform="translate(3 1)"/>
</clipPath>
</defs>
</svg>
