<svg width="24" height="24" viewBox="0 0 24 24" fill="none" xmlns="http://www.w3.org/2000/svg">
<rect width="24" height="24" rx="12" fill="#E7FFCD"/>
<g clip-path="url(#clip0_9168_50858)">
<path d="M5.47403 5H21V15.7061C20.1662 16.5426 19.3297 17.3764 18.4913 18.2078H3V7.46974C3.8213 6.64338 4.64961 5.82325 5.47403 5Z" fill="#41CD52"/>
<path d="M7.76754 7.77912C8.35702 7.38912 9.08598 7.29055 9.77909 7.29678C10.4391 7.30496 11.1318 7.42068 11.6788 7.81457C12.0762 8.09392 12.3345 8.52522 12.5068 8.97133C12.7853 9.70379 12.8671 10.4947 12.8765 11.2731C12.8777 12.057 12.8422 12.8581 12.5827 13.605C12.409 14.113 12.0782 14.5642 11.6418 14.8774C11.9558 15.3863 12.2761 15.8912 12.5901 16.4C12.1955 16.582 11.802 16.7651 11.4069 16.9463C11.0707 16.3915 10.736 15.8355 10.3986 15.2815C9.94234 15.3563 9.47559 15.3504 9.01702 15.2998C8.46767 15.2339 7.9078 15.0664 7.4839 14.6967C7.15819 14.4146 6.95364 14.0199 6.81377 13.6186C6.58468 12.9399 6.52312 12.2176 6.5126 11.5054C6.50715 10.7355 6.55624 9.95354 6.78845 9.21483C6.96806 8.65925 7.26533 8.10483 7.76754 7.77912Z" fill="white"/>
<path d="M14.4595 7.75414C14.8725 7.75375 15.2854 7.75375 15.6984 7.75414C15.6996 8.30037 15.698 8.84622 15.6992 9.39245C16.2271 9.39323 16.7551 9.39245 17.283 9.39284C17.274 9.74738 17.2643 10.1019 17.2541 10.4565C16.7266 10.4576 16.1995 10.4561 15.6719 10.4573C15.6731 11.3526 15.6692 12.2479 15.6739 13.1432C15.684 13.3883 15.6786 13.647 15.7865 13.8734C15.8652 14.0479 16.0771 14.0927 16.2497 14.0986C16.5751 14.0974 16.9 14.0783 17.2253 14.0724C17.2452 14.3982 17.2643 14.7243 17.283 15.05C16.6358 15.1587 15.9567 15.2888 15.3139 15.0854C15.0431 15.0052 14.7906 14.8256 14.6808 14.5579C14.484 14.1024 14.468 13.5956 14.4595 13.1066C14.4587 12.2234 14.4595 11.3405 14.4591 10.4573C14.1712 10.4565 13.8832 10.4576 13.5953 10.4565C13.5945 10.1023 13.5945 9.74777 13.5953 9.39323C13.8832 9.39206 14.1708 9.39362 14.4587 9.39245C14.4599 8.84622 14.4583 8.30037 14.4595 7.75414Z" fill="white"/>
<path d="M9.25388 8.41689C9.65478 8.36469 10.0756 8.37871 10.455 8.53027C10.7624 8.65183 11.0235 8.88988 11.1614 9.19144C11.373 9.64845 11.454 10.153 11.4949 10.6513C11.5393 11.3144 11.5331 11.9838 11.4415 12.643C11.3773 13.0353 11.2857 13.4487 11.02 13.7581C10.7504 14.0686 10.3347 14.2018 9.93569 14.233C9.51491 14.2638 9.07115 14.233 8.69128 14.0339C8.46959 13.9159 8.28141 13.7308 8.17154 13.504C8.03829 13.2325 7.96504 12.936 7.91362 12.6391C7.75855 11.6978 7.72115 10.7238 7.9331 9.78793C8.02037 9.43495 8.14738 9.07261 8.4053 8.8065C8.62972 8.57858 8.94219 8.46092 9.25388 8.41689Z" fill="#41CD52"/>
</g>
<defs>
<clipPath id="clip0_9168_50858">
<rect width="18" height="13.2078" fill="white" transform="translate(3 5)"/>
</clipPath>
</defs>
</svg>
