<svg width="24" height="24" viewBox="0 0 24 24" fill="none" xmlns="http://www.w3.org/2000/svg">
<rect width="24" height="24" rx="12" fill="#FFCDE7"/>
<path d="M8 18C4.66667 18 2 15.3333 2 12C2 8.66667 4.66667 6 8 6H15.0303C18.3636 6 21.0303 8.66667 21.0303 12C21.0303 15.3333 18.3636 18 15.0303 18H8ZM14.8485 15.8788C17.0303 15.8788 18.7273 14.1212 18.7273 12C18.7273 9.81818 16.9697 8.12121 14.8485 8.12121H8.18182C6 8.12121 4.30303 9.87879 4.30303 12C4.30303 14.1212 6.06061 15.8788 8.18182 15.8788H14.8485Z" fill="#C74634"/>
</svg>
