<svg width="24" height="24" viewBox="0 0 24 24" fill="none" xmlns="http://www.w3.org/2000/svg">
<rect width="24" height="24" rx="12" fill="#E7FFCD"/>
<path fill-rule="evenodd" clip-rule="evenodd" d="M12.0198 3.65001C11.4056 3.65001 10.9738 4.11046 10.9738 4.59918C10.9738 5.0879 11.4056 5.54835 12.0198 5.54835C12.6341 5.54835 13.0659 5.0879 13.0659 4.59918C13.0659 4.11046 12.6341 3.65001 12.0198 3.65001ZM9.67376 4.59918C9.67376 3.32151 10.7607 2.35001 12.0198 2.35001C13.279 2.35001 14.3659 3.32151 14.3659 4.59918C14.3659 4.74917 14.3509 4.89494 14.3224 5.03541L17.2499 6.63344C17.6691 6.27953 18.2179 6.06901 18.804 6.06901C20.0632 6.06901 21.1501 7.04051 21.1501 8.31819C21.1501 9.36875 20.4153 10.2123 19.454 10.479V13.521C20.4153 13.7877 21.1501 14.6313 21.1501 15.6818C21.1501 16.9595 20.0632 17.931 18.804 17.931C18.2304 17.931 17.6925 17.7294 17.2769 17.389L14.3172 18.9394C14.349 19.0876 14.3659 19.2419 14.3659 19.4008C14.3659 20.6785 13.279 21.65 12.0198 21.65C10.7607 21.65 9.67376 20.6785 9.67376 19.4008C9.67376 19.2385 9.69132 19.081 9.72455 18.9299L6.80146 17.3221C6.37625 17.7028 5.80643 17.931 5.19615 17.931C3.93701 17.931 2.8501 16.9595 2.8501 15.6818C2.8501 14.6313 3.58494 13.7877 4.54615 13.521V10.479C3.58494 10.2123 2.8501 9.36875 2.8501 8.31819C2.8501 7.04051 3.93701 6.06901 5.19615 6.06901C5.80494 6.06901 6.37346 6.29612 6.79835 6.67513L9.71824 5.04041C9.6891 4.89839 9.67376 4.75095 9.67376 4.59918ZM10.3481 6.17764L7.4768 7.78516C7.51948 7.95509 7.54221 8.13344 7.54221 8.31819C7.54221 8.57023 7.49991 8.81035 7.42234 9.03346L10.464 10.4387C10.7084 10.2496 10.992 10.107 11.2984 10.0231L11.3644 6.75848C10.9777 6.65022 10.6279 6.44856 10.3481 6.17764ZM12.6646 6.76145L12.5986 10.0273C12.9879 10.1367 13.3398 10.3408 13.6203 10.6149L16.6961 9.30976C16.5442 9.01341 16.458 8.67794 16.458 8.31819C16.458 8.11205 16.4863 7.91388 16.539 7.72648L13.6952 6.17409C13.4122 6.4493 13.0572 6.65346 12.6646 6.76145ZM17.6935 10.2987L14.2459 11.7616C14.2728 11.8984 14.287 12.0402 14.287 12.186C14.287 12.3225 14.2746 12.4555 14.2509 12.5842L17.3081 13.9495C17.5547 13.7545 17.8425 13.6074 18.154 13.521V10.479C17.9934 10.4344 17.8391 10.3738 17.6935 10.2987ZM16.5548 15.0369L13.6416 13.7358C13.358 14.0204 12.9986 14.232 12.5998 14.3443L12.661 17.2376C13.0463 17.3429 13.3955 17.5408 13.6761 17.8076L16.5477 16.3035C16.4894 16.1073 16.458 15.899 16.458 15.6818C16.458 15.4561 16.4919 15.2398 16.5548 15.0369ZM11.3608 17.2425L11.2996 14.3492C10.8741 14.2328 10.4925 14.0035 10.1988 13.6932L7.44495 15.0353C7.50809 15.2387 7.54221 15.4555 7.54221 15.6818C7.54221 15.865 7.51987 16.0419 7.47789 16.2105L10.3701 17.8013C10.6453 17.5418 10.9856 17.3482 11.3608 17.2425ZM6.69718 13.9535L9.62146 12.5283C9.60397 12.4171 9.59488 12.3028 9.59488 12.186C9.59488 11.9514 9.63151 11.7272 9.6991 11.5174L6.62877 10.0989C6.39669 10.2699 6.13139 10.3999 5.84615 10.479V13.521C6.15983 13.608 6.44939 13.7565 6.69718 13.9535ZM6.07903 8.82498C6.02728 8.86849 5.98175 8.92062 5.94484 8.98049C5.76039 9.15418 5.5007 9.26736 5.19615 9.26736C4.58188 9.26736 4.1501 8.80691 4.1501 8.31819C4.1501 7.82946 4.58188 7.36901 5.19615 7.36901C5.81042 7.36901 6.24221 7.82946 6.24221 8.31819C6.24221 8.49814 6.18367 8.67427 6.07903 8.82498ZM18.804 7.36901C18.1898 7.36901 17.758 7.82946 17.758 8.31819C17.758 8.80691 18.1898 9.26736 18.804 9.26736C19.4183 9.26736 19.8501 8.80691 19.8501 8.31819C19.8501 7.82946 19.4183 7.36901 18.804 7.36901ZM11.9409 11.2368C11.3267 11.2368 10.8949 11.6972 10.8949 12.186C10.8949 12.6747 11.3267 13.1351 11.9409 13.1351C12.5552 13.1351 12.987 12.6747 12.987 12.186C12.987 11.6972 12.5552 11.2368 11.9409 11.2368ZM5.19615 14.7327C4.58188 14.7327 4.1501 15.1931 4.1501 15.6818C4.1501 16.1705 4.58188 16.631 5.19615 16.631C5.81042 16.631 6.24221 16.1705 6.24221 15.6818C6.24221 15.1931 5.81042 14.7327 5.19615 14.7327ZM18.804 14.7327C18.1898 14.7327 17.758 15.1931 17.758 15.6818C17.758 16.1705 18.1898 16.631 18.804 16.631C19.4183 16.631 19.8501 16.1705 19.8501 15.6818C19.8501 15.1931 19.4183 14.7327 18.804 14.7327ZM12.0198 18.4517C11.4056 18.4517 10.9738 18.9121 10.9738 19.4008C10.9738 19.8896 11.4056 20.35 12.0198 20.35C12.6341 20.35 13.0659 19.8896 13.0659 19.4008C13.0659 18.9121 12.6341 18.4517 12.0198 18.4517Z" fill="#2F5C00"/>
</svg>
