<svg width="24" height="24" viewBox="0 0 24 24" fill="none" xmlns="http://www.w3.org/2000/svg">
<rect width="24" height="24" rx="12" fill="#FFD5CD"/>
<g clip-path="url(#clip0_9168_50868)">
<path fill-rule="evenodd" clip-rule="evenodd" d="M16.7381 15.4709L16.6562 15.2967L14.8654 11.9018C14.8048 11.7882 14.8124 11.7205 14.8925 11.624L17.7255 8.29669C17.7585 8.25774 17.7885 8.21608 17.8013 8.14683L16.974 8.36324L13.5386 9.27621C13.432 9.30488 13.3836 9.2735 13.3303 9.18532L11.3793 5.93487C11.3455 5.8786 11.309 5.82667 11.2373 5.77662L11.0799 6.64415L10.5354 9.70902L10.4791 10.0401C10.4699 10.1483 10.4158 10.1846 10.3206 10.2146L6.27618 11.4928C6.21667 11.5117 6.15932 11.5355 6.09575 11.5934L9.42302 12.9146L9.32564 12.9911L7.25543 14.3293C7.2217 14.3556 7.18101 14.3715 7.13837 14.375C7.09573 14.3784 7.05301 14.3693 7.01548 14.3488L4.5414 13.2462C4.17134 13.0839 3.83807 12.8613 3.57893 12.5442C2.99273 11.8274 3.10824 11.0113 3.88947 10.5154C4.1451 10.3523 4.43536 10.23 4.7248 10.1356L8.69751 8.87369C8.80572 8.83906 8.85982 8.78929 8.88065 8.66891L9.42167 5.60404C9.52013 5.05815 9.57261 4.49495 9.83825 3.99775C9.94024 3.80839 10.0628 3.61687 10.208 3.45565C10.7342 2.87134 11.4686 2.84916 12.0248 3.40533C12.2125 3.59307 12.3764 3.81461 12.5136 4.04184L14.3266 7.05424C14.3974 7.17326 14.4618 7.19761 14.5927 7.16244L19.0334 5.98275C19.3386 5.90214 19.6475 5.87265 19.9605 5.92865C20.6421 6.05633 20.9405 6.57787 20.7098 7.23413C20.6048 7.53169 20.4236 7.78786 20.2229 8.02726L17.1236 11.6702C17.039 11.7692 17.0371 11.8406 17.0958 11.9516L18.9412 15.4503C19.0883 15.7295 19.2009 16.0192 19.2036 16.3398C19.2109 17.0691 18.6777 17.6658 17.953 17.7718C17.5472 17.8314 17.1702 17.7448 16.7898 17.6274L14.0036 16.7799C13.9175 16.7542 13.8845 16.7204 13.8694 16.6276L13.5334 14.6691C13.5302 14.6512 13.5356 14.6318 13.5383 14.5917L16.7357 15.4736" fill="#E25A1C"/>
<path d="M9.42031 12.9143L10.01 13.1713L9.35457 18.3921L12.9372 14.421L13.5413 14.5907L14.2852 16.8521L13.3184 16.5113L10.8167 19.212C10.8167 19.212 9.69785 20.3704 9.09137 20.1751C8.48489 19.9798 7.97308 19.4393 7.91627 18.473C7.85947 17.5068 7.60356 14.7481 7.60356 14.7481L6.38086 13.8668L9.42031 12.9143Z" fill="#E25A1C"/>
<path d="M7.60341 14.7484C7.60341 14.7484 7.06348 20.7193 8.11522 20.9182C9.16696 21.117 8.00161 20.8898 8.00161 20.8898C8.00161 20.8898 8.59862 21.5723 10.9583 19.0416L13.3182 16.5113L8.59835 19.2975C8.71196 19.1552 9.19537 14.3218 9.19537 14.3218L7.60341 14.7484Z" fill="#E25A1C"/>
</g>
<defs>
<clipPath id="clip0_9168_50868">
<rect width="18" height="18" fill="white" transform="translate(3 3)"/>
</clipPath>
</defs>
</svg>
