<?xml version="1.0" encoding="UTF-8"?>
<svg id="Layer_1" data-name="Layer 1" xmlns="http://www.w3.org/2000/svg" viewBox="0 0 24 24">
  <defs>
    <style>
      .cls-1 {
        fill: none;
        stroke: #2f5c00;
        stroke-linecap: round;
        stroke-linejoin: round;
        stroke-width: 1.25px;
      }

      .cls-2 {
        fill: #e7ffcd;
      }
    </style>
  </defs>
  <path class="cls-2" d="M12,0h0c6.63,0,12,5.37,12,12h0c0,6.63-5.37,12-12,12h0C5.37,24,0,18.63,0,12H0C0,5.37,5.37,0,12,0Z"/>
  <g>
    <path class="cls-1" d="M14.54,14.52c-2.56,2.56-6.37,1.31-6.37,1.31,0,0-1.25-3.81,1.31-6.37s6.37-1.31,6.37-1.31c0,0,1.25,3.81-1.31,6.37Z"/>
    <path class="cls-1" d="M21,7.75c-2.4,1.3-5.15,.4-5.15,.4,0,0-.9-2.75,.4-5.15"/>
    <path class="cls-1" d="M3,16.24c2.4-1.31,5.16-.41,5.16-.41,0,0,.9,2.76-.41,5.17"/>
    <line class="cls-1" x1="17.53" y1="4.7" x2="19.25" y2="6.43"/>
    <line class="cls-1" x1="4.72" y1="17.51" x2="6.44" y2="19.24"/>
    <line class="cls-1" x1="10.71" y1="10.7" x2="13.34" y2="13.33"/>
    <line class="cls-1" x1="13.25" y1="9.67" x2="14.16" y2="10.58"/>
    <line class="cls-1" x1="9.7" y1="13.34" x2="10.61" y2="14.26"/>
  </g>
</svg>