<?xml version="1.0" encoding="utf-8"?>
<!-- Generator: Adobe Illustrator 26.4.1, SVG Export Plug-In . SVG Version: 6.00 Build 0)  -->
<svg version="1.1" id="Layer_1" xmlns="http://www.w3.org/2000/svg" xmlns:xlink="http://www.w3.org/1999/xlink" x="0px" y="0px"
	 viewBox="0 0 24 24" style="enable-background:new 0 0 24 24;" xml:space="preserve">
<style type="text/css">
	.st0{fill:#D5CDFF;}
	.st1{fill:none;stroke:#0E005C;stroke-width:1.4;stroke-linecap:round;stroke-miterlimit:10;}
</style>
<path class="st0" d="M12,0L12,0c6.6,0,12,5.4,12,12l0,0c0,6.6-5.4,12-12,12l0,0C5.4,24,0,18.6,0,12l0,0C0,5.4,5.4,0,12,0z"/>
<path class="st1" d="M9.8,4.5l0.5-2h3.5l0.5,2l2.3,1.1l1.9-0.9l2.2,2.8l-1.3,1.6l0.6,2.5l1.9,0.9l-0.8,3.5l-2.1,0l-1.6,2l0.5,2
	l-3.2,1.5l-1.3-1.6h-2.5l-1.3,1.6l-3.2-1.5l0.5-2l-1.6-2l-2.1,0l-0.8-3.5l1.9-0.9l0.6-2.5L3.4,7.5l2.2-2.8l1.9,0.9L9.8,4.5z
	 M6.8,12.1c0,2.8,2.3,5.2,5.2,5.2s5.2-2.3,5.2-5.2S14.8,6.9,12,6.9S6.8,9.2,6.8,12.1z"/>
<polyline class="st1" points="10.1,11.8 11.6,13.3 14.2,10.7 "/>
</svg>
