<?xml version="1.0" encoding="UTF-8"?>
<svg id="Layer_1" data-name="Layer 1" xmlns="http://www.w3.org/2000/svg" viewBox="0 0 24 24">
  <defs>
    <style>
      .cls-1 {
        fill: none;
        stroke: #2f5c00;
        stroke-linecap: round;
        stroke-linejoin: round;
        stroke-width: 1.25px;
      }

      .cls-2 {
        fill: #e7ffcd;
      }
    </style>
  </defs>
  <path class="cls-2" d="M12,0h0c6.63,0,12,5.37,12,12h0c0,6.63-5.37,12-12,12h0C5.37,24,0,18.63,0,12H0C0,5.37,5.37,0,12,0Z"/>
  <path class="cls-1" d="M9.61,4.01c-.55,0-1.16,.51-1.43,.96-.28-.44-.88-.96-1.43-.96-.86,0-1.43,.55-1.43,1.43,0,2.07,2.87,3.82,2.87,3.82,0,0,2.87-1.75,2.87-3.82,0-.88-.57-1.43-1.43-1.43Z"/>
  <polyline class="cls-1" points="22.16 15.32 19.03 15.32 17.47 11.8 15.13 16.49 12.39 10.24 9.66 16.88 7.7 12.59 6.14 15.32 1.84 15.32"/>
</svg>