<?xml version="1.0" encoding="UTF-8"?>
<svg id="Layer_1" data-name="Layer 1" xmlns="http://www.w3.org/2000/svg" xmlns:xlink="http://www.w3.org/1999/xlink" viewBox="0 0 24 24">
  <defs>
    <style>
      .cls-1 {
        fill: #61dafb;
      }

      .cls-2 {
        fill: #658fd1;
      }

      .cls-3, .cls-4 {
        stroke: #61dafb;
      }

      .cls-3, .cls-4, .cls-5 {
        fill: none;
      }

      .cls-4 {
        stroke-miterlimit: 4;
        stroke-width: 1px;
      }

      .cls-6 {
        clip-path: url(#clippath);
      }
    </style>
    <clipPath id="clippath">
      <path class="cls-5" d="M12,0h0c6.63,0,12,5.37,12,12h0c0,6.63-5.37,12-12,12h0C5.37,24,0,18.63,0,12H0C0,5.37,5.37,0,12,0Z"/>
    </clipPath>
  </defs>
  <g class="cls-6">
    <path class="cls-2" d="M12,0h0c6.63,0,12,5.37,12,12h0c0,6.63-5.37,12-12,12h0C5.37,24,0,18.63,0,12H0C0,5.37,5.37,0,12,0Z"/>
  </g>
  <g>
    <circle class="cls-1" cx="12" cy="12" r="2.05"/>
    <g>
      <ellipse class="cls-3" cx="12" cy="12" rx="11" ry="4.2"/>
      <ellipse class="cls-4" cx="12" cy="12" rx="4.2" ry="11" transform="translate(-4.39 7.61) rotate(-30)"/>
      <ellipse class="cls-4" cx="12" cy="12" rx="11" ry="4.2" transform="translate(-4.39 16.39) rotate(-60)"/>
    </g>
  </g>
</svg>