<?xml version="1.0" encoding="utf-8"?>
<!-- Generator: Adobe Illustrator 28.2.0, SVG Export Plug-In . SVG Version: 6.00 Build 0)  -->
<svg version="1.1" id="Layer_1" xmlns="http://www.w3.org/2000/svg" xmlns:xlink="http://www.w3.org/1999/xlink" x="0px" y="0px"
	 viewBox="0 0 24 24" style="enable-background:new 0 0 24 24;" xml:space="preserve">
<style type="text/css">
	.st0{fill:#FFF6CD;}
	.st1{fill:none;stroke:#5C4B00;stroke-width:1.3;stroke-linecap:round;stroke-linejoin:round;stroke-miterlimit:10;}
	.st2{fill:none;stroke:#5C4B00;stroke-width:1.3;stroke-linejoin:round;stroke-miterlimit:10;}
</style>
<path class="st0" d="M12,0L12,0c6.6,0,12,5.4,12,12l0,0c0,6.6-5.4,12-12,12l0,0C5.4,24,0,18.6,0,12l0,0C0,5.4,5.4,0,12,0z"/>
<line class="st1" x1="4.5" y1="17.5" x2="4.5" y2="6.7"/>
<line class="st1" x1="19.5" y1="6.9" x2="19.5" y2="17.5"/>
<polyline class="st1" points="2.4,7.7 12,2.6 21.7,7.9 "/>
<rect x="7.4" y="10.3" class="st2" width="9.3" height="9.3"/>
<polyline class="st1" points="10.2,10.3 10.2,15 12.1,13.1 14,15 14,10.3 "/>
</svg>
