<?xml version="1.0" encoding="utf-8"?>
<!-- Generator: Adobe Illustrator 28.2.0, SVG Export Plug-In . SVG Version: 6.00 Build 0)  -->
<svg version="1.1" id="Layer_1" xmlns="http://www.w3.org/2000/svg" xmlns:xlink="http://www.w3.org/1999/xlink" x="0px" y="0px"
	 viewBox="0 0 24 24" style="enable-background:new 0 0 24 24;" xml:space="preserve">
<style type="text/css">
	.st0{fill:#FFD5CD;}
	.st1{fill:none;stroke:#5C0E00;stroke-width:1.3;stroke-linecap:round;stroke-linejoin:round;stroke-miterlimit:10;}
</style>
<path class="st0" d="M12,0L12,0c6.6,0,12,5.4,12,12l0,0c0,6.6-5.4,12-12,12l0,0C5.4,24,0,18.6,0,12l0,0C0,5.4,5.4,0,12,0z"/>
<g>
	<polyline class="st1" points="13,3 13,13.7 16,10.6 	"/>
	<line class="st1" x1="13" y1="13.7" x2="10" y2="10.6"/>
	<polyline class="st1" points="4.1,4.6 5.5,4.6 7.6,15.7 18.3,15.7 20.6,8.1 	"/>
	<line class="st1" x1="6.1" y1="8.1" x2="10" y2="8.1"/>
	<line class="st1" x1="15.7" y1="8.1" x2="20.4" y2="8.1"/>
	<circle class="st1" cx="9.5" cy="19.4" r="1.7"/>
	<circle class="st1" cx="15.6" cy="19.4" r="1.7"/>
</g>
</svg>
