<?xml version="1.0" encoding="utf-8"?>
<!-- Generator: Adobe Illustrator 28.2.0, SVG Export Plug-In . SVG Version: 6.00 Build 0)  -->
<svg version="1.1" id="Layer_1" xmlns="http://www.w3.org/2000/svg" xmlns:xlink="http://www.w3.org/1999/xlink" x="0px" y="0px"
	 viewBox="0 0 24 24" style="enable-background:new 0 0 24 24;" xml:space="preserve">
<style type="text/css">
	.st0{fill:#FFD5CD;}
	.st1{fill:none;stroke:#5C0E00;stroke-width:1.25;stroke-linecap:round;stroke-linejoin:round;}
	.st2{fill-rule:evenodd;clip-rule:evenodd;fill:#5C0E00;stroke:#5C0E00;stroke-width:0.25;stroke-miterlimit:10;}
</style>
<path class="st0" d="M12,0L12,0c6.6,0,12,5.4,12,12l0,0c0,6.6-5.4,12-12,12l0,0C5.4,24,0,18.6,0,12l0,0C0,5.4,5.4,0,12,0z"/>
<path class="st1" d="M20.9,13.1"/>
<path class="st1" d="M3,13.1"/>
<g>
	<g>
		<path class="st1" d="M18,4.3H6c-0.3,0-0.5,0.2-0.5,0.5v14.4c0,0.2,0.1,0.3,0.2,0.4s0.3,0.1,0.5,0L8,18.3l1.8,1.4
			c0.1,0.1,0.3,0.1,0.5,0l1.8-1.4l1.8,1.4c0.1,0,0.1,0.1,0.2,0.1c0.1,0,0.2,0,0.2-0.1l1.8-1.4l1.8,1.4c0.2,0.1,0.3,0.1,0.5,0
			c0.1-0.1,0.2-0.3,0.2-0.4V4.8C18.5,4.5,18.3,4.3,18,4.3z"/>
	</g>
</g>
<line class="st1" x1="10.2" y1="15.5" x2="16" y2="15.5"/>
<line class="st1" x1="8.1" y1="15.6" x2="8.1" y2="15.5"/>
<path class="st2" d="M12.4,6.4C12.4,6.2,12.2,6,12,6s-0.4,0.2-0.4,0.4v0.2c-0.5,0.1-0.9,0.2-1.3,0.5S9.6,7.8,9.6,8.4
	c0,0.5,0.2,1,0.6,1.3c0.3,0.3,0.8,0.4,1.4,0.5v2c-0.3-0.1-0.6-0.2-0.8-0.3c-0.3-0.2-0.4-0.4-0.4-0.7c0-0.2-0.2-0.4-0.4-0.4
	S9.6,11,9.6,11.2c0,0.6,0.3,1,0.8,1.3c0.3,0.2,0.8,0.4,1.3,0.5v0.2c0,0.2,0.2,0.4,0.4,0.4s0.4-0.2,0.4-0.4V13
	c0.5-0.1,0.9-0.2,1.2-0.4c0.4-0.3,0.8-0.8,0.8-1.4c0-0.5-0.2-1-0.6-1.3c-0.3-0.3-0.8-0.4-1.4-0.5v-2c0.3,0.1,0.6,0.2,0.8,0.3
	c0.3,0.2,0.4,0.4,0.4,0.7c0,0.2,0.2,0.4,0.4,0.4s0.4-0.2,0.4-0.4c0-0.6-0.3-1-0.8-1.3c-0.3-0.2-0.8-0.4-1.3-0.5V6.4z M11.6,7.4
	c-0.3,0.1-0.6,0.2-0.8,0.3c-0.3,0.2-0.4,0.4-0.4,0.7s0.1,0.5,0.3,0.7c0.2,0.1,0.5,0.3,0.9,0.3V7.4z M12.4,10.2v2
	c0.3,0,0.6-0.2,0.8-0.3c0.3-0.2,0.4-0.4,0.4-0.7s-0.1-0.5-0.3-0.7C13.1,10.4,12.8,10.3,12.4,10.2z"/>
</svg>
