<?xml version="1.0" encoding="utf-8"?>
<!-- Generator: Adobe Illustrator 28.2.0, SVG Export Plug-In . SVG Version: 6.00 Build 0)  -->
<svg version="1.1" id="Layer_1" xmlns="http://www.w3.org/2000/svg" xmlns:xlink="http://www.w3.org/1999/xlink" x="0px" y="0px"
	 viewBox="0 0 24 24" style="enable-background:new 0 0 24 24;" xml:space="preserve">
<style type="text/css">
	.st0{fill:#E7FFCD;}
	
		.st1{fill-rule:evenodd;clip-rule:evenodd;fill:none;stroke:#2F5C00;stroke-width:1.25;stroke-linecap:round;stroke-linejoin:round;}
</style>
<path class="st0" d="M12,0L12,0c6.6,0,12,5.4,12,12l0,0c0,6.6-5.4,12-12,12l0,0C5.4,24,0,18.6,0,12l0,0C0,5.4,5.4,0,12,0z"/>
<circle class="st1" cx="12" cy="12.7" r="2.8"/>
<circle class="st1" cx="15.1" cy="19.9" r="1.7"/>
<circle class="st1" cx="17.5" cy="5.8" r="1.7"/>
<circle class="st1" cx="4.7" cy="7.5" r="1.7"/>
<line class="st1" x1="9.5" y1="10.8" x2="5.9" y2="8.7"/>
<line class="st1" x1="14.4" y1="10.8" x2="15.8" y2="8.9"/>
<line class="st1" x1="13.3" y1="15.2" x2="14.5" y2="18.1"/>
</svg>
