<?xml version="1.0" encoding="utf-8"?>
<!-- Generator: Adobe Illustrator 28.2.0, SVG Export Plug-In . SVG Version: 6.00 Build 0)  -->
<svg version="1.1" id="Layer_1" xmlns="http://www.w3.org/2000/svg" xmlns:xlink="http://www.w3.org/1999/xlink" x="0px" y="0px"
	 viewBox="0 0 24 24" style="enable-background:new 0 0 24 24;" xml:space="preserve">
<style type="text/css">
	.st0{fill:#CDFFF6;}
	.st1{fill:#005C4B;}
	.st2{fill:none;stroke:#005C4B;stroke-width:1.3;stroke-linecap:round;stroke-linejoin:round;stroke-miterlimit:10;}
</style>
<path class="st0" d="M12,0L12,0c6.6,0,12,5.4,12,12l0,0c0,6.6-5.4,12-12,12l0,0C5.4,24,0,18.6,0,12l0,0C0,5.4,5.4,0,12,0z"/>
<path class="st1" d="M22.7,12.9c0-0.2-0.1-0.4-0.2-0.6l-4.5-5.4c-0.3-0.4-0.8-0.4-1.2-0.1c-0.4,0.3-0.4,0.8-0.1,1.2l4.4,5.3
	c-0.7,1-1.5,2-2.4,2.8l-5,4.3c-0.1,0.1-0.1,0.1-0.2,0.1c-0.1,0-0.2,0-0.2-0.1C13,20.2,13,20.1,13,20c0-0.1,0-0.2,0.1-0.2l2.8-2.4
	c0.1-0.1,0.2-0.3,0.2-0.4c0-0.2,0-0.3-0.2-0.5c-0.1-0.1-0.3-0.2-0.5-0.2c-0.2,0-0.3,0-0.5,0.2L11,19.9C10.9,20,10.8,20,10.7,20
	c-0.1,0-0.2,0-0.2-0.1c-0.1-0.1-0.1-0.2-0.1-0.2c0-0.1,0-0.2,0.1-0.2l4-3.5c0.1-0.1,0.2-0.3,0.2-0.5c0-0.2,0-0.3-0.2-0.5
	c-0.2-0.3-0.7-0.3-0.9-0.1l-4.5,3.9c-0.1,0.1-0.4,0.1-0.5,0c-0.1-0.1-0.1-0.2-0.1-0.2c0-0.1,0-0.2,0.1-0.2l4.1-3.5
	c0.1-0.1,0.2-0.3,0.2-0.4c0-0.2,0-0.3-0.2-0.5c-0.1-0.1-0.3-0.2-0.5-0.2c-0.2,0-0.3,0-0.5,0.2l-3.6,3.1C8.2,17,8,17,7.9,16.9
	c-0.1-0.1-0.1-0.4,0-0.5l1.9-1.6c0.1-0.1,0.2-0.3,0.2-0.4c0-0.2,0-0.3-0.2-0.5c-0.2-0.3-0.7-0.3-0.9-0.1l-1.9,1.6
	c-0.3,0.3-0.5,0.7-0.6,1.1s0.1,0.9,0.4,1.2C7,17.9,7.2,18,7.4,18.1c-0.2,0.5,0,1.1,0.3,1.5c0.4,0.4,0.9,0.6,1.5,0.6
	c0.1,0.2,0.2,0.4,0.3,0.5c0.3,0.3,0.7,0.5,1.1,0.6c0.4,0,0.9-0.1,1.2-0.4l0.1-0.1C12,21,12,21,12.1,21.1c0.3,0.3,0.7,0.5,1.1,0.6
	c0.2,0,0.4,0,0.5,0c0.2-0.1,0.5-0.2,0.7-0.3l5-4.3c1.1-1,2.3-2.4,3.1-3.7l0,0C22.6,13.2,22.6,13,22.7,12.9L22.7,12.9L22.7,12.9z"/>
<path class="st1" d="M17.9,11.5l-5.2-6c-0.6-0.7-1.4-1.1-2.2-1.1l-0.4,0c-0.4,0-1.2-0.7-1.4-1C8.3,3,7.8,3,7.5,3.3l-5.3,5
	C1.8,8.6,1.7,9.1,2.1,9.5c0.3,0.3,0.8,0.4,1.2,0.1L8,5C8.6,5.5,9.3,5.9,10,5.9l0.4,0c0.5,0,0.9,0.2,1.2,0.6l4.7,5.5
	c-0.1,0.1-0.3,0.2-0.5,0.3c-0.3,0-0.6-0.2-1-0.6l-2.2-2.5C12.5,9,12.3,8.9,12,8.9c-0.2,0-0.4,0.1-0.6,0.2c-0.1,0.1-1.2,1.1-2.6,1.1
	c-0.9,0-1.8-0.5-2.6-1.5C6,8.5,5.9,8.5,5.7,8.4c-0.2,0-0.4,0.1-0.6,0.2S4.8,9,4.8,9.2c0,0.2,0.1,0.4,0.2,0.6c1.1,1.3,2.4,2,3.8,2
	c1.4,0,2.5-0.6,3.1-1l1.7,1.9c0.7,0.8,1.5,1.2,2.3,1.1c1.2-0.1,2-1.2,2.1-1.4C18.1,12.1,18.1,11.7,17.9,11.5z"/>
<line class="st2" x1="4.2" y1="11.1" x2="6.8" y2="14"/>
</svg>
