<?xml version="1.0" encoding="utf-8"?>
<!-- Generator: Adobe Illustrator 28.2.0, SVG Export Plug-In . SVG Version: 6.00 Build 0)  -->
<svg version="1.1" id="Layer_1" xmlns="http://www.w3.org/2000/svg" xmlns:xlink="http://www.w3.org/1999/xlink" x="0px" y="0px"
	 viewBox="0 0 24 24" style="enable-background:new 0 0 24 24;" xml:space="preserve">
<style type="text/css">
	.st0{fill:#F6CDFF;}
	.st1{fill:none;stroke:#4B005C;stroke-width:1.1;stroke-linecap:round;stroke-linejoin:round;stroke-miterlimit:10;}
	.st2{fill:none;stroke:#4B005C;stroke-linecap:round;stroke-linejoin:round;stroke-miterlimit:10;}
</style>
<path class="st0" d="M12,0L12,0c6.6,0,12,5.4,12,12l0,0c0,6.6-5.4,12-12,12l0,0C5.4,24,0,18.6,0,12l0,0C0,5.4,5.4,0,12,0z"/>
<rect x="7.3" y="5.8" class="st1" width="9.5" height="3.7"/>
<rect x="5.2" y="3.9" class="st1" width="13.5" height="16.5"/>
<line class="st1" x1="13.6" y1="12.6" x2="16.2" y2="12.6"/>
<line class="st1" x1="7.9" y1="12.6" x2="10.5" y2="12.6"/>
<line class="st1" x1="14.9" y1="13.9" x2="14.9" y2="11.4"/>
<line class="st2" x1="13.6" y1="16.9" x2="16.2" y2="16.9"/>
<line class="st2" x1="14.9" y1="15.8" x2="14.9" y2="15.8"/>
<line class="st2" x1="14.9" y1="18.1" x2="14.9" y2="18.1"/>
<line class="st2" x1="8.4" y1="16" x2="10.2" y2="17.8"/>
<line class="st2" x1="8.4" y1="17.8" x2="10.2" y2="16"/>
</svg>
