<?xml version="1.0" encoding="UTF-8"?>
<svg id="Layer_1" data-name="Layer 1" xmlns="http://www.w3.org/2000/svg" viewBox="0 0 24 24">
  <defs>
    <style>
      .cls-1 {
        fill: none;
        stroke: #2f5c00;
        stroke-linecap: round;
        stroke-linejoin: round;
        stroke-width: 1.25px;
      }

      .cls-2 {
        fill: #e7ffcd;
      }
    </style>
  </defs>
  <path class="cls-2" d="M12,0h0c6.63,0,12,5.37,12,12h0c0,6.63-5.37,12-12,12h0C5.37,24,0,18.63,0,12H0C0,5.37,5.37,0,12,0Z"/>
  <g>
    <path class="cls-1" d="M19.48,12.67c0-2.32-1.88-4.21-4.21-4.21-.72,0-1.4,.18-1.99,.5-.8,.43-1.76,.43-2.56,0-.59-.32-1.27-.5-1.99-.5-2.32,0-4.21,1.88-4.21,4.21,0,1.65,1.87,8.57,5.92,8.57,.62,0,1.2-.15,1.71-.42,.51,.27,1.1,.42,1.71,.42,3.74,0,5.61-7.03,5.61-8.57Z"/>
    <path class="cls-1" d="M7.95,5.03c2.41,0,4.05,1.95,4.05,4.36"/>
    <path class="cls-1" d="M11.97,5.85c-.26-.27-.36-1.19,.32-1.87,.8-.79,1.87-.3,2.81-.61,.3-.1,1.25-.62,1.25-.62,0,0-.29,1.92-1.89,3.1-1.25,.93-2.23,.25-2.49-.02Z"/>
  </g>
</svg>