<svg width="12" height="12" viewBox="0 0 12 12" fill="none" xmlns="http://www.w3.org/2000/svg">
    <path d="M4.56 2.434a1 1 0 0 0-.203-1.238L3.912.798a1 1 0 0 0-1.518.218L1.209 2.933l-.852 1.88A4 4 0 0 0 0 6.464v2.998a2.538 2.538 0 0 0 5.077 0V7.067c0-.81-.657-1.467-1.467-1.467a.367.367 0 0 1-.342-.5l.48-1.233.811-1.433zM11.482 2.434a1 1 0 0 0-.202-1.238l-.445-.398a1 1 0 0 0-1.518.218L8.132 2.933l-.852 1.88a4 4 0 0 0-.357 1.651v2.998a2.538 2.538 0 0 0 5.077 0V7.067c0-.81-.657-1.467-1.467-1.467a.367.367 0 0 1-.342-.5l.48-1.233.811-1.433z" fill="#ADDFFF"/>
</svg>
