<svg xmlns="http://www.w3.org/2000/svg" width="22" height="22" viewBox="0 0 22 22" fill="none">
    <path d="M17.0829 14.3645L18.6563 9.64423C20.0308 5.52071 20.718 3.45895 19.6297 2.37062C18.5414 1.28229 16.4796 1.96954 12.3561 3.34405L7.63587 4.91746C4.30779 6.02682 2.64376 6.5815 2.17088 7.3949C1.72103 8.16869 1.72103 9.12438 2.17088 9.89818C2.64375 10.7116 4.30779 11.2663 7.63587 12.3756C8.17025 12.5537 8.43744 12.6428 8.66077 12.7923C8.8772 12.9372 9.06313 13.1231 9.20802 13.3396C9.35752 13.5629 9.44659 13.8301 9.62471 14.3645C10.7341 17.6925 11.2887 19.3566 12.1021 19.8294C12.8759 20.2793 13.8316 20.2793 14.6054 19.8294C15.4188 19.3566 15.9735 17.6925 17.0829 14.3645Z" stroke="#111111"/>
    <path opacity="0.5" d="M14.7286 7.97789C14.925 7.78371 14.9267 7.46713 14.7326 7.27079C14.5384 7.07445 14.2218 7.07269 14.0255 7.26687L14.7286 7.97789ZM9.64212 13.0083L14.7286 7.97789L14.0255 7.26687L8.93894 12.2973L9.64212 13.0083Z" fill="#111111"/>
</svg>