<?xml version="1.0" encoding="utf-8"?>
<!-- Generator: Adobe Illustrator 26.4.1, SVG Export Plug-In . SVG Version: 6.00 Build 0)  -->
<svg version="1.1" id="design" xmlns="http://www.w3.org/2000/svg" xmlns:xlink="http://www.w3.org/1999/xlink" x="0px" y="0px"
	 viewBox="0 0 100 100" style="enable-background:new 0 0 100 100;" xml:space="preserve">
<style type="text/css">
	.st0{fill:url(#SVGID_1_);}
</style>
<linearGradient id="SVGID_1_" gradientUnits="userSpaceOnUse" x1="50.0022" y1="17.6773" x2="50.0022" y2="82.1" gradientTransform="matrix(1 0 0 -1 0 99.89)">
	<stop  offset="0" style="stop-color:#FBB040"/>
	<stop  offset="1" style="stop-color:#ED8B00"/>
</linearGradient>
<path class="st0" d="M72.8,44.7c-2.8-1.1-5.9,0.1-7.2,2.8c-0.1,0.4-0.5,0.6-0.9,0.6c-3.4,0-6.8,0-10.3,0c-0.2,0-0.4,0-0.6-0.1v-3.7
	h5.5c1,0.1,1.9-0.7,2-1.8c0.1-1-0.7-1.9-1.8-2c-0.1,0-0.1,0-0.2,0h-4.9c-0.2,0-0.4,0.1-0.6-0.1v-3.7c1.8,0,3.6,0,5.4,0
	c0.7,0,1.3-0.2,1.8-0.7c1-1.1,2.1-2.1,3.1-3.1c0.2-0.3,0.7-0.4,1.1-0.3c2.9,1.1,6.1-0.5,7.2-3.4c0.3-0.8,0.4-1.7,0.3-2.6
	c-0.2-2.2-1.7-4.1-3.9-4.7c-2.1-0.7-4.4-0.2-5.8,1.5c-1.6,1.5-2.1,3.9-1.2,5.9c0.1,0.2,0.1,0.5-0.1,0.7c-0.9,0.9-1.8,1.8-2.7,2.7
	c-0.1,0.1-0.2,0.3-0.4,0.3h-4.7c0-2,0-3.9,0-5.8c-0.1-4.4-3.1-8.2-7.4-9.2c-0.3-0.1-0.5,0-0.7-0.2h-2.5c0,0.1-0.1,0.1-0.2,0.1
	c-4.1,0.8-6.7,3.3-7.7,7.3c-0.1,0.4-0.3,0.4-0.6,0.5c-5.1,1.2-8.2,6.4-6.9,11.4c0,0.2,0.1,0.4,0.1,0.5c0.2,0.3,0.1,0.7-0.2,0.9
	c0,0,0,0-0.1,0c-3.5,2.5-4.8,7-3.3,11c0.1,0.3,0.1,0.6,0,0.8c-1.6,4.1-0.2,8.7,3.4,11.1c0.4,0.2,0.2,0.5,0.1,0.8
	c-1.6,5,1.2,10.3,6.2,11.8c0.2,0.1,0.4,0.1,0.6,0.2c0.3,0,0.6,0.3,0.6,0.6c1,4.2,4.7,7.2,9.1,7.3c2.6,0.1,5.1-1,6.9-3
	c1.4-1.4,2.3-3.3,2.6-5.2c0.1-1.9,0.2-3.9,0.1-5.8c0-0.4,0-0.8,0-1.2c1.6,0,3.1,0,4.6,0c0.2,0,0.4,0.1,0.6,0.3
	c0.9,0.9,1.7,1.7,2.6,2.6c0.2,0.2,0.3,0.5,0.2,0.8c-0.2,0.5-0.3,1-0.4,1.5c-0.3,3.1,2,5.9,5.1,6.1c3.1,0.3,5.9-2,6.1-5.1
	c0.1-1.4-0.3-2.8-1.1-3.9c-1.5-2-4.1-2.8-6.5-1.9c-0.3,0.2-0.6,0.1-0.8-0.2c-1-1-2-2-3-3c-0.6-0.6-1.4-1-2.2-0.9c-1.7,0-3.4,0-5.1,0
	v-3.8c1.9,0,3.7,0,5.6,0c1,0.1,1.9-0.7,2-1.8c0.1-1-0.7-1.9-1.8-2c-0.1,0-0.1,0-0.2,0c-1.4,0-2.7,0-4.1,0h-1.5v-3.8
	c3.8,0,7.6,0,11.3,0c0.3,0,0.4,0.1,0.4,0.3c0.9,2.2,3.2,3.6,5.6,3.4c2.6-0.2,4.2-1.7,5-4.1C77,48.8,75.6,45.8,72.8,44.7z M67,25.5
	c1,0,1.9,0.8,1.9,1.9c0,1-0.8,1.9-1.9,1.9c-1,0-1.9-0.8-1.9-1.9c0,0,0,0,0,0C65.1,26.3,66,25.5,67,25.5z M45.5,78.3
	c-1.9,0.5-3.9-0.2-5.2-1.7c-2.1-2.2-2.1-5.6-0.1-7.9c0.9-0.9,0.9-2.1,0.1-2.8c-0.8-0.7-2-0.6-2.7,0.1c0,0-0.1,0.1-0.1,0.1
	c-1.1,1.2-1.9,2.7-2.3,4.3c-3-0.9-4.7-4-3.8-7c0.1-0.5,0.3-0.9,0.6-1.3c0.5-0.7,0.5-1.6,0.1-2.3c-0.3-0.4-0.7-0.8-1.2-0.9
	c-2.9-1.2-4.3-4.5-3.1-7.4c0.1-0.2,0.2-0.4,0.3-0.6c0.4-0.7,0.4-1.5,0-2.2c-1.5-2.7-0.5-6,2.2-7.5c0.2-0.1,0.4-0.2,0.7-0.3
	c1.5-0.6,1.9-1.7,1.1-3.2c-1.9-3.2-0.3-7.4,3.2-8.3c0.3,1.1,0.8,2.2,1.4,3.2c0.3,0.4,0.6,0.7,0.9,1.1c0.6,0.9,1.8,1,2.7,0.4
	c0,0,0.1-0.1,0.1-0.1c0.8-0.7,0.8-2,0-2.7c0,0,0,0-0.1-0.1c-1.1-1.1-1.6-2.6-1.6-4.1c0.1-3,2.5-5.5,5.5-5.6c3.1,0,5.6,2.4,5.8,5.5
	c0,0.2,0,0.5,0,0.7c0,14.9,0,29.7,0,44.6C50.1,75.1,48.2,77.6,45.5,78.3z M67,70.8c1,0,1.9,0.9,1.8,1.9c0,1-0.9,1.9-1.9,1.8
	c-1,0-1.9-0.9-1.8-1.9c0,0,0,0,0,0C65.2,71.6,66,70.8,67,70.8z M70.8,51.9c-1,0-1.9-0.9-1.9-1.9c0-1,0.9-1.9,1.9-1.9
	c1,0,1.9,0.8,1.9,1.8C72.6,51,71.8,51.9,70.8,51.9z M46.2,50c0,1.1-0.9,1.9-2,1.9c0,0,0,0,0,0c-2.3,0-4.3,1.5-5.2,3.6
	c-0.1,0.2-0.2,0.4-0.3,0.6c-0.5,0.9-1.7,1.2-2.6,0.7c-0.7-0.4-1.1-1.3-0.8-2.2c0.6-1.8,1.7-3.5,3.3-4.6c-1.1-0.8-1.9-1.8-2.6-3
	c-0.3-0.5-0.5-1.1-0.7-1.7c-0.2-0.9,0.2-1.9,1.1-2.2c0.9-0.4,1.9,0,2.3,0.8c0.1,0.2,0.2,0.4,0.3,0.6c0.8,2.1,2.8,3.6,5.1,3.6
	C45.4,48.2,46.2,48.9,46.2,50z"/>
</svg>
