<?xml version="1.0" encoding="utf-8"?>
<!-- Generator: Adobe Illustrator 26.4.1, SVG Export Plug-In . SVG Version: 6.00 Build 0)  -->
<svg version="1.1" id="design" xmlns="http://www.w3.org/2000/svg" xmlns:xlink="http://www.w3.org/1999/xlink" x="0px" y="0px"
	 viewBox="0 0 100 100" style="enable-background:new 0 0 100 100;" xml:space="preserve">
<style type="text/css">
	.st0{fill:url(#SVGID_1_);}
</style>
<linearGradient id="SVGID_1_" gradientUnits="userSpaceOnUse" x1="50" y1="82.4388" x2="50" y2="17.2262">
	<stop  offset="0" style="stop-color:#FBB040"/>
	<stop  offset="1" style="stop-color:#ED8B00"/>
</linearGradient>
<path class="st0" d="M73.6,55.5V44.5c3.1-0.8,5.3-3.6,5.3-7c0-4-3.3-7.2-7.2-7.2c-2,0-3.7,0.8-5,2.1L57,26.8
	c0.2-0.6,0.2-1.2,0.2-1.8c0-4-3.3-7.2-7.2-7.2S42.8,21,42.8,25c0,0.6,0.1,1.3,0.2,1.8l-9.6,5.6c-1.3-1.3-3.1-2.1-5-2.1
	c-4,0-7.2,3.2-7.2,7.2c0,3.3,2.3,6.1,5.3,7v10.9c-3.1,0.8-5.3,3.6-5.3,7c0,4,3.3,7.2,7.2,7.2c2,0,3.7-0.8,5-2.1l9.6,5.6
	c-0.2,0.6-0.2,1.2-0.2,1.8c0,4,3.3,7.2,7.2,7.2s7.2-3.2,7.2-7.2c0-0.6-0.1-1.3-0.2-1.8l9.6-5.6c1.3,1.3,3.1,2.1,5,2.1
	c4,0,7.2-3.3,7.2-7.2C78.9,59.1,76.7,56.3,73.6,55.5z M50,67.8c-0.1,0-0.2,0-0.4,0L45,53.8c0.9-0.6,1.6-1.3,2.1-2.2l4.3,1.3
	c0,0.1,0,0.1,0,0.2c0,2.4,1.1,4.5,2.9,5.8l-3.5,9C50.5,67.8,50.3,67.8,50,67.8z M32.6,43.4l1.8,1.4c-0.4,0.9-0.6,1.9-0.6,2.9
	c0,1.5,0.5,2.9,1.2,4l-3.6,4.1c-0.4-0.2-0.8-0.3-1.2-0.5V44.5C31.1,44.3,31.9,43.9,32.6,43.4z M50,32.2c0.1,0,0.2,0,0.2,0l4.6,14.8
	c-0.9,0.6-1.7,1.4-2.3,2.3l-4.3-1.3c0-0.1,0-0.1,0-0.2c0-2.4-1.1-4.5-2.9-5.8l3.9-9.8C49.5,32.2,49.7,32.2,50,32.2z M65.7,41.7
	l-4,4.8c-0.9-0.4-2-0.7-3-0.7c-0.1,0-0.2,0-0.2,0l-4.6-14.8c0.4-0.3,0.9-0.6,1.2-1l9.6,5.5c-0.2,0.6-0.3,1.3-0.3,1.9
	C64.4,39.1,64.9,40.5,65.7,41.7z M55.2,53.1c0-1.9,1.5-3.4,3.4-3.4c1.9,0,3.4,1.5,3.4,3.4c0,1.9-1.5,3.4-3.4,3.4
	C56.8,56.5,55.2,55,55.2,53.1z M37.6,47.7c0-1.9,1.5-3.4,3.4-3.4s3.4,1.5,3.4,3.4c0,1.9-1.5,3.4-3.4,3.4S37.6,49.6,37.6,47.7z
	 M45.7,30.8l-3.9,9.8c-0.3,0-0.5,0-0.8,0c-1.6,0-3.1,0.5-4.3,1.4L35,40.4c0.4-0.9,0.6-1.9,0.6-2.9c0-0.7-0.1-1.3-0.3-1.9l9.6-5.5
	C45.1,30.3,45.4,30.5,45.7,30.8z M34.3,58.4l3.6-4.1c0.9,0.5,2,0.7,3.1,0.7c0.1,0,0.2,0,0.4,0L46,69c-0.4,0.3-0.8,0.6-1.1,0.9
	l-9.6-5.5c0.2-0.6,0.3-1.3,0.3-1.9C35.6,60.9,35.1,59.5,34.3,58.4z M54.3,69.2l3.5-9c0.3,0,0.5,0,0.8,0c1.7,0,3.3-0.6,4.6-1.6
	l1.7,1.2c-0.3,0.8-0.5,1.6-0.5,2.5c0,0.7,0.1,1.3,0.3,1.9l-9.6,5.5C54.9,69.7,54.6,69.5,54.3,69.2z M67.1,56.8l-1.7-1.2
	c0.3-0.8,0.5-1.6,0.5-2.5c0-1.5-0.5-3-1.3-4.1l4-4.8c0.4,0.2,0.7,0.3,1.1,0.4v10.9C68.8,55.7,67.9,56.2,67.1,56.8z M71.7,34.1
	c1.9,0,3.4,1.5,3.4,3.4S73.6,41,71.7,41c-1.9,0-3.4-1.5-3.4-3.4S69.8,34.1,71.7,34.1z M50,21.5c1.9,0,3.4,1.5,3.4,3.4
	c0,1.9-1.5,3.4-3.4,3.4s-3.4-1.5-3.4-3.4C46.6,23.1,48.1,21.5,50,21.5z M24.9,37.6c0-1.9,1.5-3.4,3.4-3.4c1.9,0,3.4,1.5,3.4,3.4
	S30.2,41,28.3,41C26.4,41,24.9,39.5,24.9,37.6z M28.3,65.9c-1.9,0-3.4-1.5-3.4-3.4c0-1.9,1.5-3.4,3.4-3.4c1.9,0,3.4,1.5,3.4,3.4
	C31.8,64.3,30.2,65.9,28.3,65.9z M50,78.5c-1.9,0-3.4-1.5-3.4-3.4s1.5-3.4,3.4-3.4s3.4,1.5,3.4,3.4S51.9,78.5,50,78.5z M71.7,65.9
	c-1.9,0-3.4-1.5-3.4-3.4c0-1.9,1.5-3.4,3.4-3.4c1.9,0,3.4,1.5,3.4,3.4C75.1,64.3,73.6,65.9,71.7,65.9z"/>
</svg>
