<?xml version="1.0" encoding="utf-8"?>
<!-- Generator: Adobe Illustrator 26.4.1, SVG Export Plug-In . SVG Version: 6.00 Build 0)  -->
<svg version="1.1" id="design" xmlns="http://www.w3.org/2000/svg" xmlns:xlink="http://www.w3.org/1999/xlink" x="0px" y="0px"
	 viewBox="0 0 100 100" style="enable-background:new 0 0 100 100;" xml:space="preserve">
<style type="text/css">
	.st0{fill:url(#SVGID_1_);}
</style>
<linearGradient id="SVGID_1_" gradientUnits="userSpaceOnUse" x1="49.998" y1="81.7524" x2="50.0068" y2="16.3081">
	<stop  offset="0" style="stop-color:#FBB040"/>
	<stop  offset="1" style="stop-color:#ED8B00"/>
</linearGradient>
<path class="st0" d="M82.7,59.6c0-0.1,0-0.2,0-0.4c0,0,0-0.1,0-0.1c0-0.1-0.1-0.3-0.2-0.4c-0.1-0.1-0.2-0.3-0.3-0.4
	c0,0-0.1-0.1-0.1-0.1c-0.1-0.1-0.2-0.2-0.3-0.2c0,0,0,0-0.1,0l-11.9-6.9c-0.6-0.4-1.4-0.4-2,0l-3.4,2l-4.9-9.5l2.7-1.6
	c0.6-0.4,1-1,1-1.7V26.5c0,0,0-0.1,0-0.1c0-0.1,0-0.2,0-0.4c0,0,0-0.1,0-0.1c0-0.1-0.1-0.3-0.2-0.4c-0.1-0.1-0.2-0.3-0.3-0.4
	c0,0-0.1-0.1-0.1-0.1c-0.1-0.1-0.2-0.2-0.3-0.2c0,0,0,0-0.1,0l-11.9-6.9c-0.6-0.4-1.4-0.4-2,0l-11.9,6.9c0,0,0,0-0.1,0
	C36.2,24.9,36.1,25,36,25c0,0-0.1,0.1-0.1,0.1c-0.1,0.1-0.2,0.2-0.3,0.4c-0.1,0.1-0.1,0.3-0.2,0.4c0,0,0,0.1,0,0.1
	c0,0.1,0,0.2,0,0.4c0,0,0,0.1,0,0.1v13.8c0,0.7,0.4,1.4,1,1.7l11.9,6.9c0,0,0,0,0.1,0c0.1,0.1,0.2,0.1,0.3,0.1c0,0,0.1,0,0.1,0
	c0.2,0,0.3,0.1,0.5,0.1s0.3,0,0.5-0.1c0,0,0.1,0,0.1,0c0.1,0,0.2-0.1,0.3-0.1c0,0,0,0,0.1,0l5.8-3.3l4.9,9.5l-5,2.9c0,0,0,0-0.1,0
	c-0.1,0.1-0.2,0.1-0.3,0.2c0,0-0.1,0.1-0.1,0.1c-0.1,0.1-0.2,0.2-0.3,0.4C55,58.9,55,59,54.9,59.2c0,0,0,0.1,0,0.1
	c0,0.1,0,0.2,0,0.4c0,0,0,0.1,0,0.1v7.8h-9.7v-7.8c0,0,0-0.1,0-0.1c0-0.1,0-0.2,0-0.4c0,0,0-0.1,0-0.1c0-0.1-0.1-0.3-0.2-0.4
	c-0.1-0.1-0.2-0.3-0.3-0.4c0,0-0.1-0.1-0.1-0.1c-0.1-0.1-0.2-0.2-0.3-0.2c0,0,0,0-0.1,0l-11.9-6.9c-0.6-0.4-1.4-0.4-2,0L18.3,58
	c0,0,0,0-0.1,0c-0.1,0.1-0.2,0.1-0.3,0.2c0,0-0.1,0.1-0.1,0.1c-0.1,0.1-0.2,0.2-0.3,0.4c-0.1,0.1-0.1,0.3-0.2,0.4c0,0,0,0.1,0,0.1
	c0,0.1,0,0.2,0,0.4c0,0,0,0.1,0,0.1v13.8c0,0.7,0.4,1.4,1,1.7l11.9,6.9c0,0,0.1,0,0.1,0c0.1,0.1,0.2,0.1,0.3,0.1c0,0,0.1,0,0.1,0
	c0.2,0,0.3,0.1,0.5,0.1s0.3,0,0.5-0.1c0,0,0.1,0,0.1,0c0.1,0,0.2-0.1,0.3-0.1c0,0,0.1,0,0.1,0l11.9-6.9c0.6-0.4,1-1,1-1.7v-2h9.7v2
	c0,0.7,0.4,1.4,1,1.7l11.9,6.9c0,0,0.1,0,0.1,0c0.1,0.1,0.2,0.1,0.3,0.1c0,0,0.1,0,0.1,0c0.2,0,0.3,0.1,0.5,0.1s0.3,0,0.5-0.1
	c0,0,0.1,0,0.1,0c0.1,0,0.2-0.1,0.3-0.1c0,0,0.1,0,0.1,0l11.9-6.9c0.6-0.4,1-1,1-1.7L82.7,59.6C82.7,59.7,82.7,59.7,82.7,59.6z
	 M51.3,34.5l7.9-4.6v9.2l-7.9,4.6V34.5z M49.3,21.9l7.9,4.6l-7.9,4.6l-7.9-4.6L49.3,21.9z M39.3,30l7.9,4.6v9.2l-7.9-4.6V30z
	 M31.2,55.1l7.9,4.6l-7.9,4.6l-7.9-4.6L31.2,55.1z M21.3,63.2l7.9,4.6v9.2l-7.9-4.6V63.2z M41.1,72.3l-7.9,4.6v-9.2l7.9-4.6V72.3z
	 M68.8,55.1l7.9,4.6l-7.9,4.6l-7.9-4.6L68.8,55.1z M58.9,63.2l7.9,4.6v9.2l-7.9-4.6V63.2z M70.8,76.9v-9.2l7.9-4.6v9.2L70.8,76.9z"
	/>
</svg>
