<?xml version="1.0" encoding="utf-8"?>
<!-- Generator: Adobe Illustrator 26.4.1, SVG Export Plug-In . SVG Version: 6.00 Build 0)  -->
<svg version="1.1" id="design" xmlns="http://www.w3.org/2000/svg" xmlns:xlink="http://www.w3.org/1999/xlink" x="0px" y="0px"
	 viewBox="0 0 100 100" style="enable-background:new 0 0 100 100;" xml:space="preserve">
<style type="text/css">
	.st0{fill:url(#SVGID_1_);}
	.st1{fill:url(#SVGID_00000011746483202300999850000007120477977938051216_);}
	.st2{fill:url(#SVGID_00000109736384475868764120000004088345274928858539_);}
	.st3{fill:url(#SVGID_00000110447798630379229370000013490788360519587237_);}
	.st4{fill:url(#SVGID_00000166654835524049524720000005027422838358334863_);}
	.st5{fill:url(#SVGID_00000115488059397990550210000018236197485269054395_);}
	.st6{fill:url(#SVGID_00000096045550422488185840000002357640861416494005_);}
	.st7{fill:url(#SVGID_00000152967697207017828030000004768449543847712692_);}
</style>
<g>
	<linearGradient id="SVGID_1_" gradientUnits="userSpaceOnUse" x1="50" y1="82.0518" x2="50" y2="17.1773">
		<stop  offset="0" style="stop-color:#FBB040"/>
		<stop  offset="1" style="stop-color:#ED8B00"/>
	</linearGradient>
	<path class="st0" d="M82.9,48.9C80.3,45.3,66.6,27.2,50,27.2S19.7,45.3,17.1,48.9c-0.5,0.7-0.5,1.6,0,2.2
		c2.6,3.6,16.3,21.7,32.9,21.7s30.3-18.1,32.9-21.7C83.4,50.5,83.4,49.6,82.9,48.9z M50,69C36.6,69,24.8,55,21.1,50
		c3.7-4.9,15.5-18.9,28.9-18.9s25.2,14,28.9,18.9C75.2,55,63.4,69,50,69z"/>
	
		<linearGradient id="SVGID_00000050642567279460721140000004763154758310500997_" gradientUnits="userSpaceOnUse" x1="50" y1="82.0518" x2="50" y2="17.1773">
		<stop  offset="0" style="stop-color:#FBB040"/>
		<stop  offset="1" style="stop-color:#ED8B00"/>
	</linearGradient>
	<path style="fill:url(#SVGID_00000050642567279460721140000004763154758310500997_);" d="M50,24.5c1.1,0,1.9-0.9,1.9-1.9v-2.9
		c0-1.1-0.9-1.9-1.9-1.9s-1.9,0.9-1.9,1.9v2.9C48.1,23.6,48.9,24.5,50,24.5z"/>
	
		<linearGradient id="SVGID_00000032639387861149396720000017022291840844787606_" gradientUnits="userSpaceOnUse" x1="28.712" y1="82.0518" x2="28.712" y2="17.1773">
		<stop  offset="0" style="stop-color:#FBB040"/>
		<stop  offset="1" style="stop-color:#ED8B00"/>
	</linearGradient>
	<path style="fill:url(#SVGID_00000032639387861149396720000017022291840844787606_);" d="M28.4,31.2c0.4,0.4,0.9,0.6,1.4,0.6
		s1-0.2,1.4-0.6c0.8-0.8,0.8-2,0-2.7L29,26.4c-0.8-0.8-2-0.8-2.7,0c-0.8,0.8-0.8,2,0,2.7L28.4,31.2z"/>
	
		<linearGradient id="SVGID_00000098190083162728171560000003368472164751851925_" gradientUnits="userSpaceOnUse" x1="71.4459" y1="82.0518" x2="71.4459" y2="17.1773">
		<stop  offset="0" style="stop-color:#FBB040"/>
		<stop  offset="1" style="stop-color:#ED8B00"/>
	</linearGradient>
	<path style="fill:url(#SVGID_00000098190083162728171560000003368472164751851925_);" d="M70.4,31.7c0.5,0,1-0.2,1.4-0.6l2.1-2.1
		c0.8-0.8,0.8-2,0-2.7c-0.8-0.8-2-0.8-2.7,0L69,28.4c-0.8,0.8-0.8,2,0,2.7C69.4,31.5,69.9,31.7,70.4,31.7z"/>
	
		<linearGradient id="SVGID_00000120521693594526196380000010412309361117987477_" gradientUnits="userSpaceOnUse" x1="50" y1="82.0518" x2="50" y2="17.1773">
		<stop  offset="0" style="stop-color:#FBB040"/>
		<stop  offset="1" style="stop-color:#ED8B00"/>
	</linearGradient>
	<path style="fill:url(#SVGID_00000120521693594526196380000010412309361117987477_);" d="M50,75.5c-1.1,0-1.9,0.9-1.9,1.9v2.9
		c0,1.1,0.9,1.9,1.9,1.9s1.9-0.9,1.9-1.9v-2.9C51.9,76.4,51.1,75.5,50,75.5z"/>
	
		<linearGradient id="SVGID_00000155119940722886571570000012717468073937398921_" gradientUnits="userSpaceOnUse" x1="29.3784" y1="82.0518" x2="29.3784" y2="17.1773">
		<stop  offset="0" style="stop-color:#FBB040"/>
		<stop  offset="1" style="stop-color:#ED8B00"/>
	</linearGradient>
	<path style="fill:url(#SVGID_00000155119940722886571570000012717468073937398921_);" d="M29,68.8L27,70.9c-0.8,0.8-0.8,2,0,2.7
		c0.4,0.4,0.9,0.6,1.4,0.6c0.5,0,1-0.2,1.4-0.6l2.1-2.1c0.8-0.8,0.8-2,0-2.7C31,68.1,29.8,68.1,29,68.8z"/>
	
		<linearGradient id="SVGID_00000163031949206897209170000017697642368226210951_" gradientUnits="userSpaceOnUse" x1="70.7794" y1="82.0518" x2="70.7794" y2="17.1773">
		<stop  offset="0" style="stop-color:#FBB040"/>
		<stop  offset="1" style="stop-color:#ED8B00"/>
	</linearGradient>
	<path style="fill:url(#SVGID_00000163031949206897209170000017697642368226210951_);" d="M71.1,68.8c-0.8-0.8-2-0.8-2.7,0
		c-0.8,0.8-0.8,2,0,2.7l2.1,2.1c0.4,0.4,0.9,0.6,1.4,0.6c0.5,0,1-0.2,1.4-0.6c0.8-0.8,0.8-2,0-2.7L71.1,68.8z"/>
	
		<linearGradient id="SVGID_00000021080457320589595200000000878064267013745316_" gradientUnits="userSpaceOnUse" x1="50" y1="82.0518" x2="50" y2="17.1773">
		<stop  offset="0" style="stop-color:#FBB040"/>
		<stop  offset="1" style="stop-color:#ED8B00"/>
	</linearGradient>
	<path style="fill:url(#SVGID_00000021080457320589595200000000878064267013745316_);" d="M61.3,48.1h-0.8c-0.8-4.3-4.2-7.8-8.6-8.6
		v-0.8c0-1.1-0.9-1.9-1.9-1.9s-1.9,0.9-1.9,1.9v0.8c-4.3,0.8-7.8,4.2-8.6,8.6h-0.8c-1.1,0-1.9,0.9-1.9,1.9s0.9,1.9,1.9,1.9h0.8
		c0.8,4.3,4.2,7.8,8.6,8.6v0.8c0,1.1,0.9,1.9,1.9,1.9s1.9-0.9,1.9-1.9v-0.8c4.3-0.8,7.8-4.2,8.6-8.6h0.8c1.1,0,1.9-0.9,1.9-1.9
		S62.3,48.1,61.3,48.1z M51.9,56.6v-0.3c0-1.1-0.9-1.9-1.9-1.9s-1.9,0.9-1.9,1.9v0.3c-2.2-0.7-4-2.4-4.6-4.6h0.3
		c1.1,0,1.9-0.9,1.9-1.9s-0.9-1.9-1.9-1.9h-0.3c0.7-2.2,2.4-4,4.6-4.6v0.3c0,1.1,0.9,1.9,1.9,1.9s1.9-0.9,1.9-1.9v-0.3
		c2.2,0.7,4,2.4,4.6,4.6h-0.3c-1.1,0-1.9,0.9-1.9,1.9s0.9,1.9,1.9,1.9h0.3C55.9,54.2,54.1,55.9,51.9,56.6z"/>
</g>
</svg>
