<?xml version="1.0" encoding="utf-8"?>
<!-- Generator: Adobe Illustrator 26.4.1, SVG Export Plug-In . SVG Version: 6.00 Build 0)  -->
<svg version="1.1" id="design" xmlns="http://www.w3.org/2000/svg" xmlns:xlink="http://www.w3.org/1999/xlink" x="0px" y="0px"
	 viewBox="0 0 100 100" style="enable-background:new 0 0 100 100;" xml:space="preserve">
<style type="text/css">
	.st0{fill:url(#SVGID_1_);}
	.st1{fill:url(#SVGID_00000170256022628168116230000014478075388901362873_);}
	.st2{fill:url(#SVGID_00000123419777139936667890000005713375903115013307_);}
	.st3{fill:url(#SVGID_00000115510347680780331200000012377948236901313922_);}
</style>
<g>
	<linearGradient id="SVGID_1_" gradientUnits="userSpaceOnUse" x1="57.0543" y1="82.0226" x2="57.0543" y2="18.1143">
		<stop  offset="0" style="stop-color:#FBB040"/>
		<stop  offset="1" style="stop-color:#ED8B00"/>
	</linearGradient>
	<path class="st0" d="M57.1,51.5c-3.4,0-6.2,2.8-6.2,6.2s2.8,6.2,6.2,6.2s6.2-2.8,6.2-6.2S60.5,51.5,57.1,51.5z M57.1,59.8
		c-1.1,0-2-0.9-2-2s0.9-2,2-2s2,0.9,2,2S58.2,59.8,57.1,59.8z"/>
	
		<linearGradient id="SVGID_00000114763177685845958910000002821995349269674921_" gradientUnits="userSpaceOnUse" x1="51.6506" y1="82.0226" x2="51.6506" y2="18.1143">
		<stop  offset="0" style="stop-color:#FBB040"/>
		<stop  offset="1" style="stop-color:#ED8B00"/>
	</linearGradient>
	<path style="fill:url(#SVGID_00000114763177685845958910000002821995349269674921_);" d="M60.7,45.4c0-1.2-0.9-2.1-2.1-2.1
		c-8.8,0-16,7.2-16,16c0,1.2,0.9,2.1,2.1,2.1c1.2,0,2.1-0.9,2.1-2.1c0-6.5,5.3-11.8,11.8-11.8C59.8,47.5,60.7,46.6,60.7,45.4z"/>
	
		<linearGradient id="SVGID_00000142169300136233214410000013860411509088291968_" gradientUnits="userSpaceOnUse" x1="47.6979" y1="82.0226" x2="47.6979" y2="18.1143">
		<stop  offset="0" style="stop-color:#FBB040"/>
		<stop  offset="1" style="stop-color:#ED8B00"/>
	</linearGradient>
	<path style="fill:url(#SVGID_00000142169300136233214410000013860411509088291968_);" d="M58.6,39.6c1.2,0,2.1-0.9,2.1-2.1
		c0-1.2-0.9-2.1-2.1-2.1c-13.2,0-23.9,10.7-23.9,23.9c0,1.2,0.9,2.1,2.1,2.1c1.2,0,2.1-0.9,2.1-2.1C38.9,48.5,47.7,39.6,58.6,39.6z"
		/>
	
		<linearGradient id="SVGID_00000064330860356939859890000000135559269884700351_" gradientUnits="userSpaceOnUse" x1="50" y1="82.0226" x2="50" y2="18.1143">
		<stop  offset="0" style="stop-color:#FBB040"/>
		<stop  offset="1" style="stop-color:#ED8B00"/>
	</linearGradient>
	<path style="fill:url(#SVGID_00000064330860356939859890000000135559269884700351_);" d="M79.1,43c-0.3,0-0.5,0-0.7,0
		c0,0-0.1,0-0.1,0c-0.2,0-0.4,0.1-0.6,0.1c0,0,0,0,0,0l-7.9-13.6c0.1-0.1,0.1-0.1,0.2-0.2c0.1-0.1,0.1-0.2,0.2-0.2
		c0.1-0.1,0.1-0.2,0.2-0.3c0.1-0.1,0.1-0.2,0.2-0.3c0.1-0.1,0.1-0.2,0.2-0.3c0.1-0.1,0.1-0.2,0.2-0.3c0-0.1,0.1-0.2,0.1-0.2
		c0.1-0.1,0.1-0.2,0.2-0.4c0-0.1,0.1-0.2,0.1-0.2c0-0.1,0.1-0.3,0.1-0.4c0-0.1,0-0.2,0.1-0.3c0-0.1,0.1-0.3,0.1-0.4
		c0-0.1,0-0.2,0.1-0.3c0-0.1,0-0.2,0-0.3c0-0.2,0-0.5,0-0.7c0-3.9-3.1-7-7-7c-0.2,0-0.4,0-0.7,0c-0.1,0-0.1,0-0.2,0
		c-0.1,0-0.3,0-0.4,0.1c-0.1,0-0.1,0-0.2,0c-0.1,0-0.3,0.1-0.4,0.1c-0.1,0-0.1,0-0.2,0.1c-0.2,0.1-0.3,0.1-0.5,0.2c0,0-0.1,0-0.1,0
		c-0.2,0.1-0.4,0.2-0.6,0.3c-0.1,0-0.1,0.1-0.2,0.1c-0.1,0.1-0.3,0.1-0.4,0.2c-0.1,0-0.1,0.1-0.2,0.1c-0.1,0.1-0.2,0.2-0.3,0.2
		c-0.1,0-0.1,0.1-0.2,0.1c-0.1,0.1-0.2,0.2-0.3,0.3c0,0-0.1,0.1-0.1,0.1c-0.1,0.1-0.3,0.3-0.4,0.5c0,0-0.1,0.1-0.1,0.1
		c-0.1,0.1-0.2,0.2-0.3,0.4c0,0.1-0.1,0.1-0.1,0.2c-0.1,0.1-0.1,0.2-0.2,0.4c0,0.1-0.1,0.1-0.1,0.2c-0.1,0.1-0.1,0.3-0.2,0.4
		c0,0.1-0.1,0.1-0.1,0.2c-0.1,0.2-0.2,0.4-0.2,0.6H42.2c-0.1-0.2-0.1-0.4-0.2-0.6c0-0.1-0.1-0.1-0.1-0.2c-0.1-0.1-0.1-0.3-0.2-0.4
		c0-0.1-0.1-0.1-0.1-0.2c-0.1-0.1-0.1-0.2-0.2-0.4c0-0.1-0.1-0.1-0.1-0.2c-0.1-0.1-0.2-0.3-0.3-0.4c0,0-0.1-0.1-0.1-0.1
		c-0.1-0.2-0.3-0.3-0.4-0.5c0,0-0.1-0.1-0.1-0.1c-0.1-0.1-0.2-0.2-0.3-0.3c-0.1,0-0.1-0.1-0.2-0.1c-0.1-0.1-0.2-0.2-0.3-0.2
		c-0.1,0-0.1-0.1-0.2-0.1c-0.1-0.1-0.3-0.2-0.4-0.2c-0.1,0-0.1-0.1-0.2-0.1c-0.2-0.1-0.4-0.2-0.6-0.3c0,0-0.1,0-0.1,0
		c-0.2-0.1-0.3-0.1-0.5-0.2c-0.1,0-0.1,0-0.2-0.1C37.3,18,37.2,18,37,18c-0.1,0-0.1,0-0.2,0c-0.1,0-0.3,0-0.4-0.1
		c-0.1,0-0.1,0-0.2,0c-0.2,0-0.4,0-0.7,0c-3.9,0-7,3.1-7,7c0,0.2,0,0.5,0,0.7c0,0.1,0,0.3,0.1,0.4c0,0.1,0,0.2,0,0.3
		c0,0.2,0.1,0.3,0.1,0.5c0,0,0,0.1,0,0.1c0.1,0.2,0.1,0.3,0.2,0.5c0,0,0,0.1,0,0.1c0.1,0.2,0.1,0.3,0.2,0.5c0,0,0,0,0,0.1
		c0.1,0.2,0.2,0.3,0.3,0.5c0,0,0,0.1,0.1,0.1c0.1,0.1,0.2,0.3,0.3,0.4c0,0,0.1,0.1,0.1,0.1c0.1,0.1,0.2,0.3,0.3,0.4c0,0,0,0,0.1,0.1
		l-7.9,13.7c0,0,0,0,0,0c-0.2,0-0.4-0.1-0.6-0.1c0,0-0.1,0-0.1,0c-0.2,0-0.5,0-0.7,0c0,0,0,0,0,0s0,0,0,0c-2.7,0-5,1.5-6.2,3.7
		c-0.5,1-0.8,2.1-0.8,3.3c0,1.2,0.3,2.3,0.8,3.3c1.2,2.2,3.5,3.7,6.2,3.7c0,0,0,0,0,0s0,0,0,0c0.3,0,0.5,0,0.8,0c0,0,0.1,0,0.1,0
		c0.2,0,0.4-0.1,0.6-0.1c0,0,0,0,0,0l7.9,13.7c0,0,0,0-0.1,0.1c-0.1,0.1-0.2,0.3-0.3,0.4c0,0-0.1,0.1-0.1,0.1
		c-0.1,0.1-0.2,0.3-0.3,0.4c0,0,0,0.1,0,0.1c-0.1,0.2-0.2,0.3-0.3,0.5c0,0,0,0,0,0.1c-0.1,0.2-0.2,0.3-0.2,0.5c0,0,0,0.1,0,0.1
		c-0.1,0.2-0.1,0.3-0.2,0.5c0,0,0,0.1,0,0.1c0,0.2-0.1,0.3-0.1,0.5c0,0.1,0,0.2,0,0.3c0,0.1,0,0.3-0.1,0.4c0,0.2,0,0.4,0,0.7
		c0,3.9,3.1,7,7,7c0.2,0,0.4,0,0.7,0c0.1,0,0.1,0,0.2,0c0.1,0,0.3,0,0.4-0.1c0.1,0,0.2,0,0.2,0c0.1,0,0.3-0.1,0.4-0.1
		c0.1,0,0.1,0,0.2-0.1c0.2-0.1,0.3-0.1,0.5-0.2c0,0,0.1,0,0.1,0c0.2-0.1,0.4-0.2,0.6-0.3c0.1,0,0.1-0.1,0.2-0.1
		c0.1-0.1,0.3-0.1,0.4-0.2c0.1,0,0.1-0.1,0.2-0.1c0.1-0.1,0.2-0.2,0.3-0.2c0.1,0,0.1-0.1,0.2-0.1c0.1-0.1,0.2-0.2,0.3-0.3
		c0,0,0.1-0.1,0.1-0.1c0.1-0.1,0.3-0.3,0.4-0.5c0,0,0.1-0.1,0.1-0.1c0.1-0.1,0.2-0.3,0.3-0.4c0-0.1,0.1-0.1,0.1-0.2
		c0.1-0.1,0.2-0.2,0.2-0.4c0-0.1,0.1-0.1,0.1-0.2c0.1-0.1,0.1-0.3,0.2-0.4c0-0.1,0-0.1,0.1-0.2c0.1-0.2,0.2-0.4,0.2-0.6H58
		c0.1,0.2,0.1,0.4,0.2,0.6c0,0.1,0.1,0.1,0.1,0.2c0.1,0.1,0.1,0.3,0.2,0.4c0,0.1,0.1,0.1,0.1,0.2c0.1,0.1,0.1,0.2,0.2,0.4
		c0,0.1,0.1,0.1,0.1,0.2c0.1,0.1,0.2,0.3,0.3,0.4c0,0,0.1,0.1,0.1,0.1c0.1,0.2,0.3,0.3,0.4,0.5c0,0,0.1,0.1,0.1,0.1
		c0.1,0.1,0.2,0.2,0.3,0.3c0.1,0,0.1,0.1,0.2,0.1c0.1,0.1,0.2,0.2,0.3,0.2c0.1,0,0.1,0.1,0.2,0.1c0.1,0.1,0.2,0.2,0.4,0.2
		c0.1,0,0.1,0.1,0.2,0.1c0.2,0.1,0.4,0.2,0.6,0.3c0,0,0.1,0,0.1,0c0.2,0.1,0.3,0.1,0.5,0.2c0.1,0,0.1,0,0.2,0.1
		c0.1,0,0.3,0.1,0.4,0.1c0.1,0,0.1,0,0.2,0c0.1,0,0.3,0,0.4,0.1c0.1,0,0.1,0,0.2,0c0.2,0,0.4,0,0.7,0c3.9,0,7-3.1,7-7
		c0-0.2,0-0.5,0-0.7c0-0.1,0-0.2,0-0.3c0-0.1,0-0.2-0.1-0.3c0-0.1-0.1-0.3-0.1-0.4c0-0.1,0-0.2-0.1-0.3c0-0.1-0.1-0.3-0.1-0.4
		c0-0.1-0.1-0.2-0.1-0.2c-0.1-0.1-0.1-0.2-0.2-0.4c0-0.1-0.1-0.2-0.1-0.2c-0.1-0.1-0.1-0.2-0.2-0.3c-0.1-0.1-0.1-0.2-0.2-0.3
		c-0.1-0.1-0.1-0.2-0.2-0.3c-0.1-0.1-0.1-0.2-0.2-0.3c-0.1-0.1-0.1-0.2-0.2-0.2c-0.1-0.1-0.1-0.1-0.2-0.2l7.9-13.6c0,0,0,0,0,0
		c0.2,0,0.4,0.1,0.6,0.1c0,0,0.1,0,0.1,0c0.2,0,0.5,0,0.8,0c3.9,0,7-3.1,7-7C86.1,46.1,83,43,79.1,43z M67.4,24.8
		c0,0.2,0,0.3-0.1,0.5c0,0,0,0.1,0,0.1c0,0.1-0.1,0.3-0.1,0.4c0,0,0,0,0,0.1c-0.1,0.1-0.1,0.3-0.2,0.4c0,0-0.1,0.1-0.1,0.1
		c-0.1,0.1-0.2,0.2-0.2,0.3c0,0,0,0-0.1,0.1c-0.1,0.1-0.2,0.2-0.4,0.3c0,0-0.1,0.1-0.1,0.1c-0.4,0.3-0.9,0.4-1.5,0.4
		c-1.5,0-2.8-1.3-2.8-2.8c0-1.5,1.3-2.8,2.8-2.8C66.2,22,67.4,23.2,67.4,24.8z M35.5,22c1.5,0,2.8,1.3,2.8,2.8
		c0,1.5-1.3,2.8-2.8,2.8c-0.5,0-1-0.2-1.5-0.4c-0.1,0-0.1-0.1-0.2-0.1c-0.1-0.1-0.2-0.1-0.3-0.2c0,0-0.1,0-0.1-0.1
		c-0.1-0.1-0.2-0.2-0.3-0.4c0,0,0-0.1-0.1-0.1c-0.1-0.1-0.2-0.3-0.2-0.4c0,0,0,0,0,0c-0.1-0.2-0.1-0.3-0.1-0.5c0,0,0-0.1,0-0.1
		c0-0.2-0.1-0.3-0.1-0.5C32.7,23.2,33.9,22,35.5,22z M22,52.6c-0.1,0.1-0.3,0.1-0.4,0.1c0,0-0.1,0-0.1,0c-0.2,0-0.3,0.1-0.5,0.1
		c0,0,0,0,0,0c-1.4,0-2.5-1-2.7-2.2c0-0.2-0.1-0.4-0.1-0.6c0-0.2,0-0.4,0.1-0.6c0.3-1.3,1.4-2.2,2.7-2.2c0,0,0,0,0,0
		c0.2,0,0.3,0,0.5,0.1c0,0,0.1,0,0.1,0c0.2,0,0.3,0.1,0.4,0.1c0,0,0.1,0,0.1,0.1c1,0.4,1.6,1.4,1.6,2.5c0,1.1-0.7,2.1-1.6,2.5
		C22,52.5,22,52.6,22,52.6z M32.7,75.2c0-0.2,0-0.3,0.1-0.5c0,0,0-0.1,0-0.1c0-0.2,0.1-0.3,0.1-0.5c0,0,0,0,0,0
		c0.1-0.2,0.1-0.3,0.2-0.4c0,0,0-0.1,0.1-0.1c0.1-0.1,0.2-0.3,0.3-0.4c0,0,0.1,0,0.1-0.1c0.1-0.1,0.2-0.2,0.3-0.2
		c0.1,0,0.1-0.1,0.2-0.1c0.4-0.3,0.9-0.4,1.5-0.4c1.5,0,2.8,1.3,2.8,2.8c0,1.5-1.3,2.8-2.8,2.8C33.9,78,32.7,76.8,32.7,75.2z
		 M64.6,78c-1.5,0-2.8-1.3-2.8-2.8c0-1.5,1.3-2.8,2.8-2.8c0.5,0,1.1,0.2,1.5,0.4c0,0,0.1,0.1,0.1,0.1c0.1,0.1,0.2,0.2,0.4,0.3
		c0,0,0,0,0.1,0.1c0.1,0.1,0.2,0.2,0.3,0.3c0,0,0.1,0.1,0.1,0.1c0.1,0.1,0.1,0.2,0.2,0.4c0,0,0,0,0,0.1c0.1,0.1,0.1,0.3,0.1,0.4
		c0,0,0,0.1,0,0.1c0,0.2,0.1,0.3,0.1,0.5C67.4,76.8,66.2,78,64.6,78z M66.1,68.4c-0.5-0.1-0.9-0.2-1.4-0.2c-3.1,0-5.8,2.1-6.7,4.9
		H42.2c-0.9-2.8-3.5-4.9-6.7-4.9c-0.5,0-1.1,0.1-1.6,0.2L26,54.7c1.1-1.2,1.8-2.9,1.8-4.7c0-1.8-0.7-3.5-1.8-4.7l7.9-13.7
		c0.5,0.1,1,0.2,1.6,0.2c3.1,0,5.8-2.1,6.7-4.9H58c0.9,2.8,3.5,4.9,6.7,4.9c0.5,0,1-0.1,1.4-0.2L74,45.3c-1.1,1.2-1.8,2.9-1.8,4.7
		c0,1.8,0.7,3.5,1.8,4.7L66.1,68.4z M79.1,52.8c-0.2,0-0.3,0-0.5-0.1c0,0-0.1,0-0.1,0c-0.2,0-0.3-0.1-0.4-0.1c0,0-0.1,0-0.1-0.1
		c-1-0.4-1.6-1.4-1.6-2.5c0-1.1,0.7-2.1,1.6-2.5c0,0,0.1,0,0.1-0.1c0.1-0.1,0.3-0.1,0.4-0.1c0,0,0.1,0,0.1,0c0.2,0,0.3-0.1,0.5-0.1
		c1.5,0,2.8,1.3,2.8,2.8C81.9,51.5,80.7,52.8,79.1,52.8z"/>
</g>
</svg>
