<?xml version="1.0" encoding="utf-8"?>
<!-- Generator: Adobe Illustrator 26.4.1, SVG Export Plug-In . SVG Version: 6.00 Build 0)  -->
<svg version="1.1" id="design" xmlns="http://www.w3.org/2000/svg" xmlns:xlink="http://www.w3.org/1999/xlink" x="0px" y="0px"
	 viewBox="0 0 100 100" style="enable-background:new 0 0 100 100;" xml:space="preserve">
<style type="text/css">
	.st0{fill:url(#SVGID_1_);}
	.st1{fill:url(#SVGID_00000023246947770180008350000017756388560501714593_);}
	.st2{fill:url(#SVGID_00000025417104888006135850000000702990804904998077_);}
</style>
<g>
	<linearGradient id="SVGID_1_" gradientUnits="userSpaceOnUse" x1="50.4799" y1="81.516" x2="50.4799" y2="17.5011">
		<stop  offset="0" style="stop-color:#FBB040"/>
		<stop  offset="1" style="stop-color:#ED8B00"/>
	</linearGradient>
	<path class="st0" d="M55.6,66.4c-1.4,0.8-3.2,1.2-5.1,1.2c-1.9,0-3.7-0.4-5.1-1.2c-0.9-0.5-2-0.1-2.5,0.8c-0.5,0.9-0.1,2,0.8,2.5
		c2,1.1,4.4,1.6,6.9,1.6c2.5,0,4.9-0.6,6.9-1.6c0.9-0.5,1.3-1.6,0.8-2.5S56.5,65.9,55.6,66.4z"/>
	
		<linearGradient id="SVGID_00000183959534165218060420000007938449511176187287_" gradientUnits="userSpaceOnUse" x1="50" y1="81.516" x2="50" y2="17.5011">
		<stop  offset="0" style="stop-color:#FBB040"/>
		<stop  offset="1" style="stop-color:#ED8B00"/>
	</linearGradient>
	<path style="fill:url(#SVGID_00000183959534165218060420000007938449511176187287_);" d="M72,30.9c-1.3-6.5-7.1-11.3-13.8-11.3
		h-0.3c-0.1-1-0.9-1.7-1.9-1.7H43.9c-1,0-1.8,0.8-1.9,1.7h-0.3c-6.7,0-12.5,4.9-13.8,11.3c-3.5,0.8-6.2,4-6.2,7.7v16
		c0,3.7,2.6,6.9,6.1,7.7C29,73.6,38.5,82.2,50,82.2c11.5,0,21-8.6,22.1-19.9c3.5-0.8,6.1-4,6.1-7.7v-16C78.2,34.8,75.5,31.7,72,30.9
		z M68.1,30.7H57.9v-7.4h0.3C62.8,23.3,66.8,26.4,68.1,30.7z M54.2,30.7h-8.4v-9.1h8.4V30.7z M41.8,23.3h0.3v7.4H31.9
		C33.2,26.4,37.2,23.3,41.8,23.3z M50,78.5c-9.4,0-17.1-6.9-18.3-16h9.2c2.4,0,4.8-0.9,6.8-2.7c0.5-0.4,1.3-1,2.3-1
		c1,0,1.8,0.5,2.3,1c2,1.8,4.4,2.7,6.8,2.7h9.3C67.1,71.6,59.4,78.5,50,78.5z M74.4,54.6c0,2.3-1.8,4.1-4,4.2c0,0,0,0,0,0
		c-0.1,0-0.1,0-0.2,0H59.1c-1.9,0-3.4-1-4.3-1.8c-1.4-1.2-3.1-1.9-4.8-1.9c-1.7,0-3.4,0.7-4.8,1.9c-0.9,0.8-2.4,1.8-4.3,1.8H29.8
		c-0.1,0-0.1,0-0.2,0c0,0,0,0,0,0c-2.2-0.1-4.1-1.9-4.1-4.2v-16c0-2.3,1.8-4.1,4.1-4.2c0,0,0,0,0,0c0.1,0,0.1,0,0.2,0h14.1h12.1
		h14.1c0.1,0,0.1,0,0.2,0c0,0,0,0,0,0c2.3,0.1,4.1,1.9,4.1,4.2V54.6z"/>
	
		<linearGradient id="SVGID_00000029021509955244426000000003913214524769417918_" gradientUnits="userSpaceOnUse" x1="50" y1="81.516" x2="50" y2="17.5011">
		<stop  offset="0" style="stop-color:#FBB040"/>
		<stop  offset="1" style="stop-color:#ED8B00"/>
	</linearGradient>
	<path style="fill:url(#SVGID_00000029021509955244426000000003913214524769417918_);" d="M55.3,37.1H44.7c-1,0-1.9,0.8-1.9,1.9
		s0.8,1.9,1.9,1.9h10.5c1,0,1.9-0.8,1.9-1.9S56.3,37.1,55.3,37.1z"/>
</g>
</svg>
