<svg xmlns="http://www.w3.org/2000/svg" viewBox="0 0 700 327"><defs><style>.cls-1{fill:#d6d6d6;}.cls-2{fill:#cbedff;}.cls-3{fill:#cfdcff;}.cls-4{fill:#faa2a1;}.cls-5{fill:#db7170;}.cls-6{fill:#45596e;}.cls-7{fill:#48547a;}.cls-8{fill:#f59f9e;}.cls-9{fill:#fff;}.cls-10{fill:#f15a24;}.cls-11{fill:#6884a3;}.cls-12{fill:#0071bc;}.cls-13{fill:#5f7894;}.cls-14{fill:#3c3d4d;}.cls-15{fill:#4c6278;}.cls-16{fill:#754949;}.cls-17{fill:#674650;}.cls-18{fill:#b0727c;}.cls-19{fill:#586f8a;}.cls-20{fill:#4d627a;}.cls-21{fill:#414366;}.cls-22{fill:#a7a9ac;}.cls-23{fill:#8f4b59;}.cls-24{fill:#5d342b;}.cls-25{fill:#b0bbd9;}.cls-26{fill:#3b495c;}.cls-27{fill:#5c656b;}.cls-28{fill:#7c6b85;}.cls-29{fill:#66596e;}.cls-30{fill:#4a5c73;}.cls-31{fill:#3a3b4d;}.cls-32{fill:#3b3c4f;}.cls-33{fill:#2b2c40;}.cls-34{fill:#ccdfff;}.cls-35{fill:#573a43;}.cls-36{fill:#fbd5a2;}.cls-37{fill:#ef9796;}.cls-38{fill:#f28987;}.cls-39{fill:#835353;}.cls-40{fill:#49364f;}.cls-41{fill:#363754;}.cls-42{fill:#181929;}.cls-43{fill:#ffb1b0;}.cls-44{fill:#635309;}.cls-45{fill:#a16971;}.cls-46{fill:#422b27;}.cls-47{fill:#5e3d38;}</style></defs><title>Become ScienceSoft&amp;apos;s partner</title><g id="Layer_1" data-name="Layer 1"><path class="cls-1" d="M250.72,293c-1.31-1.52-2.61-3.1-3.85-4.69l2.36-1.85c1.22,1.55,2.48,3.09,3.76,4.58Z"/><path class="cls-1" d="M457.73,282.09l-2.47-1.71c2.23-3.21,4.33-6.57,6.25-10l2.61,1.48C462.15,275.37,460,278.8,457.73,282.09Zm-217.84-3.57c-2.17-3.36-4.21-6.86-6.05-10.4l2.66-1.39c1.81,3.46,3.8,6.88,5.92,10.16Zm229.66-17.37-2.74-1.23c1.6-3.56,3-7.24,4.31-10.94l2.84,1C472.67,253.74,471.18,257.51,469.54,261.15Zm-240.78-3.94c-1.51-3.7-2.87-7.51-4-11.33l2.87-.88c1.14,3.74,2.47,7.46,3.95,11.07ZM477.32,238.4l-2.92-.7c.91-3.79,1.66-7.68,2.22-11.55l3,.43C479,230.54,478.26,234.51,477.32,238.4Zm-255.57-4.17c-.81-3.91-1.44-7.91-1.89-11.88l3-.33c.43,3.88,1.06,7.79,1.84,11.61Zm259-19.62-3-.16c.12-2.27.18-4.58.18-6.85,0-1.64,0-3.29-.09-4.92l3-.11c.06,1.66.09,3.35.09,5C481,209.92,480.9,212.27,480.78,214.6Zm-261.71-4.26q0-1.37,0-2.75c0-3.09.11-6.21.32-9.28l3,.21c-.21,3-.32,6-.32,9.07q0,1.34,0,2.68ZM476.89,191c-.5-3.87-1.19-7.77-2-11.57l2.93-.66c.88,3.9,1.58,7.88,2.09,11.85Zm-253.18-4.11-3-.48c.64-3.95,1.48-7.91,2.48-11.77l2.9.75C225.15,179.12,224.34,183,223.71,186.85Zm248-18.8c-1.21-3.71-2.6-7.41-4.14-11l2.76-1.19c1.58,3.67,3,7.46,4.24,11.26Zm-242.13-3.93-2.82-1c1.36-3.76,2.91-7.5,4.61-11.12l2.72,1.28C232.45,156.79,230.94,160.45,229.61,164.12Zm232.85-17.63c-1.87-3.43-3.92-6.81-6.09-10.05l2.49-1.67c2.22,3.32,4.32,6.78,6.23,10.29ZM239.6,142.86,237,141.34c2-3.44,4.23-6.83,6.57-10.08L246,133C243.73,136.18,241.57,139.5,239.6,142.86ZM449.38,127c-2.46-3-5.09-6-7.82-8.78l2.15-2.1c2.79,2.86,5.48,5.88,8,9Zm-196.08-3.2-2.27-2c2.62-3,5.41-6,8.29-8.72l2.08,2.16C258.59,118,255.86,120.83,253.3,123.78ZM433,110.17c-3-2.53-6.1-5-9.29-7.21l1.73-2.45c3.26,2.3,6.46,4.79,9.5,7.38Zm-162.71-2.66-1.87-2.34c3.13-2.49,6.4-4.87,9.74-7.07l1.65,2.51C276.51,102.76,273.31,105.08,270.25,107.52ZM413.77,96.63c-3.39-2-6.91-3.77-10.45-5.39l1.25-2.73C408.2,90.18,411.8,92,415.27,94Zm-123.9-2L288.46,92c3.53-1.88,7.18-3.62,10.86-5.16l1.16,2.77C296.89,91.07,293.32,92.77,289.87,94.61Zm102.55-7.78c-3.68-1.29-7.47-2.43-11.26-3.38l.73-2.91c3.88,1,7.75,2.13,11.52,3.46Zm-80.9-1.31-.9-2.86c3.81-1.2,7.72-2.23,11.63-3.08l.63,2.93C319.07,83.34,315.24,84.35,311.52,85.52Zm58.12-4.39c-3.85-.59-7.78-1-11.69-1.25l.18-3c4,.24,8,.68,12,1.28Zm-35.17-.57-.36-3c4-.48,8-.78,12-.9l.09,3C342.29,79.8,338.34,80.1,334.48,80.57Z"/><path class="cls-1" d="M446.3,296.35l-2.21-2c1.33-1.45,2.65-2.94,3.92-4.45l2.3,1.93C449,293.34,447.66,294.87,446.3,296.35Z"/><path class="cls-2" d="M211.52,301c-1.12-1.66-2.23-3.37-3.3-5.07l2.54-1.59c1,1.67,2.13,3.35,3.24,5Z"/><path class="cls-2" d="M491.38,296.52l-2.54-1.6c2.13-3.38,4.17-6.89,6-10.42l2.65,1.41C495.63,289.51,493.55,293.08,491.38,296.52ZM202.11,285.26c-1.9-3.6-3.68-7.33-5.31-11.06l2.75-1.2c1.6,3.67,3.35,7.32,5.21,10.86ZM502.9,274.88l-2.75-1.21c1.62-3.66,3.11-7.43,4.45-11.2l2.83,1C506.07,267.31,504.54,271.15,502.9,274.88Zm-310.57-12.1c-1.35-3.84-2.56-7.79-3.62-11.72l2.9-.78c1,3.86,2.23,7.73,3.55,11.51Zm318.77-11-2.89-.79c1.05-3.86,2-7.8,2.75-11.73l2.94.58C513.12,243.82,512.17,247.84,511.1,251.77ZM186,239.1c-.76-4-1.39-8.08-1.85-12.12l3-.34c.46,4,1.07,8,1.82,11.91ZM515.8,227.7l-3-.36c.48-4,.81-8,1-12l3,.14C516.63,219.56,516.29,223.67,515.8,227.7ZM183.15,214.75c-.1-2.38-.15-4.79-.15-7.16,0-1.69,0-3.41.08-5.1l3,.09c0,1.66-.08,3.35-.08,5,0,2.33,0,4.7.15,7Zm330.8-11.47c-.11-4-.36-8.06-.75-12l3-.29c.4,4,.65,8.15.76,12.24ZM186.87,190.56l-3-.31c.42-4.06,1-8.14,1.71-12.14l3,.53C187.84,182.57,187.28,186.58,186.87,190.56Zm324.71-11.23c-.69-3.94-1.53-7.91-2.5-11.78l2.91-.73c1,3.94,1.85,8,2.54,12ZM191.09,166.87l-2.91-.74c1-3.94,2.18-7.9,3.47-11.76l2.84,1C193.23,159.11,192.08,163,191.09,166.87ZM505.72,156c-1.26-3.79-2.67-7.59-4.2-11.27l2.77-1.15c1.56,3.75,3,7.61,4.28,11.48ZM198.77,144,196,142.88c1.58-3.75,3.32-7.5,5.18-11.13l2.67,1.36C202,136.68,200.32,140.35,198.77,144Zm297.73-10.26c-1.8-3.56-3.75-7.1-5.82-10.54l2.57-1.54c2.1,3.5,4.09,7.11,5.92,10.73Zm-286.77-11.2L207.16,121c2.11-3.48,4.38-6.93,6.75-10.25l2.44,1.74C214,115.78,211.8,119.17,209.72,122.59Zm274.38-9.43c-2.3-3.26-4.76-6.49-7.3-9.58l2.32-1.9c2.59,3.15,5.09,6.43,7.43,9.75ZM223.7,103l-2.31-1.92c2.6-3.13,5.35-6.21,8.17-9.15L231.72,94C228.95,96.87,226.25,99.89,223.7,103Zm245.13-8.41c-2.76-2.9-5.66-5.73-8.62-8.42l2-2.22c3,2.74,6,5.62,8.77,8.57ZM240.38,85.61l-2-2.23c3-2.72,6.19-5.37,9.41-7.86l1.84,2.37C246.46,80.34,243.35,82.93,240.38,85.61ZM451,78.37c-3.15-2.47-6.44-4.85-9.75-7.07l1.67-2.49c3.38,2.27,6.72,4.69,9.93,7.2ZM259.4,70.87l-1.66-2.5c3.39-2.25,6.91-4.41,10.45-6.4l1.47,2.61C266.19,66.54,262.73,68.65,259.4,70.87ZM431,65c-3.48-2-7.07-3.85-10.69-5.57l1.29-2.71c3.68,1.75,7.34,3.66,10.88,5.67ZM280.37,59.07l-1.28-2.72c3.68-1.73,7.48-3.34,11.27-4.8l1.07,2.8C287.71,55.78,284,57.37,280.37,59.07Zm128.87-4.45c-3.74-1.45-7.57-2.77-11.4-3.94l.87-2.87c3.9,1.19,7.8,2.54,11.61,4Zm-106.4-4.14L302,47.6c3.9-1.17,7.89-2.21,11.87-3.08l.65,2.93C310.59,48.31,306.67,49.33,302.84,50.47ZM386.2,47.6c-3.89-.88-7.88-1.62-11.84-2.21l.44-3c4,.6,8.09,1.36,12.06,2.25Zm-59.85-2.31-.43-3c4-.58,8.13-1,12.19-1.31l.21,3C334.32,44.28,330.29,44.71,326.34,45.29Zm36-1.23c-4-.3-8-.45-12-.46v-3c4.08,0,8.2.17,12.25.47Z"/><path class="cls-2" d="M480.64,311.64l-2.35-1.87c1.23-1.54,2.45-3.13,3.62-4.71l2.41,1.79C483.13,308.46,481.89,310.07,480.64,311.64Z"/><path class="cls-3" d="M181.24,318.82c-1.1-1.67-2.2-3.38-3.25-5.09l2.55-1.58c1,1.68,2.12,3.37,3.2,5Z"/><path class="cls-3" d="M527.18,304.88l-2.63-1.45c1.91-3.48,3.74-7.05,5.44-10.63l2.71,1.29C531,297.72,529.12,301.35,527.18,304.88Zm-355.26-1.65c-1.91-3.55-3.73-7.19-5.42-10.84l2.72-1.26c1.66,3.59,3.46,7.19,5.34,10.68ZM537.56,283l-2.78-1.12c1.48-3.67,2.86-7.44,4.12-11.2l2.85.95C540.47,275.44,539.06,279.27,537.56,283Zm-375.82-1.74c-1.47-3.75-2.84-7.59-4.08-11.41l2.85-.92c1.22,3.77,2.57,7.55,4,11.24ZM545.23,260l-2.9-.78c1-3.82,1.95-7.73,2.74-11.62l2.94.6C547.21,252.16,546.27,256.13,545.23,260ZM154.29,258.2c-1-3.9-1.9-7.88-2.67-11.82l2.95-.57c.75,3.88,1.64,7.8,2.63,11.64Zm395.79-21.93-3-.42c.56-3.93,1-7.92,1.32-11.87l3,.24C551.1,228.23,550.64,232.28,550.08,236.27Zm-400.41-1.85c-.53-4-.94-8-1.23-12.05l3-.22c.29,4,.69,8,1.21,11.87ZM552,212.12l-3-.07q0-2.22,0-4.45c0-2.49,0-5-.14-7.49l3-.11c.09,2.52.14,5.08.14,7.6Q552.1,209.86,552,212.12Zm-404.13-1.85q0-1.33,0-2.67c0-3.14.07-6.32.22-9.44l3,.14c-.14,3.08-.21,6.21-.21,9.3q0,1.32,0,2.63ZM548.16,188.2c-.38-4-.89-7.93-1.5-11.84l3-.47c.63,4,1.14,8,1.53,12ZM152,186.39l-3-.32c.42-4,1-8,1.64-12l3,.49C153,178.47,152.44,182.45,152,186.39Zm392.43-21.76c-.85-3.87-1.83-7.77-2.91-11.57l2.88-.82c1.1,3.86,2.09,7.82,3,11.75Zm-388.5-1.77-2.92-.67c.9-3.92,1.93-7.86,3.07-11.72l2.88.85C157.85,155.12,156.83,159,155.95,162.86Zm382-21.18c-1.31-3.73-2.75-7.47-4.28-11.12l2.77-1.16c1.55,3.7,3,7.5,4.34,11.29ZM162.68,140l-2.82-1c1.37-3.78,2.87-7.58,4.46-11.28l2.75,1.19C165.51,132.51,164,136.25,162.68,140Zm366-20.25c-1.75-3.55-3.63-7.09-5.59-10.53l2.61-1.49c2,3.49,3.9,7.09,5.67,10.69ZM172.14,118l-2.68-1.35c1.81-3.59,3.76-7.18,5.79-10.66l2.59,1.51C175.84,111,173.92,114.5,172.14,118ZM516.91,99c-2.16-3.32-4.45-6.61-6.81-9.79l2.41-1.79c2.39,3.23,4.72,6.57,6.91,9.94ZM184.16,97.4l-2.5-1.66c2.23-3.35,4.59-6.67,7-9.88l2.39,1.81C188.68,90.82,186.35,94.1,184.16,97.4ZM502.72,79.85c-2.54-3-5.21-6-7.93-8.92L497,68.87c2.76,2.92,5.47,6,8,9.05Zm-304.16-1.5-2.28-1.95c2.61-3.06,5.35-6.08,8.14-9l2.16,2.08C203.82,72.37,201.12,75.34,198.55,78.35ZM486.34,62.5c-2.89-2.72-5.9-5.38-8.94-7.91l1.92-2.3c3.08,2.57,6.14,5.27,9.07,8ZM215.1,61.16l-2-2.21c3-2.72,6-5.4,9.15-7.94l1.9,2.32C221.05,55.85,218,58.48,215.1,61.16ZM468,47.22c-3.19-2.35-6.5-4.64-9.82-6.8l1.63-2.52c3.38,2.19,6.73,4.51,10,6.9ZM233.58,46.07l-1.76-2.43c3.26-2.35,6.63-4.64,10-6.79l1.61,2.53C240.11,41.5,236.79,43.75,233.58,46.07ZM448,34.23c-3.46-2-7-3.83-10.57-5.57L438.71,26c3.61,1.77,7.22,3.67,10.73,5.66Zm-194.26-.94-1.45-2.62c3.52-1.95,7.14-3.81,10.76-5.54l1.29,2.71C260.73,29.54,257.17,31.38,253.71,33.29Zm172.8-9.56c-3.66-1.53-7.42-3-11.17-4.26l1-2.83c3.81,1.32,7.62,2.78,11.34,4.33ZM275.2,23l-1.13-2.78c3.73-1.51,7.55-2.93,11.36-4.21l1,2.84C282.64,20.14,278.87,21.54,275.2,23ZM404,15.9c-3.81-1.07-7.71-2-11.58-2.88l.63-2.93c3.93.85,7.89,1.83,11.76,2.92Zm-106.14-.49-.78-2.9c3.88-1.05,7.85-2,11.78-2.81l.61,2.94C305.54,13.44,301.64,14.37,297.81,15.41Zm82.82-4.57c-3.91-.6-7.89-1.1-11.84-1.47l.28-3c4,.38,8.06.88,12,1.49Zm-59.46-.27-.43-3c4-.58,8-1,12-1.38l.25,3C329.08,9.55,325.09,10,321.17,10.57Zm35.71-2c-4-.13-8-.15-11.94-.05l-.07-3c4-.1,8.08-.08,12.11.05Z"/><path class="cls-3" d="M517.58,320.59l-2.49-1.68c1.1-1.62,2.19-3.3,3.26-5l2.54,1.61C519.81,317.24,518.69,318.94,517.58,320.59Z"/><path class="cls-4" d="M351.49,193.72l-5.16,2.56a6.27,6.27,0,0,1-2.95.66,6.34,6.34,0,0,1-5.59-3.53l-1.73-3.5,5.19-2.58,2.16-1.07a3.92,3.92,0,0,1,5.24,1.77Z"/><path class="cls-5" d="M348.33,190.61l-1.8,3.5a6.45,6.45,0,0,1-2.88,2.82,6.61,6.61,0,0,1-5.8-3.53l-1.79-3.5,5.39-2.58Z"/><polygon class="cls-6" points="383.61 127.91 373.93 168.34 382.41 176.93 386.06 164.85 383.61 127.91"/><path class="cls-7" d="M331.82,176.08c0,24.51-2,43.55-2,43.55h-8.9l0-89,4.44,1A157.27,157.27,0,0,1,331.82,176.08Z"/><path class="cls-8" d="M321.21,222.46v13.1s12.14-.8,6.94-13.1Z"/><rect class="cls-9" x="320.9" y="219.63" width="8.16" height="2.83"/><polygon class="cls-9" points="645.78 125.11 638.91 215.78 669.17 215.78 671.67 117.94 651.92 117.49 645.78 125.11"/><polygon class="cls-10" points="651.05 126.78 655.86 132.15 662.18 127.02 657.19 120.31 651.05 126.78"/><polygon class="cls-10" points="655.04 123.26 653.85 129.91 646.97 195.59 652.8 202.75 658.46 196.02 658.32 130.41 658.64 123.67 655.04 123.26"/><polygon class="cls-11" points="625.65 182.12 638.85 180.9 635.01 127.42 625.65 182.12"/><rect class="cls-11" x="625.34" y="171.97" width="15.32" height="16.23"/><rect class="cls-12" x="598.68" y="157.05" width="38.85" height="27.85"/><polygon class="cls-13" points="657.22 205.19 676.98 318.66 686.08 318.66 685.73 205.19 657.22 205.19"/><polygon class="cls-13" points="640.23 314.76 651.3 314.76 664.57 205.19 638.86 205.19 640.23 314.76"/><path class="cls-14" d="M681.39,315a4.68,4.68,0,0,0-4.68,4.68v3.51h9.36v-3.51A4.68,4.68,0,0,0,681.39,315Z"/><rect class="cls-15" x="599.39" y="269.48" width="89.81" height="1.22" transform="translate(364.45 910.21) rotate(-89.13)"/><rect class="cls-15" x="676.64" y="232.87" width="1.22" height="82.32" transform="translate(-24.12 69.48) rotate(-5.77)"/><polygon class="cls-15" points="656.03 217.56 655.29 218.53 659.62 221.8 660.92 228.8 662.12 228.58 660.74 221.11 656.03 217.56"/><path class="cls-11" d="M686.83,128.2l.88,92.32h9.88s1.34-24.2,2.25-45.19c.1-2.29.16-4.55.16-6.73a103.25,103.25,0,0,0-8.83-40.4Z"/><path class="cls-4" d="M687.71,220.52v12.88s13-.79,7.45-12.89Z"/><path class="cls-11" d="M667.4,139.41c-2,20.81-3.54,81.75-3.54,81.75h21.88l3-62.19,2.43-30.74L671.62,118C671.3,118.55,668.92,123.4,667.4,139.41Z"/><polygon class="cls-9" points="651.92 117.49 659.86 117.91 660.25 117.91 671.51 117.92 670.68 117.49 651.92 117.49"/><path class="cls-11" d="M635,127.42l-1.07,93.74H644s-3.2-87.66,7.91-103.67Z"/><path class="cls-16" d="M671.62,118l0-.06h-.14Z"/><path class="cls-4" d="M651.91,92.74l-.41,27.85s1.29,1.25,8.58,1.25a18.25,18.25,0,0,0,11.59-3.9l-3.44-22.47Z"/><path class="cls-5" d="M651.51,119.9c15.84,0,15.84-10.83,15.84-10.83H651.5Z"/><rect class="cls-15" x="635.71" y="149.97" width="5.02" height="1.22"/><path class="cls-17" d="M664.61,77.6h-7.23a12.24,12.24,0,0,0-12.17,12.31v12.47h25.37a4.74,4.74,0,0,0,4.71-4.77V88.4A10.74,10.74,0,0,0,664.61,77.6Z"/><path class="cls-4" d="M659,82.11h-3.88c-8.27,0-9.9,7.66-9.88,10.37v22.74c13.86,7.86,22.1-3.31,22.1-3.31V92.24S668.37,82.11,659,82.11Z"/><path class="cls-9" d="M656.76,108s-.88,4.54-4.84,4.54-4.84-4.54-4.84-4.54Z"/><path class="cls-17" d="M668.62,82.11a4,4,0,0,0-4,4v7.26a9,9,0,0,0,9,9V87.17A5.06,5.06,0,0,0,668.62,82.11Z"/><path class="cls-4" d="M671,97a2.75,2.75,0,0,0-2.75,2.75V108H671a2.72,2.72,0,0,0,2.72-2.72V99.69A2.72,2.72,0,0,0,671,97Z"/><polygon class="cls-5" points="650.79 104.41 651.07 101.9 649.92 101.77 649.5 105.57 652.08 105.57 652.08 104.41 650.79 104.41"/><path class="cls-17" d="M650.26,77.6c-4.12,4-.46,9.52,3.7,8.3s12.62-7.76,12.62-7.76S654.38,73.65,650.26,77.6Z"/><rect class="cls-15" x="686.27" y="145.33" width="1.22" height="50.09" transform="translate(-0.28 1.14) rotate(-0.1)"/><rect class="cls-15" x="684.19" y="146.89" width="1.22" height="11.93" transform="translate(-9.85 251.72) rotate(-20.68)"/><rect class="cls-15" x="686.62" y="172.63" width="5.96" height="1.22" transform="translate(-14.6 271.56) rotate(-22.05)"/><rect class="cls-15" x="687.26" y="175.14" width="7.51" height="1.22" transform="translate(-17.44 95.24) rotate(-7.79)"/><polygon class="cls-15" points="673.13 195.5 673.13 191.44 671.9 191.44 671.9 196.72 684.43 196.72 684.43 195.49 673.13 195.5"/><rect class="cls-4" x="618.11" y="178.94" width="13.19" height="10.38" rx="5.08" ry="5.08"/><rect class="cls-15" x="611.6" y="164.16" width="46.8" height="1.22" transform="translate(450.9 794.44) rotate(-88.25)"/><polygon class="cls-15" points="680.48 133.63 672.54 118.89 671.47 119.47 678.92 133.31 670.23 140.28 678.89 145.72 667.16 166.72 668.23 167.31 680.52 145.3 672.34 140.16 680.48 133.63"/><polygon class="cls-15" points="647.94 121.53 639.91 134.85 642.67 138.44 638.15 141.07 642.51 164.08 643.71 163.83 639.53 141.69 644.49 138.8 641.39 134.76 648.99 122.16 647.94 121.53"/><polygon class="cls-15" points="637.63 191.45 637.63 195.5 634.49 195.5 634.49 196.72 638.85 196.72 638.85 191.45 637.63 191.45"/><path class="cls-14" d="M631.5,323.18h18.93l.83-8.42H640.18A8.69,8.69,0,0,0,631.5,323.18Z"/><path class="cls-18" d="M7.54,168.73c-.29,2.08-.54,4.23-.77,6.43-2.08,20.1-2.05,45.18-2.05,45.18l5.49.76,12.34-89.53-3.2-.44A123.53,123.53,0,0,0,7.54,168.73Z"/><path class="cls-18" d="M7.62,218.43H9.53a0,0,0,0,1,0,0v6.07a8.4,8.4,0,0,1-8.4,8.4H.95a0,0,0,0,1,0,0v-7.8A6.67,6.67,0,0,1,7.62,218.43Z" transform="translate(30.86 1.4) rotate(7.85)"/><path class="cls-2" d="M4.39,188.13l12.69,2.15,8.26-52-7.5-6.61S7.54,155.29,4.39,188.13Z"/><rect class="cls-2" x="2.65" y="179.54" width="16.44" height="11.33" transform="translate(19.42 -0.12) rotate(6)"/><polygon class="cls-19" points="22.6 202.39 30.43 314.48 40.49 314.48 48.3 202.39 22.6 202.39"/><polygon class="cls-19" points="66.98 202.39 64.61 314.48 54.55 314.48 43.62 202.39 66.98 202.39"/><rect class="cls-20" x="60.8" y="224.14" width="1.18" height="90.35" transform="translate(-4.12 0.97) rotate(-0.88)"/><path class="cls-21" d="M73.59,322.84a8.36,8.36,0,0,0-8.36-8.36H54.56v8.36Z"/><path class="cls-21" d="M21.47,322.84h19v-8.36H29.83A8.36,8.36,0,0,0,21.47,322.84Z"/><path class="cls-18" d="M79.08,170.55c0,2.09,0,4.27-.12,6.47-.68,20.2-4.13,45-4.13,45H69.29V131.69h3.23A123.53,123.53,0,0,1,79.08,170.55Z"/><path class="cls-2" d="M80,189.12H69.29V131.69h3.23S83.1,142.52,80,189.12Z"/><rect class="cls-2" x="68.76" y="177.79" width="12.8" height="11.33" transform="translate(150.33 366.91) rotate(180)"/><rect class="cls-14" x="53.38" y="233.61" width="38.13" height="27.1" transform="translate(319.6 174.71) rotate(90)"/><rect class="cls-9" x="55.44" y="234.34" width="34.01" height="24.17" transform="translate(318.87 173.98) rotate(90)"/><rect class="cls-22" x="65.37" y="226.41" width="14.3" height="4.36" transform="translate(145.04 457.18) rotate(180)"/><path class="cls-23" d="M59.31,98.15h0v11.27h0a2.77,2.77,0,0,0,2.77-2.77v-5.73A2.77,2.77,0,0,0,59.31,98.15Z"/><polygon class="cls-2" points="66.98 212.54 23.31 212.54 17.84 131.69 36.03 124.48 54.32 124.48 72.52 131.69 66.98 212.54"/><path class="cls-18" d="M55.24,124.95s-2.64,2.36-10.06,2.36-10.06-2.36-10.06-2.36V109.7H55.24Z"/><path class="cls-23" d="M55.24,122.59v-9.24H38.62S41.56,121.67,55.24,122.59Z"/><path class="cls-18" d="M34.54,93.93v5.46h.59V114a24.06,24.06,0,0,0,16.67,4.78,9.61,9.61,0,0,0,8.63-9.57V93.93A12.65,12.65,0,0,0,47.77,81.27h-.58A12.66,12.66,0,0,0,34.54,93.93Z"/><path class="cls-24" d="M59.31,88.75a12.64,12.64,0,0,0-11.54-7.47h-.58A12.66,12.66,0,0,0,34.54,93.93v5.46h.59v2.83h4.24V95.8h1.51a3.45,3.45,0,0,0,3.45-3.45v0a3.57,3.57,0,0,1,3.57-3.57Z"/><path class="cls-18" d="M34.19,98.15h0a2.77,2.77,0,0,0-2.77,2.77v5.73a2.77,2.77,0,0,0,2.77,2.77H37v-8.47A2.8,2.8,0,0,0,34.19,98.15Z"/><path class="cls-23" d="M53.39,106.62v-1.18a1.32,1.32,0,0,0,1.32-1.36l-.06-2,1.18,0,.06,2a2.5,2.5,0,0,1-2.5,2.58Z"/><rect class="cls-25" x="57.38" y="164.4" width="25.67" height="1.18" transform="translate(-99.01 224.28) rotate(-86.26)"/><polygon class="cls-20" points="47.14 231.63 45.97 231.5 46.75 224.6 52.02 223.24 52.32 224.38 47.83 225.54 47.14 231.63"/><path class="cls-9" d="M57.33,110.24H47.48s1.78,3.69,5.17,3.69S57.33,110.24,57.33,110.24Z"/><polygon class="cls-12" points="45.18 140.32 50.35 135.7 45.18 128.86 40 135.7 45.18 140.32"/><polygon class="cls-12" points="51.6 204.28 45.18 211.49 38.76 204.28 43.44 131.91 46.92 131.91 51.6 204.28"/><polygon class="cls-25" points="52.41 139.79 45.18 130.12 37.95 139.79 30.17 131.81 31.02 130.99 37.83 137.98 45.18 128.16 52.53 137.98 59.34 130.99 60.18 131.81 52.41 139.79"/><rect class="cls-20" x="31.68" y="225.64" width="1.18" height="88.86" transform="translate(-9 1.23) rotate(-1.91)"/><path class="cls-18" d="M69.29,220h.19a8.4,8.4,0,0,1,8.4,8.4v6.07a0,0,0,0,1,0,0H76a6.67,6.67,0,0,1-6.67-6.67V220A0,0,0,0,1,69.29,220Z" transform="translate(147.16 454.53) rotate(180)"/><path class="cls-24" d="M480.72,88.22H506.8a0,0,0,0,1,0,0v61.16A12.76,12.76,0,0,1,494,162.14h-.57a12.76,12.76,0,0,1-12.76-12.76V88.22A0,0,0,0,1,480.72,88.22Z" transform="translate(987.52 250.37) rotate(-180)"/><path class="cls-18" d="M480.1,265a249.3,249.3,0,0,0,9.24,49.53h8.18s-1.78-23.93-.87-49.53c.24-6.6.66-13.31,1.33-19.75v0q.32-3.07.72-6a128.05,128.05,0,0,1,10.49-35.66H485.92s-4.92,11-6.21,43.08A162,162,0,0,0,480.1,265Z"/><path class="cls-18" d="M496.23,203.53l1.76,41.7v0l.84,19.75,2.09,49.53h9.38s3.54-29.68,6.3-49.53l.19-1.33c3.13-22.29,3.87-43.45,1.26-54.7a20.44,20.44,0,0,0-2-5.45Z"/><path class="cls-3" d="M478.87,176.55c-.83,11.67.19,34.36.19,34.36l4.36.31,4.85-68.36-3.44-.23S479.7,164.88,478.87,176.55Z"/><path class="cls-18" d="M483.42,211.23l-1,14.32s-8.25-4.18-3.34-14.63Z"/><path class="cls-21" d="M480.1,265h36.5l.19-1.33c3.13-22.29,3.87-43.45,1.26-54.7l-1.54-5.67-30.59.22s-4.92,11-6.21,43.08A162,162,0,0,0,480.1,265Z"/><path class="cls-26" d="M478.62,322.9a8.36,8.36,0,0,1,8.36-8.36h10.54L496,322.9Z"/><path class="cls-24" d="M521.21,110h.42a0,0,0,0,1,0,0v27.81a0,0,0,0,1,0,0H502.5a0,0,0,0,1,0,0v-9.1A18.71,18.71,0,0,1,521.21,110Z" transform="translate(1024.13 247.77) rotate(180)"/><rect class="cls-27" x="494.5" y="112.33" width="2.31" height="0.29" transform="translate(657.18 594.39) rotate(-121.31)"/><polygon class="cls-3" points="484.26 208.36 488.36 209.68 493.25 203.48 501.97 210.62 518.68 203.87 515.67 186.19 521.63 169.69 524.44 141.75 512.18 138.08 497.92 137.41 484.83 142.64 487.04 187.28 484.26 208.36"/><rect class="cls-28" x="510.19" y="183.19" width="1.18" height="9.78" transform="translate(52.15 481.22) rotate(-52.8)"/><rect class="cls-28" x="512.12" y="180.94" width="1.18" height="8.49" transform="translate(-5.93 353.05) rotate(-37.79)"/><path class="cls-28" d="M487.82,151.65l4.31-2.66-3.26-1.58,16.66-14.8,11,16L510.49,150l5,3.9-20.22,15.43Zm20-2.25,6.8-1.55-9.29-13.49L491,147.12l3.6,1.74-5.28,3.26,6.47,15.36,17.8-13.58Z"/><path class="cls-9" d="M512.12,138.07s-3.43,13.16-16.6,30.34c-4.16-15.5,2.4-31,2.4-31Z"/><polygon class="cls-9" points="512.12 138.07 516.73 145.22 490.11 145.22 497.92 137.41 512.12 138.07"/><path class="cls-18" d="M497.93,138.07s-.43,2.36,4.8,2.36a21,21,0,0,0,9.38-2.36V122.83H497.93Z"/><path class="cls-23" d="M497.93,136v-9.53h12.85S508.51,135.06,497.93,136Z"/><path class="cls-18" d="M514.81,108.64v8.1h-2.7V128s-8.85,7.79-17.19,3.91a10.43,10.43,0,0,1-5.88-9.5V108.64a13.21,13.21,0,0,1,1.67-6.46,12.58,12.58,0,0,1,11-6.57h.47A12.85,12.85,0,0,1,514.81,108.64Z"/><path class="cls-24" d="M521.63,107.8v7.38a22.72,22.72,0,0,1-5.77.41,7.1,7.1,0,0,1-7.72-2.91l.05-3.66c0-5.53-8,1-7.65-7.73l-9.76,0c2.07-4.92,5.55-8.43,15.42-8.43A14.94,14.94,0,0,1,521.63,107.8Z"/><path class="cls-18" d="M512.71,111.9h2.6a0,0,0,0,1,0,0v7.44a2.49,2.49,0,0,1-2.49,2.49h-.11a2.46,2.46,0,0,1-2.46-2.46v-5A2.46,2.46,0,0,1,512.71,111.9Z" transform="translate(1025.55 233.74) rotate(180)"/><path class="cls-23" d="M494.63,120.52v-1.18a2.17,2.17,0,0,1-2.16-2.16v-.31h-1.18v.31A3.35,3.35,0,0,0,494.63,120.52Z"/><polygon class="cls-9" points="493.98 194.53 502.21 210.62 493.25 203.48 488.36 209.68 493.98 194.53"/><polygon class="cls-18" points="512.12 138.07 500.22 147.2 497.93 138.34 512.12 138.07"/><polygon class="cls-28" points="501.92 211.35 515.79 206.19 515.38 205.09 502.49 209.88 493.65 192.56 487.99 208.94 484.44 207.8 484.08 208.92 488.73 210.41 493.86 195.56 501.92 211.35"/><polygon class="cls-28" points="493.88 195.53 494.92 194.97 492.46 190.4 492.46 173.44 495.99 168.77 495.05 168.06 491.28 173.04 491.28 190.69 493.88 195.53"/><polygon class="cls-29" points="502.39 148.35 506.38 145.81 516.73 145.81 516.73 144.63 506.04 144.63 501.76 147.36 502.39 148.35"/><polygon class="cls-29" points="497.69 147.42 498.79 146.99 497.87 144.63 490.11 144.63 490.11 145.81 497.06 145.81 497.69 147.42"/><circle class="cls-28" cx="496.24" cy="178.25" r="1.17"/><circle class="cls-28" cx="496.38" cy="188.08" r="1.17"/><path class="cls-3" d="M524.44,141.77a229.64,229.64,0,0,1,8,48.43L524,191l-6.88-43Z"/><rect class="cls-28" x="519.06" y="157.42" width="1.18" height="12.34" transform="translate(-19.35 84.34) rotate(-9.11)"/><rect class="cls-12" x="514" y="175.85" width="38.13" height="25.38" transform="translate(1066.14 377.08) rotate(-180)"/><rect class="cls-28" x="518.31" y="159.49" width="4.47" height="1.18" transform="translate(127.57 537.14) rotate(-60.91)"/><path class="cls-30" d="M491.41,322.9a8.36,8.36,0,0,1,8.36-8.36h10.54v8.36Z"/><path class="cls-24" d="M494.76,128.13c5.19,0,4.56-3.88,4.56-3.88h-4.56Z"/><path class="cls-14" d="M142.42,247.2h45.79a0,0,0,0,1,0,0v24.07a2.16,2.16,0,0,1-2.16,2.16H149.29a6.87,6.87,0,0,1-6.87-6.87V247.2A0,0,0,0,1,142.42,247.2Z" transform="translate(330.64 520.62) rotate(180)"/><rect class="cls-14" x="142.42" y="239.42" width="45.79" height="17.59" rx="6.22" ry="6.22" transform="translate(330.64 496.42) rotate(-180)"/><path class="cls-14" d="M157.24,239.42h1.83v-2c0-1.16.73-2.13,1.6-2.13H170c.87,0,1.6,1,1.6,2.13v2h1.83v-2a3.7,3.7,0,0,0-3.43-3.91h-9.28a3.7,3.7,0,0,0-3.43,3.91Z"/><rect class="cls-9" x="158.55" y="220.41" width="12.08" height="5.83"/><path class="cls-4" d="M158.55,226.24h12.08a0,0,0,0,1,0,0v4a5.44,5.44,0,0,1-5.44,5.44H164a5.44,5.44,0,0,1-5.44-5.44v-4A0,0,0,0,1,158.55,226.24Z"/><path class="cls-20" d="M171.17,178.76c0,21,.25,42.43.25,42.43h-9.66l.15-89.51H166S171.17,149.58,171.17,178.76Z"/><path class="cls-17" d="M142,87.52h3a9.68,9.68,0,0,1,9.68,9.68v4.14a0,0,0,0,1,0,0H142a0,0,0,0,1,0,0V87.52a0,0,0,0,1,0,0Z"/><polygon class="cls-20" points="117.27 215.43 116.95 318.01 125.7 318.01 144.69 215.43 117.27 215.43"/><polygon class="cls-20" points="162.36 215.43 161.05 314.48 150.41 314.48 137.62 215.43 162.36 215.43"/><polygon class="cls-20" points="166.04 131.69 149.78 124.48 131.72 124.48 111.97 130.13 114.32 164.38 119.69 184.81 117.25 211.61 117.25 221.49 162.37 215.43 166.04 131.69"/><polygon class="cls-31" points="147.67 168.02 125.23 148.02 133.7 144.47 123.93 139.17 131.56 124.62 132.6 125.17 125.51 138.69 136.42 144.6 127.41 148.38 147.29 166.1 156.96 146.24 150.14 144.18 157.51 139.2 146.79 122.91 147.78 122.27 159.14 139.53 152.85 143.77 158.63 145.51 147.67 168.02"/><polygon class="cls-31" points="158.91 221.76 142.54 213.19 143.19 174.06 147.08 166.54 148.13 167.08 144.36 174.36 143.73 212.48 159.46 220.72 158.91 221.76"/><polygon class="cls-9" points="130.8 124.9 141.67 151.73 147.28 165.68 148.09 152.53 149.78 124.94 142.13 124.89 141.77 124.89 130.8 124.9"/><polygon class="cls-7" points="143.33 136.82 146.97 131.59 141.97 125.67 137.27 131.59 143.33 136.82"/><polygon class="cls-7" points="140.6 127.86 140.89 134.34 141.67 151.73 147.28 165.68 148.09 152.53 144.94 133.85 143.86 127.46 140.6 127.86"/><path class="cls-4" d="M149.78,124.92s-2.5,3.75-9.5,3.75-9.5-3.75-9.5-3.75V100.67h19Z"/><path class="cls-5" d="M149.78,124.22V112.54h-15.7S134.08,124.22,149.78,124.22Z"/><path class="cls-21" d="M161.1,314.48H150.43l1.61,8.36h17.42A8.36,8.36,0,0,0,161.1,314.48Z"/><path class="cls-21" d="M121.36,314.48h.2a4.41,4.41,0,0,1,4.41,4.41v4a0,0,0,0,1,0,0h-9a0,0,0,0,1,0,0v-4A4.4,4.4,0,0,1,121.36,314.48Z"/><path class="cls-5" d="M153.63,99.94h0v10.65h0a2.62,2.62,0,0,0,2.62-2.62v-5.41A2.62,2.62,0,0,0,153.63,99.94Z"/><path class="cls-4" d="M154.64,120.06A19.42,19.42,0,0,1,133.38,115V93.79a4.39,4.39,0,0,1,4.12-4.62h7.64c8,0,9.53,6.64,9.51,11.17Z"/><path class="cls-17" d="M133.36,85.65h0a6.11,6.11,0,0,0-6.11,6.11v13.38h10.9V90.44A4.79,4.79,0,0,0,133.36,85.65Z"/><path class="cls-4" d="M129.87,99.94h0a2.62,2.62,0,0,0-2.62,2.62V108a2.62,2.62,0,0,0,2.62,2.62h2.65v-8A2.65,2.65,0,0,0,129.87,99.94Z"/><polygon class="cls-5" points="150.52 109.42 148.03 109.42 148.03 108.31 149.28 108.31 149.01 105.9 150.12 105.78 150.52 109.42"/><path class="cls-31" d="M134.33,219l-.46-.53a16.59,16.59,0,0,0-11.32-5.54v-1.18a17.54,17.54,0,0,1,11.72,5.42l8.4-10.54.92.73Z"/><circle class="cls-32" cx="149.08" cy="184.87" r="1.61"/><circle class="cls-32" cx="149.08" cy="199.51" r="1.61"/><path class="cls-9" d="M141,112.44h9.9v3.85S144.45,117.51,141,112.44Z"/><path class="cls-4" d="M140.28,95.16h0a5.16,5.16,0,0,0-5.16,5.16V107h5.16Z"/><path class="cls-17" d="M142.11,81.92h12.68a0,0,0,0,1,0,0v.24A10.81,10.81,0,0,1,144,93H131.3a0,0,0,0,1,0,0v-.24a10.81,10.81,0,0,1,10.81-10.81Z"/><rect class="cls-31" x="156.55" y="228.09" width="1.18" height="86.4" transform="translate(-3.97 2.34) rotate(-0.84)"/><rect class="cls-31" x="85.83" y="274.49" width="79.19" height="1.18" transform="translate(-160.79 372.44) rotate(-84.27)"/><rect class="cls-31" x="125.09" y="183.21" width="77.1" height="1.18" transform="translate(-27.2 339.17) rotate(-87.47)"/><rect class="cls-9" x="114.46" y="215.32" width="12.08" height="5.83" transform="translate(-98 98.23) rotate(-32.32)"/><path class="cls-4" d="M124.92,227.44l-3.29,2.08-3.86-6.11,9.4-5.95h0A7.23,7.23,0,0,1,124.92,227.44Z"/><path class="cls-20" d="M124,212.54l-14.31-32.35,6.9-14.72L112,130.13c-10.18,16.95-18.11,52.34-18.11,52.34l18,37.66Z"/><rect class="cls-31" x="119.88" y="201.46" width="11.85" height="1.18" transform="translate(-88.91 99.36) rotate(-32.53)"/><rect class="cls-31" x="117.34" y="197.78" width="15.53" height="1.18" transform="translate(-109.35 192.92) rotate(-56.43)"/><polygon class="cls-31" points="124.03 194.41 123.03 193.78 127.09 187.36 119.93 185.73 120.19 184.58 128.97 186.59 124.03 194.41"/><polygon class="cls-31" points="115.72 168.79 114.68 168.25 119.43 159.11 114.64 142.82 115.77 142.48 120.69 159.24 115.72 168.79"/><path class="cls-31" d="M120.7,230.64l-.4-1.11c.06,0,5.64-2.09,6.83-5.53a17.63,17.63,0,0,0,.57-7.62l1.16-.2a18.52,18.52,0,0,1-.62,8.2C126.86,228.36,121,230.55,120.7,230.64Z"/><rect class="cls-31" x="122.94" y="199.02" width="1.18" height="23.12" transform="translate(-78.23 73.12) rotate(-25.34)"/><rect class="cls-31" x="100.45" y="180.06" width="8.55" height="1.18" transform="translate(-26.25 18.03) rotate(-8.75)"/><rect class="cls-31" x="104.14" y="173" width="1.18" height="9.31" transform="translate(-100.46 198.27) rotate(-65.22)"/><rect class="cls-31" x="106.93" y="172.06" width="1.18" height="5.06" transform="translate(-96.5 195.04) rotate(-64.09)"/><polygon class="cls-31" points="141.37 236.59 140.21 236.38 141.55 229.19 146.07 225.78 146.78 226.72 142.62 229.85 141.37 236.59"/><rect class="cls-31" x="157.77" y="155.72" width="6.82" height="1.18"/><rect class="cls-31" x="162.93" y="182.64" width="5.94" height="1.18" transform="translate(-79.26 151.75) rotate(-40.52)"/><polygon class="cls-7" points="325.32 131.75 310.07 124.54 291.78 124.54 275.94 131.75 277.33 215.49 322.43 215.49 325.32 131.75"/><rect class="cls-33" x="322.97" y="144.56" width="0.97" height="69.9"/><polygon class="cls-33" points="308.74 168.05 320.33 145.57 314.23 143.83 320.88 139.59 308.82 122.31 307.86 122.99 319.21 139.26 311.39 144.24 318.63 146.31 308.36 166.2 287.25 148.45 296.81 144.66 285.23 138.74 292.74 125.24 291.71 124.67 283.61 139.23 293.95 144.53 284.98 148.08 308.74 168.05"/><polygon class="cls-33" points="308.19 212.85 313.02 209.67 313.71 170.61 308.92 166.67 308.18 167.58 312.53 171.16 311.86 209.03 307.55 211.87 308.19 212.85"/><polygon class="cls-34" points="290.92 124.86 302.39 151.79 308.34 165.74 309.19 152.59 310.98 125 302.88 124.94 302.49 124.94 290.92 124.86"/><polygon class="cls-10" points="303.93 136.08 308.55 130.9 302.64 124.69 298.26 132.06 303.93 136.08"/><polygon class="cls-10" points="301.25 127.92 301.56 134.4 302.39 151.79 308.34 165.74 309.19 152.59 305.85 133.91 304.71 127.52 301.25 127.92"/><path class="cls-4" d="M311,125s-2.64,2.36-10.06,2.36S290.87,125,290.87,125V109.77H311Z"/><polygon class="cls-7" points="277.33 215.49 277.01 318.72 285.76 318.07 304.75 215.49 277.33 215.49"/><polygon class="cls-7" points="322.42 215.49 321.11 314.54 310.46 314.54 297.68 215.49 322.42 215.49"/><path class="cls-14" d="M321.16,314.54H310.49l1.61,8.36h17.42A8.36,8.36,0,0,0,321.16,314.54Z"/><path class="cls-14" d="M281.52,314.54h0A4.5,4.5,0,0,0,277,319v3.86h9V319A4.5,4.5,0,0,0,281.52,314.54Z"/><rect class="cls-33" x="311.96" y="313.95" width="9.2" height="1.18"/><path class="cls-33" d="M284.69,316.73l1.09-.45c0-.1-1-2.33-4.27-2.33s-4.23,2.24-4.27,2.33l1.09.44c0-.06.72-1.6,3.18-1.6S284.66,316.67,284.69,316.73Z"/><polygon class="cls-33" points="320.7 224.82 321.5 223.95 307.94 211.63 289.78 222.86 280.12 222.86 280.12 224.04 290.12 224.04 307.8 213.09 320.7 224.82"/><circle class="cls-33" cx="308.31" cy="186.81" r="1.61"/><circle class="cls-33" cx="307.87" cy="199.11" r="1.61"/><rect class="cls-33" x="242.46" y="271.39" width="85.43" height="1.18" transform="translate(-10.23 532.82) rotate(-85.09)"/><rect class="cls-33" x="317.14" y="230.23" width="1.18" height="84.32" transform="translate(-8.22 9.89) rotate(-1.76)"/><path class="cls-5" d="M310.92,123.06V110.55H294.1S294.1,123.06,310.92,123.06Z"/><path class="cls-5" d="M310.72,120.15V107.42H293.62S293.62,120.14,310.72,120.15Z"/><path class="cls-35" d="M297.54,78.62h7.67a12.91,12.91,0,0,1,12.9,12.91l-.54,13.93-26.37-.87a5,5,0,0,1-5-5V89.94A11.32,11.32,0,0,1,297.54,78.62Z"/><path class="cls-8" d="M317.74,120.7c-14.53,5.6-23.17-6.12-23.17-6.12V94s-1.1-10.62,8.74-10.62h4.07c8.67,0,10.38,8,10.36,13.51Z"/><rect class="cls-9" x="307.47" y="110.73" width="9.28" height="6.07" transform="translate(624.23 227.54) rotate(180)"/><path class="cls-35" d="M293.21,83.35h0a5.31,5.31,0,0,0-5.31,5.31v15.93h0a9.47,9.47,0,0,0,9.47-9.47V87.51A4.16,4.16,0,0,0,293.21,83.35Z"/><path class="cls-8" d="M290.75,98.92h0a2.85,2.85,0,0,0-2.85,2.85v5.9a2.85,2.85,0,0,0,2.85,2.85h2.89v-8.72A2.89,2.89,0,0,0,290.75,98.92Z"/><polygon class="cls-5" points="310.55 107.86 313.25 107.86 312.81 103.89 311.61 104.02 311.9 106.65 310.55 106.65 310.55 107.86"/><path class="cls-35" d="M291.33,84.22s19.89-2,24.3,3.49c5.86,1.28,6.27-10.91.47-15-2.43,2.78-12,2.05-16.93,2.75C292.63,76.33,291.33,84.22,291.33,84.22Z"/><path class="cls-35" d="M304.84,113.15h3.68a4.84,4.84,0,0,0,4.84-4.84h-3.71a4.8,4.8,0,0,0-4.8,4.8Z"/><path class="cls-35" d="M311.65,108.32h1.55a4.73,4.73,0,0,1,4.73,4.73v.11a0,0,0,0,1,0,0h-1.55a4.73,4.73,0,0,1-4.73-4.73v-.11A0,0,0,0,1,311.65,108.32Z" transform="translate(629.57 221.52) rotate(-179.99)"/><path class="cls-35" d="M296.29,95.47A37.8,37.8,0,0,0,298.81,107c2.37,6,9.1,5.13,9.1,5.13a4,4,0,0,0,4,3.32c3.45,0,4-3.14,4.24-3.39,1.54-2,1.61-10.19,1.61-10.19l.37,19.31s-2,3.28-9.67,3.28c-12.53,0-15.82-7.65-15.82-7.65l1-16.39Z"/><path class="cls-35" d="M300.64,81.64h.1a0,0,0,0,1,0,0V93.31a0,0,0,0,1,0,0h-4.55a0,0,0,0,1,0,0V86.09A4.45,4.45,0,0,1,300.64,81.64Z" transform="translate(596.92 174.95) rotate(180)"/><path class="cls-36" d="M239.54,97h.89a9.62,9.62,0,0,1,9.62,9.62v3.27a39.82,39.82,0,0,1-39.82,39.82h-.89a0,0,0,0,1,0,0V127.19A30.19,30.19,0,0,1,239.54,97Z"/><path class="cls-37" d="M245.85,194.22v16.2s8.95-1.55,3.8-13.77Z"/><path class="cls-2" d="M249.66,196.64l-3.8-2.43,12.7-28.89,7.83,5C252.19,192.52,249.66,196.64,249.66,196.64Z"/><path class="cls-2" d="M246.1,137s5.21,4.56,20.28,33.4l-8.07,3.42-17.47-28.44Z"/><path class="cls-2" d="M207.93,135.75s-5,13.79-2.35,50.37A44.46,44.46,0,0,0,212,186l2-4.66.92-38.09Z"/><path class="cls-38" d="M218.81,314.26h9.58s2.93-9.62,6.4-24.84c2.33-10.17,4.89-22.85,7-36.8a361.28,361.28,0,0,0,4.32-53H224.41l-2.65,54.2-1.38,28.31v0Z"/><path class="cls-21" d="M229,314.26c4.4,0,8,3.87,8,8.64l-18.68,0,.57-8.61Z"/><path class="cls-2" d="M246.09,199.58H215.89s5.56-13-7.71-47.28l-.25-16.55,11.67-3.8,13.58-.69,12.91,5.7Z"/><path class="cls-25" d="M236.65,201.18h1.18V158.71a47.17,47.17,0,0,0-8.29-26.47l-.93.72a45.93,45.93,0,0,1,8,25.75Z"/><path class="cls-25" d="M227.94,141.64l2.52-7.83,5.95,7.32.46-.47c2-2,1-5.7.93-5.85l-1.13.32s.7,2.52-.23,4.16L230,131.39l-2.63,8.16-6.2-5.6-.79.87Z"/><rect class="cls-25" x="223.84" y="176.63" width="1.18" height="11.22" transform="translate(-63.15 211.87) rotate(-44.96)"/><rect class="cls-25" x="226.26" y="184.88" width="1.18" height="9.06" transform="translate(-67.51 215.69) rotate(-44.96)"/><path class="cls-37" d="M233.18,132s.41,2.43-4.57,2.43a18.86,18.86,0,0,1-8.93-2.43V116.21h13.51Z"/><path class="cls-5" d="M233.19,130.9v-7.22H221S221.91,130.9,233.19,130.9Z"/><path class="cls-8" d="M215.16,254.15c.54,2.43,1.07,4.94,1.55,7.57,1.37,7.44,2.6,14.28,3.68,20.38,3.53,20,5.47,32.16,5.47,32.16h8.93V199.58h-18.9C206,221.08,210.93,235.06,215.16,254.15Z"/><path class="cls-21" d="M235.88,314.26c4.4,0,8,3.87,8,8.64H227.91l-2.18-8.64Z"/><path class="cls-21" d="M215.16,254.15l6.61-.38,13-.75,7-.4a361.28,361.28,0,0,0,4.32-53H215.89C206,221.08,210.93,235.06,215.16,254.15Z"/><rect class="cls-39" x="190.68" y="216.69" width="38.13" height="25.38" transform="translate(319.69 520.1) rotate(-158.27)"/><path class="cls-37" d="M212.85,212.86l-6.14,12.69s-11.3-3.9,1.66-12.16Z"/><path class="cls-2" d="M208.37,213.38l4.48-.53L214,181.32h0c-5.09.6-9.06-.88-8.46,4.21C207.68,203.65,208.37,213.38,208.37,213.38Z"/><path class="cls-8" d="M216.1,110.73h3.57a0,0,0,0,1,0,0v9a0,0,0,0,1,0,0h-.08a3.49,3.49,0,0,1-3.49-3.49v-5.47A0,0,0,0,1,216.1,110.73Z"/><path class="cls-8" d="M217.3,103.32v8.51h2.38V123.6s7.8,8.18,15.15,4.1c3.22-1.79,5.19-5.75,5.19-10V103.32a16,16,0,0,0-1.47-6.79c-1.92-4.12-5.54-6.9-9.68-6.9h-.42C222.29,89.63,217.3,95.76,217.3,103.32Z"/><path class="cls-5" d="M235.76,117.41a1.91,1.91,0,0,0,1.49-.76,2.63,2.63,0,0,0,.51-2l-.11-.81-1.07.17.11.81a1.36,1.36,0,0,1-.26,1,.86.86,0,0,1-.68.35Z"/><path class="cls-9" d="M226.46,120.48s.88,4.54,4.84,4.54,4.84-4.54,4.84-4.54Z"/><path class="cls-36" d="M242,104.47s-18.88-1.68-32.68,22.44v-23a16.18,16.18,0,0,1,16.34-16h0a16.18,16.18,0,0,1,16.34,16Z"/><path class="cls-36" d="M209.35,130h11.47a0,0,0,0,1,0,0v13.39a0,0,0,0,1,0,0h-.25a11.22,11.22,0,0,1-11.22-11.22V130A0,0,0,0,1,209.35,130Z"/><path class="cls-36" d="M226.93,158.27h0a11.59,11.59,0,0,1-11.59-11.59V128.42H219a7.93,7.93,0,0,1,7.93,7.93Z"/><path class="cls-36" d="M584.9,114.41h.31A13.89,13.89,0,0,1,599.1,128.3v15.09a0,0,0,0,1,0,0H584.9a0,0,0,0,1,0,0v-29A0,0,0,0,1,584.9,114.41Z"/><path class="cls-4" d="M595.86,215.85v16.69s8.52-5.06,4.36-16.69Z"/><path class="cls-3" d="M553.11,178.75c0,1.09.08,2.21.13,3.35,1.41,28.49,4.63,34.92,4.63,34.92h4.37V142.93H559S552.45,153.45,553.11,178.75Z"/><path class="cls-4" d="M562.23,217v15.52s-8.52-3.88-4.36-15.52Z"/><path class="cls-21" d="M559,203.53c0,54.63,18.6,111,18.6,111h10.06l-5.89-111Z"/><path class="cls-40" d="M577,314.53a8.36,8.36,0,0,0-8.36,8.36l19.62,0-.6-8.33Z"/><path class="cls-41" d="M559,203.53h31.73s-4.73-22.61,7.87-37.87l.48-23.91-12.26-3.67-14.26-.67L559,142.93Z"/><path class="cls-3" d="M586.77,138.07l-18.27,26s-2.84-21.35,4.07-26.71Z"/><path class="cls-25" d="M577.66,147.64l-1.44-8-5.29,7-.33-.5c-1.44-2.16-.36-5.74-.31-5.89l.88.39a7.91,7.91,0,0,0-.12,4.17l5.72-7.51,1.51,8.29,5.37-5.22.57.92Z"/><path class="cls-4" d="M572.58,138.07s-.43,2.36,4.8,2.36a21,21,0,0,0,9.38-2.36V122.83H572.58Z"/><path class="cls-5" d="M572.58,136v-9.53h12.85S583.16,135.06,572.58,136Z"/><path class="cls-4" d="M589.55,108.58v8.1h-2.7V127.9s-8.85,7.79-17.19,3.91a10.43,10.43,0,0,1-5.88-9.5V108.58a13.21,13.21,0,0,1,1.67-6.46,12.58,12.58,0,0,1,11-6.57h.47A12.85,12.85,0,0,1,589.55,108.58Z"/><path class="cls-36" d="M589.55,108.58V116a14,14,0,0,1-4.51.41s-8.59-1.47-13.59-5.86c-3.53-3.1-5.24-6-6-8.39a12.58,12.58,0,0,1,11-6.57h.47A12.85,12.85,0,0,1,589.55,108.58Z"/><path class="cls-21" d="M590.75,203.53c11.75,23.46,3.62,37.68-.86,60.15-6.14,30.76-9.61,50.86-9.61,50.86h-9.38v-111Z"/><path class="cls-40" d="M569.74,314.53a8.36,8.36,0,0,0-8.36,8.36h16.74l2.29-8.36Z"/><path class="cls-4" d="M587.37,111.9H590a0,0,0,0,1,0,0v7.44a2.49,2.49,0,0,1-2.49,2.49h-.11a2.46,2.46,0,0,1-2.46-2.46v-5a2.46,2.46,0,0,1,2.46-2.46Z" transform="translate(1174.87 233.74) rotate(180)"/><path class="cls-5" d="M569.5,121.52h-2a.59.59,0,0,1-.58-.68l1.11-7.11,1.16.18-1,6.43h1.28Z"/><path class="cls-5" d="M573.34,127.3l-.5,0,.12-1.17a3.11,3.11,0,0,0,3.34-2.42l1.14.27A4.28,4.28,0,0,1,573.34,127.3Z"/><polygon class="cls-42" points="571.48 283.07 570.31 283.07 570.31 219.92 565.22 217.49 565.72 216.43 571.48 219.17 571.48 283.07"/><polygon class="cls-42" points="584.17 289.81 585.33 290.04 580.26 315.09 579.15 315.09 584.17 289.81"/><rect class="cls-42" x="571.89" y="313.92" width="14.52" height="1.18"/><path class="cls-3" d="M605,177.57c0,1.09-.08,2.21-.13,3.35-1.41,28.49-4.63,34.92-4.63,34.92h-4.37V145a3.23,3.23,0,0,1,3.23-3.23h0S605.65,152.28,605,177.57Z"/><polygon class="cls-9" points="568.5 193.12 573.35 203.53 564.76 203.53 568.5 193.12"/><path class="cls-42" d="M567.34,168.17a1.52,1.52,0,0,0,2.14,2.14A1.52,1.52,0,0,0,567.34,168.17Z"/><path class="cls-42" d="M567.34,177.73a1.52,1.52,0,0,0,2.14,2.14A1.52,1.52,0,0,0,567.34,177.73Z"/><path class="cls-42" d="M567.35,187.29a1.52,1.52,0,0,0,2.14,2.14A1.52,1.52,0,0,0,567.35,187.29Z"/><path class="cls-43" d="M339.87,186.39h6.24a0,0,0,0,1,0,0v.22a10.05,10.05,0,0,1-10.05,10.05h-2.74a0,0,0,0,1,0,0v-3.72A6.55,6.55,0,0,1,339.87,186.39Z" transform="translate(120.44 -130.97) rotate(26.37)"/><rect class="cls-9" x="329.79" y="185.44" width="3.89" height="7.44" transform="translate(118.56 -127.68) rotate(26.37)"/><path class="cls-7" d="M295.28,178.81c22.63,11.25,32.07,14.82,32.07,14.82l4.3-8.67-27.89-14.74Z"/><rect class="cls-9" x="349.51" y="185.86" width="3.89" height="7.44" transform="translate(750.55 203.31) rotate(153.63)"/><path class="cls-6" d="M382.41,176.93c-21.24,13.32-26.56,17.13-26.56,17.13l-4.3-8.67,22.38-17Z"/><path class="cls-7" d="M303.75,170.22l-27.81-38.48s-7.08,14.26,5,29.22,14.35,17.85,14.35,17.85Z"/><polygon class="cls-33" points="329.15 184.34 303.34 170.7 283.99 143.94 284.99 143.22 304.17 169.75 329.73 183.25 329.15 184.34"/><polygon class="cls-33" points="326.37 193.91 294.9 179.31 278.43 160.13 279.36 159.33 295.65 178.31 326.89 192.8 326.37 193.91"/><polygon class="cls-6" points="406.19 212.78 435.03 212.77 430.23 316.9 422.2 316.9 406.19 212.78"/><polyline class="cls-19" points="422.97 234.12 427.19 316.9 425.94 316.9 421.73 234.24"/><polygon class="cls-6" points="387.52 212.78 413.66 212.77 402.43 314.01 391.73 314 387.52 212.78"/><path class="cls-14" d="M391.16,314h11.27l-.88,8.84H382.32A8.84,8.84,0,0,1,391.16,314Z"/><path class="cls-14" d="M426.18,314a4.76,4.76,0,0,1,4.76,4.76v4.08h-9.52v-4.08A4.76,4.76,0,0,1,426.18,314Z"/><polygon class="cls-19" points="393.09 226.15 394.33 226.16 394.62 314.04 393.38 314.04 393.09 226.15"/><line class="cls-44" x1="421.73" y1="234.24" x2="422.97" y2="234.12"/><polygon class="cls-19" points="409.7 235.14 408.38 228.02 403.98 224.7 404.73 223.71 409.51 227.32 410.92 234.91 409.7 235.14"/><path class="cls-6" d="M449.52,175.47c0,21.36-3.17,45.94-3.17,45.94h-10l0-93.85h4.41S449.52,142.71,449.52,175.47Z"/><path class="cls-8" d="M436.31,221.41v13.1s13.25-.8,7.57-13.1Z"/><rect class="cls-9" x="436.29" y="221.41" width="8.5" height="2.21"/><polygon class="cls-6" points="383.61 127.91 400.8 116.67 419.88 116.67 440.75 127.58 434.23 180.89 435.19 219.17 412.94 219.17 400.98 212.78 392.76 219.18 382.52 219.18 383.61 127.91"/><path class="cls-19" d="M420.85,117.1s-1.8,3-3.36,13.74c-.33,2.32-.66,5-1,8.11-2,21.16-3.6,80.22-3.6,80.22l-12-6.4-8.22,6.4s-2.93-77.84,6.46-99.57h0a16.78,16.78,0,0,1,1.58-2.94l8.07.42h12Z"/><path class="cls-9" d="M420.85,117.1s-1.8,3-3.36,13.74l-7.12,13.51-8,20.7-3.16-45.44h0a16.78,16.78,0,0,1,1.58-2.94l8.07.42h12Z"/><path class="cls-12" d="M412.67,120.77l-3.91,5.46s3,4.59,2.69,7.48-1.08,10.64-1.08,10.64l-8,20.7L401,144.71s.92-9.71,1.43-12.32,3.85-6.18,3.85-6.18l-2.68-5.43Z"/><rect class="cls-19" x="384.32" y="149.68" width="5.11" height="1.24"/><polygon class="cls-19" points="436.29 195.89 435.67 144.97 436.92 144.97 437 195.89 436.29 195.89"/><rect class="cls-19" x="433.61" y="146.56" width="1.24" height="12.13" transform="translate(-25.92 163.2) rotate(-20.68)"/><polygon class="cls-6" points="401.41 210.75 400.56 209.85 405.56 205.16 405.56 173.96 401.83 167 402.93 166.41 406.8 173.64 406.81 205.7 401.41 210.75"/><path class="cls-6" d="M400.9,176.28a1.6,1.6,0,0,0,2.27,2.27A1.6,1.6,0,0,0,400.9,176.28Z"/><path class="cls-6" d="M400.9,186.38a1.6,1.6,0,0,0,2.27,2.27A1.6,1.6,0,0,0,400.9,186.38Z"/><path class="cls-6" d="M400.9,196.49a1.6,1.6,0,0,0,2.27,2.27A1.6,1.6,0,0,0,400.9,196.49Z"/><rect class="cls-19" x="436.08" y="172.73" width="6.05" height="1.24" transform="translate(-32.96 177.47) rotate(-22.04)"/><rect class="cls-19" x="436.72" y="175.27" width="7.63" height="1.24" transform="translate(-19.78 61.33) rotate(-7.79)"/><polygon class="cls-19" points="417.38 167.32 416.29 166.71 428.21 145.36 419.42 139.84 428.25 132.75 420.67 118.68 421.76 118.09 429.83 133.07 421.56 139.71 429.87 144.94 417.38 167.32"/><polygon class="cls-19" points="391.79 164.85 386.81 140.64 391.4 137.97 388.59 134.31 396.75 120.77 397.82 121.41 390.1 134.23 393.24 138.33 388.2 141.27 393.01 164.6 391.79 164.85"/><circle class="cls-19" cx="388.86" cy="189.91" r="1.55"/><circle class="cls-19" cx="388.86" cy="179.81" r="1.55"/><path class="cls-19" d="M421.43,219.17h-8.49l.41-13.67-.16,5.18a8.24,8.24,0,0,0,8.24,8.49Z"/><path class="cls-19" d="M388.08,219.17h4.68l-.13-13.67.09,5.18c.08,4.65-2,8.49-4.64,8.49Z"/><path class="cls-8" d="M399.66,118.57s2.94,3.68,10.07,3.68a14.82,14.82,0,0,0,11.11-5.14l-1.44-23.26H400.07Z"/><path class="cls-5" d="M400.07,117.81V105.92h16S416,117.81,400.07,117.81Z"/><path class="cls-5" d="M400.25,115V103H416.5S416.5,115,400.25,115Z"/><path class="cls-45" d="M412.77,75.6h-7.29a12.26,12.26,0,0,0-12.26,12.26l.51,13.23,25.05-.83a4.75,4.75,0,0,0,4.75-4.75V86.35A10.76,10.76,0,0,0,412.77,75.6Z"/><path class="cls-8" d="M393.58,114.2c13.8,5.32,22-4.45,22-4.45V90.17s1-10.09-8.3-10.08h-3.86c-8.24,0-9.86,7.63-9.84,12.84Z"/><rect class="cls-8" x="394.52" y="106.1" width="8.82" height="5.76"/><path class="cls-45" d="M416.88,80.09h0a5,5,0,0,1,5,5v15.13h0a9,9,0,0,1-9-9V84A4,4,0,0,1,416.88,80.09Z"/><path class="cls-8" d="M419.22,94.88h0a2.71,2.71,0,0,1,2.71,2.71v5.6a2.71,2.71,0,0,1-2.71,2.71h-2.74V97.62A2.74,2.74,0,0,1,419.22,94.88Z"/><polygon class="cls-5" points="399.66 103.37 397.09 103.38 397.51 99.6 398.65 99.72 398.38 102.22 399.66 102.22 399.66 103.37"/><path class="cls-45" d="M414,91.6a35.91,35.91,0,0,1-2.39,11c-2.25,5.68-8.65,4.87-8.65,4.87a3.8,3.8,0,0,1-3.78,3.16c-3.28,0-3.84-3-4-3.22-1.46-1.87-1.53-9.68-1.53-9.68V114.2s1.53,4.93,8.83,4.93c11.9,0,14.07-7.27,14.07-7.27V96.29Z"/><path class="cls-45" d="M397.73,81.21h2.89v2.63h-2.89c-5.29,0-9.58-3.57-9.58-8V73.24C388.15,77.64,392.44,81.21,397.73,81.21Z"/><path class="cls-45" d="M400.83,83.82h-2.89V81.19h2.89c5.29,0,9.58,3.57,9.58,8v2.63C410.41,87.39,406.12,83.82,400.83,83.82Z"/><path class="cls-45" d="M419.2,81.18v2.66H397.46c-4.14,0-7.5-4.76-7.5-10.63V73h23.46C416.62,73,419.2,76.65,419.2,81.18Z"/><path class="cls-45" d="M405.14,83.8a7.8,7.8,0,0,1,7.8,7.8h0V83.8Z"/><path class="cls-45" d="M397.75,103.8h3.6a4.5,4.5,0,0,1,4.5,4.5v.1a0,0,0,0,1,0,0h-3.6a4.5,4.5,0,0,1-4.5-4.5v-.1A0,0,0,0,1,397.75,103.8Z" transform="matrix(-1, 0, 0, -1, 803.6, 212.13)"/><path class="cls-45" d="M397.89,103.8h1.47a0,0,0,0,1,0,0v.1a4.5,4.5,0,0,1-4.5,4.5H393.4a0,0,0,0,1,0,0v-.1A4.5,4.5,0,0,1,397.89,103.8Z"/><rect class="cls-19" x="381.92" y="142.71" width="1.16" height="29.59"/><path class="cls-4" d="M341.42,186H344a0,0,0,0,1,0,0v2.36a2.18,2.18,0,0,1-2.18,2.18h-.4a0,0,0,0,1,0,0V186A0,0,0,0,1,341.42,186Z"/><rect class="cls-4" x="335.25" y="193.94" width="9.57" height="3.18" rx="1.56" ry="1.56" transform="translate(75.43 -94.02) rotate(17.68)"/><path class="cls-9" d="M535.16,190.9c0-.81-.58-1.39-2-2-1.2-.54-2.38-1.19-2.38-2.65A2.57,2.57,0,0,1,532,184h-3.17v9.15h2.53C533.79,193.15,535.16,192.38,535.16,190.9Z"/><path class="cls-9" d="M535.78,190.1a2.19,2.19,0,0,1,.14.61h2v-.61Z"/><path class="cls-9" d="M534.77,188.88a3.34,3.34,0,0,1,.66.61h2.51v-.61Z"/><path class="cls-9" d="M537.94,191.32h-2a2.68,2.68,0,0,1-.17.61h2.2Z"/><path class="cls-9" d="M537.94,184.61V184h-2.63a5.55,5.55,0,0,0-2.89.61Z"/><path class="cls-9" d="M535.38,192.54a2.81,2.81,0,0,1-.68.61h3.24v-.61Z"/><path class="cls-9" d="M531.82,185.22a1.79,1.79,0,0,0-.22.61h6.34v-.61Z"/><path class="cls-9" d="M532.49,187.66a7.93,7.93,0,0,0,1,.51l.21.1h4.24v-.61Z"/><path class="cls-9" d="M531.58,186.44a1.31,1.31,0,0,0,.23.61h6.13v-.61Z"/><path class="cls-9" d="M618.16,172.9c0-.81-.58-1.39-2-2-1.2-.54-2.38-1.19-2.38-2.65A2.57,2.57,0,0,1,615,166h-3.17v9.15h2.53C616.79,175.15,618.16,174.38,618.16,172.9Z"/><path class="cls-9" d="M618.78,172.1a2.19,2.19,0,0,1,.14.61h2v-.61Z"/><path class="cls-9" d="M617.77,170.88a3.34,3.34,0,0,1,.66.61h2.51v-.61Z"/><path class="cls-9" d="M620.94,173.32h-2a2.68,2.68,0,0,1-.17.61h2.2Z"/><path class="cls-9" d="M620.94,166.61V166h-2.63a5.55,5.55,0,0,0-2.89.61Z"/><path class="cls-9" d="M618.38,174.54a2.81,2.81,0,0,1-.68.61h3.24v-.61Z"/><path class="cls-9" d="M614.82,167.22a1.79,1.79,0,0,0-.22.61h6.34v-.61Z"/><path class="cls-9" d="M615.49,169.66a7.93,7.93,0,0,0,1,.51l.21.1h4.24v-.61Z"/><path class="cls-9" d="M614.58,168.44a1.31,1.31,0,0,0,.23.61h6.13v-.61Z"/><path class="cls-18" d="M533,192.76h5v7.41a4.34,4.34,0,0,1-4.34,4.34h-3.74a4.34,4.34,0,0,1-4.34-4.34h0A7.41,7.41,0,0,1,533,192.76Z"/></g><g id="Layer_3" data-name="Layer 3"><path class="cls-46" d="M46.59,98.62a1.19,1.19,0,0,0,1.35,1,1.17,1.17,0,0,0,1-1.33,1.19,1.19,0,0,0-1.35-1A1.17,1.17,0,0,0,46.59,98.62Z"/><path class="cls-46" d="M56.95,97.2a1.19,1.19,0,0,0,1.35,1,1.17,1.17,0,0,0,1-1.33,1.19,1.19,0,0,0-1.35-1A1.17,1.17,0,0,0,56.95,97.2Z"/><path class="cls-46" d="M140.59,101.62a1.19,1.19,0,0,0,1.35,1,1.17,1.17,0,0,0,1-1.33,1.19,1.19,0,0,0-1.35-1A1.17,1.17,0,0,0,140.59,101.62Z"/><path class="cls-46" d="M150.95,100.2a1.19,1.19,0,0,0,1.35,1,1.17,1.17,0,0,0,1-1.33,1.19,1.19,0,0,0-1.35-1A1.17,1.17,0,0,0,150.95,100.2Z"/><path class="cls-46" d="M303.59,97.62a1.19,1.19,0,0,0,1.35,1,1.17,1.17,0,0,0,1-1.33,1.19,1.19,0,0,0-1.35-1A1.17,1.17,0,0,0,303.59,97.62Z"/><path class="cls-46" d="M313.95,96.2a1.19,1.19,0,0,0,1.35,1,1.17,1.17,0,0,0,1-1.33,1.19,1.19,0,0,0-1.35-1A1.17,1.17,0,0,0,313.95,96.2Z"/><path class="cls-46" d="M408.29,95.62a1.19,1.19,0,0,1-1.35,1,1.17,1.17,0,0,1-1-1.33,1.19,1.19,0,0,1,1.35-1A1.17,1.17,0,0,1,408.29,95.62Z"/><path class="cls-46" d="M397.93,94.2a1.19,1.19,0,0,1-1.35,1,1.17,1.17,0,0,1-1-1.33,1.19,1.19,0,0,1,1.35-1A1.17,1.17,0,0,1,397.93,94.2Z"/><path class="cls-46" d="M659.29,95.62a1.19,1.19,0,0,1-1.35,1,1.17,1.17,0,0,1-1-1.33,1.19,1.19,0,0,1,1.35-1A1.17,1.17,0,0,1,659.29,95.62Z"/><path class="cls-46" d="M648.93,94.2a1.19,1.19,0,0,1-1.35,1,1.17,1.17,0,0,1-1-1.33,1.19,1.19,0,0,1,1.35-1A1.17,1.17,0,0,1,648.93,94.2Z"/><path class="cls-46" d="M575.22,114.6a1.18,1.18,0,0,1-1.34,1,1.16,1.16,0,0,1-1-1.32,1.18,1.18,0,0,1,1.34-1A1.16,1.16,0,0,1,575.22,114.6Z"/><path class="cls-46" d="M566.92,112.19a1.18,1.18,0,0,1-1.34,1,1.16,1.16,0,0,1-1-1.32,1.18,1.18,0,0,1,1.34-1A1.16,1.16,0,0,1,566.92,112.19Z"/><path class="cls-46" d="M503.13,113.4a1.19,1.19,0,0,1-1.46.81,1.17,1.17,0,0,1-.82-1.44,1.19,1.19,0,0,1,1.46-.81A1.17,1.17,0,0,1,503.13,113.4Z"/><path class="cls-46" d="M493,110.71a1.19,1.19,0,0,1-1.46.81,1.17,1.17,0,0,1-.82-1.44,1.19,1.19,0,0,1,1.46-.81A1.17,1.17,0,0,1,493,110.71Z"/><path class="cls-47" d="M225.59,111.62a1.19,1.19,0,0,0,1.35,1,1.17,1.17,0,0,0,1-1.33,1.19,1.19,0,0,0-1.35-1A1.17,1.17,0,0,0,225.59,111.62Z"/><path class="cls-47" d="M235.95,110.2a1.19,1.19,0,0,0,1.35,1,1.17,1.17,0,0,0,1-1.33,1.19,1.19,0,0,0-1.35-1A1.17,1.17,0,0,0,235.95,110.2Z"/></g></svg>