<?xml version="1.0" encoding="utf-8"?>
<!-- Generator: Adobe Illustrator 21.1.0, SVG Export Plug-In . SVG Version: 6.00 Build 0)  -->
<svg version="1.1" id="design" xmlns="http://www.w3.org/2000/svg" xmlns:xlink="http://www.w3.org/1999/xlink" x="0px" y="0px"
	 viewBox="0 0 835 280" style="enable-background:new 0 0 835 280;" xml:space="preserve">
<style type="text/css">
	.st0{display:none;}
	.st1{display:inline;fill:#70BEF2;}
	.st2{fill:url(#SVGID_1_);}
	.st3{opacity:0.5;fill:#FFFFFF;}
	.st4{fill:#FBB040;}
	.st5{fill:#A374AF;}
	.st6{fill:#70BEF2;}
	.st7{fill:#FFFFFF;}
	.st8{fill:url(#SVGID_2_);}
	
		.st9{fill:none;stroke:#70BEF2;stroke-width:2;stroke-linecap:round;stroke-linejoin:round;stroke-miterlimit:10;stroke-dasharray:1,4;}
	.st10{fill:url(#SVGID_3_);}
	.st11{fill:#BDDDF4;}
	.st12{fill:url(#SVGID_4_);}
	.st13{fill:url(#SVGID_5_);}
</style>
<g class="st0">
	<path class="st1" d="M374.4,168.3h-12.9v2h13.1c0-0.2-0.1-0.4-0.1-0.6C374.4,169.2,374.4,168.7,374.4,168.3z"/>
	<path class="st1" d="M383.1,176.9c0.3,0.2,0.6,0.3,0.8,0.5c0-0.2,0.1-0.4,0.1-0.6C383.7,176.9,383.4,176.9,383.1,176.9z"/>
	<path class="st1" d="M374.2,122.5c0.5,0,0.9-0.4,1-0.9c0.2-1.2,1.5-8.8,10.7-13.6l0,0c-0.4,0-0.8-0.2-1-0.5c-0.2-0.5,0-1.1,0.4-1.3
		c0.5-0.3,1.1-0.5,1.6-0.8c-10.4,4.5-13,12.3-13.6,15.1h-11.9v2H374.2z"/>
	<polygon class="st1" points="462.8,154.3 464.2,156.3 469.5,156.3 469.5,154.3 	"/>
	<path class="st1" d="M416.6,100h23.8c8.5,0,15.4,5.2,18.5,10.3c0.2,0.3,0.5,0.5,0.9,0.5h9.7v-2h-9.1c-3.5-5.4-10.8-10.8-19.9-10.8
		h-23.8c-3.5,0-6,0.8-7.6,2.5c-0.3,0.4-0.6,0.8-0.9,1.2c0.9,0,1.8,0,2.5,0C411.9,100.6,413.9,100,416.6,100z"/>
	<path class="st1" d="M410.7,187.3c-0.8,0.9-1.9,1.3-3.3,1.3c-1.4-0.1-2.9-0.7-4.1-1.7c-1.2-1.1-2-2.4-2.2-3.8
		c-0.2-1.3,0.1-2.5,0.8-3.4l3.3-3.7c-0.1-2.4,1-4.8,3.2-6.3c1.1-0.8,2.4-1.2,3.7-1.4l1.3-1.4c-0.3-0.9-0.5-1.9-0.5-2.9l-17.4,19.7
		c-0.8,0.9-1.9,1.3-3.3,1.3c-1.4-0.1-2.9-0.7-4.1-1.7c-1.2-1.1-2-2.4-2.2-3.8c-0.2-1.3,0.1-2.5,0.8-3.4l22.3-25.1
		c0.2-0.2,0.3-0.5,0.2-0.8l0-0.2c0-0.4-0.3-0.7-0.7-0.8c-0.4-0.1-0.8,0-1.1,0.3L386,173.6c-1.6,1.9-4.9,1.7-7.3-0.5
		c-1.2-1.1-2-2.4-2.2-3.8c-0.2-1.3,0.1-2.5,0.8-3.4l19.5-21.8c0.4-0.4,0.3-1-0.1-1.4c-0.4-0.4-1-0.3-1.4,0.1L376.3,164
		c-0.8,0.9-1.9,1.3-3.3,1.3c-1.4-0.1-2.9-0.7-4.1-1.7c-1.2-1.1-2-2.4-2.2-3.8c-0.2-1.3,0.1-2.5,0.8-3.4l23.8-26.9
		c-0.7-0.2-1.4-0.4-2.1-0.6L366.1,155c-1.2,1.3-1.6,3.1-1.3,5.1c0.3,1.9,1.3,3.6,2.9,5c1.5,1.4,3.4,2.1,5.3,2.2c0.5,0,1.1,0,1.6-0.1
		c-0.1,0.3-0.1,0.7-0.1,1.1c0,0.5,0,1,0.1,1.4c0,0.2,0.1,0.4,0.1,0.6c0.4,1.7,1.4,3.2,2.8,4.4c1.7,1.5,3.8,2.2,5.7,2.2
		c0.3,0,0.6,0,1-0.1c0,0.2-0.1,0.4-0.1,0.6c-0.1,0.7-0.1,1.5,0,2.3c0.3,1.9,1.3,3.6,2.9,5c1.5,1.4,3.4,2.1,5.3,2.2
		c2,0.1,3.7-0.6,4.9-1.9l2.1-2.3c0,0.2,0,0.5,0.1,0.8c0.3,1.9,1.3,3.6,2.9,5c1.5,1.4,3.4,2.1,5.3,2.2c0.1,0,0.2,0,0.3,0
		c1.8,0,3.4-0.7,4.5-1.9l0.5-0.5l-1.2-1.7L410.7,187.3z"/>
	<path class="st1" d="M458.2,147.7c-2.4-3.4-7.4-4-11.1-1.4c-1.8,1.3-3,3.1-3.5,5.1c0,0.2-0.1,0.4-0.1,0.6l8.2,11.5
		c0.9,1.3,1.5,2.8,1.6,4.4c0.8,0.4,1.7,0.7,2.6,0.8c0.3,0,0.7,0.1,1,0.1c1.7,0,3.5-0.6,5-1.6c3.7-2.6,4.7-7.5,2.3-10.9l0,0l-1.4-2
		L458.2,147.7z M460.7,165.6c-1.4,1-3,1.4-4.6,1.2c-1.5-0.2-2.9-1-3.7-2.1l-6.1-8.6c0,0,0,0,0,0c-0.8-1.2-1.1-2.7-0.8-4.2
		c0.3-1.6,1.3-2.9,2.7-3.9c1.2-0.8,2.5-1.2,3.8-1.2c1.8,0,3.4,0.8,4.4,2.2l6.1,8.6C464.4,159.9,463.5,163.6,460.7,165.6z"/>
	<path class="st1" d="M443.5,152l-0.9-1.3c-2.8-4-8.4-4.9-12.4-2.1c-2.6,1.8-3.9,4.8-3.7,7.8c1,0.6,1.8,1.4,2.5,2.4l9.9,13.9
		l-9.1-12.8c-2.2-3.1-1.5-7.4,1.6-9.6c1.2-0.9,2.6-1.3,4-1.3c2.2,0,4.3,1,5.6,2.9l9.1,12.8c1.1,1.5,1.5,3.3,1.2,5.1
		c-0.3,1.8-1.3,3.4-2.8,4.5c-1.5,1.1-3.3,1.5-5.1,1.2c-1.8-0.3-3.4-1.3-4.5-2.8c0,0,0,0,0,0c0.9,1.2,1.4,2.5,1.5,3.9
		c0.8,0.4,1.7,0.7,2.6,0.9c0.5,0.1,1,0.1,1.5,0.1c1.8,0,3.6-0.6,5.1-1.6c1.9-1.4,3.2-3.4,3.6-5.7c0.1-0.8,0.1-1.5,0.1-2.2
		c-0.1-1.6-0.7-3.1-1.6-4.4L443.5,152z"/>
	<path class="st1" d="M438.8,172.6l-9.9-13.9c-0.7-1-1.5-1.8-2.5-2.4c-1-0.6-2.1-1.1-3.3-1.3c-2.3-0.4-4.7,0.1-6.6,1.5
		c-2.4,1.7-3.7,4.5-3.7,7.2c0,1,0.2,1.9,0.5,2.9c0.2,0.5,0.4,1,0.7,1.5c1.8,0.3,3.3,1.2,4.3,2.6l8.9,12.6h0c0.5,0.8,0.9,1.6,1.1,2.5
		c0.6,0.2,1.2,0.4,1.8,0.5c0.5,0.1,1,0.1,1.5,0.1c1.8,0,3.6-0.6,5.1-1.6c2.8-2,4.1-5.3,3.7-8.5C440.2,175.2,439.7,173.8,438.8,172.6
		C438.8,172.6,438.8,172.6,438.8,172.6z M435.6,183.4c-1.5,1.1-3.3,1.5-5.1,1.2c-1.8-0.3-3.4-1.3-4.5-2.8l-9.9-13.9
		c-2.2-3.1-1.5-7.4,1.6-9.6c1.2-0.8,2.5-1.3,4-1.3c0.4,0,0.8,0,1.2,0.1c1.8,0.3,3.4,1.3,4.4,2.8l9.9,13.9
		C439.4,176.9,438.7,181.2,435.6,183.4z"/>
	<path class="st1" d="M427.2,183.4l-8.9-12.6c-1-1.4-2.5-2.3-4.3-2.6c-0.1,0-0.2,0-0.3-0.1c-0.5-0.1-1.1-0.1-1.6,0
		c-1.3,0.1-2.6,0.6-3.7,1.4c-2.2,1.5-3.3,4-3.2,6.3c0.1,1.2,0.4,2.4,1.2,3.4l5.1,7.1l1.2,1.7l2.7,3.8c1.3,1.8,3.3,2.7,5.5,2.7
		c1.5,0,3-0.5,4.4-1.4c1.6-1.1,2.6-2.7,3-4.5c0.2-0.9,0.2-1.8,0-2.6C428.1,185.1,427.7,184.2,427.2,183.4L427.2,183.4z M426.3,188.2
		c-0.3,1.3-1.1,2.5-2.2,3.3c-2.4,1.7-5.5,1.3-7.1-0.9l-8.9-12.6c-1.5-2.2-0.8-5.3,1.5-6.9c1-0.7,2.1-1,3.2-1c0.2,0,0.5,0,0.7,0
		c1.3,0.2,2.4,0.8,3.2,1.9l8.9,12.6C426.3,185.6,426.5,186.9,426.3,188.2z"/>
	<path class="st1" d="M384.9,107.5c0.2,0.4,0.6,0.6,1,0.5c0.1,0,0.2,0,0.3-0.1c7.8-3.9,10.3-4.2,11.1-4.2c6.1-0.1,15.6-0.1,16.7,0.1
		c4.4,0.6,7.8,3.7,7.9,3.8l22.6,22.6c0.1,0.1,0.4,0.4-0.3,1.3c-2.6,3.1-12.2,5.9-18.2,1.6l-14.8-14.7c-0.1-0.1-0.2-0.2-0.4-0.4
		c-0.2-0.3-0.6-0.4-0.9-0.3c-0.4,0.1-0.6,0.3-0.7,0.7c-0.9,2.8-3.4,6.6-7.4,8.4c-3.8,1.8-8.4,1.7-13.4-0.4c-0.2-0.1-0.3-0.1-0.5-0.1
		c-0.4,0-0.7,0.3-0.8,0.6c-0.2,0.5,0,1.1,0.6,1.3c0.5,0.2,1.1,0.4,1.6,0.6c0.7,0.2,1.4,0.4,2.1,0.6c4.1,1,7.9,0.7,11.3-0.8
		c4.6-2.1,6.9-5.9,7.9-8.1l14.2,14.1c0,0,0.1,0.1,0.1,0.1c2.5,1.8,5.6,2.6,8.6,2.6c5.2,0,10.4-2.2,12.3-4.5c1.2-1.4,1.2-2.9,0.1-4
		l-22.6-22.6c0,0-3.9-3.6-9-4.3c-0.5-0.1-1.9-0.1-3.6-0.1c-0.8,0-1.6,0-2.5,0c-4.5,0-9.9,0-10.8,0.1c-1.8,0-5.3,1.2-10.4,3.7
		c-0.5,0.2-1,0.5-1.6,0.8C384.9,106.4,384.7,107,384.9,107.5z"/>
</g>
<g>
	
		<radialGradient id="SVGID_1_" cx="441.4321" cy="140" r="127" gradientTransform="matrix(3.2283 0 0 1.1024 -1012.0958 -14.3307)" gradientUnits="userSpaceOnUse">
		<stop  offset="0" style="stop-color:#B6E8FF"/>
		<stop  offset="0.9595" style="stop-color:#BCDFF6;stop-opacity:0"/>
		<stop  offset="0.9946" style="stop-color:#BDDDF4;stop-opacity:0"/>
	</radialGradient>
	<ellipse class="st2" cx="413" cy="140" rx="410" ry="140"/>
	<g>
		<circle class="st3" cx="141" cy="163.5" r="27.5"/>
		<g>
			<circle class="st4" cx="166.2" cy="145.1" r="0.8"/>
			<circle class="st4" cx="152.5" cy="158.4" r="0.8"/>
			<path class="st4" d="M184.2,156.4c2.1-2.2,3.2-5,3.2-7.9c0-7.2-7.2-12.4-14.6-12.4c-7.5,0-13.6,5.1-14.1,11.6
				c-7.1,0.4-13.8,5.5-13.8,12.4c0,2.9,1.1,5.7,3.2,7.9c0.4,1.7-0.1,3.5-1.3,4.8c-0.2,0.2-0.3,0.6-0.2,0.9c0.1,0.3,0.4,0.5,0.8,0.5
				c2.4,0,4.6-0.9,6.3-2.6c1.7,0.6,3.8,0.9,5.8,0.9c7.5,0,13.6-5.1,14.1-11.6c1.7-0.1,3.5-0.4,5-0.9c1.7,1.6,4,2.6,6.3,2.6
				c0.3,0,0.6-0.2,0.8-0.5c0.1-0.3,0.1-0.7-0.2-0.9C184.3,159.9,183.8,158.1,184.2,156.4z M159.6,170.8c-2,0-4.2-0.4-5.7-1
				c-0.3-0.1-0.7,0-0.9,0.2c-1,1.1-2.3,1.9-3.7,2.2c0.8-1.5,1-3.3,0.5-4.9c0-0.1-0.1-0.3-0.2-0.4c-1.9-1.9-2.9-4.4-2.9-6.9
				c0-5.8,5.9-10.8,12.9-10.8c6.6,0,12.4,4.6,12.4,10.8C172,166,166.5,170.8,159.6,170.8z M179.5,158.5c-0.2-0.3-0.6-0.3-0.9-0.2
				c-1.3,0.5-3.1,0.9-4.9,1c-0.2-3.1-1.8-6.1-4.5-8.3H180c0.5,0,0.8-0.4,0.8-0.8c0-0.5-0.4-0.8-0.8-0.8h-13.4c-1.9-1-4-1.5-6.2-1.6
				c0.5-5.6,5.9-10,12.4-10c7,0,12.9,4.9,12.9,10.8c0,2.5-1,5-2.9,6.9c-0.1,0.1-0.2,0.2-0.2,0.4c-0.5,1.7-0.3,3.4,0.5,4.9
				C181.8,160.3,180.5,159.6,179.5,158.5z"/>
			<path class="st4" d="M166.2,157.6h-10.5c-0.5,0-0.8,0.4-0.8,0.8c0,0.5,0.4,0.8,0.8,0.8h10.5c0.5,0,0.8-0.4,0.8-0.8
				C167.1,157.9,166.7,157.6,166.2,157.6z"/>
			<path class="st4" d="M166.2,162.5h-13.8c-0.5,0-0.8,0.4-0.8,0.8c0,0.5,0.4,0.8,0.8,0.8h13.8c0.5,0,0.8-0.4,0.8-0.8
				C167.1,162.9,166.7,162.5,166.2,162.5z"/>
			<path class="st4" d="M180,144.3h-10.5c-0.5,0-0.8,0.4-0.8,0.8c0,0.5,0.4,0.8,0.8,0.8H180c0.5,0,0.8-0.4,0.8-0.8
				C180.8,144.7,180.5,144.3,180,144.3z"/>
		</g>
	</g>
	<g>
		<circle class="st3" cx="573.5" cy="106.5" r="35"/>
		<path class="st4" d="M638.5,87.1c-0.3-4.4-2.7-8.2-6.3-10.2l2.9-2.3c0.6-0.4,0.9-1.1,0.9-1.8c0-0.9-0.6-1.8-1.4-2.2l-4.2-1.8
			l0.3-0.7c0.1-0.3,0.2-0.6,0.2-0.9c0-1.3-1-2.3-2.3-2.3h-5.7c-1.3,0-2.3,1-2.3,2.3c0,0.3,0.1,0.6,0.2,0.8l0.3,0.7l-4.2,1.8
			c-0.9,0.4-1.4,1.2-1.4,2.2c0,0.7,0.3,1.4,0.9,1.8l2.9,2.3c-3.6,2.1-6,5.8-6.3,10.2c-2.2,1.9-3.5,4.7-3.5,7.7
			c0,5.7,4.6,10.3,10.3,10.3h12c5.7,0,10.3-4.6,10.3-10.3C642,91.8,640.7,89,638.5,87.1z M622.9,66.5h5.7c0.3,0,0.6,0.3,0.6,0.6
			c0,0.1,0,0.1,0,0.2l-1.9,4.9l1.6,0.6l1-2.5l4.1,1.8c0.2,0.1,0.4,0.3,0.4,0.6c0,0.2-0.1,0.4-0.2,0.5l-3.5,2.8
			c-0.9-0.3-1.8-0.6-2.7-0.7l0.5-1.1l-1.6-0.6l-0.6,1.6c-0.1,0-0.2,0-0.3,0c-0.1,0-0.2,0-0.3,0l-3.1-7.8c0-0.1,0-0.1,0-0.2
			C622.3,66.8,622.6,66.5,622.9,66.5z M617.5,73.2c-0.2-0.1-0.2-0.3-0.2-0.5c0-0.3,0.2-0.5,0.4-0.6l4.1-1.8l2,5
			c-0.9,0.2-1.8,0.4-2.7,0.7L617.5,73.2z M631.7,103.3h-12c-4.7,0-8.5-3.8-8.5-8.5c0-2.6,1.1-5,3.1-6.6l0.3-0.2l0-0.4
			c0.2-6,5.1-10.7,11.1-10.7s10.9,4.7,11.1,10.7l0,0.4l0.3,0.2c2,1.6,3.1,4,3.1,6.6C640.3,99.5,636.5,103.3,631.7,103.3z
			 M630.9,87.3v0.6h-1.7v-0.6c0-0.6-0.6-1.1-1.3-1.1h-4.3c-0.7,0-1.3,0.5-1.3,1.1v1.3c0,0.6,0.6,1.1,1.3,1.1h4.3c1.6,0,3,1.2,3,2.8
			v1.3c0,1.5-1.3,2.8-3,2.8h-1.3v1.7h-1.7v-1.7h-1.3c-1.6,0-3-1.2-3-2.8h1.7c0,0.6,0.6,1.1,1.3,1.1h4.3c0.7,0,1.3-0.5,1.3-1.1v-1.3
			c0-0.6-0.6-1.1-1.3-1.1h-4.3c-1.6,0-3-1.2-3-2.8v-1.3c0-1.5,1.3-2.8,3-2.8h1.3v-1.7h1.7v1.7h1.3C629.5,84.5,630.9,85.7,630.9,87.3
			z M614,69.4c-0.1-1.6-1.5-2.8-3.1-2.8c-1.7,0-3.1,1.4-3.1,3c0,1.2-0.1,2.7-0.4,4.4c-0.9-1.8-1.6-3.6-2-5.3
			c-0.2-0.7-0.3-1.5-0.4-2.3l6.1-6.1c0.6-0.6,1-1.4,1-2.3c0-1.8-1.5-3.3-3.3-3.3c-0.9,0-1.7,0.3-2.3,1l-0.6,0.6
			c0.2-1,0.1-1.9-0.5-2.7c-0.6-0.9-1.6-1.4-2.7-1.4c-1.5,0-2.8,1-3.2,2.4c-0.9,2.9-2.1,9.3-0.2,19.1c0.9,4.9-0.2,8.3-3.4,10.2v-2.7
			H589v18.8h6.8v-2.5c0.3,0,0.6-0.1,1-0.1c2.8-0.3,6.2-0.7,10.7-5.3C614.5,85,614.4,73.8,614,69.4z M594.1,98.2h-3.4V82.8h3.4V98.2z
			 M605,59.4L605,59.4l2.7-2.7c0.3-0.3,0.7-0.5,1.1-0.5c0.9,0,1.6,0.7,1.6,1.6c0,0.4-0.2,0.8-0.5,1.1l-5.1,5.1
			C604.7,62.6,604.8,61,605,59.4z M606.3,90.7c-4.1,4.1-7.1,4.5-9.7,4.8c-0.3,0-0.5,0.1-0.8,0.1v-9.9c3.2-1.5,6.5-5,5.1-12.5
			c-1.8-9.5-0.6-15.6,0.2-18.3c0.2-0.7,0.8-1.2,1.5-1.2c0.5,0,1,0.2,1.3,0.7c0.3,0.4,0.4,1,0.2,1.4l-0.6,1.7c0,0.1-0.1,0.3-0.1,0.4
			c-0.9,4.2-0.3,8.3,0.3,11c0.5,2,1.2,4.1,2.4,6.2c0.3,0.5,0.5,1,0.7,1.5c-0.6,2-1.6,4-3.1,5.5l1.2,1.2c3.8-3.8,4.5-10.3,4.6-13.8
			c0-0.7,0.6-1.3,1.4-1.3c0.7,0,1.3,0.6,1.4,1.3C612.7,73.7,612.8,84.3,606.3,90.7z"/>
	</g>
	<g>
		<circle class="st3" cx="230.5" cy="220.5" r="35"/>
		<path class="st5" d="M196.7,246.8c0,2.4,1.9,5.1,4.3,5.1s4.3-2.7,4.3-5.1s-1.9-4.3-4.3-4.3S196.7,244.5,196.7,246.8z M203.5,246.8
			c0,1.4-1.3,3.4-2.6,3.4s-2.6-2-2.6-3.4s1.1-2.6,2.6-2.6S203.5,245.4,203.5,246.8z M201.8,253.7v5.1c0,0.5-0.3,0.9-0.9,0.9
			s-0.9-0.3-0.9-0.9v-5.1c0-0.5,0.3-0.9,0.9-0.9S201.8,253.1,201.8,253.7z M219.7,250.3c0,5.5,5,11.8,11.8,11.8
			c6.8,0,12.1-6.3,12.1-11.8c0-0.2,0-0.3-0.1-0.4L233,230.7h2.8c0.5,0,0.9-0.3,0.9-0.9c0-0.5-0.3-0.9-0.9-0.9h-4.3h-14.5v-1.7
			c0-0.5-0.3-0.9-0.9-0.9s-0.9,0.3-0.9,0.9v1.7h-14.5h-4.3c-0.5,0-0.9,0.3-0.9,0.9c0,0.5,0.3,0.9,0.9,0.9h2.8l-10.4,19.2
			c-0.1,0.2-0.1,0.3-0.1,0.4c0,5.5,5,11.8,11.8,11.8c6.8,0,12.1-6.3,12.1-11.8c0-0.2,0-0.3-0.1-0.4l-10.4-19.2h13v35.8h-6
			c-0.3,0-0.6,0.2-0.8,0.5l-2.3,4.6h-3.7c-0.3,0-0.4,0.1-0.6,0.3l-4.3,4.3c-0.3,0.3-0.3,0.6-0.2,0.9c0.2,0.3,0.4,0.5,0.8,0.5h35.9
			c0.3,0,0.7-0.2,0.8-0.5c0.1-0.3,0.1-0.7-0.2-0.9l-4.3-4.3c-0.2-0.2-0.3-0.3-0.6-0.3h-3.7l-2.3-4.6c-0.2-0.3-0.4-0.5-0.8-0.5h-6
			v-35.8h13l-10.4,19.2C219.7,250,219.7,250.1,219.7,250.3z M211.1,250.4c-0.1,2-1,4.3-2.6,6v-3.7c0-0.3-0.3-0.7-0.6-0.8l-2.6-0.9
			c-0.4-0.2-0.9,0.1-1.1,0.5s0.1,0.9,0.5,1.1l2,0.7v4.4c0,0.1,0,0.1,0,0.2c-1.7,1.4-3.8,2.3-6.1,2.3c-2.2,0-4.3-0.9-5.9-2.1
			c0.2-0.2,0.2-0.3,0.2-0.3v-4.5l2-0.7c0.4-0.2,0.7-0.6,0.5-1.1c-0.2-0.4-0.6-0.7-1.1-0.5l-2.6,0.9c-0.3,0.2-0.5,0.5-0.5,0.9v3.8
			c-1.5-1.8-2.6-4.1-2.6-6.2l10.2-18.8L211.1,250.4z M222.6,268.1l0.4,0.9h-1.6c-0.5,0-0.9,0.3-0.9,0.9c0,0.5,0.3,0.9,0.9,0.9h2.5
			l0.4,0.9h-10.6c-0.5,0-0.9,0.3-0.9,0.9c0,0.5,0.3,0.9,0.9,0.9h15.8l2.6,2.6h-31.8l2.6-2.6h7.3c0.5,0,0.9-0.3,0.9-0.9
			c0-0.5-0.3-0.9-0.9-0.9h-2l1.7-3.4H222.6z M231.6,231.6l10.2,18.8c-0.1,2-1,4.3-2.6,6v-3.7c0-0.3-0.3-0.7-0.6-0.8l-2.6-0.9
			c-0.4-0.2-0.9,0.1-1.1,0.5s0.1,0.9,0.5,1.1l2,0.7v4.4c0,0.1,0,0.1,0,0.2c-1.7,1.4-3.8,2.3-6.1,2.3c-2.2,0-4.3-0.9-5.9-2.1
			c0-0.1,0.1-0.2,0.1-0.3v-4.5l2-0.7c0.4-0.2,0.7-0.6,0.5-1.1c-0.2-0.4-0.6-0.7-1.1-0.5l-2.6,0.9c-0.2,0.2-0.4,0.5-0.4,0.9v3.8
			c-1.5-1.8-2.6-4.1-2.6-6.2L231.6,231.6z M231.6,252c2.4,0,4.3-2.7,4.3-5.1s-1.9-4.3-4.3-4.3s-4.3,1.9-4.3,4.3S229.2,252,231.6,252
			z M231.6,244.3c1.4,0,2.6,1.1,2.6,2.6s-1.3,3.4-2.6,3.4s-2.6-2-2.6-3.4S230.1,244.3,231.6,244.3z M232.4,253.7v5.1
			c0,0.5-0.3,0.9-0.9,0.9s-0.9-0.3-0.9-0.9v-5.1c0-0.5,0.3-0.9,0.9-0.9S232.4,253.1,232.4,253.7z M217.1,269.8
			c0-0.5,0.3-0.9,0.9-0.9h0.9c0.5,0,0.9,0.3,0.9,0.9c0,0.5-0.3,0.9-0.9,0.9H218C217.4,270.7,217.1,270.3,217.1,269.8z M215.4,224.7
			v-0.9c0-0.5,0.3-0.9,0.9-0.9s0.9,0.3,0.9,0.9v0.9c0,0.5-0.3,0.9-0.9,0.9S215.4,225.2,215.4,224.7z"/>
	</g>
	<g>
		<circle class="st3" cx="509.5" cy="35" r="35"/>
		<path class="st6" d="M503.5,29.9c0-0.5,0.4-0.9,0.9-0.9s0.9,0.4,0.9,0.9c0,0.5-0.4,0.9-0.9,0.9S503.5,30.4,503.5,29.9z M512,36.6
			c0,8.9-9.4,16.4-21.8,27.1c-0.2,0.1-0.4,0.2-0.6,0.2s-0.4-0.1-0.6-0.2c-12.4-10.7-21.8-18.2-21.8-27.1c0-6.6,4.6-12.1,11.3-12.1
			c3.5,0,6.6,1.3,9.1,3.9c0.9,0.9,1.5,1.8,2,2.5c0.5-0.7,1.1-1.6,2-2.5c2.5-2.5,5.7-3.9,9.1-3.9c3.2,0,6.1,1.3,8.2,3.6
			C510.9,30.4,512,33.4,512,36.6z M510.3,36.6c0-5.9-4.1-10.4-9.5-10.4c-3,0-5.7,1.1-7.9,3.3c-1.7,1.7-2.5,3.4-2.5,3.4
			c-0.1,0.3-0.5,0.5-0.8,0.5h0c-0.3,0-0.7-0.2-0.8-0.5c0,0-0.8-1.7-2.5-3.4c-2.2-2.2-4.8-3.3-7.9-3.3c-5.4,0-9.5,4.5-9.5,10.4
			c0,8,9,15.2,20.6,25.3C500.7,52.4,510.3,44.8,510.3,36.6z M507.4,32.1c-0.2-0.4-0.8-0.6-1.2-0.4c-0.4,0.2-0.6,0.8-0.4,1.2
			c0.6,1.1,0.9,2.4,0.9,3.7c0,2.5-1.2,5.2-3.8,8.4c-0.3,0.4-0.2,0.9,0.1,1.2c0.4,0.3,0.9,0.2,1.2-0.1c2.8-3.6,4.2-6.6,4.2-9.5
			C508.5,35.1,508.1,33.5,507.4,32.1z M498.9,42.1v5.2c0,0.5-0.4,0.9-0.9,0.9h-4.9v4.9c0,0.5-0.4,0.9-0.9,0.9H487
			c-0.5,0-0.9-0.4-0.9-0.9v-4.9h-4.9c-0.5,0-0.9-0.4-0.9-0.9v-5.2c0-0.5,0.4-0.9,0.9-0.9h4.9v-4.9c0-0.5,0.4-0.9,0.9-0.9h5.2
			c0.5,0,0.9,0.4,0.9,0.9v4.9h4.9C498.5,41.3,498.9,41.7,498.9,42.1z M497.1,43h-4.9c-0.5,0-0.9-0.4-0.9-0.9v-4.9h-3.5v4.9
			c0,0.5-0.4,0.9-0.9,0.9h-4.9v3.5h4.9c0.5,0,0.9,0.4,0.9,0.9v4.9h3.5v-4.9c0-0.5,0.4-0.9,0.9-0.9h4.9V43z"/>
	</g>
	<g>
		<circle class="st3" cx="340.5" cy="51.5" r="27.5"/>
		<path class="st5" d="M342.9,35.1c0.3-0.7,0.4-1.4,0.4-2.1c0-0.2,0-0.5,0-0.7c-0.4-2.8-2.7-4.9-5.5-4.9c-0.6,0-1.2,0.1-1.8,0.3
			c-1.3-1.4-2.9-2.2-4.8-2.4V21c0-0.2,0-0.3,0-0.5v-3.4c0.3,0,0.6,0,1,0c2,0,5-0.4,7-2.4c3.1-3.1,2.3-8.7,2.2-8.9
			c-0.1-0.4-0.4-0.7-0.8-0.8c-0.2,0-5.8-0.8-8.9,2.2c-2,2-2.4,5.1-2.4,7c-0.2-0.2-0.3-0.4-0.5-0.6c-3.1-3.1-8.7-2.3-8.9-2.2
			c-0.4,0.1-0.7,0.4-0.8,0.8c0,0.2-0.8,5.8,2.2,8.9c2,2,5,2.4,7,2.4c0.4,0,0.7,0,1,0v1.7c-1.7,0.2-3.2,0.9-4.4,2.1l-2.6-2.6
			c-1.1-1.1-2.5-1.7-4-1.7h-8.5h-4h-7.8c-0.5,0-0.9,0.4-0.9,0.9v14.4c0,0.5,0.4,0.9,0.9,0.9h7.8c0.5,0,0.9-0.4,0.9-0.9v-1.3h3
			c0.5,0,0.8-0.3,0.9-0.8l3.1,4c1,1.3,2.7,2.1,4.3,2.1h22.3c2.3,0,4.2-1.9,4.2-4.2v0C344.5,37,343.9,35.8,342.9,35.1z M332.9,8.7
			c1.9-1.9,5.2-1.9,6.6-1.8c0.1,1.4,0.1,4.7-1.8,6.6c-1.4,1.4-3.6,1.8-5.2,1.8l4-3.8c0.4-0.4,0.4-0.9,0-1.3c-0.4-0.4-0.9-0.4-1.3,0
			l-4,3.9C331.1,12.4,331.5,10.1,332.9,8.7z M329.2,21.7c-1.4,0.1-4.7,0.1-6.6-1.8c-1.9-1.9-1.9-5.2-1.8-6.6
			c1.4-0.1,4.7-0.1,6.6,1.8h0C329.3,17,329.3,20.3,329.2,21.7z M304.8,36.2v1.3h-5.9V25h5.9V36.2z M308.7,35.3h-2.1V25h2.1V35.3z
			 M330.2,27.1c1.9,0,3.6,0.8,4.7,2.3c0.3,0.4,0.8,0.5,1.2,0.3c0.5-0.3,1.1-0.4,1.7-0.4c1.9,0,3.4,1.4,3.7,3.2v0c0,0.2,0,0.3,0,0.5
			c0,0.4-0.1,0.8-0.2,1.2h-0.9h-11.2c0,0,0,0,0,0c0-0.1,0-0.1,0-0.2c0,0,0,0,0-0.1c0-0.1,0-0.1,0-0.2c0,0,0,0,0,0c0-0.1,0-0.1,0-0.2
			c0,0,0,0,0,0c0-0.1,0-0.1,0-0.2c0,0,0,0,0,0c0-0.1,0-0.1,0-0.2c0,0,0,0,0,0c0-0.2,0-0.3-0.1-0.5c0,0,0,0,0,0c0-0.1,0-0.1-0.1-0.2
			c0,0,0,0,0,0c0-0.2-0.1-0.3-0.2-0.5c0,0,0,0,0,0c0-0.1-0.1-0.1-0.1-0.2c0,0,0,0,0,0c-0.1-0.1-0.2-0.3-0.2-0.4c0,0,0,0,0,0
			c0-0.1-0.1-0.1-0.1-0.2c0,0,0,0,0,0c0,0-0.1-0.1-0.1-0.1c0,0,0,0,0,0c-0.1-0.1-0.1-0.1-0.2-0.2l-2-1.9
			C327.3,27.6,328.7,27.1,330.2,27.1z M342.6,38.4c0,1.3-1,2.3-2.3,2.3H318c-1.1,0-2.2-0.5-2.9-1.4l-4.6-5.9V25h7.6
			c1,0,2,0.4,2.7,1.1l5.9,5.8c0,0,0.1,0.1,0.1,0.1c0,0,0,0,0,0.1c0,0,0,0.1,0.1,0.1c0,0,0,0.1,0,0.1c0,0,0,0.1,0,0.1
			c0,0,0,0.1,0,0.1c0,0,0,0.1,0,0.1c0,0,0,0.1,0,0.1c0,0,0,0.1,0,0.1c0,0,0,0.1,0,0.1c0,0,0,0.1,0,0.1c0,0,0,0.1,0,0.1
			c0,0,0,0.1,0,0.1c0,0,0,0.1,0,0.1c0,0,0,0.1,0,0.1c0,0,0,0.1,0,0.1c0,0,0,0.1,0,0.1c0,0,0,0,0,0.1c0,0,0,0.1,0,0.1c0,0,0,0,0,0.1
			c0,0.1,0,0.1,0,0.2c0,0,0,0,0,0c0,0.1,0,0.1-0.1,0.2c0,0,0,0,0,0.1c0,0,0,0.1,0,0.1c0,0,0,0.1-0.1,0.1c0,0,0,0.1,0,0.1
			c0,0,0,0.1-0.1,0.1c0,0,0,0,0,0.1c0,0,0,0,0,0c0,0-0.1,0.1-0.1,0.1l0,0c0,0-0.1,0.1-0.2,0.1c0,0,0,0,0,0c0,0-0.1,0.1-0.1,0.1
			c0,0,0,0,0,0c-0.7,0.4-1.5,0.4-2.2,0c0,0,0,0,0,0c0,0-0.1-0.1-0.1-0.1c0,0,0,0,0,0c0,0-0.1-0.1-0.1-0.1c0,0,0,0,0,0l-3.9-3.9
			c-0.4-0.4-0.9-0.4-1.3,0c-0.4,0.4-0.4,0.9,0,1.3l1.9,1.9l1.9,1.9c0,0,0,0,0,0c0,0,0.1,0.1,0.1,0.1c0,0,0,0,0,0
			c0,0,0.1,0.1,0.1,0.1c0,0,0,0,0,0c0.7,0.6,1.5,0.9,2.4,0.9c1,0,2-0.4,2.7-1.1l0,0c0,0,0,0,0,0l0,0l0,0c0,0,0,0,0,0h12.2
			C341.6,36,342.6,37.1,342.6,38.4L342.6,38.4z M317.9,28.9c0,0.1,0,0.1,0,0.2c0,0.1,0,0.1,0,0.2c0,0.1,0,0.1-0.1,0.2
			c0,0.1-0.1,0.1-0.1,0.2c0,0.1-0.1,0.1-0.1,0.1s-0.1,0.1-0.1,0.1c-0.1,0-0.1,0.1-0.2,0.1c-0.1,0-0.1,0-0.2,0.1c-0.1,0-0.1,0-0.2,0
			c-0.1,0-0.1,0-0.2,0c-0.1,0-0.1,0-0.2-0.1c-0.1,0-0.1-0.1-0.2-0.1c-0.1,0-0.1-0.1-0.1-0.1c0,0-0.1-0.1-0.1-0.1
			c0-0.1-0.1-0.1-0.1-0.2c0-0.1,0-0.1-0.1-0.2c0-0.1,0-0.1,0-0.2c0-0.1,0-0.1,0-0.2c0-0.1,0-0.1,0.1-0.2c0-0.1,0.1-0.1,0.1-0.2
			c0-0.1,0.1-0.1,0.1-0.1c0,0,0.1-0.1,0.1-0.1c0.1,0,0.1-0.1,0.2-0.1c0.1,0,0.1,0,0.2-0.1c0.1,0,0.2,0,0.4,0c0.1,0,0.1,0,0.2,0.1
			c0.1,0,0.1,0.1,0.2,0.1c0.1,0,0.1,0.1,0.1,0.1s0.1,0.1,0.1,0.1c0,0.1,0.1,0.1,0.1,0.2C317.9,28.8,317.9,28.9,317.9,28.9z
			 M337.4,9.2c-0.2-0.2-0.3-0.4-0.3-0.7c0-0.1,0-0.1,0-0.2c0-0.1,0-0.1,0.1-0.2c0-0.1,0.1-0.1,0.1-0.2c0-0.1,0.1-0.1,0.1-0.1
			c0,0,0.1-0.1,0.1-0.1c0.1,0,0.1-0.1,0.2-0.1c0.1,0,0.1,0,0.2-0.1c0.3-0.1,0.6,0,0.8,0.3c0,0,0.1,0.1,0.1,0.1
			c0,0.1,0.1,0.1,0.1,0.2c0,0.1,0,0.1,0.1,0.2c0,0.1,0,0.1,0,0.2c0,0.1,0,0.1,0,0.2c0,0.1,0,0.1-0.1,0.2c0,0.1-0.1,0.1-0.1,0.2
			c0,0.1-0.1,0.1-0.1,0.1c-0.2,0.2-0.4,0.3-0.7,0.3c-0.1,0-0.1,0-0.2,0c-0.1,0-0.1,0-0.2-0.1c-0.1,0-0.1-0.1-0.2-0.1
			C337.5,9.3,337.5,9.2,337.4,9.2z"/>
	</g>
	<g>
		<circle class="st3" cx="331.5" cy="251.5" r="27.5"/>
		<path class="st4" d="M361.8,205.3V203c0-0.6,0.5-1,1-1s1,0.5,1,1v2.3c0,0.6-0.5,1-1,1S361.8,205.9,361.8,205.3z M386.8,223.1h-2.3
			c-0.6,0-1,0.5-1,1c0,0.6,0.5,1,1,1h2.3c0.6,0,1-0.5,1-1C387.9,223.6,387.4,223.1,386.8,223.1z M342.3,224.2c0-0.6-0.5-1-1-1h-2.3
			c-0.6,0-1,0.5-1,1c0,0.6,0.5,1,1,1h2.3C341.8,225.2,342.3,224.7,342.3,224.2z M378.2,212.2c0.3,0,0.5-0.1,0.7-0.3l1.6-1.6
			c0.4-0.4,0.4-1.1,0-1.5c-0.4-0.4-1.1-0.4-1.5,0l-1.6,1.6c-0.4,0.4-0.4,1.1,0,1.5C377.7,212,377.9,212.2,378.2,212.2z M347.2,210.4
			l-1.6-1.6c-0.4-0.4-1.1-0.4-1.5,0c-0.4,0.4-0.4,1.1,0,1.5l1.6,1.6c0.2,0.2,0.5,0.3,0.7,0.3c0.3,0,0.5-0.1,0.7-0.3
			C347.6,211.4,347.6,210.8,347.2,210.4z M381.2,237.8c-0.4-0.4-1.1-0.4-1.5,0c-0.4,0.4-0.4,1.1,0,1.5l1.6,1.6
			c0.2,0.2,0.5,0.3,0.7,0.3s0.5-0.1,0.7-0.3c0.4-0.4,0.4-1.1,0-1.5L381.2,237.8z M343.4,237.8l-1.6,1.6c-0.4,0.4-0.4,1.1,0,1.5
			c0.2,0.2,0.5,0.3,0.7,0.3s0.5-0.1,0.7-0.3l1.6-1.6c0.4-0.4,0.4-1.1,0-1.5C344.5,237.4,343.8,237.4,343.4,237.8z M379.3,227
			c0,5.9-3.2,11.1-7.9,14v6.1c0,4.3-3.5,7.9-7.9,7.9h-1.4c-4.3,0-7.9-3.5-7.9-7.9v-6.2c-4.6-2.9-7.7-8-7.7-13.9
			c0-2.6,0.6-5.1,1.7-7.4c0.3-0.5,0.9-0.7,1.4-0.5c0.5,0.3,0.7,0.9,0.5,1.4c-1,2-1.5,4.2-1.5,6.4c0,7.6,5.9,13.8,13.3,14.2v-5.5
			c-2.2-0.1-4.1-0.7-5.5-2c-2.7-2.4-2.9-6.2-2.9-6.3c0-0.3,0.1-0.6,0.3-0.8c0.2-0.2,0.5-0.3,0.8-0.3c0.3,0,0.4,0,0.6,0.1
			c0,0,0.1,0,0.2,0.1c0,0,0,0,0,0c0.4,0.1,4.3,1,6,2.6c0.2,0.2,0.4,0.4,0.5,0.5c0.1-0.8,0.5-2,1.1-3.1c1.2-2.1,3.9-4.7,9.9-5.4
			c0.3,0,0.6,0.1,0.8,0.3c0.2,0.2,0.3,0.5,0.3,0.8c0,0.2-0.2,4.6-3.5,7.5c-1.7,1.6-4,2.4-6.7,2.4v2.4c0,0.1,0,0.2,0,0.3v6.5
			c7.3-0.6,13.1-6.7,13.1-14.2c0-7.9-6.4-14.3-14.3-14.3c-2.9,0-5.6,0.8-8,2.4c-0.5,0.3-1.1,0.2-1.5-0.3c-0.3-0.5-0.2-1.1,0.3-1.5
			c2.7-1.8,5.9-2.8,9.1-2.8C371.9,210.6,379.3,218,379.3,227z M364.1,230c2.1,0,3.9-0.7,5.2-1.8c1.6-1.4,2.3-3.5,2.6-4.8
			c-3.3,0.6-5.7,2-6.9,4.2C364.5,228.5,364.2,229.3,364.1,230z M361.8,233.7c-0.2-0.8-0.6-2-1.7-3c-0.9-0.8-3-1.6-4.3-1.9
			c0.3,1,0.8,2.4,2,3.5C358.9,233.1,360.2,233.6,361.8,233.7z M369.3,242.1c-2,0.8-4.1,1.3-6.4,1.3c-2.3,0-4.6-0.5-6.6-1.4v5.1
			c0,3.2,2.6,5.8,5.8,5.8h1.4c2.7,0,5.1-1.9,5.6-4.5h-6.4c-0.6,0-1-0.5-1-1c0-0.6,0.5-1,1-1h6.6V242.1z M359.1,246.6L359.1,246.6
			c-0.5-0.3-1.2-0.2-1.5,0.3c-0.3,0.5-0.2,1.1,0.3,1.4l0,0c0.2,0.1,0.4,0.2,0.6,0.2c0.3,0,0.7-0.2,0.9-0.5
			C359.7,247.5,359.6,246.9,359.1,246.6z M350.9,217.8L350.9,217.8c0.2,0.1,0.4,0.2,0.6,0.2c0.3,0,0.7-0.2,0.9-0.5
			c0.3-0.5,0.2-1.1-0.3-1.4l0,0c-0.5-0.3-1.1-0.2-1.4,0.3C350.2,216.8,350.4,217.4,350.9,217.8z"/>
	</g>
	<g>
		<circle class="st3" cx="498" cy="224" r="35"/>
		<path class="st6" d="M468.9,274.4c0.3,0.4,0.2,1.1-0.2,1.4c-0.2,0.1-0.4,0.2-0.6,0.2c-0.3,0-0.6-0.1-0.8-0.4l-1.5-2.1
			c-0.3-0.4-0.2-1.1,0.2-1.4c0.4-0.3,1.1-0.2,1.4,0.2L468.9,274.4z M478.8,267c-0.8-3.8-3-7.1-6.2-9.2l-3.5-2.3
			c-1.4-0.9-3.3-0.7-4.4,0.5v-12c0-1.6-1.1-2.9-2.6-3.3c-1-0.2-2,0-2.8,0.7c-0.8,0.6-1.2,1.6-1.2,2.6v15.4c0,2,0.6,4,1.8,5.6
			l1.8,2.5c0.2,0.3,0.5,0.4,0.8,0.4c0.2,0,0.4-0.1,0.6-0.2c0.4-0.3,0.6-0.9,0.2-1.4l-1.8-2.5c-0.9-1.3-1.4-2.9-1.4-4.5v-15.4
			c0-0.4,0.2-0.8,0.5-1c0.3-0.3,0.7-0.4,1.1-0.3c0.6,0.1,1.1,0.7,1.1,1.3v12.3c0,1.7,0.6,3.4,1.8,4.7c0,0.1,0.1,0.1,0.2,0.2
			c0.7,0.7,1.4,1.5,2.2,2.3l1,1.1c0,0,0,0,0,0c0.9,0.9,1.5,1.6,1.5,1.6c0.4,0.4,1,0.4,1.4,0c0.4-0.4,0.4-1,0-1.4
			c0,0-1.2-1.3-2.5-2.7l-2.3-2.4c0,0,0,0,0,0c-0.5-0.6-0.5-1.6,0-2.2c0.5-0.6,1.3-0.7,2-0.3l3.5,2.3c2.8,1.9,4.7,4.7,5.4,8l1.6,7.8
			c0.1,0.5,0.5,0.8,1,0.8c0.1,0,0.1,0,0.2,0c0.5-0.1,0.9-0.6,0.8-1.2L478.8,267z M465.4,269.4c-0.3-0.4-0.9-0.6-1.4-0.2
			c-0.4,0.3-0.6,0.9-0.2,1.4l0,0c0.2,0.3,0.5,0.4,0.8,0.4c0.2,0,0.4-0.1,0.6-0.2C465.6,270.5,465.7,269.9,465.4,269.4L465.4,269.4z
			 M507.8,241.3c-0.8-0.6-1.8-0.9-2.8-0.7c-1.5,0.3-2.6,1.7-2.6,3.3v12c-1.2-1.2-3-1.4-4.4-0.5l-3.5,2.3c-3.2,2.2-5.4,5.4-6.2,9.2
			l-1.6,7.8c-0.1,0.5,0.2,1.1,0.8,1.2c0.1,0,0.1,0,0.2,0c0.5,0,0.9-0.3,1-0.8l1.6-7.8c0.7-3.3,2.6-6.1,5.4-8l3.5-2.3
			c0.6-0.4,1.5-0.3,2,0.3c0.6,0.6,0.6,1.6,0,2.2c0,0,0,0,0,0c0,0-4.8,5.1-4.8,5.1c-0.4,0.4-0.4,1,0,1.4c0.4,0.4,1,0.4,1.4,0
			c0,0,4.1-4.3,4.7-5c0.1-0.1,0.1-0.1,0.2-0.2c1.2-1.3,1.8-2.9,1.8-4.7v-12.3c0-0.6,0.4-1.2,1.1-1.3c0.4-0.1,0.8,0,1.1,0.3
			c0.3,0.3,0.5,0.6,0.5,1v15.4c0,1.6-0.5,3.2-1.4,4.5l-7.5,10.6c-0.3,0.4-0.2,1.1,0.2,1.4c0.2,0.1,0.4,0.2,0.6,0.2
			c0.3,0,0.6-0.1,0.8-0.4l7.5-10.6c1.2-1.7,1.8-3.6,1.8-5.6v-15.4C509,242.9,508.5,242,507.8,241.3z M487.1,256.4c-0.6,0-1-0.4-1-1
			c0-0.6,0.4-1,1-1h1.1v-2.1c0-0.6,0.4-1,1-1c0.6,0,1,0.4,1,1v2.1h2v-2.6c0-1.9-1.3-3.6-3.2-4l-2.7-0.7l-1.8,4.2
			c-0.2,0.4-0.5,0.6-0.9,0.6h0c-0.4,0-0.8-0.2-0.9-0.6l-1.8-4.2l-2.7,0.7c-1.9,0.4-3.2,2.1-3.2,4v2.6h2v-2.1c0-0.6,0.4-1,1-1
			c0.6,0,1,0.4,1,1v2.1h1c0.6,0,1,0.4,1,1c0,0.6-0.4,1-1,1h-6c-0.6,0-1-0.4-1-1v-3.6c0-0.1,0-0.2,0-0.4h-4.6c-0.6,0-1-0.4-1-1v-1.9
			c0-2.2,1.5-4,3.6-4.6l1.8-0.4v-0.3c-1.2-0.8-1.9-2.1-1.9-3.7v-2.2v-0.2c0-2.5,2-4.5,4.5-4.5c1.1,0,2.1,0.4,2.9,1.1
			c0.9-2.1,3-3.6,5.4-3.6c2.4,0,4.5,1.5,5.4,3.6c0.8-0.7,1.8-1.1,2.9-1.1c2.5,0,4.5,2,4.5,4.5v2.3c0,1.5-0.8,2.8-1.9,3.7v0.3
			l1.8,0.4c2.1,0.5,3.6,2.4,3.6,4.6v1.9c0,0.6-0.4,1-1,1h-4.6c0,0.1,0,0.2,0,0.4v3.6c0,0.6-0.4,1-1,1H487.1z M489.5,236.4
			c1,0.5,2.2,0.8,3.3,0.8h1.4c-0.1-1.3-1.2-2.3-2.5-2.3C490.8,234.9,489.9,235.5,489.5,236.4z M489.3,239.7c0,1.4,1.1,2.5,2.5,2.5
			s2.5-1.1,2.5-2.5v-0.5h-1.4c-1.2,0-2.4-0.2-3.5-0.7v0.9c0,0,0,0.1,0,0.1V239.7z M479.7,236.4h1.4c1.3,0,2.5-0.6,3.3-1.5
			c0.3-0.4,0.8-0.5,1.3-0.2l1.7,1c-0.3-1.8-1.9-3.2-3.8-3.2c-2.1,0-3.8,1.7-3.8,3.8V236.4z M472.8,237.2h1.4c1.2,0,2.3-0.3,3.3-0.8
			c-0.4-0.9-1.3-1.5-2.3-1.5C473.9,234.9,472.8,235.9,472.8,237.2z M472.8,239.7c0,1.4,1.1,2.5,2.5,2.5c1.4,0,2.5-1.1,2.5-2.5v-1.2
			c-1.1,0.5-2.3,0.7-3.5,0.7h-1.4V239.7z M478.1,245.8l-1.5-0.4c-0.1,0-0.2-0.1-0.4-0.1c-0.3-0.2-0.5-0.5-0.5-0.8c0,0,0,0,0,0v-0.3
			c-0.2,0-0.4,0-0.6,0c-0.2,0-0.4,0-0.6,0v0.3c0,0.5-0.3,0.9-0.8,1l-2.5,0.6c-1.2,0.3-2.1,1.4-2.1,2.6v0.9h4
			c0.7-1.8,2.3-3.1,4.2-3.6L478.1,245.8z M480.3,244.3c-0.7-0.4-1.3-1-1.7-1.7c-0.3,0.3-0.5,0.6-0.9,0.8v0.3l1.8,0.4
			C479.8,244.2,480.1,244.2,480.3,244.3L480.3,244.3z M484.7,245.1c-0.4,0.1-0.8,0.1-1.2,0.1c-0.4,0-0.8,0-1.2-0.1v0.7l1.2,2.7
			l1.2-2.7V245.1z M487.3,239.6v-1.6l-2.1-1.2c-1.2,1-2.7,1.6-4.2,1.6h-1.4v1.1c0,2.1,1.7,3.8,3.8,3.8
			C485.6,243.2,487.3,241.6,487.3,239.6z M487.5,244.1l1.8-0.4v-0.3c-0.3-0.2-0.6-0.5-0.9-0.8c-0.4,0.7-1,1.3-1.7,1.7v0.1
			C486.9,244.2,487.2,244.2,487.5,244.1z M493.7,249.5h4.1v-0.9c0-1.2-0.8-2.3-2.1-2.6l-2.5-0.6c-0.4-0.1-0.8-0.5-0.8-1v-0.3
			c-0.2,0-0.4,0-0.6,0c-0.2,0-0.4,0-0.6,0v0.3c0,0,0,0,0,0c0,0.3-0.2,0.6-0.5,0.8c-0.1,0.1-0.2,0.1-0.4,0.1l-1.5,0.4l0.5,0.1
			C491.4,246.4,492.9,247.7,493.7,249.5z M483.5,254.5c-0.3,0-0.5,0.1-0.7,0.3c-0.2,0.2-0.3,0.4-0.3,0.7c0,0.3,0.1,0.5,0.3,0.7
			c0.2,0.2,0.4,0.3,0.7,0.3c0.3,0,0.5-0.1,0.7-0.3c0.2-0.2,0.3-0.4,0.3-0.7c0-0.3-0.1-0.5-0.3-0.7
			C484,254.6,483.8,254.5,483.5,254.5z M483.5,228.5c0.6,0,1-0.4,1-1V226c0-0.6-0.4-1-1-1c-0.6,0-1,0.4-1,1v1.5
			C482.5,228,482.9,228.5,483.5,228.5z M478.4,229.7c0.2,0.2,0.4,0.3,0.7,0.3c0.3,0,0.5-0.1,0.7-0.3c0.4-0.4,0.4-1,0-1.4l-1-1
			c-0.4-0.4-1-0.4-1.4,0c-0.4,0.4-0.4,1,0,1.4L478.4,229.7z M487.9,230c0.3,0,0.5-0.1,0.7-0.3l1-1c0.4-0.4,0.4-1,0-1.4
			c-0.4-0.4-1-0.4-1.4,0l-1,1c-0.4,0.4-0.4,1,0,1.4C487.3,229.9,487.6,230,487.9,230z"/>
	</g>
	<g>
		<path class="st4" d="M361.5,122.5v-2V116c-78.7,0-146.2-47.8-175-116h-74.6c27.2,57.4,99.4,170.1,249.6,176v-5.7v-2V122.5z"/>
		<g>
			<path class="st7" d="M387.1,127c0.1-0.4,0.5-0.6,0.8-0.6l-2-18.3c-9.2,4.8-10.6,12.4-10.7,13.6c-0.1,0.5-0.5,0.9-1,0.9h-12.7
				v45.7h12.9c0-0.4,0.1-0.7,0.1-1.1c-0.5,0.1-1,0.1-1.6,0.1c-1.9-0.1-3.8-0.9-5.3-2.2c-1.5-1.4-2.6-3.1-2.9-5
				c-0.3-1.9,0.1-3.7,1.3-5.1l23.2-26.2c-0.5-0.2-1.1-0.4-1.6-0.6C387.1,128.1,386.9,127.5,387.1,127z"/>
			<path class="st7" d="M458.9,110.3c-3.1-5.1-9.9-10.3-18.5-10.3h-23.8c-2.8,0-4.7,0.6-5.9,1.7c1.8,0,3.2,0.1,3.6,0.1
				c5.1,0.7,9,4.3,9,4.3l22.6,22.6c1.1,1.1,1.1,2.6-0.1,4c-2,2.3-7.1,4.5-12.3,4.5c-3,0-6.1-0.7-8.6-2.6c0,0-0.1-0.1-0.1-0.1
				l-14.2-14.1c-1,2.3-3.3,6-7.9,8.1c-3.4,1.6-7.2,1.8-11.3,0.8l-23.8,26.9c-0.8,0.9-1.1,2.1-0.8,3.4c0.2,1.4,1,2.8,2.2,3.8
				c1.2,1.1,2.6,1.7,4.1,1.7c1.4,0.1,2.5-0.4,3.3-1.3l18.9-21.2c0.4-0.4,1-0.4,1.4-0.1c0.4,0.4,0.4,1,0.1,1.4L377.2,166
				c-0.8,0.9-1.1,2.1-0.8,3.4c0.2,1.4,1,2.8,2.2,3.8c2.4,2.1,5.7,2.3,7.3,0.5l21.5-24.4c0.3-0.3,0.7-0.4,1.1-0.3
				c0.4,0.1,0.6,0.5,0.7,0.8l0,0.2c0,0.3-0.1,0.6-0.2,0.8l-22.3,25.1c-0.8,0.9-1.1,2.1-0.8,3.4c0.2,1.4,1,2.8,2.2,3.8
				c1.2,1.1,2.6,1.7,4.1,1.7c1.3,0.1,2.5-0.4,3.3-1.3l17.4-19.7c0-2.8,1.3-5.5,3.7-7.2c1.9-1.4,4.3-1.9,6.6-1.5
				c1.2,0.2,2.3,0.6,3.3,1.3c-0.2-3,1.1-5.9,3.7-7.8c4-2.8,9.5-1.9,12.4,2.1l0.9,1.3c0-0.2,0.1-0.4,0.1-0.6c0.5-2,1.7-3.9,3.5-5.1
				c3.7-2.6,8.7-2,11.1,1.4l4.6,6.6h6.7v-43.5h-9.7C459.4,110.8,459.1,110.6,458.9,110.3z"/>
			<path class="st7" d="M413.7,168.2c0.1,0,0.2,0,0.3,0.1c-0.3-0.5-0.5-1-0.7-1.5l-1.3,1.4C412.6,168.1,413.2,168.1,413.7,168.2z"/>
			<path class="st7" d="M401.1,183c0.2,1.4,1,2.8,2.2,3.8c1.2,1.1,2.6,1.7,4.1,1.7c1.3,0,2.5-0.4,3.3-1.3l0.8-0.9l-5.1-7.1
				c-0.7-1-1.1-2.2-1.2-3.4l-3.3,3.7C401.2,180.4,400.9,181.6,401.1,183z"/>
			<path class="st7" d="M456.5,148.9c-1-1.4-2.7-2.2-4.4-2.2c-1.3,0-2.7,0.4-3.8,1.2c-1.4,1-2.3,2.4-2.7,3.9c-0.3,1.5-0.1,3,0.8,4.2
				c0,0,0,0,0,0l6.1,8.6c0.8,1.2,2.2,2,3.7,2.1c1.6,0.2,3.2-0.2,4.6-1.2c2.8-2,3.6-5.6,1.9-8.1L456.5,148.9z"/>
			<path class="st7" d="M443.3,175.4c1.8,0.3,3.6-0.1,5.1-1.2c1.5-1.1,2.5-2.6,2.8-4.5c0.3-1.8-0.1-3.6-1.2-5.1l-9.1-12.8
				c-1.3-1.9-3.5-2.9-5.6-2.9c-1.4,0-2.8,0.4-4,1.3c-3.1,2.2-3.8,6.5-1.6,9.6l9.1,12.8C439.9,174.1,441.4,175.1,443.3,175.4z"/>
			<path class="st7" d="M427.3,159.9c-1.1-1.5-2.6-2.5-4.4-2.8c-0.4-0.1-0.8-0.1-1.2-0.1c-1.4,0-2.8,0.4-4,1.3
				c-3.1,2.2-3.8,6.5-1.6,9.6l9.9,13.9c1.1,1.5,2.6,2.5,4.5,2.8c1.8,0.3,3.6-0.1,5.1-1.2c3.1-2.2,3.8-6.5,1.6-9.6L427.3,159.9z"/>
			<path class="st7" d="M416.6,172c-0.7-1-1.9-1.7-3.2-1.9c-0.2,0-0.5,0-0.7,0c-1.1,0-2.2,0.4-3.2,1c-2.4,1.7-3.1,4.8-1.5,6.9
				l8.9,12.6c1.5,2.2,4.7,2.5,7.1,0.9c1.2-0.8,2-2,2.2-3.3c0.3-1.3,0-2.6-0.7-3.6L416.6,172z"/>
			<path class="st7" d="M388.4,126.4c5.1,2,9.6,2.2,13.4,0.4c4-1.9,6.5-5.6,7.4-8.4c0.1-0.3,0.4-0.6,0.7-0.7c0.3-0.1,0.7,0,0.9,0.3
				c0.2,0.2,0.3,0.3,0.4,0.4l14.8,14.7c5.9,4.3,15.6,1.4,18.2-1.6c0.7-0.8,0.4-1.1,0.3-1.3l-22.6-22.6c0,0-3.4-3.1-7.9-3.8
				c-1.2-0.2-10.7-0.1-16.7-0.1c-0.8,0-3.3,0.3-11.1,4.2c-0.1,0.1-0.2,0.1-0.3,0.1l0,0l2,18.3C388.1,126.3,388.2,126.3,388.4,126.4z
				"/>
		</g>
		<g>
			<path class="st6" d="M729.5,279.5c-0.4,0-0.7-0.2-0.9-0.6l-0.4-0.9c-0.2-0.5,0-1.1,0.5-1.3c0.5-0.2,1.1,0,1.3,0.5l0.4,0.9
				c0.2,0.5,0,1.1-0.5,1.3C729.7,279.5,729.6,279.5,729.5,279.5z M727.3,275c-0.4,0-0.7-0.2-0.9-0.6l-0.4-0.9
				c-0.2-0.5,0-1.1,0.5-1.3c0.5-0.2,1.1,0,1.3,0.5l0.4,0.9c0.2,0.5,0,1.1-0.5,1.3C727.6,275,727.5,275,727.3,275z M725.1,270.5
				c-0.4,0-0.7-0.2-0.9-0.6l-0.4-0.9c-0.2-0.5,0-1.1,0.4-1.3c0.5-0.2,1.1,0,1.3,0.4l0.4,0.9c0.2,0.5,0,1.1-0.4,1.3
				C725.4,270.5,725.3,270.5,725.1,270.5z M722.9,266.1c-0.4,0-0.7-0.2-0.9-0.5l-0.5-0.9c-0.3-0.5-0.1-1.1,0.4-1.3
				c0.5-0.3,1.1-0.1,1.3,0.4l0.5,0.9c0.3,0.5,0.1,1.1-0.4,1.3C723.2,266,723,266.1,722.9,266.1z M720.5,261.6
				c-0.4,0-0.7-0.2-0.9-0.5l-0.5-0.9c-0.3-0.5-0.1-1.1,0.4-1.4c0.5-0.3,1.1-0.1,1.4,0.4l0.5,0.9c0.3,0.5,0.1,1.1-0.4,1.4
				C720.9,261.6,720.7,261.6,720.5,261.6z M718.2,257.2c-0.4,0-0.7-0.2-0.9-0.5l-0.5-0.9c-0.3-0.5-0.1-1.1,0.4-1.4
				c0.5-0.3,1.1-0.1,1.4,0.4l0.5,0.9c0.3,0.5,0.1,1.1-0.4,1.4C718.5,257.2,718.3,257.2,718.2,257.2z M715.7,252.9
				c-0.3,0-0.7-0.2-0.9-0.5l-0.5-0.9c-0.3-0.5-0.1-1.1,0.4-1.4c0.5-0.3,1.1-0.1,1.4,0.4l0.5,0.9c0.3,0.5,0.1,1.1-0.4,1.4
				C716.1,252.8,715.9,252.9,715.7,252.9z M713.3,248.5c-0.3,0-0.7-0.2-0.9-0.5l-0.5-0.9c-0.3-0.5-0.1-1.1,0.4-1.4
				c0.5-0.3,1.1-0.1,1.4,0.4l0.5,0.9c0.3,0.5,0.1,1.1-0.4,1.4C713.6,248.5,713.4,248.5,713.3,248.5z M710.7,244.2
				c-0.3,0-0.7-0.2-0.9-0.5l-0.5-0.9c-0.3-0.5-0.1-1.1,0.3-1.4c0.5-0.3,1.1-0.1,1.4,0.3l0.5,0.9c0.3,0.5,0.1,1.1-0.3,1.4
				C711.1,244.2,710.9,244.2,710.7,244.2z M708.1,239.9c-0.3,0-0.7-0.2-0.9-0.5l-0.5-0.8c-0.3-0.5-0.1-1.1,0.3-1.4
				c0.5-0.3,1.1-0.1,1.4,0.3l0.5,0.9c0.3,0.5,0.1,1.1-0.3,1.4C708.5,239.9,708.3,239.9,708.1,239.9z M705.5,235.7
				c-0.3,0-0.7-0.2-0.8-0.5l-0.5-0.8c-0.3-0.5-0.2-1.1,0.3-1.4c0.5-0.3,1.1-0.2,1.4,0.3l0.5,0.8c0.3,0.5,0.2,1.1-0.3,1.4
				C705.8,235.7,705.6,235.7,705.5,235.7z M702.7,231.5c-0.3,0-0.6-0.2-0.8-0.5l-0.5-0.8c-0.3-0.5-0.2-1.1,0.3-1.4
				c0.5-0.3,1.1-0.2,1.4,0.3l0.6,0.8c0.3,0.5,0.2,1.1-0.3,1.4C703.1,231.5,702.9,231.5,702.7,231.5z M700,227.3
				c-0.3,0-0.6-0.2-0.8-0.4l-0.6-0.8c-0.3-0.5-0.2-1.1,0.3-1.4c0.5-0.3,1.1-0.2,1.4,0.3l0.6,0.8c0.3,0.5,0.2,1.1-0.3,1.4
				C700.3,227.3,700.2,227.3,700,227.3z M697.1,223.2c-0.3,0-0.6-0.1-0.8-0.4l-0.6-0.8c-0.3-0.5-0.2-1.1,0.2-1.4
				c0.5-0.3,1.1-0.2,1.4,0.2l0.6,0.8c0.3,0.5,0.2,1.1-0.2,1.4C697.5,223.2,697.3,223.2,697.1,223.2z M694.2,219.1
				c-0.3,0-0.6-0.1-0.8-0.4l-0.6-0.8c-0.3-0.4-0.2-1.1,0.2-1.4c0.4-0.3,1.1-0.2,1.4,0.2l0.6,0.8c0.3,0.4,0.2,1.1-0.2,1.4
				C694.6,219.1,694.4,219.1,694.2,219.1z M691.3,215.1c-0.3,0-0.6-0.1-0.8-0.4l-0.6-0.8c-0.3-0.4-0.2-1.1,0.2-1.4
				c0.4-0.3,1.1-0.2,1.4,0.2l0.6,0.8c0.3,0.4,0.2,1.1-0.2,1.4C691.7,215,691.5,215.1,691.3,215.1z M688.3,211.1
				c-0.3,0-0.6-0.1-0.8-0.4l-0.6-0.8c-0.3-0.4-0.3-1.1,0.2-1.4c0.4-0.3,1.1-0.3,1.4,0.2l0.6,0.8c0.3,0.4,0.2,1.1-0.2,1.4
				C688.7,211,688.5,211.1,688.3,211.1z M685.2,207.2c-0.3,0-0.6-0.1-0.8-0.4l-0.6-0.8c-0.3-0.4-0.3-1.1,0.2-1.4
				c0.4-0.3,1.1-0.3,1.4,0.2l0.6,0.8c0.3,0.4,0.3,1.1-0.2,1.4C685.7,207.1,685.4,207.2,685.2,207.2z M682.1,203.2
				c-0.3,0-0.6-0.1-0.8-0.4l-0.6-0.8c-0.3-0.4-0.3-1.1,0.1-1.4c0.4-0.3,1.1-0.3,1.4,0.1l0.6,0.8c0.3,0.4,0.3,1.1-0.2,1.4
				C682.6,203.2,682.3,203.2,682.1,203.2z M678.9,199.4c-0.3,0-0.6-0.1-0.8-0.4l-0.6-0.8c-0.4-0.4-0.3-1.1,0.1-1.4
				c0.4-0.4,1.1-0.3,1.4,0.1l0.6,0.8c0.4,0.4,0.3,1.1-0.1,1.4C679.4,199.3,679.2,199.4,678.9,199.4z M675.7,195.6
				c-0.3,0-0.6-0.1-0.8-0.3l-0.7-0.8c-0.4-0.4-0.3-1,0.1-1.4c0.4-0.4,1-0.3,1.4,0.1l0.7,0.8c0.4,0.4,0.3,1-0.1,1.4
				C676.2,195.5,675.9,195.6,675.7,195.6z M672.4,191.8c-0.3,0-0.6-0.1-0.7-0.3l-0.7-0.7c-0.4-0.4-0.3-1,0.1-1.4
				c0.4-0.4,1-0.3,1.4,0.1l0.7,0.7c0.4,0.4,0.3,1-0.1,1.4C672.9,191.7,672.7,191.8,672.4,191.8z M669.1,188.1
				c-0.3,0-0.5-0.1-0.7-0.3l-0.7-0.7c-0.4-0.4-0.3-1,0.1-1.4c0.4-0.4,1-0.3,1.4,0.1l0.7,0.7c0.4,0.4,0.3,1-0.1,1.4
				C669.6,188,669.3,188.1,669.1,188.1z M665.7,184.4c-0.3,0-0.5-0.1-0.7-0.3l-0.7-0.7c-0.4-0.4-0.4-1,0-1.4s1-0.4,1.4,0l0.7,0.7
				c0.4,0.4,0.4,1,0,1.4C666.2,184.3,665.9,184.4,665.7,184.4z M662.2,180.8c-0.3,0-0.5-0.1-0.7-0.3l-0.7-0.7c-0.4-0.4-0.4-1,0-1.4
				c0.4-0.4,1-0.4,1.4,0l0.7,0.7c0.4,0.4,0.4,1,0,1.4C662.7,180.7,662.5,180.8,662.2,180.8z M658.7,177.2c-0.3,0-0.5-0.1-0.7-0.3
				l-0.7-0.7c-0.4-0.4-0.4-1,0-1.4c0.4-0.4,1-0.4,1.4,0l0.7,0.7c0.4,0.4,0.4,1,0,1.4C659.2,177.1,659,177.2,658.7,177.2z"/>
			<path class="st6" d="M575.1,119.1c-0.1,0-0.3,0-0.4-0.1l0.3-0.9l0.4-0.9l-0.4,0.9l0.5-0.9c0.5,0.2,0.7,0.8,0.5,1.3
				C575.8,118.9,575.5,119.1,575.1,119.1z M571.4,117.5c-0.1,0-0.3,0-0.4-0.1L570,117c-0.5-0.2-0.7-0.8-0.5-1.3
				c0.2-0.5,0.8-0.7,1.3-0.5l0.9,0.4c0.5,0.2,0.7,0.8,0.5,1.3C572.1,117.2,571.7,117.5,571.4,117.5z"/>
			<path class="st6" d="M562.9,114c-0.1,0-0.2,0-0.4-0.1l-0.3-0.1c-0.5-0.2-0.8-0.8-0.6-1.3c0.2-0.5,0.8-0.8,1.3-0.6l0.3,0.1
				c0.5,0.2,0.8,0.8,0.6,1.3C563.7,113.7,563.3,114,562.9,114z M558.9,112.4c-0.1,0-0.2,0-0.3-0.1l-0.9-0.3
				c-0.5-0.2-0.8-0.8-0.6-1.3c0.2-0.5,0.8-0.8,1.3-0.6l0.9,0.3c0.5,0.2,0.8,0.8,0.6,1.3C559.6,112.2,559.3,112.4,558.9,112.4z
				 M554.2,110.7c-0.1,0-0.2,0-0.3-0.1l-0.9-0.3c-0.5-0.2-0.8-0.8-0.6-1.3c0.2-0.5,0.7-0.8,1.3-0.6l0.9,0.3c0.5,0.2,0.8,0.8,0.6,1.3
				C555,110.5,554.6,110.7,554.2,110.7z M549.4,109.1c-0.1,0-0.2,0-0.3-0.1l-0.9-0.3c-0.5-0.2-0.8-0.7-0.6-1.3s0.7-0.8,1.3-0.6
				l1,0.3c0.5,0.2,0.8,0.7,0.6,1.3C550.2,108.9,549.8,109.1,549.4,109.1z M544.7,107.6c-0.1,0-0.2,0-0.3,0l-1-0.3
				c-0.5-0.2-0.8-0.7-0.7-1.2c0.2-0.5,0.7-0.8,1.2-0.7l1,0.3c0.5,0.2,0.8,0.7,0.7,1.3C545.5,107.3,545.1,107.6,544.7,107.6z
				 M539.9,106.2c-0.1,0-0.2,0-0.3,0l-1-0.3c-0.5-0.2-0.8-0.7-0.7-1.2c0.2-0.5,0.7-0.8,1.2-0.7l1,0.3c0.5,0.2,0.8,0.7,0.7,1.2
				C540.7,105.9,540.3,106.2,539.9,106.2z M535.1,104.8c-0.1,0-0.2,0-0.3,0l-1-0.3c-0.5-0.1-0.9-0.7-0.7-1.2
				c0.1-0.5,0.7-0.8,1.2-0.7l1,0.3c0.5,0.1,0.8,0.7,0.7,1.2C535.9,104.5,535.5,104.8,535.1,104.8z M530.2,103.5c-0.1,0-0.2,0-0.2,0
				l-1-0.2c-0.5-0.1-0.9-0.7-0.7-1.2c0.1-0.5,0.7-0.9,1.2-0.7l1,0.2c0.5,0.1,0.9,0.7,0.7,1.2C531.1,103.2,530.7,103.5,530.2,103.5z
				 M525.4,102.4c-0.1,0-0.2,0-0.2,0l-1-0.2c-0.5-0.1-0.9-0.7-0.8-1.2c0.1-0.5,0.7-0.9,1.2-0.8l1,0.2c0.5,0.1,0.9,0.7,0.7,1.2
				C526.2,102,525.8,102.4,525.4,102.4z M520.5,101.3c-0.1,0-0.1,0-0.2,0l-1-0.2c-0.5-0.1-0.9-0.6-0.8-1.2c0.1-0.5,0.6-0.9,1.2-0.8
				l1,0.2c0.5,0.1,0.9,0.6,0.8,1.2C521.3,101,520.9,101.3,520.5,101.3z M515.6,100.3c-0.1,0-0.1,0-0.2,0l-1-0.2
				c-0.5-0.1-0.9-0.6-0.8-1.2c0.1-0.5,0.6-0.9,1.2-0.8l1,0.2c0.5,0.1,0.9,0.6,0.8,1.2C516.5,99.9,516,100.3,515.6,100.3z
				 M510.6,99.4c-0.1,0-0.1,0-0.2,0l-1-0.2c-0.5-0.1-0.9-0.6-0.8-1.2s0.6-0.9,1.2-0.8l1,0.2c0.5,0.1,0.9,0.6,0.8,1.2
				C511.5,99,511.1,99.4,510.6,99.4z M505.7,98.5c-0.1,0-0.1,0-0.2,0l-1-0.2c-0.5-0.1-0.9-0.6-0.8-1.1s0.6-0.9,1.1-0.8l1,0.2
				c0.5,0.1,0.9,0.6,0.8,1.1C506.6,98.2,506.2,98.5,505.7,98.5z M500.8,97.8c0,0-0.1,0-0.1,0l-1-0.1c-0.5-0.1-0.9-0.6-0.9-1.1
				c0.1-0.5,0.6-0.9,1.1-0.9l1,0.1c0.5,0.1,0.9,0.6,0.9,1.1C501.7,97.4,501.3,97.8,500.8,97.8z M495.8,97.1c0,0-0.1,0-0.1,0l-1-0.1
				c-0.5-0.1-0.9-0.6-0.9-1.1c0.1-0.5,0.6-0.9,1.1-0.9l1,0.1c0.5,0.1,0.9,0.6,0.9,1.1C496.7,96.8,496.3,97.1,495.8,97.1z
				 M490.8,96.5c0,0-0.1,0-0.1,0l-1-0.1c-0.5-0.1-0.9-0.5-0.9-1.1c0.1-0.5,0.5-0.9,1.1-0.9l1,0.1c0.5,0.1,0.9,0.6,0.9,1.1
				C491.8,96.2,491.3,96.5,490.8,96.5z M485.8,96C485.8,96,485.8,96,485.8,96l-1.1-0.1c-0.5,0-1-0.5-0.9-1.1s0.5-0.9,1.1-0.9l1,0.1
				c0.6,0,1,0.5,0.9,1.1C486.8,95.7,486.4,96,485.8,96z M480.9,95.6C480.8,95.6,480.8,95.6,480.9,95.6l-1.1-0.1
				c-0.6,0-1-0.5-0.9-1.1c0-0.6,0.5-1,1.1-0.9l1,0.1c0.6,0,1,0.5,0.9,1.1C481.8,95.2,481.4,95.6,480.9,95.6z M475.9,95.3
				C475.8,95.3,475.8,95.3,475.9,95.3l-1.1-0.1c-0.6,0-1-0.5-0.9-1.1c0-0.6,0.5-1,1.1-0.9l1,0.1c0.6,0,1,0.5,0.9,1.1
				C476.8,94.9,476.4,95.3,475.9,95.3z M470.9,95C470.8,95,470.8,95,470.9,95l-1,0c-0.6,0-1-0.5-1-1c0-0.5,0.5-1,1-1c0,0,0,0,0,0
				l1,0c0.6,0,1,0.5,1,1C471.8,94.6,471.4,95,470.9,95z"/>
			<path class="st6" d="M501.9,177.9c-0.1,0-0.1,0-0.2,0l-1-0.2c-0.5-0.1-0.9-0.6-0.8-1.2c0.1-0.5,0.6-0.9,1.2-0.8l1,0.2
				c0.5,0.1,0.9,0.6,0.8,1.2C502.8,177.6,502.4,177.9,501.9,177.9z M497,177.1c0,0-0.1,0-0.2,0l-0.7-0.1c-0.5-0.1-0.9-0.6-0.8-1.1
				c0.1-0.5,0.6-0.9,1.1-0.8l0.8,0.1c0.5,0.1,0.9,0.6,0.8,1.1C497.9,176.7,497.5,177.1,497,177.1z"/>
			<path class="st6" d="M610,242.5c-0.3,0-0.6-0.1-0.8-0.4l-0.6-0.8c-0.3-0.4-0.3-1.1,0.1-1.4c0.4-0.3,1.1-0.3,1.4,0.1l0.6,0.8
				c0.3,0.4,0.3,1.1-0.2,1.4C610.5,242.4,610.3,242.5,610,242.5z M606.9,238.6c-0.3,0-0.6-0.1-0.8-0.4l-0.6-0.8
				c-0.4-0.4-0.3-1.1,0.1-1.4c0.4-0.4,1.1-0.3,1.4,0.1l0.7,0.8c0.4,0.4,0.3,1.1-0.1,1.4C607.3,238.6,607.1,238.6,606.9,238.6z
				 M603.6,234.9c-0.3,0-0.5-0.1-0.7-0.3l-0.7-0.7c-0.4-0.4-0.3-1,0.1-1.4c0.4-0.4,1-0.3,1.4,0.1l0.7,0.7c0.4,0.4,0.3,1-0.1,1.4
				C604,234.8,603.8,234.9,603.6,234.9z M600.2,231.2c-0.3,0-0.5-0.1-0.7-0.3l-0.7-0.7c-0.4-0.4-0.4-1,0-1.4c0.4-0.4,1-0.4,1.4,0
				l0.7,0.7c0.4,0.4,0.4,1,0,1.4C600.7,231.1,600.4,231.2,600.2,231.2z M596.7,227.6c-0.3,0-0.5-0.1-0.7-0.3l-0.7-0.7
				c-0.4-0.4-0.4-1,0-1.4c0.4-0.4,1-0.4,1.4,0l0.7,0.7c0.4,0.4,0.4,1,0,1.4C597.2,227.5,596.9,227.6,596.7,227.6z M593.1,224.1
				c-0.2,0-0.5-0.1-0.7-0.3l-0.7-0.7c-0.4-0.4-0.4-1,0-1.4c0.4-0.4,1-0.4,1.4,0l0.7,0.7c0.4,0.4,0.4,1,0,1.4
				C593.6,224,593.4,224.1,593.1,224.1z M589.4,220.7c-0.2,0-0.5-0.1-0.7-0.3l-0.7-0.7c-0.4-0.4-0.5-1-0.1-1.4
				c0.4-0.4,1-0.5,1.4-0.1l0.8,0.7c0.4,0.4,0.4,1,0.1,1.4C590,220.6,589.7,220.7,589.4,220.7z M585.6,217.4c-0.2,0-0.5-0.1-0.6-0.2
				l-0.8-0.6c-0.4-0.4-0.5-1-0.1-1.4c0.4-0.4,1-0.5,1.4-0.1l0.8,0.6c0.4,0.4,0.5,1,0.1,1.4C586.2,217.3,585.9,217.4,585.6,217.4z
				 M581.8,214.3c-0.2,0-0.4-0.1-0.6-0.2l-0.8-0.6c-0.4-0.3-0.5-1-0.2-1.4c0.3-0.4,1-0.5,1.4-0.2l0.8,0.6c0.4,0.3,0.5,1,0.2,1.4
				C582.4,214.1,582.1,214.3,581.8,214.3z M577.8,211.2c-0.2,0-0.4-0.1-0.6-0.2l-0.8-0.6c-0.4-0.3-0.5-1-0.2-1.4
				c0.3-0.4,1-0.5,1.4-0.2l0.8,0.6c0.4,0.3,0.5,1,0.2,1.4C578.4,211.1,578.1,211.2,577.8,211.2z M573.8,208.2
				c-0.2,0-0.4-0.1-0.6-0.2l-0.8-0.6c-0.5-0.3-0.6-0.9-0.2-1.4c0.3-0.5,0.9-0.6,1.4-0.2l0.8,0.6c0.5,0.3,0.6,0.9,0.2,1.4
				C574.4,208.1,574.1,208.2,573.8,208.2z M569.7,205.4c-0.2,0-0.4-0.1-0.6-0.2l-0.8-0.6c-0.5-0.3-0.6-0.9-0.3-1.4
				c0.3-0.5,0.9-0.6,1.4-0.3l0.8,0.6c0.5,0.3,0.6,0.9,0.3,1.4C570.3,205.2,570,205.4,569.7,205.4z M565.5,202.7
				c-0.2,0-0.4,0-0.5-0.2l-0.8-0.5c-0.5-0.3-0.6-0.9-0.3-1.4s0.9-0.6,1.4-0.3l0.9,0.5c0.5,0.3,0.6,0.9,0.3,1.4
				C566.1,202.5,565.8,202.7,565.5,202.7z M561.2,200.1c-0.2,0-0.3,0-0.5-0.1l-0.9-0.5c-0.5-0.3-0.6-0.9-0.4-1.4
				c0.3-0.5,0.9-0.6,1.4-0.4l0.9,0.5c0.5,0.3,0.6,0.9,0.4,1.4C561.9,199.9,561.6,200.1,561.2,200.1z M556.9,197.6
				c-0.2,0-0.3,0-0.5-0.1l-0.9-0.5c-0.5-0.3-0.7-0.9-0.4-1.4c0.3-0.5,0.9-0.7,1.4-0.4l0.9,0.5c0.5,0.3,0.7,0.9,0.4,1.4
				C557.6,197.4,557.2,197.6,556.9,197.6z M552.5,195.2c-0.2,0-0.3,0-0.5-0.1l-0.9-0.5c-0.5-0.3-0.7-0.9-0.4-1.3
				c0.3-0.5,0.9-0.7,1.3-0.4l0.9,0.5c0.5,0.3,0.7,0.9,0.4,1.3C553.2,195,552.8,195.2,552.5,195.2z M548,193c-0.1,0-0.3,0-0.4-0.1
				l-0.9-0.4c-0.5-0.2-0.7-0.8-0.5-1.3c0.2-0.5,0.8-0.7,1.3-0.5l0.9,0.4c0.5,0.2,0.7,0.8,0.5,1.3C548.7,192.8,548.4,193,548,193z
				 M543.5,190.9c-0.1,0-0.3,0-0.4-0.1l-0.9-0.4c-0.5-0.2-0.7-0.8-0.5-1.3s0.8-0.7,1.3-0.5l0.9,0.4c0.5,0.2,0.7,0.8,0.5,1.3
				C544.2,190.6,543.9,190.9,543.5,190.9z M538.9,188.9c-0.1,0-0.3,0-0.4-0.1l-0.9-0.4c-0.5-0.2-0.8-0.8-0.5-1.3
				c0.2-0.5,0.8-0.7,1.3-0.5l0.9,0.4c0.5,0.2,0.8,0.8,0.5,1.3C539.7,188.6,539.3,188.9,538.9,188.9z M534.3,187
				c-0.1,0-0.2,0-0.4-0.1l-0.9-0.4c-0.5-0.2-0.8-0.8-0.6-1.3c0.2-0.5,0.8-0.8,1.3-0.6l0.9,0.4c0.5,0.2,0.8,0.8,0.6,1.3
				C535,186.8,534.7,187,534.3,187z M529.6,185.3c-0.1,0-0.2,0-0.3-0.1l-0.9-0.3c-0.5-0.2-0.8-0.7-0.6-1.3s0.7-0.8,1.3-0.6l1,0.3
				c0.5,0.2,0.8,0.8,0.6,1.3C530.4,185,530,185.3,529.6,185.3z M524.8,183.7c-0.1,0-0.2,0-0.3,0l-0.9-0.3c-0.5-0.2-0.8-0.7-0.7-1.3
				c0.2-0.5,0.7-0.8,1.3-0.7l1,0.3c0.5,0.2,0.8,0.7,0.6,1.3C525.7,183.4,525.3,183.7,524.8,183.7z M520.1,182.2c-0.1,0-0.2,0-0.3,0
				l-1-0.3c-0.5-0.2-0.8-0.7-0.7-1.2c0.2-0.5,0.7-0.8,1.2-0.7l1,0.3c0.5,0.2,0.8,0.7,0.7,1.2C520.9,181.9,520.5,182.2,520.1,182.2z
				 M515.3,180.9c-0.1,0-0.2,0-0.3,0l-1-0.2c-0.5-0.1-0.9-0.7-0.7-1.2s0.7-0.9,1.2-0.7l1,0.3c0.5,0.1,0.9,0.7,0.7,1.2
				C516.1,180.6,515.7,180.9,515.3,180.9z"/>
			<path class="st6" d="M633.6,281c-0.4,0-0.7-0.2-0.9-0.6l-0.4-0.9c-0.2-0.5,0-1.1,0.5-1.3c0.5-0.2,1.1,0,1.3,0.5l0.4,0.9
				c0.2,0.5,0,1.1-0.5,1.3C633.8,281,633.7,281,633.6,281z M631.5,276.5c-0.4,0-0.7-0.2-0.9-0.6l-0.4-0.9c-0.2-0.5,0-1.1,0.5-1.3
				c0.5-0.2,1.1,0,1.3,0.5l0.4,0.9c0.2,0.5,0,1.1-0.5,1.3C631.7,276.4,631.6,276.5,631.5,276.5z M629.2,272c-0.4,0-0.7-0.2-0.9-0.5
				l-0.5-0.9c-0.3-0.5-0.1-1.1,0.4-1.4c0.5-0.3,1.1-0.1,1.4,0.4l0.5,0.9c0.3,0.5,0.1,1.1-0.4,1.3C629.5,272,629.4,272,629.2,272z
				 M626.8,267.6c-0.4,0-0.7-0.2-0.9-0.5l-0.5-0.9c-0.3-0.5-0.1-1.1,0.4-1.4c0.5-0.3,1.1-0.1,1.4,0.4l0.5,0.9
				c0.3,0.5,0.1,1.1-0.4,1.4C627.2,267.5,627,267.6,626.8,267.6z M624.4,263.3c-0.3,0-0.7-0.2-0.9-0.5l-0.5-0.9
				c-0.3-0.5-0.1-1.1,0.3-1.4c0.5-0.3,1.1-0.1,1.4,0.3l0.5,0.9c0.3,0.5,0.1,1.1-0.4,1.4C624.7,263.2,624.5,263.3,624.4,263.3z"/>
		</g>
		<g>
			<path class="st6" d="M103.9,6.3c-0.4,0-0.7-0.2-0.9-0.6l-0.4-0.9c-0.2-0.5,0-1.1,0.5-1.3c0.5-0.2,1.1,0,1.3,0.5l0.4,0.9
				c0.2,0.5,0,1.1-0.5,1.3C104.2,6.3,104,6.3,103.9,6.3z"/>
			<path class="st6" d="M174,106.5c-0.3,0-0.5-0.1-0.7-0.3l-0.7-0.7c-0.4-0.4-0.4-1,0-1.4c0.4-0.4,1-0.4,1.4,0l0.7,0.7
				c0.4,0.4,0.4,1,0,1.4C174.5,106.4,174.3,106.5,174,106.5z M170.5,102.9c-0.3,0-0.5-0.1-0.7-0.3l-0.7-0.7c-0.4-0.4-0.4-1,0-1.4
				c0.4-0.4,1-0.4,1.4,0l0.7,0.7c0.4,0.4,0.4,1,0,1.4C171,102.8,170.7,102.9,170.5,102.9z M167,99.3c-0.3,0-0.5-0.1-0.7-0.3
				l-0.7-0.7c-0.4-0.4-0.4-1,0-1.4c0.4-0.4,1-0.4,1.4,0l0.7,0.7c0.4,0.4,0.4,1,0,1.4C167.5,99.2,167.3,99.3,167,99.3z M163.6,95.7
				c-0.3,0-0.5-0.1-0.7-0.3l-0.7-0.7c-0.4-0.4-0.3-1,0.1-1.4c0.4-0.4,1-0.3,1.4,0.1l0.7,0.7c0.4,0.4,0.3,1-0.1,1.4
				C164.1,95.6,163.8,95.7,163.6,95.7z M160.2,92c-0.3,0-0.5-0.1-0.7-0.3l-0.7-0.8c-0.4-0.4-0.3-1,0.1-1.4c0.4-0.4,1-0.3,1.4,0.1
				l0.7,0.7c0.4,0.4,0.3,1-0.1,1.4C160.7,91.9,160.5,92,160.2,92z M156.9,88.2c-0.3,0-0.6-0.1-0.8-0.3l-0.7-0.8
				c-0.4-0.4-0.3-1.1,0.1-1.4c0.4-0.4,1.1-0.3,1.4,0.1l0.7,0.8c0.4,0.4,0.3,1-0.1,1.4C157.4,88.1,157.2,88.2,156.9,88.2z
				 M153.7,84.4c-0.3,0-0.6-0.1-0.8-0.4l-0.6-0.8c-0.4-0.4-0.3-1.1,0.1-1.4s1.1-0.3,1.4,0.1l0.6,0.8c0.4,0.4,0.3,1.1-0.1,1.4
				C154.2,84.3,153.9,84.4,153.7,84.4z M150.5,80.5c-0.3,0-0.6-0.1-0.8-0.4l-0.6-0.8c-0.3-0.4-0.3-1.1,0.1-1.4
				c0.4-0.3,1.1-0.3,1.4,0.1l0.6,0.8c0.3,0.4,0.3,1.1-0.1,1.4C151,80.5,150.7,80.5,150.5,80.5z M147.4,76.6c-0.3,0-0.6-0.1-0.8-0.4
				l-0.6-0.8c-0.3-0.4-0.3-1.1,0.2-1.4c0.4-0.3,1.1-0.3,1.4,0.2l0.6,0.8c0.3,0.4,0.3,1.1-0.2,1.4C147.8,76.6,147.6,76.6,147.4,76.6z
				 M144.3,72.7c-0.3,0-0.6-0.1-0.8-0.4l-0.6-0.8c-0.3-0.4-0.2-1.1,0.2-1.4c0.4-0.3,1.1-0.3,1.4,0.2l0.6,0.8
				c0.3,0.4,0.3,1.1-0.2,1.4C144.7,72.6,144.5,72.7,144.3,72.7z M141.3,68.7c-0.3,0-0.6-0.1-0.8-0.4l-0.6-0.8
				c-0.3-0.4-0.2-1.1,0.2-1.4c0.4-0.3,1.1-0.2,1.4,0.2l0.6,0.8c0.3,0.4,0.2,1.1-0.2,1.4C141.7,68.6,141.5,68.7,141.3,68.7z
				 M138.3,64.7c-0.3,0-0.6-0.1-0.8-0.4l-0.6-0.8c-0.3-0.4-0.2-1.1,0.2-1.4c0.4-0.3,1.1-0.2,1.4,0.2l0.6,0.8
				c0.3,0.4,0.2,1.1-0.2,1.4C138.8,64.6,138.5,64.7,138.3,64.7z M135.4,60.6c-0.3,0-0.6-0.1-0.8-0.4l-0.6-0.8
				c-0.3-0.5-0.2-1.1,0.2-1.4c0.5-0.3,1.1-0.2,1.4,0.2l0.6,0.8c0.3,0.5,0.2,1.1-0.2,1.4C135.8,60.5,135.6,60.6,135.4,60.6z
				 M132.6,56.5c-0.3,0-0.6-0.2-0.8-0.4l-0.6-0.8c-0.3-0.5-0.2-1.1,0.3-1.4c0.5-0.3,1.1-0.2,1.4,0.3l0.6,0.8
				c0.3,0.5,0.2,1.1-0.3,1.4C133,56.4,132.8,56.5,132.6,56.5z M129.8,52.3c-0.3,0-0.6-0.2-0.8-0.4l-0.6-0.8
				c-0.3-0.5-0.2-1.1,0.3-1.4c0.5-0.3,1.1-0.2,1.4,0.3l0.5,0.8c0.3,0.5,0.2,1.1-0.3,1.4C130.2,52.3,130,52.3,129.8,52.3z
				 M127.1,48.1c-0.3,0-0.7-0.2-0.8-0.5l-0.5-0.8c-0.3-0.5-0.2-1.1,0.3-1.4c0.5-0.3,1.1-0.2,1.4,0.3l0.5,0.8
				c0.3,0.5,0.2,1.1-0.3,1.4C127.5,48.1,127.3,48.1,127.1,48.1z M124.4,43.9c-0.3,0-0.7-0.2-0.8-0.5l-0.5-0.9
				c-0.3-0.5-0.1-1.1,0.3-1.4s1.1-0.1,1.4,0.3l0.5,0.8c0.3,0.5,0.1,1.1-0.3,1.4C124.8,43.9,124.6,43.9,124.4,43.9z M121.8,39.7
				c-0.3,0-0.7-0.2-0.9-0.5l-0.5-0.9c-0.3-0.5-0.1-1.1,0.3-1.4c0.5-0.3,1.1-0.1,1.4,0.3l0.5,0.9c0.3,0.5,0.1,1.1-0.3,1.4
				C122.2,39.6,122,39.7,121.8,39.7z M119.2,35.4c-0.3,0-0.7-0.2-0.9-0.5l-0.5-0.9c-0.3-0.5-0.1-1.1,0.4-1.4
				c0.5-0.3,1.1-0.1,1.4,0.4l0.5,0.9c0.3,0.5,0.1,1.1-0.4,1.4C119.6,35.3,119.4,35.4,119.2,35.4z"/>
			<path class="st6" d="M261.6,165.9c-0.1,0-0.3,0-0.4-0.1l-0.9-0.4c-0.5-0.2-0.7-0.8-0.5-1.3c0.2-0.5,0.8-0.7,1.3-0.5l0.9,0.4
				c0.5,0.2,0.7,0.8,0.5,1.3C262.3,165.7,261.9,165.9,261.6,165.9z M257,163.9c-0.1,0-0.3,0-0.4-0.1l0.4-0.9l-0.4,0.9
				c-0.5-0.2-0.7-0.8-0.5-1.3c0.2-0.5,0.8-0.7,1.3-0.5c0,0,0.1,0,0.1,0c0.5,0.2,0.7,0.8,0.5,1.3C257.7,163.7,257.4,163.9,257,163.9z
				"/>
			<path class="st6" d="M362.1,188C362.1,188,362.1,188,362.1,188l-1,0c-0.6,0-1-0.5-1-1s0.5-1,1-1l1,0c0.6,0,1,0.5,1,1
				C363.1,187.6,362.7,188,362.1,188z M357.1,187.8C357.1,187.8,357.1,187.8,357.1,187.8l-1.1-0.1c-0.6,0-1-0.5-0.9-1.1
				c0-0.6,0.5-1,1.1-0.9l1,0.1c0.6,0,1,0.5,0.9,1.1C358.1,187.3,357.7,187.8,357.1,187.8z M352.1,187.4
				C352.1,187.4,352.1,187.4,352.1,187.4l-1.1-0.1c-0.6,0-1-0.5-0.9-1.1s0.5-1,1.1-0.9l1,0.1c0.6,0,1,0.5,0.9,1.1
				C353.1,187,352.7,187.4,352.1,187.4z M347.2,187C347.1,187,347.1,187,347.2,187l-1.1-0.1c-0.5-0.1-1-0.5-0.9-1.1
				c0.1-0.5,0.5-1,1.1-0.9l1,0.1c0.6,0,1,0.5,0.9,1.1C348.1,186.7,347.7,187,347.2,187z M342.2,186.6c0,0-0.1,0-0.1,0l-1-0.1
				c-0.5-0.1-0.9-0.6-0.9-1.1c0.1-0.5,0.6-0.9,1.1-0.9l1,0.1c0.5,0.1,0.9,0.5,0.9,1.1C343.1,186.2,342.7,186.6,342.2,186.6z
				 M337.2,186c0,0-0.1,0-0.1,0l-1-0.1c-0.5-0.1-0.9-0.6-0.9-1.1s0.6-0.9,1.1-0.9l1,0.1c0.5,0.1,0.9,0.6,0.9,1.1
				C338.1,185.6,337.7,186,337.2,186z M332.2,185.4c0,0-0.1,0-0.1,0l-1-0.1c-0.5-0.1-0.9-0.6-0.8-1.1c0.1-0.5,0.6-0.9,1.1-0.8l1,0.1
				c0.5,0.1,0.9,0.6,0.9,1.1C333.2,185,332.7,185.4,332.2,185.4z M327.3,184.6c-0.1,0-0.1,0-0.2,0l-1-0.2c-0.5-0.1-0.9-0.6-0.8-1.1
				c0.1-0.5,0.6-0.9,1.1-0.8l1,0.2c0.5,0.1,0.9,0.6,0.8,1.1C328.2,184.3,327.8,184.6,327.3,184.6z M322.3,183.8c-0.1,0-0.1,0-0.2,0
				l-1-0.2c-0.5-0.1-0.9-0.6-0.8-1.2c0.1-0.5,0.6-0.9,1.2-0.8l1,0.2c0.5,0.1,0.9,0.6,0.8,1.2C323.2,183.5,322.8,183.8,322.3,183.8z
				 M317.4,182.9c-0.1,0-0.1,0-0.2,0l-1-0.2c-0.5-0.1-0.9-0.6-0.8-1.2c0.1-0.5,0.6-0.9,1.2-0.8l1,0.2c0.5,0.1,0.9,0.6,0.8,1.2
				C318.3,182.6,317.9,182.9,317.4,182.9z M312.5,181.9c-0.1,0-0.1,0-0.2,0l-1-0.2c-0.5-0.1-0.9-0.6-0.8-1.2
				c0.1-0.5,0.6-0.9,1.2-0.8l1,0.2c0.5,0.1,0.9,0.6,0.8,1.2C313.4,181.6,313,181.9,312.5,181.9z M307.6,180.9c-0.1,0-0.1,0-0.2,0
				l-1-0.2c-0.5-0.1-0.9-0.7-0.7-1.2c0.1-0.5,0.7-0.9,1.2-0.7l1,0.2c0.5,0.1,0.9,0.7,0.8,1.2C308.5,180.6,308.1,180.9,307.6,180.9z
				 M302.8,179.7c-0.1,0-0.2,0-0.2,0l-1-0.2c-0.5-0.1-0.9-0.7-0.7-1.2c0.1-0.5,0.7-0.9,1.2-0.7l1,0.2c0.5,0.1,0.9,0.7,0.7,1.2
				C303.6,179.4,303.2,179.7,302.8,179.7z M297.9,178.5c-0.1,0-0.2,0-0.3,0l-1-0.3c-0.5-0.1-0.8-0.7-0.7-1.2
				c0.1-0.5,0.7-0.8,1.2-0.7l1,0.3c0.5,0.1,0.9,0.7,0.7,1.2C298.8,178.2,298.4,178.5,297.9,178.5z M293.1,177.1c-0.1,0-0.2,0-0.3,0
				l-1-0.3c-0.5-0.2-0.8-0.7-0.7-1.2c0.2-0.5,0.7-0.8,1.2-0.7l1,0.3c0.5,0.2,0.8,0.7,0.7,1.2C293.9,176.8,293.5,177.1,293.1,177.1z
				 M288.3,175.7c-0.1,0-0.2,0-0.3,0l-1-0.3c-0.5-0.2-0.8-0.7-0.7-1.3c0.2-0.5,0.7-0.8,1.3-0.7l1,0.3c0.5,0.2,0.8,0.7,0.7,1.2
				C289.1,175.4,288.7,175.7,288.3,175.7z M283.5,174.2c-0.1,0-0.2,0-0.3,0l-1-0.3c-0.5-0.2-0.8-0.7-0.6-1.3
				c0.2-0.5,0.7-0.8,1.3-0.6l0.9,0.3c0.5,0.2,0.8,0.7,0.6,1.3C284.3,173.9,283.9,174.2,283.5,174.2z M278.8,172.6
				c-0.1,0-0.2,0-0.3-0.1l-0.9-0.3c-0.5-0.2-0.8-0.8-0.6-1.3c0.2-0.5,0.8-0.8,1.3-0.6l0.9,0.3c0.5,0.2,0.8,0.8,0.6,1.3
				C279.6,172.3,279.2,172.6,278.8,172.6z M274.1,170.9c-0.1,0-0.2,0-0.3-0.1l-0.9-0.3c-0.5-0.2-0.8-0.8-0.6-1.3
				c0.2-0.5,0.8-0.8,1.3-0.6l0.9,0.3c0.5,0.2,0.8,0.8,0.6,1.3C274.9,170.7,274.5,170.9,274.1,170.9z M269.4,169.1
				c-0.1,0-0.2,0-0.4-0.1l-0.3-0.1c-0.5-0.2-0.8-0.8-0.6-1.3s0.8-0.8,1.3-0.6l0.3,0.1c0.5,0.2,0.8,0.8,0.6,1.3
				C270.2,168.9,269.8,169.1,269.4,169.1z"/>
			<path class="st6" d="M335.8,106c0,0-0.1,0-0.2,0l-0.8-0.1c-0.5-0.1-0.9-0.6-0.8-1.1c0.1-0.5,0.6-0.9,1.1-0.8l0.7,0.1
				c0.5,0.1,0.9,0.6,0.8,1.1C336.7,105.7,336.3,106,335.8,106z M331.1,105.3c-0.1,0-0.1,0-0.2,0l-1-0.2c-0.5-0.1-0.9-0.6-0.8-1.2
				c0.1-0.5,0.6-0.9,1.2-0.8l1,0.2c0.5,0.1,0.9,0.6,0.8,1.2C332,104.9,331.5,105.3,331.1,105.3z"/>
			<path class="st6" d="M317.7,102.4c-0.1,0-0.2,0-0.2,0l-1-0.3c-0.5-0.1-0.9-0.7-0.7-1.2s0.7-0.9,1.2-0.7l1,0.3
				c0.5,0.1,0.9,0.7,0.7,1.2C318.6,102.1,318.2,102.4,317.7,102.4z M312.9,101.1c-0.1,0-0.2,0-0.3,0l-1-0.3
				c-0.5-0.2-0.8-0.7-0.7-1.2c0.2-0.5,0.7-0.8,1.2-0.7l1,0.3c0.5,0.2,0.8,0.7,0.7,1.2C313.7,100.8,313.3,101.1,312.9,101.1z
				 M308.1,99.6c-0.1,0-0.2,0-0.3,0l-1-0.3c-0.5-0.2-0.8-0.7-0.6-1.3c0.2-0.5,0.7-0.8,1.3-0.6l0.9,0.3c0.5,0.2,0.8,0.7,0.6,1.3
				C308.9,99.4,308.5,99.6,308.1,99.6z M303.4,98c-0.1,0-0.2,0-0.3-0.1l-0.9-0.3c-0.5-0.2-0.8-0.8-0.6-1.3c0.2-0.5,0.8-0.8,1.3-0.6
				l0.9,0.3c0.5,0.2,0.8,0.8,0.6,1.3C304.2,97.8,303.8,98,303.4,98z M298.7,96.3c-0.1,0-0.2,0-0.4-0.1l-0.9-0.4
				c-0.5-0.2-0.8-0.8-0.6-1.3c0.2-0.5,0.8-0.8,1.3-0.6l0.9,0.4c0.5,0.2,0.8,0.8,0.6,1.3C299.4,96.1,299.1,96.3,298.7,96.3z
				 M294,94.5c-0.1,0-0.3,0-0.4-0.1l-0.9-0.4c-0.5-0.2-0.8-0.8-0.5-1.3c0.2-0.5,0.8-0.7,1.3-0.5l0.9,0.4c0.5,0.2,0.8,0.8,0.5,1.3
				C294.8,94.3,294.4,94.5,294,94.5z M289.4,92.5c-0.1,0-0.3,0-0.4-0.1l-0.9-0.4c-0.5-0.2-0.7-0.8-0.5-1.3c0.2-0.5,0.8-0.7,1.3-0.5
				l0.9,0.4c0.5,0.2,0.7,0.8,0.5,1.3C290.2,92.3,289.8,92.5,289.4,92.5z M284.9,90.5c-0.1,0-0.3,0-0.4-0.1l-0.9-0.4
				c-0.5-0.2-0.7-0.8-0.5-1.3c0.2-0.5,0.8-0.7,1.3-0.5l0.9,0.4c0.5,0.2,0.7,0.8,0.5,1.3C285.6,90.2,285.3,90.5,284.9,90.5z
				 M280.4,88.2c-0.2,0-0.3,0-0.5-0.1l-0.9-0.5c-0.5-0.3-0.7-0.9-0.4-1.3c0.3-0.5,0.9-0.7,1.3-0.4l0.9,0.5c0.5,0.3,0.7,0.9,0.4,1.3
				C281.1,88,280.8,88.2,280.4,88.2z M276,85.9c-0.2,0-0.3,0-0.5-0.1l-0.9-0.5c-0.5-0.3-0.7-0.9-0.4-1.4c0.3-0.5,0.9-0.7,1.4-0.4
				l0.9,0.5c0.5,0.3,0.7,0.9,0.4,1.4C276.7,85.7,276.3,85.9,276,85.9z M271.6,83.4c-0.2,0-0.3,0-0.5-0.1l-0.9-0.5
				c-0.5-0.3-0.6-0.9-0.4-1.4c0.3-0.5,0.9-0.6,1.4-0.4l0.9,0.5c0.5,0.3,0.6,0.9,0.4,1.4C272.3,83.3,272,83.4,271.6,83.4z
				 M267.4,80.9c-0.2,0-0.4,0-0.5-0.2l-0.9-0.5c-0.5-0.3-0.6-0.9-0.3-1.4c0.3-0.5,0.9-0.6,1.4-0.3l0.8,0.5c0.5,0.3,0.6,0.9,0.3,1.4
				C268,80.7,267.7,80.9,267.4,80.9z M263.1,78.2c-0.2,0-0.4-0.1-0.6-0.2l-0.8-0.6c-0.5-0.3-0.6-0.9-0.3-1.4
				c0.3-0.5,0.9-0.6,1.4-0.3l0.8,0.6c0.5,0.3,0.6,0.9,0.3,1.4C263.8,78,263.5,78.2,263.1,78.2z M259,75.3c-0.2,0-0.4-0.1-0.6-0.2
				l-0.8-0.6c-0.4-0.3-0.6-0.9-0.2-1.4c0.3-0.5,0.9-0.6,1.4-0.2l0.8,0.6c0.5,0.3,0.6,0.9,0.2,1.4C259.6,75.2,259.3,75.3,259,75.3z
				 M255,72.4c-0.2,0-0.4-0.1-0.6-0.2l-0.8-0.6c-0.4-0.3-0.5-1-0.2-1.4c0.3-0.4,1-0.5,1.4-0.2l0.8,0.6c0.4,0.3,0.5,1,0.2,1.4
				C255.6,72.3,255.3,72.4,255,72.4z M251,69.4c-0.2,0-0.4-0.1-0.6-0.2l-0.8-0.6c-0.4-0.3-0.5-1-0.2-1.4c0.3-0.4,1-0.5,1.4-0.2
				l0.8,0.6c0.4,0.3,0.5,1,0.2,1.4C251.6,69.2,251.3,69.4,251,69.4z M247.1,66.2c-0.2,0-0.5-0.1-0.6-0.2l-0.8-0.6
				c-0.4-0.4-0.5-1-0.1-1.4c0.4-0.4,1-0.5,1.4-0.1l0.8,0.6c0.4,0.4,0.5,1,0.1,1.4C247.7,66.1,247.4,66.2,247.1,66.2z M243.3,63
				c-0.2,0-0.5-0.1-0.7-0.3l-0.8-0.7c-0.4-0.4-0.4-1-0.1-1.4c0.4-0.4,1-0.4,1.4-0.1l0.7,0.7c0.4,0.4,0.5,1,0.1,1.4
				C243.9,62.8,243.6,63,243.3,63z M239.6,59.6c-0.2,0-0.5-0.1-0.7-0.3l-0.7-0.7c-0.4-0.4-0.4-1,0-1.4c0.4-0.4,1-0.4,1.4,0l0.7,0.7
				c0.4,0.4,0.4,1,0,1.4C240.2,59.5,239.9,59.6,239.6,59.6z M236,56.1c-0.3,0-0.5-0.1-0.7-0.3l-0.7-0.7c-0.4-0.4-0.4-1,0-1.4
				s1-0.4,1.4,0l0.7,0.7c0.4,0.4,0.4,1,0,1.4C236.5,56,236.3,56.1,236,56.1z M232.5,52.6c-0.3,0-0.5-0.1-0.7-0.3l-0.7-0.7
				c-0.4-0.4-0.4-1,0-1.4c0.4-0.4,1-0.4,1.4,0l0.7,0.7c0.4,0.4,0.4,1,0,1.4C233,52.5,232.8,52.6,232.5,52.6z M229.1,48.9
				c-0.3,0-0.5-0.1-0.7-0.3l-0.7-0.7c-0.4-0.4-0.3-1,0.1-1.4c0.4-0.4,1-0.3,1.4,0.1l0.7,0.7c0.4,0.4,0.3,1-0.1,1.4
				C229.6,48.8,229.3,48.9,229.1,48.9z M225.8,45.1c-0.3,0-0.6-0.1-0.8-0.4l-0.7-0.8c-0.4-0.4-0.3-1.1,0.1-1.4
				c0.4-0.4,1.1-0.3,1.4,0.1l0.6,0.8c0.4,0.4,0.3,1.1-0.1,1.4C226.3,45.1,226,45.1,225.8,45.1z M222.6,41.3c-0.3,0-0.6-0.1-0.8-0.4
				l-0.6-0.8c-0.3-0.4-0.3-1.1,0.2-1.4c0.4-0.3,1.1-0.3,1.4,0.2l0.6,0.8c0.3,0.4,0.3,1.1-0.1,1.4C223,41.2,222.8,41.3,222.6,41.3z"
				/>
			<path class="st6" d="M208.2,20.6c-0.3,0-0.7-0.2-0.9-0.5l-0.5-0.9c-0.3-0.5-0.1-1.1,0.4-1.4c0.5-0.3,1.1-0.1,1.4,0.4l0.5,0.9
				c0.3,0.5,0.1,1.1-0.3,1.4C208.5,20.6,208.3,20.6,208.2,20.6z M205.6,16.3c-0.3,0-0.7-0.2-0.9-0.5l-0.5-0.9
				c-0.3-0.5-0.1-1.1,0.4-1.4c0.5-0.3,1.1-0.1,1.4,0.4l0.5,0.9c0.3,0.5,0.1,1.1-0.4,1.4C206,16.2,205.8,16.3,205.6,16.3z
				 M203.3,11.9c-0.4,0-0.7-0.2-0.9-0.5l-0.5-0.9c-0.3-0.5-0.1-1.1,0.4-1.3c0.5-0.3,1.1-0.1,1.3,0.4l0.5,0.9
				c0.3,0.5,0.1,1.1-0.4,1.4C203.6,11.9,203.4,11.9,203.3,11.9z M201,7.4c-0.4,0-0.7-0.2-0.9-0.6L199.6,6c-0.2-0.5,0-1.1,0.5-1.3
				c0.5-0.2,1.1,0,1.3,0.5l0.4,0.9c0.2,0.5,0,1.1-0.5,1.3C201.3,7.4,201.1,7.4,201,7.4z M198.8,2.9c-0.4,0-0.7-0.2-0.9-0.6l-0.4-0.9
				c-0.2-0.5,0-1.1,0.5-1.3c0.5-0.2,1.1,0,1.3,0.5l0.4,0.9c0.2,0.5,0,1.1-0.5,1.3C199.1,2.9,199,2.9,198.8,2.9z"/>
		</g>
		<path class="st6" d="M469.5,104v4.8v2v43.5v2v7.7c78.7,0,146.2,47.8,175,116h74.6C691.9,222.6,619.7,109.9,469.5,104z"/>
		<linearGradient id="SVGID_2_" gradientUnits="userSpaceOnUse" x1="594.2713" y1="280" x2="594.2713" y2="104">
			<stop  offset="0" style="stop-color:#005EB8"/>
			<stop  offset="1" style="stop-color:#005EB8;stop-opacity:0"/>
		</linearGradient>
		<path class="st8" d="M469.5,104v4.8v2v43.5v2v7.7c78.7,0,146.2,47.8,175,116h74.6C691.9,222.6,619.7,109.9,469.5,104z"/>
		<path class="st9" d="M419.5,52"/>
		<linearGradient id="SVGID_3_" gradientUnits="userSpaceOnUse" x1="111.841" y1="88" x2="361.4612" y2="88">
			<stop  offset="0" style="stop-color:#FBB040;stop-opacity:0"/>
			<stop  offset="1" style="stop-color:#ED8B00;stop-opacity:0.8"/>
		</linearGradient>
		<path class="st10" d="M361.5,122.5v-2V116c-78.7,0-146.2-47.8-175-116h-74.6c27.2,57.4,99.4,170.1,249.6,176v-5.7v-2V122.5z"/>
		<g>
			<path class="st7" d="M421.8,215h-1c-0.6,0-1-0.4-1-1s0.4-1,1-1h1c0.6,0,1,0.4,1,1S422.3,215,421.8,215z"/>
			<path class="st7" d="M453.4,215h-1c-0.6,0-1-0.4-1-1s0.4-1,1-1h1c0.6,0,1,0.4,1,1S453.9,215,453.4,215z M448.4,215h-1
				c-0.6,0-1-0.4-1-1s0.4-1,1-1h1c0.6,0,1,0.4,1,1S448.9,215,448.4,215z M443.4,215h-1c-0.6,0-1-0.4-1-1s0.4-1,1-1h1
				c0.6,0,1,0.4,1,1S443.9,215,443.4,215z M438.4,215h-1c-0.6,0-1-0.4-1-1s0.4-1,1-1h1c0.6,0,1,0.4,1,1S438.9,215,438.4,215z
				 M433.4,215h-1c-0.6,0-1-0.4-1-1s0.4-1,1-1h1c0.6,0,1,0.4,1,1S433.9,215,433.4,215z M428.4,215h-1c-0.6,0-1-0.4-1-1s0.4-1,1-1h1
				c0.6,0,1,0.4,1,1S428.9,215,428.4,215z"/>
			<path class="st7" d="M98,77.4c-0.3,0-0.6-0.2-0.8-0.4l-0.6-0.8c-0.3-0.5-0.2-1.1,0.3-1.4c0.5-0.3,1.1-0.2,1.4,0.3l0.6,0.8
				c0.3,0.5,0.2,1.1-0.3,1.4C98.4,77.3,98.2,77.4,98,77.4z M95.3,73.2c-0.3,0-0.6-0.2-0.8-0.4l-0.6-0.8c-0.3-0.5-0.2-1.1,0.3-1.4
				c0.5-0.3,1.1-0.2,1.4,0.3l0.5,0.8c0.3,0.5,0.2,1.1-0.3,1.4C95.6,73.1,95.4,73.2,95.3,73.2z M92.5,69c-0.3,0-0.7-0.2-0.8-0.5
				l-0.5-0.8c-0.3-0.5-0.2-1.1,0.3-1.4c0.5-0.3,1.1-0.2,1.4,0.3l0.5,0.8c0.3,0.5,0.2,1.1-0.3,1.4C92.9,69,92.7,69,92.5,69z
				 M89.9,64.8c-0.3,0-0.7-0.2-0.8-0.5l-0.5-0.9c-0.3-0.5-0.1-1.1,0.3-1.4c0.5-0.3,1.1-0.1,1.4,0.3l0.5,0.8c0.3,0.5,0.2,1.1-0.3,1.4
				C90.2,64.7,90,64.8,89.9,64.8z M87.2,60.5c-0.3,0-0.7-0.2-0.9-0.5l-0.5-0.9c-0.3-0.5-0.1-1.1,0.3-1.4c0.5-0.3,1.1-0.1,1.4,0.3
				l0.5,0.9c0.3,0.5,0.1,1.1-0.3,1.4C87.6,60.5,87.4,60.5,87.2,60.5z M84.6,56.2c-0.3,0-0.7-0.2-0.9-0.5l-0.5-0.9
				c-0.3-0.5-0.1-1.1,0.4-1.4c0.5-0.3,1.1-0.1,1.4,0.4l0.5,0.9c0.3,0.5,0.1,1.1-0.4,1.4C85,56.2,84.8,56.2,84.6,56.2z M82.1,51.9
				c-0.3,0-0.7-0.2-0.9-0.5l-0.5-0.9c-0.3-0.5-0.1-1.1,0.4-1.4c0.5-0.3,1.1-0.1,1.4,0.4l0.5,0.9c0.3,0.5,0.1,1.1-0.4,1.4
				C82.5,51.9,82.3,51.9,82.1,51.9z M79.7,47.6c-0.4,0-0.7-0.2-0.9-0.5l-0.5-0.9c-0.3-0.5-0.1-1.1,0.4-1.4c0.5-0.3,1.1-0.1,1.4,0.4
				l0.5,0.9c0.3,0.5,0.1,1.1-0.4,1.4C80,47.5,79.8,47.6,79.7,47.6z M77.2,43.2c-0.4,0-0.7-0.2-0.9-0.5l-0.5-0.9
				c-0.3-0.5-0.1-1.1,0.4-1.4c0.5-0.3,1.1-0.1,1.4,0.4l0.5,0.9c0.3,0.5,0.1,1.1-0.4,1.4C77.6,43.2,77.4,43.2,77.2,43.2z M74.9,38.8
				c-0.4,0-0.7-0.2-0.9-0.5l-0.5-0.9c-0.3-0.5-0.1-1.1,0.4-1.4c0.5-0.3,1.1-0.1,1.4,0.4l0.5,0.9c0.3,0.5,0.1,1.1-0.4,1.4
				C75.2,38.8,75,38.8,74.9,38.8z M72.6,34.4c-0.4,0-0.7-0.2-0.9-0.5l-0.5-0.9c-0.3-0.5-0.1-1.1,0.4-1.3c0.5-0.3,1.1-0.1,1.3,0.4
				l0.5,0.9c0.3,0.5,0.1,1.1-0.4,1.3C72.9,34.3,72.7,34.4,72.6,34.4z M70.3,29.9c-0.4,0-0.7-0.2-0.9-0.6L69,28.4
				c-0.2-0.5,0-1.1,0.5-1.3c0.5-0.2,1.1,0,1.3,0.5l0.4,0.9c0.2,0.5,0,1.1-0.4,1.3C70.6,29.9,70.4,29.9,70.3,29.9z M68.1,25.4
				c-0.4,0-0.7-0.2-0.9-0.6l-0.4-0.9c-0.2-0.5,0-1.1,0.5-1.3c0.5-0.2,1.1,0,1.3,0.5L69,24c0.2,0.5,0,1.1-0.5,1.3
				C68.4,25.4,68.2,25.4,68.1,25.4z"/>
			<path class="st7" d="M141.5,130.6c-0.3,0-0.5-0.1-0.7-0.3l-0.7-0.7c-0.4-0.4-0.4-1,0-1.4c0.4-0.4,1-0.4,1.4,0l0.7,0.7
				c0.4,0.4,0.4,1,0,1.4C142,130.5,141.7,130.6,141.5,130.6z M138,127c-0.3,0-0.5-0.1-0.7-0.3l-0.7-0.7c-0.4-0.4-0.4-1,0-1.4
				c0.4-0.4,1-0.4,1.4,0l0.7,0.7c0.4,0.4,0.4,1,0,1.4C138.5,126.9,138.3,127,138,127z M134.6,123.3c-0.3,0-0.5-0.1-0.7-0.3l-0.7-0.7
				c-0.4-0.4-0.4-1,0.1-1.4c0.4-0.4,1-0.4,1.4,0.1l0.7,0.7c0.4,0.4,0.4,1-0.1,1.4C135.1,123.3,134.8,123.3,134.6,123.3z
				 M131.2,119.7c-0.3,0-0.5-0.1-0.7-0.3l-0.7-0.7c-0.4-0.4-0.3-1,0.1-1.4c0.4-0.4,1-0.3,1.4,0.1l0.7,0.7c0.4,0.4,0.3,1-0.1,1.4
				C131.7,119.6,131.4,119.7,131.2,119.7z M127.9,115.9c-0.3,0-0.6-0.1-0.8-0.3l-0.7-0.8c-0.4-0.4-0.3-1,0.1-1.4
				c0.4-0.4,1-0.3,1.4,0.1l0.7,0.8c0.4,0.4,0.3,1-0.1,1.4C128.3,115.8,128.1,115.9,127.9,115.9z M124.6,112.1
				c-0.3,0-0.6-0.1-0.8-0.3l-0.7-0.8c-0.4-0.4-0.3-1.1,0.1-1.4c0.4-0.4,1.1-0.3,1.4,0.1l0.6,0.8c0.4,0.4,0.3,1.1-0.1,1.4
				C125,112.1,124.8,112.1,124.6,112.1z M121.3,108.3c-0.3,0-0.6-0.1-0.8-0.4l-0.6-0.8c-0.4-0.4-0.3-1.1,0.1-1.4
				c0.4-0.4,1.1-0.3,1.4,0.1l0.6,0.8c0.4,0.4,0.3,1.1-0.1,1.4C121.8,108.3,121.6,108.3,121.3,108.3z M118.2,104.5
				c-0.3,0-0.6-0.1-0.8-0.4l-0.6-0.8c-0.3-0.4-0.3-1.1,0.2-1.4c0.4-0.3,1.1-0.3,1.4,0.2l0.6,0.8c0.3,0.4,0.3,1.1-0.1,1.4
				C118.6,104.4,118.4,104.5,118.2,104.5z M115,100.6c-0.3,0-0.6-0.1-0.8-0.4l-0.6-0.8c-0.3-0.4-0.3-1.1,0.2-1.4
				c0.4-0.3,1.1-0.3,1.4,0.2l0.6,0.8c0.3,0.4,0.3,1.1-0.2,1.4C115.5,100.5,115.2,100.6,115,100.6z M112,96.6c-0.3,0-0.6-0.1-0.8-0.4
				l-0.6-0.8c-0.3-0.4-0.3-1.1,0.2-1.4c0.4-0.3,1.1-0.3,1.4,0.2l0.6,0.8c0.3,0.4,0.3,1.1-0.2,1.4C112.4,96.5,112.2,96.6,112,96.6z
				 M108.9,92.6c-0.3,0-0.6-0.1-0.8-0.4c-0.3-0.4-0.3-1,0.1-1.3c0.4-0.4,1-0.4,1.4,0c0,0,0.1,0.1,0.1,0.2c0.3,0.5,0.2,1.1-0.3,1.4
				C109.3,92.6,109.1,92.6,108.9,92.6z"/>
			<path class="st7" d="M315.6,222.5c-0.1,0-0.1,0-0.2,0l-1-0.2c-0.5-0.1-0.9-0.6-0.8-1.2c0.1-0.5,0.6-0.9,1.2-0.8l1,0.2
				c0.5,0.1,0.9,0.6,0.8,1.2C316.5,222.1,316.1,222.5,315.6,222.5z M310.7,221.6c-0.1,0-0.1,0-0.2,0l-1-0.2
				c-0.5-0.1-0.9-0.6-0.8-1.2s0.6-0.9,1.2-0.8l1,0.2c0.5,0.1,0.9,0.6,0.8,1.2C311.6,221.2,311.2,221.6,310.7,221.6z M305.8,220.6
				c-0.1,0-0.1,0-0.2,0l-0.9-0.2c-0.5-0.1-0.9-0.6-0.8-1.2c0.1-0.5,0.6-0.9,1.1-0.8l1,0.2c0.5,0.1,0.9,0.6,0.8,1.2
				C306.7,220.3,306.2,220.6,305.8,220.6z M300.9,219.6c-0.1,0-0.1,0-0.2,0l-1-0.2c-0.5-0.1-0.9-0.7-0.8-1.2
				c0.1-0.5,0.7-0.9,1.2-0.8l1,0.2c0.5,0.1,0.9,0.6,0.8,1.2C301.7,219.3,301.3,219.6,300.9,219.6z M296,218.5c-0.1,0-0.2,0-0.2,0
				l-1-0.2c-0.5-0.1-0.9-0.7-0.7-1.2c0.1-0.5,0.7-0.9,1.2-0.7l1,0.2c0.5,0.1,0.9,0.7,0.7,1.2C296.9,218.2,296.4,218.5,296,218.5z
				 M291.1,217.3c-0.1,0-0.2,0-0.2,0l-1-0.2c-0.5-0.1-0.9-0.7-0.7-1.2c0.1-0.5,0.7-0.9,1.2-0.7l1,0.2c0.5,0.1,0.9,0.7,0.7,1.2
				C292,217,291.6,217.3,291.1,217.3z M286.3,216.1c-0.1,0-0.2,0-0.3,0l-1-0.3c-0.5-0.1-0.8-0.7-0.7-1.2c0.1-0.5,0.7-0.8,1.2-0.7
				l1,0.3c0.5,0.1,0.9,0.7,0.7,1.2C287.1,215.8,286.7,216.1,286.3,216.1z M281.5,214.8c-0.1,0-0.2,0-0.3,0l-1-0.3
				c-0.5-0.2-0.8-0.7-0.7-1.2c0.2-0.5,0.7-0.8,1.2-0.7l1,0.3c0.5,0.1,0.8,0.7,0.7,1.2C282.3,214.5,281.9,214.8,281.5,214.8z
				 M276.6,213.4c-0.1,0-0.2,0-0.3,0l-1-0.3c-0.5-0.2-0.8-0.7-0.7-1.2c0.2-0.5,0.7-0.8,1.2-0.7l1,0.3c0.5,0.2,0.8,0.7,0.7,1.2
				C277.5,213.1,277.1,213.4,276.6,213.4z M271.9,211.9c-0.1,0-0.2,0-0.3,0l-1-0.3c-0.5-0.2-0.8-0.7-0.6-1.3
				c0.2-0.5,0.7-0.8,1.3-0.6l0.9,0.3c0.5,0.2,0.8,0.7,0.6,1.3C272.7,211.6,272.3,211.9,271.9,211.9z M267.1,210.3
				c-0.1,0-0.2,0-0.3-0.1l-1-0.3c-0.5-0.2-0.8-0.7-0.6-1.3c0.2-0.5,0.7-0.8,1.3-0.6l0.9,0.3c0.5,0.2,0.8,0.7,0.6,1.3
				C267.9,210,267.5,210.3,267.1,210.3z M262.4,208.7c-0.1,0-0.2,0-0.3-0.1l-0.9-0.3c-0.5-0.2-0.8-0.8-0.6-1.3s0.8-0.8,1.3-0.6
				l0.9,0.3c0.5,0.2,0.8,0.8,0.6,1.3C263.2,208.4,262.8,208.7,262.4,208.7z M257.7,207c-0.1,0-0.2,0-0.4-0.1l-0.9-0.4
				c-0.5-0.2-0.8-0.8-0.6-1.3c0.2-0.5,0.8-0.8,1.3-0.6l0.9,0.4c0.5,0.2,0.8,0.8,0.6,1.3C258.5,206.7,258.1,207,257.7,207z
				 M253,205.2c-0.1,0-0.2,0-0.4-0.1l-0.9-0.4c-0.5-0.2-0.8-0.8-0.6-1.3c0.2-0.5,0.8-0.8,1.3-0.6l0.9,0.4c0.5,0.2,0.8,0.8,0.6,1.3
				C253.8,204.9,253.4,205.2,253,205.2z M248.4,203.3c-0.1,0-0.3,0-0.4-0.1l-0.9-0.4c-0.5-0.2-0.8-0.8-0.5-1.3
				c0.2-0.5,0.8-0.8,1.3-0.5l0.9,0.4c0.5,0.2,0.8,0.8,0.5,1.3C249.1,203.1,248.8,203.3,248.4,203.3z M243.8,201.4
				c-0.1,0-0.3,0-0.4-0.1l-0.9-0.4c-0.5-0.2-0.7-0.8-0.5-1.3s0.8-0.7,1.3-0.5l0.9,0.4c0.5,0.2,0.7,0.8,0.5,1.3
				C244.5,201.1,244.2,201.4,243.8,201.4z M239.2,199.3c-0.1,0-0.3,0-0.4-0.1l-0.9-0.4c-0.5-0.2-0.7-0.8-0.5-1.3
				c0.2-0.5,0.8-0.7,1.3-0.5l0.9,0.4c0.5,0.2,0.7,0.8,0.5,1.3C239.9,199.1,239.6,199.3,239.2,199.3z M234.7,197.3
				c-0.1,0-0.3,0-0.4-0.1l-0.9-0.4c-0.5-0.2-0.7-0.8-0.5-1.3c0.2-0.5,0.8-0.7,1.3-0.5l0.9,0.4c0.5,0.2,0.7,0.8,0.5,1.3
				C235.4,197,235,197.3,234.7,197.3z M230.2,195.1c-0.1,0-0.3,0-0.4-0.1l-0.9-0.4c-0.5-0.2-0.7-0.8-0.5-1.3
				c0.2-0.5,0.8-0.7,1.3-0.5l0.9,0.4c0.5,0.2,0.7,0.8,0.5,1.3C230.9,194.9,230.5,195.1,230.2,195.1z M225.7,192.9
				c-0.2,0-0.3,0-0.5-0.1l-0.9-0.5c-0.5-0.3-0.7-0.9-0.4-1.3s0.9-0.7,1.3-0.4l0.9,0.5c0.5,0.3,0.7,0.9,0.4,1.3
				C226.4,192.7,226,192.9,225.7,192.9z M221.3,190.5c-0.2,0-0.3,0-0.5-0.1l-0.9-0.5c-0.5-0.3-0.7-0.9-0.4-1.4
				c0.3-0.5,0.9-0.7,1.4-0.4l0.9,0.5c0.5,0.3,0.7,0.9,0.4,1.4C222,190.4,221.6,190.5,221.3,190.5z M216.9,188.2
				c-0.2,0-0.3,0-0.5-0.1l-0.9-0.5c-0.5-0.3-0.7-0.9-0.4-1.4c0.3-0.5,0.9-0.7,1.4-0.4l0.9,0.5c0.5,0.3,0.7,0.9,0.4,1.4
				C217.6,188,217.2,188.2,216.9,188.2z M212.5,185.7c-0.2,0-0.3,0-0.5-0.1l-0.9-0.5c-0.5-0.3-0.6-0.9-0.4-1.4
				c0.3-0.5,0.9-0.6,1.4-0.4l0.9,0.5c0.5,0.3,0.6,0.9,0.4,1.4C213.2,185.5,212.9,185.7,212.5,185.7z M208.2,183.2
				c-0.2,0-0.3,0-0.5-0.1l-0.9-0.5c-0.5-0.3-0.6-0.9-0.3-1.4c0.3-0.5,0.9-0.6,1.4-0.3l0.9,0.5c0.5,0.3,0.6,0.9,0.3,1.4
				C208.9,183,208.5,183.2,208.2,183.2z M203.9,180.6c-0.2,0-0.4,0-0.5-0.1l-0.9-0.5c-0.5-0.3-0.6-0.9-0.3-1.4s0.9-0.6,1.4-0.3
				l0.8,0.5c0.5,0.3,0.6,0.9,0.3,1.4C204.6,180.4,204.3,180.6,203.9,180.6z M199.7,178c-0.2,0-0.4-0.1-0.5-0.2l-0.8-0.5
				c-0.5-0.3-0.6-0.9-0.3-1.4c0.3-0.5,0.9-0.6,1.4-0.3l0.8,0.5c0.5,0.3,0.6,0.9,0.3,1.4C200.3,177.8,200,178,199.7,178z"/>
			<path class="st7" d="M411.5,229C411.4,229,411.4,229,411.5,229l-1,0c-0.6,0-1-0.5-1-1c0-0.6,0.5-1,1-1l1,0c0.6,0,1,0.5,1,1
				C412.4,228.6,412,229,411.5,229z M406.5,228.8C406.5,228.8,406.4,228.8,406.5,228.8l-1,0c-0.6,0-1-0.5-1-1c0-0.6,0.5-1,1-1l1,0
				c0.6,0,1,0.5,1,1C407.4,228.4,407,228.8,406.5,228.8z"/>
		</g>
		<g>
			<path class="st7" d="M445.4,54C445.4,54,445.4,54,445.4,54l-1,0c-0.6,0-1-0.5-1-1c0-0.6,0.5-1,1-1l1,0c0.6,0,1,0.5,1,1
				C446.4,53.6,446,54,445.4,54z M440.4,53.8C440.4,53.8,440.4,53.8,440.4,53.8l-1,0c-0.6,0-1-0.5-1-1s0.5-1,1-1l1,0
				c0.6,0,1,0.5,1,1C441.4,53.4,441,53.8,440.4,53.8z M435.4,53.6C435.4,53.6,435.4,53.6,435.4,53.6l-1,0c-0.6,0-1-0.5-1-1
				c0-0.6,0.5-1,1-1l1,0c0.6,0,1,0.5,1,1C436.4,53.2,436,53.6,435.4,53.6z M430.5,53.4C430.4,53.4,430.4,53.4,430.5,53.4l-1,0
				c-0.6,0-1-0.5-1-1c0-0.6,0.5-1,1-1l1,0c0.6,0,1,0.5,1,1C431.4,53,431,53.4,430.5,53.4z M425.5,53.2
				C425.4,53.2,425.4,53.2,425.5,53.2l-1,0c-0.6,0-1-0.5-1-1c0-0.6,0.5-1,1-1l1,0c0.6,0,1,0.5,1,1C426.4,52.8,426,53.2,425.5,53.2z
				 M420.5,53C420.4,53,420.4,53,420.5,53l-1,0c-0.6,0-1-0.5-1-1c0-0.6,0.5-1,1-1l1,0c0.6,0,1,0.5,1,1C421.4,52.6,421,53,420.5,53z"
				/>
			<path class="st7" d="M774.4,281c-0.4,0-0.7-0.2-0.9-0.6l-0.4-0.9c-0.2-0.5,0-1.1,0.5-1.3c0.5-0.2,1.1,0,1.3,0.5l0.4,0.9
				c0.2,0.5,0,1.1-0.5,1.3C774.7,281,774.5,281,774.4,281z M772.3,276.5c-0.4,0-0.7-0.2-0.9-0.6l-0.4-0.9c-0.2-0.5,0-1.1,0.5-1.3
				c0.5-0.2,1.1,0,1.3,0.5l0.4,0.9c0.2,0.5,0,1.1-0.5,1.3C772.6,276.4,772.4,276.5,772.3,276.5z"/>
			<path class="st7" d="M767.5,266.5c-0.4,0-0.7-0.2-0.9-0.6l-0.4-0.9c-0.2-0.5,0-1.1,0.5-1.3s1.1,0,1.3,0.5l0.4,0.9
				c0.2,0.5,0,1.1-0.5,1.3C767.8,266.4,767.7,266.5,767.5,266.5z M765.4,262c-0.4,0-0.7-0.2-0.9-0.6l-0.4-0.9
				c-0.2-0.5,0-1.1,0.5-1.3c0.5-0.2,1.1,0,1.3,0.5l0.4,0.9c0.2,0.5,0,1.1-0.5,1.3C765.7,261.9,765.5,262,765.4,262z M763.2,257.4
				c-0.4,0-0.7-0.2-0.9-0.6l-0.4-0.9c-0.2-0.5,0-1.1,0.5-1.3c0.5-0.2,1.1,0,1.3,0.5l0.4,0.9c0.2,0.5,0,1.1-0.5,1.3
				C763.5,257.4,763.4,257.4,763.2,257.4z M761,252.9c-0.4,0-0.7-0.2-0.9-0.6l-0.4-0.9c-0.2-0.5,0-1.1,0.4-1.3
				c0.5-0.2,1.1,0,1.3,0.4l0.4,0.9c0.2,0.5,0,1.1-0.5,1.3C761.3,252.9,761.2,252.9,761,252.9z M758.8,248.5c-0.4,0-0.7-0.2-0.9-0.5
				l-0.5-0.9c-0.3-0.5-0.1-1.1,0.4-1.3c0.5-0.3,1.1-0.1,1.3,0.4l0.5,0.9c0.3,0.5,0.1,1.1-0.4,1.3
				C759.1,248.4,758.9,248.5,758.8,248.5z M756.5,244c-0.4,0-0.7-0.2-0.9-0.5l-0.5-0.9c-0.3-0.5-0.1-1.1,0.4-1.4
				c0.5-0.3,1.1-0.1,1.4,0.4l0.5,0.9c0.3,0.5,0.1,1.1-0.4,1.4C756.8,244,756.7,244,756.5,244z M754.1,239.6c-0.4,0-0.7-0.2-0.9-0.5
				l-0.5-0.9c-0.3-0.5-0.1-1.1,0.4-1.4c0.5-0.3,1.1-0.1,1.4,0.4l0.5,0.9c0.3,0.5,0.1,1.1-0.4,1.4
				C754.5,239.6,754.3,239.6,754.1,239.6z M751.7,235.2c-0.4,0-0.7-0.2-0.9-0.5l-0.5-0.9c-0.3-0.5-0.1-1.1,0.4-1.4
				c0.5-0.3,1.1-0.1,1.4,0.4l0.5,0.9c0.3,0.5,0.1,1.1-0.4,1.4C752.1,235.2,751.9,235.2,751.7,235.2z M749.3,230.9
				c-0.3,0-0.7-0.2-0.9-0.5l-0.5-0.9c-0.3-0.5-0.1-1.1,0.4-1.4c0.5-0.3,1.1-0.1,1.4,0.4l0.5,0.9c0.3,0.5,0.1,1.1-0.4,1.4
				C749.6,230.8,749.4,230.9,749.3,230.9z M746.8,226.6c-0.3,0-0.7-0.2-0.9-0.5l-0.5-0.9c-0.3-0.5-0.1-1.1,0.4-1.4
				c0.5-0.3,1.1-0.1,1.4,0.4l0.5,0.9c0.3,0.5,0.1,1.1-0.4,1.4C747.1,226.5,746.9,226.6,746.8,226.6z M744.2,222.3
				c-0.3,0-0.7-0.2-0.9-0.5l-0.5-0.9c-0.3-0.5-0.1-1.1,0.3-1.4c0.5-0.3,1.1-0.1,1.4,0.3l0.5,0.9c0.3,0.5,0.1,1.1-0.3,1.4
				C744.5,222.2,744.4,222.3,744.2,222.3z M741.6,218c-0.3,0-0.7-0.2-0.8-0.5l-0.5-0.8c-0.3-0.5-0.1-1.1,0.3-1.4
				c0.5-0.3,1.1-0.1,1.4,0.3l0.5,0.8c0.3,0.5,0.1,1.1-0.3,1.4C741.9,218,741.8,218,741.6,218z M738.9,213.8c-0.3,0-0.7-0.2-0.8-0.5
				l-0.5-0.8c-0.3-0.5-0.2-1.1,0.3-1.4c0.5-0.3,1.1-0.2,1.4,0.3l0.5,0.8c0.3,0.5,0.2,1.1-0.3,1.4
				C739.3,213.7,739.1,213.8,738.9,213.8z M736.2,209.6c-0.3,0-0.6-0.2-0.8-0.5l-0.5-0.8c-0.3-0.5-0.2-1.1,0.3-1.4
				c0.5-0.3,1.1-0.2,1.4,0.3l0.6,0.8c0.3,0.5,0.2,1.1-0.3,1.4C736.6,209.5,736.4,209.6,736.2,209.6z M733.4,205.4
				c-0.3,0-0.6-0.2-0.8-0.4l-0.6-0.8c-0.3-0.5-0.2-1.1,0.3-1.4c0.5-0.3,1.1-0.2,1.4,0.3l0.6,0.8c0.3,0.5,0.2,1.1-0.3,1.4
				C733.8,205.4,733.6,205.4,733.4,205.4z M730.6,201.3c-0.3,0-0.6-0.2-0.8-0.4l-0.6-0.8c-0.3-0.5-0.2-1.1,0.2-1.4
				c0.5-0.3,1.1-0.2,1.4,0.2l0.6,0.8c0.3,0.5,0.2,1.1-0.3,1.4C731,201.2,730.8,201.3,730.6,201.3z M727.7,197.2
				c-0.3,0-0.6-0.1-0.8-0.4l-0.6-0.8c-0.3-0.4-0.2-1.1,0.2-1.4c0.5-0.3,1.1-0.2,1.4,0.2l0.6,0.8c0.3,0.5,0.2,1.1-0.2,1.4
				C728.1,197.1,727.9,197.2,727.7,197.2z M724.8,193.2c-0.3,0-0.6-0.1-0.8-0.4l-0.6-0.8c-0.3-0.4-0.2-1.1,0.2-1.4
				c0.4-0.3,1.1-0.2,1.4,0.2l0.6,0.8c0.3,0.4,0.2,1.1-0.2,1.4C725.2,193.1,725,193.2,724.8,193.2z M721.8,189.1
				c-0.3,0-0.6-0.1-0.8-0.4l-0.6-0.8c-0.3-0.4-0.2-1.1,0.2-1.4c0.4-0.3,1.1-0.2,1.4,0.2l0.6,0.8c0.3,0.4,0.2,1.1-0.2,1.4
				C722.2,189.1,722,189.1,721.8,189.1z M718.8,185.2c-0.3,0-0.6-0.1-0.8-0.4l-0.6-0.8c-0.3-0.4-0.3-1.1,0.2-1.4
				c0.4-0.3,1.1-0.3,1.4,0.2l0.6,0.8c0.3,0.4,0.3,1.1-0.2,1.4C719.2,185.1,719,185.2,718.8,185.2z M715.7,181.2
				c-0.3,0-0.6-0.1-0.8-0.4l-0.6-0.8c-0.3-0.4-0.3-1.1,0.2-1.4c0.4-0.3,1.1-0.3,1.4,0.2l0.6,0.8c0.3,0.4,0.3,1.1-0.2,1.4
				C716.1,181.1,715.9,181.2,715.7,181.2z M712.6,177.3c-0.3,0-0.6-0.1-0.8-0.4l-0.6-0.8c-0.3-0.4-0.3-1.1,0.1-1.4
				c0.4-0.3,1.1-0.3,1.4,0.1l0.6,0.8c0.3,0.4,0.3,1.1-0.1,1.4C713,177.2,712.8,177.3,712.6,177.3z"/>
			<path class="st7" d="M671.6,134.5c-0.2,0-0.5-0.1-0.7-0.2l-0.7-0.7c-0.4-0.4-0.5-1-0.1-1.4c0.4-0.4,1-0.5,1.4-0.1l0.8,0.7
				c0.4,0.4,0.5,1,0.1,1.4C672.1,134.4,671.8,134.5,671.6,134.5z M667.8,131.2c-0.2,0-0.5-0.1-0.7-0.2l-0.8-0.6
				c-0.4-0.4-0.5-1-0.1-1.4c0.4-0.4,1-0.5,1.4-0.1l0.8,0.7c0.4,0.4,0.5,1,0.1,1.4C668.3,131.1,668.1,131.2,667.8,131.2z M664,128
				c-0.2,0-0.5-0.1-0.6-0.2l-0.8-0.6c-0.4-0.4-0.5-1-0.1-1.4c0.4-0.4,1-0.5,1.4-0.1l0.8,0.6c0.4,0.4,0.5,1,0.1,1.4
				C664.5,127.9,664.3,128,664,128z M660.1,124.8c-0.2,0-0.4-0.1-0.6-0.2l-0.8-0.6c-0.4-0.3-0.5-1-0.2-1.4c0.3-0.4,1-0.5,1.4-0.2
				l0.8,0.6c0.4,0.3,0.5,1,0.2,1.4C660.7,124.7,660.4,124.8,660.1,124.8z M656.2,121.7c-0.2,0-0.4-0.1-0.6-0.2l-0.8-0.6
				c-0.4-0.3-0.5-1-0.2-1.4c0.3-0.4,1-0.5,1.4-0.2l0.8,0.6c0.4,0.3,0.5,1,0.2,1.4C656.8,121.6,656.5,121.7,656.2,121.7z
				 M652.2,118.7c-0.2,0-0.4-0.1-0.6-0.2l-0.8-0.6c-0.4-0.3-0.5-1-0.2-1.4c0.3-0.4,1-0.5,1.4-0.2l0.8,0.6c0.4,0.3,0.5,1,0.2,1.4
				C652.8,118.5,652.5,118.7,652.2,118.7z"/>
			<path class="st7" d="M585.3,79.8c-0.1,0-0.3,0-0.4-0.1l-0.9-0.4c-0.5-0.2-0.7-0.8-0.5-1.3c0.2-0.5,0.8-0.7,1.3-0.5l0.9,0.4
				c0.5,0.2,0.7,0.8,0.5,1.3C586.1,79.6,585.7,79.8,585.3,79.8z M580.7,77.9c-0.1,0-0.3,0-0.4-0.1l-0.9-0.4
				c-0.5-0.2-0.8-0.8-0.6-1.3c0.2-0.5,0.8-0.8,1.3-0.6l0.9,0.4c0.5,0.2,0.8,0.8,0.6,1.3C581.5,77.7,581.1,77.9,580.7,77.9z
				 M576,76.1c-0.1,0-0.2,0-0.4-0.1l-0.9-0.4c-0.5-0.2-0.8-0.8-0.6-1.3c0.2-0.5,0.8-0.8,1.3-0.6l0.9,0.4c0.5,0.2,0.8,0.8,0.6,1.3
				C576.8,75.9,576.4,76.1,576,76.1z M571.3,74.3c-0.1,0-0.2,0-0.3-0.1l-0.9-0.3c-0.5-0.2-0.8-0.8-0.6-1.3c0.2-0.5,0.8-0.8,1.3-0.6
				l0.9,0.3c0.5,0.2,0.8,0.8,0.6,1.3C572.1,74.1,571.8,74.3,571.3,74.3z M566.6,72.7c-0.1,0-0.2,0-0.3-0.1l-0.9-0.3
				c-0.5-0.2-0.8-0.7-0.6-1.3c0.2-0.5,0.7-0.8,1.3-0.6l1,0.3c0.5,0.2,0.8,0.8,0.6,1.3C567.4,72.4,567.1,72.7,566.6,72.7z
				 M561.9,71.1c-0.1,0-0.2,0-0.3-0.1l-0.9-0.3c-0.5-0.2-0.8-0.7-0.6-1.3s0.7-0.8,1.3-0.6l1,0.3c0.5,0.2,0.8,0.7,0.6,1.3
				C562.7,70.8,562.3,71.1,561.9,71.1z M557.1,69.5c-0.1,0-0.2,0-0.3,0l-1-0.3c-0.5-0.2-0.8-0.7-0.7-1.3c0.2-0.5,0.7-0.8,1.3-0.7
				l1,0.3c0.5,0.2,0.8,0.7,0.7,1.3C558,69.3,557.6,69.5,557.1,69.5z M552.4,68.1c-0.1,0-0.2,0-0.3,0l-1-0.3
				c-0.5-0.2-0.8-0.7-0.7-1.2c0.2-0.5,0.7-0.8,1.2-0.7l1,0.3c0.5,0.2,0.8,0.7,0.7,1.2C553.2,67.8,552.8,68.1,552.4,68.1z
				 M547.6,66.7c-0.1,0-0.2,0-0.3,0l-1-0.3c-0.5-0.1-0.8-0.7-0.7-1.2c0.1-0.5,0.7-0.8,1.2-0.7l1,0.3c0.5,0.1,0.8,0.7,0.7,1.2
				C548.4,66.4,548,66.7,547.6,66.7z M542.7,65.4c-0.1,0-0.2,0-0.3,0l-1-0.2c-0.5-0.1-0.9-0.7-0.7-1.2c0.1-0.5,0.7-0.9,1.2-0.7
				l1,0.3c0.5,0.1,0.9,0.7,0.7,1.2C543.6,65.1,543.2,65.4,542.7,65.4z M537.9,64.2c-0.1,0-0.2,0-0.2,0l-1-0.2
				c-0.5-0.1-0.9-0.7-0.7-1.2s0.7-0.9,1.2-0.7l1,0.2c0.5,0.1,0.9,0.7,0.7,1.2C538.7,63.9,538.3,64.2,537.9,64.2z M533,63
				c-0.1,0-0.1,0-0.2,0l-1-0.2c-0.5-0.1-0.9-0.7-0.8-1.2c0.1-0.5,0.7-0.9,1.2-0.8l1,0.2c0.5,0.1,0.9,0.7,0.8,1.2
				C533.9,62.7,533.5,63,533,63z M528.1,62c-0.1,0-0.1,0-0.2,0l-1-0.2c-0.5-0.1-0.9-0.6-0.8-1.2c0.1-0.5,0.6-0.9,1.2-0.8l1,0.2
				c0.5,0.1,0.9,0.6,0.8,1.2C529,61.6,528.6,62,528.1,62z M523.2,61c-0.1,0-0.1,0-0.2,0l-1-0.2c-0.5-0.1-0.9-0.6-0.8-1.2
				s0.6-0.9,1.2-0.8l1,0.2c0.5,0.1,0.9,0.6,0.8,1.2C524.1,60.6,523.7,61,523.2,61z M518.3,60.1c-0.1,0-0.1,0-0.2,0l-1-0.2
				c-0.5-0.1-0.9-0.6-0.8-1.2c0.1-0.5,0.6-0.9,1.2-0.8l1,0.2c0.5,0.1,0.9,0.6,0.8,1.2C519.2,59.7,518.8,60.1,518.3,60.1z
				 M513.4,59.2c-0.1,0-0.1,0-0.2,0l-1-0.2c-0.5-0.1-0.9-0.6-0.8-1.1c0.1-0.5,0.6-0.9,1.1-0.8l1,0.2c0.5,0.1,0.9,0.6,0.8,1.1
				C514.3,58.9,513.8,59.2,513.4,59.2z"/>
			<path class="st7" d="M285,44.3c-0.2,0-0.4-0.1-0.5-0.2l-0.8-0.6c-0.5-0.3-0.6-0.9-0.3-1.4c0.3-0.5,0.9-0.6,1.4-0.3l0.8,0.5
				c0.5,0.3,0.6,0.9,0.3,1.4C285.6,44.2,285.3,44.3,285,44.3z M280.8,41.5c-0.2,0-0.4-0.1-0.6-0.2l-0.8-0.6
				c-0.4-0.3-0.6-0.9-0.2-1.4c0.3-0.4,0.9-0.6,1.4-0.2l0.8,0.6c0.5,0.3,0.6,0.9,0.2,1.4C281.5,41.4,281.1,41.5,280.8,41.5z
				 M276.8,38.6c-0.2,0-0.4-0.1-0.6-0.2l-0.8-0.6c-0.4-0.3-0.5-1-0.2-1.4c0.3-0.4,1-0.5,1.4-0.2l0.8,0.6c0.4,0.3,0.5,1,0.2,1.4
				C277.4,38.4,277.1,38.6,276.8,38.6z M272.9,35.5c-0.2,0-0.4-0.1-0.6-0.2l-0.8-0.6c-0.4-0.4-0.5-1-0.1-1.4c0.4-0.4,1-0.5,1.4-0.1
				l0.8,0.6c0.4,0.3,0.5,1,0.1,1.4C273.4,35.3,273.2,35.5,272.9,35.5z M269.1,32.2c-0.2,0-0.5-0.1-0.7-0.2l-0.8-0.7
				c-0.4-0.4-0.4-1-0.1-1.4c0.4-0.4,1-0.4,1.4-0.1l0.7,0.7c0.4,0.4,0.5,1,0.1,1.4C269.6,32.1,269.3,32.2,269.1,32.2z M265.4,28.9
				c-0.2,0-0.5-0.1-0.7-0.3l-0.7-0.7c-0.4-0.4-0.4-1,0-1.4c0.4-0.4,1-0.4,1.4,0l0.7,0.7c0.4,0.4,0.4,1,0,1.4
				C265.9,28.8,265.6,28.9,265.4,28.9z M261.8,25.4c-0.3,0-0.5-0.1-0.7-0.3l-0.7-0.7c-0.4-0.4-0.4-1,0-1.4c0.4-0.4,1-0.4,1.4,0
				l0.7,0.7c0.4,0.4,0.4,1,0,1.4C262.3,25.3,262,25.4,261.8,25.4z M258.3,21.8c-0.3,0-0.5-0.1-0.7-0.3l-0.7-0.7
				c-0.4-0.4-0.3-1,0.1-1.4c0.4-0.4,1-0.3,1.4,0.1l0.7,0.7c0.4,0.4,0.3,1-0.1,1.4C258.8,21.7,258.6,21.8,258.3,21.8z M255,18
				c-0.3,0-0.6-0.1-0.8-0.4l-0.7-0.8c-0.4-0.4-0.3-1.1,0.1-1.4c0.4-0.4,1.1-0.3,1.4,0.1l0.6,0.8c0.4,0.4,0.3,1.1-0.1,1.4
				C255.5,17.9,255.3,18,255,18z M251.8,14.1c-0.3,0-0.6-0.1-0.8-0.4l-0.6-0.8c-0.3-0.4-0.3-1.1,0.2-1.4c0.4-0.3,1.1-0.3,1.4,0.2
				l0.6,0.8c0.3,0.4,0.3,1.1-0.2,1.4C252.3,14.1,252.1,14.1,251.8,14.1z M248.8,10.2c-0.3,0-0.6-0.1-0.8-0.4L247.4,9
				c-0.3-0.4-0.2-1.1,0.2-1.4c0.4-0.3,1.1-0.2,1.4,0.2l0.6,0.8c0.3,0.4,0.2,1.1-0.2,1.4C249.2,10.1,249,10.2,248.8,10.2z M245.9,6.1
				c-0.3,0-0.6-0.2-0.8-0.4l-0.6-0.8c-0.3-0.5-0.2-1.1,0.3-1.4c0.5-0.3,1.1-0.2,1.4,0.3l0.6,0.8c0.3,0.5,0.2,1.1-0.3,1.4
				C246.3,6,246.1,6.1,245.9,6.1z M243.2,1.9c-0.3,0-0.7-0.2-0.8-0.5l-0.5-0.9c-0.3-0.5-0.1-1.1,0.3-1.4c0.5-0.3,1.1-0.1,1.4,0.3
				l0.5,0.8c0.3,0.5,0.2,1.1-0.3,1.4C243.5,1.9,243.3,1.9,243.2,1.9z"/>
			<path class="st7" d="M409.7,67h-1c-0.6,0-1-0.4-1-1s0.4-1,1-1h1c0.6,0,1,0.4,1,1S410.2,67,409.7,67z"/>
			<path class="st7" d="M401.3,67h-1c-0.6,0-1-0.4-1-1s0.4-1,1-1h1c0.6,0,1,0.4,1,1S401.8,67,401.3,67z M396.3,67h-1
				c-0.6,0-1-0.4-1-1s0.4-1,1-1h1c0.6,0,1,0.4,1,1S396.8,67,396.3,67z M391.3,67h-1c-0.6,0-1-0.4-1-1s0.4-1,1-1h1c0.6,0,1,0.4,1,1
				S391.8,67,391.3,67z M386.3,67h-1c-0.6,0-1-0.4-1-1s0.4-1,1-1h1c0.6,0,1,0.4,1,1S386.8,67,386.3,67z"/>
		</g>
	</g>
	<circle class="st3" cx="713.5" cy="149.5" r="27.5"/>
	<g>
		<g>
			<path class="st5" d="M708.5,151.3C708.5,151.3,708.5,151.3,708.5,151.3C708.5,151.3,708.5,151.3,708.5,151.3
				c-0.2-2.5-1.2-4.6-3-6.1c-1.6-1.4-3.7-2.1-6-2.1c-3.4,0-5.3,1.5-6.3,2.8c-0.7-1-2-2-3.9-2.5c-0.7-0.2-1.5-0.3-2.4-0.3
				c-2.4,0-4.6,0.8-6.2,2.4c-0.2,0.2-0.3,0.3-0.5,0.5c-1.5,1.6-2.2,3.8-2.2,6.3v0c0,0,0,0,0,0v0c0,2.4,0.6,4.4,1.8,6.5
				c0.9,1.5,2.4,3.1,4.7,4.9c2.8,2.3,5.9,4.2,7.4,5.1c0.2,0.1,0.4,0.3,0.6,0.3c0.2,0.2,0.5,0.2,0.8,0.2c0.3,0,0.6-0.1,0.8-0.2
				c0.1-0.1,0.3-0.2,0.6-0.3c0,0,0.1-0.1,0.1-0.1c0.1,0,0.2-0.1,0.2-0.1c0,0,0.1-0.1,0.1-0.1c0.3-0.2,0.6-0.3,0.9-0.5c0,0,0,0,0,0
				c0.9-0.6,1.7-1.1,2.5-1.7c4.2-2.9,6.9-5.4,8.2-7.6c1.2-2.1,1.8-4.1,1.8-6.5C708.5,151.9,708.5,151.6,708.5,151.3z M695.9,149.5
				c0.2,0.3,0.4,0.6,0.5,1h-5c-0.1,0-0.2,0-0.3,0c0.6-0.4,1-1,1.1-1.6L695.9,149.5z M688.4,147.6c0-0.8,0.3-1.5,0.9-2.1l0.2-0.2
				c0.9,0.3,1.6,0.9,2.1,1.4c-0.2,0-0.5,0.1-0.6,0.3c-0.3,0.3-0.5,0.7-0.5,1.1c0,0.5-0.4,0.9-0.9,0.9h-0.7c-0.2,0-0.4-0.2-0.4-0.4
				V147.6z M685.3,159.7c0,0.6-0.1,1.3-0.4,1.8c-1.6-1.4-2.8-2.7-3.4-3.7c-0.8-1.4-1.3-2.7-1.4-4.1c0.1,0.1,0.3,0.2,0.4,0.4l0.7,0.7
				c0.5,0.5,1.1,0.7,1.7,0.7c0.6,0,1.1,0.2,1.5,0.6l0,0c0.6,0.6,1,1.5,1,2.4V159.7z M693.6,167.2c-0.1,0.1-0.3,0.2-0.4,0.2
				c-0.1-0.1-0.2-0.1-0.4-0.2c0,0-0.1-0.1-0.1-0.1c0,0,0,0,0,0c0,0-0.1,0-0.1-0.1c0,0-0.1,0-0.1-0.1c0,0,0,0-0.1,0
				c0,0-0.1,0-0.1-0.1c0,0,0,0-0.1,0c0,0-0.1,0-0.1-0.1c0,0,0,0-0.1,0c0,0-0.1,0-0.1-0.1c0,0-0.1,0-0.1,0c0,0-0.1,0-0.1-0.1
				c0,0,0,0-0.1,0c0,0-0.1,0-0.1-0.1c0,0-0.1,0-0.1,0c0,0-0.1,0-0.1-0.1c0,0-0.1,0-0.1-0.1c0,0-0.1,0-0.1-0.1c0,0-0.1,0-0.1-0.1
				c0,0-0.1-0.1-0.1-0.1c0,0,0,0-0.1,0c-0.1-0.1-0.2-0.1-0.3-0.2c0,0-0.1,0-0.1-0.1c0,0-0.1,0-0.1-0.1c0,0-0.1,0-0.1-0.1
				c0,0-0.1-0.1-0.1-0.1c0,0-0.1,0-0.1-0.1c0,0-0.1-0.1-0.1-0.1c0,0-0.1,0-0.1-0.1c0,0-0.1-0.1-0.1-0.1c0,0-0.1,0-0.1-0.1
				c0,0-0.1-0.1-0.1-0.1c0,0-0.1-0.1-0.1-0.1c0,0-0.1-0.1-0.1-0.1c0,0-0.1-0.1-0.1-0.1c0,0-0.1-0.1-0.1-0.1c0,0-0.1-0.1-0.1-0.1
				c0,0-0.1-0.1-0.1-0.1c0,0-0.1-0.1-0.1-0.1c0,0-0.1-0.1-0.1-0.1c0,0-0.1-0.1-0.1-0.1c0,0-0.1,0-0.1-0.1c-0.1-0.1-0.1-0.1-0.2-0.2
				c0,0,0,0-0.1-0.1c-0.1,0-0.1-0.1-0.2-0.1c0,0-0.1,0-0.1-0.1c-0.1,0-0.1-0.1-0.2-0.1c0,0-0.1,0-0.1-0.1c0,0-0.1-0.1-0.1-0.1
				c0,0-0.1-0.1-0.1-0.1c0,0-0.1-0.1-0.1-0.1c0,0-0.1-0.1-0.1-0.1c0,0-0.1-0.1-0.1-0.1c0,0-0.1-0.1-0.1-0.1c0,0-0.1-0.1-0.1-0.1
				c0,0-0.1-0.1-0.1-0.1c0,0-0.1-0.1-0.1-0.1c0,0-0.1-0.1-0.1-0.1c0,0,0,0,0,0c0.5-0.9,0.8-2,0.8-3.1v-1.3c0-1.4-0.5-2.7-1.5-3.7
				l0,0c-0.8-0.8-1.8-1.2-2.8-1.2c-0.1,0-0.3-0.1-0.4-0.1l-0.7-0.7c-0.5-0.5-1.1-0.9-1.8-1.2c0,0,0-0.1,0-0.1c0-0.1,0-0.1,0-0.2
				c0-0.1,0-0.1,0-0.2c0-0.1,0-0.1,0-0.2c0-0.1,0-0.1,0-0.2c0-0.1,0-0.1,0-0.2c0-0.1,0-0.1,0-0.2c0-0.1,0-0.1,0-0.2
				c0-0.1,0-0.1,0.1-0.2c0-0.1,0-0.1,0.1-0.2c0-0.1,0-0.1,0.1-0.2c0-0.1,0-0.1,0.1-0.2c0-0.1,0-0.1,0.1-0.2c0-0.1,0-0.1,0.1-0.2
				c0-0.1,0.1-0.1,0.1-0.2c0,0,0-0.1,0.1-0.1c0-0.1,0.1-0.1,0.1-0.2c0,0,0-0.1,0.1-0.1c0-0.1,0.1-0.1,0.1-0.2c0,0,0-0.1,0.1-0.1
				c0-0.1,0.1-0.1,0.1-0.2c0,0,0,0,0-0.1c0.1-0.1,0.1-0.2,0.2-0.3c0,0,0-0.1,0.1-0.1c0-0.1,0.1-0.1,0.1-0.2c0,0,0.1-0.1,0.1-0.1
				c0,0,0.1-0.1,0.1-0.1c0,0,0.1-0.1,0.1-0.1c0,0,0.1-0.1,0.1-0.1c0,0,0.1-0.1,0.1-0.1c0,0,0.1-0.1,0.1-0.1c0,0,0.1-0.1,0.1-0.1
				c0,0,0.1-0.1,0.1-0.1c0,0,0.1-0.1,0.1-0.1c0,0,0.1-0.1,0.1-0.1c0,0,0.1-0.1,0.1-0.1c0,0,0.1-0.1,0.1-0.1c0,0,0.1-0.1,0.1-0.1
				c0,0,0.1-0.1,0.1-0.1c0,0,0.1,0,0.1-0.1c0.1,0,0.1-0.1,0.2-0.1c0,0,0.1,0,0.1-0.1c0.1,0,0.1,0,0.2-0.1c0,0,0.1,0,0.1-0.1
				c0.1,0,0.1,0,0.2-0.1c0,0,0.1,0,0.1,0c0.1,0,0.1,0,0.2-0.1c0,0,0.1,0,0.1,0c0.1,0,0.1,0,0.2,0c0,0,0.1,0,0.1,0c0.1,0,0.1,0,0.2,0
				c0,0,0.1,0,0.1,0c0.1,0,0.1,0,0.2,0c0,0,0.1,0,0.1,0c0.1,0,0.1,0,0.2,0c0,0,0.1,0,0.1,0c0.1,0,0.1,0,0.2,0c0,0,0.1,0,0.1,0
				c0.1,0,0.1,0,0.2,0c0,0,0.1,0,0.1,0c0.1,0,0.2,0,0.3,0c0.1,0,0.2,0,0.3,0c0,0,0,0,0,0c-0.5,0.8-0.8,1.7-0.8,2.7v1
				c0,1.3,1,2.3,2.3,2.3h0.7c0,0,0,0,0,0c-1.1,0.6-1.8,1.8-1.8,3.1v1.1c0,1.9,1.5,3.5,3.4,3.6v1.7c0,1.4,0.5,2.7,1.5,3.6l0.3,0.3
				c0.2,0.2,0.3,0.5,0.3,0.7c0,0.7,0.2,1.3,0.6,1.8C693.8,167.1,693.7,167.2,693.6,167.2z M705.8,156.4c0,0.1-0.1,0.1-0.1,0.2
				c0,0,0,0.1-0.1,0.1c0,0.1-0.1,0.1-0.1,0.2c0,0,0,0.1-0.1,0.1c0,0.1-0.1,0.2-0.1,0.2c0,0,0,0.1-0.1,0.1c-0.1,0.1-0.1,0.2-0.2,0.3
				c0,0.1-0.1,0.1-0.1,0.2c0,0,0,0,0,0.1c0,0.1-0.1,0.1-0.1,0.2c0,0,0,0,0,0.1c0,0.1-0.1,0.1-0.2,0.2c0,0,0,0,0,0
				c-0.1,0.1-0.1,0.2-0.2,0.2c0,0,0,0-0.1,0.1c0,0.1-0.1,0.1-0.1,0.2c0,0,0,0-0.1,0.1c-0.1,0.1-0.1,0.1-0.2,0.2c0,0,0,0,0,0
				c-0.1,0.1-0.1,0.2-0.2,0.2c0,0,0,0-0.1,0.1c-0.1,0.1-0.1,0.1-0.2,0.2c0,0,0,0.1-0.1,0.1c-0.1,0.1-0.1,0.1-0.2,0.2c0,0,0,0,0,0
				c-0.1,0.1-0.2,0.2-0.3,0.3c0,0-0.1,0.1-0.1,0.1c-0.1,0.1-0.1,0.1-0.2,0.2c0,0-0.1,0.1-0.1,0.1c-0.1,0.1-0.2,0.1-0.2,0.2
				c0,0,0,0,0,0c-0.1,0.1-0.2,0.2-0.3,0.3c0,0-0.1,0.1-0.1,0.1c-0.1,0.1-0.1,0.1-0.2,0.2c0,0-0.1,0.1-0.1,0.1
				c-0.1,0.1-0.2,0.1-0.3,0.2c0,0,0,0-0.1,0.1c-0.1,0.1-0.2,0.2-0.3,0.3c0,0,0,0,0,0c0.3-0.5,0.7-1,1.1-1.4l0.8-0.8
				c0.6-0.6,0.8-1.5,0.5-2.3c-0.2-0.5-0.6-0.9-1.1-1.1v-0.2c0-0.1,0-0.2,0-0.3c0.6,0.5,1.3,0.7,2.1,0.7
				C704.8,156.7,705.3,156.6,705.8,156.4C705.8,156.4,705.8,156.4,705.8,156.4z M705.8,150.4c-0.4,0-0.8,0.2-1,0.6c0,0,0,0,0,0
				c-0.2,0.4-0.1,0.8,0.2,1.1l0.2,0.2c0.3,0.3,0.4,0.6,0.4,1c0,0.4-0.1,0.7-0.4,1c-0.3,0.3-0.6,0.4-1,0.4c-0.4,0-0.7-0.1-1-0.4
				l-0.6-0.6c-0.7-0.7-1.6-1.2-2.6-1.3c-0.4-0.1-0.8,0.1-1,0.5c-0.2,0.4-0.1,0.8,0.2,1.1l0.2,0.2c0.5,0.5,0.8,1.3,0.8,2v0.8
				c0,0.6,0.5,1,1,1c0.1,0,0.1,0,0.2,0.1c0,0.1,0,0.2,0,0.2l-0.8,0.8c-0.6,0.6-1.2,1.3-1.6,2.1l-0.7,1.2c0,0,0,0,0,0l-0.9,1.5
				c-0.1,0.2-0.3,0.5-0.3,0.8c-0.5,0.4-1.1,0.7-1.6,1.1c-0.2-0.2-0.3-0.5-0.3-0.8c0-0.8-0.3-1.5-0.9-2.1l-0.3-0.3
				c-0.6-0.6-1-1.4-1-2.3v-2.2c0-0.8-0.7-1.5-1.5-1.5h-0.3c-0.9,0-1.6-0.7-1.6-1.6v-1.1c0-1,0.8-1.7,1.7-1.7h6.1c0.5,0,1-0.4,1-1
				v-0.1c0-1.3-0.5-2.5-1.4-3.4c-0.1-0.1-0.3-0.2-0.5-0.3l-2-0.4c0.7-1,2.2-2.4,5-2.4c3,0,6.1,1.7,6.9,5.5H705.8z"/>
		</g>
	</g>
	<g>
		<g>
			<g>
				<polygon class="st7" points="759.1,98.6 770.9,61.1 771.5,9.9 810,20 809.1,99.2 				"/>
				<path class="st11" d="M809.1,100.2C809.1,100.2,809.1,100.2,809.1,100.2l-50-0.6c-0.3,0-0.6-0.2-0.8-0.4
					c-0.2-0.2-0.2-0.6-0.1-0.8L770,61l0.6-51c0-0.3,0.1-0.6,0.4-0.7c0.2-0.2,0.5-0.2,0.8-0.2l38.5,10c0.4,0.1,0.7,0.5,0.7,0.9
					l-0.9,79.2c0,0.3-0.1,0.5-0.3,0.7C809.6,100.1,809.4,100.2,809.1,100.2z M760.4,97.7l47.8,0.6l0.9-77.5l-36.6-9.5l-0.6,50
					c0,0.1,0,0.2,0,0.3L760.4,97.7z"/>
			</g>
		</g>
		<path class="st6" d="M833.5,81.8l-0.3,41.3l-1.7-0.1c-3.6-3.2-7.5-5.3-11.6-5.3c-6.3-0.1-11.5,5.6-11.9,12.8l0,0
			c0,0.1,0,0.2,0,0.3c0,0.1,0,0.2,0,0.3l0,0c0.2,7.2,5.3,13,11.7,13c4.1,0,8.1-1.9,11.7-5.1l1.7,0l-0.3,41.1l-41.1-0.3l0,1.4
			c3.2,3.6,5.1,7.6,5.1,11.7c-0.1,6.3-5.9,11.4-13.1,11.6l0,0c-0.1,0-0.2,0-0.3,0c-0.1,0-0.2,0-0.3,0l0,0
			c-7.2-0.4-12.8-5.6-12.8-11.9c0.1-4.1,2.1-8,5.4-11.6l0.1-1.3l-41.3-0.3l0.3-41.1l1,0c3.6,3.2,7.5,5.3,11.6,5.3
			c6.3,0,11.5-5.7,11.9-12.8l0,0c0-0.1,0-0.2,0-0.3c0-0.1,0-0.2,0-0.3l0,0c-0.2-7.2-5.3-12.9-11.7-13c-4.1,0-8.1,2-11.7,5.1l-1,0
			l0.3-41.3l41.4,0.3L833.5,81.8z"/>
		<g>
			<path class="st7" d="M815.1,106.2L787,130.6l-2.2-8.8c-0.2-0.8-0.3-1.5-0.3-2.3c-0.1-2.7,0.6-5.4,2.1-7.7l15.2-17.8l-2.9-7
				c-21.7-8.2-15.3-31.9-15.2-42.1l32.6-0.1c0,10,4.5,36.3,4.4,49.2C820.7,98.7,818.6,103.1,815.1,106.2z"/>
			<path class="st11" d="M787,131.6c-0.1,0-0.2,0-0.3,0c-0.3-0.1-0.6-0.4-0.6-0.7l-2.2-8.8c-0.2-0.8-0.3-1.6-0.4-2.5
				c-0.2-2.9,0.6-5.8,2.2-8.2c0,0,0-0.1,0.1-0.1l14.8-17.3l-2.5-6.1c-18.5-7.3-16.8-26-15.8-37.2c0.2-2.2,0.4-4.1,0.4-5.7
				c0-0.5,0.4-0.9,1-0.9l32.6-0.1c0.3,0,0.5,0.1,0.7,0.3c0.2,0.2,0.3,0.4,0.3,0.7c0,4.6,1,12.7,2,21.3c1.2,10.3,2.5,20.9,2.4,27.9
				c0,4.9-2.2,9.6-5.9,12.8c0,0,0,0,0,0l-28.1,24.5C787.5,131.5,787.2,131.6,787,131.6z M787.4,112.5c-1.4,2.1-2,4.5-1.9,7
				c0,0.8,0.1,1.5,0.3,2.1l1.8,7.3l26.9-23.4l0,0c3.3-2.9,5.2-7,5.3-11.4c0.1-6.9-1.2-17.4-2.4-27.7c-1-8.1-1.9-15.7-2-20.5
				l-30.7,0.1c-0.1,1.4-0.2,3.1-0.4,4.9c-1,11.4-2.6,28.7,15,35.4c0.2,0.1,0.4,0.3,0.5,0.5l2.9,7c0.1,0.3,0.1,0.7-0.2,1L787.4,112.5
				z M815.1,106.2L815.1,106.2L815.1,106.2z"/>
		</g>
		<polygon class="st5" points="823.2,0 823.2,54.6 765.8,54.5 765.8,0 		"/>
		
			<linearGradient id="SVGID_4_" gradientUnits="userSpaceOnUse" x1="773.365" y1="30.618" x2="755.0862" y2="-36.6592" gradientTransform="matrix(4.489700e-11 -1 -1 -4.489700e-11 791.4985 791.4985)">
			<stop  offset="0" style="stop-color:#A374AF;stop-opacity:0"/>
			<stop  offset="0.2064" style="stop-color:#A26BAC;stop-opacity:0.1238"/>
			<stop  offset="0.5467" style="stop-color:#9F52A5;stop-opacity:0.328"/>
			<stop  offset="0.9768" style="stop-color:#9B299A;stop-opacity:0.5861"/>
			<stop  offset="1" style="stop-color:#9B2799;stop-opacity:0.6"/>
		</linearGradient>
		<polygon class="st12" points="823.2,0 823.2,54.6 765.8,54.5 765.8,0 		"/>
	</g>
	<g>
		<g>
			<path class="st7" d="M3.8,170L5,155.5c0.2-2.6,1.3-5,3.1-6.8l13.4-14l2.3,15.9l-6.4,22.2L3.8,170z"/>
			<path class="st11" d="M17.5,173.6c-0.1,0-0.1,0-0.2,0l-13.7-2.8c-0.4-0.1-0.7-0.5-0.7-0.9l1.2-14.5c0.2-2.8,1.4-5.4,3.3-7.4
				l13.4-14c0.2-0.2,0.6-0.3,0.9-0.2c0.3,0.1,0.5,0.4,0.6,0.7l2.3,15.9c0,0.1,0,0.2,0,0.4L18.3,173
				C18.2,173.4,17.9,173.6,17.5,173.6z M4.7,169.3l12.2,2.5l6.1-21.3l-2.1-14L8.7,149.3c-1.6,1.7-2.7,4-2.9,6.3L4.7,169.3z"/>
		</g>
		<path class="st7" d="M68.9,187.2l-1.8-0.7c-7.1-2.9-15.3,0.6-18.2,7.7l-3.3,8.1c-2.9,7.1,0.6,15.3,7.7,18.2l1.8,0.7
			c7.1,2.9,15.3-0.6,18.2-7.7l3.3-8.1C79.5,198.3,76,190.1,68.9,187.2z"/>
		<g>
			<path class="st5" d="M63.5,147.1L63.5,147.1l-5.4-55c-30.4,3-52.6,29.9-49.6,60.3c3,30.4,29.9,52.6,60.3,49.6
				c15.2-1.5,28.3-8.9,37.3-19.8L63.5,147.1L63.5,147.1z"/>
			<path class="st6" d="M124.7,137c-3-30.4-29.9-52.6-60.3-49.6l5.3,55l0.1,0l-0.1,0.1l42.6,35C121.4,166.5,126.2,152.2,124.7,137z"
				/>
		</g>
		<g>
			<path class="st7" d="M12.3,170.2l8.9-31.4l0,0c6.8,2.3,11.1,9,10.4,16.2l-1.9,17.8c0,0,20,15.2,19.1,33.1
				c-0.1,2.1,0.8-2.1,0.8-2.1c5.4-0.8,18.2-3.2,18.6-3.3c0.5,0-11.3,43.7-11.3,43.7l-42.2-6.4l1.7-16L6.3,205.6
				c-4-6.4-5.9-13.8-4.2-22.2l1.8-14.8"/>
			<path class="st11" d="M56.9,245.1c0,0-0.1,0-0.1,0l-42.2-6.4c-0.5-0.1-0.8-0.5-0.7-0.9l1.7-15.7l-9.9-16
				c-4.5-7.2-5.9-14.9-4.3-22.8l1.8-14.8c0.1-0.5,0.5-0.8,1-0.7c0.5,0.1,0.8,0.5,0.7,1l-1.8,14.8c-1.5,7.5-0.1,14.8,4.1,21.6
				l10.1,16.3c0.1,0.2,0.1,0.3,0.1,0.5l-1.6,15.2l40.6,6.2c4-15.1,9.8-36.7,10.9-41.7c-0.8,0.1-2,0.4-3.3,0.6
				c-4,0.7-10,1.8-13.5,2.4c-0.5,2.2-0.7,2.8-1.6,2.7c-0.8-0.1-0.8-1-0.8-1.5c0.8-17.2-18.6-32.2-18.8-32.3
				c-0.2-0.2-0.4-0.5-0.3-0.8l1.9-17.8c0.7-6.5-3-12.5-8.9-15l-8.7,30.5c-0.1,0.5-0.6,0.7-1.1,0.6c-0.5-0.1-0.7-0.6-0.6-1.1
				l8.9-31.4c0.1-0.2,0.2-0.4,0.4-0.5s0.4-0.1,0.7-0.1c7.2,2.4,11.7,9.5,10.9,17.1l-1.9,17.4c2.7,2.1,17.9,14.9,19,30.5
				c3.5-0.5,9.7-1.7,13.9-2.4c3.8-0.7,4.4-0.8,4.6-0.8c0.3,0,0.5,0.1,0.7,0.3c0.4,0.4,0.6,0.8-11.1,44.5
				C57.6,244.9,57.3,245.1,56.9,245.1z"/>
		</g>
		<polygon class="st6" points="60.4,280 66.5,233.3 9.6,225.1 2,280 		"/>
		
			<linearGradient id="SVGID_5_" gradientUnits="userSpaceOnUse" x1="-15.8884" y1="241.6145" x2="58.5606" y2="241.6145" gradientTransform="matrix(0.9652 -0.2615 0.2615 0.9652 -50.5256 25.4)">
			<stop  offset="0" style="stop-color:#005EB8"/>
			<stop  offset="3.705311e-02" style="stop-color:#005EB8;stop-opacity:0.9629"/>
			<stop  offset="1" style="stop-color:#005EB8;stop-opacity:0"/>
		</linearGradient>
		<polygon class="st13" points="60.4,280 66.5,233.3 9.6,225.1 2,280 		"/>
	</g>
</g>
</svg>
