<svg width="385" height="248" viewBox="0 0 385 248" fill="none" xmlns="http://www.w3.org/2000/svg">
<g clip-path="url(#clip0_1641_4924)">
<mask id="mask0_1641_4924" style="mask-type:alpha" maskUnits="userSpaceOnUse" x="-147" y="107" width="680" height="216">
<rect x="-146.932" y="107.542" width="679.261" height="215.458" fill="url(#paint0_linear_1641_4924)"/>
</mask>
<g mask="url(#mask0_1641_4924)">
<path d="M781.073 271.09H-461.517L-68.8972 87.0808H390.323L781.073 271.09Z" stroke="#D9EAFB" stroke-miterlimit="10"/>
<path d="M725.982 245.197H-397.081L-82.1784 89.4435H410.981L725.982 245.197Z" stroke="#D9EAFB" stroke-miterlimit="10"/>
<path d="M679.941 223.537H-360.485L-111.003 93.6773H430.459L679.941 223.537Z" stroke="#D9EAFB" stroke-miterlimit="10"/>
<path d="M639.213 205.126H-320.446L-124.284 97.3199H443.051L639.213 205.126Z" stroke="#D9EAFB" stroke-miterlimit="10"/>
<path d="M608.324 189.275H-286.604L-138.154 102.932H459.973L608.324 189.275Z" stroke="#D9EAFB" stroke-miterlimit="10"/>
<path d="M577.533 175.492H-254.927L-144.549 107.264H467.155L577.533 175.492Z" stroke="#D9EAFB" stroke-miterlimit="10"/>
<path d="M441.379 163.874H-232.203L-126.153 113.762H365.433L441.379 163.874Z" stroke="#D9EAFB" stroke-miterlimit="10"/>
<path d="M529.918 152.749H-209.674L-139.532 120.161H483.682L529.918 152.749Z" stroke="#D9EAFB" stroke-miterlimit="10"/>
<path d="M510.046 143.298H-188.72L-156.256 127.25H476.992L510.046 143.298Z" stroke="#D9EAFB" stroke-miterlimit="10"/>
<path d="M379.501 87.0807H-56.8953L-428.954 271.09H751.56L379.501 87.0807Z" stroke="#D9EAFB" stroke-miterlimit="10"/>
<path d="M368.581 87.0807H-45.9763L-399.442 271.09H722.047L368.581 87.0807Z" stroke="#D9EAFB" stroke-miterlimit="10"/>
<path d="M356.875 87.0808H-34.8594L-369.929 271.09H692.534L356.875 87.0808Z" stroke="#D9EAFB" stroke-miterlimit="10"/>
<path d="M346.643 87.0808H-24.1365L-340.416 271.09H662.824L346.643 87.0808Z" stroke="#D9EAFB" stroke-miterlimit="10"/>
<path d="M335.429 87.0808H-12.823L-310.903 271.09H633.509L335.429 87.0808Z" stroke="#D9EAFB" stroke-miterlimit="10"/>
<path d="M324.213 87.0808H-1.60871L-281.391 271.09H603.995L324.213 87.0808Z" stroke="#D9EAFB" stroke-miterlimit="10"/>
<path d="M314.179 87.0808H8.81948L-251.877 271.09H574.483L314.179 87.0808Z" stroke="#D9EAFB" stroke-miterlimit="10"/>
<path d="M302.472 87.0808H20.1326L-222.365 271.09H544.871L302.472 87.0808Z" stroke="#D9EAFB" stroke-miterlimit="10"/>
<path d="M290.766 87.0808H31.0527L-192.852 271.09H513.194L290.766 87.0808Z" stroke="#D9EAFB" stroke-miterlimit="10"/>
<path d="M281.322 87.0808H41.4804L-163.339 271.09H485.944L281.322 87.0808Z" stroke="#D9EAFB" stroke-miterlimit="10"/>
<path d="M269.713 87.0808H52.2032L-133.826 271.09H454.562L269.713 87.0808Z" stroke="#D9EAFB" stroke-miterlimit="10"/>
<path d="M259.285 87.0807H63.3195L-104.313 271.09H426.918L259.285 87.0807Z" stroke="#D9EAFB" stroke-miterlimit="10"/>
<path d="M247.678 87.0811H74.4374L-74.7993 271.09H396.029L247.678 87.0811Z" stroke="#D9EAFB" stroke-miterlimit="10"/>
<path d="M226.625 87.0811H96.4738L-15.7734 271.09H339.758L226.625 87.0811Z" stroke="#D9EAFB" stroke-miterlimit="10"/>
<path d="M237.348 87.0811H85.2586L-45.2866 271.09H367.893L237.348 87.0811Z" stroke="#D9EAFB" stroke-miterlimit="10"/>
<path d="M215.705 85.9978L107.295 87.0808L13.7388 271.09H309.851L215.705 85.9978Z" stroke="#D9EAFB" stroke-miterlimit="10"/>
<path d="M204.491 87.0811H118.116L43.252 271.09H279.355L204.491 87.0811Z" stroke="#D9EAFB" stroke-miterlimit="10"/>
<path d="M193.866 87.0811H128.741L72.7646 271.09H249.842L193.866 87.0811Z" stroke="#D9EAFB" stroke-miterlimit="10"/>
<path d="M182.75 87.0811H139.956L103.458 269.22H219.641L182.75 87.0811Z" stroke="#D9EAFB" stroke-miterlimit="10"/>
<path d="M172.026 86.5887H150.482L131.987 269.22H190.226L172.026 86.5887Z" stroke="#D9EAFB" stroke-miterlimit="10"/>
<path d="M160.91 87.0811H128.544L72.7646 271.09H160.123L160.91 87.0811Z" stroke="#D9EAFB" stroke-miterlimit="10"/>
<path d="M516.047 163.874H-233.088L-126.153 113.762H419.835L516.047 163.874Z" stroke="#D9EAFB" stroke-miterlimit="10"/>
<path d="M-168.947 134.732H497.158H-168.947Z" stroke="#D9EAFB" stroke-miterlimit="10"/>
</g>
<mask id="mask1_1641_4924" style="mask-type:alpha" maskUnits="userSpaceOnUse" x="-139" y="-85" width="664" height="211">
<rect x="524.633" y="125.376" width="662.983" height="210.295" transform="rotate(180 524.633 125.376)" fill="url(#paint1_linear_1641_4924)"/>
</mask>
<g mask="url(#mask1_1641_4924)">
<path d="M-432.427 -79.3853H780.385L397.174 100.214H-51.0406L-432.427 -79.3853Z" stroke="#D9EAFB" stroke-miterlimit="10"/>
<path d="M-378.656 -54.1126H717.492L410.137 97.9079H-71.2049L-378.656 -54.1126Z" stroke="#D9EAFB" stroke-miterlimit="10"/>
<path d="M-333.719 -32.9722H681.774L438.271 93.7756H-90.2159L-333.719 -32.9722Z" stroke="#D9EAFB" stroke-miterlimit="10"/>
<path d="M-293.967 -15.0023H642.695L451.234 90.2204H-102.506L-293.967 -15.0023Z" stroke="#D9EAFB" stroke-miterlimit="10"/>
<path d="M-263.817 0.468529H609.664L464.772 84.7428H-119.021L-263.817 0.468529Z" stroke="#D9EAFB" stroke-miterlimit="10"/>
<path d="M-233.764 13.9218H578.746L471.013 80.5148H-126.031L-233.764 13.9218Z" stroke="#D9EAFB" stroke-miterlimit="10"/>
<path d="M-100.874 25.2609H556.566L453.058 74.1727H-26.7472L-100.874 25.2609Z" stroke="#D9EAFB" stroke-miterlimit="10"/>
<path d="M-187.291 36.1194H534.577L466.116 67.9264H-142.162L-187.291 36.1194Z" stroke="#D9EAFB" stroke-miterlimit="10"/>
<path d="M-167.895 45.3447H514.125L482.439 61.008H-135.633L-167.895 45.3447Z" stroke="#D9EAFB" stroke-miterlimit="10"/>
<path d="M-40.4775 100.214H385.461L748.604 -79.3852H-403.62L-40.4775 100.214Z" stroke="#D9EAFB" stroke-miterlimit="10"/>
<path d="M-29.82 100.214H374.802L719.797 -79.3853H-374.815L-29.82 100.214Z" stroke="#D9EAFB" stroke-miterlimit="10"/>
<path d="M-18.3939 100.214H363.952L690.992 -79.3853H-346.01L-18.3939 100.214Z" stroke="#D9EAFB" stroke-miterlimit="10"/>
<path d="M-8.40757 100.214H353.487L662.187 -79.3852H-317.011L-8.40757 100.214Z" stroke="#D9EAFB" stroke-miterlimit="10"/>
<path d="M2.53805 100.214H342.444L633.38 -79.3853H-288.398L2.53805 100.214Z" stroke="#D9EAFB" stroke-miterlimit="10"/>
<path d="M13.4846 100.214H331.498L604.575 -79.3853H-259.592L13.4846 100.214Z" stroke="#D9EAFB" stroke-miterlimit="10"/>
<path d="M23.2779 100.214H321.32L575.769 -79.3852H-230.787L23.2779 100.214Z" stroke="#D9EAFB" stroke-miterlimit="10"/>
<path d="M34.7045 100.214H310.278L546.964 -79.3853H-201.885L34.7045 100.214Z" stroke="#D9EAFB" stroke-miterlimit="10"/>
<path d="M46.1311 100.214H299.62L518.159 -79.3853H-170.967L46.1311 100.214Z" stroke="#D9EAFB" stroke-miterlimit="10"/>
<path d="M55.3484 100.214H289.442L489.353 -79.3852H-144.37L55.3484 100.214Z" stroke="#D9EAFB" stroke-miterlimit="10"/>
<path d="M66.679 100.214H278.976L460.547 -79.3852H-113.74L66.679 100.214Z" stroke="#D9EAFB" stroke-miterlimit="10"/>
<path d="M76.8568 100.214H268.126L431.742 -79.3853H-86.7589L76.8568 100.214Z" stroke="#D9EAFB" stroke-miterlimit="10"/>
<path d="M88.1885 100.214H257.277L402.938 -79.3856H-56.6076L88.1885 100.214Z" stroke="#D9EAFB" stroke-miterlimit="10"/>
<path d="M108.736 100.214H235.769L345.326 -79.3856H-1.68511L108.736 100.214Z" stroke="#D9EAFB" stroke-miterlimit="10"/>
<path d="M98.2694 100.214H246.714L374.131 -79.3856H-29.1473L98.2694 100.214Z" stroke="#D9EAFB" stroke-miterlimit="10"/>
<path d="M119.395 101.271L225.207 100.214L316.521 -79.3854H27.5049L119.395 101.271Z" stroke="#D9EAFB" stroke-miterlimit="10"/>
<path d="M130.34 100.214H214.644L287.714 -79.3856H57.2697L130.34 100.214Z" stroke="#D9EAFB" stroke-miterlimit="10"/>
<path d="M140.71 100.214H204.275L258.909 -79.3856H86.0757L140.71 100.214Z" stroke="#D9EAFB" stroke-miterlimit="10"/>
<path d="M151.56 100.214H193.328L228.951 -77.5598H115.553L151.56 100.214Z" stroke="#D9EAFB" stroke-miterlimit="10"/>
<path d="M162.026 100.694H183.054L201.106 -77.5597H144.263L162.026 100.694Z" stroke="#D9EAFB" stroke-miterlimit="10"/>
<path d="M172.876 100.214H204.467L258.909 -79.3856H173.645L172.876 100.214Z" stroke="#D9EAFB" stroke-miterlimit="10"/>
<path d="M-173.751 25.2609H557.431L453.058 74.1727H-79.8449L-173.751 25.2609Z" stroke="#D9EAFB" stroke-miterlimit="10"/>
<path d="M494.826 53.7047H-155.316H494.826Z" stroke="#D9EAFB" stroke-miterlimit="10"/>
</g>
<path d="M250.861 134.278C250.843 134.278 250.829 134.278 250.811 134.278L248.636 134.13C248.238 134.103 247.935 133.76 247.963 133.36C247.99 132.963 248.333 132.662 248.736 132.689L250.911 132.837C251.308 132.864 251.611 133.207 251.584 133.607C251.557 133.986 251.241 134.278 250.861 134.278Z" fill="#EFD8BC"/>
<path d="M251.25 141.181C251.223 141.181 251.192 141.181 251.16 141.177L248.804 140.893C248.406 140.843 248.126 140.488 248.171 140.091C248.221 139.695 248.583 139.411 248.976 139.461L251.332 139.745C251.73 139.794 252.01 140.15 251.965 140.546C251.924 140.915 251.612 141.181 251.25 141.181Z" fill="#EFD8BC"/>
<path d="M251.241 148.035C251.2 148.035 251.16 148.031 251.115 148.026L248.976 147.653C248.583 147.585 248.32 147.211 248.388 146.82C248.456 146.428 248.831 146.167 249.225 146.234L251.363 146.608C251.757 146.675 252.019 147.049 251.951 147.441C251.892 147.788 251.585 148.035 251.241 148.035Z" fill="#EFD8BC"/>
<path d="M228.27 267.467C225.485 268.503 213.784 270.316 206.132 270.316C201.557 270.316 195.091 267.114 190.708 266.432C189.842 258.499 188.976 230.482 188.976 230.482L219.929 226.243C219.929 226.243 231.056 266.432 228.27 267.467Z" fill="#C6DFDD"/>
<path d="M216.334 267.468C212.785 267.909 209.171 270.214 205.502 270.214C197.017 270.214 179.914 269.737 172.166 267.468C172.166 251.178 180.656 230.534 180.656 230.534L211.877 231.748L214.105 249.608L216.334 267.468Z" fill="#C6DFDD"/>
<path d="M129.631 177.95C131.553 183.318 133.583 188.649 135.704 193.94C137.141 197.529 138.615 201.105 140.234 204.613C141.441 207.238 145.23 212.678 149.39 212.376C149.39 212.376 160.751 213.384 167.557 211.349C169.402 210.798 172.182 209.643 172.182 209.643C172.182 209.643 179.046 209.548 179.552 209.643C180.841 209.886 179.909 207.711 180.664 206.896L178.349 177.977C178.349 177.977 170.604 181.723 168.936 183.264C165.558 186.389 154.852 191.284 153.889 191.045C152.921 190.806 141.821 166.526 141.821 166.526L129.631 177.95Z" fill="#FBF0DF"/>
<path d="M271.082 101.02C270.232 100.759 266.786 103.132 264.132 105.379C261.478 107.626 257.576 109.675 256.853 110.197C256.129 110.719 255.442 112.642 255.013 113.719C254.683 114.552 252.833 118.951 252.02 120.896C253.959 124.332 255.94 127.746 258.105 131.042C259.597 127.827 261.221 124.359 261.383 124.134C261.876 123.45 264.991 121.531 265.973 120.162C266.958 118.794 267.844 118.046 267.483 117.1C267.125 116.155 267.125 116.155 267.944 115.015C268.762 113.876 267.912 113.615 267.392 112.894C266.868 112.174 268.016 110.58 267.89 109.796C267.759 109.013 265.728 108.945 265.502 108.783C265.272 108.621 271.534 103.767 271.864 103.312C272.19 102.848 271.932 101.281 271.082 101.02Z" fill="#FFA694"/>
<path d="M258.77 120.726C258.969 120.834 259.223 120.762 259.336 120.563C260.706 118.186 259.996 115.916 259.422 114.741C260.104 114.822 261.063 114.849 261.972 114.556C262.998 114.228 263.577 113.615 263.513 112.922C263.441 112.093 262.51 111.481 261.022 111.278C259.517 111.075 257.916 109.968 257.902 109.954C257.713 109.819 257.45 109.869 257.315 110.058C257.179 110.247 257.229 110.508 257.419 110.643C257.491 110.693 259.2 111.881 260.914 112.111C262.162 112.278 262.65 112.733 262.677 112.994C262.695 113.21 262.406 113.53 261.718 113.755C260.335 114.201 258.734 113.764 258.721 113.759C258.549 113.71 258.364 113.777 258.26 113.926C258.156 114.074 258.16 114.268 258.264 114.412C258.346 114.525 260.276 117.254 258.608 120.145C258.49 120.347 258.562 120.604 258.766 120.721C258.761 120.721 258.766 120.726 258.77 120.726Z" fill="#4F332E"/>
<path d="M264.836 108.761C265.397 108.567 265.804 109.337 265.243 109.612C264.786 109.837 262.86 110.629 263.091 111.26C263.38 112.039 264.904 112.075 265.532 111.962C266.206 111.841 266.405 112.881 265.731 113.003C264.515 113.228 262.625 112.939 262.064 111.652C261.422 110.157 263.774 109.13 264.836 108.761Z" fill="#4F332E"/>
<path d="M262.599 114.213C262.522 115.803 264.886 115.136 265.818 114.893C266.315 114.763 266.559 115.533 266.094 115.74C265.275 116.109 264.1 116.348 263.146 116.181C263.155 116.316 263.11 116.46 262.992 116.586C262.115 117.536 263.48 117.973 264.231 117.946C264.859 117.924 264.665 117.937 265.262 117.744C265.764 117.582 265.976 118.365 265.538 118.59C264.525 119.113 263.584 119.077 262.888 118.604C261.911 117.942 261.346 116.618 262.282 115.866C261.78 115.546 261.468 115.001 261.536 114.137C261.586 113.457 262.63 113.533 262.599 114.213Z" fill="#4F332E"/>
<path d="M135.91 168.818C135.91 168.818 128.31 177.163 129.635 177.951C130.842 178.671 136.937 173.551 138.234 172.263C139.527 170.98 135.91 168.818 135.91 168.818Z" fill="#1A1A1A"/>
<path d="M120.921 144.047C121.771 143.786 125.216 146.159 127.87 148.406C130.529 150.653 134.426 152.702 135.15 153.224C135.873 153.747 136.561 155.67 136.99 156.746C137.32 157.579 141.127 164.712 141.945 166.657C141.945 166.657 142.429 169.3 134.707 175.312C133.215 172.097 130.782 167.387 130.619 167.161C130.127 166.477 127.011 164.559 126.03 163.19C125.045 161.821 124.158 161.073 124.52 160.128C124.877 159.182 124.877 159.182 124.059 158.043C123.24 156.903 124.09 156.638 124.61 155.922C125.135 155.201 123.987 153.607 124.113 152.824C124.244 152.04 126.274 151.973 126.5 151.81C126.731 151.648 120.469 146.794 120.139 146.339C119.809 145.875 120.066 144.308 120.921 144.047Z" fill="#FFA694"/>
<path d="M133.228 163.753C133.029 163.861 132.776 163.789 132.663 163.591C131.293 161.213 132.003 158.944 132.577 157.768C131.894 157.849 130.936 157.876 130.027 157.584C129.001 157.255 128.422 156.642 128.485 155.949C128.558 155.12 129.489 154.508 130.976 154.305C132.482 154.103 134.083 152.995 134.096 152.981C134.286 152.846 134.548 152.896 134.684 153.085C134.82 153.274 134.77 153.54 134.58 153.67C134.508 153.72 132.799 154.909 131.085 155.138C129.837 155.305 129.349 155.76 129.322 156.021C129.304 156.237 129.593 156.557 130.28 156.782C131.664 157.228 133.264 156.791 133.278 156.787C133.45 156.737 133.635 156.805 133.739 156.953C133.843 157.102 133.839 157.295 133.735 157.439C133.653 157.552 131.723 160.281 133.391 163.172C133.508 163.375 133.436 163.631 133.233 163.748C133.237 163.748 133.233 163.753 133.228 163.753Z" fill="#4F332E"/>
<path d="M127.161 151.788C126.6 151.594 126.193 152.364 126.754 152.639C127.21 152.864 129.136 153.657 128.906 154.287C128.616 155.066 127.093 155.102 126.464 154.985C125.791 154.864 125.592 155.904 126.265 156.025C127.482 156.25 129.371 155.962 129.932 154.674C130.579 153.184 128.223 152.157 127.161 151.788Z" fill="#4F332E"/>
<path d="M129.398 157.241C129.475 158.83 127.11 158.164 126.179 157.921C125.681 157.79 125.437 158.56 125.903 158.767C126.721 159.136 127.897 159.375 128.851 159.209C128.842 159.344 128.887 159.488 129.004 159.614C129.882 160.564 128.516 161.001 127.766 160.974C127.137 160.951 127.332 160.965 126.735 160.771C126.233 160.609 126.02 161.393 126.459 161.618C127.472 162.14 128.412 162.104 129.108 161.631C130.085 160.969 130.65 159.645 129.714 158.893C130.216 158.574 130.528 158.029 130.46 157.164C130.411 156.484 129.366 156.556 129.398 157.241Z" fill="#4F332E"/>
<path d="M252.764 119.099C252.764 119.099 240.515 148.626 239.009 150.328C237.563 151.967 218.27 163.571 215.091 165.949C214.974 166.035 214.879 166.098 214.806 166.138C214.739 166.174 214.675 166.206 214.608 166.237C213.097 166.94 211.574 168.646 210.186 168.525C209.535 168.471 209.114 168.403 209.114 168.403C209.114 168.403 209.091 168.331 209.055 168.201C209.055 168.196 209.055 168.192 209.051 168.187C208.626 166.841 206.523 165.305 200.627 162.175C191.91 157.551 184.992 156.254 181.068 158.609C178.328 160.253 178.034 161.748 178.681 163.189C179.246 164.445 179.092 165.868 178.301 166.998C176.284 169.885 177.989 181.458 177.989 181.458C177.989 181.458 177.509 181.165 176.7 180.652C175.47 187.132 174.037 191.792 172.73 198.259C174.394 199.362 175.859 200.33 176.452 202.28C177.216 204.797 177.487 206.445 177.912 209.048C178.427 212.178 178.504 215.416 177.736 218.491C177.143 220.86 176.688 222.824 176.75 225.642C176.831 229.367 176.339 238.735 177.338 238.465C178.392 238.181 179.427 237.726 180.467 237.389C184.134 236.195 188.225 236.135 192.313 237.054C203.244 239.51 221.108 242.04 223.496 239.259C223.496 239.259 221.67 227.84 222.317 222.413C222.841 217.991 222.027 204.937 222.027 204.937C222.027 204.937 222.999 196.412 224.532 194.224C226.77 191.036 230.514 189.248 232.607 185.938C233.602 184.367 243.657 173.825 243.657 173.825C243.657 173.825 248.111 167.214 250.001 163.688C255.933 152.606 262.001 135.328 262.182 134.247C262.629 131.59 254.378 120.576 252.764 119.099Z" fill="#FBF0DF"/>
<path d="M194.35 182.764C189.652 180.99 182.3 177.68 180.071 173.699C179.927 173.442 180.021 173.123 180.279 172.979C180.537 172.835 180.858 172.929 181.003 173.186C184.077 178.684 198.568 183.106 198.717 183.151C198.993 183.232 199.156 183.534 199.075 183.813C198.989 184.092 198.69 184.25 198.41 184.169C198.206 184.101 196.579 183.606 194.35 182.764Z" fill="#4F332E"/>
<path d="M209.898 182.544C209.867 182.539 209.835 182.53 209.808 182.517C209.573 182.427 208.533 180.396 208.578 180.144C208.587 180.103 209.758 172.088 209.053 168.206C209.094 168.337 209.112 168.409 209.112 168.409C209.112 168.409 209.537 168.476 210.183 168.53C210.78 172.425 209.654 180.171 209.623 180.337C209.573 180.626 210.188 182.598 209.898 182.544Z" fill="#4F332E"/>
<path d="M185.747 206.873C185.638 206.91 185.521 206.923 185.399 206.896C185.037 206.824 184.802 206.477 184.874 206.117C185.087 205.036 187.072 195.494 190.594 193.675C192.181 192.855 194.193 193.463 196.323 194.112C199.28 195.012 202.074 195.859 203.995 193.324C205.017 191.973 204.687 189.937 204.23 188.465C203.706 186.79 202.91 185.461 202.901 185.448C202.711 185.133 202.815 184.727 203.127 184.538C203.444 184.349 203.851 184.453 204.041 184.763C204.19 185.006 207.608 190.752 205.058 194.121C202.576 197.399 198.895 196.278 195.934 195.377C194.071 194.81 192.312 194.274 191.204 194.846C188.695 196.143 186.724 203.604 186.177 206.369C186.131 206.617 185.96 206.797 185.747 206.873Z" fill="white"/>
<path d="M207.976 183.975C207.777 183.668 207.366 183.578 207.059 183.776C206.751 183.975 206.661 184.384 206.86 184.69C206.9 184.754 210.951 191.107 208.514 196.961C207.877 198.492 206.579 200.24 205.083 202.262C201.384 207.247 196.573 213.736 196.483 223.323C196.478 223.696 196.786 224.003 197.161 223.994C197.166 223.994 197.17 223.994 197.175 223.994C197.527 223.985 197.817 223.701 197.821 223.35C197.921 214.15 202.573 207.872 206.15 203.05C207.701 200.956 209.043 199.15 209.744 197.47C212.443 190.981 208.162 184.258 207.976 183.975Z" fill="white"/>
<path d="M191.504 173.046C191.504 173.046 179.676 163.756 180.617 161.279C181.562 158.802 184.65 157.415 187.385 158.451C190.121 159.487 194.71 164.62 194.71 164.62L191.504 173.046Z" fill="#1A1A1A"/>
<path d="M201.456 150.243C201.456 150.243 203.468 145.888 199.91 141.106C196.351 136.324 194.783 140.295 194.299 142.322C193.304 141.971 192.052 140.602 188.1 142.916C184.148 145.235 183.791 150.301 183.791 150.301C183.791 150.301 179.907 150.869 182.615 156.939C185.441 163.27 190.257 166.323 193.44 166.567C195.226 166.706 201.456 150.243 201.456 150.243Z" fill="#4F332E"/>
<path d="M206.937 184.834C202.117 183.294 198.174 179.142 195.57 176.571L195.109 176.175L191.505 173.05C191.799 172.545 192.011 171.965 192.156 171.339C192.473 169.979 192.473 168.394 192.314 166.836C192.138 165.057 188.385 159.491 188.385 159.491C188.385 159.491 193.327 161.252 196.171 163.026C198.075 164.215 200.082 165.48 201.475 166.372C202.533 167.052 202.56 166.219 202.591 166.277C202.65 166.39 203.378 167.795 203.432 167.903C203.975 168.988 204.445 170.033 204.843 171.028C205.508 172.681 205.996 174.207 206.344 175.599C207.809 181.403 206.937 184.834 206.937 184.834Z" fill="#FFA694"/>
<path d="M179.813 152.552C179.804 152.552 179.795 152.548 179.786 152.548C179.592 152.503 179.47 152.309 179.515 152.115C179.641 151.571 179.881 151.048 180.234 150.571C180.785 149.814 181.427 149.409 182.142 149.36C183.254 149.283 184.09 150.134 184.122 150.17C184.262 150.314 184.258 150.539 184.113 150.679C183.968 150.819 183.742 150.814 183.602 150.67C183.598 150.665 182.96 150.026 182.187 150.08C181.699 150.116 181.237 150.422 180.817 150.994C180.523 151.395 180.324 151.823 180.22 152.273C180.179 152.462 179.999 152.579 179.813 152.552Z" fill="#533B3B"/>
<path d="M204.844 171.029C203.592 171.223 200.431 170.975 198.37 169.971C195.729 168.688 192.506 166.013 192.506 166.013L201.48 166.368C202.538 167.048 202.561 166.22 202.597 166.274C203.456 167.737 204.401 169.93 204.844 171.029Z" fill="#4F332E"/>
<path d="M202.753 151.165C203.259 152.25 207.293 159.667 206.47 163.139C206.036 164.971 203.965 166.417 202.455 166.998C197.807 168.79 193.615 168.349 191.034 163.805C191.034 163.805 186.928 163.773 187.028 159.496C187.1 156.352 190.817 159.288 190.817 159.288C190.817 159.288 190.749 157.694 190.251 155.33C190.034 154.299 190.541 153.245 191.49 152.781C194.361 151.376 198.195 148.724 198.53 146.31C198.53 146.315 201.921 149.386 202.753 151.165Z" fill="#FFA694"/>
<path d="M202.02 157.664C201.889 157.493 201.595 157.457 201.378 157.596C201.165 157.732 200.953 157.867 200.74 158.002C200.523 158.137 200.446 158.398 200.577 158.574C200.709 158.745 201.003 158.781 201.22 158.641C201.432 158.506 201.645 158.371 201.857 158.236C202.074 158.101 202.151 157.84 202.02 157.664Z" fill="#CF5D4C"/>
<path d="M195.462 151.25C194.992 151.516 194.49 151.71 194.034 152.002C193.572 152.3 193.152 152.655 192.704 152.966C192.297 153.25 192.709 153.898 193.116 153.614C193.563 153.299 193.984 152.944 194.445 152.651C194.902 152.358 195.404 152.164 195.874 151.899C196.308 151.651 195.896 151.003 195.462 151.25Z" fill="#533B3B"/>
<path d="M203.494 151.233C203.141 150.909 202.748 150.805 202.291 150.715C201.812 150.616 201.6 151.354 202.088 151.453C202.391 151.516 202.707 151.548 202.942 151.764C203.3 152.097 203.856 151.571 203.494 151.233Z" fill="#533B3B"/>
<path d="M198.332 160.856C200.249 160.792 203.948 159.532 203.948 159.532C203.043 163.122 198.332 160.856 198.332 160.856Z" fill="white"/>
<path d="M206.692 177.135C205.295 177.482 203.884 177.748 202.428 177.73C199.968 177.698 197.427 177.068 195.126 176.185L195.569 176.568C198.173 179.139 202.116 183.296 206.936 184.831C206.936 184.836 207.655 182.003 206.692 177.135Z" fill="white"/>
<path d="M196.593 154.873C196.218 154.377 195.373 154.139 195.011 154.792C194.428 155.836 196.015 156.854 196.612 155.787C196.765 155.512 196.788 155.129 196.593 154.873Z" fill="#4F332E"/>
<path d="M203.294 152.786C202.851 152.894 202.616 153.435 202.846 153.854C202.855 153.867 202.86 153.876 202.869 153.89C203.018 154.16 203.357 154.335 203.651 154.25C203.95 154.164 204.171 153.903 204.185 153.574C204.185 153.561 204.185 153.547 204.185 153.534C204.194 153.056 203.742 152.683 203.294 152.786Z" fill="#4F332E"/>
<path d="M258.153 152.629C256.593 156.768 254.775 160.784 252.858 164.774C252.619 165.269 253.347 165.706 253.609 165.211C255.684 161.23 257.425 157.065 258.985 152.859C259.179 152.337 258.347 152.111 258.153 152.629Z" fill="#FBF0DF"/>
<path d="M147.717 214.903C146.271 215.497 144.562 216.1 143.092 215.209C141.867 214.466 141.333 212.975 140.872 211.701C140.691 211.196 139.882 211.413 140.063 211.921C140.614 213.475 141.27 215.195 142.794 216.051C144.43 216.969 146.474 216.492 148.052 215.686C148.477 215.465 148.174 214.718 147.717 214.903Z" fill="#FBF0DF"/>
<path d="M187.539 126H177.461C177.206 126 177 126.197 177 126.44V131.56C177 131.803 177.206 132 177.461 132H187.539C187.794 132 188 131.803 188 131.56V126.44C188 126.197 187.794 126 187.539 126Z" fill="#E7F6FE"/>
<path d="M106.483 17H29.517C27.5746 17 26 18.5432 26 20.4468V60.5532C26 62.4568 27.5746 64 29.517 64H106.483C108.425 64 110 62.4568 110 60.5532V20.4468C110 18.5432 108.425 17 106.483 17Z" fill="#C9EBFC"/>
<path d="M236.655 6H185.345C184.05 6 183 7.08352 183 8.42011V36.5799C183 37.9165 184.05 39 185.345 39H236.655C237.95 39 239 37.9165 239 36.5799V8.42011C239 7.08352 237.95 6 236.655 6Z" fill="#D9F1FD"/>
<path d="M276.702 44H248.298C247.581 44 247 44.5582 247 45.2467V59.7533C247 60.4418 247.581 61 248.298 61H276.702C277.419 61 278 60.4418 278 59.7533V45.2467C278 44.5582 277.419 44 276.702 44Z" fill="#E3F4FD"/>
<path d="M341.2 36H301.8C300.806 36 300 36.8209 300 37.8334V59.1666C300 60.1791 300.806 61 301.8 61H341.2C342.194 61 343 60.1791 343 59.1666V37.8334C343 36.8209 342.194 36 341.2 36Z" fill="#D9F1FD"/>
<path d="M232.744 88H205.256C204.562 88 204 88.5582 204 89.2467V103.753C204 104.442 204.562 105 205.256 105H232.744C233.438 105 234 104.442 234 103.753V89.2467C234 88.5582 233.438 88 232.744 88Z" fill="#E3F5FD"/>
<path d="M87.781 112H39.219C37.9935 112 37 112.985 37 114.2V139.8C37 141.015 37.9935 142 39.219 142H87.781C89.0065 142 90 141.015 90 139.8V114.2C90 112.985 89.0065 112 87.781 112Z" fill="#D7F0FD"/>
<path d="M177.697 72H127.303C126.031 72 125 73.0507 125 74.3468V101.653C125 102.949 126.031 104 127.303 104H177.697C178.969 104 180 102.949 180 101.653V74.3468C180 73.0507 178.969 72 177.697 72Z" fill="#D7F0FD"/>
<path d="M84.7391 201H35.2609C34.0122 201 33 201.985 33 203.2V228.8C33 230.015 34.0122 231 35.2609 231H84.7391C85.9878 231 87 230.015 87 228.8V203.2C87 201.985 85.9878 201 84.7391 201Z" fill="#D7F0FD"/>
<path d="M140.2 126H100.8C99.806 126 99 126.788 99 127.76V148.24C99 149.212 99.806 150 100.8 150H140.2C141.194 150 142 149.212 142 148.24V127.76C142 126.788 141.194 126 140.2 126Z" fill="#D4FEC0"/>
<path d="M306.242 80H267.758C266.787 80 266 80.8209 266 81.8334V103.167C266 104.179 266.787 105 267.758 105H306.242C307.213 105 308 104.179 308 103.167V81.8334C308 80.8209 307.213 80 306.242 80Z" fill="#D4FEC0"/>
<path d="M344.32 190H285.68C284.2 190 283 191.215 283 192.713V224.287C283 225.785 284.2 227 285.68 227H344.32C345.8 227 347 225.785 347 224.287V192.713C347 191.215 345.8 190 344.32 190Z" fill="#C9EBFC"/>
</g>
<defs>
<linearGradient id="paint0_linear_1641_4924" x1="162.648" y1="334.34" x2="160.38" y2="132.489" gradientUnits="userSpaceOnUse">
<stop stop-color="#D9D9D9"/>
<stop offset="1" stop-color="#D9D9D9" stop-opacity="0"/>
</linearGradient>
<linearGradient id="paint1_linear_1641_4924" x1="826.794" y1="346.739" x2="824.58" y2="149.726" gradientUnits="userSpaceOnUse">
<stop stop-color="#D9D9D9"/>
<stop offset="1" stop-color="#D9D9D9" stop-opacity="0"/>
</linearGradient>
<clipPath id="clip0_1641_4924">
<rect width="385" height="248" fill="white"/>
</clipPath>
</defs>
</svg>
