<?xml version="1.0" encoding="utf-8"?>
<!-- Generator: Adobe Illustrator 24.2.1, SVG Export Plug-In . SVG Version: 6.00 Build 0)  -->
<svg version="1.1" id="Layer_1" xmlns="http://www.w3.org/2000/svg" xmlns:xlink="http://www.w3.org/1999/xlink" x="0px" y="0px"
	 viewBox="0 0 100 100" style="enable-background:new 0 0 100 100;" xml:space="preserve">
<style type="text/css">
	.st0{fill:#BDF5D0;}
	.st1{fill:none;stroke:#333333;stroke-width:3.12;stroke-miterlimit:10;}
</style>
<path class="st0" d="M62.5,22.5L62.5,22.5c8.3,0,15,6.7,15,15l0,0c0,8.3-6.7,15-15,15l0,0c-8.3,0-15-6.7-15-15l0,0
	C47.5,29.2,54.2,22.5,62.5,22.5z"/>
<path class="st1" d="M39.1,49.2L39.1,49.2"/>
<path class="st1" d="M39.1,49.2L39.1,49.2"/>
<path class="st1" d="M60.9,49.2c-6.9-3.3-14.9-3.3-21.7,0"/>
<path class="st1" d="M60.9,49.2L60.9,49.2"/>
<path class="st1" d="M60.9,49.2L60.9,49.2"/>
<path class="st1" d="M39.1,49.2L39.1,49.2"/>
<path class="st1" d="M39.1,49.2L39.1,49.2"/>
<path class="st1" d="M39.1,49.2L39.1,49.2"/>
<path class="st1" d="M60.9,49.2L60.9,49.2"/>
<path class="st1" d="M60.9,49.2L60.9,49.2"/>
<path class="st1" d="M60.9,49.2L60.9,49.2"/>
<path class="st1" d="M39.1,49.2C39.3,35.8,44.1,25,50,25s10.7,10.8,10.9,24.2"/>
<path class="st1" d="M68.5,46.7c-2.7,0-5.4,0.9-7.6,2.5c-6.9-3.3-14.9-3.3-21.7,0c-2.2-1.6-4.9-2.5-7.6-2.5c-2.3,0-4.6,0.6-6.6,1.8
	C25.8,34.8,37.6,24.2,51.4,25c12.7,0.7,22.8,10.9,23.5,23.5C74.9,48.5,70.8,46.8,68.5,46.7z"/>
<path class="st1" d="M50,46.7v23.9c0,2.4-1.9,4.3-4.4,4.3c-2.4,0-4.3-1.9-4.3-4.3v-3.3"/>
</svg>
