<svg id="Layer_1" data-name="Layer 1" xmlns="http://www.w3.org/2000/svg" viewBox="0 0 100 100"><defs><style>.cls-1{fill:#b3deff;}.cls-2{fill:none;stroke:#333;stroke-miterlimit:10;stroke-width:3.12px;}</style></defs><path class="cls-1" d="M60.06,20.1h0a15,15,0,0,1,15,15h0a15,15,0,0,1-15,15h0a15,15,0,0,1-15-15h0A15,15,0,0,1,60.06,20.1Z"/><g id="growth"><g id="wad_of_bills" data-name="wad of bills"><polyline class="cls-2" points="54.84 51.61 72.58 51.61 75 68.55 59.68 68.55"/><polyline class="cls-2" points="41.13 68.55 25 68.55 27.42 51.61 45.97 51.61"/><path class="cls-2" d="M41.73,63.1H35.92c.08-1.05-.82-1.71-2.18-1.71l.57-4c1.31,0,2.15-.67,2.22-1.14H42.3"/><path class="cls-2" d="M58.84,63.1h5.24c-.08-1.05.82-1.71,2.18-1.71l-.57-4c-1.31,0-2.15-.67-2.22-1.14h-5.2"/><polyline class="cls-2" points="25 68.55 25 75 75 75 75 68.55"/><polyline class="cls-2" points="42.74 51.61 41.13 67.74 41.13 75"/><polyline class="cls-2" points="58.06 51.61 59.68 67.74 59.68 75"/></g><path class="cls-2" d="M50,46.77c14.35.14,13.71-16.12,13.71-16.12s-6.33-.52-10.48,2.41"/><path class="cls-2" d="M49.19,44.35C54.84,27.42,37.3,30.81,33.87,25c-.18,1-7.66,21,10.48,21.77"/><path class="cls-2" d="M41.94,37.1a21.25,21.25,0,0,1,9,17.12l-.1,4.65"/></g></svg>