<svg id="Layer_1" data-name="Layer 1" xmlns="http://www.w3.org/2000/svg" viewBox="0 0 100 100"><defs><style>.cls-1{fill:#fdf6b4;}.cls-2{fill:none;stroke:#333;stroke-miterlimit:10;stroke-width:3.12px;}.cls-3{fill:#333;}</style></defs><path class="cls-1" d="M59.61,44.22h0a15,15,0,0,1,15,15h0a15,15,0,0,1-15,15h0a15,15,0,0,1-15-15h0A15,15,0,0,1,59.61,44.22Z"/><path class="cls-2" d="M38.47,56.56H23.23A4.23,4.23,0,0,1,19,52.33V33.46a4.23,4.23,0,0,1,4.23-4.23H57.11a4.23,4.23,0,0,1,4.24,4.23V47.67"/><line class="cls-2" x1="19" y1="39.84" x2="61.35" y2="39.84"/><line class="cls-2" x1="24.33" y1="50.65" x2="33.31" y2="50.65"/><rect class="cls-2" x="38.21" y="47.67" width="42.79" height="23.1" rx="11.55"/><path class="cls-3" d="M53.3,57.44a3.31,3.31,0,0,1-1,2.56,3.91,3.91,0,0,1-2.78.91h-.76V64.2H46.11V54.29h3.43a4.18,4.18,0,0,1,2.82.82A2.9,2.9,0,0,1,53.3,57.44Zm-4.52,1.29h.49a1.37,1.37,0,0,0,1-.34,1.24,1.24,0,0,0,.36-.94c0-.67-.37-1-1.11-1h-.7Z"/><path class="cls-3" d="M61,64.2l-.49-1.86H57.25l-.5,1.86H53.81l3.23-10h3.57l3.28,10Zm-1-4.06-.43-1.62c-.1-.37-.22-.83-.36-1.41s-.24-1-.29-1.23q-.06.34-.24,1.14c-.12.53-.38,1.57-.79,3.12Z"/><path class="cls-3" d="M68.5,58l1.71-3.67h2.9l-3.26,6V64.2h-2.7V60.41l-3.26-6.12H66.8Z"/></svg>