<?xml version="1.0" encoding="utf-8"?>
<!-- Generator: Adobe Illustrator 24.3.0, SVG Export Plug-In . SVG Version: 6.00 Build 0)  -->
<svg version="1.1" id="Layer_1" xmlns="http://www.w3.org/2000/svg" xmlns:xlink="http://www.w3.org/1999/xlink" x="0px" y="0px"
	 width="30px" height="20px" viewBox="0 0 30 20" style="enable-background:new 0 0 30 20;" xml:space="preserve">
<style type="text/css">
	.st0{fill:#005430;}
	.st1{fill:#FFFFFF;}
</style>
<g>
	<path id="green" class="st0" d="M0,20h30V0H0V20z"/>
	<g id="white" transform="scale(.375)">
		<g id="shahada">
			<g transform="matrix(7.3042,0,0,-6.7531,1800,635.53)">
				<path class="st1" d="M-238.2,91c0,0.1-0.1,0.5-0.1,0.6c0,0.1,0,0.2,0,0.3c0,0,0,0,0.1,0c0,0,0,0,0,0.1c0,0-0.1,0.1-0.1,0.2
					c0,0,0,0,0,0c0,0-0.1-0.1,0-0.1c0,0,0,0,0-0.1c0,0,0-0.3,0-0.5c0-0.1,0.1-0.5,0.1-0.7c0-0.1,0-0.1,0-0.2c0,0-0.1-0.1-0.2-0.2
					c-0.1-0.1-0.3-0.2-0.4-0.2c0,0,0,0,0,0c0,0,0.3,0.1,0.4,0.1c0.1,0,0.2,0.1,0.2,0.2C-238.2,90.7-238.2,90.8-238.2,91"/>
			</g>
			<g transform="matrix(7.3042,0,0,-6.7531,1709.3,422.03)">
				<path class="st1" d="M-226.2,60.4c0,0,0.1,0,0.1,0C-226.1,60.4-226.2,60.3-226.2,60.4C-226.2,60.3-226.1,60.3-226.2,60.4
					c0.1,0,0.1,0,0.1,0c0,0,0.1,0.1,0,0.1C-226.1,60.5-226.2,60.5-226.2,60.4C-226.2,60.5-226.2,60.4-226.2,60.4
					C-226.2,60.4-226.2,60.4-226.2,60.4"/>
			</g>
			<g transform="matrix(7.3042,0,0,-6.7531,1747.6,588.62)">
				<path class="st1" d="M-231.3,84.3c0,0.1,0,0.1,0,0.2c0,0.1-0.1,0.1-0.1,0.2l0-0.1c0,0,0.1,0,0.1-0.1
					C-231.3,84.4-231.3,84.3-231.3,84.3C-231.3,84.2-231.3,84.2-231.3,84.3"/>
			</g>
			<g transform="matrix(7.3042,0,0,-6.7531,1602.4,672.64)">
				<path class="st1" d="M-212.1,96.3c0,0.1,0,0.1,0,0.2c0,0.1-0.1,0.1-0.1,0.1l0-0.1c0,0,0.1,0,0.1-0.1
					C-212.1,96.4-212.1,96.3-212.1,96.3C-212.1,96.2-212.1,96.3-212.1,96.3"/>
			</g>
			<g transform="matrix(7.3042,0,0,-6.7531,1098.3,444.51)">
				<path class="st1" d="M-145.4,63.6c0-0.1,0-0.1,0-0.2c0,0,0,0,0,0C-145.3,63.5-145.3,63.6-145.4,63.6c0,0.1-0.1,0.2-0.1,0.2
					l0-0.1C-145.5,63.7-145.4,63.7-145.4,63.6"/>
			</g>
			<g transform="matrix(7.3042,0,0,-6.7531,758,449.86)">
				<path class="st1" d="M-100.3,64.4c0-0.1,0-0.1,0-0.2c0,0,0,0,0,0C-100.3,64.3-100.3,64.3-100.3,64.4c0,0.1,0,0.2-0.1,0.2l0-0.1
					C-100.4,64.5-100.4,64.5-100.3,64.4"/>
			</g>
			<g transform="matrix(7.3042,0,0,-6.7531,852.07,698.62)">
				<path class="st1" d="M-112.8,100c0,0.1,0,0.1,0.1,0.2c0,0.1,0,0.1,0,0.2c0.1,0,0.2,0.1,0.2,0.1c0-0.1,0-0.2,0.1-0.2
					c0-0.1,0-0.2,0-0.2c0-0.1,0-0.2,0-0.3c0,0,0,0,0,0c0,0.1,0,0.2,0,0.4c0,0,0,0.1,0,0.1c0.1,0,0.1,0.1,0.1,0.1
					c0-0.1,0.2-0.1,0.2-0.1c0.1,0,0.1,0.1,0.1,0.2c0,0.1,0,0.1,0,0.2c0,0,0-0.1,0-0.1s0,0,0-0.1c0,0-0.1,0-0.1,0c0,0-0.1,0-0.1,0.1
					c0,0,0,0,0,0.1c0,0,0,0,0,0c0,0,0,0-0.1-0.1c0,0-0.1-0.1-0.1-0.1c0,0.1,0,0.2,0,0.3c0,0,0,0.4,0,0.4c0,0,0,0.1,0,0.1
					c0,0,0,0,0,0c0,0,0,0,0,0c0,0,0,0.1,0,0.1c0,0-0.1,0.2-0.1,0.2c0,0,0-0.1,0-0.1c0,0,0,0,0-0.1c0,0,0-0.2,0-0.3
					c0-0.1,0-0.2,0-0.2c0-0.1,0-0.2,0-0.3c-0.1,0-0.1,0.1-0.1,0.1c0,0,0,0.1,0,0.1c0,0-0.1,0-0.2-0.1c0,0-0.1,0-0.1,0
					c0,0.1,0,0.2,0,0.2l0,0c0.1,0,0.1,0,0.1,0.1c0,0,0.1,0.1,0.1,0.2c0,0.1,0,0.2-0.1,0.2c0,0,0,0.1,0,0.1c0,0,0,0,0,0c0,0,0,0,0,0
					c0,0-0.1,0.2-0.1,0.1c0,0,0-0.1,0-0.1c0,0,0,0,0-0.1c0,0,0-0.1,0-0.2c0-0.1,0.1-0.2,0.1-0.2c0,0-0.1-0.1-0.2-0.1
					c0,0.1,0,0.2,0,0.3c0,0,0,0.1,0,0.1c0,0,0,0,0,0c0,0,0,0,0,0c0,0,0,0,0,0.1c0,0-0.1,0.2-0.1,0.2c0,0,0-0.1,0-0.1c0,0,0,0,0-0.1
					c0,0,0-0.2,0-0.4c-0.1,0-0.1,0.1-0.1,0.2c0,0.1,0,0.2,0,0.3c0,0.1,0,0.1-0.1,0.1c0,0,0-0.1,0-0.1c0,0,0-0.1,0-0.2
					c0-0.1,0-0.2-0.1-0.2c-0.1-0.1-0.2,0-0.3,0.1c0,0.1,0,0.3,0,0.4c0,0.1,0,0.1,0,0.1c0,0-0.1-0.1-0.1-0.2c0-0.1-0.1-0.2-0.1-0.3
					c0-0.1-0.1-0.2-0.1-0.1c-0.1,0-0.1,0.1-0.1,0.1c0,0.1,0,0.2,0,0.2c0,0.1,0,0.1,0-0.1c0-0.1,0-0.2,0-0.3c0-0.1,0.1-0.1,0.1-0.1
					c0.1,0,0.1,0.1,0.1,0.2c0,0.1,0.1,0.3,0.1,0.3c0,0,0-0.1,0-0.2c0-0.1,0-0.3,0.1-0.3c0.1,0,0.2,0.1,0.3,0.1c0,0.1,0,0.1,0.1,0.2
					c0-0.1,0.1-0.2,0.2-0.3l0,0c0-0.1,0-0.2,0-0.3c0,0,0,0-0.1,0c0,0,0,0,0,0c0,0.1-0.1,0.1-0.2,0.1c-0.1,0-0.2-0.1-0.2-0.2
					c0-0.1,0-0.1,0.1-0.1c0,0,0.1,0,0.1,0c0,0,0,0,0-0.1c0,0-0.3-0.3-0.5-0.3c-0.2,0-0.3,0.1-0.3,0.2c0,0.1,0,0.2,0.1,0.2
					c0,0,0.1,0.1,0.1,0.1c0,0,0,0,0,0c0,0,0,0,0,0c0,0,0,0,0,0.1c0,0,0,0,0,0c0,0.1,0,0.1,0,0.1c0,0-0.1,0-0.1-0.1c0,0,0,0,0,0
					c0,0,0,0,0,0c0,0,0,0,0,0c0,0-0.1-0.1-0.2-0.2c0,0,0,0,0,0l0,0c0,0-0.2-0.1-0.2-0.1c0,0,0,0,0,0c0,0,0,0,0.1,0
					c0,0,0.1,0,0.1,0.1c0,0,0,0,0-0.1c0-0.1-0.1-0.4,0-0.5c0.2-0.1,0.4-0.1,0.6,0.1C-112.8,99.9-112.8,99.9-112.8,100 M-113.5,100.6
					C-113.5,100.6-113.5,100.6-113.5,100.6C-113.5,100.6-113.5,100.6-113.5,100.6C-113.4,100.6-113.4,100.6-113.5,100.6
					C-113.5,100.6-113.5,100.6-113.5,100.6 M-113,100.4c-0.1,0-0.1,0-0.1,0C-113.1,100.4-113.1,100.5-113,100.4
					C-113,100.4-113,100.4-113,100.4C-113,100.4-113,100.4-113,100.4 M-113.3,99.7c-0.2-0.1-0.4,0-0.4,0.2c0,0.1,0,0.3,0.1,0.3
					c0,0,0.1,0,0.1,0c-0.1-0.1-0.1-0.2-0.1-0.3C-113.7,99.9-113.6,99.8-113.3,99.7c0.1,0.1,0.3,0.3,0.4,0.3c0,0,0,0,0.1,0.1
					c0,0,0,0,0,0.1c0,0,0,0,0,0.1c0,0,0,0,0.1,0c0-0.1,0-0.2,0-0.2C-112.9,100-113.1,99.8-113.3,99.7"/>
			</g>
			<g transform="matrix(7.3042,0,0,-6.7531,1551,647.88)">
				<path class="st1" d="M-205.3,92.7c0,0.1,0,0.4,0,0.5c0,0.1,0,0.3,0,0.4c0,0,0,0.1,0,0.1c0,0,0,0,0,0c0,0,0,0,0,0c0,0,0,0,0,0.1
					c0,0-0.1,0.2-0.1,0.2c0,0,0-0.1,0-0.1c0,0,0,0,0-0.1c0-0.1,0-0.3,0-0.5C-205.4,93.1-205.3,92.9-205.3,92.7
					c-0.1,0-0.1-0.2-0.1-0.2c0-0.1,0-0.2,0-0.3c0,0,0,0,0,0c0,0.1,0,0.2,0,0.3L-205.3,92.7z"/>
			</g>
			<g transform="matrix(7.3042,0,0,-6.7531,1417.5,555.68)">
				<path class="st1" d="M-187.6,79.5C-187.6,79.5-187.7,79.6-187.6,79.5c-0.1,0.1,0,0.2,0,0.2c0,0,0,0.1,0,0.1
					C-187.6,79.7-187.7,79.6-187.6,79.5C-187.7,79.5-187.7,79.5-187.6,79.5C-187.6,79.5-187.6,79.5-187.6,79.5
					C-187.6,79.6-187.6,79.6-187.6,79.5C-187.6,79.6-187.6,79.5-187.6,79.5"/>
			</g>
			<g transform="matrix(7.3042,0,0,-6.7531,1348.2,594.54)">
				<path class="st1" d="M-178.4,85.1C-178.4,85.1-178.4,85.2-178.4,85.1c0,0-0.1-0.1-0.1-0.1c0-0.1,0-0.1,0-0.1c0,0,0,0,0.1,0
					c0,0,0,0.1,0,0.1c0,0,0,0,0,0c0,0,0,0,0,0.1C-178.5,85-178.4,85.1-178.4,85.1"/>
			</g>
			<g transform="matrix(7.3042,0,0,-6.7531,1146.4,737.86)">
				<path class="st1" d="M-151.7,105.6C-151.7,105.7-151.7,105.7-151.7,105.6c0,0-0.1-0.1-0.1-0.1c0-0.1,0-0.1,0-0.1
					c0,0,0.1,0,0.1,0c0,0,0,0.1,0,0.1c0,0,0,0,0,0c0,0,0,0,0,0.1C-151.8,105.6-151.7,105.6-151.7,105.6"/>
			</g>
			<g transform="matrix(7.3042,0,0,-6.7531,1500.2,535.46)">
				<path class="st1" d="M-198.5,76.6C-198.6,76.6-198.6,76.7-198.5,76.6c0,0.1,0,0.2,0,0.2c0,0,0,0.1,0,0.1
					C-198.6,76.8-198.6,76.8-198.5,76.6C-198.6,76.6-198.6,76.6-198.5,76.6C-198.6,76.6-198.5,76.6-198.5,76.6
					C-198.5,76.7-198.5,76.7-198.5,76.6C-198.5,76.7-198.5,76.7-198.5,76.6"/>
			</g>
			<g transform="matrix(7.3042,0,0,-6.7531,1498.7,666.11)">
				<path class="st1" d="M-198.3,95.3C-198.3,95.3-198.3,95.4-198.3,95.3c0.1,0.1,0.1,0.1,0.1,0.1
					C-198.3,95.5-198.3,95.4-198.3,95.3c0,0.1,0,0.1,0,0.1c0,0,0,0.1,0,0.1c0,0,0,0.1,0,0.1c0,0-0.1-0.1-0.1-0.2
					C-198.4,95.4-198.4,95.4-198.3,95.3"/>
			</g>
			<g transform="matrix(7.3042,0,0,-6.7531,1584.4,499.22)">
				<path class="st1" d="M-209.7,71.5C-209.7,71.5-209.7,71.6-209.7,71.5c0,0-0.1-0.1-0.1-0.2c0-0.1,0-0.1,0-0.1c0,0,0.1,0,0.1,0.1
					c0,0,0,0.1,0,0.1c0,0,0-0.1,0-0.1c0,0-0.1,0-0.1,0.1C-209.7,71.4-209.7,71.4-209.7,71.5"/>
			</g>
			<g transform="matrix(7.3042,0,0,-6.7531,899.52,661.58)">
				<path class="st1" d="M-119,94.7C-119,94.8-119,94.8-119,94.7c0,0-0.1-0.1-0.1-0.2c0-0.1,0-0.2,0-0.2c0,0,0.1,0,0.1,0.1
					c0,0.1,0,0.1,0,0.1c0,0,0-0.1,0-0.1c0,0-0.1,0-0.1,0.1C-119.1,94.6-119.1,94.7-119,94.7"/>
			</g>
			<g transform="matrix(7.3042,0,0,-6.7531,1639,775)">
				<path class="st1" d="M-216.9,110.9c0,0,0.2,0.1,0.2,0.1c0,0,0,0.1,0,0.1c0,0-0.1-0.1-0.1-0.1c0,0-0.1,0-0.1,0.1c0,0,0,0,0.1,0
					c0,0,0,0,0,0c0,0,0,0,0,0c0,0,0,0.1,0,0.1c0,0-0.1-0.1-0.1-0.1C-216.9,111.1-216.9,111-216.9,110.9
					C-216.9,111-216.9,111-216.9,110.9C-216.9,111-216.9,111-216.9,110.9"/>
			</g>
			<g transform="matrix(7.3042,0,0,-6.7531,1519,798.48)">
				<path class="st1" d="M-201,114.3c0,0,0.2,0.1,0.2,0.1c0,0,0,0.1,0,0.1c0,0-0.1-0.1-0.1-0.1c0,0-0.1,0-0.1,0.1c0,0,0,0,0.1,0
					c0,0,0,0,0,0c0,0,0,0,0,0c0,0,0,0.1,0,0.1c0,0-0.1-0.1-0.1-0.1C-201,114.4-201,114.4-201,114.3C-201,114.4-201,114.4-201,114.3
					C-201,114.4-201,114.3-201,114.3"/>
			</g>
			<g transform="matrix(7.3042,0,0,-6.7531,1248.7,458.72)">
				<path class="st1" d="M-165.3,65.7c0,0,0.1-0.1,0.2-0.2c0.1-0.1,0.2-0.2,0.3-0.3c0,0,0,0,0.1-0.1c0-0.2,0.1-0.4,0.1-0.5
					c0-0.1,0-0.2,0-0.3c0,0,0,0,0,0c0,0.1,0,0.2,0,0.4c0,0.1,0,0.2,0,0.3c0.1-0.1,0.1-0.1,0.1-0.2c0.1-0.1,0.1-0.1,0.2-0.2
					c0-0.1,0-0.1,0-0.1c0,0,0,0.1,0,0.1c0,0.1,0,0.2-0.2,0.3c-0.1,0.1-0.1,0.1-0.2,0.2c0,0,0,0,0,0.1c0,0-0.1,0.4-0.1,0.4
					c0,0,0,0.1,0,0.1c0,0,0,0,0,0c0,0,0,0,0,0c0,0,0,0,0,0.1c0,0-0.1,0.2-0.1,0.2c0,0,0-0.1,0-0.1c0,0,0,0,0-0.1c0,0,0-0.2,0-0.3
					c0-0.1,0-0.2,0-0.2l0,0c-0.1,0.1-0.1,0.1-0.1,0.1c-0.1,0.1-0.2,0.3-0.3,0.3c0,0,0,0,0,0c0,0,0,0,0,0c0,0,0,0,0,0
					c0,0-0.1,0.1-0.1,0.1c0,0-0.1,0.1-0.1,0C-165.3,65.8-165.3,65.7-165.3,65.7C-165.3,65.7-165.3,65.7-165.3,65.7"/>
			</g>
			<g transform="matrix(7.3042,0,0,-6.7531,1275.3,423.15)">
				<path class="st1" d="M-168.8,60.6c0,0,0.1,0,0.1,0C-168.7,60.6-168.7,60.5-168.8,60.6C-168.8,60.5-168.8,60.5-168.8,60.6
					c0-0.1,0.1-0.1,0.1-0.1c0,0,0.1,0.1,0.1,0.1c0,0,0,0,0,0C-168.6,60.7-168.7,60.7-168.8,60.6C-168.8,60.6-168.8,60.6-168.8,60.6
					C-168.8,60.6-168.8,60.6-168.8,60.6"/>
			</g>
			<g transform="matrix(7.3042,0,0,-6.7531,1380.6,421.6)">
				<path class="st1" d="M-182.7,60.3c0,0,0.1,0,0.1,0C-182.6,60.3-182.7,60.3-182.7,60.3C-182.7,60.3-182.7,60.3-182.7,60.3
					C-182.7,60.3-182.6,60.3-182.7,60.3c0.1,0,0.1,0,0.2,0c0,0,0,0,0,0C-182.6,60.4-182.6,60.4-182.7,60.3
					C-182.7,60.4-182.7,60.4-182.7,60.3C-182.7,60.3-182.7,60.3-182.7,60.3"/>
			</g>
			<g transform="matrix(7.3042,0,0,-6.7531,1466.2,420.5)">
				<path class="st1" d="M-194,60.2c0,0,0.1,0,0.1,0C-193.9,60.2-194,60.1-194,60.2C-194,60.1-194,60.1-194,60.2
					C-194,60.1-194,60.1-194,60.2c0.1,0,0.1,0,0.2,0c0,0,0,0,0,0C-193.9,60.3-194,60.3-194,60.2C-194,60.3-194.1,60.2-194,60.2
					C-194.1,60.2-194.1,60.2-194,60.2"/>
			</g>
			<g transform="matrix(7.3042,0,0,-6.7531,1412.8,462.19)">
				<path class="st1" d="M-187,66.2c0,0,0-0.1,0-0.1C-187,66-187,66.1-187,66.2C-187,66.1-187,66.1-187,66.2
					C-187,66.1-187,66.1-187,66.2C-187,66.1-187,66.1-187,66.2c-0.1-0.1-0.1-0.1-0.1-0.1c0,0,0,0.1,0,0.1c0,0,0,0,0,0c0,0,0,0,0,0
					c0,0,0,0,0,0c0,0,0,0,0,0c0,0,0,0,0,0c0,0,0,0,0.1,0C-186.9,66.1-186.9,66.1-187,66.2C-187,66.2-187,66.2-187,66.2"/>
			</g>
			<g transform="matrix(7.3042,0,0,-6.7531,1163.1,441.02)">
				<path class="st1" d="M-153.9,63.1C-153.9,63.1-153.9,63.1-153.9,63.1C-153.9,63.1-153.9,63.1-153.9,63.1c0.1,0,0.1,0,0.1,0
					c0,0,0,0.1,0,0.1c0,0,0,0,0,0c0,0,0-0.1,0-0.1C-153.8,63.1-153.8,63.1-153.9,63.1c0.1,0,0.1,0.1,0.1,0.1
					C-153.9,63.2-153.9,63.2-153.9,63.1C-153.9,63.2-153.9,63.2-153.9,63.1C-153.9,63.1-153.9,63.1-153.9,63.1
					C-153.9,63.1-153.9,63.2-153.9,63.1C-153.9,63.2-153.9,63.2-153.9,63.1C-153.9,63.2-153.9,63.2-153.9,63.1
					C-153.9,63.2-153.9,63.1-153.9,63.1"/>
			</g>
			<g transform="matrix(7.3042,0,0,-6.7531,1344.4,750.3)">
				<path class="st1" d="M-177.9,107.4C-177.9,107.4-177.9,107.4-177.9,107.4c0,0.1,0,0.1,0,0.1C-178,107.5-178,107.5-177.9,107.4
					l-0.1,0.1c0,0,0,0,0,0c0,0,0,0,0-0.1c0,0-0.1-0.1-0.2-0.1c-0.1,0-0.1-0.1-0.1-0.1c0,0,0,0,0,0c0,0,0.1,0,0.1,0
					c0,0,0.1,0,0.1,0.1c0.1,0,0.1,0.1,0.1,0.1c0,0,0,0,0,0S-178,107.4-177.9,107.4C-177.9,107.4-177.9,107.4-177.9,107.4
					 M-178,107.5C-178,107.5-177.9,107.5-178,107.5C-178,107.4-178,107.4-178,107.5C-178,107.5-178,107.5-178,107.5"/>
			</g>
			<g transform="matrix(7.3042,0,0,-6.7531,1264.9,757.77)">
				<path class="st1" d="M-167.4,108.5c0,0-0.2,0-0.2,0.1c0,0,0.1,0.1,0.3,0.1c0.1,0,0.3,0.1,0.3,0.1c0,0,0,0,0,0c0,0,0,0.1,0,0.1
					c0,0-0.3,0-0.4,0c-0.1,0-0.3,0-0.4,0c0,0,0.1,0.1,0.3,0.2c0,0,0,0,0.1,0c0,0,0,0,0-0.1c0,0,0,0,0,0.1c0.1,0,0.1,0,0.1,0
					c0,0,0,0.1,0,0.1c0,0-0.1,0.1-0.1,0.1c0,0-0.1,0.1-0.2,0.1c-0.1,0-0.1-0.2-0.1-0.2c0,0,0,0,0,0c-0.1,0-0.1,0-0.2-0.1
					c-0.1-0.1-0.2-0.1-0.3-0.2l0,0c0,0,0-0.1,0-0.1c0,0,0.2,0,0.3,0c0.1,0,0.2,0,0.3,0c-0.1,0-0.2-0.1-0.3-0.1c0,0-0.1-0.1-0.1-0.2
					c0,0-0.1,0.1-0.2,0.2c-0.1,0.1-0.1,0.2-0.1,0.4c0,0.2-0.1,0.4-0.2,0.4c0-0.1,0-0.1,0-0.1s0.1-0.2,0.1-0.3c0-0.1,0.1-0.2,0.1-0.2
					c0-0.1-0.2-0.2-0.3-0.3c-0.1-0.1-0.3-0.1-0.3,0c0,0,0,0,0,0c0,0,0,0,0.1,0c0.1,0.1,0.3,0.2,0.4,0.3c0.1,0.1,0.1,0.2,0,0.3
					c0,0.1-0.1,0.1-0.1,0.2c0,0,0,0,0.1,0c0,0,0,0,0,0c0,0-0.1,0.1-0.1,0.1c0,0,0,0,0,0c0,0,0-0.1,0-0.1l0,0c0,0,0,0,0,0
					c0,0,0-0.1,0.1-0.1c0-0.1,0.1-0.1,0.1-0.2c0-0.1-0.2-0.2-0.4-0.3c0,0,0,0.1,0.1,0.1c0,0,0,0,0,0c0,0,0,0.1,0,0.1c0,0,0,0,0-0.1
					c0,0-0.1,0,0,0.1c0,0,0,0.1,0,0.1c0,0,0,0.1,0,0.1c0,0-0.1-0.1-0.1-0.2c0-0.1,0-0.1,0-0.1c0,0,0,0,0,0c0,0,0-0.1-0.1-0.1
					c-0.1,0-0.2-0.1-0.2-0.1c-0.2-0.1-0.4-0.1-0.5-0.2l0,0c0,0,0,0.1,0,0c0,0,0,0,0-0.1c0,0-0.1,0,0,0.1c0,0,0,0.1,0,0.1
					c0,0,0,0.1,0,0.1c0,0-0.1-0.1-0.1-0.2c0-0.1,0-0.1,0-0.1c0,0,0.1,0,0.1,0l0,0c0,0,0,0,0,0c0.1,0,0.2,0,0.4,0.1
					c0.1,0,0.2,0.1,0.3,0.1c0,0,0,0,0,0c0-0.1,0.1-0.2,0.2-0.1c0.1,0,0.3,0.1,0.3,0.2c0.1,0.1,0.1,0.1,0.2,0.2c0,0.1,0,0.1,0,0.1
					c0-0.1,0-0.2,0.1-0.3c0.1-0.1,0.2-0.2,0.4-0.2C-167.4,108.4-167.4,108.5-167.4,108.5 M-167.4,109.3c0,0,0.1,0,0.2,0
					C-167.3,109.2-167.3,109.2-167.4,109.3C-167.4,109.2-167.4,109.3-167.4,109.3"/>
			</g>
			<g transform="matrix(7.3042,0,0,-6.7531,952.63,471.1)">
				<path class="st1" d="M-126.1,67.4c0,0,0.1,0,0.1,0.1c0.1,0,0.1,0.1,0.1,0.1c0,0,0,0,0,0c0,0,0,0,0,0c0,0,0,0,0,0
					c0,0,0,0.1,0,0.1c0,0,0,0.1-0.1,0.1c0,0,0,0,0,0h0l0,0c0,0,0-0.1,0-0.1c0,0,0,0,0,0l0,0c0,0-0.1-0.1-0.1-0.1
					C-126,67.5-126,67.5-126.1,67.4C-126.1,67.4-126.1,67.4-126.1,67.4 M-125.8,67.7L-125.8,67.7C-125.8,67.7-125.7,67.6-125.8,67.7
					C-125.8,67.6-125.8,67.6-125.8,67.7C-125.8,67.7-125.8,67.7-125.8,67.7 M-125.9,67.7C-125.9,67.7-125.8,67.7-125.9,67.7
					C-125.8,67.7-125.8,67.7-125.9,67.7L-125.9,67.7L-125.9,67.7C-125.8,67.7-125.8,67.7-125.9,67.7"/>
			</g>
			<g transform="matrix(7.3042,0,0,-6.7531,1215.5,576.87)">
				<path class="st1" d="M-160.9,82.6c0,0,0.1,0.1,0.1,0.1c0,0,0.1,0.1,0.1,0.1c0,0,0,0,0,0c0,0,0,0,0,0c0,0,0,0,0,0.1
					c0,0,0,0-0.1,0c0,0,0,0.1,0,0.1c0,0-0.1,0-0.1-0.1c0,0,0-0.1,0-0.1c0,0,0,0,0,0C-160.7,82.8-160.7,82.7-160.9,82.6
					C-160.8,82.6-160.9,82.6-160.9,82.6L-160.9,82.6C-160.9,82.6-160.9,82.6-160.9,82.6c-0.1,0,0-0.1,0-0.1c0,0-0.1,0-0.1,0
					c0,0,0,0.1,0,0.1c0,0,0,0,0,0s0-0.1,0-0.1c0,0,0,0,0,0c-0.1,0,0,0.1-0.1,0.2c0,0,0,0,0,0c0,0,0,0,0,0c0,0,0,0,0-0.1c0,0,0,0,0,0
					c0,0,0.1,0,0.1,0.1c0,0,0.1-0.1,0.1,0C-160.8,82.5-160.9,82.5-160.9,82.6L-160.9,82.6C-160.9,82.6-160.9,82.6-160.9,82.6
					 M-160.7,82.9C-160.7,82.9-160.6,82.9-160.7,82.9C-160.6,82.9-160.6,82.9-160.7,82.9C-160.7,82.9-160.7,82.9-160.7,82.9"/>
			</g>
			<g transform="matrix(7.3042,0,0,-6.7531,992.43,536.89)">
				<path class="st1" d="M-131.3,76.9c-0.1,0-0.1,0.1-0.1,0.1c0,0.1,0,0.2,0,0.2c0,0,0,0,0-0.1c0-0.1,0-0.2,0-0.3
					c0-0.1,0.1-0.1,0.1-0.1c0.1,0,0.1,0.1,0.1,0.2c0,0.1,0.1,0.3,0.1,0.3c0,0,0-0.1,0-0.2c0-0.1,0-0.3,0.1-0.3
					c0.1,0,0.2,0.1,0.3,0.1c0,0.1,0,0.1,0.1,0.2c0-0.1,0.1-0.2,0.2-0.3c0.1,0,0.2,0,0.2,0c0,0,0.1,0.1,0.1,0.2
					c0,0.1-0.1,0.2-0.1,0.2c0,0,0,0.1,0,0.1c0,0,0,0,0,0c0,0,0,0,0,0c0,0-0.1,0.2-0.1,0.1c0,0,0-0.1,0-0.1c0,0,0,0,0-0.1
					c0,0,0-0.1,0-0.2c0-0.1,0.1-0.2,0.1-0.2c0,0-0.1-0.1-0.2,0c-0.1,0-0.1,0.1-0.1,0.2c0,0.1,0,0.2,0,0.3c0,0.1,0,0.1-0.1,0.1
					c0,0,0-0.1,0-0.1c0,0,0-0.1,0-0.2c0-0.1,0-0.2-0.1-0.2c-0.1-0.1-0.2,0-0.3,0.1c0,0.1,0,0.3,0,0.4c0,0.1,0,0.1,0,0.1
					c0,0-0.1-0.1-0.1-0.2c0-0.1-0.1-0.2-0.1-0.3C-131.3,76.9-131.3,76.8-131.3,76.9"/>
			</g>
			<g transform="matrix(7.3042,0,0,-6.7531,642.92,468.66)">
				<path class="st1" d="M-85.1,67.1c0.1,0,0.1,0.1,0.1,0.1c0,0,0,0,0,0C-85,67.1-85.1,67.1-85.1,67.1c0,0.1,0,0.1,0,0.1
					c0,0,0,0,0.1,0.1l0,0c0,0,0.1,0,0.1,0c0,0,0,0,0,0.1c0,0-0.1,0.1-0.1,0.1c0,0,0,0,0,0c0,0,0,0,0,0c0,0,0,0,0-0.1c0,0,0,0,0,0
					c0,0,0,0,0,0l0,0c0,0-0.1,0-0.1-0.1C-85.1,67.2-85.1,67.2-85.1,67.1C-85.2,67.1-85.2,67.1-85.1,67.1 M-85,67.3L-85,67.3
					L-85,67.3C-84.9,67.3-84.9,67.3-85,67.3C-84.9,67.3-85,67.3-85,67.3C-85,67.3-85,67.3-85,67.3 M-85,67.3
					C-85,67.3-85,67.3-85,67.3C-85,67.3-85,67.3-85,67.3C-85,67.3-85,67.3-85,67.3C-85,67.3-85,67.3-85,67.3"/>
			</g>
			<g transform="matrix(7.3042,0,0,-6.7531,687.36,635.95)">
				<path class="st1" d="M-91,91C-91,91-91,91-91,91c0-0.1,0-0.1,0.1-0.1L-91,91c0.1-0.1,0.1-0.3,0.1-0.3c0,0,0,0,0,0.1
					c0,0,0,0.1,0,0.1c0,0,0,0.1,0,0.1c0,0,0,0,0,0c0,0,0,0,0,0.1c0,0,0,0.1-0.1,0c0,0,0-0.1-0.1-0.1c0,0,0-0.1,0-0.1
					C-90.8,90.9-90.9,91-91,91C-90.9,91-91,91-91,91"/>
			</g>
			<g transform="matrix(7.3042,0,0,-6.7531,630.59,621.43)">
				<path class="st1" d="M-83.5,89c0,0,0.1,0,0.1,0c0,0,0.1,0.1,0.1,0.1c0,0,0,0,0,0c0,0-0.1,0-0.2,0C-83.4,89.1-83.5,89.1-83.5,89
					C-83.5,89-83.5,89-83.5,89c0,0.1,0.1,0.1,0.1,0.1C-83.3,89-83.4,89-83.5,89C-83.5,89-83.5,89-83.5,89"/>
			</g>
			<g transform="matrix(7.3042,0,0,-6.7531,1778.1,690.36)">
				<path class="st1" d="M-235.3,98.8c0,0.1,0,0.2-0.2,0.3c0,0.1-0.1,0.1-0.2,0.2c0,0,0,0.1,0,0.1c0,0.1,0,0.3,0,0.5
					c0,0,0,0.1,0,0.1c0,0,0,0,0,0c0,0,0,0,0,0c0,0,0,0,0,0.1c0,0-0.1,0.2-0.1,0.2c0,0,0-0.1,0-0.1c0,0,0,0,0-0.1c0-0.1,0-0.4,0-0.6
					l0,0c-0.1,0.1-0.2,0.2-0.2,0.3c0,0,0,0,0,0c0,0.1,0,0.1,0,0.1c0,0,0,0.1,0,0.1c0,0,0,0,0,0c0,0,0,0,0,0c0,0,0,0,0,0.1
					c0,0-0.1,0.2-0.1,0.2c0,0,0-0.1,0-0.1c0,0,0,0,0-0.1c0,0,0-0.1,0-0.2c-0.1,0.1-0.1,0.2-0.1,0.2c0,0,0,0,0,0c0,0,0,0,0,0
					c0,0,0,0,0,0c0,0-0.1,0.1-0.1,0.1c0,0-0.1,0.1-0.1,0c0,0,0-0.1,0-0.1c0,0,0,0,0,0c0,0,0.1-0.1,0.2-0.2c0,0,0-0.1,0.1-0.1
					c0-0.1,0-0.2,0-0.2c0-0.2,0.1-0.6,0.1-0.7c0,0-0.1-0.1-0.2-0.1c-0.1,0-0.1,0-0.1,0.1c0,0,0,0,0,0.1c0,0-0.1,0.1-0.1,0.1l0,0l0,0
					c0,0-0.1,0-0.1-0.1c-0.1-0.1-0.1-0.2-0.1-0.2c0-0.1-0.1-0.1-0.1-0.1c-0.1,0-0.1,0.1-0.1,0.1c0.1,0,0.1,0.1,0.1,0.2
					c0,0.1,0.1,0.2,0.1,0.4c0,0.1-0.1,0.5-0.1,0.6c0,0.1,0,0.2,0,0.3c0,0,0,0,0.1,0c0,0,0,0,0,0.1c0,0-0.1,0.1-0.1,0.2c0,0,0,0,0,0
					c0,0,0-0.1,0-0.1c0,0,0,0,0-0.1c0,0,0-0.3,0.1-0.5c0-0.1,0.1-0.4,0.1-0.6c0-0.1,0-0.1,0-0.1c0,0,0-0.1-0.2-0.2
					c0,0.1,0,0.2,0,0.2c0,0,0-0.1,0-0.1c0,0,0-0.1,0-0.1c-0.1-0.1-0.3-0.2-0.4-0.2c0,0,0,0,0,0c0,0,0.3,0.1,0.4,0.1l0,0
					c0,0,0,0,0-0.1c0-0.1,0.1-0.1,0.2-0.1c0.1,0,0.1,0.1,0.1,0.1c0,0.1,0.1,0.2,0.1,0.3c0,0,0,0,0.1,0c0,0,0,0,0.1,0c0,0,0,0,0,0
					c0,0,0-0.1,0.1-0.1c0.1-0.1,0.2,0,0.2,0c0.1,0,0.1,0.1,0.1,0.2c0,0.1,0,0.2,0,0.3c0,0.1,0,0.2,0,0.4c0,0,0,0.1,0,0.2
					c0.1-0.1,0.1-0.2,0.2-0.2c0,0,0,0,0-0.1c0-0.2,0-0.4,0-0.5c0-0.1,0-0.2,0-0.3c0,0,0,0,0,0c0,0.1,0,0.2,0,0.4c0,0.1,0,0.2,0,0.3
					c0.1-0.1,0.1-0.1,0.1-0.2C-235.4,99-235.4,98.9-235.3,98.8c0-0.1,0-0.1,0-0.1C-235.3,98.7-235.3,98.7-235.3,98.8"/>
			</g>
		</g>
		<path id="sword" class="st1" d="M52,39c0-0.1-0.2-0.2-0.3-0.2s-0.3,0.1-0.3,0.2H50c0-0.2,0-0.3,0-0.4l2.8,0l0.1,0.1
			c0.1,0.1,0.2,0.2,0.3,0.3L52,39z M53.8,37.7h-3.4c0.3-0.2,0.4-0.5,0.4-0.7c0-0.2-0.2-0.3-0.4-0.3h-0.1c-0.3,0-0.4,0.2-0.4,0.4
			l0,0.1l0,0.1c0,0.1,0,0.3,0,0.4H25c0.4,0.5,1,0.9,1.8,0.9l22.7,0c-0.3,0.2-0.4,0.5-0.4,0.7c0,0.2,0.3,0.3,0.5,0.3
			c0.3,0,0.4-0.2,0.4-0.4l0-0.1h1.3c0,0.1,0.2,0.2,0.3,0.2c0.2,0,0.3-0.1,0.3-0.2h1.4v0c0.3,0.2,0.6,0.3,1,0.3
			c0.4,0,0.6-0.2,0.6-0.6v-0.2C55,38.2,54.5,37.7,53.8,37.7"/>
	</g>
</g>
</svg>
