<svg xmlns="http://www.w3.org/2000/svg" xmlns:xlink="http://www.w3.org/1999/xlink" width="30" height="20" viewBox="0 0 30 20"><defs><style>.cls-1{fill:#ce1126;}.cls-12,.cls-2{fill:#fff;}.cls-3{fill:#006847;}.cls-23,.cls-4,.cls-5{fill:#fcca3e;stroke:#aa8c30;}.cls-34,.cls-4,.cls-49{stroke-width:0.01px;}.cls-40,.cls-5{stroke-width:0.01px;}.cls-6{fill:#aa8c30;}.cls-7{fill:#9ca168;}.cls-8{fill:#717732;}.cls-9{fill:#016848;}.cls-10{fill:#cd202a;}.cls-11{fill:#30c2dc;}.cls-11,.cls-12{stroke:#0872a7;}.cls-11,.cls-14,.cls-15{stroke-width:0.03px;}.cls-12{stroke-width:0.05px;}.cls-13,.cls-34,.cls-49{fill:#f8c83c;}.cls-14,.cls-15{fill:#f9aa51;stroke:#953220;}.cls-14,.cls-15,.cls-49{stroke-linejoin:round;}.cls-15,.cls-49{stroke-linecap:round;}.cls-16{fill:#953220;}.cls-17{fill:#231f20;}.cls-18,.cls-21{fill:#8cbebf;}.cls-18,.cls-22{stroke:#04534e;stroke-width:0.03px;}.cls-19,.cls-22{fill:#0c8489;}.cls-20{fill:#04534e;}.cls-23{stroke-width:0.01px;}.cls-24{fill:url(#radial-gradient);}.cls-25{fill:url(#radial-gradient-2);}.cls-26{fill:#e92736;}.cls-27{fill:#f7e204;}.cls-28{fill:url(#radial-gradient-3);}.cls-29{fill:#a8ac71;}.cls-30{fill:#f1a720;}.cls-31{fill:#78732e;}.cls-32{fill:#c6c7a6;}.cls-33{fill:#1c242f;}.cls-34,.cls-49{stroke:#977c2e;}.cls-35{fill:#af7029;}.cls-36{fill:#816c2a;}.cls-37{fill:#fcca3d;}.cls-38{fill:#6f5b24;}.cls-39{fill:#404118;}.cls-40{fill:none;stroke:#78732e;}.cls-41,.cls-45{fill:#ab6d29;}.cls-41{stroke:#4d2a15;stroke-width:0.02px;}.cls-42{fill:#4d2a15;}.cls-43{fill:#d2a567;}.cls-44{fill:#8f4620;}.cls-46{fill:#202020;}.cls-47{fill:#202220;}.cls-48{fill:#4b4139;}.cls-50{fill:#904720;}.cls-51{fill:#803f1d;}.cls-52{fill:#b07229;}.cls-53{fill:#5c3a1d;}.cls-54,.cls-55{fill:#8b441f;}.cls-55{stroke:#5c3a1d;stroke-width:0px;}.cls-56{fill:#312317;}.cls-57{fill:#1e2121;}.cls-58{fill:#5c3818;}.cls-59{fill:#171717;}.cls-60{fill:#45392d;}.cls-61{fill:#dbad6c;}.cls-62{fill:#874f20;}.cls-63{fill:#b27129;}.cls-64{fill:#6c3f18;}.cls-65{fill:#f16e16;}.cls-66{fill:#d5d3ca;}.cls-67{fill:#6c4119;}.cls-68{fill:#bf802d;}.cls-69,.cls-73{fill:#f9c83a;}.cls-69{stroke:#8f4620;stroke-width:0.02px;}.cls-70{fill:#fcf3d8;}.cls-71{fill:#fdeaaf;}.cls-72{fill:#513625;}.cls-74{fill:#977c2e;}</style><radialGradient id="radial-gradient" cx="-1599.91" cy="423.34" r="0.92" gradientTransform="matrix(-0.02, 0.16, 0.15, 0.02, -86.32, 262.91)" gradientUnits="userSpaceOnUse"><stop offset="0" stop-color="#fff"/><stop offset="1" stop-color="#f15770"/></radialGradient><radialGradient id="radial-gradient-2" cx="-955.24" cy="1180.71" r="0.92" gradientTransform="matrix(0.16, 0.02, 0.02, -0.15, 136.89, 208.25)" xlink:href="#radial-gradient"/><radialGradient id="radial-gradient-3" cx="3469.81" cy="-1291.05" r="0.92" gradientTransform="matrix(-0.01, -0.16, 0.17, -0.01, 265.26, 569.74)" xlink:href="#radial-gradient"/></defs><title>mexico</title><g id="Layer_2" data-name="Layer 2"><g id="Layer_1-2" data-name="Layer 1"><path class="cls-1" d="M0,0H30V20H0Z"/><path class="cls-2" d="M0,0H20V20H0Z"/><path class="cls-3" d="M0,0H10V20H0Z"/><path class="cls-4" d="M17,12.7V13h.1v-.2Z"/><circle class="cls-5" cx="16.9" cy="12.6" r="0.1"/><path class="cls-4" d="M17.3,13.1l-.2-.2h.2Z"/><path class="cls-5" d="M17.2,13.2a.1.1,0,0,1,0-.1h.1a.1.1,0,0,1,0,.1Z"/><path class="cls-4" d="M18.6,10.5l.2.2h-.2Z"/><circle class="cls-5" cx="18.6" cy="10.5" r="0.1"/><path class="cls-4" d="M19.1,10.6h0Z"/><circle class="cls-5" cx="19.2" cy="10.6" r="0.1"/><path class="cls-4" d="M18.2,12l-.2-.3h0l.2.2Z"/><circle class="cls-5" cx="18" cy="11.7" r="0.1"/><path class="cls-4" d="M18.2,12h0Z"/><circle class="cls-5" cx="18.5" cy="12.1" r="0.1"/><path class="cls-5" d="M13.1,12.6h0Z"/><path class="cls-4" d="M13.1,12.8V13H13v-.2Z"/><path class="cls-5" d="M13.1,12.7h0Z"/><ellipse class="cls-5" cx="12.6" cy="13.1" rx="0.1" ry="0.1"/><path class="cls-4" d="M12.8,13.1h0Z"/><path class="cls-5" d="M12.8,13c0,.1,0,.2-.1.1s-.1-.1-.1-.1-.1-.1,0-.1Z"/><ellipse class="cls-5" cx="12" cy="11.6" rx="0.1" ry="0.1"/><path class="cls-4" d="M12,11.8V12h-.1v-.2Z"/><path class="cls-5" d="M12.1,11.7h0Z"/><ellipse class="cls-5" cx="11.5" cy="12" rx="0.1"/><path class="cls-4" d="M11.7,12h0Z"/><path class="cls-5" d="M11.6,11.9h0Zm-.2-1.6h-.1s0-.1,0-.1h.1s0,.1,0,.1Z"/><path class="cls-4" d="M11.2,10.7v-.3h0v.2Z"/><path class="cls-5" d="M11.3,10.5h.1a.1.1,0,0,1,0,.1h-.1Zm-.5,0h0Z"/><path class="cls-4" d="M10.9,10.6h.2l-.2-.2Z"/><path class="cls-5" d="M10.9,10.6h-.1s0-.1,0-.1H11a.1.1,0,0,1,0,.1Z"/><path class="cls-6" d="M17,12.7h0Z"/><path class="cls-6" d="M17,12.7h0Zm.2.4h0Zm.1.1h0Zm1.3-2.6h0Zm0-.1h0Zm.5.1h0Z"/><path class="cls-6" d="M19,10.6h0Zm-.9,1.2h0Zm0-.1h-.1s-.1-.1,0-.1h.1Zm.3.3h0Z"/><path class="cls-6" d="M18.5,12.1h0Zm-5.4.6h0Z"/><path class="cls-6" d="M13.1,12.8h0Zm-.2.2h0Zm0,.1h0Z"/><path class="cls-6" d="M12.6,13.1h0ZM12,11.7h0Zm-.1.1h0Zm-.3.2h0Zm0,0h0Zm-.1,0h0Zm-.1-1.6h0Z"/><path class="cls-6" d="M11.3,10.5a.2.2,0,0,1,0,0h0Zm-.3.1h.1l-.2-.2h0Zm-.1,0h0Zm-.1-.1h0Z"/><path class="cls-7" d="M19.4,10c0,.2-.2.3-.3.4l-.2.2h0c0,.1,0,.2,0,.2h.3l-.2.2c0,.1-.1.4-.3.5h-.5a.5.5,0,0,1-.2.4H16.8l-.6.2c-.2,0-.4-.3-.4-.3h.1l.3-.3h.8l.2-.2h.1v-.2h0l.2-.2.2-.2v-.2h0a.2.2,0,0,1,0,.2v.2h.5V11l.2-.2h0v-.2h.1v-.3h0V9.7h.1V10l.2-.6v.2h0a.5.5,0,0,1,.1.3Zm-3.7,3.6-.2-.2h.2Z"/><path class="cls-8" d="M16.9,13l.2-.2h.5l.3-.3h.1l-.2.2-.3.2h-.7Zm.7-.7-.3.4.3-.3.3-.2h.2s-.1-.1-.5.3Zm-.5.5h.1v-.2l.3-.3a.3.3,0,0,0,.1-.3.2.2,0,0,1,0,.1l-.4.4v.4Zm-.2.6h-.2l-.7.2-.4-.2h-.2c.2.1.3.3.5.3l.7-.2H17Zm-1.3-.1H16l.5-.3h-.3l-.3.2h-.2Zm0,.3h0Zm.1-.2H16c.3,0,.5-.2.7-.3h.1a1.9,1.9,0,0,0-.7.3h-.2Zm3.1-2.2-.3.5h-.2l-.2.2h-.1s0,0,0,0h.2l.3-.2.3-.5h.2Zm-.5.6h.1l.2-.2v-.6h-.2l-.3.5a1.5,1.5,0,0,0-.1.4Zm-.1.1s0,0,0-.2a1.8,1.8,0,0,1,0-.5l.3-.4h-.2a.5.5,0,0,0-.2.4v.5Zm.6-1.1v-.5l.2-.2a2.6,2.6,0,0,0,0-.4h-.1c0,.1,0,.3-.1.3l-.2.4a1.9,1.9,0,0,1,0-.3V9.8a2.1,2.1,0,0,0,0-.4v.2a1.3,1.3,0,0,0-.1.4,2.8,2.8,0,0,0,0,.3.4.4,0,0,1,0,.2h-.1Zm-.2-1.2a.3.3,0,0,1,.1.2.8.8,0,0,0,0,.4v.2a1.1,1.1,0,0,1,0,.2,1.1,1.1,0,0,0,0-.3h-.1c0-.1,0-.3,0-.4V9.6Z"/><path class="cls-7" d="M14.3,13.6h.2l.4-.2s0,.1,0,.1h-.6Z"/><path class="cls-7" d="M14.7,13.2h-.5l-.3-.2v.2h0l-.3-.3v.2h-.6s0,0,0,0h.4c.1,0-.1.1-.1.2h.4c.1.1-.1.1-.1.2h.2l.2-.2c0,.1-.1.1-.1.2h.2l.2-.2h.4Zm-1.5,0h-.3v-.2h-.1v-.3h-.1v.2h-.1V12h-.1v-.3h0a.5.5,0,0,0,0,.1h-.2l-.2-.2h-.1v-.3h0v.2h-.1v-.2h-.2a.7.7,0,0,0,0-.2.6.6,0,0,1-.1-.3h0c0-.1.2-.2.2-.2s-.2.1-.2,0,.2-.1.2-.3h-.2V9.5c0-.1,0-.1,0-.1H11v.2h-.2v.3h.4s-.3-.1-.2,0a.2.2,0,0,0,.1.2h.4l.2.2.3.2h-.1s.3.2.2.2h-.2c0,.1.1.2.1.2h0l.2.2h.2c0,.1-.1.1,0,.1H13l.2.2Z"/><path class="cls-8" d="M14.4,13.5h0Zm.5-.2h0Zm-2.8-1.1s0,0,0,0h-.1l-.3-.2h.2l.2.2h0Zm2,1.4h.1s0,.1,0,.1-.1-.2-.3-.2h-.1s.1.2.1.2l-.3-.2h-.1s.1,0,.1.1h.3s0,0,0,.1H14Zm-1.2-.7h0c0-.1,0-.2,0-.2h-.1s0-.2,0-.3h-.2s0,.2-.1.2,0-.2,0-.3h-.1s0,.2,0,.2h-.2s0,.1,0,.1h.2a1.1,1.1,0,0,0,0-.1h0v.2h.2v-.2a1.2,1.2,0,0,0,0-.2v.4h.3Zm-1.7-2a1.1,1.1,0,0,0,0-.2.8.8,0,0,0-.1-.3h-.2V9.8H11a.2.2,0,0,1,0-.1h.1l.2-.2s0-.1,0-.1H11c0,.1,0,.1,0,.2h-.1c-.1,0-.1.1-.1.1s.1.2.1.2-.2-.1-.2,0,.2.2.2.2H11a.7.7,0,0,1,.1.3,1,1,0,0,1,0,.2Zm.6.9a.2.2,0,0,1,0-.2c0-.1.1-.3.1-.3h-.1s0-.2,0-.3h-.1v.2s0-.1,0-.2h-.3c-.1,0,.1.2.1.2h.1a.3.3,0,0,1,0,.1h.2v.2h.2Z"/><path class="cls-2" d="M14.7,13.9h-.1l.3-.3v-.3h.2v.4h.1l.3.2h-.2l-.2-.2H15l-.2.2h-.1Z"/><path class="cls-9" d="M14.9,13.1h0v.3l-.3.2h-.3l.2-.3.2-.2a2.3,2.3,0,0,0,0-.3h.1Zm.4.9h0Z"/><path class="cls-10" d="M15.1,13.1h.1a2,2,0,0,1,0,.3v.2l-.2.2V14h-.1l.2-.2.2-.3a1.4,1.4,0,0,0,0-.3Z"/><path class="cls-10" d="M15.7,13.8h-.2l.2.2Z"/><path class="cls-11" d="M16.4,12.5h-.2l.5-.2H14.1c-.2,0-.3-.3-.3-.3h-.1s0,.2,0,.2l-.8-.3h0l.4.3h-.1s.7,0,.7.2h.4l.3.2h1.1l.5-.3h.3Z"/><circle class="cls-12" cx="13.1" cy="12.2" r="0.1"/><circle class="cls-12" cx="13.7" cy="11.7" r="0.1"/><circle class="cls-12" cx="16.5" cy="12.5" r="0.1"/><path class="cls-13" d="M12.5,11.5c0,.1.1.3.2.3h.2a.2.2,0,0,0,0-.1h-.4Z"/><path class="cls-2" d="M12.9,11.7h0Z"/><path class="cls-13" d="M13.8,12.6c0,.1,0,.1-.1.1h-.3c0-.1.1-.2.2-.2Z"/><path class="cls-2" d="M13.6,12.7h0Z"/><path class="cls-13" d="M16.6,12.2c.1.1.2,0,.2,0s.1-.1.1-.2h-.3a.1.1,0,0,0,0,.1Z"/><path class="cls-2" d="M16.6,12.2h0Z"/><path class="cls-14" d="M15.1,12h-.4l.2.5.2.3h.3v-.5l-.2-.2Z"/><path class="cls-14" d="M14.5,12h.2l.2.3v.4l.2.3h-.3l-.3-.5V12Z"/><path class="cls-14" d="M14.4,12h.1l.2.3v.3l.2.3h-.7V12h.1Zm1.3.1h-.6v.6l.2.3h.4v-.2h0v-.4h-.1Z"/><path class="cls-15" d="M14.3,12.1h0v.2h.1a.2.2,0,0,0-.1.2.3.3,0,0,0,.1.2v.2h.1m1.4-.6h0v.2h-.1s0,0,0,.1a.3.3,0,0,1-.1.2.2.2,0,0,1,.1.1.1.1,0,0,1-.1.1h0"/><path class="cls-16" d="M14.4,12.7h0Zm1.1-.6h0c0,.1,0,.1,0,.2h-.4Z"/><path class="cls-17" d="M16.4,12h0Zm.6-.2h0Zm.2.1h0Zm.3-.2h0Zm-.4-.6H17s0,.1,0,.1H17Zm-.3.2h-.1s0,.1,0,.1h.1Z"/><path class="cls-18" d="M16.2,11.6l-.2.2.6.2a1.1,1.1,0,0,0,.6-.3.6.6,0,0,0,0-.3l-.3-.2-.3.2c-.1.1-.1.2-.3.2h-.2Z"/><path class="cls-19" d="M16.2,11.6h.5l.3-.3h.3v.2H16.2Z"/><path class="cls-20" d="M16.8,11.4h0Zm.2.1h0Zm-.1.2h0Zm-.2-.1h0Zm-.3,0h0Z"/><path class="cls-21" d="M17,11.5h0Zm-.1.2h0Zm-.2-.1h0Zm.1-.3h0Zm-.4.3h0Z"/><path class="cls-17" d="M16.5,11.6h0Zm.3-.1h0Z"/><path class="cls-17" d="M16.8,11.6h0Zm.1-.3h0Zm.2.1H17s0,0,0,0h.1Zm0,.2h0Z"/><path class="cls-20" d="M17.3,11.5a.2.2,0,0,1-.1.2,1.1,1.1,0,0,1-.6.2l-.5-.2h1.2Z"/><path class="cls-17" d="M12.5,10.1h0Zm.4.4h0Zm-.9.1h0Zm.2.3h0Zm.3.2h0Z"/><path class="cls-18" d="M13,10.9a.7.7,0,0,0-.2-.6c-.3-.2-.4-.2-.5-.1a.4.4,0,0,0,.1.6.8.8,0,0,0,.6.2Z"/><path class="cls-19" d="M12.1,10.6s0-.2.1-.2a.4.4,0,0,1,.5.2.7.7,0,0,1,.1.5h-.6v-.2Z"/><path class="cls-20" d="M12.9,11h-.1a.8.8,0,0,1-.7-.5h.8Zm-.2-.1h0Zm0-.2h0Zm-.2.2h0Zm0-.3h0Zm-.2,0h0Zm0-.2h0Zm.2,0h0Z"/><path class="cls-21" d="M12.3,10.5h0Zm0,.2h0Zm.2-.2h0Zm0,.2h0Zm.2,0h0Zm-.2.3h0Zm.2,0h0Z"/><path class="cls-17" d="M12.7,10.5h0s0,.1,0,.1h0a.4.4,0,0,1,0-.1Zm-.2-.2h0Zm-.2,0h0Z"/><path class="cls-17" d="M12.3,10.4h0Zm.2.2h0Zm-.2,0h0Zm.5.1h0Zm-.1.1h0Zm-.2,0h0Z"/><path class="cls-20" d="M12.4,10.2l-.2.2a1.1,1.1,0,0,0,0,.2h.2Zm.6.7s0,0,0-.2l-.2-.3h.2Z"/><path class="cls-17" d="M13.1,10.7h0Zm-.3.7h0Zm.4.2h0Zm0,0h.1s0,0,0,0Z"/><path class="cls-18" d="M14,11.2a1,1,0,0,0-.7-.4.4.4,0,0,0-.4.4c0,.1.1.3.6.3s.5-.2.5-.2,0-.1,0-.1Z"/><path class="cls-19" d="M13.7,10.9l.2.2c0,.1.1.1,0,.1l-.5-.3H13a.3.3,0,0,0,.1.3h.6Z"/><path class="cls-20" d="M13.3,10.9h0Zm-.3.1h0Zm.3.1h0Z"/><path class="cls-21" d="M13.1,11.2h0Z"/><path class="cls-20" d="M13.5,11.3h0Zm.2-.1h0Z"/><path class="cls-21" d="M13.3,10.9h0Zm-.1.1h0Zm.1.2h0Zm.2-.1h0Zm.3.1h0Zm-.2.1h0Z"/><path class="cls-17" d="M13.6,11.2h0Zm-.2.2h0Zm-.1-.3h.1s0,0,0,0h-.1Z"/><path class="cls-17" d="M13.3,11.2h0Zm-.2,0h0Z"/><path class="cls-17" d="M13.1,11.3h0Zm0-.3h0Zm.1-.2h.1s0,0,0,.1h-.1Z"/><path class="cls-20" d="M13.9,11.3h-.4a.8.8,0,0,1-.6-.3h1.1Zm0-.1h-.1l-.3-.2h.5Z"/><path class="cls-17" d="M14,10.9h0Zm.2-.1h.1s0,.1,0,.1h-.1Z"/><path class="cls-17" d="M14.3,10.8h.1s0,.1,0,.1h-.1Zm.4.1h.1a.2.2,0,0,1,0,.1h0a.1.1,0,0,0,0,0Zm.1,0h0Zm-.7.8h0Zm.4.1h0Zm.3,0h0Z"/><path class="cls-17" d="M14.8,11.8h0s0-.1,0-.1h0Z"/><path class="cls-18" d="M13.9,11.3c0-.1.2-.4.4-.4h1.1l-.2.3h-.1l-.3.2h-.7a.4.4,0,0,1-.3-.4Z"/><path class="cls-20" d="M13.9,11.3h0V11h1.3l-.2.3h-.1l-.3.2H14v-.2h0v.2h.9l.3-.2h.1l.2-.3H14.1l-.2.2v.2h0Z"/><path class="cls-19" d="M15.2,11.4h-.1l-.8-.4c-.2,0-.4.1-.4.3s0,.2.1.2h1.2Z"/><path class="cls-20" d="M14.3,11.3h0Zm.1-.2h0Zm.4.1h0Zm.1.2h0Zm-.2.1h0Zm-.3-.1h0Z"/><path class="cls-21" d="M14.3,11.3h0Zm.2-.2h0Zm.4.1h0Z"/><path class="cls-20" d="M14.6,11.3h0Z"/><path class="cls-21" d="M14.3,11.5h0Zm.2-.2h0Zm.3.1h0Zm-.2.2h0Z"/><path class="cls-17" d="M14.7,11.4h0Zm-.1-.3h0Zm-.2.1h0Zm0,.1h0Zm-.1-.3h.1s0,.1,0,.1h-.1Zm-.2.1h.1s0,0,0,0h-.1Z"/><path class="cls-17" d="M14.1,11.3h0Zm.5.3h0Zm-.3,0h0Z"/><path class="cls-20" d="M15.1,11.5l-.2.2h-.8l-.2-.2h1.2Zm-.2-.3h-.2l-.5-.2a.4.4,0,0,0-.3.2h1Zm.3.1h0Z"/><path class="cls-22" d="M15,12.2h.4V12h-.1l-.2.2a.6.6,0,0,0-.1.3c0,.2,0,.4,0,.4Z"/><path class="cls-21" d="M15.1,12.1c.1,0,0-.1.1-.2l.2-.2h.4s0,0,0,0H16s0,0,0,0h.1s0,0,0,0h.1a.1.1,0,0,0,0-.1v-.2h-.8s0,.2,0,.1h-.1v.7Z"/><path class="cls-21" d="M15.3,11.9h0Zm.3-.3h0Zm.3.1h0Zm-.8.1h0Z"/><path class="cls-20" d="M15.4,11.9h0Zm.7-.5H16a.1.1,0,0,1,0-.1h.1Zm-.7.2h0Zm.1,0h0Zm.2-.2a.1.1,0,0,1,0,.1h0Zm-.7.9h.3s0-.2.1-.3H16a.4.4,0,0,0,.3-.2c0-.1-.1-.1-.2-.2h-.7s0,.1,0,.1h-.1v-.2h.2l.3-.2h.5a.4.4,0,0,1-.4.3h-.4c-.1.1-.1.3-.1.3h-.4Z"/><path class="cls-17" d="M15.2,11.7h0a.2.2,0,0,1,0-.1h0Zm.2,0s0,0,0-.1h0Zm-.1.3h0Z"/><path class="cls-17" d="M15.5,11.9h0Zm.2-.4h0s0,.1,0,.1h.1Z"/><path class="cls-17" d="M15.8,11.6h0Zm-.1-.2h0Zm.4,0h0Zm-.1.3h0Z"/><path class="cls-23" d="M13.7,10.4v.2h.1v-.2Z"/><path class="cls-4" d="M13.7,10.3h0Z"/><path class="cls-23" d="M11.9,9.6v.3H12V9.6Z"/><path id="D" class="cls-4" d="M11.8,9.5a.1.1,0,0,0,0,.1h.1a.1.1,0,0,0,0-.1Z"/><ellipse class="cls-24" cx="13.6" cy="10.8" rx="0.2" ry="0.2" transform="translate(0.8 22.6) rotate(-81.3)"/><path class="cls-6" d="M13.7,10.3h0Z"/><path class="cls-6" d="M13.7,10.4h0Z"/><path id="E" class="cls-6" d="M11.8,9.5s0,0,0,0a.1.1,0,0,0,0,.1h0Z"/><path id="F" class="cls-6" d="M11.9,9.7h0Z"/><ellipse class="cls-25" cx="12.1" cy="10.1" rx="0.2" ry="0.3" transform="translate(-3.3 6.6) rotate(-27.1)"/><path class="cls-26" d="M13.8,10.7h0Z"/><path class="cls-26" d="M13.6,10.5h0Z"/><path class="cls-26" d="M13.4,10.6h0s0,.1,0,.1Z"/><path id="G" class="cls-26" d="M11.9,10.1h0a.3.3,0,0,1,0,.1h0Z"/><path id="H" class="cls-26" d="M11.9,9.9h0s0,.1,0,.1Z"/><path id="I" class="cls-26" d="M12.2,9.9a.2.2,0,0,0,0-.1h0Z"/><path class="cls-27" d="M13.5,10.6h0Zm.1,0h0Zm.1.1h0Z"/><path id="J" class="cls-27" d="M11.9,10h-.1s0,0,0,0h.1Zm0-.1h0Zm.2-.1a0,0,0,0,0,0,0h0Z"/><path class="cls-23" d="M17.8,10.8l-.2.2h0l.2-.2Z"/><path id="D-2" data-name="D" class="cls-4" d="M17.8,10.7a.1.1,0,0,1,0,.1h-.1a.1.1,0,0,1,0-.1Z"/><ellipse class="cls-28" cx="17.4" cy="11.2" rx="0.3" ry="0.2" transform="translate(-2.6 16.8) rotate(-48.5)"/><path id="G-2" data-name="G" class="cls-26" d="M17.7,11.2h-.1a.1.1,0,0,1,0-.1h.1Z"/><path id="H-2" data-name="H" class="cls-26" d="M17.6,11.1h0Z"/><path id="I-2" data-name="I" class="cls-26" d="M17.4,11h0Z"/><path id="J-2" data-name="J" class="cls-27" d="M17.6,11.1s0,.1,0,.1h0Zm0-.1h-.1a.1.1,0,0,1,0-.1h.1Zm-.1-.1h0Z"/><path id="E-2" data-name="E" class="cls-6" d="M17.8,10.7h0a.1.1,0,0,1,0,.1h-.1s0,0,0,0h.1Z"/><path id="F-2" data-name="F" class="cls-6" d="M17.7,10.8a0,0,0,0,1,0,0h0Z"/><path class="cls-29" d="M13.1,7.8h-.4c-.1,0-.1-.4-.1-.4s-.1-.1-.1-.2l.3-.3h0s0,.1,0,.1h0s0,.1.1.1h.2Zm-.8.9a.2.2,0,0,1,.1.2c0,.1-.1.2-.1.4s0,.2.3.5h.1c0,.1.1.5.3.5s.3-.2.3-.2V10H13V9.6c-.1-.2-.3-.2-.3-.4s.1-.2.1-.4-.3-.3-.3-.3h-.1v.2Z"/><path class="cls-30" d="M13.1,7.1c.1,0,0-.3,0-.3h0Z"/><path class="cls-29" d="M13.2,9.5h0S13,9.4,13,9s.6-.6.6-.8.2-.2-.3-.6h.1l-.3.3H13v.2a.7.7,0,0,0,0,.3.5.5,0,0,0,.4.5Z"/><path class="cls-31" d="M13,9.8h0Zm-.3,0h0Zm.2-.2h0Zm0,.7h0Zm.3-.2h0Zm-.3.3h0Zm.2-.1h0Zm-.1.1h0Zm-.1-1.1h0Zm.1.2h0Z"/><path class="cls-32" d="M12.6,7.1s0,.1,0,.1h.2l-.2.2Z"/><circle class="cls-33" cx="12.9" cy="6.9"/><path class="cls-29" d="M12.8,6.9H13s0,0,0,0h-.2Z"/><path class="cls-31" d="M13,9.2h0ZM12.8,9a.9.9,0,0,1,0-.1V8.7h0ZM13,9h0m-.2-.3h0Zm.3.2h0ZM13,8.4h.1v.2H13Z"/><path class="cls-31" d="M13.2,8.7h0Zm.1-.3V8.2h0Zm.2-.2h0Zm.1.2h0ZM13,7.7h0Zm.4.9h0Zm.3-.3h0Z"/><path class="cls-31" d="M13.5,8.1h0Zm.2-.1h-.1v.2h.2Z"/><path class="cls-2" d="M12.4,9h0Zm0-.3h0Zm.2.2h0Zm-.3-.3h0a.2.2,0,0,1,0-.1h0Zm0-.1h0a.3.3,0,0,1,0-.1Zm.4-1h.1a.2.2,0,0,0,0,.2h0Zm.1.1h0Zm-.4,1.2h0Zm1.2-.6h-.3a.6.6,0,0,0,0,.2h-.2a.5.5,0,0,0,0,.2H13v.2h-.2v.2h.6V8.3h.1ZM13,9h0Zm0-.2h-.1c0-.1-.1-.1-.1-.2h.2Zm.1-.1H13a.9.9,0,0,1,0-.2h.2Zm0-.2a.5.5,0,0,1,0-.2h0Zm.3-.1h-.2a1.3,1.3,0,0,1,0-.2h.2Zm0-.2h0Zm-.4,1h0Zm-.6-.1h0Zm.7,1.1h-.1V10h-.2V9.8h0v.2h.3Zm-.4-.2H13s0,0,0,.1h-.1Zm.1.2h.2a.3.3,0,0,1,0,.2Zm-.1-.5h-.1V9.7Zm-.2-.3h0Zm.2.1h0Zm-.2,0h0ZM12.8,7h0v.2h0V7.2h-.1Z"/><path class="cls-31" d="M13.1,7.5h0Zm-.2,0h0Zm0,.3h0Zm.4,2.5h-.5V9.7l-.2-.2a.4.4,0,0,1-.2-.3h0V8.8h0v.4h0a.4.4,0,0,0,.2.3l.2.2V10h.6Zm-.1-.3H13V9.6l-.2-.2-.2-.2h0V8.8h0l-.2-.2h0v.2h0v.4h0l.2.2.2.2v.2h.2Z"/><path class="cls-29" d="M13.7,9.5h.1v.2h0Z"/><path class="cls-34" d="M12.1,8.6h0Z"/><path class="cls-34" d="M12.2,8.6h-.1s0-.1,0-.1h.2v.2Z"/><path class="cls-34" d="M12.3,8.6h-.1c-.1,0,0-.1,0-.1h.1Z"/><path class="cls-35" d="M13.6,9.5h-.4V8.9h.1s-.3.1-.1.6a.3.3,0,0,0,.2.2h.3Z"/><path class="cls-36" d="M13.4,7.9h.1c-.1.2-.3.3-.4.4l-.2.2a.7.7,0,0,0-.1.4h0a.6.6,0,0,0,.2.5h0a.6.6,0,0,1-.2-.5h0a.6.6,0,0,1,.1-.3l.3-.3.3-.3h-.1Z"/><path class="cls-2" d="M13.8,9.6h0Z"/><path class="cls-37" d="M14,9.7h-.5l-.3-.3H14Z"/><path class="cls-35" d="M14,9.7h-.3V10H14V9.8Z"/><path class="cls-37" d="M14,9.6h0Zm-.1-1.6h-.5l.3.3h.2Z"/><path class="cls-35" d="M13.7,8.1a.4.4,0,0,1,0,.2h0Z"/><path class="cls-36" d="M13.9,9.9h0Z"/><path class="cls-38" d="M14,9.8h0Z"/><path class="cls-39" d="M14,9.9H14V9.8h0Z"/><path class="cls-40" d="M13.1,7.8h-.4c-.1,0-.1-.4-.1-.4s-.1-.1-.1-.2l.3-.3h0s0,.1,0,.1h0s0,.1.1.1h.2Z"/><path class="cls-41" d="M14.9,6.2s-.4-.1-.4.2v.2l.4.2a.3.3,0,0,1,.1.3h0v.7l.3-.2.2-.5-.2-.8Z"/><path class="cls-42" d="M15.3,7.8l.2-.2V7.5h.2s.1-.1,0-.2h0V7.1h0V6.8h-.7c.1,0,0-.1,0-.1H15l.5.3.2.2v.9l-.3.2h-.1Z"/><path class="cls-43" d="M14.9,6.4h-.3a.2.2,0,0,0,0,.2h.3Z"/><path class="cls-44" d="M15.4,7.9h-.1v.4l.4.7H16l.2.2h.2l.3.4s0-.1,0-.1V9.1H17V9.1h.3V9h.1v.6h.1V9h.1v.6h.1V9h.1V10l.2-1.5h0L18,8.1V7.8l-.2-.4L17.3,7,17,6.8h-.3l-.2-.2H14.9a.2.2,0,0,0,0,.1H15l.3.2h.2v.6l-.2.3h-.1Z"/><path class="cls-45" d="M15.8,8.8a.1.1,0,0,0,.2,0c.1-.1,0-.3,0-.3H16a.3.3,0,0,1,0,.2V9h-.1Z"/><path class="cls-42" d="M18,10.2V9.3c0-.1,0-.2,0-.2h-.1V8.7l-.2-.5h.5v.2a2.5,2.5,0,0,1,.1.4,1.1,1.1,0,0,1-.1.4,3.7,3.7,0,0,0-.1.6H18Z"/><path class="cls-44" d="M18,9.5h.1a2.1,2.1,0,0,0,0-.7h-.2v.2H18a1.8,1.8,0,0,1,.1.3Z"/><path class="cls-42" d="M17.7,9.9a3.4,3.4,0,0,0,0-.5c0-.2,0-.2-.1-.3V8.4h-.1l.2.2V9.9Zm.1-1.4h0Z"/><path class="cls-42" d="M17.4,9.8a.5.5,0,0,0,0-.2V9.1l-.2-.3V8.6h-.1V8.2h.3v.5h.1v1h0Zm-.2-.2a1,1,0,0,0,0-.3V9.1l-.2-.3-.2-.3V8.3h.2v.2h.2v.2h0v.2h-.1Zm-.2,0h-.1a.1.1,0,0,0,0-.1V9.2h-.1l-.2-.2-.2-.2h-.1V8.4h.2l.2.3h.3v.2h0Zm-.3-.1V9.3c0-.1,0-.1,0-.1L16.4,9l-.2-.2h.1l.2.3h.1v.2h.1Zm.9-1.3s.2.2.2,0a.5.5,0,0,0-.1-.2l-.2-.3-.3-.4h-.1l.3.5a.8.8,0,0,1,.1.5h0ZM16.6,7l.5.6c.2.3.3.5.3.6h-.2l-.3-.5-.3-.3V7.1Zm-.2.7.3.3.2.2H17s0-.1,0-.1h.1l-.6-.7Zm0,0,.2.2.2.2v.2l-.3-.2v.2h-.1V7.7h.1Zm-.9.7s.1.1.2,0a.3.3,0,0,0,0-.3s.2.3.3,0V7.9h0V8a.2.2,0,0,0,.1-.2.7.7,0,0,0-.1-.3h.1s.2,0,.2-.1-.2-.2-.2-.2h.1L16.1,7h.4c0-.1,0-.1,0-.1H16v.3h0v.6h-.4Z"/><path class="cls-45" d="M16.6,9V8.8h-.2l.2.2Zm.3.1-.2-.2-.2-.2h0v.2h.3Zm.3,0V8.7l-.2-.2v.5Zm.2-.1a1.1,1.1,0,0,0,0-.4h-.2v.4Zm.2-.6h.1v.5h0l-.2-.3V8.3Z"/><path class="cls-43" d="M16.1,8.7h.1V8.5h.1s-.1-.2-.1-.2v.2a.3.3,0,0,1,0,.2c-.1.2-.2.1-.2.1Zm.3-.2h.2V8.3h.1V8.1h0v.2a.4.4,0,0,1,.1.3c0,.1-.3,0-.3,0Zm.7-.2s0-.1,0-.1h0Zm-.5.1h.3l-.2-.2h.1s0,.1,0,.1h.1s0-.2,0-.2h.3s0,.1,0,.2H17s0,.1,0,.1h-.3Zm.6-.2h.3s-.1-.4-.1-.5.2.4.1.5h-.4Zm.8.7h0Zm-.3-.9h0Zm-.1-.1h0Zm.2.8h0Zm-.4-1.2h0ZM17,7h.2a.4.4,0,0,1,0,.2H17Zm-.2-.1h0Zm-.4-.2h.1l.2-.2h.1a.2.2,0,0,1,0,.1h-.4Zm0-.2h-.1v.2a1,1,0,0,1,0,.2h0Zm-.3-.1-.3-.2.3.2v.2h0Zm-.3-.1-.6-.2c-.2,0-.3,0-.3.1h.6l.3.2a.3.3,0,0,1,0,.2h-.1Zm-.5,1.6a.4.4,0,0,0,.3-.4,1.9,1.9,0,0,0-.1-.7h.1a1.4,1.4,0,0,1,.1.6.4.4,0,0,1-.2.4h-.2Zm.3.6h.1c.1,0,.2-.1.2-.2V8.1a.2.2,0,0,1,0-.1H16V7.9a.1.1,0,0,1,0-.1h.4a.1.1,0,0,1,0,0h-.8Z"/><path class="cls-43" d="M16.3,7.3s.2.1.2-.1L16.3,7h.3c0-.1,0-.1,0-.1h.1v.3s0,.1-.1.1h-.2ZM16.5,9h-.2l.2.2Zm.3,0V8.8h-.1s0,.2,0,.2l.2.2Zm.3,0V8.5c-.1,0,0,.1,0,.1v.3Zm.2-.1V8.4s0,.2,0,.2Zm.4.1V8.9Zm.4-.5h0Z"/><path class="cls-46" d="M16.5,8.6a.4.4,0,0,0,.1.2l.3.3v.6h0s0,0,0-.1a1.3,1.3,0,0,0-.1-.4l-.3-.3V8.6h.1Z"/><path class="cls-46" d="M16.9,9.4V9.2l-.2-.2h-.1l-.2-.2h0l.3.3v.3h.1V9h.1l.2.2v.4h0V9.4Zm-.3-1.1h.2a.9.9,0,0,0,.1.4l.2.2a1.5,1.5,0,0,0,.1.4,1,1,0,0,1,.1.4V9.1h0v.5h0v-1h-.2Z"/><path class="cls-46" d="M17,8.3h.2a.8.8,0,0,0,.1.4l.2.2v.8a3.7,3.7,0,0,1,0,.6c-.1-.1,0-.3,0-.4a1.6,1.6,0,0,1-.2-.4c-.1-.3,0-.4-.1-.5h0c0,.1,0,.3.1.4l.2.4s0-.3,0-.5a2.3,2.3,0,0,0-.1-.4l-.2-.2V8.4H17Z"/><path class="cls-46" d="M17.2,8.2h.3a1,1,0,0,0,.1.4V9s0,.6,0,.8,0,.8,0,.8,0-.5,0-.6V9.8c0-.1,0-.4-.1-.6v0c0,.1,0,.5.1.6V10c0,.1,0-.8,0-.8a2.3,2.3,0,0,1-.2-.5V8.4h-.1V8.2Z"/><path class="cls-46" d="M17.6,8.2l.2.2h.3a1.2,1.2,0,0,1,.1.6,1.8,1.8,0,0,1-.1.5c0,.3,0,.8-.1.9h0c0,.1,0,.2,0,.2s-.1-.1-.1-.1a2.4,2.4,0,0,0,0-.3,2.4,2.4,0,0,0-.1-.3c0-.2,0-.7,0-.8V9h.1c0,.1,0,.7.1.8s0,0,0-.1a4.2,4.2,0,0,0,0-.5,1.6,1.6,0,0,0-.1-.6H18a1.3,1.3,0,0,1,.1.4,6.3,6.3,0,0,0,0,.9s0-.3.1-.6a1.8,1.8,0,0,0,.1-.5,1.1,1.1,0,0,0-.1-.5h-.3l-.2-.2Zm-2,.3h.1l.2-.2h.2a.4.4,0,0,0,0-.2h.1V7.8h.2c0-.1,0-.2-.1-.2h.2V7H17l.3.3h0l.2.3h0l.2.3-.4-.5-.3-.2.2.4.2.3a2.6,2.6,0,0,0-.5-.7L16.7,7s-.1.2,0,.2l.4.4.4.6L17,7.6l-.4-.4h-.2l.3.3h0L17,8h0v.2l-.4-.4-.3-.2h-.1l.3.3.2.2-.2-.2-.2-.2s0,.1,0,.1l.2.3L16.3,8h-.1l.4.4-.3-.3v.3l-.2-.3H16l.3.3-.3-.3h0v0h-.3Z"/><path class="cls-46" d="M18.1,8.5h0c-.1-.1-.3-.7-.5-1a3.1,3.1,0,0,0-.7-.7,2.4,2.4,0,0,1,.7.7c.3.5.4.8.5.9h0Zm-2.6-.1h.2l.2-.2h0V7.7h0s0-.2,0-.2h0a.3.3,0,0,0,0-.2h-.2V6.4l-.2-.2H16a.2.2,0,0,0,0-.1h0a.2.2,0,0,1,0,.1h.2s0-.1,0-.1h.3a.2.2,0,0,0,0-.1h0c0,.1,0,.1,0,.1h-.1L16,6.7l.2.2V7H16l.3.2h-.2v.2h-.1a.2.2,0,0,1,0,.1h-.6Z"/><path class="cls-46" d="M16.9,6.7h-.3A2.7,2.7,0,0,0,15.3,6h-.1a2.7,2.7,0,0,1,1.3.4h.4Zm-1.4.1h0V6.6L15,6.4l.4.3.2.2Z"/><path class="cls-43" d="M15.5,7.4h0Zm0-.3h0Zm-.1-.2h0Zm-.1-.2h0Zm-.3-.2h0Z"/><path class="cls-34" d="M14.1,9.9H14V9.9Zm0-.1V9.6c-.1,0,0,.1,0,.1h0s0,.1,0,.1h.1Z"/><path class="cls-34" d="M14.1,10.1h.1m-.2,0V9.9h-.1Z"/><path class="cls-34" d="M14,10.1h0Z"/><path class="cls-34" d="M14.1,10h0Z"/><path class="cls-34" d="M14,10l-.2.2c-.1,0,0-.3,0-.3H14Z"/><path class="cls-34" d="M13.8,9.9h.1c-.1,0-.1-.1-.1-.1Z"/><path class="cls-47" d="M13.3,10.2h0Z"/><path class="cls-48" d="M13.3,10.2h0Z"/><path class="cls-47" d="M13.4,10.2h0Z"/><path class="cls-48" d="M13.4,10.2h0Z"/><path class="cls-48" d="M13.4,10.2h0Z"/><path class="cls-47" d="M13.5,10.1h.2V10h-.1Z"/><path class="cls-48" d="M13.5,10.1h.2V10h-.1Z"/><path class="cls-48" d="M13.5,10.1h0Zm-.2.1h0Z"/><path class="cls-34" d="M13.7,9.9v.2h-.1Zm-.4,0h-.1a.2.2,0,0,0,0,.1h.1Z"/><path class="cls-34" d="M13.3,10h0Z"/><path class="cls-34" d="M13.3,10.1h0Zm0-.3h0Z"/><path class="cls-34" d="M13.4,9.9h0Z"/><path class="cls-34" d="M13.5,10.1h0Zm.1-.4h-.1v.2s0,.1,0,.2h.2Z"/><path class="cls-34" d="M13.5,10h.1c.1,0,0,.1,0,.1h-.1Z"/><path class="cls-34" d="M13.6,10h-.2s0-.1,0-.1h.2Z"/><path class="cls-34" d="M13.5,9.8s-.1,0,0,.1h0Z"/><path class="cls-47" d="M13.7,9.6h0Z"/><path class="cls-48" d="M13.7,9.6h-.2s0,.1,0,.1a.2.2,0,0,1,0-.1h.2Z"/><path class="cls-34" d="M15.5,10.9h0Z"/><path class="cls-34" d="M15.3,10.9h0Zm.7,0h-.2V11H16Z"/><path class="cls-34" d="M15.3,10.9h-.2s0,.1,0,.2h.1l.3-.2h-.3Z"/><path class="cls-34" d="M15.5,11h0Zm.6-.1h0Z"/><path class="cls-34" d="M15.7,10.9h0Zm.5.1h0Z"/><path class="cls-49" d="M16,11.1h.4s0-.1-.1-.1h-.8a.1.1,0,0,0,.1-.1h.2"/><path class="cls-34" d="M15.9,10.6v.2s0,.2,0,.2h-.2a.6.6,0,0,1,0-.2Z"/><path class="cls-49" d="M15.7,11.1H16"/><path class="cls-47" d="M15.1,11.3s0-.1,0-.1h.1s0-.1,0-.1h0s-.2,0-.2.1a.1.1,0,0,0,.1.1Zm.3.3s-.1-.1,0-.1h.1s0,0,0-.1h-.1a.2.2,0,0,0-.1.2h.1Zm1-.1s.2.1.2-.1a.2.2,0,0,0-.1-.2h0C16.4,11.5,16.3,11.5,16.3,11.5Z"/><path class="cls-48" d="M15.3,11.5a.2.2,0,0,1-.1-.2h0a.2.2,0,0,0,.1.2Zm-.3-.3a.1.1,0,0,1-.1-.1c0-.1.2-.1.2-.1s-.2,0-.2.1.1.1.1.1Zm1.3.2h.2a.2.2,0,0,0,0-.2h0a.2.2,0,0,1,0,.2h-.2Z"/><path class="cls-50" d="M14,7.4h0Z"/><path class="cls-46" d="M15.9,10.3V10l-.8.3.3.3Z"/><path class="cls-43" d="M14.4,9.8h0Zm0,.1h0Z"/><path class="cls-43" d="M14.6,10.1h.1V9.7l-.2-.3h0V10Z"/><path class="cls-45" d="M14.4,9.5s0,0,0,.1a1.4,1.4,0,0,0,.1.4h-.1a1.1,1.1,0,0,1-.1-.4c0-.2,0,0,0,0Z"/><path class="cls-45" d="M14.6,9.7h-.1a.5.5,0,0,0,0,.1h0s0,.1,0,.1V9.7Zm0,.5h0Zm-.4,0h0Z"/><path class="cls-43" d="M14.1,10.1h0Z"/><path class="cls-45" d="M14.7,10h0Z"/><path class="cls-42" d="M14.4,9.8h-.1V9.5h.1a.3.3,0,0,0,0,.1v.2Z"/><path class="cls-43" d="M13.9,10.2h0Z"/><path class="cls-44" d="M14.7,9.7v.2h-.1c0-.1,0-.1,0-.1h0a.9.9,0,0,1,0-.2Z"/><path class="cls-45" d="M14.2,10.2h0Z"/><path class="cls-44" d="M14.4,9.8l-.2-.3a.5.5,0,0,1,0-.3l.2.2a.2.2,0,0,0,0,.1v.3Z"/><path class="cls-45" d="M14.3,10.5a.1.1,0,0,1,0-.1l.4-.2v.2l-.3.2Z"/><path class="cls-44" d="M14.3,10.3h0Zm.5,0h0Z"/><path class="cls-45" d="M14.8,10.4s-.1,0-.1-.3a1.1,1.1,0,0,1,0-.3h.1v.5Z"/><path class="cls-44" d="M14.8,10v.2a.5.5,0,0,0,0,.2h.2V10Z"/><path class="cls-46" d="M15,10.1s0,.3-.1.4h0c.1,0,0-.4,0-.4h0Zm-.2.2h0Z"/><path class="cls-45" d="M14.5,9.9h.1V9.8Z"/><path class="cls-44" d="M14.3,10.4s0-.1,0-.1h0Z"/><path class="cls-46" d="M14.3,10.4h0Z"/><path class="cls-45" d="M14.4,9.9h-.2a.1.1,0,0,1,0-.1h.1Z"/><path class="cls-44" d="M14.2,9.7h0Z"/><path class="cls-44" d="M14.4,9.7h0Z"/><path class="cls-46" d="M14.8,9.5l.9-.5.4.6-.8.2h-.6Z"/><path class="cls-42" d="M16,9.8l1.2,1h-.4l-.6-.6L16,10Z"/><path class="cls-42" d="M17.5,10.6l-.7-.5L16,9.4v.3l1,.9.3.2h.2Z"/><path class="cls-51" d="M16,9.9l.6.6.5.4h0L16,9.8h0Z"/><path class="cls-42" d="M16.9,10.8h-.3l-.7-.7H16Z"/><path class="cls-46" d="M17.5,10.6s-.1.2-.3.2a10,10,0,0,1-1.2-1h0a8.7,8.7,0,0,0,1.2,1c.2,0,.4-.1.3-.2h-.1Z"/><path class="cls-51" d="M15.9,10l.5.6.4.3c.1,0,0-.1,0-.1l-.5-.5L16,10h-.1Z"/><path class="cls-46" d="M16,10l.9.9h0A5.4,5.4,0,0,1,16,10h0Z"/><path class="cls-42" d="M16.3,10.8l-.3-.3h-.1l.6.6h-.2Z"/><path class="cls-46" d="M16.9,10.8h-.3l-.6-.6h0l.8.7h.2Z"/><path class="cls-46" d="M16.5,10.8h-.2l-.4-.4h0l.5.5h.1Z"/><path class="cls-52" d="M16.2,9.7l.4.3h.1l.2.2h.1l.2.2h.1l.2.2-.3-.2h0s0-.1,0-.1l-.2-.2h0s0-.1,0-.1l-.2-.2h-.1l-.4-.4Z"/><path class="cls-42" d="M15.6,10.7s0,.1-.1.1-.2-.2-.2-.2v-.2l.2.2v.2Zm.5-.1a.4.4,0,0,0,0-.1h-.2v.2H16Z"/><path class="cls-42" d="M15.9,10.8s0-.2,0-.2v-.3h-.2v.2l.2.2Z"/><path class="cls-46" d="M15.8,10.3h.1v.2H16s0-.1,0-.1H16v-.2a.5.5,0,0,1,0-.1v.3h0v-.2h.1a2.9,2.9,0,0,0,0-.3l-.4.5h.1Z"/><path class="cls-46" d="M15.8,10.2a.7.7,0,0,0,0,.3v.2a.4.4,0,0,1,0,.2v-.5h.1Z"/><path class="cls-42" d="M15.8,10.9s0-.1,0-.1h0v-.3h-.2v.2l.2.3.2.2Z"/><path class="cls-46" d="M15.3,10.3h0v.3h0v-.4h-.1Zm.4.3v-.2h.1Z"/><path class="cls-53" d="M15.4,10.5h.1v-.2Z"/><path class="cls-46" d="M15.7,10.4h0Zm0,0v.3a.6.6,0,0,1,0,.2h0v-.3h0Z"/><path class="cls-42" d="M15.8,10.2V9.9h0V9.5h-.2a.5.5,0,0,1,0,.2h0l.3.5Z"/><path class="cls-54" d="M15.2,10.5h.1s0-.1,0-.2l-.4-.6.4.7Z"/><path class="cls-55" d="M15.4,10.3s0,.2,0,.2-.5-.5-.5-.6l-.2-.2h.3l.5.5h0Z"/><path class="cls-46" d="M15.2,10.5h-.1l-.3-.5h-.1l.2.3.3.3Z"/><path class="cls-42" d="M15.6,10.4s0-.2,0-.2l-.2-.5h-.3v.2h0l.2.3.3.3Zm.3-.3h.1V9.8l-.2-.5h-.2v.3l.2.4h.1Z"/><path class="cls-46" d="M15.4,10.2l-.2-.2V9.8h-.2s0,.1.2.3.3.2.3.2Z"/><path class="cls-54" d="M15.8,10.3c.1,0,.1-.3,0-.5l-.2-.3.2.4c0,.1,0,.2,0,.2V9.9h-.1s.2.5.1.5l-.3-.6h0s.2.7.4.6Z"/><path class="cls-42" d="M15.9,9v.7s0,.4,0,.4H16V9.1h.2Z"/><path class="cls-54" d="M15.6,10.4s0-.1,0-.1h-.1v-.2h-.1l-.2-.4h0S15.4,10.4,15.6,10.4Z"/><path class="cls-46" d="M15.5,10.1a.3.3,0,0,0,0-.2V9.7h-.2v.3l.2.3Zm.2-.1a1.4,1.4,0,0,0-.1-.4V9.4a.6.6,0,0,1,0,.1.8.8,0,0,0,0,.1h.1V10Zm.2-.3a2,2,0,0,0,0-.3V9.1h.1V9h-.1s0,.1,0,.1h0v.4Zm.2,0a1.3,1.3,0,0,0,0-.5V8.9h0v.7Zm-.3.1V9.2h-.1v.2h.1v.2Z"/><path class="cls-50" d="M15.9,10.2c.1,0,0-.3,0-.4l-.2-.5v.4s.1.4.1.4h0Z"/><path class="cls-50" d="M16,10s0-.3,0-.4v0c0,.2.1.5,0,.5h0Z"/><path class="cls-56" d="M15.5,10.4s0,.1-.1.1l-.2-.2h.2s0-.1,0-.2h0Z"/><path class="cls-43" d="M15.8,8.9h.1V8.7h0c0,.1,0,.2-.1.3h-.1Z"/><path class="cls-44" d="M15.7,8.6v.3c0,.1,0,.2,0,.2h0V8.6Z"/><path class="cls-57" d="M14.1,8.8l.6.8.7-.8L15,8.3Z"/><path class="cls-42" d="M14.9,8.3h0v.2h.5V8.4h0V8h-.5Z"/><path class="cls-58" d="M15.2,8.8h0a1.5,1.5,0,0,0,0-.4V8.2a1.1,1.1,0,0,1,.1.4c0,.2,0,.3,0,.3h0Z"/><path class="cls-58" d="M15.2,8.5h.1s0-.2,0-.3V8.1h0v.2c0,.1.1.3,0,.3h-.2Z"/><path class="cls-44" d="M14.9,8.6h0V8.6Z"/><path class="cls-43" d="M15.1,9.8h-.2l-.4-.4V9.2h1.1v.3a.7.7,0,0,1,0,.3h-.1s.1.3,0,.3h-.2s0,.3,0,.3h-.3s.1.2,0,.3Z"/><path class="cls-44" d="M15.1,9.4h.1a.5.5,0,0,1,0,.2V9.3Zm.6-.7s.1.4.1.5L15.5,9l-.2-.4h.4Z"/><path class="cls-44" d="M14.9,9.6h-.1l-.2-.2h-.1l.3.3a.6.6,0,0,1,0,.2Zm.4,0L15,9.3l-.2-.3h0l.5.6Zm.1-.2h-.1a.2.2,0,0,1,0-.2l.2.3Zm.1,0-.2-.3h0l.2.5h0Z"/><path class="cls-45" d="M14.9,9.7h-.1a1.1,1.1,0,0,1-.5-.4L14.1,9h.1l.5.6h.2Z"/><path class="cls-44" d="M14.9,9.7h-.1l-.4-.3-.3-.4h.1l.4.5.3.2Z"/><path class="cls-42" d="M15.3,9.5l-.2-.2L14.9,9H15V9h0v.2h-.1v.3Zm-.2-.1s0,.1,0,.1H15V9.3s0,.1,0,.1l-.2-.2V9.1a.5.5,0,0,0,0-.1h0l.2.2h.1v.2h.1Zm-.7-.3.3.4.3.2-.5-.5h-.1Zm1.2.2-.2-.2V8.6l.2.2V9h-.1Zm.2-.2h-.1V8.4h.2a.5.5,0,0,1,0,.2A1.5,1.5,0,0,1,15.6,9.1Zm-1.2.4-.2-.3V9h0a.9.9,0,0,0,.3.4l.3.2s0,.1,0,.2l-.3-.3Z"/><path class="cls-46" d="M14.6,9.8l-.3-.3-.2-.4h.1l.2.4.3.4Zm.3-.1-.3-.3-.2-.2h.1v.2l.3.3Zm0-.4-.2-.2V8.9l.2.2h0a.3.3,0,0,0,0,.1h0Zm0-.6a.5.5,0,0,1,0,.2H15c0-.1-.1-.1-.1-.2h.1v0l-.2-.2Z"/><path class="cls-46" d="M15.4,9.1V8.5s0,.1,0,.2v.2h.2Z"/><path class="cls-46" d="M15.2,8.5h.2c0-.1,0-.2,0-.2h.1s0-.1,0-.1l.2.3v.3l-.2-.3V8.4a.3.3,0,0,0,0,.2V9h-.4Z"/><path class="cls-59" d="M14.8,9.1v0Z"/><path class="cls-44" d="M15.6,9.1h0Z"/><path class="cls-43" d="M14.2,8.3h-.1V9l.2.2V8.8h.2V8.9l-.2-.6h-.5Z"/><path class="cls-45" d="M14.7,8.8V9c0,.1,0,.1,0,.1V8.9a1.8,1.8,0,0,0,0-.3c0-.2,0-.3,0-.3h-.1v.6Zm-.4-.1v.2a.7.7,0,0,1,0-.3c0-.2,0-.2,0-.2v.3Z"/><path class="cls-60" d="M14,8.2a1,1,0,0,0-.2.4c0,.1,0,.1.1.2v.3h0s0-.9,0-.9Z"/><path class="cls-45" d="M14,8.3a.8.8,0,0,0-.1.4v.2a1.1,1.1,0,0,1,0,.3h.1V8.3H14Z"/><path class="cls-61" d="M14.8,8.6h0Z"/><path class="cls-43" d="M14.1,8.3a1,1,0,0,0-.1.4,1.1,1.1,0,0,0,.1.4h0s0-.5,0-.5V8.4h-.1Z"/><path class="cls-44" d="M14.3,8.3a.3.3,0,0,1,0,.1h-.1v.2h.1a.2.2,0,0,0,0,.1h.2a.6.6,0,0,1,0-.2h-.1Z"/><path class="cls-61" d="M14.8,8.8h0Z"/><path class="cls-44" d="M14.1,8.8h-.1V8.8h0s0-.1,0-.1H14V8.3h.1s0,0-.1.2,0,.2,0,.2Zm.5-.5a.5.5,0,0,1,0,.1h-.1a.4.4,0,0,0,0,.1h.2s0-.1,0-.1h.1a1,1,0,0,1,0-.2c0-.1,0-.1,0-.1a.1.1,0,0,0,0-.1h-.2Z"/><path class="cls-57" d="M15.3,8.1v0h-.1v.2h-.1a.3.3,0,0,0,0,.1h0v.2a1.4,1.4,0,0,1-.1-.4H15v0h.1Zm-.5-.1h0Zm-.6.2s0,.1.1.1l.2-.2h0l-.2.2Zm0-.2H14a.1.1,0,0,1,0-.1h.2Zm1.1-.2v.3h-.2Z"/><path class="cls-61" d="M14,8.2h.2a.3.3,0,0,0,0,.1h.3a.3.3,0,0,0,0,.1h.1V8.2h.1V7.8H14Z"/><path class="cls-44" d="M14.7,7.9a.5.5,0,0,1,0,.2v.2l.2-.2a.7.7,0,0,0,0-.3h-.1Zm.2-.1s0,0,0,.1v.2H15V8h.2V7.6h-.2v.2Z"/><path class="cls-45" d="M15.1,7.6v.2a1,1,0,0,1,0,.2,1,1,0,0,0,0-.2h0Z"/><path class="cls-42" d="M15.3,7.9a.6.6,0,0,1,0,.1V7.7h0v.4Zm-.4.3a.4.4,0,0,0,.2-.3.9.9,0,0,0-.1-.3,1.1,1.1,0,0,1-.1.3v.2H15a.2.2,0,0,1,0,.1h0Zm-.1-.4h-.1a.1.1,0,0,0,0-.1h.1Z"/><path class="cls-57" d="M15.3,7.5v.2a1.4,1.4,0,0,1,0,.3V7.6h-.1a.3.3,0,0,0,0-.1h.1Zm-.3.5V7.7a.3.3,0,0,0,0-.2h-.1a.5.5,0,0,1,0,.2v.2H15s0,0,0,.1V8Z"/><path class="cls-44" d="M14,8.2V7.8h.2a.3.3,0,0,0,0,.2h.1v.3a.5.5,0,0,0,0-.2h-.1c0-.1,0-.1,0-.1h-.2v.2h0V7.9h0v.3Z"/><path class="cls-62" d="M15.3,7.4h0Z"/><path class="cls-63" d="M14.2,7.6h0s.1-.3.1-.3h0Z"/><path class="cls-61" d="M14.9,7.4s0,.4-.1.4-.1-.2-.1-.2,0,.2-.1.2-.1-.2-.1-.2v.2h-.2a.7.7,0,0,0,.1-.3h.7Z"/><path class="cls-63" d="M14.5,7.1v.2h.1c0,.1-.1.1,0,.2a.2.2,0,0,1,0-.1h0s0,.3.1.3,0-.1,0-.2,0,0,0,0h.2c.1,0,.1-.2.1-.2V7.2L14.7,7h-.2Z"/><path class="cls-44" d="M15,7h.1c0,.1,0,.4,0,.3h-.1s0-.2,0-.2V7.1H15Z"/><path class="cls-42" d="M15,7v.4h-.1s0-.1-.1-.2L14.9,7H15Z"/><path class="cls-57" d="M14.9,6.8l.2.2v.2h0V7.1h0v.2H15L14.8,7v.2h0Z"/><path class="cls-44" d="M14.6,7.1h0Z"/><path class="cls-63" d="M14.6,7.3a.5.5,0,0,1,0,.2v.3s0-.1,0-.2h.1Z"/><path class="cls-44" d="M14.5,7.4h-.1s0,0,0,.1v.2h.3a1,1,0,0,0,0-.2h-.1a.2.2,0,0,1,0,.1Z"/><path class="cls-61" d="M14.9,6.8a.1.1,0,0,1,0,.1h0Z"/><path class="cls-45" d="M14.9,6.8h0Z"/><path class="cls-42" d="M14.3,6.7h0Z"/><path class="cls-61" d="M14.7,7s.1.1.1.1h-.1Zm-.2.1s.1.2.1.2l-.3-.2v.2H14l.2-.2h.3Z"/><path class="cls-45" d="M14.5,6.8h0Z"/><path class="cls-42" d="M14.3,6.7h0Z"/><path class="cls-45" d="M14.8,7h0Zm-.3.1h-.1a.1.1,0,0,0,0-.1h0s0-.1,0-.1Z"/><path class="cls-42" d="M14.3,6.9h0Z"/><path class="cls-45" d="M14.7,7.3s0,0,0,0h-.3s0,0,0,0h.3Z"/><path class="cls-42" d="M14.7,7.3l-.3-.2h.3Z"/><path class="cls-61" d="M14.4,7.1a.2.2,0,0,1,.1.2c0,.2-.1.1-.1.1h0Z"/><path class="cls-64" d="M13.7,6.7h0v.2l-.2.2h.1l.2-.3V6.8h0Z"/><path class="cls-61" d="M14.2,6.5a.4.4,0,0,1,0,.3c0,.2-.3.3-.3.3l-.3.2h0a.2.2,0,0,0,0-.1H14V6.6h.2Z"/><path class="cls-50" d="M14.3,7.4s0,0,0,.1h0Z"/><path class="cls-45" d="M14.2,7.4h0Z"/><path class="cls-50" d="M13.7,7.1h.4a.4.4,0,0,0,.2-.3.7.7,0,0,0,0-.3.4.4,0,0,1,0,.4l-.2.2h.2a.2.2,0,0,1,0,.1h-.5Z"/><path class="cls-45" d="M14.1,6.7h0Z"/><path class="cls-50" d="M14.1,6.5s.1.2,0,.3l-.3.2.3-.3a.5.5,0,0,0,.1-.2h0Z"/><path class="cls-57" d="M13.8,7.1h0Zm.2-.3a.4.4,0,0,0,.1-.2c0-.2-.1-.1-.1-.1s.1,0,0,.2v.2Zm.1,0h.1a.4.4,0,0,0,0-.1h-.1Zm-.1.5h0Zm-.2-.1h0Z"/><path class="cls-2" d="M13.7,7a.1.1,0,0,1,0,.2h-.2"/><path class="cls-65" d="M13.7,7a.1.1,0,0,1,0,.2h-.2"/><path d="M13.6,7.1h0"/><path class="cls-66" d="M13.6,7.2h0Z"/><path class="cls-45" d="M13.7,6.9V6.8a.5.5,0,0,0,0-.2H14a.7.7,0,0,0,.1-.3.4.4,0,0,1,0,.2.3.3,0,0,1-.2.2l-.2.2v.2h.1V7h0Z"/><path class="cls-50" d="M13.7,7V6.8h0s.1,0,.1.1S13.7,7,13.7,7Z"/><path class="cls-42" d="M13.9,6.9V6.7h-.1s.1,0,.1.1,0,.1-.1.2Z"/><path class="cls-45" d="M13.5,7.3h0V7s.1-.2,0-.2a.3.3,0,0,1,0,.2l-.2.2h0Z"/><path class="cls-67" d="M14.2,7.6h0a.1.1,0,0,0,0-.1h0Z"/><path class="cls-67" d="M14.2,7.6h.2s0,.2-.2.2Z"/><path class="cls-68" d="M13.6,7.6h0Z"/><path class="cls-69" d="M14.1,7.5h-.8s0,.1,0,.1h0a.4.4,0,0,0-.2.2c0,.2.3.4.4.3s-.2-.1-.1-.2l.2-.2H14c.1.1-.3.1-.3.1h0l.4-.2Z"/><path class="cls-70" d="M13.3,7.8s-.2,0-.2-.2a.3.3,0,0,1,.2-.2h.2s-.3.1-.3.3,0,.1,0,.1Z"/><path class="cls-71" d="M14.1,7.5h0Z"/><path class="cls-72" d="M13.6,7.6h0Z"/><path class="cls-73" d="M13.4,7.9h-.2V7.7a.2.2,0,0,1,.1-.2h.2Z"/><path class="cls-44" d="M13.4,7.3Z"/><path class="cls-73" d="M13.6,7.5h0Z"/><path class="cls-44" d="M13.3,7.8h0a.3.3,0,0,1-.2-.2h.2Z"/><path class="cls-37" d="M14,9.6h0Zm-.3-1.9h0Z"/><path class="cls-36" d="M14,9.8h0Zm0-.2h0Zm0-.1h0Zm-.1-.1h0Zm-.1-.1h-.1V9.3h0Zm-.1,0h0V9.4h0Zm-.1,0h0a1.1,1.1,0,0,0,0-.2Zm-.1,0h0Zm-.1,0h0V9.4h0Zm-.1,0h0Zm-.1,0h0Zm-.1,0h0Zm0-.1h0Zm0,0h0Zm0,0h0Zm0-.1h0Zm0-.1h0Zm.6-.7h0Zm0-.1h0Zm0-.1h0Zm0-.1h0Zm-.1-.1h0Zm-.1-.1h0Zm-.1-.1h0Z"/><path class="cls-31" d="M13.6,7.6h.1v.2h0v.3l-.4.3-.2.2v.2h0v.2h.8a.5.5,0,0,1,.1.3v.2h0a1.4,1.4,0,0,0,0-.3.5.5,0,0,0-.1-.3h-.8V8.9h0V8.7l.4-.3a.7.7,0,0,0,.3-.4h0V7.7h-.1Z"/><path class="cls-29" d="M13.5,7.7h0Zm.1.1h0Z"/><path class="cls-31" d="M13.6,7.9h0Zm.1.1h0Zm0,.1h0Zm0,.1h0Zm0,.1h0ZM13,9h0Z"/><path class="cls-2" d="M13,9h0Z"/><path class="cls-31" d="M13,9.1h0Z"/><path class="cls-2" d="M13,9.2h0Zm0,.1h0Zm0,.1h0Z"/><path class="cls-29" d="M13.1,9.4h0Zm.1.1h0Zm.5,0h0Z"/><path class="cls-2" d="M13.8,9.6h0Z"/><path class="cls-29" d="M13.8,9.6h0Zm0,.1h0Z"/><path class="cls-2" d="M13.8,9.8h0Zm-.8-2.9s0,0,0,0h0Z"/><path class="cls-73" d="M13.6,7.5h0Z"/><path class="cls-44" d="M13.6,7.6h0Z"/><path class="cls-74" d="M14,10h0Z"/><path class="cls-71" d="M13.4,7.3h0Z"/></g></g></svg>