<svg width="654" height="1216" viewBox="0 0 654 1216" fill="none" xmlns="http://www.w3.org/2000/svg">
<g clip-path="url(#clip0_5312_16228)">
<rect width="654" height="1216" fill="#F5FBFF"/>
<path d="M43.5001 1331.34C447.497 1331.34 775 1007.34 775 607.668C775 207.997 447.497 -116 43.5001 -116C-360.497 -116 -688 207.997 -688 607.668C-688 1007.34 -360.497 1331.34 43.5001 1331.34Z" fill="#F5FBFF"/>
<path d="M43.5 1211.71C380.669 1211.71 654 941.273 654 607.668C654 274.063 380.669 3.62256 43.5 3.62256C-293.669 3.62256 -567 274.063 -567 607.668C-567 941.273 -293.669 1211.71 43.5 1211.71Z" fill="#EBF7FF"/>
<path d="M43.5 1089.13C312.186 1089.13 530 873.569 530 607.668C530 341.767 312.186 126.211 43.5 126.211C-225.186 126.211 -443 341.767 -443 607.668C-443 873.569 -225.186 1089.13 43.5 1089.13Z" fill="#E0F3FF"/>
<path d="M44.0002 967.525C245.032 967.525 408 806.191 408 607.174C408 408.157 245.032 246.823 44.0002 246.823C-157.032 246.823 -320 408.157 -320 607.174C-320 806.191 -157.032 967.525 44.0002 967.525Z" fill="#D6EFFF"/>
<path d="M43.5 848.891C178.533 848.891 288 740.671 288 607.174C288 473.678 178.533 365.457 43.5 365.457C-91.5334 365.457 -201 473.678 -201 607.174C-201 740.671 -91.5334 848.891 43.5 848.891Z" fill="#CCEBFF"/>
<path d="M43 731.246C112.036 731.246 168 675.697 168 607.174C168 538.651 112.036 483.103 43 483.103C-26.0356 483.103 -82 538.651 -82 607.174C-82 675.697 -26.0356 731.246 43 731.246Z" fill="#C2E7FF"/>
</g>
<defs>
<clipPath id="clip0_5312_16228">
<rect width="654" height="1216" fill="white"/>
</clipPath>
</defs>
</svg>
