<svg width="654" height="1216" viewBox="0 0 654 1216" fill="none" xmlns="http://www.w3.org/2000/svg">
<g clip-path="url(#clip0_5312_16243)">
<mask id="mask0_5312_16243" style="mask-type:luminance" maskUnits="userSpaceOnUse" x="0" y="0" width="654" height="1216">
<path d="M0 0H654V1216H0V0Z" fill="white"/>
</mask>
<g mask="url(#mask0_5312_16243)">
<path d="M0 0H654V1216H0V0Z" fill="#F5FBFF"/>
<path d="M610.5 1331.34C206.503 1331.34 -121 1007.34 -121 607.668C-121 207.997 206.503 -116 610.5 -116C1014.5 -116 1342 207.997 1342 607.668C1342 1007.34 1014.5 1331.34 610.5 1331.34Z" fill="#F5FBFF"/>
<path d="M610.5 1211.71C273.331 1211.71 0 941.273 0 607.668C0 274.063 273.331 3.62256 610.5 3.62256C947.669 3.62256 1221 274.063 1221 607.668C1221 941.273 947.669 1211.71 610.5 1211.71Z" fill="#EBF7FF"/>
<path d="M610.5 1089.13C341.814 1089.13 124 873.569 124 607.668C124 341.767 341.814 126.211 610.5 126.211C879.186 126.211 1097 341.767 1097 607.668C1097 873.569 879.186 1089.13 610.5 1089.13Z" fill="#E0F3FF"/>
<path d="M610 967.525C408.968 967.525 246 806.191 246 607.174C246 408.157 408.968 246.823 610 246.823C811.032 246.823 974 408.157 974 607.174C974 806.191 811.032 967.525 610 967.525Z" fill="#D6EFFF"/>
<path d="M610.5 848.891C475.467 848.891 366 740.671 366 607.174C366 473.678 475.467 365.457 610.5 365.457C745.533 365.457 855 473.678 855 607.174C855 740.671 745.533 848.891 610.5 848.891Z" fill="#CCEBFF"/>
<path d="M611 731.246C541.964 731.246 486 675.697 486 607.174C486 538.651 541.964 483.103 611 483.103C680.036 483.103 736 538.651 736 607.174C736 675.697 680.036 731.246 611 731.246Z" fill="#C2E7FF"/>
</g>
</g>
<defs>
<clipPath id="clip0_5312_16243">
<rect width="654" height="1216" fill="white" transform="matrix(-1 0 0 1 654 0)"/>
</clipPath>
</defs>
</svg>
