<svg width="301" height="168" viewBox="0 0 301 168" fill="none" xmlns="http://www.w3.org/2000/svg">
<g clip-path="url(#clip0_3584_70957)">
<rect width="301" height="168" fill="#FFFBF0"/>
<path d="M129.073 36.0527H101.006L97.0529 60.4455H125.515L129.073 36.0527Z" stroke="#DCB016" stroke-width="0.292713"/>
<path d="M157.369 36.0527H129.302L125.349 60.4455H153.811L157.369 36.0527Z" stroke="#DCB016" stroke-width="0.292713"/>
<rect x="136.448" y="42.4189" width="12.1728" height="12.1728" rx="6.0864" fill="#FFE6B5"/>
<path d="M185.664 36.0527H157.598L153.645 60.4455H182.107L185.664 36.0527Z" stroke="#DCB016" stroke-width="0.292713"/>
<path d="M212.99 36.0527H185.774L181.94 60.4455H209.54L212.99 36.0527Z" stroke="#DCB016" stroke-width="0.292713"/>
<rect x="192.663" y="42.3779" width="12.1728" height="12.1728" rx="6.0864" fill="#FFE6B5"/>
<path d="M241.28 36.0527H213.213L209.26 60.4455H237.722L241.28 36.0527Z" stroke="#DCB016" stroke-width="0.292713"/>
<rect x="219.617" y="42.3779" width="12.1728" height="12.1728" rx="6.0864" fill="#FFE6B5"/>
<path d="M269.575 36.0527H241.509L237.556 60.4455H266.018L269.575 36.0527Z" stroke="#DCB016" stroke-width="0.292713"/>
<rect x="248.31" y="42.3779" width="12.1728" height="12.1728" rx="6.0864" fill="#FFE6B5"/>
<path d="M297.871 36.0527H269.804L265.851 60.4455H294.313L297.871 36.0527Z" stroke="#DCB016" stroke-width="0.292713"/>
<rect x="276.134" y="42.3779" width="12.1728" height="12.1728" rx="6.0864" fill="#FFCFBF"/>
<path d="M125.446 60.4473H97.3791L93.426 84.8401H121.888L125.446 60.4473Z" stroke="#DCB016" stroke-width="0.292713"/>
<rect x="103.976" y="66.7256" width="12.1728" height="12.1728" rx="6.0864" fill="#FFCEBF"/>
<path d="M153.741 60.4473H125.675L121.721 84.8401H150.183L153.741 60.4473Z" stroke="#DCB016" stroke-width="0.292713"/>
<rect x="131.799" y="66.7256" width="12.1728" height="12.1728" rx="6.0864" fill="#FFE6B5"/>
<path d="M182.037 60.4473H153.97L150.017 84.8401H178.479L182.037 60.4473Z" stroke="#DCB016" stroke-width="0.292713"/>
<rect x="160.492" y="66.7256" width="12.1728" height="12.1728" rx="6.0864" fill="#FFE6B5"/>
<path d="M209.362 60.4473H182.146L178.313 84.8401H205.913L209.362 60.4473Z" stroke="#DCB016" stroke-width="0.292713"/>
<rect x="188.315" y="66.7256" width="12.1728" height="12.1728" rx="6.0864" fill="#FFE6B5"/>
<path d="M237.652 60.4473H209.586L205.632 84.8401H234.094L237.652 60.4473Z" stroke="#DCB016" stroke-width="0.292713"/>
<rect x="216.14" y="66.7256" width="12.1728" height="12.1728" rx="6.0864" fill="#FFE6B5"/>
<path d="M265.948 60.4473H237.881L233.928 84.8401H262.39L265.948 60.4473Z" stroke="#DCB016" stroke-width="0.292713"/>
<rect x="243.962" y="66.7256" width="12.1728" height="12.1728" rx="6.0864" fill="#FFE6B5"/>
<path d="M294.244 60.4473H266.177L262.224 84.8401H290.686L294.244 60.4473Z" stroke="#DCB016" stroke-width="0.292713"/>
<rect x="272.656" y="66.7256" width="12.1728" height="12.1728" rx="6.0864" fill="#FFCFBF"/>
<path d="M121.543 84.79H93.4187L89.4575 109.233H117.978L121.543 84.79Z" stroke="#DCB016" stroke-width="0.293315"/>
<rect x="99.6283" y="91.0664" width="12.1728" height="12.1728" rx="6.0864" fill="#FFCEBF"/>
<path d="M149.897 84.79H121.773L117.811 109.233H146.332L149.897 84.79Z" stroke="#DCB016" stroke-width="0.293315"/>
<rect x="128.322" y="91.0664" width="12.1728" height="12.1728" rx="6.0864" fill="#FFE6B5"/>
<path d="M178.251 84.79H150.126L146.165 109.233H174.686L178.251 84.79Z" stroke="#DCB016" stroke-width="0.293315"/>
<rect x="156.145" y="91.0664" width="12.1728" height="12.1728" rx="6.0864" fill="#FFE6B5"/>
<path d="M205.632 84.79H178.36L174.519 109.233H202.175L205.632 84.79Z" stroke="#DCB016" stroke-width="0.293315"/>
<rect x="184.838" y="91.0664" width="12.1728" height="12.1728" rx="6.0864" fill="#FFE6B5"/>
<path d="M233.981 84.79H205.857L201.896 109.233H230.416L233.981 84.79Z" stroke="#DCB016" stroke-width="0.293315"/>
<rect x="212.662" y="91.0664" width="12.1728" height="12.1728" rx="6.0864" fill="#FFE6B5"/>
<path d="M262.335 84.79H234.21L230.249 109.233H258.77L262.335 84.79Z" stroke="#DCB016" stroke-width="0.293315"/>
<path d="M290.689 84.79H262.564L258.603 109.233H287.124L290.689 84.79Z" stroke="#DCB016" stroke-width="0.293315"/>
<rect x="269.179" y="91.0664" width="12.1728" height="12.1728" rx="6.0864" fill="#FFCFBF"/>
<path d="M117.647 109.219H89.4661L85.4969 132.731H114.075L117.647 109.219Z" stroke="#DCB016" stroke-width="0.293903"/>
<rect x="96.151" y="115.42" width="12.1728" height="12.1728" rx="6.0864" fill="#FFF5E1"/>
<path d="M146.058 109.219H117.877L113.908 132.731H142.485L146.058 109.219Z" stroke="#DCB016" stroke-width="0.293903"/>
<rect x="123.974" y="115.42" width="12.1728" height="12.1728" rx="6.0864" fill="#FFE6B5"/>
<path d="M174.468 109.219H146.287L142.318 132.731H170.896L174.468 109.219Z" stroke="#DCB016" stroke-width="0.293903"/>
<rect x="152.668" y="115.42" width="12.1728" height="12.1728" rx="6.0864" fill="#FFE6B5"/>
<path d="M201.905 109.219H174.578L170.729 132.731H198.441L201.905 109.219Z" stroke="#DCB016" stroke-width="0.293903"/>
<rect x="181.36" y="115.42" width="12.1728" height="12.1728" rx="6.0864" fill="#FFE6B5"/>
<path d="M230.31 109.219H202.129L198.16 132.731H226.738L230.31 109.219Z" stroke="#DCB016" stroke-width="0.293903"/>
<rect x="208.315" y="115.42" width="12.1728" height="12.1728" rx="6.0864" fill="#FFC700"/>
<path fill-rule="evenodd" clip-rule="evenodd" d="M212.915 127.908C211.244 127.865 209.553 127.647 208.054 127.155C206.718 126.717 205.429 126.026 204.46 124.936C203.455 123.805 202.864 122.321 202.864 120.514C202.864 117.317 204.09 114.851 206.275 113.262C208.37 111.739 211.226 111.104 214.446 111.104C216.903 111.105 219.399 111.633 221.334 112.921C223.335 114.251 224.737 116.414 224.737 119.424C224.737 122.023 224.016 124.188 222.761 125.923C221.524 127.632 219.827 128.843 217.967 129.691C214.272 131.375 208.054 130.911 205.419 130.176C205.02 130.065 204.705 129.972 204.46 129.691C216.405 129.229 218.865 127.908 221.426 124.758C221.495 124.674 221.558 124.596 221.617 124.525C222.825 123.078 224.945 119.135 220.112 115.362C216.922 112.873 211.897 113.997 209.206 115.215C208.634 115.474 208.168 115.737 207.847 115.97C206.506 116.946 205.75 118.377 205.75 120.514C205.75 121.461 206.034 122.128 206.505 122.658C207.012 123.228 207.8 123.707 208.866 124.057C211.011 124.761 213.851 124.807 216.379 124.525C217.171 124.437 217.878 125.085 217.957 125.972C217.962 126.028 217.964 126.083 217.964 126.138C218.009 126.774 217.062 128.017 212.915 127.908Z" fill="#FFC700"/>
<path d="M258.721 109.219H230.54L226.571 132.731H255.148L258.721 109.219Z" stroke="#DCB016" stroke-width="0.293903"/>
<rect x="237.007" y="115.42" width="12.1728" height="12.1728" rx="6.0864" fill="#FFE6B5"/>
<path d="M287.131 109.219H258.95L254.981 132.731H283.559L287.131 109.219Z" stroke="#DCB016" stroke-width="0.293903"/>
<rect x="265.701" y="115.42" width="12.1728" height="12.1728" rx="6.0864" fill="#FFCFBF"/>
<path d="M113.735 132.705H85.4977L83.4452 144.864C82.4384 150.827 87.0349 156.265 93.083 156.265H110.156L113.735 132.705Z" stroke="#DCB016" stroke-width="0.294498"/>
<rect x="91.803" y="138.896" width="12.1728" height="12.1728" rx="6.0864" fill="#FFF5E1"/>
<path d="M142.204 132.705H113.966L109.989 156.265H138.624L142.204 132.705Z" stroke="#DCB016" stroke-width="0.294498"/>
<rect x="120.496" y="138.896" width="12.1728" height="12.1728" rx="6.0864" fill="#FFE6B5"/>
<path d="M170.672 132.705H142.434L138.457 156.265H167.092L170.672 132.705Z" stroke="#DCB016" stroke-width="0.294498"/>
<rect x="149.19" y="138.896" width="12.1728" height="12.1728" rx="6.0864" fill="#FFE6B5"/>
<path d="M198.164 132.705H170.782L166.925 156.265H194.693L198.164 132.705Z" stroke="#DCB016" stroke-width="0.294498"/>
<path d="M226.626 132.705H198.389L194.411 156.265H223.047L226.626 132.705Z" stroke="#DCB016" stroke-width="0.294498"/>
<path d="M255.094 132.705H226.857L222.879 156.265H251.515L255.094 132.705Z" stroke="#DCB016" stroke-width="0.294498"/>
<path d="M283.563 132.705H255.325L251.348 156.265H271.582C276.413 156.265 280.52 152.735 281.245 147.959L283.563 132.705Z" stroke="#DCB016" stroke-width="0.294498"/>
<path d="M102.768 24.7801C103.5 20.0934 107.536 16.638 112.279 16.638H289.646C295.554 16.638 300.068 21.9112 299.157 27.7489L297.884 35.9059H101.032L102.768 24.7801Z" fill="#FFFBF0" stroke="#DCB016" stroke-width="0.295625"/>
<rect x="20.8151" y="158.542" width="16.9843" height="9.43574" fill="#FFE1B5"/>
<path d="M102.294 113.2L107.879 125.618C103.96 129.205 88.2454 142.512 87.6626 143.196C87.1708 149.492 86.5904 157.152 86.1002 163.45C86.0688 163.85 68.2381 167.739 50.3276 166.501C41.1342 165.866 26.0046 166.28 15.6254 159.486C7.24697 154.001 -1.35892 144.389 3.79407 133.327C3.79407 133.327 12.7946 110.42 25.3783 95.8742C29.6745 90.9082 30.2511 90.7491 35.9063 89.1892L36.1305 89.1273C45.4013 86.568 58.7387 84.8618 65.1293 84.403C80.2192 83.3198 90.0928 88.1704 97.0791 101.954C98.9442 105.633 100.599 109.43 102.294 113.2Z" fill="#FFE1B5"/>
<path opacity="0.3" d="M46.0236 111.57C46.0478 111.917 45.5507 111.913 45.5204 111.57C45.1415 107.117 44.6353 103.178 43.7168 98.7969C43.0105 95.4368 41.2888 90.0024 37.6029 89.5182C37.6029 89.5182 37.5998 89.5182 37.5968 89.5182C37.7332 89.3677 37.8757 89.2205 38.0212 89.0732C38.0242 89.0732 38.0272 89.0732 38.0302 89.0765C41.31 89.7996 43.1015 94.1772 43.932 97.3999C45.1657 102.19 45.678 106.649 46.0236 111.57Z" fill="#0C0A0A"/>
<path opacity="0.3" d="M90.3269 92.7357C91.1848 100.771 89.845 109.072 86.5016 116.319C86.3652 116.61 85.9589 116.355 86.0923 116.06C89.4812 108.6 90.6937 100.199 89.7207 92.0225L90.3269 92.7357Z" fill="#32171C"/>
<path fill-rule="evenodd" clip-rule="evenodd" d="M39.0332 131.137L39.587 131.137C39.1565 132.26 38.5918 133.302 37.9624 134.43C37.2711 135.619 36.8693 136.954 36.7894 138.326C36.7096 139.699 36.954 141.071 37.5029 142.332C37.6511 142.677 37.1397 142.959 36.9915 142.614C36.2508 140.956 36.0052 139.119 36.2843 137.325C36.5134 135.924 37.1688 134.756 37.8291 133.578C38.27 132.792 38.7131 132.002 39.0332 131.137Z" fill="#B6A082"/>
<path d="M35.3091 140.698C33.6335 139.163 30.7848 139.582 28.8455 140.308C28.4969 140.44 28.3645 139.868 28.7106 139.741C30.8704 138.931 33.8931 138.613 35.7323 140.295C36.009 140.549 35.585 140.95 35.3091 140.698Z" fill="#B6A082"/>
<path d="M75.9442 84.846C74.2286 84.4967 71.119 84.2285 71.119 84.2285C71.119 84.2285 65.603 92.1858 56.1497 85.2595C55.9198 85.4349 52.1095 85.8383 51.1713 86.0528C53.4396 88.4898 57.6336 92.8865 64.0045 92.8865C71.8485 92.8865 75.006 86.9495 75.9442 84.846Z" fill="white"/>
<path d="M59.6263 153.148C56.6777 152.753 53.7625 152.151 50.8106 151.795C50.4482 151.752 50.4449 151.177 50.8106 151.223C53.7625 151.592 56.6777 152.177 59.6263 152.573C59.9853 152.623 59.992 153.195 59.6263 153.148Z" fill="#B6A082"/>
<path d="M50.687 151.678C48.9784 149.976 46.206 150.016 44.2348 148.759C42.925 147.928 41.9078 146.668 40.761 145.648C39.1747 144.258 37.4645 143.016 35.6517 141.938C35.586 141.899 35.5383 141.837 35.5189 141.763C35.4996 141.689 35.5103 141.611 35.5486 141.546C35.587 141.48 35.6498 141.432 35.7234 141.413C35.797 141.393 35.8752 141.404 35.9409 141.442C37.5774 142.416 39.1336 143.519 40.5947 144.74C42.0009 145.927 43.2541 147.625 44.9162 148.476C46.8874 149.5 49.477 149.643 51.1125 151.272C51.1624 151.326 51.1895 151.397 51.1882 151.471C51.1868 151.545 51.1572 151.615 51.1053 151.667C51.0535 151.719 50.9835 151.75 50.9099 151.752C50.8363 151.754 50.7648 151.727 50.7103 151.678H50.687Z" fill="#B6A082"/>
<path d="M42.9322 157.962C43.9627 154.469 47.2172 151.806 50.8904 151.766C50.9662 151.766 51.0389 151.736 51.0925 151.682C51.1461 151.629 51.1763 151.556 51.1763 151.48C51.1763 151.404 51.1461 151.332 51.0925 151.278C51.0389 151.224 50.9662 151.194 50.8904 151.194C47.0942 151.234 43.7367 153.864 42.5067 157.424C41.2522 161.037 42.3532 164.98 44.6083 167.94H45.3356C43.0799 165.192 41.902 161.461 42.9322 157.962Z" fill="#B6A082"/>
<path d="M50.4648 164.549C50.4648 164.549 53.3103 165.576 59.3304 165.782C65.7129 165.999 70.277 162.87 70.6726 161.99C71.1114 161.016 70.0875 159.28 69.9778 159.101C70.4715 159.487 70.9876 159.843 71.5235 160.168C72.6238 160.853 74.3258 161.557 76.2705 162.402C79.4651 163.785 79.1758 161.016 78.5775 160.444C74.3026 156.372 67.6907 150.691 66.1516 150.428C64.6125 150.165 59.8656 150.983 59.8656 150.983C57.9143 151.648 53.0909 152.233 51.113 154.214C46.3461 158.965 50.4648 164.549 50.4648 164.549Z" fill="#F7B38B"/>
<path d="M65.4244 154.595C67.0947 155.93 68.6198 157.437 69.9746 159.092C70.4682 159.478 70.9843 159.834 71.5201 160.159C69.9024 157.918 67.9895 155.905 65.8332 154.176C65.5474 153.967 65.1386 154.366 65.4244 154.595Z" fill="#D67751"/>
<path d="M62.455 155.959C64.8076 157.915 66.904 160.16 68.6945 162.64C68.9106 162.94 68.4153 163.225 68.1992 162.93C66.4338 160.491 64.3675 158.285 62.0495 156.364C61.7669 156.128 62.1724 155.726 62.455 155.959Z" fill="#D67751"/>
<path d="M59.7596 157.367C61.4348 158.86 62.9015 160.572 64.1203 162.456C64.3197 162.765 63.8245 163.054 63.6251 162.745C62.4323 160.899 60.9956 159.222 59.3541 157.76C59.0782 157.514 59.4837 157.095 59.7596 157.354V157.367Z" fill="#D67751"/>
<path d="M127.154 107.638L127.19 107.767C128.947 113.998 124.045 119.798 121.065 124.964C113.954 137.294 106.564 149.538 96.7962 159.985C94.6773 162.252 93.7604 165.356 92.6186 167.979L75.8873 167.979C75.1109 166.829 74.5385 165.507 74.229 164.035C72.9487 157.945 75.9584 151.275 78.7884 146.042C80.4605 142.951 100.328 123.281 104.135 119.102C106.746 116.235 109.313 113.329 111.96 110.495C114.356 107.93 116.867 104.715 120.399 103.74C125.646 102.291 125.77 102.73 127.154 107.638Z" fill="#FFE1B5"/>
<path d="M115.065 107.975C115.065 107.975 116.044 98.6971 117.793 88.5472C119.375 79.3584 119.945 78.2533 121.614 78.1665C124.046 78.0406 124.523 87.0897 124.496 89.3507C124.496 89.3507 128.26 83.5793 131.609 80.4554C134.978 77.3139 139.366 73.6605 140.712 74.3947C143.028 75.6572 140.939 77.8117 140.939 77.8117C140.939 77.8117 143.678 76.5209 144.676 77.6654C145.605 78.7305 144.836 79.8962 144.303 80.5248C144.052 80.8204 138.805 88.5492 138.805 88.5492C138.805 88.5492 145.014 82.6362 145.599 82.5259C146.395 82.376 147.176 82.3087 147.664 83.3489C148.155 84.3959 145.743 87.5427 143.251 90.5451C142.846 91.0328 142.439 91.5168 142.042 91.9873C140.663 93.6224 139.404 95.0954 138.187 95.5001C137.364 96.6875 130.991 108.915 128.804 112.051C125.879 116.244 128.203 112.964 125.835 117.579C125.835 117.579 118.329 112.309 115.065 107.975Z" fill="#F7B38B"/>
<path d="M142.042 91.9873C142.439 91.5168 142.846 91.0328 143.251 90.5451C145.349 88.1655 146.918 86.7908 148.103 87.855C150.272 89.8042 134.624 107.104 128.804 112.051C130.991 108.915 137.364 96.6875 138.187 95.5001C139.404 95.0954 140.663 93.6224 142.042 91.9873Z" fill="#F7B38B"/>
<path d="M140.717 77.6895C137.752 81.6496 134.94 85.7224 131.975 89.6817C131.672 90.086 132.34 90.4974 132.64 90.0961C135.606 86.136 138.417 82.0639 141.383 78.1039C141.686 77.6996 141.018 77.2879 140.717 77.6895Z" fill="#D67751"/>
<path d="M129.128 88.7682C132.603 90.3715 135.621 92.8391 137.877 95.9309C138.174 96.3371 138.821 95.8952 138.522 95.486C136.189 92.288 133.066 89.7222 129.47 88.0628C129.012 87.8511 128.669 88.5563 129.128 88.7682Z" fill="#D67751"/>
<path d="M124.379 90.6246C126.765 94.4409 127.948 98.9097 127.79 103.406C127.773 103.911 128.555 103.855 128.573 103.355C128.734 98.7218 127.482 94.1091 125.025 90.1802C124.758 89.7522 124.112 90.1966 124.379 90.6246Z" fill="#D67751"/>
<path d="M135.963 92.7731C137.142 91.2062 138.405 89.7089 139.751 88.2827C140.098 87.9157 139.502 87.4055 139.156 87.7731C137.81 89.1994 136.547 90.6964 135.367 92.263C135.065 92.6643 135.658 93.1768 135.963 92.7731Z" fill="#D67751"/>
<path d="M138.097 95.4835C139.123 94.5638 140.197 93.7036 141.319 92.9036C141.608 92.6978 141.266 92.2651 140.977 92.4714C139.856 93.2714 138.782 94.1315 137.756 95.0508C137.493 95.2863 137.832 95.7203 138.097 95.4835Z" fill="#D67751"/>
<path d="M71.1035 84.266C71.1035 87.0703 68.8711 88.8162 65.2441 89.5677C61.0581 90.435 56.7551 87.5461 56.082 85.3597C59.7011 84.897 62.9041 84.5566 65.2441 84.3843C67.2847 84.2387 69.2351 84.1936 71.1035 84.266Z" fill="#F7B38B"/>
<path d="M71.419 78.9431L70.6245 84.9575L56.082 85.3623L57.8127 73.3311L71.419 78.9431Z" fill="#F7B38B"/>
<path d="M57.7864 64.5295C56.0569 67.2958 58.3969 73.0452 59.6095 75.37C60.7123 77.4856 60.3956 79.5897 62.9949 81.4694C65.3272 83.156 69.7413 84.4104 70.6894 84.2428C70.9133 81.9868 71.9746 79.6746 72.4588 77.4605C72.5565 76.9999 69.2541 75.8247 68.9163 75.6826C67.9397 73.9154 66.6293 72.3898 64.965 71.2244C63.0076 69.8539 60.5172 69.676 58.6208 68.3336C58.5313 68.2697 57.8759 64.5523 57.7864 64.5295Z" fill="#C48268"/>
<path d="M64.7262 57.5899C64.7262 61.9649 68.2737 65.5117 72.6486 65.5117C77.0244 65.5117 80.5711 61.9649 80.5711 57.5899C80.5711 53.2157 77.0244 49.6689 72.6486 49.6689C68.2737 49.6689 64.7262 53.2157 64.7262 57.5899Z" fill="#33201C"/>
<path d="M60.1401 76.553C63.3358 78.9304 68.2549 81.5589 74.7606 82.4394C81.0989 83.2957 83.0276 78.3574 82.6903 76.2077C82.353 74.0588 80.6175 66.2513 78.4803 59.7581C76.3432 53.2656 73.847 50.3144 65.6275 49.7333C57.4073 49.1522 50.3445 52.1148 50.6528 60.6426C50.9611 69.1696 57.7574 74.7808 60.1401 76.553Z" fill="#F7B38B"/>
<path d="M75.4411 47.5284C74.2884 47.5284 73.2178 47.8423 72.3155 48.3775C70.452 46.7534 67.6628 45.72 64.5427 45.72C60.2112 45.72 56.5221 47.7119 55.0619 50.5118C55.0562 50.5159 55.0498 50.5199 55.045 50.5231C55.0079 50.5489 54.9878 50.5811 54.9605 50.6117C51.9853 50.5481 49.0874 52.3267 47.8494 55.0526C46.4673 58.0956 47.0356 61.673 49.1824 64.2082C49.5857 64.6847 50.0502 65.0967 50.538 65.4798C51.5193 68.0093 52.581 70.534 54.1958 72.728C55.0224 73.8499 55.9691 74.8752 57.0743 75.7267C57.8591 76.3319 60.0406 77.9448 61.2376 77.3355C63.5663 76.1508 64.5033 74.2096 64.7898 72.9284C65.9184 69.4661 65.9683 67.8798 65.2092 64.341C69.1077 65.0025 73.3023 61.9893 74.8277 58.1697C75.0298 58.189 75.2342 58.2003 75.4411 58.2003C78.64 58.2003 81.232 55.8107 81.232 52.8643C81.232 49.9171 78.64 47.5284 75.4411 47.5284Z" fill="#33201C"/>
<path d="M50.4967 64.7915C50.8549 65.9641 51.7718 66.8856 52.9462 67.2486C54.3461 67.6824 55.7169 67.206 56.8503 66.373C57.3526 66.0036 57.9748 65.4571 58.643 65.6921C58.9786 65.8104 59.2732 66.0398 59.6049 66.1742C59.8955 66.2925 60.1885 66.3673 60.4992 66.4108C61.7324 66.5798 62.9769 66.1685 63.8631 65.2953C64.2568 64.9074 63.6498 64.3006 63.2562 64.6885C62.4545 65.4796 61.2558 65.7943 60.17 65.4683C59.6322 65.3074 59.1935 64.9106 58.6365 64.8068C58.1399 64.7135 57.6625 64.8511 57.2246 65.0861C56.7465 65.3428 56.3456 65.7178 55.8884 66.0068C55.3257 66.3625 54.6809 66.5605 54.0136 66.5516C52.7852 66.5355 51.684 65.742 51.3234 64.5638C51.1632 64.0366 50.3341 64.2611 50.4967 64.7915Z" fill="#211817"/>
<path d="M54.7689 53.0303C55.0917 55.683 58.0097 57.2966 60.3763 55.8721C60.6314 55.7176 60.8617 55.5284 61.0782 55.324C61.3245 55.0914 61.5861 54.7389 61.9379 54.6826C62.3041 54.623 62.7783 54.9176 63.1582 54.9707C63.4665 55.0142 63.7716 55.0093 64.0799 54.9659C65.6625 54.7445 66.8095 53.5856 67.8109 52.4363C68.1723 52.0219 67.5678 51.4126 67.2048 51.8295C66.3491 52.8122 65.3783 53.8906 64.0252 54.1127C63.7016 54.1659 63.3635 54.161 63.0455 54.0806C62.7308 54.0009 62.4474 53.8456 62.1198 53.8214C61.6006 53.782 61.182 54.0508 60.8101 54.388C60.3875 54.7711 60.0269 55.1526 59.4779 55.357C58.937 55.559 58.3341 55.6081 57.7714 55.4721C56.638 55.196 55.7678 54.1836 55.627 53.0303C55.5618 52.4887 54.7029 52.4822 54.7689 53.0303Z" fill="#211817"/>
<path d="M70.4614 56.6983C71.3202 58.0558 73.02 58.7463 74.583 58.3697C75.1191 58.2401 74.8921 57.4129 74.3544 57.5425C73.193 57.8225 71.857 57.3018 71.2019 56.2654C70.9081 55.7995 70.1652 56.23 70.4614 56.6983Z" fill="#211817"/>
<path d="M57.4519 75.8396L56.8933 79.7252C56.8933 79.7252 64.8617 80.4866 64.5678 72.8127C64.2732 65.1388 57.4519 75.8396 57.4519 75.8396Z" fill="#33201C"/>
<path d="M79.4674 63.7405C79.4674 63.7405 81.9516 65.7019 83.2194 66.8914C83.9422 67.5706 83.8263 68.171 83.456 68.5807C82.7605 69.3509 81.3511 70.501 81.3511 70.501L78.1803 68.431L79.4674 63.7405Z" fill="#F7B38B"/>
<path d="M70.5584 68.9237C70.5584 71.6126 68.3778 73.792 65.6892 73.792C62.9998 73.792 60.8199 71.6126 60.8199 68.9237C60.8199 66.2348 62.9998 64.0553 65.6892 64.0553C68.3778 64.0553 70.5584 66.2348 70.5584 68.9237Z" fill="#F7B38B"/>
<path d="M77.0704 64.5322C76.8257 64.2948 76.4458 64.158 76.1054 64.2498C75.7094 64.3552 75.4913 64.7592 75.451 65.143C75.4084 65.5454 75.4897 65.9751 75.5935 66.3621C75.7102 66.7991 75.9324 67.3213 76.3139 67.5869C76.9771 68.0479 77.6306 67.5482 77.7537 66.8707C77.9018 66.0579 77.5171 64.9643 77.0704 64.5322Z" fill="#261414"/>
<path d="M78.2434 62.3306C78.1275 63.8137 76.7423 63.0975 75.3202 63.9191C74.0131 64.6747 73.0328 64.7785 72.8404 63.9883C72.6078 63.0323 73.6871 61.5629 75.6912 61.0471C77.5681 60.5635 78.3279 61.2491 78.2434 62.3306Z" fill="#33201C"/>
<path d="M81.7606 71.6815C79.9183 72.285 77.9883 72.9087 77.7404 73.0077C79.0571 73.8993 80.7014 74.1664 82.2853 74.0674C82.1364 73.3641 81.9585 72.5627 81.7606 71.6815Z" fill="white"/>
<path d="M64.6036 66.4543C63.8076 67.0273 63.2933 67.8843 63.1919 68.8628C63.0913 69.8317 63.4785 70.8215 64.161 71.5055C64.5521 71.8966 65.1582 71.2906 64.7678 70.8987C63.7264 69.855 63.8205 68.071 65.0366 67.1955C65.2242 67.0603 65.3151 66.8221 65.1904 66.6088C65.0817 66.423 64.792 66.3192 64.6036 66.4543Z" fill="#261414"/>
<path d="M154.185 109.442H86.0658C85.2681 109.442 84.5501 109.926 84.2514 110.665L61.2326 167.979H133.572L155.999 112.13C156.519 110.845 155.572 109.442 154.185 109.442Z" fill="#EEEDF4"/>
<path d="M78.373 165.148H33.159C32.0744 165.148 31.1943 165.928 31.1943 166.89V167.979H78.373V165.148Z" fill="#EEEDF4"/>
<path d="M257.011 21.166L178.268 21.166C174.058 21.166 170.476 24.2362 169.831 28.3975L159.427 95.6058C158.626 100.78 162.629 105.449 167.864 105.449H247.193C251.736 105.449 255.583 102.099 256.208 97.5995L265.468 30.8772C266.18 25.7446 262.193 21.166 257.011 21.166Z" fill="#FFE382"/>
<mask id="mask0_3584_70957" style="mask-type:alpha" maskUnits="userSpaceOnUse" x="145" y="-1" width="124" height="107">
<path d="M259.964 -0.920898L167.088 -0.920898C162.863 -0.920898 159.274 2.16954 158.646 6.34773L145.223 95.6486C144.448 100.811 148.446 105.455 153.666 105.455H247.184C251.731 105.455 255.58 102.099 256.2 97.5948L268.422 8.7806C269.128 3.65107 265.142 -0.920898 259.964 -0.920898Z" fill="#FFE382"/>
</mask>
<g mask="url(#mask0_3584_70957)">
<g clip-path="url(#clip1_3584_70957)">
<path d="M212.693 56.395L221.458 58.3782C219.372 61.2328 217.838 105.897 217.838 105.897L169.564 107.12L166.731 71.098C166.731 71.098 169.128 66.023 174.822 61.943C180.516 57.8633 193.076 56.7498 193.076 56.7498L212.693 56.395Z" fill="white"/>
<path d="M192.464 108.036L179.619 146.629C172.562 142.702 168.332 135.147 168.684 127.103L169.564 107.124L166.731 71.1016C166.731 71.1016 169.128 66.0267 174.822 61.9467C180.516 57.867 192.464 56.8469 192.464 56.8469V108.036Z" fill="#B5D2FF"/>
<path d="M166.967 70.3905L169.498 109.608L177.283 114.183L172.208 85.1178L166.967 70.3905Z" fill="#B5D2FF"/>
<path d="M212.698 56.424L209.037 55.751H196.054L192.584 56.8115C192.584 56.8115 197.155 64.3799 201.134 64.5604C209.739 64.9508 212.698 56.424 212.698 56.424Z" fill="#FFC1A7"/>
<path d="M213.982 78.6671C214.778 88.8167 208.428 136.381 217.22 149.218C226.008 162.055 244.953 155.782 244.953 155.782L240.462 120.347L240.36 119.547C240.36 119.547 240.431 119.565 240.571 119.595C241.578 119.828 246.065 120.682 248.986 118.413C250.795 117.01 252.055 114.597 252.492 111.332C252.868 108.502 252.576 105.057 251.816 101.325C250.274 93.7367 247.374 86.3868 244.027 79.4191C241.254 73.6339 238.365 65.8781 232.653 62.2002C232.484 62.0929 232.318 61.9912 232.142 61.8839C231.973 61.7882 231.808 61.6929 231.632 61.6031C230.513 61.0121 217.107 56.9946 216.02 56.9946C216.02 56.9946 213.183 68.5172 213.982 78.6671Z" fill="#B5D2FF"/>
<path d="M242.932 111.803C248.109 113.194 251.95 112.313 252.549 105.495C252.932 101.131 252.096 85.9566 250.727 77.2633C250.685 76.959 250.639 76.6603 250.59 76.3679C249.89 71.9496 249.344 68.8151 249.344 68.8151L244.35 68.2717L240.417 67.4783C240.417 67.4783 240.568 75.1378 239.994 81.2757C239.969 81.5085 239.945 81.7413 239.927 81.9801C239.311 88.4882 238.625 94.9589 238.376 99.2576C237.876 107.819 237.758 110.406 242.932 111.803Z" fill="#FFC1A7"/>
<path d="M227.144 95.3234C229.02 104.201 233.982 113.521 240.462 120.34L240.36 119.54C240.36 119.54 240.43 119.558 240.571 119.588C234.324 112.877 229.548 103.825 227.732 95.1978C225.8 86.0509 225.951 71.9665 232.652 62.1928C232.483 62.0855 232.318 61.9838 232.142 61.8766C225.346 71.8116 225.191 86.0629 227.144 95.3234Z" fill="#4F332E"/>
<path d="M241.49 70.4848C241.49 70.4848 240.943 69.3671 240.325 68.7443C238.931 67.3284 237.127 65.0551 237.018 61.9859C236.944 59.9205 236.196 53.1891 234.153 50.5204C233.24 49.3303 234.29 47.3832 236.409 49.0852C238.524 50.7885 238.885 55.3621 240.529 57.6109C242.166 59.8612 245.134 60.4843 246.856 63.3002C248.579 66.1164 249.475 67.7452 249.475 67.7452L243.529 70.6404L241.49 70.4848Z" fill="#FFC1A7"/>
<path d="M241.084 59.0709L242.192 65.2387C242.192 65.2387 247.76 70.2072 248.952 69.3578C250.145 68.5143 253.644 61.938 253.644 61.938C253.644 61.938 257.675 56.5345 259.094 55.1986C260.635 53.7482 260.226 52.9095 260.022 52.6796C259.639 52.2469 258.351 53.0068 257.34 53.91C256.64 54.5355 256.346 55.4419 255.73 56.029C254.573 57.133 254.236 57.914 253.646 58.6396C253.646 58.6396 260.116 50.7957 260.223 49.1205C260.309 47.7564 259.648 47.9178 259.317 47.8456C259.244 47.8318 259.194 47.8271 259.194 47.8271C259.194 47.8271 259.355 47.4475 259.498 47.1312C259.554 47.0026 259.594 46.8398 259.618 46.6613C259.736 45.8598 259.483 44.7381 258.322 44.9917C256.929 45.2974 248.842 53.9303 248.584 54.185C248.637 54.0569 249.043 52.191 251.066 49.211C253.186 46.0903 253.477 44.5458 252.81 44.118C252.139 43.6907 250.989 44.1963 248.833 46.7249C247.241 48.5919 244.402 54.7074 242.316 57.4249C242.17 57.6152 242.032 57.7923 241.911 57.9609C241.412 58.6128 241.102 59.0257 241.084 59.0709Z" fill="#FFC1A7"/>
<path d="M241.253 58.783C243.074 59.0816 244.583 61.0822 245.141 62.7175C245.216 62.9336 245.537 62.7913 245.468 62.5779C244.881 60.8757 243.361 58.8836 241.492 58.4679C241.406 58.5798 241.325 58.6839 241.253 58.783Z" fill="#C2614F"/>
<path d="M253.429 53.7636C253.478 53.8069 253.542 53.8266 253.6 53.8182C253.646 53.8115 253.687 53.7886 253.721 53.7545L259.247 47.9209C259.196 47.9113 259.161 47.9081 259.161 47.9081C259.161 47.9081 259.273 47.6453 259.371 47.4265C259.41 47.3374 259.438 47.2247 259.455 47.1012L253.419 53.4728C253.342 53.5551 253.346 53.6838 253.429 53.7636Z" fill="#C2614F"/>
<path d="M255.375 56.4423C255.423 56.4855 255.488 56.5053 255.546 56.4968C255.591 56.4902 255.632 56.4673 255.667 56.4331L257.744 54.0749C257.693 54.0654 257.659 54.0621 257.659 54.0621C257.659 54.0621 257.77 53.7994 257.869 53.5806C257.908 53.4916 257.936 53.3789 257.952 53.2554L255.365 56.1515C255.288 56.2338 255.292 56.3624 255.375 56.4423Z" fill="#C2614F"/>
<path d="M197.247 44.6071L196.169 58.6942C196.169 58.6942 203.712 59.5646 211.453 58.6934L209.35 39.4296L197.247 44.6071Z" fill="#FFC2A7"/>
<path d="M172.466 62.5566C172.458 62.4312 172.493 62.3068 172.565 62.2038C174.178 59.8361 175.658 57.3801 176.997 54.8473C177.081 54.688 177.131 54.5123 177.141 54.3322C177.307 51.2238 177.783 47.1909 178.553 44.2907C179.042 42.6147 179.665 40.9806 180.416 39.404C180.977 38.1585 181.474 36.8813 182.667 36.1403C182.995 35.2336 183.372 34.1186 183.986 33.5753C184.452 33.1766 184.829 33.1554 185.108 33.3318C185.412 32.8061 185.715 32.1534 186.23 31.8182C186.936 31.3666 187.331 31.79 187.557 32.3862C187.743 32.3864 187.928 32.4274 188.097 32.5062C189.836 33.3036 189.324 36.0345 189.07 37.4776C188.573 40.2614 187.553 42.9041 186.904 45.6491C186.788 46.136 186.445 47.8966 186.774 48.3341C187.832 49.7454 188.538 48.2318 189.035 47.0463C189.388 46.203 189.741 45.2257 190.521 44.6788C191.417 44.0649 193.227 43.6203 192.863 45.3668C192.648 46.3724 190.394 51.2732 189.713 52.8327C188.301 56.0716 186.421 59.6881 183.111 60.9125C183.021 60.9446 182.946 61.0085 182.899 61.0924C182.046 62.6987 181.042 64.2203 179.9 65.6368C179.842 65.7102 179.767 65.7684 179.682 65.8062C179.69 65.9347 179.65 66.0618 179.571 66.1633C179.492 66.2647 179.378 66.3335 179.251 66.3566C178.129 66.6036 176.834 65.8909 175.85 65.404C174.659 64.7998 173.553 64.0405 172.562 63.1458C172.475 63.077 172.418 62.9785 172.4 62.8696C172.383 62.7607 172.406 62.6492 172.466 62.5566Z" fill="#FFC1A7"/>
<path d="M183.203 36.6953C183.958 37.6656 183.556 39.0663 183.274 40.1389C182.921 41.4267 182.423 42.6687 182.092 43.9636C181.723 45.2559 181.701 46.6224 182.028 47.9259C182.381 49.1819 182.946 50.3957 183.062 51.6941C183.2 53.2571 182.533 54.7178 181.891 56.0974C181.792 56.3126 181.474 56.1256 181.577 55.9139C182.145 54.686 182.744 53.3912 182.713 52.0081C182.681 50.7132 182.113 49.51 181.749 48.2893C181.393 47.1037 181.33 45.8493 181.566 44.634C181.852 43.3902 182.212 42.1648 182.646 40.9645C182.872 40.2821 183.054 39.5855 183.189 38.8793C183.302 38.2478 183.362 37.4927 182.942 36.9564C182.797 36.7729 183.055 36.5118 183.203 36.6953Z" fill="#C2614F"/>
<path d="M185.536 35.7229C185.384 38.6584 183.772 41.2093 183.158 44.039C182.981 44.839 182.928 45.661 182.999 46.4771C183.02 46.7099 182.646 46.7099 182.646 46.4771C182.371 43.5415 183.941 40.8953 184.735 38.168C184.977 37.3728 185.128 36.5523 185.183 35.7229C185.183 35.49 185.56 35.4865 185.536 35.7229Z" fill="#C2614F"/>
<path d="M186.283 40.6529C185.443 42.8898 184.579 45.2397 184.822 47.6601C184.847 47.8965 184.469 47.8929 184.469 47.6601C184.222 45.1903 185.094 42.8228 185.944 40.5576C186.025 40.3389 186.382 40.4306 186.297 40.6529H186.283Z" fill="#C2614F"/>
<path d="M185.944 36.3015C185.839 38.3585 185.74 40.719 187.123 42.3349C187.482 42.7466 187.918 43.0835 188.408 43.3264C188.897 43.5693 189.429 43.7134 189.974 43.7504C190.519 43.7874 191.066 43.7167 191.583 43.5422C192.101 43.3678 192.579 43.093 192.99 42.7336C196.106 39.9498 196.138 33.4225 193.206 30.4799C191.526 28.7898 188.972 29.0297 187.412 30.8115C186.146 32.2687 186.04 34.4139 185.944 36.3015Z" fill="#EEEDF3"/>
<path d="M196.435 51.1278C196.435 51.1278 199.784 53.9555 205.536 52.0379C208.267 51.1278 209.632 48.8525 210.087 47.0323L209.385 41.2513L205.561 42.7218C202.572 46.3106 196.435 51.1278 196.435 51.1278Z" fill="#E97E69"/>
<path d="M190.202 42.4118C189.946 39.6598 190.241 36.5139 190.747 32.8802C190.874 31.964 190.813 30.0126 190.802 28.9065C190.734 25.5712 191.471 22.1241 193.264 19.2909C194.925 16.601 197.554 14.66 200.605 13.8713C205.071 12.825 209.213 14.2096 212.413 17.0919C216.831 21.0621 217.219 28.5811 214.92 33.8787C213.743 36.6007 212.245 37.1591 210.928 39.7188C208.779 43.8928 207.197 48.8736 202.667 50.5862C194.574 53.6366 190.771 48.5217 190.202 42.4118Z" fill="#FFC2A7"/>
<path d="M201.785 27.5355C202.608 27.7744 203.377 28.2128 203.773 28.6496C203.901 28.7912 204.02 28.9503 204.067 29.1435C204.114 29.3368 204.078 29.5669 203.941 29.6976C203.831 29.8014 203.683 29.8257 203.54 29.843C202.288 30.0095 200.991 30.0959 199.737 29.9964C199.513 29.9779 199.278 29.9513 199.088 29.8191C198.811 29.6288 198.681 29.2322 198.727 28.8718C198.925 27.2894 200.426 27.1434 201.785 27.5355Z" fill="#472C21"/>
<path d="M194.62 28.0898C194.726 28.4412 194.66 28.8503 194.419 29.0844C194.252 29.244 194.026 29.3076 193.807 29.3605C192.585 29.6547 191.293 29.7728 190.029 29.8044C189.887 29.8083 189.735 29.8083 189.609 29.7217C189.451 29.6162 189.376 29.3926 189.395 29.1932C189.409 28.9937 189.5 28.8178 189.601 28.6603C189.916 28.1663 190.602 27.6157 191.376 27.249C192.655 26.6472 194.164 26.5561 194.62 28.0898Z" fill="#472C21"/>
<path d="M196.695 45.4672C198.244 45.3981 199.066 43.9557 199.375 42.4668C197.459 43.0679 195.478 43.4428 193.475 43.5841C193.702 43.9351 193.971 44.2577 194.274 44.5452C194.596 44.8529 194.977 45.0929 195.393 45.2512C195.808 45.4095 196.251 45.483 196.695 45.4672Z" fill="white"/>
<path d="M190.356 23.2596C190.675 19.57 193.856 16.554 196.056 15.4138C198.256 14.2737 201.079 13.2073 203.815 13.3636C207.743 13.622 214 16.5686 215.467 21.1419C216.934 25.7153 217.271 25.5125 217.201 30.469C217.094 37.9283 211.923 41.6984 210.507 42.8144C210.095 43.1261 211.578 35.7748 211.115 35.9667C210.983 34.7953 209.145 21.6596 197.472 21.4487C192.875 21.3656 190.245 24.7002 190.885 30.2905C190.079 30.5047 190.189 25.1844 190.356 23.2596Z" fill="#472C21"/>
<path d="M205.776 34.9089C204.951 35.3166 204.265 35.9614 203.806 36.7617C203.346 37.562 203.134 38.4818 203.194 39.4049C203.255 40.328 203.587 41.2129 204.148 41.9476C204.708 42.6824 205.473 43.2341 206.344 43.5329C207.216 43.8317 208.155 43.8642 209.044 43.6264C209.933 43.3885 210.73 42.8909 211.337 42.1965C211.943 41.5021 212.33 40.6421 212.449 39.7253C212.569 38.8084 212.415 37.8759 212.008 37.0456C211.737 36.4943 211.361 36.0017 210.901 35.5959C210.442 35.1902 209.907 34.8792 209.329 34.6808C208.75 34.4824 208.138 34.4004 207.529 34.4396C206.919 34.4787 206.323 34.6382 205.776 34.9089Z" fill="#FFC2A7"/>
<path d="M209.104 40.253C209.391 39.881 209.565 39.4336 209.606 38.9642C209.646 38.4933 209.541 38.021 209.306 37.6113C209.266 37.5181 209.261 37.4135 209.294 37.3175C209.326 37.2216 209.393 37.1412 209.481 37.0919C209.569 37.0426 209.672 37.0279 209.77 37.0506C209.868 37.0734 209.955 37.132 210.013 37.2151C210.314 37.753 210.455 38.3666 210.417 38.9821C210.38 39.5975 210.166 40.1885 209.802 40.6838C209.774 40.7299 209.738 40.77 209.694 40.8018C209.651 40.8336 209.602 40.8566 209.55 40.8693C209.498 40.882 209.444 40.8843 209.391 40.8759C209.338 40.8676 209.287 40.8488 209.241 40.8207C209.196 40.7928 209.156 40.756 209.124 40.7125C209.092 40.669 209.069 40.6197 209.056 40.5673C209.044 40.515 209.041 40.4606 209.049 40.4074C209.058 40.3541 209.076 40.3031 209.104 40.2571L209.104 40.253Z" fill="#180C45"/>
<path d="M199.476 34.2823C199.421 35.3168 199.87 36.1791 200.482 36.2121C201.09 36.2447 201.631 35.4333 201.686 34.3989C201.741 33.3644 201.291 32.5021 200.679 32.4691C200.067 32.4361 199.531 33.2479 199.476 34.2823Z" fill="#361E14"/>
<path d="M191.637 33.821C191.625 34.7085 192.039 35.4341 192.56 35.4403C193.085 35.447 193.519 34.7338 193.531 33.8462C193.543 32.9586 193.129 32.2331 192.608 32.2269C192.083 32.2202 191.649 32.9334 191.637 33.821Z" fill="#361E14"/>
<path d="M194.733 35.8185C194.879 35.4893 195.425 35.6518 195.275 35.987C195.031 36.5378 194.805 37.0931 194.616 37.6635C194.503 38.0015 194.315 38.4359 194.412 38.793C194.506 39.1376 194.862 39.397 195.125 39.5967C195.416 39.814 195.115 40.2985 194.822 40.0779C194.323 39.7024 193.826 39.2774 193.819 38.6021C193.806 37.6788 194.369 36.6418 194.733 35.8185Z" fill="#E97E69"/>
<path fill-rule="evenodd" clip-rule="evenodd" d="M212.954 47.7383C213.677 50.9955 213.716 54.4476 212.393 54.741C211.068 55.035 209.644 51.89 208.924 48.6322C208.469 46.5799 207.772 42.0096 208.668 41.8107C208.819 41.7772 208.967 41.8714 209.001 42.022C209.027 42.1401 208.973 42.2605 208.874 42.3196C208.681 42.7373 208.758 45.3074 209.469 48.5114C210.295 52.2352 211.657 54.3341 212.273 54.1976C212.885 54.0617 213.236 51.5858 212.41 47.8591C211.902 45.5692 211.068 43.9053 210.428 42.989C210.534 42.9271 210.771 42.7761 210.872 42.6669C211.679 43.8095 212.511 45.7424 212.954 47.7383Z" fill="#ED651E"/>
<path d="M202.352 5.26831C201.034 7.87427 201.177 10.8404 202.474 13.2311C202.599 13.4648 202.739 13.7021 202.89 13.919C202.903 13.9514 202.926 13.9753 202.949 14.0044C203.733 15.1554 204.818 16.1259 206.15 16.8002C208.336 17.9061 210.767 17.9892 212.906 17.2303C212.916 17.2269 212.933 17.227 212.941 17.2186C213.213 17.1214 213.477 17.0123 213.745 16.8878C215.395 16.099 216.799 14.7847 217.686 13.0305C219.801 8.85009 218.164 3.77299 214.044 1.58631C213.996 1.55372 213.942 1.52616 213.891 1.50036C213.684 1.39544 213.48 1.30077 213.27 1.21626C211.23 0.371411 209.024 0.376301 207.08 1.08867C206.861 1.16573 206.639 1.2581 206.431 1.35734C204.722 2.12034 203.265 3.46315 202.352 5.26831Z" fill="#472C21"/>
<path d="M206.428 1.36535C206.479 1.48472 206.523 1.60062 206.566 1.72506C207.93 5.43628 208.803 10.4038 206.865 14.0305C206.846 14.0678 206.838 14.1018 206.836 14.1393C205.402 13.7418 203.941 13.4292 202.471 13.2391C202.596 13.4728 202.736 13.7101 202.887 13.927C202.739 13.9245 202.592 13.9356 202.439 13.9433C202.607 13.9646 202.778 13.991 202.946 14.0124C206.407 14.5231 209.819 15.6527 212.903 17.2383C212.964 17.2692 213.022 17.2985 213.079 17.3362C213.039 17.2901 212.993 17.2626 212.938 17.2266C213.21 17.1294 213.474 17.0203 213.742 16.8959C212.618 16.2891 211.447 15.7604 210.245 15.2757C213.623 12.5739 214.572 7.29657 214.246 3.23207C214.205 2.67893 214.136 2.13245 214.039 1.5892C213.992 1.55662 213.937 1.5291 213.886 1.5033C213.679 1.39838 213.475 1.30366 213.266 1.21915C213.371 1.72842 213.447 2.24433 213.5 2.75671C213.937 6.8048 213.109 12.3567 209.563 14.9181C209.537 14.9349 209.524 14.9621 209.505 14.9824C208.842 14.7406 208.175 14.5226 207.496 14.3198C209.439 10.6489 208.693 5.78414 207.403 1.99507C207.297 1.68995 207.188 1.38311 207.068 1.08812C206.858 1.17374 206.636 1.26612 206.428 1.36535Z" fill="#361E14"/>
<path d="M160.117 90.5797C162.043 88.8155 175.133 86.3104 176.181 86.0211C177.811 85.573 178.266 88.1169 178.386 89.1966C178.67 91.6362 178.572 94.1052 178.093 96.5143C177.952 97.1917 177.139 103.141 177.065 102.979C174.482 105.255 163.987 107.071 156.79 105.159C155.036 104.693 158.257 92.2732 160.117 90.5797Z" fill="#B5D2FF"/>
<path d="M238.431 74.7383C242.28 82.1959 251.998 81.1741 252.935 79.4222C253.872 82.6815 253.589 98.7369 253.709 99.8166C253.993 102.256 253.617 105.468 253.139 107.877C252.998 108.554 247.313 112.082 247.239 111.92C244.656 114.196 242.3 109.789 235.102 107.877C233.348 107.411 236.572 76.4319 238.431 74.7383Z" fill="#B5D2FF"/>
<path d="M208.596 36.7635C208.49 38.8205 208.846 41.2091 210.233 42.8251C210.59 43.2379 211.026 43.5762 211.514 43.8206C212.002 44.065 212.534 44.2108 213.079 44.2494C213.623 44.2881 214.17 44.219 214.688 44.046C215.206 43.873 215.685 43.5996 216.097 43.2414C219.216 40.4576 219.244 33.9303 216.316 30.9877C214.633 29.2976 212.064 29.5376 210.519 31.3193C209.256 32.7589 208.695 34.8723 208.596 36.7635Z" fill="#EEEDF3"/>
<path d="M206.335 16.3692C208.452 16.849 211.712 19.0436 213.232 20.709C216.359 24.1349 216.761 29.9425 216.44 33.8271C216.313 35.4043 212.075 32.5005 212.375 30.9304C213.042 27.4021 212.467 24.0996 210.085 21.2805C205.887 16.6123 198.121 15.8046 191.385 19.2271C191.379 19.2295 191.372 19.2299 191.366 19.2283C191.36 19.2267 191.354 19.2231 191.35 19.218C191.345 19.213 191.343 19.2067 191.342 19.2001C191.342 19.1935 191.343 19.1869 191.347 19.1812C191.569 18.8531 192.465 17.851 194.458 17.0184C198.569 15.3036 203.445 15.7164 206.335 16.3692Z" fill="#EEEDF3"/>
<path d="M153.259 84.1753C154.398 82.1141 155.642 80.1121 156.985 78.1772C160.866 72.4508 165.382 67.1866 170.067 62.1129C171.722 60.3241 173.398 58.5599 175.078 56.7958C175.148 56.7173 175.237 56.6568 175.335 56.6194C176.891 56.203 180.465 59.7948 181.284 60.751C182.244 61.8659 185.518 65.9552 184.745 67.4547C182.667 71.4135 179.806 74.476 178.25 78.6817C176.648 83.0568 174.637 93.6875 166.959 102.36C164.112 105.574 160.859 106.015 156.424 105.105C152.588 104.318 150.228 100.518 150.009 96.7289C149.741 92.1774 151.181 88.0564 153.259 84.1753Z" fill="#B5D2FF"/>
<path d="M212.808 31.0769C211.238 32.0507 210.691 33.9454 210.533 35.6848C210.446 36.6726 210.418 37.6645 210.448 38.6556C210.449 39.6178 210.65 40.5692 211.037 41.45C211.412 42.2776 212.072 42.9426 212.897 43.3235C213.112 43.4153 212.925 43.7328 212.71 43.6411C210.945 42.8896 210.24 40.9384 210.113 39.1707C210.044 38.0953 210.055 37.0162 210.145 35.9424C210.19 34.9408 210.401 33.9536 210.769 33.0209C211.139 32.094 211.787 31.3049 212.625 30.7628C212.826 30.6358 213.009 30.9534 212.808 31.0769Z" fill="#401321"/>
<path d="M187.412 36.4006C187.352 38.5173 187.356 41.2866 189.472 42.5073C189.513 42.5324 189.542 42.5723 189.553 42.6185C189.565 42.6647 189.558 42.7135 189.534 42.7547C189.51 42.7959 189.472 42.8263 189.426 42.8393C189.38 42.8524 189.331 42.8472 189.289 42.8248C187.042 41.5336 186.982 38.6761 187.045 36.4006C187.056 36.3623 187.079 36.3286 187.111 36.3046C187.143 36.2806 187.182 36.2676 187.222 36.2676C187.262 36.2676 187.3 36.2806 187.332 36.3046C187.364 36.3286 187.387 36.3623 187.398 36.4006H187.412Z" fill="#401321"/>
<path d="M200.481 47.7145C200.505 47.5535 200.56 47.3989 200.645 47.2595C200.729 47.1201 200.839 46.9987 200.971 46.9023C201.102 46.8059 201.251 46.7364 201.409 46.6978C201.567 46.6591 201.731 46.6521 201.892 46.6772C202.799 46.7583 203.303 47.6581 204.157 47.8309C206.331 48.272 209.45 47.6439 210.508 47.1853C211.138 46.8944 211.648 46.3962 211.955 45.7739C212.498 44.8001 212.579 43.5829 212.745 42.482C212.787 42.2068 212.816 41.8576 212.865 41.5047C213.004 41.2973 213.204 41.1375 213.436 41.0467C213.669 40.9558 213.924 40.9384 214.167 40.9966C214.713 41.1502 215.177 41.5144 215.455 42.0093C215.003 44.4791 214.604 47.7956 212.061 48.8118C211.225 49.0861 210.359 49.2545 209.481 49.3128C208.303 49.4575 207.128 49.6656 205.953 49.7468C204.778 49.8279 203.395 49.8844 202.217 49.528C201.384 49.2705 200.364 48.7201 200.481 47.7145Z" fill="#EEEDF3"/>
<path d="M213.97 41.2564C213.876 41.2124 213.774 41.1895 213.67 41.1895C213.566 41.1895 213.464 41.2124 213.37 41.2564C213.261 41.3126 213.167 41.3942 213.097 41.4943C213.026 41.5944 212.981 41.71 212.964 41.8314C212.813 42.4982 212.714 43.1791 212.612 43.8529C212.606 43.8772 212.596 43.9002 212.581 43.9204C212.567 43.9406 212.548 43.9577 212.527 43.9705C212.505 43.9833 212.482 43.9916 212.457 43.9949C212.432 43.9982 212.407 43.9965 212.383 43.9897C212.359 43.983 212.337 43.9715 212.317 43.9558C212.298 43.9401 212.282 43.9207 212.27 43.8986C212.259 43.8766 212.252 43.8524 212.25 43.8275C212.248 43.8027 212.251 43.7777 212.259 43.7541C212.319 43.3449 212.386 42.9392 212.46 42.5299C212.498 42.1543 212.583 41.7847 212.71 41.4293C212.837 41.1719 213.059 40.9746 213.33 40.8801C213.601 40.7857 213.898 40.8018 214.157 40.9248C214.368 41.0271 214.185 41.3411 213.97 41.2423V41.2564Z" fill="#401321"/>
<path d="M184.911 67.5369C184.06 68.9482 183.312 70.4442 182.561 71.919C181.556 73.9019 180.581 75.9013 179.636 77.9171C178.86 79.5754 178.08 81.2372 177.413 82.9449C177.138 83.6506 176.947 84.3774 176.728 85.1077C176.274 86.613 175.732 88.0904 175.105 89.5322C173.765 92.5009 172.207 95.3665 170.445 98.106C170.215 98.4588 169.986 98.8398 169.739 99.2033C169.615 99.4044 169.298 99.2032 169.425 99.0198C171.229 96.2518 172.851 93.3689 174.28 90.3896C174.955 88.9487 175.544 87.4689 176.044 85.9581C176.344 85.0442 176.559 84.1022 176.894 83.1989C177.494 81.5795 178.231 80.0023 178.958 78.4358C179.899 76.4176 180.869 74.4182 181.869 72.4377C182.663 70.8535 183.464 69.2622 184.339 67.7345L184.554 67.3816C184.678 67.177 184.995 67.364 184.872 67.5651L184.911 67.5369Z" fill="#401321"/>
<path d="M173.733 94.6545C173.434 96.8079 173.383 98.9886 173.581 101.154C173.602 101.387 173.228 101.387 173.228 101.154C173.029 98.9553 173.085 96.7413 173.394 94.5557C173.426 94.3229 173.782 94.4217 173.747 94.6545H173.733Z" fill="#401321"/>
<rect x="235.644" y="27.4658" width="4.742" height="4.742" rx="2.371" fill="white"/>
<rect x="251.904" y="27.4658" width="4.742" height="4.742" rx="2.371" fill="white"/>
<rect x="243.774" y="27.4658" width="4.742" height="4.742" rx="2.371" fill="white"/>
</g>
</g>
</g>
<defs>
<clipPath id="clip0_3584_70957">
<rect width="301" height="168" fill="white"/>
</clipPath>
<clipPath id="clip1_3584_70957">
<rect width="119.527" height="108.931" fill="white" transform="translate(147.745 -3.47852)"/>
</clipPath>
</defs>
</svg>
