<svg width="24" height="25" viewBox="0 0 24 25" fill="none" xmlns="http://www.w3.org/2000/svg">
<g clip-path="url(#clip0_8711_2486)">
<path fill-rule="evenodd" clip-rule="evenodd" d="M2.66667 24.5H21.3333C22.8061 24.5 24 23.3061 24 21.8333V3.16667C24 1.69391 22.8061 0.5 21.3333 0.5H2.66667C1.19391 0.5 0 1.69391 0 3.16667V21.8333C0 23.3061 1.19391 24.5 2.66667 24.5Z" fill="#007EBB"/>
<path fill-rule="evenodd" clip-rule="evenodd" d="M20.6668 21.1663H17.1054V15.1004C17.1054 13.4373 16.4734 12.5079 15.1571 12.5079C13.725 12.5079 12.9769 13.475 12.9769 15.1004V21.1663H9.54461V9.61079H12.9769V11.1673C12.9769 11.1673 14.0088 9.25775 16.461 9.25775C18.9121 9.25775 20.6668 10.7545 20.6668 13.8501V21.1663ZM5.44995 8.09768C4.28085 8.09768 3.3335 7.14289 3.3335 5.96534C3.3335 4.78779 4.28085 3.83301 5.44995 3.83301C6.61904 3.83301 7.56583 4.78779 7.56583 5.96534C7.56583 7.14289 6.61904 8.09768 5.44995 8.09768ZM3.67768 21.1663H7.25663V9.61079H3.67768V21.1663Z" fill="white"/>
</g>
<defs>
<clipPath id="clip0_8711_2486">
<rect width="24" height="24" fill="white" transform="translate(0 0.5)"/>
</clipPath>
</defs>
</svg>
