<?xml version="1.0" encoding="utf-8"?>
<!-- Generator: Adobe Illustrator 26.4.1, SVG Export Plug-In . SVG Version: 6.00 Build 0)  -->
<svg version="1.1" id="Layer_1" xmlns="http://www.w3.org/2000/svg" xmlns:xlink="http://www.w3.org/1999/xlink" x="0px" y="0px"
	 viewBox="0 0 100 100" style="enable-background:new 0 0 100 100;" xml:space="preserve">
<style type="text/css">
	.st0{fill:url(#SVGID_1_);}
</style>
<linearGradient id="SVGID_1_" gradientUnits="userSpaceOnUse" x1="19.6882" y1="51" x2="80.3118" y2="51" gradientTransform="matrix(1 0 0 -1 0 101)">
	<stop  offset="0" style="stop-color:#FBB040"/>
	<stop  offset="1" style="stop-color:#FFD545"/>
</linearGradient>
<path class="st0" d="M79.1,28c-1.1-1.4-2.7-2.1-4.5-2.1v3.6c0.7,0,1.3,0.2,1.8,0.7c0.4,0.5,0.5,1.3,0.3,2.1l-0.2,1.2h-6.7
	c1.4-2.5,3.2-3.9,5-3.9v-3.6H43.8c-3.2,0-6.1,2.2-8.2,6l3.1,1.8c1.4-2.6,3.3-4.1,5-4.1H68c-0.8,1-1.6,2.3-2.2,3.8
	c-1.3,2.9-1.9,8.9-2.7,15.8c-0.8,7.5-1.7,16.1-3.5,19.5c-1.8,3.4-3.5,4.1-5.6,4.1c-0.7,0-1.3-0.2-1.8-0.7c-0.4-0.5-0.5-1.3-0.3-2.1
	l0.8-3.5H33.3c0.8-3.2,1.4-7.3,1.8-10.6l-3.5-0.4c-0.4,3.6-1,8-1.9,11.1h-9.2l-0.6,2.7c-0.4,1.9-0.1,3.8,1,5.2
	c1.1,1.4,2.7,2.1,4.5,2.1H54c3.9,0,6.7-1.9,8.8-6.1c2.1-4.1,3-12.6,3.9-20.9c0.5-4.6,1-9.3,1.6-12.4h10.9l0.9-3.9
	C80.6,31.3,80.2,29.4,79.1,28z M25.4,72.8c-0.7,0-1.3-0.2-1.8-0.7c-0.4-0.5-0.5-1.2-0.4-1.9h24.9c-0.1,1,0.1,1.9,0.3,2.7
	C48.5,72.8,25.4,72.8,25.4,72.8z M37,55.2c0.1,1.1,0.5,2,1.3,2.7c1.2,1.2,2.9,1.7,5.4,1.7c0.3,0.5,0.7,1.2,1,1.8l0.3,0.7L56.4,66
	l-0.9-3.3c-0.5-1.8-1.8-4.1-3.6-6.5c0.8,0,1.5-0.4,1.8-1.2c0.5-1.4,1.1-4.9-3-8.1c-0.5-4.7-5.3-8.9-14.4-12.8
	c-5.5-2.3-9.2-4.8-11-7.5l-2.3-3.1L22,27.3c-1.9,8.6,2.1,16.8,6.6,21.6C31.5,52.1,34.1,54,37,55.2z M34.9,37.4
	c8.1,3.5,12.2,6.9,12.2,10.4v1l0.8,0.5c2,1.3,2.8,2.9,2.3,4.4c-0.1,0.1-0.1,0.2-0.1,0.3c-4.2-5.1-10.4-10.9-17.7-16.4
	c-0.8-0.6-1.9-0.4-2.5,0.4s-0.4,1.9,0.4,2.5C40,47.8,46.9,55.1,50.1,60l-2.5-0.8c-0.4-0.8-1-2-1.5-2.6l-0.6-0.7l-0.9,0.1
	c-2.6,0.2-3.5-0.3-3.7-0.5c-0.1-0.1-0.4-0.4-0.2-1.3l0.1-1.5l-1.3-0.4c-2.9-0.9-5.2-2.5-8.1-5.7C28,43,25,37.6,25.1,31.7
	C27.4,33.7,30.8,35.7,34.9,37.4z"/>
</svg>
