<?xml version="1.0" encoding="utf-8"?>
<!-- Generator: Adobe Illustrator 26.4.1, SVG Export Plug-In . SVG Version: 6.00 Build 0)  -->
<svg version="1.1" id="Layer_1" xmlns="http://www.w3.org/2000/svg" xmlns:xlink="http://www.w3.org/1999/xlink" x="0px" y="0px"
	 viewBox="0 0 100 100" style="enable-background:new 0 0 100 100;" xml:space="preserve">
<style type="text/css">
	.st0{fill:url(#SVGID_1_);}
</style>
<linearGradient id="SVGID_1_" gradientUnits="userSpaceOnUse" x1="23.4148" y1="50.85" x2="76.5852" y2="50.85" gradientTransform="matrix(1 0 0 -1 0 101)">
	<stop  offset="0" style="stop-color:#FBB040"/>
	<stop  offset="1" style="stop-color:#FFD545"/>
</linearGradient>
<path class="st0" d="M75.5,53.3c-0.1,0-4.5-1.5-7.5-3.7c-2-1.4-3.6-3.1-5.3-4.9c-3.7-3.8-7.5-7.7-14.2-8.4c-0.1,0-0.1,0-0.2,0
	c-0.4-0.1-0.9-0.1-1.3-0.1h-4.4c2.5-0.8,4.4-3.3,4.4-6.2c0-3.6-2.7-6.5-6.1-6.5s-6.2,3-6.2,6.5c0,3,1.8,5.4,4.4,6.2h-4.4
	c-2.2,0-4.2,0.9-5.7,2.5l-4.4,4.7c-0.8,0.8-1.2,2-1.1,3.1c0.1,1.1,0.7,2.2,1.6,2.8l7,5.3c0.3,0.2,0.6,0.3,0.9,0.3c0.1,0,0.1,0,0.1,0
	v0.2l-2.7,19.6c-0.1,0.8,0.5,1.7,1.4,1.8c0.1,0,0.2,0,0.2,0c0.8,0,1.5-0.6,1.6-1.4l2.7-19.7c0-0.1,0-0.2,0-0.2v-12
	c0-0.9-0.7-1.6-1.6-1.6c-0.9,0-1.6,0.7-1.6,1.6v8.2L27,46.9c-0.3-0.2-0.3-0.5-0.3-0.6s0-0.4,0.2-0.7l4.3-4.7
	c0.9-0.9,2.1-1.5,3.4-1.5h12.3c1.3,0,2.5,0.5,3.4,1.5l4.4,4.7c0.2,0.3,0.3,0.5,0.2,0.7c0,0.2-0.1,0.4-0.3,0.6l-6.1,4.6v-8.1
	c0-0.9-0.7-1.6-1.6-1.6c-0.9,0-1.6,0.7-1.6,1.6v12c0,0.1,0,0.2,0,0.2L48,75.3c0.1,0.8,0.8,1.4,1.6,1.4c0.1,0,0.2,0,0.2,0
	c0.8-0.1,1.5-0.9,1.4-1.8l-0.5-3.8c0.4,0,0.7-0.2,1-0.4c0.8-0.8,1.4-1.7,1.8-2.4c0.7-1.2,1.3-2.2,3.2-3c2-0.8,3.1-0.7,4.6-0.4
	c1.7,0.3,3.6,0.6,6.4-0.6c2.8-1.3,3.8-3.1,4.7-4.6c0.7-1.3,1.3-2.4,3.2-3.2c0.6-0.3,0.9-0.8,0.9-1.5C76.5,54.1,76.1,53.6,75.5,53.3z
	 M37.8,30.1c0-1.8,1.3-3.3,3-3.3c1.6,0,3,1.5,3,3.3s-1.3,3.3-3,3.3C39.1,33.4,37.8,31.9,37.8,30.1z M69.7,58
	c-0.7,1.3-1.3,2.4-3.2,3.2c-2,0.8-3.1,0.7-4.6,0.4c-1.7-0.3-3.6-0.6-6.4,0.6c-2.8,1.3-3.8,2.9-4.6,4.3c-0.2,0.4-0.4,0.7-0.6,0.9
	l-1.7-12.2V55c0.4,0.1,0.7-0.1,1.1-0.3l7-5.3c0.9-0.7,1.5-1.7,1.6-2.8c0.1-0.8-0.1-1.6-0.5-2.3c1,0.9,1.9,1.8,2.8,2.8
	c1.8,1.8,3.6,3.7,5.7,5.2c1.7,1.2,3.8,2.2,5.5,3C70.7,56.1,70.2,57.1,69.7,58z M66.1,58.1c-0.3,0.4-0.8,0.6-1.3,0.6
	c-0.3,0-0.6-0.1-0.9-0.3c-0.6-0.4-1.2-0.9-1.7-1.3c-2-1.7-3.6-3.8-5.2-5.8l-0.2-0.2c-0.5-0.7-0.4-1.7,0.3-2.2
	c0.7-0.5,1.7-0.4,2.2,0.3l0.2,0.2c1.5,2,3,3.8,4.8,5.4c0.4,0.4,0.9,0.7,1.4,1.2C66.5,56.3,66.6,57.3,66.1,58.1z M59.1,57.8
	c0.5,0.7,0.4,1.7-0.3,2.2c-0.3,0.2-0.6,0.3-0.9,0.3c-0.5,0-0.9-0.2-1.3-0.6c-1.1-1.4-2-2.8-2.7-4.2c-0.4-0.7-0.2-1.7,0.5-2.2
	c0.7-0.4,1.7-0.2,2.2,0.5C57.3,55.2,58.2,56.6,59.1,57.8z M46.3,74.7c0.2,0.8-0.4,1.7-1.2,1.8c-0.8,0.2-1.7-0.4-1.8-1.2l-2.5-11.8
	l-2.4,11.8c-0.2,0.7-0.8,1.3-1.5,1.3c-0.1,0-0.2,0-0.3-0.1c-0.8-0.2-1.4-1-1.2-1.8L38.7,58c0.2-0.7,0.8-1.3,1.5-1.3h1.1
	c0.7,0,1.4,0.5,1.5,1.3L46.3,74.7z"/>
</svg>
