<?xml version="1.0" encoding="utf-8"?>
<!-- Generator: Adobe Illustrator 26.4.1, SVG Export Plug-In . SVG Version: 6.00 Build 0)  -->
<svg version="1.1" id="Layer_1" xmlns="http://www.w3.org/2000/svg" xmlns:xlink="http://www.w3.org/1999/xlink" x="0px" y="0px"
	 viewBox="0 0 100 100" style="enable-background:new 0 0 100 100;" xml:space="preserve">
<style type="text/css">
	.st0{fill:url(#quote_00000016052769478638667590000013237496458831838872_);}
</style>
<linearGradient id="quote_00000047774621406250913850000000242909827847924620_" gradientUnits="userSpaceOnUse" x1="23.4493" y1="50.8764" x2="76.489" y2="50.8764" gradientTransform="matrix(1 0 0 -1 0 101)">
	<stop  offset="0" style="stop-color:#FBB040"/>
	<stop  offset="1" style="stop-color:#FFD545"/>
</linearGradient>
<path id="quote_3_" style="fill:url(#quote_00000047774621406250913850000000242909827847924620_);" d="M42,60.6
	c-0.2,0-0.5-0.1-0.7-0.2c-0.6-0.3-0.9-0.9-0.9-1.5v-4.2c-3.2-0.8-5.6-3.6-5.6-7c0-4,3.3-7.3,7.3-7.3c4.2,0,7.3,3.4,7.3,8.1
	c0,6.3-6,11.4-6.2,11.7C42.8,60.4,42.4,60.6,42,60.6z M42,43.7c-2.2,0-4,1.8-4,4c0,2.2,1.8,4,4,4c0.9,0,1.6,0.7,1.6,1.6v1.4
	c1.2-1.7,2.4-3.9,2.4-6.2C46,45.6,44.4,43.7,42,43.7z M58,60.6c-0.2,0-0.5-0.1-0.7-0.2c-0.6-0.3-0.9-0.9-0.9-1.5v-4.2
	c-3.2-0.8-5.6-3.6-5.6-7c0-4,3.3-7.3,7.3-7.3c4.3,0,7.3,3.3,7.3,8.1c0,6.3-6,11.4-6.2,11.7C58.8,60.4,58.4,60.6,58,60.6z M58,43.7
	c-2.2,0-4,1.8-4,4c0,2.2,1.8,4,4,4c0.9,0,1.6,0.7,1.6,1.6v1.4c1.2-1.7,2.4-3.9,2.4-6.2C62,45.6,60.5,43.7,58,43.7z M50,76.6
	c-4.4,0-8.7-1.1-12.6-3.3l-11.9,3.2c-0.5,0.2-1.1,0-1.6-0.4c-0.4-0.4-0.6-1-0.4-1.6l3.2-11.8c-2.7-4.9-3.7-10.5-3-16
	c1.6-12.1,11.5-21.7,23.6-23c8-0.8,15.8,2,21.5,7.6s8.5,13.5,7.6,21.5c-1.2,12.1-10.9,22.1-23,23.6C52.3,76.6,51.2,76.6,50,76.6z
	 M37.6,70.1c0.3,0,0.5,0.1,0.8,0.2c4.4,2.5,9.5,3.6,14.6,2.9c10.6-1.4,19.1-10,20.2-20.7c0.7-7-1.7-13.9-6.7-18.9
	c-4.9-4.9-11.8-7.4-18.8-6.7C37,28.1,28.3,36.5,27,47.2c-0.7,5.1,0.3,10.1,2.9,14.6c0.2,0.4,0.3,0.8,0.2,1.2l-2.6,9.8l9.8-2.6
	C37.3,70.1,37.4,70.1,37.6,70.1z"/>
</svg>
