<svg id="Layer_1" data-name="Layer 1" xmlns="http://www.w3.org/2000/svg" xmlns:xlink="http://www.w3.org/1999/xlink" viewBox="0 0 100 100"><defs><style>.cls-1{fill:url(#linear-gradient);}.cls-2{fill:url(#linear-gradient-3);}</style><linearGradient id="linear-gradient" x1="50" y1="76.45" x2="50" y2="22.98" gradientUnits="userSpaceOnUse"><stop offset="0" stop-color="#fbb040"/><stop offset="1" stop-color="#ffd545"/></linearGradient><linearGradient id="linear-gradient-3" x1="42.7" y1="76.45" x2="42.7" y2="22.98" xlink:href="#linear-gradient"/></defs><path class="cls-1" d="M70.36,39.08a1.27,1.27,0,0,0,0-.28v0a2.41,2.41,0,0,0-.08-.25l0-.08a1.62,1.62,0,0,0-.1-.18l-.05-.07a1.24,1.24,0,0,0-.18-.22l-15-15a1.24,1.24,0,0,0-.22-.18l-.07-.05-.18-.09-.08,0-.26-.08h0l-.27,0H31.24a1.6,1.6,0,0,0-1.6,1.6V75.9a1.6,1.6,0,0,0,1.6,1.6H68.76a1.6,1.6,0,0,0,1.6-1.6V39.08ZM55.35,28l9.56,9.55H55.35ZM32.83,74.3V25.7H52.15V39.11a1.6,1.6,0,0,0,1.6,1.6H67.17V74.3Z"/><path class="cls-1" d="M50,44.53a12.87,12.87,0,0,0-12.72,11v0a13.11,13.11,0,0,0-.13,1.79A12.84,12.84,0,0,0,55.79,68.86h0l0,0A12.85,12.85,0,0,0,50,44.53Zm-1.6,3.34v7.68l-7.61-1.09A9.7,9.7,0,0,1,48.4,47.87Zm-8,9.76L49,58.85l3.94,7.75a9.5,9.5,0,0,1-2.89.45A9.67,9.67,0,0,1,40.35,57.63Zm15.39,7.51L51.6,57V47.87a9.64,9.64,0,0,1,4.14,17.27Z"/><path class="cls-2" d="M38.85,40.71h7.69a1.6,1.6,0,1,0,0-3.2H38.85a1.6,1.6,0,0,0,0,3.2Z"/><path class="cls-2" d="M38.85,35h7.69a1.6,1.6,0,1,0,0-3.2H38.85a1.6,1.6,0,0,0,0,3.2Z"/></svg>