<?xml version="1.0" encoding="utf-8"?>
<!-- Generator: Adobe Illustrator 26.4.1, SVG Export Plug-In . SVG Version: 6.00 Build 0)  -->
<svg version="1.1" id="Layer_1" xmlns="http://www.w3.org/2000/svg" xmlns:xlink="http://www.w3.org/1999/xlink" x="0px" y="0px"
	 viewBox="0 0 100 100" style="enable-background:new 0 0 100 100;" xml:space="preserve">
<style type="text/css">
	.st0{fill:url(#SVGID_1_);}
</style>
<linearGradient id="SVGID_1_" gradientUnits="userSpaceOnUse" x1="26.6373" y1="50" x2="73.3627" y2="50">
	<stop  offset="0" style="stop-color:#FBB040"/>
	<stop  offset="1" style="stop-color:#FFD545"/>
</linearGradient>
<path class="st0" d="M42.7,50.7c-0.2-0.5-0.6-1.1-1-1.8c-0.2-0.4-0.5-0.7-0.7-1.1c-0.6-1.1-1-2.3-1-3.6c0-2,0.8-3.8,2.2-5.1
	c1.4-1.4,3.3-2,5.2-2c3.7,0.2,6.6,3.2,6.8,6.8c0.1,1.5-0.4,3-1.3,4.3c-0.3,0.4-0.6,0.8-0.8,1.1c-0.4,0.5-0.7,0.9-0.8,1.3
	c-0.2,0.7-0.8,1.1-1.5,1.1c-0.2,0-0.3,0-0.5-0.1c-0.8-0.2-1.3-1.1-1.1-2c0.3-1,0.9-1.7,1.4-2.4c0.2-0.3,0.5-0.6,0.7-0.9
	c0.5-0.7,0.7-1.5,0.7-2.4c-0.1-2-1.7-3.7-3.7-3.8c-1.1-0.1-2.1,0.3-2.9,1.1c-0.8,0.7-1.2,1.8-1.2,2.8c0,0.7,0.2,1.4,0.5,2
	c0.2,0.3,0.4,0.7,0.6,1c0.5,0.8,0.9,1.5,1.3,2.2c0.4,0.8,0,1.7-0.8,2.1C44,51.8,43.1,51.5,42.7,50.7z M49,55.6
	c0.9,0,1.6-0.7,1.6-1.6s-0.7-1.6-1.6-1.6h-3.8c-0.9,0-1.6,0.7-1.6,1.6s0.7,1.6,1.6,1.6H49z M48.5,60.2c0.9,0,1.6-0.7,1.6-1.6
	c0-0.9-0.7-1.6-1.6-1.6h-2.8c-0.9,0-1.6,0.7-1.6,1.6c0,0.9,0.7,1.6,1.6,1.6H48.5z M39.6,38.3c0.4,0,0.8-0.2,1.1-0.5
	c0.6-0.6,0.6-1.6,0-2.2l-2.8-2.8c-0.6-0.6-1.6-0.6-2.2,0c-0.6,0.6-0.6,1.6,0,2.2l2.8,2.8C38.7,38.2,39.2,38.3,39.6,38.3z M30.9,44.3
	c0,0.9,0.7,1.6,1.6,1.6h3.9c0.9,0,1.6-0.7,1.6-1.6c0-0.9-0.7-1.6-1.6-1.6h-3.9C31.6,42.7,30.9,43.4,30.9,44.3z M38.4,50.7l-2.8,2.8
	c-0.6,0.6-0.6,1.6,0,2.2c0.3,0.3,0.7,0.5,1.1,0.5c0.4,0,0.8-0.2,1.1-0.5l2.8-2.8c0.6-0.6,0.6-1.6,0-2.2
	C40.1,50.1,39.1,50.1,38.4,50.7z M53.6,50.7c-0.6,0.6-0.6,1.6,0,2.2l2.8,2.8c0.3,0.3,0.7,0.5,1.1,0.5s0.8-0.2,1.1-0.5
	c0.6-0.6,0.6-1.6,0-2.2l-2.8-2.8C55.2,50.1,54.2,50.1,53.6,50.7z M63.3,44.3c0-0.9-0.7-1.6-1.6-1.6h-3.9c-0.9,0-1.6,0.7-1.6,1.6
	c0,0.9,0.7,1.6,1.6,1.6h3.9C62.6,45.9,63.3,45.2,63.3,44.3z M56.3,32.8l-2.8,2.8c-0.6,0.6-0.6,1.6,0,2.2c0.3,0.3,0.7,0.5,1.1,0.5
	s0.8-0.2,1.1-0.5l2.8-2.8c0.6-0.6,0.6-1.6,0-2.2C58,32.2,57,32.2,56.3,32.8z M48.7,33.6v-3.9c0-0.9-0.7-1.6-1.6-1.6
	c-0.9,0-1.6,0.7-1.6,1.6v3.9c0,0.9,0.7,1.6,1.6,1.6C48,35.2,48.7,34.5,48.7,33.6z M72.7,51l-4-5.9c0-0.3,0.1-1,0.3-1.6
	c0.4-1.1,0.3-2.7-0.5-5.5c-1.7-6.1-5.9-11.1-11.2-13C52,23,44.7,23.3,41.3,24c-6.5,1.2-13.7,6.4-14.6,17.2c-0.3,3.1,0.6,7.1,2.2,9.9
	c1,2,3.7,7.6,4,9.6c0.3,2.1,0.2,10.9,0.1,14.2c0,0.9,0.7,1.6,1.5,1.6c0,0,0,0,0,0c0.9,0,1.6-0.7,1.6-1.5c0-1.2,0.3-12-0.2-14.7
	c-0.5-2.9-3.9-9.8-4.3-10.6c0,0,0,0,0-0.1c-1.3-2.3-2-5.6-1.8-8.1c0.9-11.3,9.4-13.8,12-14.3c3.3-0.6,9.9-0.8,14.4,0.9
	c4.2,1.6,7.8,5.9,9.2,10.9c0.7,2.6,0.6,3.3,0.6,3.5c-0.3,0.7-1,3,0,4.5l4,5.9c0.1,0.2,0.1,0.4,0.1,0.5c0,0.1-0.1,0.3-0.4,0.3L68,54
	c-1.3,0.3-2.3,1.5-2.3,2.8v5.1c0,1.1-0.9,1.9-1.9,1.9h-8.1c-0.5,0-0.9,0-1.4,0c-3,0.1-4.9,0-5.8-1.6c-0.4-0.8-1.4-1.1-2.2-0.6
	c-0.8,0.4-1.1,1.4-0.6,2.2c1.8,3.4,5.6,3.4,8.7,3.3c0.3,0,0.6,0,0.9,0v7.9c0,0.9,0.7,1.6,1.6,1.6s1.6-0.7,1.6-1.6V67h5.3
	c2.8,0,5.1-2.3,5.1-5.1V57l1.6-0.4c1.2-0.3,2.2-1.1,2.6-2.2C73.6,53.3,73.4,52.1,72.7,51z"/>
</svg>
