<svg width="83" height="16" viewBox="0 0 83 16" fill="none" xmlns="http://www.w3.org/2000/svg">
<path d="M0.65377 9.5934C1.01377 9.5934 1.3071 9.30007 1.3071 8.94007V7.06007C1.3071 6.70007 1.01377 6.40674 0.65377 6.40674C0.29377 6.40674 0.00043714 6.70007 0.00043714 7.06007V8.94007C-0.0128962 9.30007 0.280437 9.5934 0.65377 9.5934Z" fill="#ED8B00"/>
<path d="M2.96046 9.5934C3.32046 9.5934 3.6138 9.30007 3.6138 8.94007V7.06007C3.6138 6.70007 3.32046 6.40674 2.96046 6.40674C2.60046 6.40674 2.30713 6.70007 2.30713 7.06007V8.94007C2.30713 9.30007 2.60046 9.5934 2.96046 9.5934Z" fill="#ED8B00"/>
<path d="M5.2671 11.7933C5.6271 11.7933 5.92044 11.5 5.92044 11.14V4.86C5.92044 4.5 5.6271 4.20667 5.2671 4.20667C4.9071 4.20667 4.61377 4.5 4.61377 4.86V11.14C4.61377 11.5 4.9071 11.7933 5.2671 11.7933Z" fill="#ED8B00"/>
<path d="M7.57374 11.1801C7.93374 11.1801 8.22707 10.8867 8.22707 10.5267V5.4734C8.22707 5.1134 7.93374 4.82007 7.57374 4.82007C7.21374 4.82007 6.92041 5.1134 6.92041 5.4734V10.5267C6.92041 10.8867 7.21374 11.1801 7.57374 11.1801Z" fill="#ED8B00"/>
<path d="M9.88039 11.1801C10.2404 11.1801 10.5337 10.8867 10.5337 10.5267V5.4734C10.5337 5.1134 10.2404 4.82007 9.88039 4.82007C9.52039 4.82007 9.22705 5.1134 9.22705 5.4734V10.5267C9.22705 10.8867 9.52039 11.1801 9.88039 11.1801Z" fill="#ED8B00"/>
<path d="M12.187 13.9533C12.547 13.9533 12.8404 13.66 12.8404 13.3V2.69996C12.8404 2.33996 12.547 2.04663 12.187 2.04663C11.827 2.04663 11.5337 2.33996 11.5337 2.69996V13.3C11.5337 13.66 11.827 13.9533 12.187 13.9533Z" fill="#ED8B00"/>
<path d="M14.4937 15.0134C14.8537 15.0134 15.147 14.72 15.147 14.36V1.64002C15.147 1.28002 14.8537 0.986694 14.4937 0.986694C14.1337 0.986694 13.8403 1.28002 13.8403 1.64002V14.36C13.8403 14.72 14.1337 15.0134 14.4937 15.0134Z" fill="#ED8B00"/>
<path d="M16.8003 12.6801C17.1603 12.6801 17.4536 12.3867 17.4536 12.0267V3.9734C17.4536 3.6134 17.1603 3.32007 16.8003 3.32007C16.4403 3.32007 16.147 3.6134 16.147 3.9734V12.0267C16.147 12.3867 16.4403 12.6801 16.8003 12.6801Z" fill="#ED8B00"/>
<path d="M19.1069 9.5934C19.4669 9.5934 19.7603 9.30007 19.7603 8.94007V7.06007C19.7603 6.70007 19.4669 6.40674 19.1069 6.40674C18.7469 6.40674 18.4536 6.70007 18.4536 7.06007V8.94007C18.4536 9.30007 18.7469 9.5934 19.1069 9.5934Z" fill="#ED8B00"/>
<path d="M21.4136 13.6467C21.7736 13.6467 22.0669 13.3534 22.0669 12.9934V3.00672C22.0669 2.64672 21.7736 2.35339 21.4136 2.35339C21.0536 2.35339 20.7603 2.64672 20.7603 3.00672V12.9934C20.7603 13.3534 21.0536 13.6467 21.4136 13.6467Z" fill="#ED8B00"/>
<path d="M23.7202 15.0134C24.0802 15.0134 24.3736 14.72 24.3736 14.36V1.64002C24.3736 1.28002 24.0802 0.986694 23.7202 0.986694C23.3602 0.986694 23.0669 1.28002 23.0669 1.64002V14.36C23.0669 14.72 23.3602 15.0134 23.7202 15.0134Z" fill="#ED8B00"/>
<path d="M26.0273 12.6801C26.3873 12.6801 26.6806 12.3867 26.6806 12.0267V3.9734C26.6806 3.6134 26.3873 3.32007 26.0273 3.32007C25.6673 3.32007 25.374 3.6134 25.374 3.9734V12.0267C25.3606 12.3867 25.654 12.6801 26.0273 12.6801Z" fill="#ED8B00"/>
<path d="M28.334 14.3934C28.694 14.3934 28.9873 14.1 28.9873 13.74V2.26003C28.9873 1.90003 28.694 1.60669 28.334 1.60669C27.974 1.60669 27.6807 1.90003 27.6807 2.26003V13.74C27.6807 14.1 27.974 14.3934 28.334 14.3934Z" fill="#ED8B00"/>
<path d="M30.6406 11.5733C31.0006 11.5733 31.294 11.28 31.294 10.92V5.07997C31.294 4.71997 31.0006 4.42664 30.6406 4.42664C30.2806 4.42664 29.9873 4.71997 29.9873 5.07997V10.92C29.9873 11.28 30.2806 11.5733 30.6406 11.5733Z" fill="#ED8B00"/>
<path d="M32.9478 13.6467C33.3078 13.6467 33.6011 13.3534 33.6011 12.9934V3.00672C33.6011 2.64672 33.3078 2.35339 32.9478 2.35339C32.5878 2.35339 32.2944 2.64672 32.2944 3.00672V12.9934C32.2944 13.3534 32.5878 13.6467 32.9478 13.6467Z" fill="#ED8B00"/>
<path d="M35.2544 9.5934C35.6144 9.5934 35.9077 9.30007 35.9077 8.94007V7.06007C35.9077 6.70007 35.6144 6.40674 35.2544 6.40674C34.8944 6.40674 34.6011 6.70007 34.6011 7.06007V8.94007C34.6011 9.30007 34.8944 9.5934 35.2544 9.5934Z" fill="#ED8B00"/>
<path d="M37.5611 12.4133C37.9211 12.4133 38.2144 12.12 38.2144 11.76V4.24001C38.2144 3.88001 37.9211 3.58667 37.5611 3.58667C37.2011 3.58667 36.9077 3.88001 36.9077 4.24001V11.76C36.9077 12.12 37.2011 12.4133 37.5611 12.4133Z" fill="#ED8B00"/>
<path d="M39.8677 14.0867C40.2277 14.0867 40.521 13.7933 40.521 13.4333V2.56667C40.521 2.20667 40.2277 1.91333 39.8677 1.91333C39.5077 1.91333 39.2144 2.20667 39.2144 2.56667V13.4333C39.2144 13.7933 39.5077 14.0867 39.8677 14.0867Z" fill="#ED8B00"/>
<path d="M42.1743 11.1801C42.5343 11.1801 42.8277 10.8867 42.8277 10.5267V5.4734C42.8277 5.1134 42.5343 4.82007 42.1743 4.82007C41.8143 4.82007 41.521 5.1134 41.521 5.4734V10.5267C41.521 10.8867 41.8143 11.1801 42.1743 11.1801Z" fill="#ED8B00"/>
<path d="M44.481 9.5934C44.841 9.5934 45.1343 9.30007 45.1343 8.94007V7.06007C45.1343 6.70007 44.841 6.40674 44.481 6.40674C44.121 6.40674 43.8276 6.70007 43.8276 7.06007V8.94007C43.8276 9.30007 44.121 9.5934 44.481 9.5934Z" fill="#ED8B00"/>
<path d="M46.7876 12.1066C47.1476 12.1066 47.4409 11.8133 47.4409 11.4533V4.54665C47.4409 4.18665 47.1476 3.89331 46.7876 3.89331C46.4276 3.89331 46.1343 4.18665 46.1343 4.54665V11.4533C46.1343 11.8133 46.4276 12.1066 46.7876 12.1066Z" fill="#ED8B00"/>
<path d="M49.0943 15.2733C49.4543 15.2733 49.7476 14.98 49.7476 14.62V1.38002C49.7476 1.02002 49.4543 0.726685 49.0943 0.726685C48.7343 0.726685 48.4409 1.02002 48.4409 1.38002V14.62C48.4409 14.98 48.7343 15.2733 49.0943 15.2733Z" fill="#ED8B00"/>
<path d="M51.4013 9.5934C51.7613 9.5934 52.0547 9.30007 52.0547 8.94007V7.06007C52.0547 6.70007 51.7613 6.40674 51.4013 6.40674C51.0413 6.40674 50.748 6.70007 50.748 7.06007V8.94007C50.7347 9.30007 51.028 9.5934 51.4013 9.5934Z" fill="#ED8B00"/>
<path d="M53.708 12.6933C54.068 12.6933 54.3614 12.4 54.3614 12.04V3.95998C54.3614 3.59998 54.068 3.30664 53.708 3.30664C53.348 3.30664 53.0547 3.59998 53.0547 3.95998V12.04C53.0547 12.4 53.348 12.6933 53.708 12.6933Z" fill="#ED8B00"/>
<path d="M56.0147 15.2733C56.3747 15.2733 56.668 14.98 56.668 14.62V1.38002C56.668 1.02002 56.3747 0.726685 56.0147 0.726685C55.6547 0.726685 55.3613 1.02002 55.3613 1.38002V14.62C55.3613 14.98 55.6547 15.2733 56.0147 15.2733Z" fill="#ED8B00"/>
<path d="M58.3213 12.6933C58.6813 12.6933 58.9746 12.4 58.9746 12.04V3.95998C58.9746 3.59998 58.6813 3.30664 58.3213 3.30664C57.9613 3.30664 57.668 3.59998 57.668 3.95998V12.04C57.668 12.4 57.9613 12.6933 58.3213 12.6933Z" fill="#ED8B00"/>
<path d="M60.6279 10.2534C60.9879 10.2534 61.2813 9.96004 61.2813 9.60004V6.40003C61.2813 6.04003 60.9879 5.7467 60.6279 5.7467C60.2679 5.7467 59.9746 6.04003 59.9746 6.40003V9.60004C59.9746 9.96004 60.2679 10.2534 60.6279 10.2534Z" fill="#ED8B00"/>
<path d="M62.9346 14.9201C63.2946 14.9201 63.5879 14.6267 63.5879 14.2667V1.73341C63.5879 1.37341 63.2946 1.08008 62.9346 1.08008C62.5746 1.08008 62.2812 1.37341 62.2812 1.73341V14.2801C62.2812 14.6267 62.5746 14.9201 62.9346 14.9201Z" fill="#ED8B00"/>
<path d="M65.2417 12.9C65.6017 12.9 65.895 12.6066 65.895 12.2466V3.75331C65.895 3.39331 65.6017 3.09998 65.2417 3.09998C64.8817 3.09998 64.5883 3.39331 64.5883 3.75331V12.2466C64.575 12.6066 64.8683 12.9 65.2417 12.9Z" fill="#ED8B00"/>
<path d="M67.5484 14.9201C67.9084 14.9201 68.2017 14.6267 68.2017 14.2667V1.73341C68.2017 1.37341 67.9084 1.08008 67.5484 1.08008C67.1884 1.08008 66.895 1.37341 66.895 1.73341V14.2801C66.895 14.6267 67.1884 14.9201 67.5484 14.9201Z" fill="#ED8B00"/>
<path d="M69.855 11.1801C70.215 11.1801 70.5083 10.8867 70.5083 10.5267V5.4734C70.5083 5.1134 70.215 4.82007 69.855 4.82007C69.495 4.82007 69.2017 5.1134 69.2017 5.4734V10.5267C69.2017 10.8867 69.495 11.1801 69.855 11.1801Z" fill="#ED8B00"/>
<path d="M72.1616 11.8867C72.5216 11.8867 72.815 11.5934 72.815 11.2334V4.76673C72.815 4.40673 72.5216 4.1134 72.1616 4.1134C71.8016 4.1134 71.5083 4.40673 71.5083 4.76673V11.2334C71.5083 11.5934 71.8016 11.8867 72.1616 11.8867Z" fill="#ED8B00"/>
<path d="M74.4683 10.96C74.8283 10.96 75.1216 10.6667 75.1216 10.3067V5.69337C75.1216 5.33337 74.8283 5.04004 74.4683 5.04004C74.1083 5.04004 73.8149 5.33337 73.8149 5.69337V10.3067C73.8149 10.6667 74.1083 10.96 74.4683 10.96Z" fill="#ED8B00"/>
<path d="M76.7753 9.5934C77.1353 9.5934 77.4287 9.30007 77.4287 8.94007V7.06007C77.4287 6.70007 77.1353 6.40674 76.7753 6.40674C76.4153 6.40674 76.122 6.70007 76.122 7.06007V8.94007C76.1087 9.30007 76.402 9.5934 76.7753 9.5934Z" fill="#ED8B00"/>
<path d="M79.082 9.5934C79.442 9.5934 79.7354 9.30007 79.7354 8.94007V7.06007C79.7354 6.70007 79.442 6.40674 79.082 6.40674C78.722 6.40674 78.4287 6.70007 78.4287 7.06007V8.94007C78.4287 9.30007 78.722 9.5934 79.082 9.5934Z" fill="#ED8B00"/>
<path d="M81.3887 6.40674C81.0287 6.40674 80.7354 6.70007 80.7354 7.06007V8.94007C80.7354 9.30007 81.0287 9.5934 81.3887 9.5934C81.7487 9.5934 82.042 9.30007 82.042 8.94007V7.0734C82.042 6.70007 81.7487 6.40674 81.3887 6.40674Z" fill="#ED8B00"/>
</svg>
