<svg width="25" height="24" viewBox="0 0 25 24" fill="none" xmlns="http://www.w3.org/2000/svg">
<rect x="0.0419922" width="24" height="24" rx="12" fill="#D5DADE"/>
<path fill-rule="evenodd" clip-rule="evenodd" d="M12.0456 5.5C10.2609 5.5 8.81076 6.94334 8.81076 8.71975V11.9646C8.81076 13.741 10.2609 15.1843 12.0456 15.1843C13.8303 15.1843 15.2804 13.741 15.2804 11.9646V8.71975C15.2804 6.94692 13.8303 5.5 12.0456 5.5ZM12.884 18.6655V17.6269C15.6618 17.2222 17.7992 14.8369 17.792 11.9646C17.792 11.5026 17.4178 11.1301 16.9536 11.1301C16.4894 11.1301 16.1152 11.5026 16.1152 11.9646C16.1152 14.1994 14.2873 16.0188 12.042 16.0188C9.79668 16.0188 7.96877 14.1994 7.96877 11.9646C7.96877 11.5026 7.59456 11.1301 7.13038 11.1301C6.66621 11.1301 6.29199 11.5026 6.29199 11.9646C6.29199 14.8369 8.43295 17.2222 11.2072 17.6269V18.6655C11.2072 19.1275 11.5814 19.5 12.0456 19.5C12.5098 19.5 12.884 19.1275 12.884 18.6655ZM13.6036 11.9645C13.6036 12.8205 12.9055 13.5153 12.0455 13.5153C11.1856 13.5153 10.4875 12.8169 10.4875 11.9645V8.71973C10.4875 7.86375 11.1856 7.16895 12.0455 7.16895C12.9055 7.16895 13.6036 7.86375 13.6036 8.71973V11.9645Z" fill="white"/>
</svg>
