<svg width="24" height="24" viewBox="0 0 24 24" fill="none" xmlns="http://www.w3.org/2000/svg">
<path d="M8.62947 8.67195C8.62936 8.67216 8.62925 8.67237 8.62914 8.67258L8.62947 8.67195L8.62947 8.67195ZM7.74448 8.20635L2.4408 18.287C1.31108 20.4342 3.59459 22.7701 5.76687 21.6893L16.2236 16.4868C16.5445 16.3271 16.6115 15.8983 16.3545 15.6484L8.5672 8.07566L8.21862 8.43412L8.5672 8.07566C8.31816 7.83349 7.90624 7.8989 7.74448 8.20634C7.74448 8.20634 7.74448 8.20634 7.74448 8.20635Z" fill="#E66000" stroke="#193D5F" stroke-linecap="round" stroke-linejoin="round"/>
<mask id="mask0_8354_9514" style="mask-type:alpha" maskUnits="userSpaceOnUse" x="2" y="8" width="15" height="14">
<path d="M2.88329 18.5198L8.18698 8.43915C8.1932 8.42732 8.20904 8.42481 8.21862 8.43412L16.0059 16.0069C16.0158 16.0165 16.0132 16.033 16.0009 16.0391L5.54415 21.2416C3.80632 22.1063 1.97952 20.2376 2.88329 18.5198Z" fill="#DAADFF"/>
</mask>
<g mask="url(#mask0_8354_9514)">
<path d="M9.65018 9.05151V19.9537" stroke="#FFD546" stroke-width="2" stroke-linecap="round" stroke-linejoin="round"/>
<path d="M13.1362 12.5297V17.6961" stroke="#FFD546" stroke-width="2" stroke-linecap="round" stroke-linejoin="round"/>
<path d="M6.34869 10.4037V21.7381" stroke="#FFD546" stroke-width="2" stroke-linecap="round" stroke-linejoin="round"/>
<path d="M2.83105 16.3266V22.679" stroke="#FFD546" stroke-width="2" stroke-linecap="round" stroke-linejoin="round"/>
</g>
<path d="M10.5929 9.32852L10.5428 5.10748L12.1525 5.26084L10.5929 9.32852Z" fill="#1D1D1D"/>
<path d="M12.5396 11.3636L16.9324 5.57721L18.6011 7.1305L12.5396 11.3636Z" fill="#1D1D1D"/>
<path d="M18.7278 11.4564L14.7637 13.3088H18.7278V11.4564Z" fill="#1D1D1D"/>
<path d="M21.6517 3.28197C21.9621 2.69573 21.3386 2.05598 20.727 2.33319L20.4421 2.46231C20.3637 2.49783 20.2709 2.48054 20.2112 2.41928L20.019 2.22203C19.5398 1.73035 18.7006 2.1378 18.8099 2.80907L18.8454 3.02714C18.8596 3.11464 18.8129 3.20072 18.7308 3.23789L18.5066 3.33953C17.888 3.61989 17.9934 4.51182 18.6612 4.6472L18.9877 4.7134C19.07 4.73008 19.1332 4.79493 19.1464 4.87626L19.199 5.19901C19.3064 5.85904 20.2106 6.00305 20.5246 5.41016L20.6384 5.19521C20.68 5.1166 20.7699 5.07472 20.8584 5.09267L21.079 5.1374C21.7582 5.27509 22.2118 4.47201 21.7326 3.98034L21.5404 3.78308C21.4806 3.72182 21.4673 3.63016 21.5071 3.55503L21.6517 3.28197Z" fill="#FDF724" stroke="#193D5F" stroke-width="0.5"/>
<path d="M11.9561 1.93925C11.8174 1.53326 11.2432 1.53326 11.1044 1.93925L10.9823 2.29668H10.6077C10.1663 2.29668 9.98875 2.86604 10.3519 3.11692L10.6352 3.3126L10.5233 3.64002C10.383 4.05065 10.8478 4.40242 11.2049 4.15577L11.5303 3.93097L11.8557 4.15577C12.2127 4.40242 12.6776 4.05065 12.5373 3.64002L12.4254 3.3126L12.7086 3.11692C13.0718 2.86604 12.8943 2.29668 12.4529 2.29668H12.0782L11.9561 1.93925ZM10.6663 3.3341C10.6663 3.33409 10.6662 3.33407 10.6662 3.33405L10.6663 3.3341Z" fill="#FDF724" stroke="#193D5F" stroke-width="0.5"/>
<path d="M8.86392 5.22803C8.71102 4.90529 8.24088 4.90529 8.08797 5.22803C7.72164 5.25642 7.57131 5.71597 7.83973 5.95658C7.76819 6.30629 8.15541 6.5997 8.47595 6.39984C8.79649 6.5997 9.18371 6.30629 9.11217 5.95658C9.38058 5.71597 9.23026 5.25642 8.86392 5.22803Z" fill="#FDF724" stroke="#193D5F" stroke-width="0.5"/>
<path d="M21.4161 11.2538C21.2774 10.8478 20.7032 10.8478 20.5645 11.2538L20.5255 11.3681H20.4198C19.9784 11.3681 19.8008 11.9374 20.164 12.1883L20.2297 12.2337L20.2009 12.3179C20.0606 12.7285 20.5255 13.0803 20.8825 12.8336L20.9903 12.7591L21.0981 12.8336C21.4552 13.0803 21.9201 12.7285 21.7797 12.3179L21.751 12.2337L21.8166 12.1883C22.1798 11.9374 22.0022 11.3681 21.5608 11.3681H21.4552L21.4161 11.2538ZM21.7387 12.1979C21.7387 12.1979 21.7387 12.1979 21.7388 12.1979L21.7387 12.1979Z" fill="#FDF724" stroke="#193D5F" stroke-width="0.5"/>
<path d="M18.582 14.8623C18.819 14.624 19.224 14.8155 19.1813 15.1456L19.1661 15.2633L19.2735 15.314C19.5833 15.4605 19.5136 15.9158 19.1729 15.9713L19.0724 15.9877L19.0595 16.0877C19.0164 16.421 18.5681 16.5108 18.4026 16.2192M18.582 14.8623L18.4026 16.2192M18.582 14.8623L18.4975 14.9473L18.3902 14.8965C18.0804 14.7501 17.7602 15.0871 17.9281 15.3829M18.582 14.8623L17.9281 15.3829M18.4026 16.2192L18.339 16.1071L18.2099 16.1281C17.8741 16.1828 17.6666 15.7831 17.9058 15.5424L17.9776 15.4702L17.9281 15.3829M18.4026 16.2192L17.9281 15.3829" fill="#FDF724" stroke="#193D5F" stroke-width="0.5"/>
<path d="M14.735 4.1639C14.972 3.92556 15.3771 4.11703 15.3344 4.44718L15.3191 4.56487L15.4265 4.61561C15.7363 4.76205 15.6667 5.2174 15.326 5.27287L15.2254 5.28924L15.2125 5.38927C15.1694 5.72262 14.7211 5.81239 14.5556 5.52081M14.735 4.1639L14.5556 5.52081M14.735 4.1639L14.6505 4.24886L14.5432 4.19812C14.2334 4.05169 13.9133 4.38864 14.0811 4.68449M14.735 4.1639L14.0811 4.68449M14.5556 5.52081L14.492 5.40867L14.3629 5.4297C14.0271 5.48438 13.8196 5.08463 14.0588 4.84399L14.1306 4.77178L14.0811 4.68449M14.5556 5.52081L14.0811 4.68449" fill="#FDF724" stroke="#193D5F" stroke-width="0.5"/>
<path d="M19.0365 8.85948C18.8978 8.45349 18.3236 8.45349 18.1848 8.85948L18.1492 8.96375H18.0545C17.6131 8.96375 17.4356 9.53311 17.7988 9.78399L17.8555 9.8232L17.8301 9.89747C17.6898 10.3081 18.1547 10.6599 18.5117 10.4132L18.6107 10.3449L18.7096 10.4132C19.0666 10.6599 19.5315 10.3081 19.3912 9.89747L19.3658 9.8232L19.4226 9.78399C19.7857 9.53311 19.6082 8.96375 19.1668 8.96375H19.0721L19.0365 8.85948Z" fill="#FDF724" stroke="#193D5F" stroke-width="0.5"/>
</svg>
