<svg width="24" height="24" viewBox="0 0 24 24" fill="none" xmlns="http://www.w3.org/2000/svg">
<path d="M15.75 18.7499V17.2499C15.75 15.5931 14.4068 14.2499 12.75 14.2499H6.74996C5.0931 14.2499 3.74996 15.5931 3.74996 17.2499V18.7499" stroke="#3B3C3D" stroke-width="1.3" stroke-linecap="round" stroke-linejoin="round"/>
<path fill-rule="evenodd" clip-rule="evenodd" d="M9.74996 11.2499C11.4068 11.2499 12.75 9.90676 12.75 8.24991C12.75 6.59305 11.4068 5.24991 9.74996 5.24991C8.0931 5.24991 6.74996 6.59305 6.74996 8.24991C6.74996 9.90676 8.0931 11.2499 9.74996 11.2499Z" stroke="#3B3C3D" stroke-width="1.3" stroke-linecap="round" stroke-linejoin="round"/>
<path d="M20.25 18.7499V17.2499C20.2489 15.8828 19.3237 14.6892 18 14.3474" stroke="#3B3C3D" stroke-width="1.3" stroke-linecap="round" stroke-linejoin="round"/>
<path d="M15 5.34741C16.3274 5.68729 17.2558 6.88341 17.2558 8.25366C17.2558 9.62392 16.3274 10.82 15 11.1599" stroke="#3B3C3D" stroke-width="1.3" stroke-linecap="round" stroke-linejoin="round"/>
</svg>
