<svg width="60" height="60" viewBox="0 0 60 60" fill="none" xmlns="http://www.w3.org/2000/svg">
<g clip-path="url(#clip0_8354_9416)">
<rect width="60" height="60" rx="30" fill="#E5F2FE"/>
<mask id="mask0_8354_9416" style="mask-type:alpha" maskUnits="userSpaceOnUse" x="0" y="-14" width="70" height="85">
<path d="M0 -13.6111H70V70.0002H0V-13.6111Z" fill="#D9D9D9"/>
</mask>
<g mask="url(#mask0_8354_9416)">
<path d="M3.98516 33.6824C4.08877 33.4172 4.1976 33.152 4.31007 32.892C5.00567 31.2802 5.87568 29.7515 6.8285 28.28C7.75684 26.8502 8.84243 25.3008 8.89346 23.5277C9.00696 19.5605 10.1692 15.3323 12.6668 11.9942C14.7442 9.21766 18.1248 6.66036 21.6159 6.70195C22.1891 6.71235 22.7072 6.57718 23.2768 6.47839C27.8482 5.71925 32.6612 5.61525 36.6308 8.05384C41.0637 10.7732 45.3629 17.3786 46.6733 20.2936C48.2858 23.8805 48.2858 34.446 48.2858 34.446C48.2858 34.446 50.9134 46.0803 49.9049 49.0752C49.9049 49.0752 51.298 52.7345 51.5953 54.1124C51.7978 55.0535 52.0826 56.2546 51.7312 57.1905C51.1923 58.6152 49.1935 58.0849 48.1271 57.6949C46.9989 57.2841 46.4902 57.5233 45.2968 57.3517C43.8744 57.1489 42.428 57.2477 40.9977 57.2321C38.8104 57.2061 37.1115 56.5458 35.0934 55.8022C33.4491 55.1939 31.8528 54.9443 30.17 55.5267C30.0221 55.5735 29.97 55.7087 29.9815 55.8386C29.6415 56.317 29.3484 56.8161 29.1052 57.3413C28.2956 57.3881 27.4844 57.3881 26.6701 57.2841C24.4786 57.0189 22.3053 57.3829 20.1165 56.9825C16.8087 56.3846 13.9435 55.2771 10.5748 56.3898C8.34637 57.1281 6.40117 57.5597 4.91364 54.6999C3.411 51.809 2.8548 36.6149 3.98516 33.6824Z" fill="#8C5441"/>
<path d="M13.0513 51.553C14.4066 50.6743 16.7391 50.2219 18.1715 49.4784C21.511 47.7365 20.592 34.5817 20.5092 30.9784C20.4926 30.2609 21.6058 30.2609 21.6224 30.9784C21.6224 30.9888 21.6224 30.9992 21.623 31.0148C24.0378 31.7791 26.4526 32.5434 28.8675 33.313C30.1717 33.7237 32.0222 33.9265 33.05 34.9196C33.2608 34.9664 33.4337 35.1276 33.4358 35.4032C33.5441 35.5956 33.5175 35.7776 33.4207 35.9231C33.2983 39.1105 33.1145 42.6045 33.0619 45.7919C33.0396 47.1489 33.2108 48.1993 34.1741 49.234C35.8392 51.0278 38.3899 51.2566 40.3497 52.6657C41.5238 53.508 40.5886 56.8877 40.5782 56.8981C39.9951 62.8724 34.7296 69.5746 28.0594 68.3683C24.8433 67.7859 21.9807 63.6367 19.9964 61.3749C17.4004 58.4164 14.4581 56.0454 12.9211 52.3953C12.9175 52.3849 12.9169 52.3797 12.9133 52.3693C12.743 52.1301 12.7316 51.761 13.0513 51.553Z" fill="#F7B38B"/>
<path d="M36.3254 28.2231C36.3222 28.2023 36.3186 28.1763 36.316 28.1555C36.0598 26.2525 36.4024 24.2662 37.6588 22.9508C38.37 22.2072 39.1474 22.6128 39.5795 23.4031C40.0705 24.2974 39.9856 25.4882 39.8102 26.4657C39.6191 27.5316 39.3483 29.0394 38.5481 29.8297C37.2506 31.1036 36.5362 29.6738 36.3254 28.2231Z" fill="#F7B38B"/>
<path d="M33.0475 45.2515C29.7262 45.2047 27.4702 42.6829 24.984 40.0623C22.8326 37.7953 21.2576 33.5005 20.9941 30.4484C21.2904 30.4224 21.6132 30.594 21.6221 30.9787C21.6221 30.9891 21.6221 30.9995 21.6226 31.0151C24.0374 31.7795 26.4523 32.5438 28.8671 33.3133C30.1714 33.724 32.0218 33.9269 33.0496 34.92C33.2605 34.9668 33.4333 35.1279 33.4354 35.4035C33.5437 35.5959 33.5171 35.7779 33.4203 35.9235C33.3453 37.8733 33.1246 43.2132 33.0475 45.2515Z" fill="#DE9E78"/>
<path d="M16.9131 14.3143C17.6285 12.8064 18.9515 11.6729 20.4239 10.9293C23.1256 9.56704 27.1316 9.22388 29.9427 10.3418C33.6258 11.8133 37.2627 14.647 38.3009 18.6246C39.5948 23.585 39.0954 28.1398 37.988 33.8385C37.5871 35.8976 35.9324 37.6706 33.958 38.6533C31.8139 39.7192 29.3647 39.5216 27.1384 38.8145C24.8693 38.0918 21.8047 36.7659 20.3922 34.7432C18.8609 32.5542 16.9667 26.3408 17.0849 26.0704C16.0253 22.2019 15.2277 17.8707 16.9131 14.3143Z" fill="#F7B38B"/>
<path d="M32.4958 17.6096C33.2497 16.6373 34.6341 16.6685 35.6984 16.9233C36.9568 17.2249 38.7271 18.6495 38.1346 20.1106C38.0487 20.3238 37.882 20.5161 37.6602 20.5733C37.5301 20.6097 37.3926 20.5993 37.2588 20.5837C36.484 20.5109 35.7062 20.407 34.9267 20.407C34.3222 20.3602 33.6287 20.3809 33.0659 20.1158C32.1048 19.6686 31.8793 18.4311 32.4958 17.6096Z" fill="#8C5441"/>
<path d="M25.9588 16.7779C26.6373 16.965 27.2204 17.3186 27.4245 17.9634C27.7458 18.9773 27.0507 19.882 26.2239 20.1368C25.3606 20.402 24.4843 20.1056 23.6195 20.0224C22.6438 19.9236 21.6675 20.194 20.6934 20.09C19.8619 19.9964 19.7505 19.0345 20.1196 18.3377C20.7694 17.1106 22.3782 16.6375 23.581 16.5855C24.1797 16.5647 25.1393 16.5491 25.9588 16.7779Z" fill="#8C5441"/>
<path d="M23.23 22.9403C23.3425 22.4515 23.6304 22.046 24.1339 21.8796C25.1237 21.5624 25.7302 22.2592 25.9255 22.9975C26.0598 23.5019 26.0806 24.027 25.9859 24.5366C25.8677 25.1761 25.3361 25.9249 24.4333 25.6233C23.5179 25.3217 22.9968 23.9542 23.23 22.9403Z" fill="#261414"/>
<path d="M33.7469 22.7158C33.8463 22.2322 34.1009 21.8267 34.5461 21.6603C35.4213 21.3379 35.9581 22.0399 36.131 22.773C36.2497 23.2774 36.2679 23.8025 36.1841 24.3121C36.0795 24.9516 35.6093 25.7055 34.8106 25.404C34.0015 25.1024 33.5402 23.7297 33.7469 22.7158Z" fill="#261414"/>
<path d="M31.9011 23.7145C32.225 24.5309 32.7706 25.472 32.6082 26.3871C32.4509 27.271 31.6621 27.9106 30.8369 28.1497C30.5141 28.2433 30.3766 27.739 30.6984 27.6454C31.6741 27.3646 32.2697 26.5483 32.0318 25.5395C31.8928 24.9572 31.6194 24.406 31.3992 23.8497C31.2763 23.5377 31.7793 23.4026 31.9011 23.7145Z" fill="#75311E"/>
<path d="M29.8779 27.1407C29.415 27.1407 29.012 27.1407 28.6044 27.3799C28.3149 27.5515 28.0525 27.1043 28.3414 26.9327C28.8303 26.6416 29.3218 26.6208 29.8779 26.6208C30.2127 26.6208 30.2132 27.1407 29.8779 27.1407Z" fill="#75311E"/>
<path d="M27.7197 30.0737C28.1925 29.767 29.3083 29.9958 29.6655 30.0062C30.4761 30.0218 31.2878 30.0114 32.0975 29.9646C32.2167 29.9594 32.3427 29.9542 32.4489 30.0062C32.5999 30.0841 32.6478 30.3597 32.5999 30.5105C32.262 31.5816 30.8239 32.008 29.8091 31.9144C29.1776 31.852 28.4538 31.5868 27.9644 31.1812C27.7582 31.0096 27.4896 30.7393 27.5052 30.4429C27.5146 30.2714 27.5948 30.1517 27.7197 30.0737Z" fill="white"/>
<path d="M8.18033 107.776C7.95124 108.078 7.139 107.579 7.12858 107.563C3.04137 90.046 3.35898 84.3733 3.3798 84.1601C3.40584 83.9574 3.4579 83.7494 3.5308 83.5362C3.80154 82.7563 4.35345 81.9243 4.65543 81.2484C5.17609 80.0681 5.60826 78.8514 5.99355 77.6191C6.72768 75.2325 7.25355 72.7835 7.71174 70.3294C8.79992 64.4747 9.05504 58.5056 8.48231 52.5885C8.44586 52.2245 8.63851 51.8762 8.97694 51.7306C12.0853 50.3735 15.9434 49.76 16.9067 49.7652C17.0212 49.7652 17.1201 49.838 17.1566 49.9471C27.105 53.9845 33.9157 52.087 36.0775 50.6335C36.0619 50.3111 36.2858 50.1395 36.5305 50.1083C36.6242 50.0823 36.7231 50.0771 36.8429 50.1187C39.2587 50.987 41.9818 51.5694 44.481 53.15C44.9131 53.4256 50.2552 68.5511 51.6818 77.8375C52.2285 81.3992 52.8689 85.0753 52.8585 88.7046C52.8585 95.3236 49.9844 98.8645 50.2656 99.1192C50 101.111 49.7137 103.097 49.4169 105.083C49.1513 106.846 48.5005 107.199 46.8292 107.127L45.8191 107.08L44.783 107.033L44.765 107.032C43.7401 106.986 42.7152 106.939 41.6902 106.898C40.6541 106.851 39.618 106.809 38.5819 106.773L37.5405 106.737C35.385 106.653 33.2294 106.591 31.0791 106.555C30.2252 106.539 29.3661 106.529 28.5122 106.529C28.3613 106.523 28.2155 106.523 28.0645 106.523C27.8674 106.518 27.6703 106.518 27.4732 106.518H27.4709H27.372C25.0498 106.513 22.7277 106.544 20.4055 106.638C20.0704 106.648 19.7401 106.663 19.4054 106.677L19.3642 106.679C17.6512 106.763 15.9434 106.872 14.2356 107.028C13.8868 107.064 13.5379 107.095 13.1891 107.132C12.1217 107.241 11.0492 107.366 9.98183 107.511C9.38307 107.589 8.7791 107.678 8.18033 107.776Z" fill="white"/>
<path d="M37.5407 106.735L38.582 106.772C38.5612 98.2237 40.7063 89.9408 39.9306 81.3408C39.2641 73.9418 37.3741 66.7301 35.2185 59.6327C34.9947 59.9655 34.7291 60.2878 34.4167 60.5842C36.5567 67.6816 38.3998 74.9038 38.9673 82.3131C39.6025 90.5544 37.5303 98.5409 37.5407 106.735Z" fill="#F9FCFF"/>
<path d="M19.3647 106.678C19.7135 106.663 20.0572 106.647 20.406 106.637C20.8381 98.8738 21.1297 91.0901 20.5414 83.3323C20.2081 78.9595 19.8593 74.6647 20.0155 70.2659C20.1665 65.8619 20.5414 61.4631 20.6351 57.0486C20.5153 56.8823 20.4008 56.7107 20.2863 56.5391C20.0884 56.2479 19.901 55.9464 19.7187 55.6396C19.6042 60.2048 19.0939 66.2882 18.9586 70.7754C18.8284 75.0027 19.1824 79.1311 19.5 83.3323C20.0936 91.1057 19.7916 98.905 19.3647 106.678Z" fill="#F9FCFF"/>
<path d="M-7.34909 58.5462C-6.86592 55.2185 -2.77558 53.2062 -0.110825 52.4003C2.4524 51.6255 12.7902 48.1315 15.7996 48.5422C16.3432 48.615 16.5843 49.5977 16.6613 50.1385C16.9586 52.2235 17.9739 60.2048 17.7287 70.6039C17.5876 76.5677 17.1341 81.7569 15.7996 87.6012C14.4105 93.6899 12.5632 100.335 10.3425 106.153C7.92249 112.491 0.193768 133.123 -2.33145 139.425C-2.56887 140.018 -6.56236 135.603 -6.64566 135.255C-8.61221 127.05 -8.2967 65.0716 -7.34909 58.5462Z" fill="#ADD8FF"/>
<path d="M34.846 49.6815C35.1089 49.4839 55.2096 53.7365 61.3306 60.1423C66.4154 65.4614 70.9868 74.6075 73.4584 81.2577C73.549 81.5021 69.3701 80.5765 69.2733 80.7429C69.2884 80.8469 69.2853 80.9561 69.2545 81.0757C66.9631 90.1125 63.2539 99.7109 60.0685 108.467C59.5775 112.257 62.023 118.044 61.1707 121.778C60.8979 122.968 67.1641 163.79 58.985 144.287C56.944 139.42 49.26 113.958 48.7253 108.81C47.9979 101.811 47.4851 94.1526 46.3339 87.2112C45.2462 80.6493 43.9529 74.1239 42.4523 67.6401C41.0976 61.7906 40.2107 56.8121 35.9694 52.2625C35.3753 51.9401 34.3701 49.9831 34.846 49.6815Z" fill="#ADD8FF"/>
<path d="M-33.6531 109.882C-33.0419 107.558 -32.1177 105.265 -31.4112 103.044C-27.2453 89.9623 -23.3367 74.2545 -15.0556 63.0651C-11.2813 57.9643 -6.91602 54.2831 -0.644627 52.5308C0.123352 52.3125 -0.0838761 77.1923 -0.818012 88.4597C-1.12833 93.2173 -1.21841 93.0405 -2.60962 97.6733C-4.50119 103.97 -8.40407 109.351 -9.99938 111.379C-10.4232 111.915 -10.4992 112.648 -10.1915 113.256C-9.25119 115.133 -7.27736 119.033 -6.50626 120.265C-5.57115 120.588 -4.94426 121.472 -4.32102 122.184C-3.21045 123.458 0.266018 127.196 -3.8946 129.588C-6.34172 129.879 -12.1758 138.599 -13.8815 140.887C-15.1826 142.623 -15.9115 143.46 -17.9786 142.233C-19.5791 141.287 -21.757 138.911 -22.9264 137.481C-23.343 136.971 -23.3945 136.254 -23.0503 135.698C-22.9837 135.588 -22.9082 135.464 -22.8311 135.339C-27.6254 131.325 -30.8921 124.383 -32.2499 121.024C-33.2647 118.513 -34.4784 116.048 -34.2602 113.272C-34.1712 112.138 -33.9489 111.005 -33.6531 109.882Z" fill="#FFE9D1"/>
<path d="M11.5584 15.6243C12.7845 8.81292 21.0975 7.20622 26.7758 7.4194C26.7961 7.4194 26.8123 7.42461 26.8289 7.42981C26.9023 7.40382 26.9877 7.38301 27.0877 7.39341C33.2857 7.88216 41.8928 11.683 44.2941 18.4113C45.3979 21.4998 44.657 21.7338 43.3579 24.4895C41.9724 27.4273 42.5347 29.0599 44.6481 31.3737C45.552 32.3616 46.2403 33.2455 46.5725 34.5714C46.7568 35.3046 45.6212 35.6165 45.4369 34.8834C45.3729 34.6286 45.2833 34.3895 45.1802 34.1607C45.1438 34.1399 45.1052 34.1295 45.0704 34.0983C43.1434 32.4396 40.8946 31.0462 40.4557 28.3892C40.0095 25.6854 41.2929 22.9193 39.5024 20.5015C39.4337 20.4131 39.4024 20.3195 39.3946 20.2363C37.969 17.5845 34.6274 17.4181 32.2334 15.9415C31.3972 15.4267 30.6636 14.808 30.0195 14.1008C29.9024 13.976 29.6884 14.0281 29.6566 14.1944C29.4603 15.2396 28.936 16.2222 27.9588 17.049C26.1656 18.5724 23.5545 18.3645 21.6879 19.7111C19.7167 21.1358 19.6437 23.8604 17.394 25.0978C17.3299 25.1342 17.2674 25.1499 17.205 25.1603C15.7315 26.2314 14.3195 26.5901 13.0022 24.9679C11.0112 22.5137 10.9851 18.8064 11.5584 15.6243Z" fill="#8C5441"/>
<path d="M15.0072 23.8912C16.1704 22.6433 17.6381 23.7664 18.4519 24.7595C19.6812 26.2674 19.9567 27.5621 19.713 29.4287C19.6557 29.8655 19.5958 30.3074 19.3938 30.6974C18.9684 31.5189 17.8933 31.7633 17.244 31.0458C16.362 30.0734 15.67 29.0127 15.1853 27.7856C14.7719 26.7405 14.1231 24.8427 15.0072 23.8912Z" fill="#F7B38B"/>
<path d="M16.1557 24.8276C17.3361 25.7635 17.9026 27.4325 18.3457 28.8156C18.4482 29.1327 17.9458 29.2731 17.8437 28.956C17.4303 27.6613 16.8925 26.0702 15.7876 25.1967C15.5247 24.9887 15.8954 24.6248 16.1557 24.8276Z" fill="#75311E"/>
<path d="M16.5385 30.1159C16.7952 29.6012 17.6111 29.5856 18.0047 29.9444C18.3963 30.2979 18.6082 30.7867 18.4395 31.2963C18.0979 32.3154 16.5854 32.5182 16.3511 31.3431C16.2642 30.9011 16.3381 30.5163 16.5385 30.1159Z" fill="white"/>
</g>
</g>
<defs>
<clipPath id="clip0_8354_9416">
<rect width="60" height="60" rx="30" fill="white"/>
</clipPath>
</defs>
</svg>
