<svg xmlns="http://www.w3.org/2000/svg" xmlns:xlink="http://www.w3.org/1999/xlink" viewBox="0 0 530 114.86"><defs><style>.cls-1{fill:none;}.cls-2{clip-path:url(#clip-path);}.cls-3{clip-path:url(#clip-path-2);}.cls-4{fill:#737474;}.cls-5{fill:#f05226;}.cls-6{fill:#7fbb42;}.cls-7{fill:#33a0da;}.cls-8{fill:#fdb716;}</style><clipPath id="clip-path" transform="translate(0 -0.17)"><rect class="cls-1" width="530" height="115.04"/></clipPath><clipPath id="clip-path-2" transform="translate(0 -0.17)"><polyline class="cls-1" points="0 0.17 0 115.04 530 115.04 530 0.17"/></clipPath></defs><title>microsoft-solutions-partner</title><g id="Layer_2" data-name="Layer 2"><g id="Layer_1-2" data-name="Layer 1"><g class="cls-2"><g class="cls-3"><polyline class="cls-4" points="206.15 4.07 206.15 59.05 196.48 59.05 196.48 15.96 196.32 15.96 179.05 59.05 172.64 59.05 154.94 15.96 154.82 15.96 154.82 59.05 145.88 59.05 145.88 4.07 159.74 4.07 175.74 44.83 175.97 44.83 192.86 4.07 206.15 4.07"/><path class="cls-4" d="M214.22,8.43a5,5,0,0,1,1.69-3.85,5.74,5.74,0,0,1,4-1.55A5.65,5.65,0,0,1,224,4.61a5.14,5.14,0,0,1,1.63,3.81A5,5,0,0,1,224,12.22a5.81,5.81,0,0,1-4.08,1.53,5.7,5.7,0,0,1-4.06-1.55,5,5,0,0,1-1.64-3.78m10.37,50.8h-9.4V19.81h9.4V59.22" transform="translate(0 -0.17)"/><path class="cls-4" d="M252.93,52.47a13.12,13.12,0,0,0,4.62-1A19.51,19.51,0,0,0,262.21,49v8.63a19,19,0,0,1-5.11,1.92,28.1,28.1,0,0,1-6.27.65,19.4,19.4,0,0,1-14.32-5.5,19,19,0,0,1-5.51-14A22.3,22.3,0,0,1,236.62,25q5.63-6.16,16-6.16a22.1,22.1,0,0,1,5.34.67A18,18,0,0,1,262.21,21v8.89a19.32,19.32,0,0,0-4.45-2.43,13,13,0,0,0-4.64-.86,11.85,11.85,0,0,0-9,3.57,13.32,13.32,0,0,0-3.42,9.62A12.71,12.71,0,0,0,244,49.14a11.93,11.93,0,0,0,8.91,3.33" transform="translate(0 -0.17)"/><path class="cls-4" d="M289,19.16a12,12,0,0,1,2,.15,8.64,8.64,0,0,1,1.51.38v9.39a8.2,8.2,0,0,0-2.15-1,10.8,10.8,0,0,0-3.43-.48,7.32,7.32,0,0,0-5.84,2.88,13.67,13.67,0,0,0-2.39,8.85v19.9h-9.4V19.81h9.4V26h.15a10.9,10.9,0,0,1,3.88-5A10.62,10.62,0,0,1,289,19.15" transform="translate(0 -0.17)"/><path class="cls-4" d="M293,40.09a21.19,21.19,0,0,1,5.59-15.49,20.73,20.73,0,0,1,15.53-5.71,19.27,19.27,0,0,1,14.62,5.5A20.61,20.61,0,0,1,334,39.25a20.79,20.79,0,0,1-5.59,15.26,20.39,20.39,0,0,1-15.22,5.67,20,20,0,0,1-14.73-5.39A19.73,19.73,0,0,1,293,40.09m9.78-.31a14,14,0,0,0,2.83,9.43,10.17,10.17,0,0,0,8.11,3.26,9.52,9.52,0,0,0,7.81-3.26,14.92,14.92,0,0,0,2.67-9.66,14.41,14.41,0,0,0-2.78-9.6,9.7,9.7,0,0,0-7.78-3.24,9.91,9.91,0,0,0-8,3.39,14.64,14.64,0,0,0-2.85,9.68" transform="translate(0 -0.17)"/><path class="cls-4" d="M348,30.16a4,4,0,0,0,1.28,3.12A21.93,21.93,0,0,0,355,36.14a19.23,19.23,0,0,1,7.9,5,10.28,10.28,0,0,1,2.27,6.73,10.77,10.77,0,0,1-4.33,8.93,18.55,18.55,0,0,1-11.71,3.37,28.56,28.56,0,0,1-5.49-.59,24.7,24.7,0,0,1-5.1-1.51V48.95a23.29,23.29,0,0,0,5.51,2.8,16.36,16.36,0,0,0,5.36,1,9.64,9.64,0,0,0,4.7-.88,3.14,3.14,0,0,0,1.51-3A4.08,4.08,0,0,0,354,45.7a23.43,23.43,0,0,0-6-3,18.42,18.42,0,0,1-7.38-4.83A10.48,10.48,0,0,1,338.5,31a10.73,10.73,0,0,1,4.29-8.76,17.27,17.27,0,0,1,11.12-3.43,27.29,27.29,0,0,1,4.7.46A21,21,0,0,1,363,20.45v8.83a20.13,20.13,0,0,0-4.35-2.11,14.66,14.66,0,0,0-4.93-.88,7.25,7.25,0,0,0-4.17,1,3.27,3.27,0,0,0-1.5,2.84" transform="translate(0 -0.17)"/><path class="cls-4" d="M369.25,40.09a21.18,21.18,0,0,1,5.59-15.49,20.73,20.73,0,0,1,15.53-5.71A19.27,19.27,0,0,1,405,24.39a20.61,20.61,0,0,1,5.26,14.86,20.79,20.79,0,0,1-5.59,15.26,20.39,20.39,0,0,1-15.22,5.67,20,20,0,0,1-14.73-5.39,19.73,19.73,0,0,1-5.45-14.7m9.78-.31a14,14,0,0,0,2.83,9.43A10.17,10.17,0,0,0,390,52.48a9.52,9.52,0,0,0,7.81-3.26,14.92,14.92,0,0,0,2.67-9.66,14.41,14.41,0,0,0-2.78-9.6,9.7,9.7,0,0,0-7.78-3.24,9.9,9.9,0,0,0-8,3.39A14.64,14.64,0,0,0,379,39.79" transform="translate(0 -0.17)"/><path class="cls-4" d="M432.3.18a23.65,23.65,0,0,1,3,.17,12,12,0,0,1,2.33.52v8A9.8,9.8,0,0,0,436,8.23a8.62,8.62,0,0,0-2.67-.38,5.71,5.71,0,0,0-4.54,1.82,8,8,0,0,0-1.59,5.39v4.76h8.89V27.4h-8.89V59.22H417.7V27.4H411V19.81h6.68V14.33a13.56,13.56,0,0,1,4.1-10.18,14.47,14.47,0,0,1,10.5-4" transform="translate(0 -0.17)"/><path class="cls-4" d="M456.29,52.48a6.33,6.33,0,0,0,2-.38,9.22,9.22,0,0,0,2-.92v7.67a11.19,11.19,0,0,1-3,.92,20.52,20.52,0,0,1-4.1.42,11.74,11.74,0,0,1-8.91-3.12,13.2,13.2,0,0,1-3-9.41V27.4h-6.56V19.8h6.56V11l9.43-2.84V19.81h9.51v7.6h-9.51V45.85A7.72,7.72,0,0,0,452.08,51a5.39,5.39,0,0,0,4.21,1.5" transform="translate(0 -0.17)"/><path class="cls-4" d="M144.4,113.06v-5.9a9.27,9.27,0,0,0,1.91,1.3,14.94,14.94,0,0,0,2.35,1,19,19,0,0,0,2.49.62,13.43,13.43,0,0,0,2.29.22,9.89,9.89,0,0,0,5.45-1.2,4,4,0,0,0,1.79-3.49,3.78,3.78,0,0,0-.6-2.13,6.24,6.24,0,0,0-1.67-1.64,17.76,17.76,0,0,0-2.52-1.44l-3.11-1.44Q151,98,149.47,97a14.16,14.16,0,0,1-2.67-2.13A8.91,8.91,0,0,1,145,92.25a8.5,8.5,0,0,1-.65-3.45,7.87,7.87,0,0,1,1.11-4.23,9.33,9.33,0,0,1,2.93-3,13.52,13.52,0,0,1,4.14-1.73,19.89,19.89,0,0,1,4.72-.57,19.33,19.33,0,0,1,8,1.23V86.2a12.9,12.9,0,0,0-7.66-2.12,13.94,13.94,0,0,0-2.57.24,7.73,7.73,0,0,0-2.29.79,5,5,0,0,0-1.64,1.42,3.45,3.45,0,0,0-.63,2.1,3.91,3.91,0,0,0,.49,2,5.17,5.17,0,0,0,1.43,1.54,14.56,14.56,0,0,0,2.29,1.36q1.35.66,3.13,1.44,1.83.94,3.45,2a16.26,16.26,0,0,1,2.85,2.29,10.09,10.09,0,0,1,2,2.78,8.82,8.82,0,0,1-3.25,10.85,13,13,0,0,1-4.18,1.64,23.9,23.9,0,0,1-5,.51q-.88,0-2.16-.13t-2.62-.39a24.56,24.56,0,0,1-2.54-.62,8,8,0,0,1-1.93-.82" transform="translate(0 -0.17)"/><path class="cls-4" d="M182.66,115A11.89,11.89,0,0,1,170,102.39a12.9,12.9,0,0,1,3.6-9.71,13.33,13.33,0,0,1,9.7-3.49,12.07,12.07,0,0,1,9.13,3.4,13,13,0,0,1,3.27,9.42,12.18,12.18,0,0,1-13,13m.27-21.36a6.5,6.5,0,0,0-5.24,2.29,9.5,9.5,0,0,0-1.93,6.31,9,9,0,0,0,2,6.11,6.59,6.59,0,0,0,5.22,2.23,6.25,6.25,0,0,0,5.14-2.19,9.61,9.61,0,0,0,1.79-6.24,9.76,9.76,0,0,0-1.79-6.29,6.22,6.22,0,0,0-5.14-2.22" transform="translate(0 -0.17)"/><polyline class="cls-4" points="201.42 77.74 207.1 77.74 207.1 114.26 201.42 114.26 201.42 77.74"/><path class="cls-4" d="M236.25,114.43H230.6v-3.9h-.1a8.16,8.16,0,0,1-7.66,4.48Q214,115,214,104.5V89.76h5.66v14.16q0,6.65,5.2,6.65a5.28,5.28,0,0,0,4.14-1.83A7,7,0,0,0,230.6,104V89.76h5.66v24.67" transform="translate(0 -0.17)"/><path class="cls-4" d="M256.8,114.16a9.92,9.92,0,0,1-4.37.82q-7.27,0-7.27-6.89v-14H241V89.76h4.17V84.05l5.66-1.59v7.3h6v4.38h-6v12.33a4.82,4.82,0,0,0,.81,3.13,3.37,3.37,0,0,0,2.68.94,3.92,3.92,0,0,0,2.49-.82v4.45" transform="translate(0 -0.17)"/><path class="cls-4" d="M264.53,84.59a3.42,3.42,0,0,1-2.38-.89,2.91,2.91,0,0,1-1-2.26,3,3,0,0,1,1-2.29,3.37,3.37,0,0,1,2.38-.91,3.49,3.49,0,0,1,2.44.91,3,3,0,0,1,1,2.29,2.94,2.94,0,0,1-1,2.23,3.45,3.45,0,0,1-2.44.93m2.81,29.84h-5.66V89.76h5.66v24.67" transform="translate(0 -0.17)"/><path class="cls-4" d="M285.8,115a11.88,11.88,0,0,1-12.68-11,11.7,11.7,0,0,1,0-1.59,12.89,12.89,0,0,1,3.6-9.71,13.33,13.33,0,0,1,9.7-3.49,12.07,12.07,0,0,1,9.13,3.4A13,13,0,0,1,298.8,102a12.18,12.18,0,0,1-13,13m.27-21.36a6.5,6.5,0,0,0-5.24,2.29,9.5,9.5,0,0,0-1.93,6.31,9,9,0,0,0,2,6.11,6.59,6.59,0,0,0,5.22,2.23,6.25,6.25,0,0,0,5.14-2.19,9.62,9.62,0,0,0,1.79-6.24,9.76,9.76,0,0,0-1.79-6.29,6.22,6.22,0,0,0-5.14-2.22" transform="translate(0 -0.17)"/><path class="cls-4" d="M326.81,114.43h-5.66v-13.9q0-6.91-5-6.91a5.44,5.44,0,0,0-4.27,1.91,7,7,0,0,0-1.68,4.83v14.07h-5.68V89.76h5.68v4.09h.1a8.92,8.92,0,0,1,8.1-4.67,7.59,7.59,0,0,1,6.22,2.61,11.63,11.63,0,0,1,2.15,7.55v15.08" transform="translate(0 -0.17)"/><path class="cls-4" d="M332.15,113.66v-5.18a11.38,11.38,0,0,0,7,2.39q5.12,0,5.12-3a2.33,2.33,0,0,0-.44-1.44,4.18,4.18,0,0,0-1.18-1,9.36,9.36,0,0,0-1.76-.82l-2.26-.82a23.86,23.86,0,0,1-2.77-1.28,8.3,8.3,0,0,1-2.05-1.53A5.71,5.71,0,0,1,332.59,99a7.07,7.07,0,0,1-.41-2.53,5.79,5.79,0,0,1,.85-3.14A7.38,7.38,0,0,1,335.32,91a11.1,11.1,0,0,1,3.27-1.4,15.15,15.15,0,0,1,3.78-.47,17.43,17.43,0,0,1,6.2,1V95.1a10.55,10.55,0,0,0-6-1.78,8,8,0,0,0-1.94.22,5.1,5.1,0,0,0-1.48.6,3,3,0,0,0-1,.93,2.17,2.17,0,0,0-.34,1.19,2.53,2.53,0,0,0,.34,1.35,3.05,3.05,0,0,0,1,1,8.76,8.76,0,0,0,1.61.77q.94.35,2.16.76,1.48.59,2.89,1.32A9.76,9.76,0,0,1,348,103a6,6,0,0,1,1.39,2,6.64,6.64,0,0,1,.49,2.67,6,6,0,0,1-.88,3.28,7.28,7.28,0,0,1-2.34,2.31,11,11,0,0,1-3.38,1.36,17.75,17.75,0,0,1-4,.45,17.19,17.19,0,0,1-7.1-1.35" transform="translate(0 -0.17)"/><path class="cls-4" d="M375.41,101.9v12.53h-5.78V79.89h10.61a14.17,14.17,0,0,1,9.34,2.77,9.61,9.61,0,0,1,3.32,7.81,10.71,10.71,0,0,1-3.47,8.24,13.26,13.26,0,0,1-9.37,3.2h-4.66m0-17.29V97.23h3.76a8.38,8.38,0,0,0,5.68-1.71,6.07,6.07,0,0,0,2-4.82q0-6.09-7.17-6.09h-4.22" transform="translate(0 -0.17)"/><path class="cls-4" d="M415.93,114.43h-5.49v-3.85h-.1a8.28,8.28,0,0,1-7.59,4.43,8.05,8.05,0,0,1-5.77-2,6.86,6.86,0,0,1-2.09-5.23q0-7,8.15-8.14l7.42-1q0-5.28-5.07-5.28a12.15,12.15,0,0,0-8.05,3V91.5a17.73,17.73,0,0,1,9.13-2.31q9.47,0,9.47,9.2v16m-5.46-12.12-5.24.72a8.4,8.4,0,0,0-3.67,1.17,3.4,3.4,0,0,0-1.23,3,3.26,3.26,0,0,0,1.13,2.57,4.43,4.43,0,0,0,3,1,5.64,5.64,0,0,0,4.28-1.8,6.32,6.32,0,0,0,1.69-4.52v-2.14" transform="translate(0 -0.17)"/><path class="cls-4" d="M437.32,95.09a4.72,4.72,0,0,0-3-.8,5.07,5.07,0,0,0-4.2,2.24,9.93,9.93,0,0,0-1.68,6.09v11.81h-5.66V89.76h5.66v5.08h.1a8.57,8.57,0,0,1,2.55-4.06A5.8,5.8,0,0,1,435,89.33a4.83,4.83,0,0,1,2.34.46v5.3" transform="translate(0 -0.17)"/><path class="cls-4" d="M455.93,114.16a9.92,9.92,0,0,1-4.37.82q-7.27,0-7.27-6.89v-14h-4.17V89.76h4.17V84.05l5.66-1.59v7.3h6v4.38h-6v12.33a4.82,4.82,0,0,0,.81,3.13,3.37,3.37,0,0,0,2.68.94,3.92,3.92,0,0,0,2.49-.82v4.45" transform="translate(0 -0.17)"/><path class="cls-4" d="M483.06,114.43H477.4v-13.9q0-6.91-5-6.91a5.44,5.44,0,0,0-4.27,1.91,7,7,0,0,0-1.68,4.83v14.07h-5.68V89.76h5.68v4.09h.1a8.92,8.92,0,0,1,8.1-4.67,7.59,7.59,0,0,1,6.22,2.61,11.63,11.63,0,0,1,2.15,7.55v15.08" transform="translate(0 -0.17)"/><path class="cls-4" d="M510.12,103.62h-17a7.06,7.06,0,0,0,2.13,5.28,8,8,0,0,0,5.6,1.85,12.45,12.45,0,0,0,7.34-2.36v4.51a17,17,0,0,1-9,2.12,11.25,11.25,0,0,1-8.65-3.36,13.34,13.34,0,0,1-3.13-9.45,13,13,0,0,1,3.45-9.38,11.36,11.36,0,0,1,8.57-3.63,9.91,9.91,0,0,1,7.93,3.25,13.38,13.38,0,0,1,2.81,9v2.14m-5.46-4A7.14,7.14,0,0,0,503.22,95a4.84,4.84,0,0,0-3.9-1.67,5.52,5.52,0,0,0-4.14,1.76,8,8,0,0,0-2.09,4.6h11.56" transform="translate(0 -0.17)"/><path class="cls-4" d="M530,95.09a4.72,4.72,0,0,0-3-.8,5.07,5.07,0,0,0-4.2,2.24,9.93,9.93,0,0,0-1.68,6.09v11.81h-5.66V89.76h5.66v5.08h.1a8.57,8.57,0,0,1,2.55-4.06,5.8,5.8,0,0,1,3.84-1.46,4.83,4.83,0,0,1,2.34.46v5.3" transform="translate(0 -0.17)"/><polyline class="cls-5" points="0 3.72 53.35 3.72 53.35 56.4 0 56.4 0 3.72"/><polyline class="cls-6" points="58.9 3.72 112.25 3.72 112.25 56.4 58.9 56.4 58.9 3.72"/><polyline class="cls-7" points="0 61.88 53.35 61.88 53.35 114.56 0 114.56 0 61.88"/><polyline class="cls-8" points="58.9 61.88 112.25 61.88 112.25 114.56 58.9 114.56 58.9 61.88"/></g></g></g></g></svg>