<svg xmlns="http://www.w3.org/2000/svg" xmlns:xlink="http://www.w3.org/1999/xlink" viewBox="0 0 198.43 235.05"><defs><style>.cls-1{fill:url(#linear-gradient);}.cls-2{fill:#fdfefe;}.cls-3{fill:url(#linear-gradient-2);}.cls-4{fill:#5198fd;}.cls-5{fill:none;}.cls-6{fill:url(#linear-gradient-3);}.cls-7{fill:url(#linear-gradient-4);}.cls-8{fill:url(#linear-gradient-5);}.cls-9{fill:url(#linear-gradient-6);}.cls-10{fill:#222;}</style><linearGradient id="linear-gradient" x1="20.26" y1="19.6" x2="172.28" y2="171.62" gradientUnits="userSpaceOnUse"><stop offset="0" stop-color="#5198fd"/><stop offset="1" stop-color="#0552c1"/></linearGradient><linearGradient id="linear-gradient-2" x1="0.17" y1="146.87" x2="62.16" y2="146.87" gradientUnits="userSpaceOnUse"><stop offset="0" stop-color="#fee07a"/><stop offset="1" stop-color="#ebb801"/></linearGradient><linearGradient id="linear-gradient-3" x1="100.32" y1="47.13" x2="112.81" y2="47.13" xlink:href="#linear-gradient-2"/><linearGradient id="linear-gradient-4" x1="82.89" y1="46.92" x2="105.78" y2="46.92" xlink:href="#linear-gradient-2"/><linearGradient id="linear-gradient-5" x1="82.89" y1="29.45" x2="105.56" y2="29.45" xlink:href="#linear-gradient"/><linearGradient id="linear-gradient-6" x1="97.37" y1="34.52" x2="118.1" y2="34.52" xlink:href="#linear-gradient"/></defs><title>top-iot-company-by-itrateco</title><g id="Layer_2" data-name="Layer 2"><g id="Layer_1-2" data-name="Layer 1"><path class="cls-1" d="M198.22,13.69C198,7.13,192.48,1.45,186,.32c-.18-.1-.46,0-.52-.32h-172A21.57,21.57,0,0,0,7.77,2,15,15,0,0,0,.22,12.81a3.23,3.23,0,0,1-.22.58V184.15c.43.28.31.78.4,1.16a14.43,14.43,0,0,0,6.28,9.08c3.33,2.11,78.9,35.93,86.15,39.23a14.8,14.8,0,0,0,12.76,0c13.19-5.95,69-31.15,83.75-37.9a14.54,14.54,0,0,0,9-13.72C198.46,176.27,198.49,24.06,198.22,13.69Z"/><path class="cls-2" d="M149.95,8.92c.51,0,19.22-.06,28.06-.06l4.76.06a6.74,6.74,0,0,1,7,7.17c0,11.2,0,62.93,0,75.92,0,0-180.92,0-181.14,0,0-10.85-.05-75.16,0-75.92a6.82,6.82,0,0,1,7.19-7.16L23,8.86Z"/><path class="cls-2" d="M8.6,165l8.72-.1c2.57,0,5.15.06,7.72.06H96.37c.43,0,.86,0,1.28-.06,4.87,0,9.74.05,14.61.06,4.32,0,8.63,0,12.95-.06,5.34,0,10.68.05,16,.05,4.1,0,8.2,0,12.31-.06.51,0,1,.06,1.54.06H180.3c3.17,0,6.34,0,9.51.05,0,5.49,0,11,0,16.47a6.82,6.82,0,0,1-4.37,6.77q-13.63,6.14-27.25,12.31-27.95,12.63-55.89,25.28a7,7,0,0,1-6.07,0q-9.18-4.15-18.38-8.25-7.52-3.43-15.05-6.85L24.61,193.55a5.05,5.05,0,0,0-.61-.19c-3.53-1.63-7.05-3.28-10.6-4.87a8.4,8.4,0,0,1-4.05-3.41,7,7,0,0,1-.72-3.7C8.59,175.94,8.61,170.49,8.6,165Zm91.12,24.41c1.12.62,2.24,1.24,3.38,1.84.29.15.6.38.95.11a.84.84,0,0,0,.22-.94c-.18-.92-.35-1.85-.53-2.77a2.12,2.12,0,0,1,.87-2.71,12.55,12.55,0,0,0,2.06-1.92c.7-.72.56-1.14-.45-1.33s-2.19-.37-3.29-.48a1.55,1.55,0,0,1-1.46-1c-.46-1.06-1-2.08-1.54-3.1s-.94-.92-1.41,0c-.57,1.1-1.07,2.23-1.6,3.34s-1.79.56-2.61,1a6.73,6.73,0,0,0-1.4.11c-.5.14-1.23-.1-1.45.57s.42,1,.83,1.3c2.12,1.57,3.16,3.47,2,6.11a4.48,4.48,0,0,0-.12.76c-.08.38-.19.76.21,1s.73,0,1.06-.2c1-.5,2-1,2.95-1.55C98.84,189.43,99.23,189.17,99.72,189.45Zm24.17.17c1,.57,2.08,1.16,3.13,1.72.8.42,1.16.09,1.05-.73-.15-1.14-.39-2.27-.58-3.41a1.68,1.68,0,0,1,.74-2,18.27,18.27,0,0,0,2.05-1.93c.29-.29.73-.53.61-1s-.65-.48-1-.55c-1.05-.17-2.11-.34-3.17-.45a1.5,1.5,0,0,1-1.37-1c-.46-1-1-2-1.47-3-.17-.34-.28-.79-.74-.8s-.67.46-.85.84c-.46,1-.91,1.93-1.37,2.89-.37,1.21-1.51.89-2.34,1.17-.85.12-1.7.21-2.54.35s-1.1.58-.4,1.27c.89.87,1.76,1.76,2.66,2.61a1.17,1.17,0,0,1,.38,1.25c-.25,1.13-.42,2.27-.59,3.41-.06.36-.18.77.19,1.07s.72,0,1-.16c1-.51,2-1,2.95-1.57A1.48,1.48,0,0,1,123.89,189.62ZM56,187.46a2.1,2.1,0,0,1,1-2.56A9.24,9.24,0,0,0,59.09,183c.56-.59.5-1.08-.41-1.22a28.53,28.53,0,0,0-3.17-.46,1.89,1.89,0,0,1-1.88-1.39,24.77,24.77,0,0,0-1.35-2.76c-.49-.91-.94-.91-1.4,0-.56,1.1-1.07,2.23-1.6,3.34s-1.79.55-2.61,1a7.22,7.22,0,0,0-2,.23c-.32.07-.71,0-.84.44s.17.72.44,1c.77.75,1.51,1.52,2.32,2.22a1.67,1.67,0,0,1,.56,1.82c-.23,1-.37,2.11-.57,3.15-.08.4-.15.77.22,1.06s.66,0,.94-.15c1-.48,1.89-1,2.84-1.49.48-.24.93-.66,1.53-.31,1.16.63,2.32,1.28,3.49,1.88.79.41,1.17.07,1-.76C56.45,189.54,56.2,188.5,56,187.46Zm14.36-5.94c-.59.06-1.19.11-1.77.19-.4.06-.91,0-1,.56s.24.74.55.94c2.61,1.71,3.45,4,2.32,6.93-.15.4-.29,1,.23,1.28s.78-.17,1.17-.31c1.34-.51,2.41-1.61,3.91-1.76,1.15.63,2.29,1.27,3.44,1.88.32.17.66.46,1,.14s.23-.71.18-1.07c-.17-1-.38-2.08-.57-3.12a1.7,1.7,0,0,1,.75-2,19.23,19.23,0,0,0,2.13-2c.27-.26.65-.48.53-.95s-.65-.49-1-.56c-1-.17-2-.35-3-.43a1.64,1.64,0,0,1-1.55-1.1c-.42-1-.93-1.92-1.42-2.87-.17-.34-.3-.79-.75-.8s-.66.47-.84.85c-.46,1-.91,1.92-1.37,2.89a1.68,1.68,0,0,1-1.66,1A6.7,6.7,0,0,0,70.36,181.52Zm81.07,5.67a2.38,2.38,0,0,1,1-2.95,17.5,17.5,0,0,0,1.84-1.78c.23-.24.57-.46.43-.86s-.55-.5-.93-.55c-.8-.11-1.6-.27-2.41-.31a2.54,2.54,0,0,1-2.66-1.86,15.79,15.79,0,0,0-1.17-2.41c-.43-.82-.92-.88-1.35,0-.53,1.06-1,2.15-1.52,3.23-.63,1.3-2,.81-3,1.17-.55.06-1.1.11-1.65.18-.38.05-.8.08-1,.49s.2.81.53,1c2.67,1.76,3.36,4.14,2.3,7.1-.13.36-.25.77.14,1.05s.73.06,1.07-.13l3.73-2,3.76,2c.34.18.7.41,1.08.17s.26-.76.19-1.17C151.74,188.79,151.58,188,151.42,187.19Z"/><rect class="cls-3" x="0.17" y="128.57" width="198.09" height="36.6"/><path class="cls-4" d="M92.62,51.79h0v0Z"/><path class="cls-4" d="M92.37,52h0s0,0,0,0h0v0Z"/><path class="cls-5" d="M97.37,39H95.73a21.15,21.15,0,0,0-1.3,2S95.71,40.1,97.37,39Z"/><path class="cls-5" d="M105.79,39h0S105.87,39,105.79,39Z"/><path class="cls-6" d="M110.35,43.29a2.26,2.26,0,0,1,.09-1.57c.45-.91.93-1.81,1.39-2.71v0h-6.07c-.3.21-4,5-4.31,5.5-1.69,2.56-1.68,2.6,1.12,4l10.21,6.73C112,51,111.19,47.16,110.35,43.29Z"/><path class="cls-7" d="M105.78,39H97.37c-1.66,1.11-2.89,1.95-2.94,2a21.15,21.15,0,0,1,1.3-2H82.89a67.59,67.59,0,0,0,6.47,2.15c.83.21,1,.54.7,1.35a30.52,30.52,0,0,0-1.5,10.59,3.39,3.39,0,0,0,.34,1.77A109.32,109.32,0,0,1,96,46.37c1.41-1.43,5.58-4.75,6.14-5.13C103,40.61,105.52,39.07,105.78,39Z"/><path class="cls-8" d="M99.25,35a45,45,0,0,1,5.68-4.73c.53-.36.76-.69.56-1.35-.87-2.81-1.73-5.63-2.53-8.47-.22-.78-.49-.65-.92-.25a48.57,48.57,0,0,0-4.76,5.2C96.07,26.73,93.72,32,93.12,34h0L90,35.09c-1.36.38-6.38,2.69-7.16,3.9H95.73c.22-.31.42-.59.55-.74l3-3.22Z"/><path class="cls-9" d="M105.46,33.92c-1.75.88-5.45,3.31-8.09,5.07h8.42c.08,0,0,0,0,0h6.06a105.39,105.39,0,0,1,6.25-8.93A39.76,39.76,0,0,0,105.46,33.92Z"/><path class="cls-10" d="M68.45,72.63c-.45-.74-.5-1.06.41-1.56A6.43,6.43,0,0,0,72,63.83a6.66,6.66,0,0,0-6-5c-2.23-.07-4.46,0-6.69,0-.62,0-.8.19-.8.8,0,6.6,0,13.2,0,19.81,0,1,.63.8,1.18.8s1.24.25,1.19-.79c-.07-1.33-.05-2.66,0-4,0-1.14-.52-2.69.24-3.29s2.21-.13,3.36-.21a1.31,1.31,0,0,1,1.41.81c1,1.92,2.15,3.8,3.23,5.69s1.13,2,3.49,1.68c.1-.53-.28-.88-.5-1.27C70.88,76.75,69.69,74.67,68.45,72.63Zm-3-3H63.78c-2.95,0-2.95,0-2.95-3,0-1.5,0-3,0-4.5,0-.7.17-1,.93-1,1.33.06,2.66,0,4,0a4.2,4.2,0,0,1,4.1,4.38A4.1,4.1,0,0,1,65.45,69.67Z"/><path class="cls-10" d="M117.88,65.55a7.77,7.77,0,0,0-8.77,4.68,7.64,7.64,0,0,0,12.55,8.21c.39-.41,1.31-.91.67-1.52a1.78,1.78,0,0,0-2.15.08c-.21.15-.37.36-.57.52a5.54,5.54,0,0,1-8.42-2.13c-.31-.74-.4-1.15.67-1.1,1.8.08,3.6,0,5.4,0s3.69-.06,5.53,0c.95,0,1.14-.34,1.15-1.17A7.75,7.75,0,0,0,117.88,65.55Zm2.8,6.33c-1.46-.06-2.92,0-4.37,0s-3,0-4.5,0c-.71,0-1-.05-.69-.91a5.58,5.58,0,0,1,10.29-.1C121.72,71.65,121.57,71.92,120.68,71.89Z"/><path class="cls-10" d="M91.84,72.29a7.45,7.45,0,0,0-6.79-7,7.64,7.64,0,0,0-8.29,6.12c-.78,3.75,1.34,7.74,4.77,8.8a7.19,7.19,0,0,0,8-2.27,13.82,13.82,0,0,1,0,1.47c-.12.89.32,1.08,1.12,1.07s1.27-.09,1.24-1.09C91.81,77,91.91,74.64,91.84,72.29Zm-7.52,6.13A5.46,5.46,0,1,1,89.58,73,5.09,5.09,0,0,1,84.33,78.42Z"/><path class="cls-10" d="M157.72,65.58c-3.67-.13-6.85,1.78-7.92,4.76-1.89,5.24,1.75,10.08,7.58,10.09,3.87,0,7-2.15,7.88-5.35C166.57,70,163.18,65.77,157.72,65.58Zm-.35,12.88c-3.45,0-5.81-2.29-5.78-5.53s2.46-5.4,5.94-5.37,5.75,2.32,5.7,5.6S160.78,78.49,157.38,78.46Z"/><path class="cls-10" d="M136.57,67.94a6,6,0,0,1,7.36,2.15,1.36,1.36,0,0,0,1.87.51c.62-.23.27-1,.05-1.44a4.25,4.25,0,0,0-.72-1.05c-3.18-3.6-10-3.3-12.84.6a7.08,7.08,0,0,0-.6,7.65c1.43,2.94,4.1,3.94,7.19,4.08.17,0,.34,0,.51,0a8,8,0,0,0,6.37-3.32,1.58,1.58,0,0,0,.25-1.58c-.27-.5-.93-.19-1.42-.22s-.5.52-.69.81a6.18,6.18,0,0,1-6.39,2.26,5.49,5.49,0,0,1-.94-10.44Z"/><path class="cls-10" d="M53.57,58.79q-6.49.07-13,0c-.93,0-1,.41-1,1.17s0,1.24,1,1.2c1.5-.07,3,0,4.5,0,.73,0,.94.2.93.93,0,2.87,0,5.74,0,8.61s0,5.66,0,8.49c0,.38-.22.87.41,1.06,1.27.38,1.91-.06,1.91-1.4,0-5.49,0-11,0-16.46,0-.87.18-1.21,1.11-1.15,1.37.08,2.74,0,4.11,0,.92,0,1.21-.28,1.17-1.17S54.58,58.78,53.57,58.79Z"/><path class="cls-10" d="M104.13,78.08c-2.26.05-3.16-.92-3.17-3.21,0-1.24,0-2.49,0-3.73,0-1-.31-2.23.17-2.87s1.77-.18,2.71-.17c.7,0,1-.19,1-.93.07-1.08-.18-1.63-1.39-1.43-.54.09-1.12,0-1.67,0-.7.08-.86-.22-.85-.87,0-1.63,0-3.26,0-4.89,0-1-.43-1-1.16-1s-1.25,0-1.21,1c.06,1.41-.07,2.84,0,4.24.09,1.19-.18,1.78-1.48,1.53-1-.19-1.23.26-1.23,1.21s.37,1.26,1.21,1.1c1.27-.23,1.64.3,1.49,1.52a21.11,21.11,0,0,0,0,2.57c0,.9,0,1.8,0,2.7,0,3.66,2.19,5.72,5.83,5.58.68,0,1-.2,1-.95C105.55,78.47,105.25,78.06,104.13,78.08Z"/><path class="cls-10" d="M34.47,65.41c-.72,0-1.21,0-1.18,1,.07,2.19,0,4.38,0,6.56s0,4.29,0,6.44c0,.92.4,1,1.17,1s1.2-.1,1.19-1q-.06-6.5,0-13C35.67,65.46,35.2,65.41,34.47,65.41Z"/><path class="cls-10" d="M34.54,59.59a1.59,1.59,0,0,0-1.66,1.59,1.48,1.48,0,0,0,1.46,1.5,1.61,1.61,0,0,0,1.79-1.58A1.52,1.52,0,0,0,34.54,59.59Z"/><path class="cls-10" d="M127.59,77.4c-.84,0-1.52.38-1.52,1.37a1.37,1.37,0,0,0,1.42,1.45c1,0,1.63-.49,1.64-1.46A1.33,1.33,0,0,0,127.59,77.4Z"/><path class="cls-2" d="M52.92,145.42H51.33v-7.69h1.58Z"/><path class="cls-2" d="M60.72,141.74a4.9,4.9,0,0,1-.24,1.58,3.42,3.42,0,0,1-.67,1.19,2.91,2.91,0,0,1-1,.75,3.49,3.49,0,0,1-2.65,0,3,3,0,0,1-1-.75,3.44,3.44,0,0,1-.68-1.19,4.8,4.8,0,0,1-.24-1.58v-.34a4.86,4.86,0,0,1,.24-1.58,3.49,3.49,0,0,1,.67-1.19,2.9,2.9,0,0,1,1-.75,3.49,3.49,0,0,1,2.65,0,2.9,2.9,0,0,1,1,.75,3.49,3.49,0,0,1,.67,1.19,4.86,4.86,0,0,1,.24,1.58Zm-1.61-.35a3.24,3.24,0,0,0-.43-1.84,1.53,1.53,0,0,0-2.47,0,3.24,3.24,0,0,0-.43,1.84v.35a4.48,4.48,0,0,0,.11,1.06,2.38,2.38,0,0,0,.33.78,1.42,1.42,0,0,0,.53.48,1.53,1.53,0,0,0,.71.16,1.39,1.39,0,0,0,1.23-.63,3.29,3.29,0,0,0,.43-1.84Z"/><path class="cls-2" d="M67.5,139H65.15v6.41H63.56V139H61.24v-1.28H67.5Z"/><path class="cls-2" d="M71.32,145.42v-7.69h2.37a3.7,3.7,0,0,1,1.42.27,3.21,3.21,0,0,1,1.11.75,3.43,3.43,0,0,1,.72,1.16,4.17,4.17,0,0,1,.26,1.5v.35a4.18,4.18,0,0,1-.26,1.5,3.36,3.36,0,0,1-.72,1.16,3.22,3.22,0,0,1-1.12.75,3.77,3.77,0,0,1-1.43.26ZM72.9,139v5.13h.77a1.72,1.72,0,0,0,1.43-.62,2.8,2.8,0,0,0,.49-1.77v-.36a2.79,2.79,0,0,0-.49-1.78,1.71,1.71,0,0,0-1.42-.6Z"/><path class="cls-2" d="M83,142.08H80v2.06h3.57v1.27H78.39v-7.69h5.14V139H80v1.83h3Z"/><path class="cls-2" d="M87.65,143.51l1.74-5.78h1.76l-2.68,7.69H86.83l-2.67-7.69h1.76Z"/><path class="cls-2" d="M96.61,142.08h-3v2.06h3.57v1.27H92v-7.69h5.14V139H93.57v1.83h3Z"/><path class="cls-2" d="M99.84,144.14h3.36v1.27H98.26v-7.69h1.58Z"/><path class="cls-2" d="M110.27,141.74a4.9,4.9,0,0,1-.24,1.58,3.42,3.42,0,0,1-.67,1.19,2.91,2.91,0,0,1-1,.75,3.49,3.49,0,0,1-2.65,0,3,3,0,0,1-1-.75,3.44,3.44,0,0,1-.68-1.19,4.8,4.8,0,0,1-.24-1.58v-.34a4.86,4.86,0,0,1,.24-1.58,3.49,3.49,0,0,1,.67-1.19,2.9,2.9,0,0,1,1-.75,3.49,3.49,0,0,1,2.65,0,2.9,2.9,0,0,1,1,.75,3.49,3.49,0,0,1,.67,1.19,4.86,4.86,0,0,1,.24,1.58Zm-1.61-.35a3.24,3.24,0,0,0-.43-1.84,1.53,1.53,0,0,0-2.47,0,3.24,3.24,0,0,0-.43,1.84v.35a4.47,4.47,0,0,0,.11,1.06,2.37,2.37,0,0,0,.33.78,1.42,1.42,0,0,0,.53.48,1.53,1.53,0,0,0,.71.16,1.39,1.39,0,0,0,1.23-.63,3.29,3.29,0,0,0,.43-1.84Z"/><path class="cls-2" d="M113.07,142.71v2.71h-1.58v-7.69h3a3.63,3.63,0,0,1,1.22.19,2.63,2.63,0,0,1,.91.53,2.27,2.27,0,0,1,.57.81,2.61,2.61,0,0,1,.2,1,2.5,2.5,0,0,1-.2,1,2.08,2.08,0,0,1-.57.77,2.6,2.6,0,0,1-.91.49,4,4,0,0,1-1.22.17Zm0-1.28h1.42a1.8,1.8,0,0,0,.58-.08,1.07,1.07,0,0,0,.4-.23.92.92,0,0,0,.23-.36,1.38,1.38,0,0,0,.07-.46,1.55,1.55,0,0,0-.07-.48,1.14,1.14,0,0,0-.23-.41,1.11,1.11,0,0,0-.4-.28,1.47,1.47,0,0,0-.58-.11h-1.42Z"/><path class="cls-2" d="M120.44,137.73l2,5.58,2-5.58h2.08v7.69h-1.59v-2.1l.16-3.63L123,145.42h-1.09l-2.07-5.73.16,3.62v2.1h-1.58v-7.69Z"/><path class="cls-2" d="M132.59,142.08h-3v2.06h3.57v1.27H128v-7.69h5.14V139h-3.56v1.83h3Z"/><path class="cls-2" d="M140.49,145.42H138.9l-3.08-5.06v5.06h-1.58v-7.69h1.58l3.09,5.07v-5.07h1.58Z"/><path class="cls-2" d="M147.67,139h-2.36v6.41h-1.58V139H141.4v-1.28h6.26Z"/><path class="cls-2" d="M79.73,155.83a3.15,3.15,0,0,1-.26,1.08,2.5,2.5,0,0,1-.61.84,2.8,2.8,0,0,1-.95.55,3.77,3.77,0,0,1-1.27.2,3.3,3.3,0,0,1-1.33-.26,2.72,2.72,0,0,1-1-.74,3.35,3.35,0,0,1-.63-1.16,5,5,0,0,1-.22-1.53v-.51a4.88,4.88,0,0,1,.23-1.54,3.4,3.4,0,0,1,.64-1.17,2.78,2.78,0,0,1,1-.74,3.26,3.26,0,0,1,1.32-.26,3.67,3.67,0,0,1,1.27.2,2.73,2.73,0,0,1,.94.57,2.57,2.57,0,0,1,.6.86,3.6,3.6,0,0,1,.27,1.09H78.15a2.4,2.4,0,0,0-.12-.61,1.19,1.19,0,0,0-.27-.44,1.1,1.1,0,0,0-.45-.27,2.1,2.1,0,0,0-.67-.09,1.34,1.34,0,0,0-1.2.58,3.29,3.29,0,0,0-.39,1.81v.52a5.54,5.54,0,0,0,.09,1,2.21,2.21,0,0,0,.27.75,1.21,1.21,0,0,0,.49.45,1.58,1.58,0,0,0,.72.15,2.19,2.19,0,0,0,.65-.08,1.1,1.1,0,0,0,.74-.69,2.11,2.11,0,0,0,.13-.6Z"/><path class="cls-2" d="M87.12,154.73a4.9,4.9,0,0,1-.24,1.58,3.42,3.42,0,0,1-.67,1.19,2.91,2.91,0,0,1-1,.75,3.49,3.49,0,0,1-2.65,0,3,3,0,0,1-1-.75,3.44,3.44,0,0,1-.68-1.19,4.8,4.8,0,0,1-.24-1.58v-.34a4.86,4.86,0,0,1,.24-1.58,3.49,3.49,0,0,1,.67-1.19,2.9,2.9,0,0,1,1-.75,3.49,3.49,0,0,1,2.65,0,2.9,2.9,0,0,1,1,.75,3.49,3.49,0,0,1,.67,1.19,4.86,4.86,0,0,1,.24,1.58Zm-1.61-.35a3.24,3.24,0,0,0-.43-1.84,1.53,1.53,0,0,0-2.47,0,3.24,3.24,0,0,0-.43,1.84v.35a4.48,4.48,0,0,0,.11,1.06,2.38,2.38,0,0,0,.33.78,1.42,1.42,0,0,0,.53.48,1.53,1.53,0,0,0,.71.16,1.39,1.39,0,0,0,1.23-.63,3.29,3.29,0,0,0,.43-1.84Z"/><path class="cls-2" d="M90.41,150.71l2,5.58,2-5.58h2.08v7.69H94.84v-2.1l.16-3.63-2.08,5.73H91.83l-2.07-5.73.16,3.62v2.1H88.34v-7.69Z"/><path class="cls-2" d="M99.51,155.69v2.71H97.93v-7.69h3a3.63,3.63,0,0,1,1.22.19,2.63,2.63,0,0,1,.91.53,2.27,2.27,0,0,1,.57.81,2.61,2.61,0,0,1,.2,1,2.5,2.5,0,0,1-.2,1,2.09,2.09,0,0,1-.57.77,2.61,2.61,0,0,1-.91.49,4,4,0,0,1-1.22.17Zm0-1.28h1.42a1.8,1.8,0,0,0,.58-.08,1.07,1.07,0,0,0,.4-.23.92.92,0,0,0,.23-.36,1.38,1.38,0,0,0,.07-.46,1.55,1.55,0,0,0-.07-.48,1.13,1.13,0,0,0-.23-.41,1.11,1.11,0,0,0-.4-.28,1.47,1.47,0,0,0-.58-.11H99.51Z"/><path class="cls-2" d="M108.63,156.81h-2.78l-.53,1.58h-1.68l2.86-7.69H108l2.88,7.69h-1.68Zm-2.35-1.28h1.92l-1-2.88Z"/><path class="cls-2" d="M117.92,158.4h-1.58l-3.08-5.06v5.06h-1.58v-7.69h1.58l3.09,5.07v-5.07h1.58Z"/><path class="cls-2" d="M122.07,154.17l1.6-3.46h1.73l-2.52,4.9v2.79h-1.61v-2.79l-2.52-4.9h1.74Z"/><path class="cls-2" d="M91.87,106.33H87.72v11.29H84.93V106.33H80.83v-2.26h11Z"/><path class="cls-2" d="M104.42,111.15a8.64,8.64,0,0,1-.42,2.79,6,6,0,0,1-1.18,2.09,5.12,5.12,0,0,1-1.82,1.32,6.15,6.15,0,0,1-4.67,0A5.21,5.21,0,0,1,94.5,116a6.06,6.06,0,0,1-1.2-2.09,8.46,8.46,0,0,1-.43-2.79v-.6a8.56,8.56,0,0,1,.42-2.78,6.14,6.14,0,0,1,1.19-2.1,5.12,5.12,0,0,1,1.82-1.33,6.15,6.15,0,0,1,4.67,0,5.12,5.12,0,0,1,1.82,1.33,6.15,6.15,0,0,1,1.19,2.1,8.57,8.57,0,0,1,.42,2.78Zm-2.83-.61a5.7,5.7,0,0,0-.76-3.24,2.69,2.69,0,0,0-4.36,0,5.7,5.7,0,0,0-.76,3.24v.61a7.9,7.9,0,0,0,.2,1.88,4.19,4.19,0,0,0,.58,1.37,2.51,2.51,0,0,0,.93.84,2.7,2.7,0,0,0,1.26.28,2.46,2.46,0,0,0,2.17-1.12,5.81,5.81,0,0,0,.75-3.25Z"/><path class="cls-2" d="M109.49,112.85v4.77h-2.79V104.07H112a6.39,6.39,0,0,1,2.14.34,4.63,4.63,0,0,1,1.6.94,4,4,0,0,1,1,1.42,4.6,4.6,0,0,1,.34,1.79,4.41,4.41,0,0,1-.34,1.78,3.67,3.67,0,0,1-1,1.35,4.6,4.6,0,0,1-1.6.86,7,7,0,0,1-2.14.3Zm0-2.26H112a3.17,3.17,0,0,0,1-.15,1.88,1.88,0,0,0,.71-.41,1.62,1.62,0,0,0,.4-.64,2.44,2.44,0,0,0,.13-.81,2.73,2.73,0,0,0-.13-.84,2,2,0,0,0-.4-.72,2,2,0,0,0-.71-.5,2.59,2.59,0,0,0-1-.19h-2.49Z"/><rect class="cls-2" x="11.15" y="112.78" width="65.45" height="4.39"/><rect class="cls-2" x="121.64" y="112.78" width="65.45" height="4.39"/></g></g></svg>