<svg xmlns="http://www.w3.org/2000/svg" xmlns:xlink="http://www.w3.org/1999/xlink" width="140" height="100" viewBox="0 0 140 100">
    <defs>
        <path id="prefix__a" d="M.01 3.05c-.018 1.047-.013 2.094.013 3.144C.095 9 2.753 11.78 7.997 13.24c3.7 1.03 7.647 1.013 11.34-.046 5.231-1.505 7.865-4.308 7.913-7.114.019-1.048.014-2.095-.012-3.144C27.202 1.56 20.68.887 14.03.887 7.1.887.036 1.617.01 3.05"/>
        <path id="prefix__c" d="M12.21 6.683c.318.019.636.043.958.048l.012 3.023c-.319-.005-.64-.008-.958-.03m2.92-3.055l.012 3.04c-.319.023-.638.031-.958.04l-.012-3.024c.32-.008.639-.036.958-.056m-4.908-.18c.32.046.633.11.958.142l.013 2.994c-.32-.036-.64-.082-.959-.131m6.868-3.04l.014 3.004c-.319.054-.636.104-.956.144l-.014-2.993c.325-.035.636-.106.956-.155m-8.856-.326c.315.075.635.13.959.194l.012 2.989c-.32-.068-.64-.146-.958-.23m10.817-3.01l.013 2.957c-.318.086-.637.166-.957.237l-.012-2.987c.322-.066.642-.127.956-.207M6.281 5.54c.307.113.64.188.959.285l.012 2.95c-.324-.104-.656-.2-.958-.313M21.06 5.47l.01 2.92c-.298.116-.633.216-.955.32l-.012-2.947c.317-.1.65-.176.957-.293M4.303 4.65c.305.163.636.299.96.443l.012 2.937c-.331-.147-.66-.297-.96-.457M23.03 4.555l.012 2.917c-.298.165-.623.319-.955.471l-.012-2.937c.322-.15.653-.286.955-.45M2.322 3.342c.277.234.634.446.96.665l.014 2.964c-.354-.234-.666-.481-.961-.734m22.664-3.015l.013 2.894c-.294.255-.602.508-.955.748l-.011-2.968c.323-.223.681-.435.953-.674M.336.66c.208.55.544 1.085.964 1.603l.013 2.955C.873 4.682.562 4.12.348 3.548M26.962.48l.013 2.86c-.202.594-.506 1.177-.95 1.737l-.013-2.955c.417-.533.753-1.079.95-1.642"/>
        <path id="prefix__e" d="M0.008 0.437L27.241 0.437 27.241 15.987 0.008 15.987z"/>
        <path id="prefix__g" d="M.01 3.05c-.018 1.047-.013 2.094.013 3.144C.095 9 2.753 11.78 7.997 13.24c3.7 1.03 7.647 1.013 11.34-.046 5.231-1.505 7.865-4.308 7.913-7.114.019-1.048.014-2.095-.012-3.144C27.202 1.56 20.68.887 14.03.887 7.1.887.036 1.617.01 3.05"/>
        <path id="prefix__i" d="M12.21 6.683c.318.019.636.043.958.048l.012 3.023c-.319-.005-.64-.008-.958-.03m2.92-3.055l.012 3.04c-.319.023-.638.031-.958.04l-.012-3.024c.32-.008.639-.036.958-.056m-4.908-.18c.32.046.633.11.958.142l.013 2.994c-.32-.036-.64-.082-.959-.131m6.868-3.04l.014 3.004c-.319.054-.636.104-.956.144l-.014-2.993c.325-.035.636-.106.956-.155m-8.856-.326c.315.075.635.13.959.194l.012 2.989c-.32-.068-.64-.146-.958-.23m10.817-3.01l.013 2.957c-.318.086-.637.166-.957.237l-.012-2.987c.322-.066.642-.127.956-.207M6.281 5.54c.307.113.64.188.959.285l.012 2.95c-.324-.104-.656-.2-.958-.313M21.06 5.47l.01 2.92c-.298.116-.633.216-.955.32l-.012-2.947c.317-.1.65-.176.957-.293M4.303 4.65c.305.163.636.299.96.443l.012 2.937c-.331-.147-.66-.297-.96-.457M23.03 4.555l.012 2.917c-.298.165-.623.319-.955.471l-.012-2.937c.322-.15.653-.286.955-.45M2.322 3.342c.277.234.634.446.96.665l.014 2.964c-.354-.234-.666-.481-.961-.734m22.664-3.015l.013 2.894c-.294.255-.602.508-.955.748l-.011-2.968c.323-.223.681-.435.953-.674M.336.66c.208.55.544 1.085.964 1.603l.013 2.955C.873 4.682.562 4.12.348 3.548M26.962.48l.013 2.86c-.202.594-.506 1.177-.95 1.737l-.013-2.955c.417-.533.753-1.079.95-1.642"/>
        <path id="prefix__k" d="M0.008 0.437L27.241 0.437 27.241 15.987 0.008 15.987z"/>
        <path id="prefix__m" d="M.01 3.05c-.018 1.047-.013 2.094.013 3.144C.095 9 2.753 11.78 7.997 13.24c3.7 1.03 7.647 1.013 11.34-.046 5.231-1.505 7.865-4.308 7.913-7.114.019-1.048.014-2.095-.012-3.144C27.202 1.56 20.68.887 14.03.887 7.1.887.036 1.617.01 3.05"/>
        <path id="prefix__o" d="M12.21 6.683c.318.019.636.043.958.048l.012 3.023c-.319-.005-.64-.008-.958-.03m2.92-3.055l.012 3.04c-.319.023-.638.031-.958.04l-.012-3.024c.32-.008.639-.036.958-.056m-4.908-.18c.32.046.633.11.958.142l.013 2.994c-.32-.036-.64-.082-.959-.131m6.868-3.04l.014 3.004c-.319.054-.636.104-.956.144l-.014-2.993c.325-.035.636-.106.956-.155m-8.856-.326c.315.075.635.13.959.194l.012 2.989c-.32-.068-.64-.146-.958-.23m10.817-3.01l.013 2.957c-.318.086-.637.166-.957.237l-.012-2.987c.322-.066.642-.127.956-.207M6.281 5.54c.307.113.64.188.959.285l.012 2.95c-.324-.104-.656-.2-.958-.313M21.06 5.47l.01 2.92c-.298.116-.633.216-.955.32l-.012-2.947c.317-.1.65-.176.957-.293M4.303 4.65c.305.163.636.299.96.443l.012 2.937c-.331-.147-.66-.297-.96-.457M23.03 4.555l.012 2.917c-.298.165-.623.319-.955.471l-.012-2.937c.322-.15.653-.286.955-.45M2.322 3.342c.277.234.634.446.96.665l.014 2.964c-.354-.234-.666-.481-.961-.734m22.664-3.015l.013 2.894c-.294.255-.602.508-.955.748l-.011-2.968c.323-.223.681-.435.953-.674M.336.66c.208.55.544 1.085.964 1.603l.013 2.955C.873 4.682.562 4.12.348 3.548M26.962.48l.013 2.86c-.202.594-.506 1.177-.95 1.737l-.013-2.955c.417-.533.753-1.079.95-1.642"/>
        <path id="prefix__q" d="M0.008 0.437L27.241 0.437 27.241 15.987 0.008 15.987z"/>
        <path id="prefix__s" d="M.01 3.05c-.018 1.047-.013 2.094.013 3.144C.095 9 2.753 11.78 7.997 13.24c3.7 1.03 7.647 1.013 11.34-.046 5.231-1.505 7.865-4.308 7.913-7.114.019-1.048.014-2.095-.012-3.144C27.202 1.56 20.68.887 14.03.887 7.1.887.036 1.617.01 3.05"/>
        <path id="prefix__u" d="M12.21 6.683c.318.019.636.043.958.048l.012 3.023c-.319-.005-.64-.008-.958-.03m2.92-3.055l.012 3.04c-.319.023-.638.031-.958.04l-.012-3.024c.32-.008.639-.036.958-.056m-4.908-.18c.32.046.633.11.958.142l.013 2.994c-.32-.036-.64-.082-.959-.131m6.868-3.04l.014 3.004c-.319.054-.636.104-.956.144l-.014-2.993c.325-.035.636-.106.956-.155m-8.856-.326c.315.075.635.13.959.194l.012 2.989c-.32-.068-.64-.146-.958-.23m10.817-3.01l.013 2.957c-.318.086-.637.166-.957.237l-.012-2.987c.322-.066.642-.127.956-.207M6.281 5.54c.307.113.64.188.959.285l.012 2.95c-.324-.104-.656-.2-.958-.313M21.06 5.47l.01 2.92c-.298.116-.633.216-.955.32l-.012-2.947c.317-.1.65-.176.957-.293M4.303 4.65c.305.163.636.299.96.443l.012 2.937c-.331-.147-.66-.297-.96-.457M23.03 4.555l.012 2.917c-.298.165-.623.319-.955.471l-.012-2.937c.322-.15.653-.286.955-.45M2.322 3.342c.277.234.634.446.96.665l.014 2.964c-.354-.234-.666-.481-.961-.734m22.664-3.015l.013 2.894c-.294.255-.602.508-.955.748l-.011-2.968c.323-.223.681-.435.953-.674M.336.66c.208.55.544 1.085.964 1.603l.013 2.955C.873 4.682.562 4.12.348 3.548M26.962.48l.013 2.86c-.202.594-.506 1.177-.95 1.737l-.013-2.955c.417-.533.753-1.079.95-1.642"/>
        <path id="prefix__w" d="M0.008 0.437L27.241 0.437 27.241 15.987 0.008 15.987z"/>
        <path id="prefix__y" d="M.01 3.05c-.018 1.047-.013 2.094.013 3.144C.095 9 2.753 11.78 7.997 13.24c3.7 1.03 7.647 1.013 11.34-.046 5.231-1.505 7.865-4.308 7.913-7.114.019-1.048.014-2.095-.012-3.144C27.202 1.56 20.68.887 14.03.887 7.1.887.036 1.617.01 3.05"/>
        <path id="prefix__A" d="M12.21 6.683c.318.019.636.043.958.048l.012 3.023c-.319-.005-.64-.008-.958-.03m2.92-3.055l.012 3.04c-.319.023-.638.031-.958.04l-.012-3.024c.32-.008.639-.036.958-.056m-4.908-.18c.32.046.633.11.958.142l.013 2.994c-.32-.036-.64-.082-.959-.131m6.868-3.04l.014 3.004c-.319.054-.636.104-.956.144l-.014-2.993c.325-.035.636-.106.956-.155m-8.856-.326c.315.075.635.13.959.194l.012 2.989c-.32-.068-.64-.146-.958-.23m10.817-3.01l.013 2.957c-.318.086-.637.166-.957.237l-.012-2.987c.322-.066.642-.127.956-.207M6.281 5.54c.307.113.64.188.959.285l.012 2.95c-.324-.104-.656-.2-.958-.313M21.06 5.47l.01 2.92c-.298.116-.633.216-.955.32l-.012-2.947c.317-.1.65-.176.957-.293M4.303 4.65c.305.163.636.299.96.443l.012 2.937c-.331-.147-.66-.297-.96-.457M23.03 4.555l.012 2.917c-.298.165-.623.319-.955.471l-.012-2.937c.322-.15.653-.286.955-.45M2.322 3.342c.277.234.634.446.96.665l.014 2.964c-.354-.234-.666-.481-.961-.734m22.664-3.015l.013 2.894c-.294.255-.602.508-.955.748l-.011-2.968c.323-.223.681-.435.953-.674M.336.66c.208.55.544 1.085.964 1.603l.013 2.955C.873 4.682.562 4.12.348 3.548M26.962.48l.013 2.86c-.202.594-.506 1.177-.95 1.737l-.013-2.955c.417-.533.753-1.079.95-1.642"/>
        <path id="prefix__C" d="M0.008 0.437L27.241 0.437 27.241 15.987 0.008 15.987z"/>
        <path id="prefix__E" d="M.01 3.05c-.018 1.047-.013 2.094.013 3.144C.095 9 2.753 11.78 7.997 13.24c3.7 1.03 7.647 1.013 11.34-.046 5.231-1.505 7.865-4.308 7.913-7.114.019-1.048.014-2.095-.012-3.144C27.202 1.56 20.68.887 14.03.887 7.1.887.036 1.617.01 3.05"/>
        <path id="prefix__G" d="M12.21 6.683c.318.019.636.043.958.048l.012 3.023c-.319-.005-.64-.008-.958-.03m2.92-3.055l.012 3.04c-.319.023-.638.031-.958.04l-.012-3.024c.32-.008.639-.036.958-.056m-4.908-.18c.32.046.633.11.958.142l.013 2.994c-.32-.036-.64-.082-.959-.131m6.868-3.04l.014 3.004c-.319.054-.636.104-.956.144l-.014-2.993c.325-.035.636-.106.956-.155m-8.856-.326c.315.075.635.13.959.194l.012 2.989c-.32-.068-.64-.146-.958-.23m10.817-3.01l.013 2.957c-.318.086-.637.166-.957.237l-.012-2.987c.322-.066.642-.127.956-.207M6.281 5.54c.307.113.64.188.959.285l.012 2.95c-.324-.104-.656-.2-.958-.313M21.06 5.47l.01 2.92c-.298.116-.633.216-.955.32l-.012-2.947c.317-.1.65-.176.957-.293M4.303 4.65c.305.163.636.299.96.443l.012 2.937c-.331-.147-.66-.297-.96-.457M23.03 4.555l.012 2.917c-.298.165-.623.319-.955.471l-.012-2.937c.322-.15.653-.286.955-.45M2.322 3.342c.277.234.634.446.96.665l.014 2.964c-.354-.234-.666-.481-.961-.734m22.664-3.015l.013 2.894c-.294.255-.602.508-.955.748l-.011-2.968c.323-.223.681-.435.953-.674M.336.66c.208.55.544 1.085.964 1.603l.013 2.955C.873 4.682.562 4.12.348 3.548M26.962.48l.013 2.86c-.202.594-.506 1.177-.95 1.737l-.013-2.955c.417-.533.753-1.079.95-1.642"/>
        <path id="prefix__I" d="M0.008 0.437L27.241 0.437 27.241 15.987 0.008 15.987z"/>
        <path id="prefix__K" d="M.01 3.05c-.018 1.047-.013 2.094.013 3.144C.095 9 2.753 11.78 7.997 13.24c3.7 1.03 7.647 1.013 11.34-.046 5.231-1.505 7.865-4.308 7.913-7.114.019-1.048.014-2.095-.012-3.144C27.202 1.56 20.68.887 14.03.887 7.1.887.036 1.617.01 3.05"/>
        <path id="prefix__M" d="M12.21 6.683c.318.019.636.043.958.048l.012 3.023c-.319-.005-.64-.008-.958-.03m2.92-3.055l.012 3.04c-.319.023-.638.031-.958.04l-.012-3.024c.32-.008.639-.036.958-.056m-4.908-.18c.32.046.633.11.958.142l.013 2.994c-.32-.036-.64-.082-.959-.131m6.868-3.04l.014 3.004c-.319.054-.636.104-.956.144l-.014-2.993c.325-.035.636-.106.956-.155m-8.856-.326c.315.075.635.13.959.194l.012 2.989c-.32-.068-.64-.146-.958-.23m10.817-3.01l.013 2.957c-.318.086-.637.166-.957.237l-.012-2.987c.322-.066.642-.127.956-.207M6.281 5.54c.307.113.64.188.959.285l.012 2.95c-.324-.104-.656-.2-.958-.313M21.06 5.47l.01 2.92c-.298.116-.633.216-.955.32l-.012-2.947c.317-.1.65-.176.957-.293M4.303 4.65c.305.163.636.299.96.443l.012 2.937c-.331-.147-.66-.297-.96-.457M23.03 4.555l.012 2.917c-.298.165-.623.319-.955.471l-.012-2.937c.322-.15.653-.286.955-.45M2.322 3.342c.277.234.634.446.96.665l.014 2.964c-.354-.234-.666-.481-.961-.734m22.664-3.015l.013 2.894c-.294.255-.602.508-.955.748l-.011-2.968c.323-.223.681-.435.953-.674M.336.66c.208.55.544 1.085.964 1.603l.013 2.955C.873 4.682.562 4.12.348 3.548M26.962.48l.013 2.86c-.202.594-.506 1.177-.95 1.737l-.013-2.955c.417-.533.753-1.079.95-1.642"/>
        <path id="prefix__O" d="M0.008 0.437L27.241 0.437 27.241 15.987 0.008 15.987z"/>
        <path id="prefix__Q" d="M.01 3.05c-.018 1.047-.013 2.094.013 3.144C.095 9 2.753 11.78 7.997 13.24c3.7 1.03 7.647 1.013 11.34-.046 5.231-1.505 7.865-4.308 7.913-7.114.019-1.048.014-2.095-.012-3.144C27.202 1.56 20.68.887 14.03.887 7.1.887.036 1.617.01 3.05"/>
        <path id="prefix__S" d="M12.21 6.683c.318.019.636.043.958.048l.012 3.023c-.319-.005-.64-.008-.958-.03m2.92-3.055l.012 3.04c-.319.023-.638.031-.958.04l-.012-3.024c.32-.008.639-.036.958-.056m-4.908-.18c.32.046.633.11.958.142l.013 2.994c-.32-.036-.64-.082-.959-.131m6.868-3.04l.014 3.004c-.319.054-.636.104-.956.144l-.014-2.993c.325-.035.636-.106.956-.155m-8.856-.326c.315.075.635.13.959.194l.012 2.989c-.32-.068-.64-.146-.958-.23m10.817-3.01l.013 2.957c-.318.086-.637.166-.957.237l-.012-2.987c.322-.066.642-.127.956-.207M6.281 5.54c.307.113.64.188.959.285l.012 2.95c-.324-.104-.656-.2-.958-.313M21.06 5.47l.01 2.92c-.298.116-.633.216-.955.32l-.012-2.947c.317-.1.65-.176.957-.293M4.303 4.65c.305.163.636.299.96.443l.012 2.937c-.331-.147-.66-.297-.96-.457M23.03 4.555l.012 2.917c-.298.165-.623.319-.955.471l-.012-2.937c.322-.15.653-.286.955-.45M2.322 3.342c.277.234.634.446.96.665l.014 2.964c-.354-.234-.666-.481-.961-.734m22.664-3.015l.013 2.894c-.294.255-.602.508-.955.748l-.011-2.968c.323-.223.681-.435.953-.674M.336.66c.208.55.544 1.085.964 1.603l.013 2.955C.873 4.682.562 4.12.348 3.548M26.962.48l.013 2.86c-.202.594-.506 1.177-.95 1.737l-.013-2.955c.417-.533.753-1.079.95-1.642"/>
        <path id="prefix__U" d="M0.008 0.437L27.241 0.437 27.241 15.987 0.008 15.987z"/>
        <path id="prefix__W" d="M.01 3.05c-.018 1.047-.013 2.094.013 3.144C.095 9 2.753 11.78 7.997 13.24c3.7 1.03 7.647 1.013 11.34-.046 5.231-1.505 7.865-4.308 7.913-7.114.019-1.048.014-2.095-.012-3.144C27.202 1.56 20.68.887 14.03.887 7.1.887.036 1.617.01 3.05"/>
        <path id="prefix__Y" d="M12.21 6.683c.318.019.636.043.958.048l.012 3.023c-.319-.005-.64-.008-.958-.03m2.92-3.055l.012 3.04c-.319.023-.638.031-.958.04l-.012-3.024c.32-.008.639-.036.958-.056m-4.908-.18c.32.046.633.11.958.142l.013 2.994c-.32-.036-.64-.082-.959-.131m6.868-3.04l.014 3.004c-.319.054-.636.104-.956.144l-.014-2.993c.325-.035.636-.106.956-.155m-8.856-.326c.315.075.635.13.959.194l.012 2.989c-.32-.068-.64-.146-.958-.23m10.817-3.01l.013 2.957c-.318.086-.637.166-.957.237l-.012-2.987c.322-.066.642-.127.956-.207M6.281 5.54c.307.113.64.188.959.285l.012 2.95c-.324-.104-.656-.2-.958-.313M21.06 5.47l.01 2.92c-.298.116-.633.216-.955.32l-.012-2.947c.317-.1.65-.176.957-.293M4.303 4.65c.305.163.636.299.96.443l.012 2.937c-.331-.147-.66-.297-.96-.457M23.03 4.555l.012 2.917c-.298.165-.623.319-.955.471l-.012-2.937c.322-.15.653-.286.955-.45M2.322 3.342c.277.234.634.446.96.665l.014 2.964c-.354-.234-.666-.481-.961-.734m22.664-3.015l.013 2.894c-.294.255-.602.508-.955.748l-.011-2.968c.323-.223.681-.435.953-.674M.336.66c.208.55.544 1.085.964 1.603l.013 2.955C.873 4.682.562 4.12.348 3.548M26.962.48l.013 2.86c-.202.594-.506 1.177-.95 1.737l-.013-2.955c.417-.533.753-1.079.95-1.642"/>
        <path id="prefix__aa" d="M0.008 0.437L27.241 0.437 27.241 15.987 0.008 15.987z"/>
        <path id="prefix__ac" d="M.01 3.05c-.018 1.047-.013 2.094.013 3.144C.095 9 2.753 11.78 7.997 13.24c3.7 1.03 7.647 1.013 11.34-.046 5.231-1.505 7.865-4.308 7.913-7.114.019-1.048.014-2.095-.012-3.144C27.202 1.56 20.68.887 14.03.887 7.1.887.036 1.617.01 3.05"/>
        <path id="prefix__ae" d="M12.21 6.683c.318.019.636.043.958.048l.012 3.023c-.319-.005-.64-.008-.958-.03m2.92-3.055l.012 3.04c-.319.023-.638.031-.958.04l-.012-3.024c.32-.008.639-.036.958-.056m-4.908-.18c.32.046.633.11.958.142l.013 2.994c-.32-.036-.64-.082-.959-.131m6.868-3.04l.014 3.004c-.319.054-.636.104-.956.144l-.014-2.993c.325-.035.636-.106.956-.155m-8.856-.326c.315.075.635.13.959.194l.012 2.989c-.32-.068-.64-.146-.958-.23m10.817-3.01l.013 2.957c-.318.086-.637.166-.957.237l-.012-2.987c.322-.066.642-.127.956-.207M6.281 5.54c.307.113.64.188.959.285l.012 2.95c-.324-.104-.656-.2-.958-.313M21.06 5.47l.01 2.92c-.298.116-.633.216-.955.32l-.012-2.947c.317-.1.65-.176.957-.293M4.303 4.65c.305.163.636.299.96.443l.012 2.937c-.331-.147-.66-.297-.96-.457M23.03 4.555l.012 2.917c-.298.165-.623.319-.955.471l-.012-2.937c.322-.15.653-.286.955-.45M2.322 3.342c.277.234.634.446.96.665l.014 2.964c-.354-.234-.666-.481-.961-.734m22.664-3.015l.013 2.894c-.294.255-.602.508-.955.748l-.011-2.968c.323-.223.681-.435.953-.674M.336.66c.208.55.544 1.085.964 1.603l.013 2.955C.873 4.682.562 4.12.348 3.548M26.962.48l.013 2.86c-.202.594-.506 1.177-.95 1.737l-.013-2.955c.417-.533.753-1.079.95-1.642"/>
        <path id="prefix__ag" d="M0.008 0.437L27.241 0.437 27.241 15.987 0.008 15.987z"/>
        <path id="prefix__ai" d="M.01 3.05c-.018 1.047-.013 2.094.013 3.144C.095 9 2.753 11.78 7.997 13.24c3.7 1.03 7.647 1.013 11.34-.046 5.231-1.505 7.865-4.308 7.913-7.114.019-1.048.014-2.095-.012-3.144C27.202 1.56 20.68.887 14.03.887 7.1.887.036 1.617.01 3.05"/>
        <path id="prefix__ak" d="M12.21 6.683c.318.019.636.043.958.048l.012 3.023c-.319-.005-.64-.008-.958-.03m2.92-3.055l.012 3.04c-.319.023-.638.031-.958.04l-.012-3.024c.32-.008.639-.036.958-.056m-4.908-.18c.32.046.633.11.958.142l.013 2.994c-.32-.036-.64-.082-.959-.131m6.868-3.04l.014 3.004c-.319.054-.636.104-.956.144l-.014-2.993c.325-.035.636-.106.956-.155m-8.856-.326c.315.075.635.13.959.194l.012 2.989c-.32-.068-.64-.146-.958-.23m10.817-3.01l.013 2.957c-.318.086-.637.166-.957.237l-.012-2.987c.322-.066.642-.127.956-.207M6.281 5.54c.307.113.64.188.959.285l.012 2.95c-.324-.104-.656-.2-.958-.313M21.06 5.47l.01 2.92c-.298.116-.633.216-.955.32l-.012-2.947c.317-.1.65-.176.957-.293M4.303 4.65c.305.163.636.299.96.443l.012 2.937c-.331-.147-.66-.297-.96-.457M23.03 4.555l.012 2.917c-.298.165-.623.319-.955.471l-.012-2.937c.322-.15.653-.286.955-.45M2.322 3.342c.277.234.634.446.96.665l.014 2.964c-.354-.234-.666-.481-.961-.734m22.664-3.015l.013 2.894c-.294.255-.602.508-.955.748l-.011-2.968c.323-.223.681-.435.953-.674M.336.66c.208.55.544 1.085.964 1.603l.013 2.955C.873 4.682.562 4.12.348 3.548M26.962.48l.013 2.86c-.202.594-.506 1.177-.95 1.737l-.013-2.955c.417-.533.753-1.079.95-1.642"/>
        <path id="prefix__am" d="M0.008 0.437L27.241 0.437 27.241 15.987 0.008 15.987z"/>
        <path id="prefix__ao" d="M.01 3.05c-.018 1.047-.013 2.094.013 3.144C.095 9 2.753 11.78 7.997 13.24c3.7 1.03 7.647 1.013 11.34-.046 5.231-1.505 7.865-4.308 7.913-7.114.019-1.048.014-2.095-.012-3.144C27.202 1.56 20.68.887 14.03.887 7.1.887.036 1.617.01 3.05"/>
        <path id="prefix__aq" d="M12.21 6.683c.318.019.636.043.958.048l.012 3.023c-.319-.005-.64-.008-.958-.03m2.92-3.055l.012 3.04c-.319.023-.638.031-.958.04l-.012-3.024c.32-.008.639-.036.958-.056m-4.908-.18c.32.046.633.11.958.142l.013 2.994c-.32-.036-.64-.082-.959-.131m6.868-3.04l.014 3.004c-.319.054-.636.104-.956.144l-.014-2.993c.325-.035.636-.106.956-.155m-8.856-.326c.315.075.635.13.959.194l.012 2.989c-.32-.068-.64-.146-.958-.23m10.817-3.01l.013 2.957c-.318.086-.637.166-.957.237l-.012-2.987c.322-.066.642-.127.956-.207M6.281 5.54c.307.113.64.188.959.285l.012 2.95c-.324-.104-.656-.2-.958-.313M21.06 5.47l.01 2.92c-.298.116-.633.216-.955.32l-.012-2.947c.317-.1.65-.176.957-.293M4.303 4.65c.305.163.636.299.96.443l.012 2.937c-.331-.147-.66-.297-.96-.457M23.03 4.555l.012 2.917c-.298.165-.623.319-.955.471l-.012-2.937c.322-.15.653-.286.955-.45M2.322 3.342c.277.234.634.446.96.665l.014 2.964c-.354-.234-.666-.481-.961-.734m22.664-3.015l.013 2.894c-.294.255-.602.508-.955.748l-.011-2.968c.323-.223.681-.435.953-.674M.336.66c.208.55.544 1.085.964 1.603l.013 2.955C.873 4.682.562 4.12.348 3.548M26.962.48l.013 2.86c-.202.594-.506 1.177-.95 1.737l-.013-2.955c.417-.533.753-1.079.95-1.642"/>
        <path id="prefix__as" d="M0.008 0.437L27.241 0.437 27.241 15.987 0.008 15.987z"/>
        <path id="prefix__au" d="M.01 3.05c-.018 1.047-.013 2.094.013 3.144C.095 9 2.753 11.78 7.997 13.24c3.7 1.03 7.647 1.013 11.34-.046 5.231-1.505 7.865-4.308 7.913-7.114.019-1.048.014-2.095-.012-3.144C27.202 1.56 20.68.887 14.03.887 7.1.887.036 1.617.01 3.05"/>
        <path id="prefix__aw" d="M12.21 6.683c.318.019.636.043.958.048l.012 3.023c-.319-.005-.64-.008-.958-.03m2.92-3.055l.012 3.04c-.319.023-.638.031-.958.04l-.012-3.024c.32-.008.639-.036.958-.056m-4.908-.18c.32.046.633.11.958.142l.013 2.994c-.32-.036-.64-.082-.959-.131m6.868-3.04l.014 3.004c-.319.054-.636.104-.956.144l-.014-2.993c.325-.035.636-.106.956-.155m-8.856-.326c.315.075.635.13.959.194l.012 2.989c-.32-.068-.64-.146-.958-.23m10.817-3.01l.013 2.957c-.318.086-.637.166-.957.237l-.012-2.987c.322-.066.642-.127.956-.207M6.281 5.54c.307.113.64.188.959.285l.012 2.95c-.324-.104-.656-.2-.958-.313M21.06 5.47l.01 2.92c-.298.116-.633.216-.955.32l-.012-2.947c.317-.1.65-.176.957-.293M4.303 4.65c.305.163.636.299.96.443l.012 2.937c-.331-.147-.66-.297-.96-.457M23.03 4.555l.012 2.917c-.298.165-.623.319-.955.471l-.012-2.937c.322-.15.653-.286.955-.45M2.322 3.342c.277.234.634.446.96.665l.014 2.964c-.354-.234-.666-.481-.961-.734m22.664-3.015l.013 2.894c-.294.255-.602.508-.955.748l-.011-2.968c.323-.223.681-.435.953-.674M.336.66c.208.55.544 1.085.964 1.603l.013 2.955C.873 4.682.562 4.12.348 3.548M26.962.48l.013 2.86c-.202.594-.506 1.177-.95 1.737l-.013-2.955c.417-.533.753-1.079.95-1.642"/>
        <path id="prefix__ay" d="M0.008 0.437L27.241 0.437 27.241 15.987 0.008 15.987z"/>
    </defs>
    <g fill="none" fill-rule="evenodd">
        <path fill="#FEFEFE" fill-rule="nonzero" d="M0 100L140 100 140 0 0 0z"/>
        <g>
            <path fill="#123155" fill-rule="nonzero" d="M95.819 47.422l-31.19-17.494c-5.252-2.945-13.195-3.265-17.743-.713L14.938 47.132.025 50.562v7.256c-.011.163-.007.326 0 .489v.113h.006c.148 1.86 1.6 3.791 4.321 5.315l40.917 22.95c5.252 2.944 13.195 3.265 17.743.715l4.633-2.598 39.176-21.974c2.144-1.201 3.137-2.83 3.05-4.521h.015v-7.35L95.82 47.422z" transform="translate(15 5)"/>
            <path fill="#E9E8E7" fill-rule="nonzero" d="M63.012 79.657c-4.548 2.55-12.49 2.228-17.743-.716L4.352 55.993c-5.253-2.946-5.822-7.4-1.274-9.951l43.808-24.57c4.548-2.552 12.49-2.232 17.741.713l40.92 22.95c5.253 2.944 5.822 7.4 1.274 9.95l-43.81 24.572z" transform="translate(15 5)"/>
            <g>
                <path fill="#969696" d="M0.009 20.759L50.722 50.038 50.722 26.4 0.009 13.564z" transform="translate(15 5) translate(29.023 16.872)"/>
                <path fill="#C2C2C2" d="M50.722 50.038L74.214 36.475 74.214 29.28 50.722 26.4z" transform="translate(15 5) translate(29.023 16.872)"/>
                <path fill="#FFF" d="M23.501 0L0 13.568 50.73 42.857 74.23 29.289z" transform="translate(15 5) translate(29.023 16.872)"/>
                <g>
                    <path fill="#C2C2C2" d="M53.539 38.083c-.997.576-2.682.536-3.764-.089l-44.15-25.49c-1.082-.625-1.151-1.598-.155-2.174l13.222-7.633c.996-.575 2.68-.535 3.764.09l44.149 25.49c1.083.624 1.152 1.597.155 2.173l-13.221 7.633zM22.069.008L.914 12.224l49.346 28.491L71.416 28.5 22.07.01z" transform="translate(15 5) translate(29.023 16.872) translate(1 1.038)"/>
                    <path fill="#A5AA9F" d="M25.768 26.364c-4.84-2.794-4.112-7.76 1.62-11.069 5.732-3.31 14.333-3.729 19.172-.936 4.839 2.795 4.112 7.76-1.62 11.07-5.733 3.31-14.333 3.73-19.172.935m20.91-12.073c-4.91-2.834-13.62-2.417-19.418.93-5.797 3.347-6.52 8.376-1.61 11.211 4.91 2.834 13.62 2.417 19.418-.93 5.797-3.347 6.519-8.376 1.61-11.21" transform="translate(15 5) translate(29.023 16.872) translate(1 1.038)"/>
                    <path fill="#AFAFAF" d="M44.684 25.281c-5.61 3.24-13.976 3.664-18.68.947-4.707-2.717-3.973-7.546 1.64-10.786 5.611-3.24 13.975-3.664 18.68-.947 4.706 2.717 3.972 7.546-1.64 10.786" transform="translate(15 5) translate(29.023 16.872) translate(1 1.038)"/>
                    <path fill="#E9E8E7" d="M43.442 24.564c-4.794 2.768-11.938 3.13-15.958.81-4.02-2.322-3.394-6.447 1.4-9.214 4.794-2.768 11.94-3.13 15.96-.81 4.02 2.322 3.392 6.447-1.402 9.214" transform="translate(15 5) translate(29.023 16.872) translate(1 1.038)"/>
                    <path fill="#AFAFAF" d="M51.041 30.511c-1.376-.794-1.464-2.03-.197-2.763 1.268-.732 3.41-.68 4.786.114 1.375.794 1.463 2.031.196 2.762-1.267.732-3.41.681-4.785-.113m4.869-2.81c-1.544-.892-3.948-.949-5.369-.128-1.422.82-1.323 2.21.22 3.1 1.544.891 3.947.947 5.369.127 1.422-.82 1.323-2.209-.22-3.1M18.374 11.651c-1.375-.794-1.463-2.031-.196-2.763 1.267-.732 3.41-.681 4.785.114 1.376.794 1.464 2.031.197 2.762-1.267.732-3.41.681-4.786-.113m4.87-2.811c-1.545-.891-3.949-.948-5.37-.127-1.422.82-1.323 2.208.22 3.1 1.544.891 3.947.947 5.37.127 1.421-.821 1.322-2.209-.22-3.1" transform="translate(15 5) translate(29.023 16.872) translate(1 1.038)"/>
                    <path fill="#687A51" d="M32.182 23.127l3.495-2.018c.61.744.595 1.502-.39 2.072-.956.551-2.174.484-3.105-.054zm5.36-4.23c-.652-.619-.818-1.293-.04-1.742.808-.467 2.073-.466 3.016.023l-2.977 1.719zm1.16 1.399l-.534-.626 3.334-1.924c.376.311.512.8-.18 1.727-.169.239-.156.415.23.638.334.193 1.51.629 2.287.181.68-.393.677-1.609-1.593-2.976l1.295-.747-.984-.568-1.294.748c-2.085-1.129-4.707-1.522-6.746-.345-1.504.869-1.153 2.025-.122 3.255l.606.705-3.802 2.195c-.287-.24-.629-.793.225-2.037.198-.297.167-.501-.255-.745-.457-.264-1.734-.46-2.43-.058-.55.318-1.139 1.51 1.715 3.27l-1.682.971.983.568 1.683-.971c1.616.933 4.704 1.726 7.052.39 1.762-1.037 1.426-2.202.212-3.651z" transform="translate(15 5) translate(29.023 16.872) translate(1 1.038)"/>
                    <path fill="#F8F5F4" d="M42.707 10.625L52.824 16.466 29.321 30.036 19.204 24.194z" transform="translate(15 5) translate(29.023 16.872) translate(1 1.038)"/>
                    <path fill="#D8D8D8" d="M19.204 31.443L29.323 37.279 29.323 30.031 19.204 24.194z" transform="translate(15 5) translate(29.023 16.872) translate(1 1.038)"/>
                    <path fill="#0061B2" d="M20.317 24.837L43.82 11.268 42.553 10.537 19.05 24.107 19.05 31.355 20.317 32.086zM29.524 30.153L53.027 16.584 51.76 15.852 28.257 29.422 28.257 36.67 29.524 37.401z" transform="translate(15 5) translate(29.023 16.872) translate(1 1.038)"/>
                    <path fill="#0061B2" d="M20.317 24.837L19.05 24.107 19.05 31.355 20.317 32.086zM29.524 30.153L28.257 29.422 28.257 36.67 29.524 37.401z" transform="translate(15 5) translate(29.023 16.872) translate(1 1.038)"/>
                </g>
            </g>
            <g>
                <path fill="#969696" d="M0.009 20.759L50.722 50.038 50.722 26.4 0.009 13.564z" transform="translate(15 5) translate(30.023 8.872)"/>
                <path fill="#C2C2C2" d="M50.722 50.038L74.214 36.475 74.214 29.28 50.722 26.4z" transform="translate(15 5) translate(30.023 8.872)"/>
                <path fill="#FFF" d="M23.501 0L0 13.568 50.73 42.857 74.23 29.289z" transform="translate(15 5) translate(30.023 8.872)"/>
                <g>
                    <path fill="#C2C2C2" d="M53.539 38.083c-.997.576-2.682.536-3.764-.089l-44.15-25.49c-1.082-.625-1.151-1.598-.155-2.174l13.222-7.633c.996-.575 2.68-.535 3.764.09l44.149 25.49c1.083.624 1.152 1.597.155 2.173l-13.221 7.633zM22.069.008L.914 12.224l49.346 28.491L71.416 28.5 22.07.01z" transform="translate(15 5) translate(30.023 8.872) translate(1 1.038)"/>
                    <path fill="#A5AA9F" d="M25.768 26.364c-4.84-2.794-4.112-7.76 1.62-11.069 5.732-3.31 14.333-3.729 19.172-.936 4.839 2.795 4.112 7.76-1.62 11.07-5.733 3.31-14.333 3.73-19.172.935m20.91-12.073c-4.91-2.834-13.62-2.417-19.418.93-5.797 3.347-6.52 8.376-1.61 11.211 4.91 2.834 13.62 2.417 19.418-.93 5.797-3.347 6.519-8.376 1.61-11.21" transform="translate(15 5) translate(30.023 8.872) translate(1 1.038)"/>
                    <path fill="#AFAFAF" d="M44.684 25.281c-5.61 3.24-13.976 3.664-18.68.947-4.707-2.717-3.973-7.546 1.64-10.786 5.611-3.24 13.975-3.664 18.68-.947 4.706 2.717 3.972 7.546-1.64 10.786" transform="translate(15 5) translate(30.023 8.872) translate(1 1.038)"/>
                    <path fill="#E9E8E7" d="M43.442 24.564c-4.794 2.768-11.938 3.13-15.958.81-4.02-2.322-3.394-6.447 1.4-9.214 4.794-2.768 11.94-3.13 15.96-.81 4.02 2.322 3.392 6.447-1.402 9.214" transform="translate(15 5) translate(30.023 8.872) translate(1 1.038)"/>
                    <path fill="#AFAFAF" d="M51.041 30.511c-1.376-.794-1.464-2.03-.197-2.763 1.268-.732 3.41-.68 4.786.114 1.375.794 1.463 2.031.196 2.762-1.267.732-3.41.681-4.785-.113m4.869-2.81c-1.544-.892-3.948-.949-5.369-.128-1.422.82-1.323 2.21.22 3.1 1.544.891 3.947.947 5.369.127 1.422-.82 1.323-2.209-.22-3.1M18.374 11.651c-1.375-.794-1.463-2.031-.196-2.763 1.267-.732 3.41-.681 4.785.114 1.376.794 1.464 2.031.197 2.762-1.267.732-3.41.681-4.786-.113m4.87-2.811c-1.545-.891-3.949-.948-5.37-.127-1.422.82-1.323 2.208.22 3.1 1.544.891 3.947.947 5.37.127 1.421-.821 1.322-2.209-.22-3.1" transform="translate(15 5) translate(30.023 8.872) translate(1 1.038)"/>
                    <path fill="#687A51" d="M32.182 23.127l3.495-2.018c.61.744.595 1.502-.39 2.072-.956.551-2.174.484-3.105-.054zm5.36-4.23c-.652-.619-.818-1.293-.04-1.742.808-.467 2.073-.466 3.016.023l-2.977 1.719zm1.16 1.399l-.534-.626 3.334-1.924c.376.311.512.8-.18 1.727-.169.239-.156.415.23.638.334.193 1.51.629 2.287.181.68-.393.677-1.609-1.593-2.976l1.295-.747-.984-.568-1.294.748c-2.085-1.129-4.707-1.522-6.746-.345-1.504.869-1.153 2.025-.122 3.255l.606.705-3.802 2.195c-.287-.24-.629-.793.225-2.037.198-.297.167-.501-.255-.745-.457-.264-1.734-.46-2.43-.058-.55.318-1.139 1.51 1.715 3.27l-1.682.971.983.568 1.683-.971c1.616.933 4.704 1.726 7.052.39 1.762-1.037 1.426-2.202.212-3.651z" transform="translate(15 5) translate(30.023 8.872) translate(1 1.038)"/>
                    <path fill="#F8F5F4" d="M42.707 10.625L52.824 16.466 29.321 30.036 19.204 24.194z" transform="translate(15 5) translate(30.023 8.872) translate(1 1.038)"/>
                    <path fill="#D8D8D8" d="M19.204 31.443L29.323 37.279 29.323 30.031 19.204 24.194z" transform="translate(15 5) translate(30.023 8.872) translate(1 1.038)"/>
                    <path fill="#0061B2" d="M20.317 24.837L43.82 11.268 42.553 10.537 19.05 24.107 19.05 31.355 20.317 32.086zM29.524 30.153L53.027 16.584 51.76 15.852 28.257 29.422 28.257 36.67 29.524 37.401z" transform="translate(15 5) translate(30.023 8.872) translate(1 1.038)"/>
                    <path fill="#0061B2" d="M20.317 24.837L19.05 24.107 19.05 31.355 20.317 32.086zM29.524 30.153L28.257 29.422 28.257 36.67 29.524 37.401z" transform="translate(15 5) translate(30.023 8.872) translate(1 1.038)"/>
                </g>
            </g>
            <g>
                <path fill="#AFAFAF" d="M0.009 20.759L50.722 50.038 50.722 26.4 0.009 13.564z" transform="translate(15 5) translate(24.023 .872)"/>
                <path fill="#C2C2C2" d="M50.722 50.038L74.214 36.475 74.214 29.28 50.722 26.4z" transform="translate(15 5) translate(24.023 .872)"/>
                <path fill="#FFF" d="M23.501 0L0 13.568 50.73 42.857 74.23 29.289z" transform="translate(15 5) translate(24.023 .872)"/>
                <g>
                    <path fill="#C2C2C2" d="M53.539 38.083c-.997.576-2.682.536-3.764-.089l-44.15-25.49c-1.082-.625-1.151-1.598-.155-2.174l13.222-7.633c.996-.575 2.68-.535 3.764.09l44.149 25.49c1.083.624 1.152 1.597.155 2.173l-13.221 7.633zM22.069.008L.914 12.224l49.346 28.491L71.416 28.5 22.07.01z" transform="translate(15 5) translate(24.023 .872) translate(1 1.038)"/>
                    <path fill="#A5AA9F" d="M25.768 26.364c-4.84-2.794-4.112-7.76 1.62-11.069 5.732-3.31 14.333-3.729 19.172-.936 4.839 2.795 4.112 7.76-1.62 11.07-5.733 3.31-14.333 3.73-19.172.935m20.91-12.073c-4.91-2.834-13.62-2.417-19.418.93-5.797 3.347-6.52 8.376-1.61 11.211 4.91 2.834 13.62 2.417 19.418-.93 5.797-3.347 6.519-8.376 1.61-11.21" transform="translate(15 5) translate(24.023 .872) translate(1 1.038)"/>
                    <path fill="#AFAFAF" d="M44.684 25.281c-5.61 3.24-13.976 3.664-18.68.947-4.707-2.717-3.973-7.546 1.64-10.786 5.611-3.24 13.975-3.664 18.68-.947 4.706 2.717 3.972 7.546-1.64 10.786" transform="translate(15 5) translate(24.023 .872) translate(1 1.038)"/>
                    <path fill="#E9E8E7" d="M43.442 24.564c-4.794 2.768-11.938 3.13-15.958.81-4.02-2.322-3.394-6.447 1.4-9.214 4.794-2.768 11.94-3.13 15.96-.81 4.02 2.322 3.392 6.447-1.402 9.214" transform="translate(15 5) translate(24.023 .872) translate(1 1.038)"/>
                    <path fill="#AFAFAF" d="M51.041 30.511c-1.376-.794-1.464-2.03-.197-2.763 1.268-.732 3.41-.68 4.786.114 1.375.794 1.463 2.031.196 2.762-1.267.732-3.41.681-4.785-.113m4.869-2.81c-1.544-.892-3.948-.949-5.369-.128-1.422.82-1.323 2.21.22 3.1 1.544.891 3.947.947 5.369.127 1.422-.82 1.323-2.209-.22-3.1M18.374 11.651c-1.375-.794-1.463-2.031-.196-2.763 1.267-.732 3.41-.681 4.785.114 1.376.794 1.464 2.031.197 2.762-1.267.732-3.41.681-4.786-.113m4.87-2.811c-1.545-.891-3.949-.948-5.37-.127-1.422.82-1.323 2.208.22 3.1 1.544.891 3.947.947 5.37.127 1.421-.821 1.322-2.209-.22-3.1" transform="translate(15 5) translate(24.023 .872) translate(1 1.038)"/>
                    <path fill="#687A51" d="M32.182 23.127l3.495-2.018c.61.744.595 1.502-.39 2.072-.956.551-2.174.484-3.105-.054zm5.36-4.23c-.652-.619-.818-1.293-.04-1.742.808-.467 2.073-.466 3.016.023l-2.977 1.719zm1.16 1.399l-.534-.626 3.334-1.924c.376.311.512.8-.18 1.727-.169.239-.156.415.23.638.334.193 1.51.629 2.287.181.68-.393.677-1.609-1.593-2.976l1.295-.747-.984-.568-1.294.748c-2.085-1.129-4.707-1.522-6.746-.345-1.504.869-1.153 2.025-.122 3.255l.606.705-3.802 2.195c-.287-.24-.629-.793.225-2.037.198-.297.167-.501-.255-.745-.457-.264-1.734-.46-2.43-.058-.55.318-1.139 1.51 1.715 3.27l-1.682.971.983.568 1.683-.971c1.616.933 4.704 1.726 7.052.39 1.762-1.037 1.426-2.202.212-3.651z" transform="translate(15 5) translate(24.023 .872) translate(1 1.038)"/>
                    <path fill="#F8F5F4" d="M42.707 10.625L52.824 16.466 29.321 30.036 19.204 24.194z" transform="translate(15 5) translate(24.023 .872) translate(1 1.038)"/>
                    <path fill="#D8D8D8" d="M19.204 31.443L29.323 37.279 29.323 30.031 19.204 24.194z" transform="translate(15 5) translate(24.023 .872) translate(1 1.038)"/>
                    <path fill="#0061B2" d="M20.317 24.837L43.82 11.268 42.553 10.537 19.05 24.107 19.05 31.355 20.317 32.086zM29.524 30.153L53.027 16.584 51.76 15.852 28.257 29.422 28.257 36.67 29.524 37.401z" transform="translate(15 5) translate(24.023 .872) translate(1 1.038)"/>
                    <path fill="#0061B2" d="M20.317 24.837L19.05 24.107 19.05 31.355 20.317 32.086zM29.524 30.153L28.257 29.422 28.257 36.67 29.524 37.401z" transform="translate(15 5) translate(24.023 .872) translate(1 1.038)"/>
                </g>
            </g>
            <g transform="translate(15 5) translate(15.023 15.872)">
                <g transform="translate(2 27)">
                    <g transform="translate(0 5)">
                        <mask id="prefix__b" fill="#fff">
                            <use xlink:href="#prefix__a"/>
                        </mask>
                        <path fill="#BC7818" d="M.01 3.05c-.018 1.047-.013 2.094.013 3.144C.095 9 2.753 11.78 7.997 13.24c3.7 1.03 7.647 1.013 11.34-.046 5.231-1.505 7.865-4.308 7.913-7.114.019-1.048.014-2.095-.012-3.144C27.202 1.56 20.68.887 14.03.887 7.1.887.036 1.617.01 3.05" mask="url(#prefix__b)"/>
                    </g>
                    <g transform="translate(0 9.23)">
                        <mask id="prefix__d" fill="#fff">
                            <use xlink:href="#prefix__c"/>
                        </mask>
                        <path fill="#BC7818" d="M18.132 6.278l.012 2.987c.32-.071.64-.151.957-.237l-.013-2.957c-.314.08-.634.141-.956.207m1.972-.516l.012 2.947c.322-.104.657-.204.956-.32l-.011-2.92c-.307.117-.64.193-.957.293m1.97-.756l.013 2.937c.332-.152.657-.306.955-.47l-.012-2.918c-.302.165-.633.302-.955.451m3.937-2.884l.012 2.955c.445-.56.749-1.143.95-1.737L26.963.48c-.197.563-.533 1.11-.95 1.642m-9.854 4.487l.014 2.993c.32-.04.637-.09.956-.144l-.014-3.004c-.32.05-.631.12-.956.155m7.888-2.712l.01 2.968c.354-.24.662-.493.956-.748l-.013-2.894c-.272.239-.63.45-.953.674m-9.862 2.828l.012 3.024c.32-.009.64-.017.958-.04l-.012-3.04c-.32.02-.638.048-.958.056M4.303 4.649l.012 2.923c.3.16.629.31.96.457l-.013-2.937c-.323-.144-.654-.28-.96-.443m1.98.893l.012 2.921c.302.112.634.21.958.312L7.24 5.826c-.32-.097-.652-.172-.959-.284M2.322 3.343l.013 2.895c.295.253.607.5.961.734l-.014-2.964c-.326-.219-.683-.431-.96-.665m7.912 3.146l.012 3.005c.32.05.638.095.959.13l-.013-2.993c-.325-.033-.638-.096-.958-.142m1.976.194l.012 3.042c.319.021.64.024.958.029l-.012-3.023c-.322-.005-.64-.03-.958-.048m-3.952-.555l.013 2.954c.317.083.638.161.958.229l-.012-2.99c-.324-.063-.644-.118-.959-.193M1.3 2.263l.013 2.955C.873 4.682.562 4.12.348 3.548L.336.66c.208.55.544 1.085.964 1.603" mask="url(#prefix__d)"/>
                    </g>
                    <mask id="prefix__f" fill="#fff">
                        <use xlink:href="#prefix__e"/>
                    </mask>
                    <path fill="#EE9921" d="M26.87 6.368c1.055 2.53-.141 5.31-3.594 7.301-5.305 3.059-13.925 3.095-19.256.08-5.331-3.014-5.351-7.937-.047-10.995C9.277-.305 17.898-.34 23.229 2.674c1.861 1.052 3.075 2.337 3.641 3.694z" mask="url(#prefix__f)"/>
                    <path fill="#EE9921" d="M22.373 3.167c4.855 2.746 4.874 7.23.042 10.016-4.831 2.786-12.684 2.818-17.539.073C.021 10.51.003 6.026 4.834 3.24 9.666.455 17.518.423 22.374 3.167"/>
                    <path fill="#BC7818" d="M5.075 3.888c4.699-2.711 12.34-2.742 17.062-.071 3.437 1.943 4.37 4.778 2.822 7.223 2.013-2.608 1.156-5.755-2.585-7.872C17.517.423 9.665.455 4.834 3.24 1.108 5.388.278 8.543 2.314 11.134c-1.57-2.432-.66-5.276 2.76-7.246"/>
                    <path fill="#BC7818" d="M19.018 10.535L16.07 8.85c1.038-.136 2.063-.018 2.904.462.349.198.566.414.67.63-.102.21-.312.413-.625.593zm-6.082 1.706c.06.059.132.114.221.163-.089-.049-.16-.104-.22-.163zM8.232 7.18c-.313-.179-.518-.391-.614-.613.085-.198.252-.39.515-.563l2.468 1.41c-.855.172-1.72.136-2.369-.234zM20.29 11.26c.719-.524 1.279-1.221 1.282-1.957l.002-.586c.02-.572-.352-1.232-1.388-1.832-1.912-1.072-3.956-.925-6.462-.277l-1.08.286-2.788-1.592c.527-.03 1.253.05 2.294.327.43.11.742.11 1.118-.107.215-.123.598-.454.598-.802l.003-.586c.005-.166-.092-.358-.386-.526-.723-.414-2.868-.463-5.181.806l-1.379-.788-.958.551-.001.588.911.52C6.098 5.86 5.64 6.5 5.648 7.138c-.003-.021-.004.565-.004.565-.002.61.42 1.221 1.393 1.775 1.601.916 3.628.757 5.756.206l1.218-.323 3.282 1.874c-.58.037-1.468-.028-2.839-.365-.533-.127-.893-.118-1.305.119-.264.152-.468.474-.438.798-.008-.063-.011.523-.011.523 0 .244.126.494.455.682.584.332 2.718.728 5.698-.866l1.792 1.023.959-.55.001-.587-1.316-.75z"/>
                    <path fill="#FFE9CB" d="M19.018 10.535L15.296 8.41c1.288-.323 2.627-.283 3.679.317 1.016.58.95 1.288.043 1.81zM8.232 7.18c-.863-.493-.918-1.23-.098-1.762l3.172 1.81c-1.066.356-2.246.424-3.074-.048zm11.581 3.809c1.576-.906 2.834-2.679.372-4.103-1.912-1.072-3.956-.925-6.462-.277l-1.08.286-3.55-2.028c.531-.204 1.39-.266 3.058.177.43.108.742.108 1.118-.107.327-.188 1.04-.856.213-1.328-.723-.414-2.868-.463-5.181.806l-1.379-.788-.958.551 1.38.788C5.44 6.138 4.867 7.652 7.039 8.894c1.6.912 3.628.755 5.756.204l1.218-.324 4.047 2.312c-.412.158-1.373.335-3.606-.216-.533-.127-.893-.118-1.305.119-.446.255-.732.994.008 1.415.583.336 2.718.73 5.698-.864l1.792 1.023.958-.551-1.792-1.023z"/>
                </g>
                <g transform="translate(4 23)">
                    <g transform="translate(0 5)">
                        <mask id="prefix__h" fill="#fff">
                            <use xlink:href="#prefix__g"/>
                        </mask>
                        <path fill="#BC7818" d="M.01 3.05c-.018 1.047-.013 2.094.013 3.144C.095 9 2.753 11.78 7.997 13.24c3.7 1.03 7.647 1.013 11.34-.046 5.231-1.505 7.865-4.308 7.913-7.114.019-1.048.014-2.095-.012-3.144C27.202 1.56 20.68.887 14.03.887 7.1.887.036 1.617.01 3.05" mask="url(#prefix__h)"/>
                    </g>
                    <g transform="translate(0 9.23)">
                        <mask id="prefix__j" fill="#fff">
                            <use xlink:href="#prefix__i"/>
                        </mask>
                        <path fill="#BC7818" d="M18.132 6.278l.012 2.987c.32-.071.64-.151.957-.237l-.013-2.957c-.314.08-.634.141-.956.207m1.972-.516l.012 2.947c.322-.104.657-.204.956-.32l-.011-2.92c-.307.117-.64.193-.957.293m1.97-.756l.013 2.937c.332-.152.657-.306.955-.47l-.012-2.918c-.302.165-.633.302-.955.451m3.937-2.884l.012 2.955c.445-.56.749-1.143.95-1.737L26.963.48c-.197.563-.533 1.11-.95 1.642m-9.854 4.487l.014 2.993c.32-.04.637-.09.956-.144l-.014-3.004c-.32.05-.631.12-.956.155m7.888-2.712l.01 2.968c.354-.24.662-.493.956-.748l-.013-2.894c-.272.239-.63.45-.953.674m-9.862 2.828l.012 3.024c.32-.009.64-.017.958-.04l-.012-3.04c-.32.02-.638.048-.958.056M4.303 4.649l.012 2.923c.3.16.629.31.96.457l-.013-2.937c-.323-.144-.654-.28-.96-.443m1.98.893l.012 2.921c.302.112.634.21.958.312L7.24 5.826c-.32-.097-.652-.172-.959-.284M2.322 3.343l.013 2.895c.295.253.607.5.961.734l-.014-2.964c-.326-.219-.683-.431-.96-.665m7.912 3.146l.012 3.005c.32.05.638.095.959.13l-.013-2.993c-.325-.033-.638-.096-.958-.142m1.976.194l.012 3.042c.319.021.64.024.958.029l-.012-3.023c-.322-.005-.64-.03-.958-.048m-3.952-.555l.013 2.954c.317.083.638.161.958.229l-.012-2.99c-.324-.063-.644-.118-.959-.193M1.3 2.263l.013 2.955C.873 4.682.562 4.12.348 3.548L.336.66c.208.55.544 1.085.964 1.603" mask="url(#prefix__j)"/>
                    </g>
                    <mask id="prefix__l" fill="#fff">
                        <use xlink:href="#prefix__k"/>
                    </mask>
                    <path fill="#EE9921" d="M26.87 6.368c1.055 2.53-.141 5.31-3.594 7.301-5.305 3.059-13.925 3.095-19.256.08-5.331-3.014-5.351-7.937-.047-10.995C9.277-.305 17.898-.34 23.229 2.674c1.861 1.052 3.075 2.337 3.641 3.694z" mask="url(#prefix__l)"/>
                    <path fill="#EE9921" d="M22.373 3.167c4.855 2.746 4.874 7.23.042 10.016-4.831 2.786-12.684 2.818-17.539.073C.021 10.51.003 6.026 4.834 3.24 9.666.455 17.518.423 22.374 3.167"/>
                    <path fill="#BC7818" d="M5.075 3.888c4.699-2.711 12.34-2.742 17.062-.071 3.437 1.943 4.37 4.778 2.822 7.223 2.013-2.608 1.156-5.755-2.585-7.872C17.517.423 9.665.455 4.834 3.24 1.108 5.388.278 8.543 2.314 11.134c-1.57-2.432-.66-5.276 2.76-7.246"/>
                    <path fill="#BC7818" d="M19.018 10.535L16.07 8.85c1.038-.136 2.063-.018 2.904.462.349.198.566.414.67.63-.102.21-.312.413-.625.593zm-6.082 1.706c.06.059.132.114.221.163-.089-.049-.16-.104-.22-.163zM8.232 7.18c-.313-.179-.518-.391-.614-.613.085-.198.252-.39.515-.563l2.468 1.41c-.855.172-1.72.136-2.369-.234zM20.29 11.26c.719-.524 1.279-1.221 1.282-1.957l.002-.586c.02-.572-.352-1.232-1.388-1.832-1.912-1.072-3.956-.925-6.462-.277l-1.08.286-2.788-1.592c.527-.03 1.253.05 2.294.327.43.11.742.11 1.118-.107.215-.123.598-.454.598-.802l.003-.586c.005-.166-.092-.358-.386-.526-.723-.414-2.868-.463-5.181.806l-1.379-.788-.958.551-.001.588.911.52C6.098 5.86 5.64 6.5 5.648 7.138c-.003-.021-.004.565-.004.565-.002.61.42 1.221 1.393 1.775 1.601.916 3.628.757 5.756.206l1.218-.323 3.282 1.874c-.58.037-1.468-.028-2.839-.365-.533-.127-.893-.118-1.305.119-.264.152-.468.474-.438.798-.008-.063-.011.523-.011.523 0 .244.126.494.455.682.584.332 2.718.728 5.698-.866l1.792 1.023.959-.55.001-.587-1.316-.75z"/>
                    <path fill="#FFE9CB" d="M19.018 10.535L15.296 8.41c1.288-.323 2.627-.283 3.679.317 1.016.58.95 1.288.043 1.81zM8.232 7.18c-.863-.493-.918-1.23-.098-1.762l3.172 1.81c-1.066.356-2.246.424-3.074-.048zm11.581 3.809c1.576-.906 2.834-2.679.372-4.103-1.912-1.072-3.956-.925-6.462-.277l-1.08.286-3.55-2.028c.531-.204 1.39-.266 3.058.177.43.108.742.108 1.118-.107.327-.188 1.04-.856.213-1.328-.723-.414-2.868-.463-5.181.806l-1.379-.788-.958.551 1.38.788C5.44 6.138 4.867 7.652 7.039 8.894c1.6.912 3.628.755 5.756.204l1.218-.324 4.047 2.312c-.412.158-1.373.335-3.606-.216-.533-.127-.893-.118-1.305.119-.446.255-.732.994.008 1.415.583.336 2.718.73 5.698-.864l1.792 1.023.958-.551-1.792-1.023z"/>
                </g>
                <g transform="translate(2 19)">
                    <g transform="translate(0 5)">
                        <mask id="prefix__n" fill="#fff">
                            <use xlink:href="#prefix__m"/>
                        </mask>
                        <path fill="#BC7818" d="M.01 3.05c-.018 1.047-.013 2.094.013 3.144C.095 9 2.753 11.78 7.997 13.24c3.7 1.03 7.647 1.013 11.34-.046 5.231-1.505 7.865-4.308 7.913-7.114.019-1.048.014-2.095-.012-3.144C27.202 1.56 20.68.887 14.03.887 7.1.887.036 1.617.01 3.05" mask="url(#prefix__n)"/>
                    </g>
                    <g transform="translate(0 9.23)">
                        <mask id="prefix__p" fill="#fff">
                            <use xlink:href="#prefix__o"/>
                        </mask>
                        <path fill="#BC7818" d="M18.132 6.278l.012 2.987c.32-.071.64-.151.957-.237l-.013-2.957c-.314.08-.634.141-.956.207m1.972-.516l.012 2.947c.322-.104.657-.204.956-.32l-.011-2.92c-.307.117-.64.193-.957.293m1.97-.756l.013 2.937c.332-.152.657-.306.955-.47l-.012-2.918c-.302.165-.633.302-.955.451m3.937-2.884l.012 2.955c.445-.56.749-1.143.95-1.737L26.963.48c-.197.563-.533 1.11-.95 1.642m-9.854 4.487l.014 2.993c.32-.04.637-.09.956-.144l-.014-3.004c-.32.05-.631.12-.956.155m7.888-2.712l.01 2.968c.354-.24.662-.493.956-.748l-.013-2.894c-.272.239-.63.45-.953.674m-9.862 2.828l.012 3.024c.32-.009.64-.017.958-.04l-.012-3.04c-.32.02-.638.048-.958.056M4.303 4.649l.012 2.923c.3.16.629.31.96.457l-.013-2.937c-.323-.144-.654-.28-.96-.443m1.98.893l.012 2.921c.302.112.634.21.958.312L7.24 5.826c-.32-.097-.652-.172-.959-.284M2.322 3.343l.013 2.895c.295.253.607.5.961.734l-.014-2.964c-.326-.219-.683-.431-.96-.665m7.912 3.146l.012 3.005c.32.05.638.095.959.13l-.013-2.993c-.325-.033-.638-.096-.958-.142m1.976.194l.012 3.042c.319.021.64.024.958.029l-.012-3.023c-.322-.005-.64-.03-.958-.048m-3.952-.555l.013 2.954c.317.083.638.161.958.229l-.012-2.99c-.324-.063-.644-.118-.959-.193M1.3 2.263l.013 2.955C.873 4.682.562 4.12.348 3.548L.336.66c.208.55.544 1.085.964 1.603" mask="url(#prefix__p)"/>
                    </g>
                    <mask id="prefix__r" fill="#fff">
                        <use xlink:href="#prefix__q"/>
                    </mask>
                    <path fill="#EE9921" d="M26.87 6.368c1.055 2.53-.141 5.31-3.594 7.301-5.305 3.059-13.925 3.095-19.256.08-5.331-3.014-5.351-7.937-.047-10.995C9.277-.305 17.898-.34 23.229 2.674c1.861 1.052 3.075 2.337 3.641 3.694z" mask="url(#prefix__r)"/>
                    <path fill="#EE9921" d="M22.373 3.167c4.855 2.746 4.874 7.23.042 10.016-4.831 2.786-12.684 2.818-17.539.073C.021 10.51.003 6.026 4.834 3.24 9.666.455 17.518.423 22.374 3.167"/>
                    <path fill="#BC7818" d="M5.075 3.888c4.699-2.711 12.34-2.742 17.062-.071 3.437 1.943 4.37 4.778 2.822 7.223 2.013-2.608 1.156-5.755-2.585-7.872C17.517.423 9.665.455 4.834 3.24 1.108 5.388.278 8.543 2.314 11.134c-1.57-2.432-.66-5.276 2.76-7.246"/>
                    <path fill="#BC7818" d="M19.018 10.535L16.07 8.85c1.038-.136 2.063-.018 2.904.462.349.198.566.414.67.63-.102.21-.312.413-.625.593zm-6.082 1.706c.06.059.132.114.221.163-.089-.049-.16-.104-.22-.163zM8.232 7.18c-.313-.179-.518-.391-.614-.613.085-.198.252-.39.515-.563l2.468 1.41c-.855.172-1.72.136-2.369-.234zM20.29 11.26c.719-.524 1.279-1.221 1.282-1.957l.002-.586c.02-.572-.352-1.232-1.388-1.832-1.912-1.072-3.956-.925-6.462-.277l-1.08.286-2.788-1.592c.527-.03 1.253.05 2.294.327.43.11.742.11 1.118-.107.215-.123.598-.454.598-.802l.003-.586c.005-.166-.092-.358-.386-.526-.723-.414-2.868-.463-5.181.806l-1.379-.788-.958.551-.001.588.911.52C6.098 5.86 5.64 6.5 5.648 7.138c-.003-.021-.004.565-.004.565-.002.61.42 1.221 1.393 1.775 1.601.916 3.628.757 5.756.206l1.218-.323 3.282 1.874c-.58.037-1.468-.028-2.839-.365-.533-.127-.893-.118-1.305.119-.264.152-.468.474-.438.798-.008-.063-.011.523-.011.523 0 .244.126.494.455.682.584.332 2.718.728 5.698-.866l1.792 1.023.959-.55.001-.587-1.316-.75z"/>
                    <path fill="#FFE9CB" d="M19.018 10.535L15.296 8.41c1.288-.323 2.627-.283 3.679.317 1.016.58.95 1.288.043 1.81zM8.232 7.18c-.863-.493-.918-1.23-.098-1.762l3.172 1.81c-1.066.356-2.246.424-3.074-.048zm11.581 3.809c1.576-.906 2.834-2.679.372-4.103-1.912-1.072-3.956-.925-6.462-.277l-1.08.286-3.55-2.028c.531-.204 1.39-.266 3.058.177.43.108.742.108 1.118-.107.327-.188 1.04-.856.213-1.328-.723-.414-2.868-.463-5.181.806l-1.379-.788-.958.551 1.38.788C5.44 6.138 4.867 7.652 7.039 8.894c1.6.912 3.628.755 5.756.204l1.218-.324 4.047 2.312c-.412.158-1.373.335-3.606-.216-.533-.127-.893-.118-1.305.119-.446.255-.732.994.008 1.415.583.336 2.718.73 5.698-.864l1.792 1.023.958-.551-1.792-1.023z"/>
                </g>
                <g transform="translate(2 15)">
                    <g transform="translate(0 5)">
                        <mask id="prefix__t" fill="#fff">
                            <use xlink:href="#prefix__s"/>
                        </mask>
                        <path fill="#BC7818" d="M.01 3.05c-.018 1.047-.013 2.094.013 3.144C.095 9 2.753 11.78 7.997 13.24c3.7 1.03 7.647 1.013 11.34-.046 5.231-1.505 7.865-4.308 7.913-7.114.019-1.048.014-2.095-.012-3.144C27.202 1.56 20.68.887 14.03.887 7.1.887.036 1.617.01 3.05" mask="url(#prefix__t)"/>
                    </g>
                    <g transform="translate(0 9.23)">
                        <mask id="prefix__v" fill="#fff">
                            <use xlink:href="#prefix__u"/>
                        </mask>
                        <path fill="#BC7818" d="M18.132 6.278l.012 2.987c.32-.071.64-.151.957-.237l-.013-2.957c-.314.08-.634.141-.956.207m1.972-.516l.012 2.947c.322-.104.657-.204.956-.32l-.011-2.92c-.307.117-.64.193-.957.293m1.97-.756l.013 2.937c.332-.152.657-.306.955-.47l-.012-2.918c-.302.165-.633.302-.955.451m3.937-2.884l.012 2.955c.445-.56.749-1.143.95-1.737L26.963.48c-.197.563-.533 1.11-.95 1.642m-9.854 4.487l.014 2.993c.32-.04.637-.09.956-.144l-.014-3.004c-.32.05-.631.12-.956.155m7.888-2.712l.01 2.968c.354-.24.662-.493.956-.748l-.013-2.894c-.272.239-.63.45-.953.674m-9.862 2.828l.012 3.024c.32-.009.64-.017.958-.04l-.012-3.04c-.32.02-.638.048-.958.056M4.303 4.649l.012 2.923c.3.16.629.31.96.457l-.013-2.937c-.323-.144-.654-.28-.96-.443m1.98.893l.012 2.921c.302.112.634.21.958.312L7.24 5.826c-.32-.097-.652-.172-.959-.284M2.322 3.343l.013 2.895c.295.253.607.5.961.734l-.014-2.964c-.326-.219-.683-.431-.96-.665m7.912 3.146l.012 3.005c.32.05.638.095.959.13l-.013-2.993c-.325-.033-.638-.096-.958-.142m1.976.194l.012 3.042c.319.021.64.024.958.029l-.012-3.023c-.322-.005-.64-.03-.958-.048m-3.952-.555l.013 2.954c.317.083.638.161.958.229l-.012-2.99c-.324-.063-.644-.118-.959-.193M1.3 2.263l.013 2.955C.873 4.682.562 4.12.348 3.548L.336.66c.208.55.544 1.085.964 1.603" mask="url(#prefix__v)"/>
                    </g>
                    <mask id="prefix__x" fill="#fff">
                        <use xlink:href="#prefix__w"/>
                    </mask>
                    <path fill="#EE9921" d="M26.87 6.368c1.055 2.53-.141 5.31-3.594 7.301-5.305 3.059-13.925 3.095-19.256.08-5.331-3.014-5.351-7.937-.047-10.995C9.277-.305 17.898-.34 23.229 2.674c1.861 1.052 3.075 2.337 3.641 3.694z" mask="url(#prefix__x)"/>
                    <path fill="#EE9921" d="M22.373 3.167c4.855 2.746 4.874 7.23.042 10.016-4.831 2.786-12.684 2.818-17.539.073C.021 10.51.003 6.026 4.834 3.24 9.666.455 17.518.423 22.374 3.167"/>
                    <path fill="#BC7818" d="M5.075 3.888c4.699-2.711 12.34-2.742 17.062-.071 3.437 1.943 4.37 4.778 2.822 7.223 2.013-2.608 1.156-5.755-2.585-7.872C17.517.423 9.665.455 4.834 3.24 1.108 5.388.278 8.543 2.314 11.134c-1.57-2.432-.66-5.276 2.76-7.246"/>
                    <path fill="#BC7818" d="M19.018 10.535L16.07 8.85c1.038-.136 2.063-.018 2.904.462.349.198.566.414.67.63-.102.21-.312.413-.625.593zm-6.082 1.706c.06.059.132.114.221.163-.089-.049-.16-.104-.22-.163zM8.232 7.18c-.313-.179-.518-.391-.614-.613.085-.198.252-.39.515-.563l2.468 1.41c-.855.172-1.72.136-2.369-.234zM20.29 11.26c.719-.524 1.279-1.221 1.282-1.957l.002-.586c.02-.572-.352-1.232-1.388-1.832-1.912-1.072-3.956-.925-6.462-.277l-1.08.286-2.788-1.592c.527-.03 1.253.05 2.294.327.43.11.742.11 1.118-.107.215-.123.598-.454.598-.802l.003-.586c.005-.166-.092-.358-.386-.526-.723-.414-2.868-.463-5.181.806l-1.379-.788-.958.551-.001.588.911.52C6.098 5.86 5.64 6.5 5.648 7.138c-.003-.021-.004.565-.004.565-.002.61.42 1.221 1.393 1.775 1.601.916 3.628.757 5.756.206l1.218-.323 3.282 1.874c-.58.037-1.468-.028-2.839-.365-.533-.127-.893-.118-1.305.119-.264.152-.468.474-.438.798-.008-.063-.011.523-.011.523 0 .244.126.494.455.682.584.332 2.718.728 5.698-.866l1.792 1.023.959-.55.001-.587-1.316-.75z"/>
                    <path fill="#FFE9CB" d="M19.018 10.535L15.296 8.41c1.288-.323 2.627-.283 3.679.317 1.016.58.95 1.288.043 1.81zM8.232 7.18c-.863-.493-.918-1.23-.098-1.762l3.172 1.81c-1.066.356-2.246.424-3.074-.048zm11.581 3.809c1.576-.906 2.834-2.679.372-4.103-1.912-1.072-3.956-.925-6.462-.277l-1.08.286-3.55-2.028c.531-.204 1.39-.266 3.058.177.43.108.742.108 1.118-.107.327-.188 1.04-.856.213-1.328-.723-.414-2.868-.463-5.181.806l-1.379-.788-.958.551 1.38.788C5.44 6.138 4.867 7.652 7.039 8.894c1.6.912 3.628.755 5.756.204l1.218-.324 4.047 2.312c-.412.158-1.373.335-3.606-.216-.533-.127-.893-.118-1.305.119-.446.255-.732.994.008 1.415.583.336 2.718.73 5.698-.864l1.792 1.023.958-.551-1.792-1.023z"/>
                </g>
                <g transform="translate(2 11)">
                    <g transform="translate(0 5)">
                        <mask id="prefix__z" fill="#fff">
                            <use xlink:href="#prefix__y"/>
                        </mask>
                        <path fill="#BC7818" d="M.01 3.05c-.018 1.047-.013 2.094.013 3.144C.095 9 2.753 11.78 7.997 13.24c3.7 1.03 7.647 1.013 11.34-.046 5.231-1.505 7.865-4.308 7.913-7.114.019-1.048.014-2.095-.012-3.144C27.202 1.56 20.68.887 14.03.887 7.1.887.036 1.617.01 3.05" mask="url(#prefix__z)"/>
                    </g>
                    <g transform="translate(0 9.23)">
                        <mask id="prefix__B" fill="#fff">
                            <use xlink:href="#prefix__A"/>
                        </mask>
                        <path fill="#BC7818" d="M18.132 6.278l.012 2.987c.32-.071.64-.151.957-.237l-.013-2.957c-.314.08-.634.141-.956.207m1.972-.516l.012 2.947c.322-.104.657-.204.956-.32l-.011-2.92c-.307.117-.64.193-.957.293m1.97-.756l.013 2.937c.332-.152.657-.306.955-.47l-.012-2.918c-.302.165-.633.302-.955.451m3.937-2.884l.012 2.955c.445-.56.749-1.143.95-1.737L26.963.48c-.197.563-.533 1.11-.95 1.642m-9.854 4.487l.014 2.993c.32-.04.637-.09.956-.144l-.014-3.004c-.32.05-.631.12-.956.155m7.888-2.712l.01 2.968c.354-.24.662-.493.956-.748l-.013-2.894c-.272.239-.63.45-.953.674m-9.862 2.828l.012 3.024c.32-.009.64-.017.958-.04l-.012-3.04c-.32.02-.638.048-.958.056M4.303 4.649l.012 2.923c.3.16.629.31.96.457l-.013-2.937c-.323-.144-.654-.28-.96-.443m1.98.893l.012 2.921c.302.112.634.21.958.312L7.24 5.826c-.32-.097-.652-.172-.959-.284M2.322 3.343l.013 2.895c.295.253.607.5.961.734l-.014-2.964c-.326-.219-.683-.431-.96-.665m7.912 3.146l.012 3.005c.32.05.638.095.959.13l-.013-2.993c-.325-.033-.638-.096-.958-.142m1.976.194l.012 3.042c.319.021.64.024.958.029l-.012-3.023c-.322-.005-.64-.03-.958-.048m-3.952-.555l.013 2.954c.317.083.638.161.958.229l-.012-2.99c-.324-.063-.644-.118-.959-.193M1.3 2.263l.013 2.955C.873 4.682.562 4.12.348 3.548L.336.66c.208.55.544 1.085.964 1.603" mask="url(#prefix__B)"/>
                    </g>
                    <mask id="prefix__D" fill="#fff">
                        <use xlink:href="#prefix__C"/>
                    </mask>
                    <path fill="#EE9921" d="M26.87 6.368c1.055 2.53-.141 5.31-3.594 7.301-5.305 3.059-13.925 3.095-19.256.08-5.331-3.014-5.351-7.937-.047-10.995C9.277-.305 17.898-.34 23.229 2.674c1.861 1.052 3.075 2.337 3.641 3.694z" mask="url(#prefix__D)"/>
                    <path fill="#EE9921" d="M22.373 3.167c4.855 2.746 4.874 7.23.042 10.016-4.831 2.786-12.684 2.818-17.539.073C.021 10.51.003 6.026 4.834 3.24 9.666.455 17.518.423 22.374 3.167"/>
                    <path fill="#BC7818" d="M5.075 3.888c4.699-2.711 12.34-2.742 17.062-.071 3.437 1.943 4.37 4.778 2.822 7.223 2.013-2.608 1.156-5.755-2.585-7.872C17.517.423 9.665.455 4.834 3.24 1.108 5.388.278 8.543 2.314 11.134c-1.57-2.432-.66-5.276 2.76-7.246"/>
                    <path fill="#BC7818" d="M19.018 10.535L16.07 8.85c1.038-.136 2.063-.018 2.904.462.349.198.566.414.67.63-.102.21-.312.413-.625.593zm-6.082 1.706c.06.059.132.114.221.163-.089-.049-.16-.104-.22-.163zM8.232 7.18c-.313-.179-.518-.391-.614-.613.085-.198.252-.39.515-.563l2.468 1.41c-.855.172-1.72.136-2.369-.234zM20.29 11.26c.719-.524 1.279-1.221 1.282-1.957l.002-.586c.02-.572-.352-1.232-1.388-1.832-1.912-1.072-3.956-.925-6.462-.277l-1.08.286-2.788-1.592c.527-.03 1.253.05 2.294.327.43.11.742.11 1.118-.107.215-.123.598-.454.598-.802l.003-.586c.005-.166-.092-.358-.386-.526-.723-.414-2.868-.463-5.181.806l-1.379-.788-.958.551-.001.588.911.52C6.098 5.86 5.64 6.5 5.648 7.138c-.003-.021-.004.565-.004.565-.002.61.42 1.221 1.393 1.775 1.601.916 3.628.757 5.756.206l1.218-.323 3.282 1.874c-.58.037-1.468-.028-2.839-.365-.533-.127-.893-.118-1.305.119-.264.152-.468.474-.438.798-.008-.063-.011.523-.011.523 0 .244.126.494.455.682.584.332 2.718.728 5.698-.866l1.792 1.023.959-.55.001-.587-1.316-.75z"/>
                    <path fill="#FFE9CB" d="M19.018 10.535L15.296 8.41c1.288-.323 2.627-.283 3.679.317 1.016.58.95 1.288.043 1.81zM8.232 7.18c-.863-.493-.918-1.23-.098-1.762l3.172 1.81c-1.066.356-2.246.424-3.074-.048zm11.581 3.809c1.576-.906 2.834-2.679.372-4.103-1.912-1.072-3.956-.925-6.462-.277l-1.08.286-3.55-2.028c.531-.204 1.39-.266 3.058.177.43.108.742.108 1.118-.107.327-.188 1.04-.856.213-1.328-.723-.414-2.868-.463-5.181.806l-1.379-.788-.958.551 1.38.788C5.44 6.138 4.867 7.652 7.039 8.894c1.6.912 3.628.755 5.756.204l1.218-.324 4.047 2.312c-.412.158-1.373.335-3.606-.216-.533-.127-.893-.118-1.305.119-.446.255-.732.994.008 1.415.583.336 2.718.73 5.698-.864l1.792 1.023.958-.551-1.792-1.023z"/>
                </g>
                <g transform="translate(0 7)">
                    <g transform="translate(0 5)">
                        <mask id="prefix__F" fill="#fff">
                            <use xlink:href="#prefix__E"/>
                        </mask>
                        <path fill="#BC7818" d="M.01 3.05c-.018 1.047-.013 2.094.013 3.144C.095 9 2.753 11.78 7.997 13.24c3.7 1.03 7.647 1.013 11.34-.046 5.231-1.505 7.865-4.308 7.913-7.114.019-1.048.014-2.095-.012-3.144C27.202 1.56 20.68.887 14.03.887 7.1.887.036 1.617.01 3.05" mask="url(#prefix__F)"/>
                    </g>
                    <g transform="translate(0 9.23)">
                        <mask id="prefix__H" fill="#fff">
                            <use xlink:href="#prefix__G"/>
                        </mask>
                        <path fill="#BC7818" d="M18.132 6.278l.012 2.987c.32-.071.64-.151.957-.237l-.013-2.957c-.314.08-.634.141-.956.207m1.972-.516l.012 2.947c.322-.104.657-.204.956-.32l-.011-2.92c-.307.117-.64.193-.957.293m1.97-.756l.013 2.937c.332-.152.657-.306.955-.47l-.012-2.918c-.302.165-.633.302-.955.451m3.937-2.884l.012 2.955c.445-.56.749-1.143.95-1.737L26.963.48c-.197.563-.533 1.11-.95 1.642m-9.854 4.487l.014 2.993c.32-.04.637-.09.956-.144l-.014-3.004c-.32.05-.631.12-.956.155m7.888-2.712l.01 2.968c.354-.24.662-.493.956-.748l-.013-2.894c-.272.239-.63.45-.953.674m-9.862 2.828l.012 3.024c.32-.009.64-.017.958-.04l-.012-3.04c-.32.02-.638.048-.958.056M4.303 4.649l.012 2.923c.3.16.629.31.96.457l-.013-2.937c-.323-.144-.654-.28-.96-.443m1.98.893l.012 2.921c.302.112.634.21.958.312L7.24 5.826c-.32-.097-.652-.172-.959-.284M2.322 3.343l.013 2.895c.295.253.607.5.961.734l-.014-2.964c-.326-.219-.683-.431-.96-.665m7.912 3.146l.012 3.005c.32.05.638.095.959.13l-.013-2.993c-.325-.033-.638-.096-.958-.142m1.976.194l.012 3.042c.319.021.64.024.958.029l-.012-3.023c-.322-.005-.64-.03-.958-.048m-3.952-.555l.013 2.954c.317.083.638.161.958.229l-.012-2.99c-.324-.063-.644-.118-.959-.193M1.3 2.263l.013 2.955C.873 4.682.562 4.12.348 3.548L.336.66c.208.55.544 1.085.964 1.603" mask="url(#prefix__H)"/>
                    </g>
                    <mask id="prefix__J" fill="#fff">
                        <use xlink:href="#prefix__I"/>
                    </mask>
                    <path fill="#EE9921" d="M26.87 6.368c1.055 2.53-.141 5.31-3.594 7.301-5.305 3.059-13.925 3.095-19.256.08-5.331-3.014-5.351-7.937-.047-10.995C9.277-.305 17.898-.34 23.229 2.674c1.861 1.052 3.075 2.337 3.641 3.694z" mask="url(#prefix__J)"/>
                    <path fill="#EE9921" d="M22.373 3.167c4.855 2.746 4.874 7.23.042 10.016-4.831 2.786-12.684 2.818-17.539.073C.021 10.51.003 6.026 4.834 3.24 9.666.455 17.518.423 22.374 3.167"/>
                    <path fill="#BC7818" d="M5.075 3.888c4.699-2.711 12.34-2.742 17.062-.071 3.437 1.943 4.37 4.778 2.822 7.223 2.013-2.608 1.156-5.755-2.585-7.872C17.517.423 9.665.455 4.834 3.24 1.108 5.388.278 8.543 2.314 11.134c-1.57-2.432-.66-5.276 2.76-7.246"/>
                    <path fill="#BC7818" d="M19.018 10.535L16.07 8.85c1.038-.136 2.063-.018 2.904.462.349.198.566.414.67.63-.102.21-.312.413-.625.593zm-6.082 1.706c.06.059.132.114.221.163-.089-.049-.16-.104-.22-.163zM8.232 7.18c-.313-.179-.518-.391-.614-.613.085-.198.252-.39.515-.563l2.468 1.41c-.855.172-1.72.136-2.369-.234zM20.29 11.26c.719-.524 1.279-1.221 1.282-1.957l.002-.586c.02-.572-.352-1.232-1.388-1.832-1.912-1.072-3.956-.925-6.462-.277l-1.08.286-2.788-1.592c.527-.03 1.253.05 2.294.327.43.11.742.11 1.118-.107.215-.123.598-.454.598-.802l.003-.586c.005-.166-.092-.358-.386-.526-.723-.414-2.868-.463-5.181.806l-1.379-.788-.958.551-.001.588.911.52C6.098 5.86 5.64 6.5 5.648 7.138c-.003-.021-.004.565-.004.565-.002.61.42 1.221 1.393 1.775 1.601.916 3.628.757 5.756.206l1.218-.323 3.282 1.874c-.58.037-1.468-.028-2.839-.365-.533-.127-.893-.118-1.305.119-.264.152-.468.474-.438.798-.008-.063-.011.523-.011.523 0 .244.126.494.455.682.584.332 2.718.728 5.698-.866l1.792 1.023.959-.55.001-.587-1.316-.75z"/>
                    <path fill="#FFE9CB" d="M19.018 10.535L15.296 8.41c1.288-.323 2.627-.283 3.679.317 1.016.58.95 1.288.043 1.81zM8.232 7.18c-.863-.493-.918-1.23-.098-1.762l3.172 1.81c-1.066.356-2.246.424-3.074-.048zm11.581 3.809c1.576-.906 2.834-2.679.372-4.103-1.912-1.072-3.956-.925-6.462-.277l-1.08.286-3.55-2.028c.531-.204 1.39-.266 3.058.177.43.108.742.108 1.118-.107.327-.188 1.04-.856.213-1.328-.723-.414-2.868-.463-5.181.806l-1.379-.788-.958.551 1.38.788C5.44 6.138 4.867 7.652 7.039 8.894c1.6.912 3.628.755 5.756.204l1.218-.324 4.047 2.312c-.412.158-1.373.335-3.606-.216-.533-.127-.893-.118-1.305.119-.446.255-.732.994.008 1.415.583.336 2.718.73 5.698-.864l1.792 1.023.958-.551-1.792-1.023z"/>
                </g>
                <g transform="translate(2 3)">
                    <g transform="translate(0 5)">
                        <mask id="prefix__L" fill="#fff">
                            <use xlink:href="#prefix__K"/>
                        </mask>
                        <path fill="#BC7818" d="M.01 3.05c-.018 1.047-.013 2.094.013 3.144C.095 9 2.753 11.78 7.997 13.24c3.7 1.03 7.647 1.013 11.34-.046 5.231-1.505 7.865-4.308 7.913-7.114.019-1.048.014-2.095-.012-3.144C27.202 1.56 20.68.887 14.03.887 7.1.887.036 1.617.01 3.05" mask="url(#prefix__L)"/>
                    </g>
                    <g transform="translate(0 9.23)">
                        <mask id="prefix__N" fill="#fff">
                            <use xlink:href="#prefix__M"/>
                        </mask>
                        <path fill="#BC7818" d="M18.132 6.278l.012 2.987c.32-.071.64-.151.957-.237l-.013-2.957c-.314.08-.634.141-.956.207m1.972-.516l.012 2.947c.322-.104.657-.204.956-.32l-.011-2.92c-.307.117-.64.193-.957.293m1.97-.756l.013 2.937c.332-.152.657-.306.955-.47l-.012-2.918c-.302.165-.633.302-.955.451m3.937-2.884l.012 2.955c.445-.56.749-1.143.95-1.737L26.963.48c-.197.563-.533 1.11-.95 1.642m-9.854 4.487l.014 2.993c.32-.04.637-.09.956-.144l-.014-3.004c-.32.05-.631.12-.956.155m7.888-2.712l.01 2.968c.354-.24.662-.493.956-.748l-.013-2.894c-.272.239-.63.45-.953.674m-9.862 2.828l.012 3.024c.32-.009.64-.017.958-.04l-.012-3.04c-.32.02-.638.048-.958.056M4.303 4.649l.012 2.923c.3.16.629.31.96.457l-.013-2.937c-.323-.144-.654-.28-.96-.443m1.98.893l.012 2.921c.302.112.634.21.958.312L7.24 5.826c-.32-.097-.652-.172-.959-.284M2.322 3.343l.013 2.895c.295.253.607.5.961.734l-.014-2.964c-.326-.219-.683-.431-.96-.665m7.912 3.146l.012 3.005c.32.05.638.095.959.13l-.013-2.993c-.325-.033-.638-.096-.958-.142m1.976.194l.012 3.042c.319.021.64.024.958.029l-.012-3.023c-.322-.005-.64-.03-.958-.048m-3.952-.555l.013 2.954c.317.083.638.161.958.229l-.012-2.99c-.324-.063-.644-.118-.959-.193M1.3 2.263l.013 2.955C.873 4.682.562 4.12.348 3.548L.336.66c.208.55.544 1.085.964 1.603" mask="url(#prefix__N)"/>
                    </g>
                    <mask id="prefix__P" fill="#fff">
                        <use xlink:href="#prefix__O"/>
                    </mask>
                    <path fill="#EE9921" d="M26.87 6.368c1.055 2.53-.141 5.31-3.594 7.301-5.305 3.059-13.925 3.095-19.256.08-5.331-3.014-5.351-7.937-.047-10.995C9.277-.305 17.898-.34 23.229 2.674c1.861 1.052 3.075 2.337 3.641 3.694z" mask="url(#prefix__P)"/>
                    <path fill="#EE9921" d="M22.373 3.167c4.855 2.746 4.874 7.23.042 10.016-4.831 2.786-12.684 2.818-17.539.073C.021 10.51.003 6.026 4.834 3.24 9.666.455 17.518.423 22.374 3.167"/>
                    <path fill="#BC7818" d="M5.075 3.888c4.699-2.711 12.34-2.742 17.062-.071 3.437 1.943 4.37 4.778 2.822 7.223 2.013-2.608 1.156-5.755-2.585-7.872C17.517.423 9.665.455 4.834 3.24 1.108 5.388.278 8.543 2.314 11.134c-1.57-2.432-.66-5.276 2.76-7.246"/>
                    <path fill="#BC7818" d="M19.018 10.535L16.07 8.85c1.038-.136 2.063-.018 2.904.462.349.198.566.414.67.63-.102.21-.312.413-.625.593zm-6.082 1.706c.06.059.132.114.221.163-.089-.049-.16-.104-.22-.163zM8.232 7.18c-.313-.179-.518-.391-.614-.613.085-.198.252-.39.515-.563l2.468 1.41c-.855.172-1.72.136-2.369-.234zM20.29 11.26c.719-.524 1.279-1.221 1.282-1.957l.002-.586c.02-.572-.352-1.232-1.388-1.832-1.912-1.072-3.956-.925-6.462-.277l-1.08.286-2.788-1.592c.527-.03 1.253.05 2.294.327.43.11.742.11 1.118-.107.215-.123.598-.454.598-.802l.003-.586c.005-.166-.092-.358-.386-.526-.723-.414-2.868-.463-5.181.806l-1.379-.788-.958.551-.001.588.911.52C6.098 5.86 5.64 6.5 5.648 7.138c-.003-.021-.004.565-.004.565-.002.61.42 1.221 1.393 1.775 1.601.916 3.628.757 5.756.206l1.218-.323 3.282 1.874c-.58.037-1.468-.028-2.839-.365-.533-.127-.893-.118-1.305.119-.264.152-.468.474-.438.798-.008-.063-.011.523-.011.523 0 .244.126.494.455.682.584.332 2.718.728 5.698-.866l1.792 1.023.959-.55.001-.587-1.316-.75z"/>
                    <path fill="#FFE9CB" d="M19.018 10.535L15.296 8.41c1.288-.323 2.627-.283 3.679.317 1.016.58.95 1.288.043 1.81zM8.232 7.18c-.863-.493-.918-1.23-.098-1.762l3.172 1.81c-1.066.356-2.246.424-3.074-.048zm11.581 3.809c1.576-.906 2.834-2.679.372-4.103-1.912-1.072-3.956-.925-6.462-.277l-1.08.286-3.55-2.028c.531-.204 1.39-.266 3.058.177.43.108.742.108 1.118-.107.327-.188 1.04-.856.213-1.328-.723-.414-2.868-.463-5.181.806l-1.379-.788-.958.551 1.38.788C5.44 6.138 4.867 7.652 7.039 8.894c1.6.912 3.628.755 5.756.204l1.218-.324 4.047 2.312c-.412.158-1.373.335-3.606-.216-.533-.127-.893-.118-1.305.119-.446.255-.732.994.008 1.415.583.336 2.718.73 5.698-.864l1.792 1.023.958-.551-1.792-1.023z"/>
                </g>
                <g transform="translate(0 5)">
                    <mask id="prefix__R" fill="#fff">
                        <use xlink:href="#prefix__Q"/>
                    </mask>
                    <path fill="#BC7818" d="M.01 3.05c-.018 1.047-.013 2.094.013 3.144C.095 9 2.753 11.78 7.997 13.24c3.7 1.03 7.647 1.013 11.34-.046 5.231-1.505 7.865-4.308 7.913-7.114.019-1.048.014-2.095-.012-3.144C27.202 1.56 20.68.887 14.03.887 7.1.887.036 1.617.01 3.05" mask="url(#prefix__R)"/>
                </g>
                <g transform="translate(0 9.23)">
                    <mask id="prefix__T" fill="#fff">
                        <use xlink:href="#prefix__S"/>
                    </mask>
                    <path fill="#BC7818" d="M18.132 6.278l.012 2.987c.32-.071.64-.151.957-.237l-.013-2.957c-.314.08-.634.141-.956.207m1.972-.516l.012 2.947c.322-.104.657-.204.956-.32l-.011-2.92c-.307.117-.64.193-.957.293m1.97-.756l.013 2.937c.332-.152.657-.306.955-.47l-.012-2.918c-.302.165-.633.302-.955.451m3.937-2.884l.012 2.955c.445-.56.749-1.143.95-1.737L26.963.48c-.197.563-.533 1.11-.95 1.642m-9.854 4.487l.014 2.993c.32-.04.637-.09.956-.144l-.014-3.004c-.32.05-.631.12-.956.155m7.888-2.712l.01 2.968c.354-.24.662-.493.956-.748l-.013-2.894c-.272.239-.63.45-.953.674m-9.862 2.828l.012 3.024c.32-.009.64-.017.958-.04l-.012-3.04c-.32.02-.638.048-.958.056M4.303 4.649l.012 2.923c.3.16.629.31.96.457l-.013-2.937c-.323-.144-.654-.28-.96-.443m1.98.893l.012 2.921c.302.112.634.21.958.312L7.24 5.826c-.32-.097-.652-.172-.959-.284M2.322 3.343l.013 2.895c.295.253.607.5.961.734l-.014-2.964c-.326-.219-.683-.431-.96-.665m7.912 3.146l.012 3.005c.32.05.638.095.959.13l-.013-2.993c-.325-.033-.638-.096-.958-.142m1.976.194l.012 3.042c.319.021.64.024.958.029l-.012-3.023c-.322-.005-.64-.03-.958-.048m-3.952-.555l.013 2.954c.317.083.638.161.958.229l-.012-2.99c-.324-.063-.644-.118-.959-.193M1.3 2.263l.013 2.955C.873 4.682.562 4.12.348 3.548L.336.66c.208.55.544 1.085.964 1.603" mask="url(#prefix__T)"/>
                </g>
                <mask id="prefix__V" fill="#fff">
                    <use xlink:href="#prefix__U"/>
                </mask>
                <path fill="#EE9921" d="M26.87 6.368c1.055 2.53-.141 5.31-3.594 7.301-5.305 3.059-13.925 3.095-19.256.08-5.331-3.014-5.351-7.937-.047-10.995C9.277-.305 17.898-.34 23.229 2.674c1.861 1.052 3.075 2.337 3.641 3.694z" mask="url(#prefix__V)"/>
                <path fill="#EE9921" d="M22.373 3.167c4.855 2.746 4.874 7.23.042 10.016-4.831 2.786-12.684 2.818-17.539.073C.021 10.51.003 6.026 4.834 3.24 9.666.455 17.518.423 22.374 3.167"/>
                <path fill="#BC7818" d="M5.075 3.888c4.699-2.711 12.34-2.742 17.062-.071 3.437 1.943 4.37 4.778 2.822 7.223 2.013-2.608 1.156-5.755-2.585-7.872C17.517.423 9.665.455 4.834 3.24 1.108 5.388.278 8.543 2.314 11.134c-1.57-2.432-.66-5.276 2.76-7.246"/>
                <path fill="#BC7818" d="M19.018 10.535L16.07 8.85c1.038-.136 2.063-.018 2.904.462.349.198.566.414.67.63-.102.21-.312.413-.625.593zm-6.082 1.706c.06.059.132.114.221.163-.089-.049-.16-.104-.22-.163zM8.232 7.18c-.313-.179-.518-.391-.614-.613.085-.198.252-.39.515-.563l2.468 1.41c-.855.172-1.72.136-2.369-.234zM20.29 11.26c.719-.524 1.279-1.221 1.282-1.957l.002-.586c.02-.572-.352-1.232-1.388-1.832-1.912-1.072-3.956-.925-6.462-.277l-1.08.286-2.788-1.592c.527-.03 1.253.05 2.294.327.43.11.742.11 1.118-.107.215-.123.598-.454.598-.802l.003-.586c.005-.166-.092-.358-.386-.526-.723-.414-2.868-.463-5.181.806l-1.379-.788-.958.551-.001.588.911.52C6.098 5.86 5.64 6.5 5.648 7.138c-.003-.021-.004.565-.004.565-.002.61.42 1.221 1.393 1.775 1.601.916 3.628.757 5.756.206l1.218-.323 3.282 1.874c-.58.037-1.468-.028-2.839-.365-.533-.127-.893-.118-1.305.119-.264.152-.468.474-.438.798-.008-.063-.011.523-.011.523 0 .244.126.494.455.682.584.332 2.718.728 5.698-.866l1.792 1.023.959-.55.001-.587-1.316-.75z"/>
                <path fill="#FFE9CB" d="M19.018 10.535L15.296 8.41c1.288-.323 2.627-.283 3.679.317 1.016.58.95 1.288.043 1.81zM8.232 7.18c-.863-.493-.918-1.23-.098-1.762l3.172 1.81c-1.066.356-2.246.424-3.074-.048zm11.581 3.809c1.576-.906 2.834-2.679.372-4.103-1.912-1.072-3.956-.925-6.462-.277l-1.08.286-3.55-2.028c.531-.204 1.39-.266 3.058.177.43.108.742.108 1.118-.107.327-.188 1.04-.856.213-1.328-.723-.414-2.868-.463-5.181.806l-1.379-.788-.958.551 1.38.788C5.44 6.138 4.867 7.652 7.039 8.894c1.6.912 3.628.755 5.756.204l1.218-.324 4.047 2.312c-.412.158-1.373.335-3.606-.216-.533-.127-.893-.118-1.305.119-.446.255-.732.994.008 1.415.583.336 2.718.73 5.698-.864l1.792 1.023.958-.551-1.792-1.023z"/>
                <g transform="translate(23 35)">
                    <g transform="translate(0 5)">
                        <mask id="prefix__X" fill="#fff">
                            <use xlink:href="#prefix__W"/>
                        </mask>
                        <path fill="#BC7818" d="M.01 3.05c-.018 1.047-.013 2.094.013 3.144C.095 9 2.753 11.78 7.997 13.24c3.7 1.03 7.647 1.013 11.34-.046 5.231-1.505 7.865-4.308 7.913-7.114.019-1.048.014-2.095-.012-3.144C27.202 1.56 20.68.887 14.03.887 7.1.887.036 1.617.01 3.05" mask="url(#prefix__X)"/>
                    </g>
                    <g transform="translate(0 9.23)">
                        <mask id="prefix__Z" fill="#fff">
                            <use xlink:href="#prefix__Y"/>
                        </mask>
                        <path fill="#BC7818" d="M18.132 6.278l.012 2.987c.32-.071.64-.151.957-.237l-.013-2.957c-.314.08-.634.141-.956.207m1.972-.516l.012 2.947c.322-.104.657-.204.956-.32l-.011-2.92c-.307.117-.64.193-.957.293m1.97-.756l.013 2.937c.332-.152.657-.306.955-.47l-.012-2.918c-.302.165-.633.302-.955.451m3.937-2.884l.012 2.955c.445-.56.749-1.143.95-1.737L26.963.48c-.197.563-.533 1.11-.95 1.642m-9.854 4.487l.014 2.993c.32-.04.637-.09.956-.144l-.014-3.004c-.32.05-.631.12-.956.155m7.888-2.712l.01 2.968c.354-.24.662-.493.956-.748l-.013-2.894c-.272.239-.63.45-.953.674m-9.862 2.828l.012 3.024c.32-.009.64-.017.958-.04l-.012-3.04c-.32.02-.638.048-.958.056M4.303 4.649l.012 2.923c.3.16.629.31.96.457l-.013-2.937c-.323-.144-.654-.28-.96-.443m1.98.893l.012 2.921c.302.112.634.21.958.312L7.24 5.826c-.32-.097-.652-.172-.959-.284M2.322 3.343l.013 2.895c.295.253.607.5.961.734l-.014-2.964c-.326-.219-.683-.431-.96-.665m7.912 3.146l.012 3.005c.32.05.638.095.959.13l-.013-2.993c-.325-.033-.638-.096-.958-.142m1.976.194l.012 3.042c.319.021.64.024.958.029l-.012-3.023c-.322-.005-.64-.03-.958-.048m-3.952-.555l.013 2.954c.317.083.638.161.958.229l-.012-2.99c-.324-.063-.644-.118-.959-.193M1.3 2.263l.013 2.955C.873 4.682.562 4.12.348 3.548L.336.66c.208.55.544 1.085.964 1.603" mask="url(#prefix__Z)"/>
                    </g>
                    <mask id="prefix__ab" fill="#fff">
                        <use xlink:href="#prefix__aa"/>
                    </mask>
                    <path fill="#EE9921" d="M26.87 6.368c1.055 2.53-.141 5.31-3.594 7.301-5.305 3.059-13.925 3.095-19.256.08-5.331-3.014-5.351-7.937-.047-10.995C9.277-.305 17.898-.34 23.229 2.674c1.861 1.052 3.075 2.337 3.641 3.694z" mask="url(#prefix__ab)"/>
                    <path fill="#EE9921" d="M22.373 3.167c4.855 2.746 4.874 7.23.042 10.016-4.831 2.786-12.684 2.818-17.539.073C.021 10.51.003 6.026 4.834 3.24 9.666.455 17.518.423 22.374 3.167"/>
                    <path fill="#BC7818" d="M5.075 3.888c4.699-2.711 12.34-2.742 17.062-.071 3.437 1.943 4.37 4.778 2.822 7.223 2.013-2.608 1.156-5.755-2.585-7.872C17.517.423 9.665.455 4.834 3.24 1.108 5.388.278 8.543 2.314 11.134c-1.57-2.432-.66-5.276 2.76-7.246"/>
                    <path fill="#BC7818" d="M19.018 10.535L16.07 8.85c1.038-.136 2.063-.018 2.904.462.349.198.566.414.67.63-.102.21-.312.413-.625.593zm-6.082 1.706c.06.059.132.114.221.163-.089-.049-.16-.104-.22-.163zM8.232 7.18c-.313-.179-.518-.391-.614-.613.085-.198.252-.39.515-.563l2.468 1.41c-.855.172-1.72.136-2.369-.234zM20.29 11.26c.719-.524 1.279-1.221 1.282-1.957l.002-.586c.02-.572-.352-1.232-1.388-1.832-1.912-1.072-3.956-.925-6.462-.277l-1.08.286-2.788-1.592c.527-.03 1.253.05 2.294.327.43.11.742.11 1.118-.107.215-.123.598-.454.598-.802l.003-.586c.005-.166-.092-.358-.386-.526-.723-.414-2.868-.463-5.181.806l-1.379-.788-.958.551-.001.588.911.52C6.098 5.86 5.64 6.5 5.648 7.138c-.003-.021-.004.565-.004.565-.002.61.42 1.221 1.393 1.775 1.601.916 3.628.757 5.756.206l1.218-.323 3.282 1.874c-.58.037-1.468-.028-2.839-.365-.533-.127-.893-.118-1.305.119-.264.152-.468.474-.438.798-.008-.063-.011.523-.011.523 0 .244.126.494.455.682.584.332 2.718.728 5.698-.866l1.792 1.023.959-.55.001-.587-1.316-.75z"/>
                    <path fill="#FFE9CB" d="M19.018 10.535L15.296 8.41c1.288-.323 2.627-.283 3.679.317 1.016.58.95 1.288.043 1.81zM8.232 7.18c-.863-.493-.918-1.23-.098-1.762l3.172 1.81c-1.066.356-2.246.424-3.074-.048zm11.581 3.809c1.576-.906 2.834-2.679.372-4.103-1.912-1.072-3.956-.925-6.462-.277l-1.08.286-3.55-2.028c.531-.204 1.39-.266 3.058.177.43.108.742.108 1.118-.107.327-.188 1.04-.856.213-1.328-.723-.414-2.868-.463-5.181.806l-1.379-.788-.958.551 1.38.788C5.44 6.138 4.867 7.652 7.039 8.894c1.6.912 3.628.755 5.756.204l1.218-.324 4.047 2.312c-.412.158-1.373.335-3.606-.216-.533-.127-.893-.118-1.305.119-.446.255-.732.994.008 1.415.583.336 2.718.73 5.698-.864l1.792 1.023.958-.551-1.792-1.023z"/>
                </g>
                <g transform="translate(25 31)">
                    <g transform="translate(0 5)">
                        <mask id="prefix__ad" fill="#fff">
                            <use xlink:href="#prefix__ac"/>
                        </mask>
                        <path fill="#BC7818" d="M.01 3.05c-.018 1.047-.013 2.094.013 3.144C.095 9 2.753 11.78 7.997 13.24c3.7 1.03 7.647 1.013 11.34-.046 5.231-1.505 7.865-4.308 7.913-7.114.019-1.048.014-2.095-.012-3.144C27.202 1.56 20.68.887 14.03.887 7.1.887.036 1.617.01 3.05" mask="url(#prefix__ad)"/>
                    </g>
                    <g transform="translate(0 9.23)">
                        <mask id="prefix__af" fill="#fff">
                            <use xlink:href="#prefix__ae"/>
                        </mask>
                        <path fill="#BC7818" d="M18.132 6.278l.012 2.987c.32-.071.64-.151.957-.237l-.013-2.957c-.314.08-.634.141-.956.207m1.972-.516l.012 2.947c.322-.104.657-.204.956-.32l-.011-2.92c-.307.117-.64.193-.957.293m1.97-.756l.013 2.937c.332-.152.657-.306.955-.47l-.012-2.918c-.302.165-.633.302-.955.451m3.937-2.884l.012 2.955c.445-.56.749-1.143.95-1.737L26.963.48c-.197.563-.533 1.11-.95 1.642m-9.854 4.487l.014 2.993c.32-.04.637-.09.956-.144l-.014-3.004c-.32.05-.631.12-.956.155m7.888-2.712l.01 2.968c.354-.24.662-.493.956-.748l-.013-2.894c-.272.239-.63.45-.953.674m-9.862 2.828l.012 3.024c.32-.009.64-.017.958-.04l-.012-3.04c-.32.02-.638.048-.958.056M4.303 4.649l.012 2.923c.3.16.629.31.96.457l-.013-2.937c-.323-.144-.654-.28-.96-.443m1.98.893l.012 2.921c.302.112.634.21.958.312L7.24 5.826c-.32-.097-.652-.172-.959-.284M2.322 3.343l.013 2.895c.295.253.607.5.961.734l-.014-2.964c-.326-.219-.683-.431-.96-.665m7.912 3.146l.012 3.005c.32.05.638.095.959.13l-.013-2.993c-.325-.033-.638-.096-.958-.142m1.976.194l.012 3.042c.319.021.64.024.958.029l-.012-3.023c-.322-.005-.64-.03-.958-.048m-3.952-.555l.013 2.954c.317.083.638.161.958.229l-.012-2.99c-.324-.063-.644-.118-.959-.193M1.3 2.263l.013 2.955C.873 4.682.562 4.12.348 3.548L.336.66c.208.55.544 1.085.964 1.603" mask="url(#prefix__af)"/>
                    </g>
                    <mask id="prefix__ah" fill="#fff">
                        <use xlink:href="#prefix__ag"/>
                    </mask>
                    <path fill="#EE9921" d="M26.87 6.368c1.055 2.53-.141 5.31-3.594 7.301-5.305 3.059-13.925 3.095-19.256.08-5.331-3.014-5.351-7.937-.047-10.995C9.277-.305 17.898-.34 23.229 2.674c1.861 1.052 3.075 2.337 3.641 3.694z" mask="url(#prefix__ah)"/>
                    <path fill="#EE9921" d="M22.373 3.167c4.855 2.746 4.874 7.23.042 10.016-4.831 2.786-12.684 2.818-17.539.073C.021 10.51.003 6.026 4.834 3.24 9.666.455 17.518.423 22.374 3.167"/>
                    <path fill="#BC7818" d="M5.075 3.888c4.699-2.711 12.34-2.742 17.062-.071 3.437 1.943 4.37 4.778 2.822 7.223 2.013-2.608 1.156-5.755-2.585-7.872C17.517.423 9.665.455 4.834 3.24 1.108 5.388.278 8.543 2.314 11.134c-1.57-2.432-.66-5.276 2.76-7.246"/>
                    <path fill="#BC7818" d="M19.018 10.535L16.07 8.85c1.038-.136 2.063-.018 2.904.462.349.198.566.414.67.63-.102.21-.312.413-.625.593zm-6.082 1.706c.06.059.132.114.221.163-.089-.049-.16-.104-.22-.163zM8.232 7.18c-.313-.179-.518-.391-.614-.613.085-.198.252-.39.515-.563l2.468 1.41c-.855.172-1.72.136-2.369-.234zM20.29 11.26c.719-.524 1.279-1.221 1.282-1.957l.002-.586c.02-.572-.352-1.232-1.388-1.832-1.912-1.072-3.956-.925-6.462-.277l-1.08.286-2.788-1.592c.527-.03 1.253.05 2.294.327.43.11.742.11 1.118-.107.215-.123.598-.454.598-.802l.003-.586c.005-.166-.092-.358-.386-.526-.723-.414-2.868-.463-5.181.806l-1.379-.788-.958.551-.001.588.911.52C6.098 5.86 5.64 6.5 5.648 7.138c-.003-.021-.004.565-.004.565-.002.61.42 1.221 1.393 1.775 1.601.916 3.628.757 5.756.206l1.218-.323 3.282 1.874c-.58.037-1.468-.028-2.839-.365-.533-.127-.893-.118-1.305.119-.264.152-.468.474-.438.798-.008-.063-.011.523-.011.523 0 .244.126.494.455.682.584.332 2.718.728 5.698-.866l1.792 1.023.959-.55.001-.587-1.316-.75z"/>
                    <path fill="#FFE9CB" d="M19.018 10.535L15.296 8.41c1.288-.323 2.627-.283 3.679.317 1.016.58.95 1.288.043 1.81zM8.232 7.18c-.863-.493-.918-1.23-.098-1.762l3.172 1.81c-1.066.356-2.246.424-3.074-.048zm11.581 3.809c1.576-.906 2.834-2.679.372-4.103-1.912-1.072-3.956-.925-6.462-.277l-1.08.286-3.55-2.028c.531-.204 1.39-.266 3.058.177.43.108.742.108 1.118-.107.327-.188 1.04-.856.213-1.328-.723-.414-2.868-.463-5.181.806l-1.379-.788-.958.551 1.38.788C5.44 6.138 4.867 7.652 7.039 8.894c1.6.912 3.628.755 5.756.204l1.218-.324 4.047 2.312c-.412.158-1.373.335-3.606-.216-.533-.127-.893-.118-1.305.119-.446.255-.732.994.008 1.415.583.336 2.718.73 5.698-.864l1.792 1.023.958-.551-1.792-1.023z"/>
                </g>
                <g transform="translate(23 27)">
                    <g transform="translate(0 5)">
                        <mask id="prefix__aj" fill="#fff">
                            <use xlink:href="#prefix__ai"/>
                        </mask>
                        <path fill="#BC7818" d="M.01 3.05c-.018 1.047-.013 2.094.013 3.144C.095 9 2.753 11.78 7.997 13.24c3.7 1.03 7.647 1.013 11.34-.046 5.231-1.505 7.865-4.308 7.913-7.114.019-1.048.014-2.095-.012-3.144C27.202 1.56 20.68.887 14.03.887 7.1.887.036 1.617.01 3.05" mask="url(#prefix__aj)"/>
                    </g>
                    <g transform="translate(0 9.23)">
                        <mask id="prefix__al" fill="#fff">
                            <use xlink:href="#prefix__ak"/>
                        </mask>
                        <path fill="#BC7818" d="M18.132 6.278l.012 2.987c.32-.071.64-.151.957-.237l-.013-2.957c-.314.08-.634.141-.956.207m1.972-.516l.012 2.947c.322-.104.657-.204.956-.32l-.011-2.92c-.307.117-.64.193-.957.293m1.97-.756l.013 2.937c.332-.152.657-.306.955-.47l-.012-2.918c-.302.165-.633.302-.955.451m3.937-2.884l.012 2.955c.445-.56.749-1.143.95-1.737L26.963.48c-.197.563-.533 1.11-.95 1.642m-9.854 4.487l.014 2.993c.32-.04.637-.09.956-.144l-.014-3.004c-.32.05-.631.12-.956.155m7.888-2.712l.01 2.968c.354-.24.662-.493.956-.748l-.013-2.894c-.272.239-.63.45-.953.674m-9.862 2.828l.012 3.024c.32-.009.64-.017.958-.04l-.012-3.04c-.32.02-.638.048-.958.056M4.303 4.649l.012 2.923c.3.16.629.31.96.457l-.013-2.937c-.323-.144-.654-.28-.96-.443m1.98.893l.012 2.921c.302.112.634.21.958.312L7.24 5.826c-.32-.097-.652-.172-.959-.284M2.322 3.343l.013 2.895c.295.253.607.5.961.734l-.014-2.964c-.326-.219-.683-.431-.96-.665m7.912 3.146l.012 3.005c.32.05.638.095.959.13l-.013-2.993c-.325-.033-.638-.096-.958-.142m1.976.194l.012 3.042c.319.021.64.024.958.029l-.012-3.023c-.322-.005-.64-.03-.958-.048m-3.952-.555l.013 2.954c.317.083.638.161.958.229l-.012-2.99c-.324-.063-.644-.118-.959-.193M1.3 2.263l.013 2.955C.873 4.682.562 4.12.348 3.548L.336.66c.208.55.544 1.085.964 1.603" mask="url(#prefix__al)"/>
                    </g>
                    <mask id="prefix__an" fill="#fff">
                        <use xlink:href="#prefix__am"/>
                    </mask>
                    <path fill="#EE9921" d="M26.87 6.368c1.055 2.53-.141 5.31-3.594 7.301-5.305 3.059-13.925 3.095-19.256.08-5.331-3.014-5.351-7.937-.047-10.995C9.277-.305 17.898-.34 23.229 2.674c1.861 1.052 3.075 2.337 3.641 3.694z" mask="url(#prefix__an)"/>
                    <path fill="#EE9921" d="M22.373 3.167c4.855 2.746 4.874 7.23.042 10.016-4.831 2.786-12.684 2.818-17.539.073C.021 10.51.003 6.026 4.834 3.24 9.666.455 17.518.423 22.374 3.167"/>
                    <path fill="#BC7818" d="M5.075 3.888c4.699-2.711 12.34-2.742 17.062-.071 3.437 1.943 4.37 4.778 2.822 7.223 2.013-2.608 1.156-5.755-2.585-7.872C17.517.423 9.665.455 4.834 3.24 1.108 5.388.278 8.543 2.314 11.134c-1.57-2.432-.66-5.276 2.76-7.246"/>
                    <path fill="#BC7818" d="M19.018 10.535L16.07 8.85c1.038-.136 2.063-.018 2.904.462.349.198.566.414.67.63-.102.21-.312.413-.625.593zm-6.082 1.706c.06.059.132.114.221.163-.089-.049-.16-.104-.22-.163zM8.232 7.18c-.313-.179-.518-.391-.614-.613.085-.198.252-.39.515-.563l2.468 1.41c-.855.172-1.72.136-2.369-.234zM20.29 11.26c.719-.524 1.279-1.221 1.282-1.957l.002-.586c.02-.572-.352-1.232-1.388-1.832-1.912-1.072-3.956-.925-6.462-.277l-1.08.286-2.788-1.592c.527-.03 1.253.05 2.294.327.43.11.742.11 1.118-.107.215-.123.598-.454.598-.802l.003-.586c.005-.166-.092-.358-.386-.526-.723-.414-2.868-.463-5.181.806l-1.379-.788-.958.551-.001.588.911.52C6.098 5.86 5.64 6.5 5.648 7.138c-.003-.021-.004.565-.004.565-.002.61.42 1.221 1.393 1.775 1.601.916 3.628.757 5.756.206l1.218-.323 3.282 1.874c-.58.037-1.468-.028-2.839-.365-.533-.127-.893-.118-1.305.119-.264.152-.468.474-.438.798-.008-.063-.011.523-.011.523 0 .244.126.494.455.682.584.332 2.718.728 5.698-.866l1.792 1.023.959-.55.001-.587-1.316-.75z"/>
                    <path fill="#FFE9CB" d="M19.018 10.535L15.296 8.41c1.288-.323 2.627-.283 3.679.317 1.016.58.95 1.288.043 1.81zM8.232 7.18c-.863-.493-.918-1.23-.098-1.762l3.172 1.81c-1.066.356-2.246.424-3.074-.048zm11.581 3.809c1.576-.906 2.834-2.679.372-4.103-1.912-1.072-3.956-.925-6.462-.277l-1.08.286-3.55-2.028c.531-.204 1.39-.266 3.058.177.43.108.742.108 1.118-.107.327-.188 1.04-.856.213-1.328-.723-.414-2.868-.463-5.181.806l-1.379-.788-.958.551 1.38.788C5.44 6.138 4.867 7.652 7.039 8.894c1.6.912 3.628.755 5.756.204l1.218-.324 4.047 2.312c-.412.158-1.373.335-3.606-.216-.533-.127-.893-.118-1.305.119-.446.255-.732.994.008 1.415.583.336 2.718.73 5.698-.864l1.792 1.023.958-.551-1.792-1.023z"/>
                </g>
                <g transform="translate(23 23)">
                    <g transform="translate(0 5)">
                        <mask id="prefix__ap" fill="#fff">
                            <use xlink:href="#prefix__ao"/>
                        </mask>
                        <path fill="#BC7818" d="M.01 3.05c-.018 1.047-.013 2.094.013 3.144C.095 9 2.753 11.78 7.997 13.24c3.7 1.03 7.647 1.013 11.34-.046 5.231-1.505 7.865-4.308 7.913-7.114.019-1.048.014-2.095-.012-3.144C27.202 1.56 20.68.887 14.03.887 7.1.887.036 1.617.01 3.05" mask="url(#prefix__ap)"/>
                    </g>
                    <g transform="translate(0 9.23)">
                        <mask id="prefix__ar" fill="#fff">
                            <use xlink:href="#prefix__aq"/>
                        </mask>
                        <path fill="#BC7818" d="M18.132 6.278l.012 2.987c.32-.071.64-.151.957-.237l-.013-2.957c-.314.08-.634.141-.956.207m1.972-.516l.012 2.947c.322-.104.657-.204.956-.32l-.011-2.92c-.307.117-.64.193-.957.293m1.97-.756l.013 2.937c.332-.152.657-.306.955-.47l-.012-2.918c-.302.165-.633.302-.955.451m3.937-2.884l.012 2.955c.445-.56.749-1.143.95-1.737L26.963.48c-.197.563-.533 1.11-.95 1.642m-9.854 4.487l.014 2.993c.32-.04.637-.09.956-.144l-.014-3.004c-.32.05-.631.12-.956.155m7.888-2.712l.01 2.968c.354-.24.662-.493.956-.748l-.013-2.894c-.272.239-.63.45-.953.674m-9.862 2.828l.012 3.024c.32-.009.64-.017.958-.04l-.012-3.04c-.32.02-.638.048-.958.056M4.303 4.649l.012 2.923c.3.16.629.31.96.457l-.013-2.937c-.323-.144-.654-.28-.96-.443m1.98.893l.012 2.921c.302.112.634.21.958.312L7.24 5.826c-.32-.097-.652-.172-.959-.284M2.322 3.343l.013 2.895c.295.253.607.5.961.734l-.014-2.964c-.326-.219-.683-.431-.96-.665m7.912 3.146l.012 3.005c.32.05.638.095.959.13l-.013-2.993c-.325-.033-.638-.096-.958-.142m1.976.194l.012 3.042c.319.021.64.024.958.029l-.012-3.023c-.322-.005-.64-.03-.958-.048m-3.952-.555l.013 2.954c.317.083.638.161.958.229l-.012-2.99c-.324-.063-.644-.118-.959-.193M1.3 2.263l.013 2.955C.873 4.682.562 4.12.348 3.548L.336.66c.208.55.544 1.085.964 1.603" mask="url(#prefix__ar)"/>
                    </g>
                    <mask id="prefix__at" fill="#fff">
                        <use xlink:href="#prefix__as"/>
                    </mask>
                    <path fill="#EE9921" d="M26.87 6.368c1.055 2.53-.141 5.31-3.594 7.301-5.305 3.059-13.925 3.095-19.256.08-5.331-3.014-5.351-7.937-.047-10.995C9.277-.305 17.898-.34 23.229 2.674c1.861 1.052 3.075 2.337 3.641 3.694z" mask="url(#prefix__at)"/>
                    <path fill="#EE9921" d="M22.373 3.167c4.855 2.746 4.874 7.23.042 10.016-4.831 2.786-12.684 2.818-17.539.073C.021 10.51.003 6.026 4.834 3.24 9.666.455 17.518.423 22.374 3.167"/>
                    <path fill="#BC7818" d="M5.075 3.888c4.699-2.711 12.34-2.742 17.062-.071 3.437 1.943 4.37 4.778 2.822 7.223 2.013-2.608 1.156-5.755-2.585-7.872C17.517.423 9.665.455 4.834 3.24 1.108 5.388.278 8.543 2.314 11.134c-1.57-2.432-.66-5.276 2.76-7.246"/>
                    <path fill="#BC7818" d="M19.018 10.535L16.07 8.85c1.038-.136 2.063-.018 2.904.462.349.198.566.414.67.63-.102.21-.312.413-.625.593zm-6.082 1.706c.06.059.132.114.221.163-.089-.049-.16-.104-.22-.163zM8.232 7.18c-.313-.179-.518-.391-.614-.613.085-.198.252-.39.515-.563l2.468 1.41c-.855.172-1.72.136-2.369-.234zM20.29 11.26c.719-.524 1.279-1.221 1.282-1.957l.002-.586c.02-.572-.352-1.232-1.388-1.832-1.912-1.072-3.956-.925-6.462-.277l-1.08.286-2.788-1.592c.527-.03 1.253.05 2.294.327.43.11.742.11 1.118-.107.215-.123.598-.454.598-.802l.003-.586c.005-.166-.092-.358-.386-.526-.723-.414-2.868-.463-5.181.806l-1.379-.788-.958.551-.001.588.911.52C6.098 5.86 5.64 6.5 5.648 7.138c-.003-.021-.004.565-.004.565-.002.61.42 1.221 1.393 1.775 1.601.916 3.628.757 5.756.206l1.218-.323 3.282 1.874c-.58.037-1.468-.028-2.839-.365-.533-.127-.893-.118-1.305.119-.264.152-.468.474-.438.798-.008-.063-.011.523-.011.523 0 .244.126.494.455.682.584.332 2.718.728 5.698-.866l1.792 1.023.959-.55.001-.587-1.316-.75z"/>
                    <path fill="#FFE9CB" d="M19.018 10.535L15.296 8.41c1.288-.323 2.627-.283 3.679.317 1.016.58.95 1.288.043 1.81zM8.232 7.18c-.863-.493-.918-1.23-.098-1.762l3.172 1.81c-1.066.356-2.246.424-3.074-.048zm11.581 3.809c1.576-.906 2.834-2.679.372-4.103-1.912-1.072-3.956-.925-6.462-.277l-1.08.286-3.55-2.028c.531-.204 1.39-.266 3.058.177.43.108.742.108 1.118-.107.327-.188 1.04-.856.213-1.328-.723-.414-2.868-.463-5.181.806l-1.379-.788-.958.551 1.38.788C5.44 6.138 4.867 7.652 7.039 8.894c1.6.912 3.628.755 5.756.204l1.218-.324 4.047 2.312c-.412.158-1.373.335-3.606-.216-.533-.127-.893-.118-1.305.119-.446.255-.732.994.008 1.415.583.336 2.718.73 5.698-.864l1.792 1.023.958-.551-1.792-1.023z"/>
                </g>
                <g transform="translate(24 19)">
                    <g transform="translate(0 5)">
                        <mask id="prefix__av" fill="#fff">
                            <use xlink:href="#prefix__au"/>
                        </mask>
                        <path fill="#BC7818" d="M.01 3.05c-.018 1.047-.013 2.094.013 3.144C.095 9 2.753 11.78 7.997 13.24c3.7 1.03 7.647 1.013 11.34-.046 5.231-1.505 7.865-4.308 7.913-7.114.019-1.048.014-2.095-.012-3.144C27.202 1.56 20.68.887 14.03.887 7.1.887.036 1.617.01 3.05" mask="url(#prefix__av)"/>
                    </g>
                    <g transform="translate(0 9.23)">
                        <mask id="prefix__ax" fill="#fff">
                            <use xlink:href="#prefix__aw"/>
                        </mask>
                        <path fill="#BC7818" d="M18.132 6.278l.012 2.987c.32-.071.64-.151.957-.237l-.013-2.957c-.314.08-.634.141-.956.207m1.972-.516l.012 2.947c.322-.104.657-.204.956-.32l-.011-2.92c-.307.117-.64.193-.957.293m1.97-.756l.013 2.937c.332-.152.657-.306.955-.47l-.012-2.918c-.302.165-.633.302-.955.451m3.937-2.884l.012 2.955c.445-.56.749-1.143.95-1.737L26.963.48c-.197.563-.533 1.11-.95 1.642m-9.854 4.487l.014 2.993c.32-.04.637-.09.956-.144l-.014-3.004c-.32.05-.631.12-.956.155m7.888-2.712l.01 2.968c.354-.24.662-.493.956-.748l-.013-2.894c-.272.239-.63.45-.953.674m-9.862 2.828l.012 3.024c.32-.009.64-.017.958-.04l-.012-3.04c-.32.02-.638.048-.958.056M4.303 4.649l.012 2.923c.3.16.629.31.96.457l-.013-2.937c-.323-.144-.654-.28-.96-.443m1.98.893l.012 2.921c.302.112.634.21.958.312L7.24 5.826c-.32-.097-.652-.172-.959-.284M2.322 3.343l.013 2.895c.295.253.607.5.961.734l-.014-2.964c-.326-.219-.683-.431-.96-.665m7.912 3.146l.012 3.005c.32.05.638.095.959.13l-.013-2.993c-.325-.033-.638-.096-.958-.142m1.976.194l.012 3.042c.319.021.64.024.958.029l-.012-3.023c-.322-.005-.64-.03-.958-.048m-3.952-.555l.013 2.954c.317.083.638.161.958.229l-.012-2.99c-.324-.063-.644-.118-.959-.193M1.3 2.263l.013 2.955C.873 4.682.562 4.12.348 3.548L.336.66c.208.55.544 1.085.964 1.603" mask="url(#prefix__ax)"/>
                    </g>
                    <mask id="prefix__az" fill="#fff">
                        <use xlink:href="#prefix__ay"/>
                    </mask>
                    <path fill="#EE9921" d="M26.87 6.368c1.055 2.53-.141 5.31-3.594 7.301-5.305 3.059-13.925 3.095-19.256.08-5.331-3.014-5.351-7.937-.047-10.995C9.277-.305 17.898-.34 23.229 2.674c1.861 1.052 3.075 2.337 3.641 3.694z" mask="url(#prefix__az)"/>
                    <path fill="#EE9921" d="M22.373 3.167c4.855 2.746 4.874 7.23.042 10.016-4.831 2.786-12.684 2.818-17.539.073C.021 10.51.003 6.026 4.834 3.24 9.666.455 17.518.423 22.374 3.167"/>
                    <path fill="#BC7818" d="M5.075 3.888c4.699-2.711 12.34-2.742 17.062-.071 3.437 1.943 4.37 4.778 2.822 7.223 2.013-2.608 1.156-5.755-2.585-7.872C17.517.423 9.665.455 4.834 3.24 1.108 5.388.278 8.543 2.314 11.134c-1.57-2.432-.66-5.276 2.76-7.246"/>
                    <path fill="#BC7818" d="M19.018 10.535L16.07 8.85c1.038-.136 2.063-.018 2.904.462.349.198.566.414.67.63-.102.21-.312.413-.625.593zm-6.082 1.706c.06.059.132.114.221.163-.089-.049-.16-.104-.22-.163zM8.232 7.18c-.313-.179-.518-.391-.614-.613.085-.198.252-.39.515-.563l2.468 1.41c-.855.172-1.72.136-2.369-.234zM20.29 11.26c.719-.524 1.279-1.221 1.282-1.957l.002-.586c.02-.572-.352-1.232-1.388-1.832-1.912-1.072-3.956-.925-6.462-.277l-1.08.286-2.788-1.592c.527-.03 1.253.05 2.294.327.43.11.742.11 1.118-.107.215-.123.598-.454.598-.802l.003-.586c.005-.166-.092-.358-.386-.526-.723-.414-2.868-.463-5.181.806l-1.379-.788-.958.551-.001.588.911.52C6.098 5.86 5.64 6.5 5.648 7.138c-.003-.021-.004.565-.004.565-.002.61.42 1.221 1.393 1.775 1.601.916 3.628.757 5.756.206l1.218-.323 3.282 1.874c-.58.037-1.468-.028-2.839-.365-.533-.127-.893-.118-1.305.119-.264.152-.468.474-.438.798-.008-.063-.011.523-.011.523 0 .244.126.494.455.682.584.332 2.718.728 5.698-.866l1.792 1.023.959-.55.001-.587-1.316-.75z"/>
                    <path fill="#FFE9CB" d="M19.018 10.535L15.296 8.41c1.288-.323 2.627-.283 3.679.317 1.016.58.95 1.288.043 1.81zM8.232 7.18c-.863-.493-.918-1.23-.098-1.762l3.172 1.81c-1.066.356-2.246.424-3.074-.048zm11.581 3.809c1.576-.906 2.834-2.679.372-4.103-1.912-1.072-3.956-.925-6.462-.277l-1.08.286-3.55-2.028c.531-.204 1.39-.266 3.058.177.43.108.742.108 1.118-.107.327-.188 1.04-.856.213-1.328-.723-.414-2.868-.463-5.181.806l-1.379-.788-.958.551 1.38.788C5.44 6.138 4.867 7.652 7.039 8.894c1.6.912 3.628.755 5.756.204l1.218-.324 4.047 2.312c-.412.158-1.373.335-3.606-.216-.533-.127-.893-.118-1.305.119-.446.255-.732.994.008 1.415.583.336 2.718.73 5.698-.864l1.792 1.023.958-.551-1.792-1.023z"/>
                </g>
            </g>
        </g>
    </g>
</svg>
