<svg width="24" height="20" viewBox="0 0 24 20" xmlns="http://www.w3.org/2000/svg">
    <g fill="none" fill-rule="evenodd">
        <path fill="#005EB8" d="M2 0h22l-3.841 7.57L24 15H2z"/>
        <path d="M5.412 11V7.919H8.24V11h1.509V3.861H8.239V6.66H5.412V3.861H3.898V11h1.514zm12.578 1.7-1.719-1.92a2.725 2.725 0 0 0 1.312-1.247c.297-.568.446-1.272.446-2.112 0-1.185-.29-2.093-.871-2.725-.581-.631-1.42-.947-2.517-.947s-1.94.313-2.527.94c-.588.627-.882 1.534-.882 2.722s.293 2.1.88 2.735c.585.634 1.425.952 2.519.952h.112l1.309 1.601h1.938zm-3.36-2.872c-.601 0-1.054-.202-1.357-.605-.302-.404-.454-1.005-.454-1.802 0-.798.153-1.399.46-1.804.305-.406.76-.608 1.362-.608 1.2 0 1.801.804 1.801 2.412 0 1.605-.603 2.407-1.811 2.407z" fill="#FFF" fill-rule="nonzero"/>
        <path fill="#2B2826" d="M2 0H1v20h1z"/>
        <path fill="#2B2826" d="M3 19H0v1h3z"/>
    </g>
</svg>
