<svg id="background" xmlns="http://www.w3.org/2000/svg" xmlns:xlink="http://www.w3.org/1999/xlink" viewBox="0 0 1444 401"><defs><style>.cls-1{fill:none;}.cls-2{clip-path:url(#clip-path);}.cls-3{fill:#005eb8;}.cls-4{fill:#5497db;}.cls-5{fill:#3d84d0;opacity:0.5;}</style><clipPath id="clip-path"><rect class="cls-1" width="1444" height="401"/></clipPath></defs><g class="cls-2"><rect class="cls-3" width="1444" height="401"/><path class="cls-4" d="M1349.77,352.73a5.11,5.11,0,0,0-9.15-2.84l-48.14-27.81a5.33,5.33,0,0,0,.4-1.93,5.12,5.12,0,0,0-4.38-5V259.46a5.1,5.1,0,0,0,4.37-5.28,5.25,5.25,0,0,0-.36-1.66l48.14-27.78a5.13,5.13,0,1,0,4.77-8.26V160.9a5.1,5.1,0,0,0,4.38-5.07,5.25,5.25,0,0,0-.37-1.84l48.14-27.79a5.13,5.13,0,1,0,4.77-8.26V62.28a5.12,5.12,0,1,0-4.8-8.2L1349.4,26.29a5.09,5.09,0,0,0-2.3-6.44,5.27,5.27,0,0,0-1.68-.55V0H1344V19.31a5.15,5.15,0,0,0-4.37,5.06,5,5,0,0,0,.38,1.91l-48.21,27.8A5.15,5.15,0,0,0,1285,53a5.38,5.38,0,0,0-1.22,1.11l-48.14-27.8a5.07,5.07,0,0,0-4-6.93V0h-1.46V19.35a5.13,5.13,0,0,0-4.37,5.34,5.13,5.13,0,0,0,5.38,4.84,5.18,5.18,0,0,0,3.75-1.94L1283,55.37a5.09,5.09,0,0,0,4,7v55.61a5.12,5.12,0,0,0-4.38,5.06,5,5,0,0,0,.37,1.88l-48.2,27.81a5.14,5.14,0,0,0-6.82-1.08,5.06,5.06,0,0,0-1.18,1.08l-48.74-28.15a5,5,0,0,0,.29-1.71,5.14,5.14,0,0,0-3.69-4.93V62.38a5.1,5.1,0,0,0,4.48-5.22,5.12,5.12,0,0,0-5.25-5,5.17,5.17,0,0,0-4,1.85l-48.17-27.8a5.41,5.41,0,0,0,.34-1.79,5.11,5.11,0,0,0-4.36-5.05V0h-1.49V19.43a5.11,5.11,0,0,0-4.37,5.05,5,5,0,0,0,.34,1.79l-48.16,27.8a5.14,5.14,0,0,0-6.84-1,5.63,5.63,0,0,0-1.11,1L1008,26.29a5.68,5.68,0,0,0,.34-1.79,5.16,5.16,0,0,0-4.37-5.07V0h-1.5V19.43a5.17,5.17,0,0,0-4.4,5.08,5.38,5.38,0,0,0,.36,1.78L950.31,54.05a5.13,5.13,0,1,0-4.77,8.25v55.62a5.12,5.12,0,0,0-2.69,8.87,5.12,5.12,0,0,0,7.46-.65L998.46,154a5.12,5.12,0,0,0,9.29,4.28,5.33,5.33,0,0,0,.58-2.35,5.14,5.14,0,0,0-.4-1.94l48.2-27.78a5.1,5.1,0,0,0,6.77,1.21,4.91,4.91,0,0,0,1.32-1.21L1112.36,154a5.08,5.08,0,0,0,2.29,6.45,5.42,5.42,0,0,0,1.69.56v55.59a5,5,0,0,0-3,1.63,5,5,0,0,0-1.32,3.68,5.21,5.21,0,0,0,.35,1.62l-48.13,27.79a5.12,5.12,0,1,0-4.77,8.24v55.62a5.1,5.1,0,0,0-4.37,5.05,4.72,4.72,0,0,0,.37,1.89l-48.14,27.79a5.13,5.13,0,1,0-4.77,8.23V401H1004V358.1a5,5,0,0,0,4-6.89l48.14-27.79a5.08,5.08,0,0,0,6.77,1.14,4.89,4.89,0,0,0,1.26-1.14l48.14,27.79a5,5,0,0,0-.36,1.87,5.12,5.12,0,0,0,4.38,5.06V401h1.54V358.09a5.05,5.05,0,0,0,4-6.93l48.21-27.79a5.13,5.13,0,0,0,6.81,1.09,5,5,0,0,0,1.2-1.09l48,27.84a5.07,5.07,0,0,0,4,6.9V401h1.51V358.06a5.08,5.08,0,0,0,4-6.87l48.15-27.81a5.13,5.13,0,0,0,6.84,1,5.34,5.34,0,0,0,1.11-1l48.17,27.83a5.08,5.08,0,0,0,2.48,6.39,4.73,4.73,0,0,0,1.55.48V401h1.45V358.06A5.13,5.13,0,0,0,1349.77,352.73ZM1059.38,118a5.08,5.08,0,0,0-4,6.88l-48.15,27.79a5.12,5.12,0,0,0-6.83-1,4.89,4.89,0,0,0-1.14,1L951,124.84a5.07,5.07,0,0,0-4-6.92V62.3a5.13,5.13,0,0,0,4.37-5.07,5,5,0,0,0-.37-1.87l48.11-27.78a5.09,5.09,0,0,0,8.1,0l48.14,27.79a4.94,4.94,0,0,0-.39,1.94,5.08,5.08,0,0,0,4.41,5Zm229.13-55.66a5.11,5.11,0,0,0,4.37-5.28,5.25,5.25,0,0,0-.36-1.66l48.21-27.8a5.12,5.12,0,0,0,8,0l48.12,27.8a4.92,4.92,0,0,0-.35,1.79,5.1,5.1,0,0,0,4.37,5v55.66a5.07,5.07,0,0,0-4,7l-48.14,27.79a5.13,5.13,0,0,0-3-1.84,5.07,5.07,0,0,0-3.85.71,5.19,5.19,0,0,0-1.25,1.13l-48.14-27.78a5.1,5.1,0,0,0-2.35-6.43,5.31,5.31,0,0,0-1.65-.53ZM1114.2,151.62a5.29,5.29,0,0,0-1.13,1l-48.16-27.8a5.23,5.23,0,0,0,.35-1.79,5.11,5.11,0,0,0-4.38-5V62.36a5.07,5.07,0,0,0,4.37-5.22,5.16,5.16,0,0,0-.39-1.77L1113,27.58a5.09,5.09,0,0,0,8.1,0l48.13,27.79a5.06,5.06,0,0,0,2.25,6.42,5.14,5.14,0,0,0,1.75.57v55.36a5.08,5.08,0,0,0-3.54,1.46,5.15,5.15,0,0,0-1.53,3.65,5.08,5.08,0,0,0,.57,2.3L1121,152.65a5.13,5.13,0,0,0-6.82-1Zm59,163.51a5.11,5.11,0,0,0-4.38,5.05,5,5,0,0,0,.38,1.9l-48.15,27.8a5.08,5.08,0,0,0-6.77-1.14,4.89,4.89,0,0,0-1.26,1.14l-48.15-27.79a4.72,4.72,0,0,0,.37-1.89,5.11,5.11,0,0,0-4.38-5.05V259.5a5.12,5.12,0,0,0,4.4-5,5.72,5.72,0,0,0-.38-1.88L1113,224.79a5.12,5.12,0,0,0,6.79,1.14,5,5,0,0,0,1.25-1.14l48.15,27.78a5.16,5.16,0,0,0-.39,1.9,5.11,5.11,0,0,0,4.4,5Zm-2-65a5.12,5.12,0,0,0-1.22,1.1l-48.15-27.8a5.11,5.11,0,0,0-2.43-6.42,4.83,4.83,0,0,0-1.59-.5V161a5.1,5.1,0,0,0,4.36-5.28,5.19,5.19,0,0,0-.38-1.69l47.84-27.56a5,5,0,0,0,3.12,1.54,5.05,5.05,0,0,0,3.72-1.08,5.29,5.29,0,0,0,1-1L1226.12,154a5.22,5.22,0,0,0-.39,1.92,5.13,5.13,0,0,0,4.4,5v55.61a5.09,5.09,0,0,0-4.38,5.26,4.92,4.92,0,0,0,.35,1.65L1178,251.27a5.1,5.1,0,0,0-3-1.82A5,5,0,0,0,1171.18,250.17Zm115.87,64.91a5.08,5.08,0,0,0-4.37,5.25,5.18,5.18,0,0,0,.39,1.73l-48.14,27.79a5.14,5.14,0,0,0-8.08,0l-48.13-27.78a5,5,0,0,0,.37-1.9,5.09,5.09,0,0,0-4.37-5V259.52a5.06,5.06,0,0,0,4-6.94l48.15-27.8a5.08,5.08,0,0,0,6.77,1.14,4.89,4.89,0,0,0,1.26-1.14L1283,252.57a5.07,5.07,0,0,0,4,6.9Zm.74-65.77a5.08,5.08,0,0,0-4,1.95l-48.13-27.79a5.11,5.11,0,0,0-2.43-6.42,5,5,0,0,0-1.59-.5V160.93a5.07,5.07,0,0,0,4-7l48.21-27.81a5.15,5.15,0,0,0,6.83,1.07,5,5,0,0,0,1.18-1.07L1340,154a4.88,4.88,0,0,0-.36,1.85,5.15,5.15,0,0,0,4.37,5.06v55.67a5.09,5.09,0,0,0-4.35,5.06,4.92,4.92,0,0,0,.36,1.89l-48.21,27.76a5.06,5.06,0,0,0-4-1.95Z"/><path class="cls-5" d="M1155.75,22.91a4.91,4.91,0,0,0,.27,1.52L1115.28,48a4.43,4.43,0,1,0-4.15,7.11v47.1a4.42,4.42,0,1,0,4.14,7.11l40.79,23.54a4.17,4.17,0,0,0-.31,1.59,4.43,4.43,0,0,0,4.42,4.44h0a4.39,4.39,0,0,0,3.12-1.29,4.46,4.46,0,0,0,1.31-3.15,4.37,4.37,0,0,0-.31-1.59l40.77-23.54a4.43,4.43,0,0,0,5.8,1,4.32,4.32,0,0,0,1.12-1l40.76,23.54a4.24,4.24,0,0,0-.32,1.61,4.4,4.4,0,0,0,3.73,4.36v47.1a4.4,4.4,0,0,0-3.72,4.37,4,4,0,0,0,.28,1.54L1212,215.37a4.32,4.32,0,0,0-3.41-1.64h0a4.43,4.43,0,0,0-.71,8.79v47.11a4.31,4.31,0,0,0-2.57,1.35,4.39,4.39,0,0,0-.86,4.58l-40.77,23.55-.49-1v.45a4.44,4.44,0,0,0-7.31,2.27,4.42,4.42,0,0,0,3.65,5.38v47.12a4.41,4.41,0,0,0-3.56,4.72,4.35,4.35,0,0,0,1.56,3,4.4,4.4,0,0,0,3.23,1,4.46,4.46,0,0,0,2.88-1.43l40.81,23.56a4.54,4.54,0,0,0-.3,1.55,4.42,4.42,0,0,0,3.72,4.37V401h1.37V390.12a4.44,4.44,0,0,0,3.74-4.37,4.33,4.33,0,0,0-.31-1.55l40.78-23.54a4.42,4.42,0,0,0,5.83.92,4.48,4.48,0,0,0,1-.92L1301,384.21a4.65,4.65,0,0,0-.3,1.56,4.44,4.44,0,0,0,3.73,4.36V401h1.47V390.13a4.37,4.37,0,0,0,2.57-1.41,4.42,4.42,0,1,0-6.71-5.75L1261,359.42a4.33,4.33,0,0,0,.3-1.56,4.4,4.4,0,0,0-3.72-4.36V306.4a4.46,4.46,0,0,0,3.72-4.36,4.67,4.67,0,0,0-.32-1.56l40.79-23.55a4.4,4.4,0,0,0,5.83.9,4.15,4.15,0,0,0,1-.9l40.78,23.55a4.89,4.89,0,0,0-.3,1.53,4.53,4.53,0,0,0,3.74,4.36v47.11a4.43,4.43,0,1,0,4.1,7.21l40.79,23.56a4.11,4.11,0,0,0-.27,1.51,4.42,4.42,0,0,0,3.71,4.35V401h1.39V390.1a4.38,4.38,0,0,0,3.43-5.88l38-22v-1.65L1405.28,383a4.44,4.44,0,0,0-5.84-1,4.62,4.62,0,0,0-1.09,1l-40.76-23.54a4.36,4.36,0,0,0-3.39-6v-47.1A4.46,4.46,0,0,0,1358,302a4.8,4.8,0,0,0-.28-1.5l40.74-23.58a4.33,4.33,0,0,0,3.38,1.6h0a4.42,4.42,0,0,0,3.39-1.59l38.78,22.4v-1.58l-38-22a4.37,4.37,0,0,0-3.39-6v-47.1a4.42,4.42,0,0,0,3.72-4.37,4.49,4.49,0,0,0-.3-1.54l38-21.95v-1.78l-38.74,22.39a4.43,4.43,0,0,0-5.83-.92,4.26,4.26,0,0,0-1,.92l-40.78-23.55a4.25,4.25,0,0,0,.29-1.54,4.43,4.43,0,0,0-3.71-4.37v-47.1a4.4,4.4,0,0,0,3.71-4.35,4.18,4.18,0,0,0-.31-1.6l40.8-23.54a4.41,4.41,0,0,0,5.83.9,4.15,4.15,0,0,0,1-.9L1444,131.77v-1.63l-38-22a4.4,4.4,0,0,0-2.07-5.49,4.06,4.06,0,0,0-1.35-.45V55.13a4.43,4.43,0,0,0,3.71-4.37,4.25,4.25,0,0,0-.29-1.54l38-22V25.56l-38.74,22.36a4.42,4.42,0,0,0-5.82-.92,4.3,4.3,0,0,0-1,.92l-40.78-23.55a4.31,4.31,0,0,0,.29-1.55,4.43,4.43,0,0,0-3.71-4.37V0h-1.38V18.55a4.42,4.42,0,0,0,1,8.78,4.46,4.46,0,0,0,3.18-1.62l40.77,23.55a4.3,4.3,0,0,0-.28,1.55,4.4,4.4,0,0,0,3.71,4.37v47.1a4.41,4.41,0,0,0-3.42,5.94l-40.8,23.55a4.41,4.41,0,0,0-5.82-.9,4.3,4.3,0,0,0-1,.9L1308.81,108a4.13,4.13,0,0,0,.24-1.43,4.45,4.45,0,0,0-3.14-4.24V55.2a4.43,4.43,0,0,0,3.68-4.62,4.32,4.32,0,0,0-1.47-3,4.38,4.38,0,0,0-3.19-1.12A4.47,4.47,0,0,0,1301.8,48L1261,24.43a4.88,4.88,0,0,0,.29-1.52,4.42,4.42,0,0,0-3.71-4.35V0h-1.49V18.56a4.46,4.46,0,0,0-3.73,4.36,4.34,4.34,0,0,0,.28,1.51L1211.86,48a4.46,4.46,0,0,0-2.56-1.5,4.41,4.41,0,0,0-3.33.69,4.35,4.35,0,0,0-.9.81l-40.79-23.56a4.41,4.41,0,0,0-3.44-5.87V0h-1.37V18.55A4.41,4.41,0,0,0,1155.75,22.91ZM1256.1,353.47a4.38,4.38,0,0,0-3.72,4.48,4.32,4.32,0,0,0,.3,1.46L1211.91,383a4.42,4.42,0,0,0-5.82-.94,4.48,4.48,0,0,0-1,.94l-40.77-23.55a4.09,4.09,0,0,0,.28-1.55,4.4,4.4,0,0,0-3.71-4.36v-47.1a4.4,4.4,0,0,0,3.71-4.35,4.34,4.34,0,0,0-.28-1.59l40.78-23.54a4.44,4.44,0,0,0,5.85.9,4.3,4.3,0,0,0,1-.9l40.77,23.55a4.4,4.4,0,0,0,3.43,5.92Zm48.35-83.69a4.38,4.38,0,0,0-3.42,5.93l-40.78,23.55a4.41,4.41,0,0,0-5.8-1,4.66,4.66,0,0,0-1.07,1l-40.77-23.54a4.25,4.25,0,0,0,.3-1.57,4.39,4.39,0,0,0-3.72-4.35V222.69a4.34,4.34,0,0,0,3.42-5.91l40.76-23.59a4.38,4.38,0,0,0,3.44,1.65h0a4.49,4.49,0,0,0,3.43-1.64L1301,216.75a4.66,4.66,0,0,0-.3,1.57,4.44,4.44,0,0,0,3.73,4.36Zm51.42-75.68a4.44,4.44,0,0,0,1.05-.93l40.76,23.55a4.62,4.62,0,0,0-.3,1.52,4.46,4.46,0,0,0,3.72,4.37v47.1a4.43,4.43,0,0,0-3.71,4.37,4.59,4.59,0,0,0,.31,1.59l-40.77,23.54a4.42,4.42,0,0,0-5.81-1,4.62,4.62,0,0,0-1.09,1l-40.76-23.54a4.07,4.07,0,0,0,.3-1.58,4.43,4.43,0,0,0-3.72-4.37V222.64a4.47,4.47,0,0,0,3.73-4.36,4.6,4.6,0,0,0-.3-1.56l40.77-23.55A4.42,4.42,0,0,0,1355.87,194.1ZM1307.36,110a4.44,4.44,0,0,0,.74-.76L1349.37,133a4.24,4.24,0,0,0-.32,1.61,4.46,4.46,0,0,0,3.73,4.29V186a4.43,4.43,0,0,0-3.73,4.35,4.32,4.32,0,0,0,.29,1.56l-40.78,23.56A4.36,4.36,0,0,0,1306,214a4.43,4.43,0,0,0-3.34.66,4.09,4.09,0,0,0-1,.86l-40.8-23.56a4.49,4.49,0,0,0,.3-1.54,4.43,4.43,0,0,0-3.72-4.37v-47.1a4.41,4.41,0,0,0,3.71-4.36,4.33,4.33,0,0,0-.31-1.59l40.53-23.34A4.43,4.43,0,0,0,1307.36,110ZM1209.17,55.2a4.45,4.45,0,0,0,3.74-4.37,5,5,0,0,0-.33-1.62l40.74-23.55a4.42,4.42,0,0,0,5.82,1,4.52,4.52,0,0,0,1.1-1L1301,49.21a4.41,4.41,0,0,0,3.41,6v46.87a4.43,4.43,0,0,0-3.84,6.37l-40.38,23.31a4.43,4.43,0,0,0-3.4-1.59h0a4.47,4.47,0,0,0-3.38,1.58l-40.79-23.56a4.3,4.3,0,0,0,.29-1.5,4.44,4.44,0,0,0-3.74-4.37Zm-49.05-27.85a4.33,4.33,0,0,0,3.49-1.69l40.77,23.54a4.34,4.34,0,0,0-.32,1.63,4.41,4.41,0,0,0,3.7,4.36v47.1a4.41,4.41,0,0,0-3.71,4.35,4.22,4.22,0,0,0,.27,1.53l-40.79,23.56a4.44,4.44,0,0,0-5.87-.84,4.12,4.12,0,0,0-.93.84l-40.8-23.56a4.4,4.4,0,0,0-3.42-5.92V55.15a4.41,4.41,0,0,0,3.71-4.36,4.2,4.2,0,0,0-.3-1.56l40.76-23.55a4.33,4.33,0,0,0,3.39,1.67Z"/></g></svg>