<svg id="background" xmlns="http://www.w3.org/2000/svg" viewBox="0 0 1444 401"><defs><style>.cls-1{fill:#005eb8;}.cls-2{opacity:0.32;}.cls-3{fill:#0a84f2;}.cls-4{opacity:0.7;}.cls-5{opacity:0.61;}.cls-6{opacity:0.71;}.cls-7{opacity:0.27;}.cls-8{opacity:0.39;}.cls-9{opacity:0.21;}.cls-10{opacity:0.86;}.cls-11{opacity:0.44;}.cls-12{opacity:0.24;}.cls-13{opacity:0.72;}.cls-14{opacity:0.37;}.cls-15{opacity:0.42;}.cls-16{opacity:0.3;}.cls-17{opacity:0.49;}.cls-18{opacity:0.74;}.cls-19{opacity:0.57;}.cls-20{opacity:0.36;}.cls-21{opacity:0.25;}.cls-22{opacity:0.33;}.cls-23{opacity:0.56;}.cls-24{opacity:0.34;}.cls-25{opacity:0.93;}.cls-26{opacity:0.73;}.cls-27{opacity:0.47;}.cls-28{opacity:0.89;}.cls-29{opacity:0.52;}.cls-30{opacity:0.23;}.cls-31{opacity:0.95;}.cls-32{opacity:0.91;}.cls-33{opacity:0.69;}.cls-34{opacity:0.99;}.cls-35{opacity:0.46;}</style></defs><rect class="cls-1" width="1444" height="401"/><g id="Valentines"><g id="valentines_bg" data-name="valentines bg"><g class="cls-2"><path class="cls-3" d="M913.17,398.09v-4.35a.31.31,0,0,0-.3-.29h-4.39a.31.31,0,0,1-.29-.3v-2.82a.29.29,0,0,1,.29-.29h4.39a.32.32,0,0,0,.3-.3v-4.35a.29.29,0,0,1,.29-.29h2.73a.29.29,0,0,1,.29.29v4.35a.32.32,0,0,0,.3.3h4.4a.29.29,0,0,1,.29.29v2.82a.31.31,0,0,1-.29.3h-4.4a.31.31,0,0,0-.3.29v4.35a.29.29,0,0,1-.29.29h-2.73A.29.29,0,0,1,913.17,398.09Z"/><path class="cls-3" d="M913.17,398.09v-4.35a.31.31,0,0,0-.3-.29h-4.39a.31.31,0,0,1-.29-.3v-2.82a.29.29,0,0,1,.29-.29h4.39a.32.32,0,0,0,.3-.3v-4.35a.29.29,0,0,1,.29-.29h2.73a.29.29,0,0,1,.29.29v4.35a.32.32,0,0,0,.3.3h4.4a.29.29,0,0,1,.29.29v2.82a.31.31,0,0,1-.29.3h-4.4a.31.31,0,0,0-.3.29v4.35a.29.29,0,0,1-.29.29h-2.73A.29.29,0,0,1,913.17,398.09Z"/></g><g class="cls-4"><path class="cls-3" d="M954.34,275.05v-6.27a.42.42,0,0,0-.41-.43h-6.34a.43.43,0,0,1-.43-.43v-4.06a.43.43,0,0,1,.43-.43h6.33a.42.42,0,0,0,.42-.42h0v-6.27a.43.43,0,0,1,.43-.43h3.94a.42.42,0,0,1,.42.42h0V263a.43.43,0,0,0,.43.43h6.35a.42.42,0,0,1,.42.42h0v4.06a.42.42,0,0,1-.41.43h-6.36a.43.43,0,0,0-.43.43v6.27a.42.42,0,0,1-.41.43h-4A.43.43,0,0,1,954.34,275.05Z"/></g><g class="cls-5"><path class="cls-3" d="M955.19,313.92v-4.15a.29.29,0,0,0-.29-.28h-4.18a.29.29,0,0,1-.29-.27h0v-2.69a.29.29,0,0,1,.28-.28h4.19a.29.29,0,0,0,.29-.28V301.8a.29.29,0,0,1,.28-.28h2.6a.29.29,0,0,1,.28.28h0V306a.3.3,0,0,0,.28.28h4.2a.29.29,0,0,1,.29.27h0v2.69a.29.29,0,0,1-.28.28h-4.21a.3.3,0,0,0-.28.28V314a.29.29,0,0,1-.27.29h-2.61a.28.28,0,0,1-.28-.28Z"/></g><g class="cls-6"><path class="cls-3" d="M996.62,399.63V394.2a.38.38,0,0,0-.37-.37h-5.48a.38.38,0,0,1-.37-.37v-3.53a.38.38,0,0,1,.37-.37h5.48a.37.37,0,0,0,.37-.36v-5.44a.38.38,0,0,1,.37-.37h3.41a.39.39,0,0,1,.37.37v5.44a.36.36,0,0,0,.36.36h5.5a.38.38,0,0,1,.37.37v3.53a.38.38,0,0,1-.37.37h-5.5a.36.36,0,0,0-.36.36h0v5.43a.39.39,0,0,1-.37.37H997a.38.38,0,0,1-.38-.36Z"/></g><path class="cls-3" d="M998,143.07v-2a.13.13,0,0,0-.12-.14h-2a.13.13,0,0,1-.13-.13h0v-1.28a.13.13,0,0,1,.12-.14h2a.13.13,0,0,0,.13-.13h0v-2a.13.13,0,0,1,.13-.13h1.24a.13.13,0,0,1,.14.12h0v2a.13.13,0,0,0,.13.13h2a.14.14,0,0,1,.14.14h0v1.28a.13.13,0,0,1-.13.13h-2a.13.13,0,0,0-.13.13h0v2a.14.14,0,0,1-.14.14h-1.24a.13.13,0,0,1-.13-.13Z"/><g class="cls-7"><path class="cls-3" d="M996.17,191.53V185a.45.45,0,0,0-.45-.45h-6.63a.46.46,0,0,1-.45-.44v-4.26a.45.45,0,0,1,.45-.45h6.63a.46.46,0,0,0,.45-.44v-6.58a.44.44,0,0,1,.44-.44h4.13a.44.44,0,0,1,.44.44h0V179a.46.46,0,0,0,.45.44h6.65a.46.46,0,0,1,.44.45v4.26a.44.44,0,0,1-.44.44h-6.65a.45.45,0,0,0-.45.45h0v6.57a.46.46,0,0,1-.44.45h-4.13a.44.44,0,0,1-.44-.46Z"/></g><g class="cls-8"><path class="cls-3" d="M1039.32,313v-3.5a.23.23,0,0,0-.23-.23h-3.54a.24.24,0,0,1-.24-.24v-2.28a.23.23,0,0,1,.23-.23h3.55a.23.23,0,0,0,.23-.23h0v-3.51a.24.24,0,0,1,.24-.24h2.2a.24.24,0,0,1,.24.24v3.51a.24.24,0,0,0,.24.24h3.55a.23.23,0,0,1,.24.22h0V309a.24.24,0,0,1-.24.24h-3.55a.23.23,0,0,0-.24.22h0V313a.24.24,0,0,1-.24.24h-2.2A.24.24,0,0,1,1039.32,313Z"/></g><g class="cls-9"><path class="cls-3" d="M1081.38,102.88V99.67a.21.21,0,0,0-.2-.22h-3.25a.22.22,0,0,1-.22-.22V97.15a.22.22,0,0,1,.22-.22h3.24a.21.21,0,0,0,.21-.21h0V93.5a.21.21,0,0,1,.21-.21h2a.21.21,0,0,1,.21.21h0v3.22a.21.21,0,0,0,.21.21h3.26a.22.22,0,0,1,.22.22v2.08a.22.22,0,0,1-.22.22H1084a.22.22,0,0,0-.22.22v3.21a.21.21,0,0,1-.2.22h-2A.22.22,0,0,1,1081.38,102.88Z"/></g><g class="cls-10"><path class="cls-3" d="M1080.7,273.1v-4.94a.35.35,0,0,0-.34-.33h-5a.34.34,0,0,1-.34-.34h0v-3.2a.34.34,0,0,1,.34-.34h5a.35.35,0,0,0,.34-.33v-4.94a.35.35,0,0,1,.33-.34h3.1a.34.34,0,0,1,.34.34h0v4.94a.33.33,0,0,0,.33.33h5a.34.34,0,0,1,.34.34h0v3.2a.34.34,0,0,1-.34.34h-5a.33.33,0,0,0-.33.33h0v4.94a.34.34,0,0,1-.34.34H1081A.34.34,0,0,1,1080.7,273.1Z"/></g><g class="cls-11"><path class="cls-3" d="M1080.62,357.27v-5.14a.35.35,0,0,0-.35-.35h-5.18a.35.35,0,0,1-.35-.35V348.1a.35.35,0,0,1,.35-.35h5.18a.35.35,0,0,0,.35-.35v-5.14a.35.35,0,0,1,.35-.35h3.22a.35.35,0,0,1,.35.35v5.14a.35.35,0,0,0,.35.35h5.2a.35.35,0,0,1,.35.35v3.33a.35.35,0,0,1-.35.35h-5.2a.35.35,0,0,0-.35.35v5.14a.35.35,0,0,1-.35.35H1081a.36.36,0,0,1-.38-.32Z"/></g><g class="cls-12"><path class="cls-3" d="M1122.56,399.21v-5.14a.35.35,0,0,0-.35-.35H1117a.35.35,0,0,1-.35-.35V390a.35.35,0,0,1,.35-.35h5.18a.34.34,0,0,0,.35-.33v-5.15a.35.35,0,0,1,.35-.35h3.22a.34.34,0,0,1,.35.33v5.15a.35.35,0,0,0,.35.35h5.2a.35.35,0,0,1,.35.35v3.33a.35.35,0,0,1-.35.35h-5.2a.35.35,0,0,0-.35.35v5.14a.35.35,0,0,1-.35.35h-3.22A.34.34,0,0,1,1122.56,399.21Z"/></g><g class="cls-13"><path class="cls-3" d="M1122,191.53V185a.46.46,0,0,0-.44-.45h-6.63a.46.46,0,0,1-.45-.44v-4.26a.45.45,0,0,1,.45-.45h6.63a.44.44,0,0,0,.44-.44h0v-6.58a.46.46,0,0,1,.45-.44h4.12a.46.46,0,0,1,.45.44V179a.44.44,0,0,0,.44.44h6.65a.45.45,0,0,1,.45.45h0v4.26a.46.46,0,0,1-.45.44h-6.65a.46.46,0,0,0-.44.45v6.57a.45.45,0,0,1-.45.45h-4.12a.45.45,0,0,1-.45-.45Z"/></g><g class="cls-10"><path class="cls-3" d="M1122.74,230.81v-4.69a.32.32,0,0,0-.32-.32h-4.74a.32.32,0,0,1-.32-.32h0v-3a.32.32,0,0,1,.32-.32h4.74a.32.32,0,0,0,.32-.32h0v-4.7a.31.31,0,0,1,.31-.31h3a.31.31,0,0,1,.32.3h0v4.7a.32.32,0,0,0,.32.32h4.75a.32.32,0,0,1,.32.32h0v3a.32.32,0,0,1-.32.32h-4.75a.32.32,0,0,0-.32.32h0v4.69a.32.32,0,0,1-.32.32h-2.94a.32.32,0,0,1-.32-.32Z"/></g><g class="cls-14"><path class="cls-3" d="M1122.56,273.38v-5.13a.34.34,0,0,0-.33-.35H1117a.35.35,0,0,1-.35-.35v-3.33a.35.35,0,0,1,.35-.35h5.18a.35.35,0,0,0,.35-.35v-5.14a.35.35,0,0,1,.35-.35h3.22a.35.35,0,0,1,.35.35v5.14a.35.35,0,0,0,.35.35h5.2a.35.35,0,0,1,.35.35v3.33a.35.35,0,0,1-.35.35h-5.2a.35.35,0,0,0-.35.35v5.13a.34.34,0,0,1-.33.35h-3.24A.36.36,0,0,1,1122.56,273.38Z"/><path class="cls-3" d="M1122.56,273.38v-5.13a.34.34,0,0,0-.33-.35H1117a.35.35,0,0,1-.35-.35v-3.33a.35.35,0,0,1,.35-.35h5.18a.35.35,0,0,0,.35-.35v-5.14a.35.35,0,0,1,.35-.35h3.22a.35.35,0,0,1,.35.35v5.14a.35.35,0,0,0,.35.35h5.2a.35.35,0,0,1,.35.35v3.33a.35.35,0,0,1-.35.35h-5.2a.35.35,0,0,0-.35.35v5.13a.34.34,0,0,1-.33.35h-3.24A.36.36,0,0,1,1122.56,273.38Z"/></g><g class="cls-15"><path class="cls-3" d="M1122.64,357v-4.94a.35.35,0,0,0-.33-.34h-5a.35.35,0,0,1-.34-.33v-3.21a.35.35,0,0,1,.34-.33h5a.35.35,0,0,0,.33-.34v-4.94a.34.34,0,0,1,.34-.34h3.1a.35.35,0,0,1,.33.34v4.94a.34.34,0,0,0,.34.34h5a.33.33,0,0,1,.33.33h0v3.21a.33.33,0,0,1-.33.33h-5a.34.34,0,0,0-.34.34h0V357a.33.33,0,0,1-.33.33H1123a.33.33,0,0,1-.36-.3Z"/></g><g class="cls-16"><path class="cls-3" d="M1163.84,108v-6.82a.47.47,0,0,0-.46-.46h-6.88a.47.47,0,0,1-.47-.47V95.83a.47.47,0,0,1,.47-.46h6.88a.48.48,0,0,0,.46-.46V88.09a.47.47,0,0,1,.46-.46h4.28a.47.47,0,0,1,.46.46h0v6.82a.48.48,0,0,0,.46.46h6.9a.47.47,0,0,1,.47.46v4.42a.47.47,0,0,1-.47.47h-6.9a.47.47,0,0,0-.46.46h0V108a.48.48,0,0,1-.46.46h-4.28A.47.47,0,0,1,1163.84,108Z"/></g><g class="cls-16"><path class="cls-3" d="M1165.27,186.77v-3.22a.21.21,0,0,0-.21-.21h-3.25a.22.22,0,0,1-.22-.22V181a.22.22,0,0,1,.22-.22h3.24a.22.22,0,0,0,.22-.22v-3.21a.22.22,0,0,1,.22-.22h2a.22.22,0,0,1,.22.22v3.21a.22.22,0,0,0,.22.22h3.25a.21.21,0,0,1,.21.21h0v2.08a.21.21,0,0,1-.2.22h-3.26a.21.21,0,0,0-.22.2h0v3.22a.21.21,0,0,1-.21.21h-2A.21.21,0,0,1,1165.27,186.77Z"/></g><g class="cls-6"><path class="cls-3" d="M1165.64,227.38V225.1a.15.15,0,0,0-.15-.15h-2.3a.17.17,0,0,1-.15-.16v-1.47a.15.15,0,0,1,.15-.15h2.3a.17.17,0,0,0,.15-.16v-2.27a.15.15,0,0,1,.15-.15h1.43a.14.14,0,0,1,.15.13V223a.16.16,0,0,0,.16.16h2.3a.15.15,0,0,1,.15.15h0v1.47a.17.17,0,0,1-.15.16h-2.3a.17.17,0,0,0-.16.15v2.28a.15.15,0,0,1-.15.15h-1.43A.15.15,0,0,1,1165.64,227.38Z"/><path class="cls-3" d="M1165.64,227.38V225.1a.15.15,0,0,0-.15-.15h-2.3a.17.17,0,0,1-.15-.16v-1.47a.15.15,0,0,1,.15-.15h2.3a.17.17,0,0,0,.15-.16v-2.27a.15.15,0,0,1,.15-.15h1.43a.14.14,0,0,1,.15.13V223a.16.16,0,0,0,.16.16h2.3a.15.15,0,0,1,.15.15h0v1.47a.17.17,0,0,1-.15.16h-2.3a.17.17,0,0,0-.16.15v2.28a.15.15,0,0,1-.15.15h-1.43A.15.15,0,0,1,1165.64,227.38Z"/></g><g class="cls-4"><path class="cls-3" d="M1164.23,274.37v-5.84a.4.4,0,0,0-.4-.39H1158a.38.38,0,0,1-.39-.39h0V264a.38.38,0,0,1,.37-.39h5.9a.4.4,0,0,0,.4-.4h0v-5.83a.4.4,0,0,1,.4-.4h3.65a.4.4,0,0,1,.4.4h0v5.83a.4.4,0,0,0,.39.4H1175a.38.38,0,0,1,.4.38h0v3.78a.4.4,0,0,1-.4.4h-5.9a.41.41,0,0,0-.39.39v5.84a.4.4,0,0,1-.4.39h-3.66a.4.4,0,0,1-.42-.38Z"/></g><g class="cls-17"><path class="cls-3" d="M1165.31,354.39v-3.11a.21.21,0,0,0-.21-.21H1162a.21.21,0,0,1-.21-.21h0v-2a.21.21,0,0,1,.21-.21h3.15a.23.23,0,0,0,.21-.21V345.3a.21.21,0,0,1,.21-.21h2a.21.21,0,0,1,.21.21h0v3.12a.23.23,0,0,0,.21.21h3a.21.21,0,0,1,.21.21h0v2a.21.21,0,0,1-.21.21h-3.15a.21.21,0,0,0-.21.21h0v3.11a.21.21,0,0,1-.2.22h-2A.22.22,0,0,1,1165.31,354.39Z"/></g><g class="cls-18"><path class="cls-3" d="M1207.29,144.54v-3a.21.21,0,0,0-.21-.21h-3a.2.2,0,0,1-.2-.2h0v-2a.2.2,0,0,1,.19-.21h3a.2.2,0,0,0,.21-.19h0v-3a.2.2,0,0,1,.2-.2h1.89a.2.2,0,0,1,.21.19h0v3a.2.2,0,0,0,.2.2h3a.21.21,0,0,1,.21.21h0v2a.2.2,0,0,1-.2.2h-3.06a.22.22,0,0,0-.2.21v3a.21.21,0,0,1-.21.21h-1.89a.2.2,0,0,1-.2-.2Z"/><path class="cls-3" d="M1207.29,144.54v-3a.21.21,0,0,0-.21-.21h-3a.2.2,0,0,1-.2-.2h0v-2a.2.2,0,0,1,.19-.21h3a.2.2,0,0,0,.21-.19h0v-3a.2.2,0,0,1,.2-.2h1.89a.2.2,0,0,1,.21.19h0v3a.2.2,0,0,0,.2.2h3a.21.21,0,0,1,.21.21h0v2a.2.2,0,0,1-.2.2h-3.06a.22.22,0,0,0-.2.21v3a.21.21,0,0,1-.21.21h-1.89a.2.2,0,0,1-.2-.2Z"/></g><g class="cls-19"><path class="cls-3" d="M1205.6,276.4v-7.27a.49.49,0,0,0-.49-.49h-7.33a.49.49,0,0,1-.49-.49v-4.71a.49.49,0,0,1,.49-.49h7.33a.49.49,0,0,0,.49-.49h0v-7.26a.51.51,0,0,1,.5-.49h4.55a.49.49,0,0,1,.5.48h0v7.26a.49.49,0,0,0,.48.5H1219a.49.49,0,0,1,.49.49v4.71a.49.49,0,0,1-.49.49h-7.35a.49.49,0,0,0-.49.49v7.27a.49.49,0,0,1-.49.49h-4.57a.49.49,0,0,1-.5-.48Z"/><path class="cls-3" d="M1205.6,276.4v-7.27a.49.49,0,0,0-.49-.49h-7.33a.49.49,0,0,1-.49-.49v-4.71a.49.49,0,0,1,.49-.49h7.33a.49.49,0,0,0,.49-.49h0v-7.26a.51.51,0,0,1,.5-.49h4.55a.49.49,0,0,1,.5.48h0v7.26a.49.49,0,0,0,.48.5H1219a.49.49,0,0,1,.49.49v4.71a.49.49,0,0,1-.49.49h-7.35a.49.49,0,0,0-.49.49v7.27a.49.49,0,0,1-.49.49h-4.57a.49.49,0,0,1-.5-.48Z"/></g><g class="cls-20"><path class="cls-3" d="M1206.27,316v-5.59a.38.38,0,0,0-.38-.38h-5.63a.38.38,0,0,1-.38-.38h0V306a.38.38,0,0,1,.38-.38h5.63a.38.38,0,0,0,.38-.38h0v-5.59a.38.38,0,0,1,.38-.38h3.5a.38.38,0,0,1,.38.38h0v5.59a.38.38,0,0,0,.38.38h5.65a.38.38,0,0,1,.38.38h0v3.61a.38.38,0,0,1-.38.38h-5.65a.38.38,0,0,0-.38.38h0V316a.38.38,0,0,1-.38.38h-3.5a.38.38,0,0,1-.38-.38Z"/><path class="cls-3" d="M1206.27,316v-5.59a.38.38,0,0,0-.38-.38h-5.63a.38.38,0,0,1-.38-.38h0V306a.38.38,0,0,1,.38-.38h5.63a.38.38,0,0,0,.38-.38h0v-5.59a.38.38,0,0,1,.38-.38h3.5a.38.38,0,0,1,.38.38h0v5.59a.38.38,0,0,0,.38.38h5.65a.38.38,0,0,1,.38.38h0v3.61a.38.38,0,0,1-.38.38h-5.65a.38.38,0,0,0-.38.38h0V316a.38.38,0,0,1-.38.38h-3.5a.38.38,0,0,1-.38-.38Z"/></g><g class="cls-21"><path class="cls-3" d="M1247.53,150.64v-7.31a.5.5,0,0,0-.5-.5h-7.38a.51.51,0,0,1-.5-.49v-4.75a.51.51,0,0,1,.5-.49H1247a.5.5,0,0,0,.5-.5v-7.31a.49.49,0,0,1,.48-.5h4.6a.5.5,0,0,1,.5.5v7.31a.49.49,0,0,0,.48.5H1261a.49.49,0,0,1,.5.48h0v4.75a.49.49,0,0,1-.49.49h-7.41a.49.49,0,0,0-.49.49h0v7.31a.5.5,0,0,1-.5.5H1248A.48.48,0,0,1,1247.53,150.64Z"/></g><g class="cls-22"><path class="cls-3" d="M1249.6,227.1V225a.14.14,0,0,0-.14-.14h-2.09a.14.14,0,0,1-.14-.14h0v-1.35a.14.14,0,0,1,.14-.14h2.09a.14.14,0,0,0,.14-.14h0V221a.14.14,0,0,1,.14-.14h1.31a.14.14,0,0,1,.14.14h0v2.07a.14.14,0,0,0,.14.14h2.1a.14.14,0,0,1,.14.14v1.35a.14.14,0,0,1-.14.14h-2.1a.14.14,0,0,0-.14.14h0v2.08a.14.14,0,0,1-.14.14h-1.31A.15.15,0,0,1,1249.6,227.1Z"/><path class="cls-3" d="M1249.6,227.1V225a.14.14,0,0,0-.14-.14h-2.09a.14.14,0,0,1-.14-.14h0v-1.35a.14.14,0,0,1,.14-.14h2.09a.14.14,0,0,0,.14-.14h0V221a.14.14,0,0,1,.14-.14h1.31a.14.14,0,0,1,.14.14h0v2.07a.14.14,0,0,0,.14.14h2.1a.14.14,0,0,1,.14.14v1.35a.14.14,0,0,1-.14.14h-2.1a.14.14,0,0,0-.14.14h0v2.08a.14.14,0,0,1-.14.14h-1.31A.15.15,0,0,1,1249.6,227.1Z"/></g><g class="cls-4"><path class="cls-3" d="M1249.05,312.94v-3.46a.23.23,0,0,0-.23-.23h-3.49a.24.24,0,0,1-.24-.24v-2.24a.23.23,0,0,1,.23-.23h3.5a.23.23,0,0,0,.23-.23h0v-3.46a.23.23,0,0,1,.23-.23h2.18a.23.23,0,0,1,.23.23v3.46a.24.24,0,0,0,.24.24h3.5a.23.23,0,0,1,.23.23V309a.23.23,0,0,1-.22.24h-3.51a.23.23,0,0,0-.24.22h0v3.46a.23.23,0,0,1-.22.24h-2.18A.24.24,0,0,1,1249.05,312.94Z"/></g><g class="cls-21"><path class="cls-3" d="M1249.07,354.81v-3.4a.23.23,0,0,0-.22-.24h-3.45a.23.23,0,0,1-.23-.23v-2.21a.23.23,0,0,1,.23-.23h3.44a.23.23,0,0,0,.23-.23v-3.41a.23.23,0,0,1,.23-.23h2.14a.23.23,0,0,1,.24.22h0v3.41a.23.23,0,0,0,.23.23h3.45a.23.23,0,0,1,.23.23v2.21a.23.23,0,0,1-.23.23h-3.45a.23.23,0,0,0-.23.23h0v3.4a.24.24,0,0,1-.24.24h-2.14A.24.24,0,0,1,1249.07,354.81Z"/></g><g class="cls-23"><path class="cls-3" d="M1249.34,60V57.46a.18.18,0,0,0-.16-.18h-2.6a.18.18,0,0,1-.18-.16h0V55.44a.18.18,0,0,1,.18-.17h2.59a.18.18,0,0,0,.17-.17V52.53a.18.18,0,0,1,.18-.18h1.61a.18.18,0,0,1,.17.17h0V55.1a.18.18,0,0,0,.18.17h2.6a.18.18,0,0,1,.17.17v1.67a.18.18,0,0,1-.17.17h-2.6a.18.18,0,0,0-.18.18V60a.16.16,0,0,1-.15.17h-1.63A.18.18,0,0,1,1249.34,60Z"/></g><g class="cls-6"><path class="cls-3" d="M1289.47,108.7v-7.31a.5.5,0,0,0-.5-.5h-7.38a.49.49,0,0,1-.49-.49h0V95.65a.49.49,0,0,1,.49-.49H1289a.5.5,0,0,0,.5-.5V87.35a.5.5,0,0,1,.5-.5h4.58a.5.5,0,0,1,.5.5v7.31a.5.5,0,0,0,.5.5H1303a.49.49,0,0,1,.5.48h0v4.74a.5.5,0,0,1-.5.5h-7.39a.5.5,0,0,0-.5.5v7.31a.5.5,0,0,1-.5.5H1290a.5.5,0,0,1-.53-.47Z"/></g><g class="cls-24"><path class="cls-3" d="M1291.43,143.63v-2.37a.16.16,0,0,0-.16-.16h-2.4a.16.16,0,0,1-.16-.16V139.4a.16.16,0,0,1,.16-.16h2.4a.16.16,0,0,0,.16-.16v-2.37a.16.16,0,0,1,.16-.16h1.49a.16.16,0,0,1,.16.16v2.37a.16.16,0,0,0,.16.16h2.4a.16.16,0,0,1,.16.16v1.54a.16.16,0,0,1-.16.16h-2.4a.16.16,0,0,0-.16.16v2.37a.16.16,0,0,1-.16.16h-1.49A.16.16,0,0,1,1291.43,143.63Z"/></g><g class="cls-13"><path class="cls-3" d="M1290.19,190v-5.48a.38.38,0,0,0-.36-.38h-5.54a.38.38,0,0,1-.38-.36h0v-3.55a.38.38,0,0,1,.38-.38h5.53a.36.36,0,0,0,.37-.35V174a.38.38,0,0,1,.38-.38H1294a.38.38,0,0,1,.37.38v5.48a.38.38,0,0,0,.37.37h5.55a.38.38,0,0,1,.37.37h0v3.55a.36.36,0,0,1-.35.37h-5.57a.38.38,0,0,0-.37.38V190a.38.38,0,0,1-.37.37h-3.45A.37.37,0,0,1,1290.19,190Z"/><path class="cls-3" d="M1290.19,190v-5.48a.38.38,0,0,0-.36-.38h-5.54a.38.38,0,0,1-.38-.36h0v-3.55a.38.38,0,0,1,.38-.38h5.53a.36.36,0,0,0,.37-.35V174a.38.38,0,0,1,.38-.38H1294a.38.38,0,0,1,.37.38v5.48a.38.38,0,0,0,.37.37h5.55a.38.38,0,0,1,.37.37h0v3.55a.36.36,0,0,1-.35.37h-5.57a.38.38,0,0,0-.37.38V190a.38.38,0,0,1-.37.37h-3.45A.37.37,0,0,1,1290.19,190Z"/></g><g class="cls-25"><path class="cls-3" d="M1332.45,398.58v-4.69a.32.32,0,0,0-.32-.32h-4.74a.33.33,0,0,1-.31-.32V390.2a.31.31,0,0,1,.31-.31h4.74a.32.32,0,0,0,.32-.32h0v-4.7a.32.32,0,0,1,.32-.32h2.94a.32.32,0,0,1,.32.32h0v4.7a.32.32,0,0,0,.32.32h4.75a.33.33,0,0,1,.32.31v3.05a.34.34,0,0,1-.32.32h-4.75a.32.32,0,0,0-.32.32h0v4.69a.32.32,0,0,1-.32.32h-2.94a.32.32,0,0,1-.32-.32Z"/></g><g class="cls-26"><path class="cls-3" d="M1331.74,65.57V59.09a.44.44,0,0,0-.44-.44h-6.53a.44.44,0,0,1-.44-.44h0V54a.44.44,0,0,1,.44-.44h6.53a.44.44,0,0,0,.44-.44h0V46.67a.44.44,0,0,1,.44-.44h4.06a.43.43,0,0,1,.44.42v6.49a.44.44,0,0,0,.44.44h6.55a.44.44,0,0,1,.44.44h0v4.19a.44.44,0,0,1-.44.44h-6.55a.44.44,0,0,0-.44.44h0v6.48a.44.44,0,0,1-.44.44h-4.06A.46.46,0,0,1,1331.74,65.57Z"/></g><g class="cls-8"><path class="cls-3" d="M1332.47,104.91v-4.64a.32.32,0,0,0-.32-.32h-4.68a.31.31,0,0,1-.32-.3h0v-3a.32.32,0,0,1,.32-.32h4.68a.31.31,0,0,0,.32-.3h0V91.35a.31.31,0,0,1,.31-.31h2.92a.31.31,0,0,1,.31.31V96a.31.31,0,0,0,.31.31H1341a.31.31,0,0,1,.31.31h0v3a.31.31,0,0,1-.31.31h-4.7a.32.32,0,0,0-.32.32h0v4.64a.31.31,0,0,1-.3.32h-2.93A.31.31,0,0,1,1332.47,104.91Z"/><path class="cls-3" d="M1332.47,104.91v-4.64a.32.32,0,0,0-.32-.32h-4.68a.31.31,0,0,1-.32-.3h0v-3a.32.32,0,0,1,.32-.32h4.68a.31.31,0,0,0,.32-.3h0V91.35a.31.31,0,0,1,.31-.31h2.92a.31.31,0,0,1,.31.31V96a.31.31,0,0,0,.31.31H1341a.31.31,0,0,1,.31.31h0v3a.31.31,0,0,1-.31.31h-4.7a.32.32,0,0,0-.32.32h0v4.64a.31.31,0,0,1-.3.32h-2.93A.31.31,0,0,1,1332.47,104.91Z"/></g><g class="cls-27"><path class="cls-3" d="M1332.06,190.27v-5.68a.41.41,0,0,0-.39-.39h-5.73a.38.38,0,0,1-.39-.37h0v-3.69a.38.38,0,0,1,.38-.38h5.74a.41.41,0,0,0,.39-.39v-5.68a.4.4,0,0,1,.38-.39H1336a.4.4,0,0,1,.38.39v5.68a.41.41,0,0,0,.39.39h5.75a.38.38,0,0,1,.38.38h0v3.69a.38.38,0,0,1-.38.38h-5.75a.41.41,0,0,0-.39.39v5.68a.4.4,0,0,1-.38.39h-3.57A.39.39,0,0,1,1332.06,190.27Z"/></g><g class="cls-8"><path class="cls-3" d="M1333.41,227.38V225.1a.17.17,0,0,0-.16-.15H1331a.17.17,0,0,1-.15-.16v-1.47a.15.15,0,0,1,.15-.15h2.29a.16.16,0,0,0,.16-.16v-2.27a.15.15,0,0,1,.15-.15h1.4a.15.15,0,0,1,.15.15h0V223a.16.16,0,0,0,.16.16h2.3a.15.15,0,0,1,.15.15h0v1.47a.17.17,0,0,1-.15.16h-2.3a.17.17,0,0,0-.16.15v2.28a.15.15,0,0,1-.15.15h-1.43a.15.15,0,0,1-.16-.14Z"/></g><g class="cls-28"><path class="cls-3" d="M1332.37,273v-4.89a.33.33,0,0,0-.33-.33h-4.94a.33.33,0,0,1-.33-.33h0v-3.17a.35.35,0,0,1,.33-.34h4.9a.33.33,0,0,0,.33-.33h0v-4.89a.33.33,0,0,1,.33-.33h3.07a.33.33,0,0,1,.33.33h0v4.89a.33.33,0,0,0,.33.33h4.95a.34.34,0,0,1,.34.34h0v3.17a.35.35,0,0,1-.34.33h-4.94a.35.35,0,0,0-.34.33V273a.35.35,0,0,1-.33.34h-3.07A.34.34,0,0,1,1332.37,273Z"/></g><g class="cls-29"><path class="cls-3" d="M1333,312.66V309.4a.22.22,0,0,0-.22-.22h-3.3a.22.22,0,0,1-.22-.22v-2.12a.22.22,0,0,1,.22-.22h3.3a.22.22,0,0,0,.22-.22v-3.26a.22.22,0,0,1,.22-.22h2a.22.22,0,0,1,.23.21h0v3.26a.22.22,0,0,0,.22.22h3.3a.22.22,0,0,1,.22.22V309a.22.22,0,0,1-.22.22h-3.3a.22.22,0,0,0-.22.22v3.26a.22.22,0,0,1-.22.22h-2a.22.22,0,0,1-.22-.22Z"/></g><g class="cls-30"><path class="cls-3" d="M1331.65,359.51v-6.72a.48.48,0,0,0-.46-.46h-6.78a.46.46,0,0,1-.46-.45v-4.36a.46.46,0,0,1,.46-.45h6.78a.48.48,0,0,0,.46-.46v-6.72a.46.46,0,0,1,.45-.46h4.22a.46.46,0,0,1,.45.46v6.72a.48.48,0,0,0,.46.46h6.8a.46.46,0,0,1,.46.45v4.36a.46.46,0,0,1-.46.45h-6.8a.48.48,0,0,0-.46.46v6.72a.46.46,0,0,1-.45.46h-4.22A.46.46,0,0,1,1331.65,359.51Z"/></g><g class="cls-31"><path class="cls-3" d="M1374.41,398.51v-4.65a.31.31,0,0,0-.31-.31h-4.69a.32.32,0,0,1-.32-.32v-3a.31.31,0,0,1,.31-.31h4.7a.31.31,0,0,0,.31-.31h0V385a.32.32,0,0,1,.32-.32h2.91a.31.31,0,0,1,.31.31h0v4.64a.32.32,0,0,0,.32.32h4.7a.31.31,0,0,1,.31.31h0v3a.31.31,0,0,1-.3.32h-4.71a.33.33,0,0,0-.32.31v4.65a.31.31,0,0,1-.31.31h-2.92a.31.31,0,0,1-.31-.31Z"/></g><g class="cls-11"><path class="cls-3" d="M1375,102.88V99.67a.22.22,0,0,0-.22-.22h-3.24a.22.22,0,0,1-.22-.22V97.15a.22.22,0,0,1,.22-.22h3.24a.21.21,0,0,0,.22-.2h0V93.5a.21.21,0,0,1,.21-.21h2a.21.21,0,0,1,.22.2h0v3.22a.21.21,0,0,0,.21.21h3.26a.21.21,0,0,1,.21.21h0v2.08a.21.21,0,0,1-.2.22h-3.26a.22.22,0,0,0-.22.22v3.21a.22.22,0,0,1-.22.22h-2A.22.22,0,0,1,1375,102.88Z"/></g><g class="cls-32"><path class="cls-3" d="M1373.71,149.38V143a.44.44,0,0,0-.44-.44h-6.48a.44.44,0,0,1-.44-.44V138a.44.44,0,0,1,.44-.44h6.48a.44.44,0,0,0,.44-.43v-6.43a.43.43,0,0,1,.43-.43h4a.44.44,0,0,1,.44.43v6.43a.43.43,0,0,0,.43.43h6.5a.44.44,0,0,1,.44.44v4.16a.44.44,0,0,1-.44.44H1379a.44.44,0,0,0-.43.44v6.42a.44.44,0,0,1-.44.44h-4a.44.44,0,0,1-.42-.46Z"/></g><g class="cls-33"><path class="cls-3" d="M1374.25,189.36v-5a.34.34,0,0,0-.34-.34h-5.08a.35.35,0,0,1-.35-.35v-3.26a.35.35,0,0,1,.35-.34h5.08a.35.35,0,0,0,.34-.35v-5a.35.35,0,0,1,.35-.34h3.16a.34.34,0,0,1,.34.34v5a.35.35,0,0,0,.34.35h5.1a.34.34,0,0,1,.34.34v3.26a.35.35,0,0,1-.34.35h-5.1a.34.34,0,0,0-.34.34v5a.34.34,0,0,1-.34.34h-3.17A.34.34,0,0,1,1374.25,189.36Z"/></g><g class="cls-8"><path class="cls-3" d="M1373.92,274.44v-5.88a.38.38,0,0,0-.38-.4h-6a.4.4,0,0,1-.4-.4h0V264a.38.38,0,0,1,.38-.4h6a.4.4,0,0,0,.4-.4h0v-5.88a.4.4,0,0,1,.4-.4H1378a.4.4,0,0,1,.4.4h0v5.88a.4.4,0,0,0,.4.4h6a.38.38,0,0,1,.4.38v3.83a.4.4,0,0,1-.4.4h-6a.38.38,0,0,0-.4.38v5.9a.38.38,0,0,1-.39.39h-3.7a.38.38,0,0,1-.39-.39Z"/></g><g class="cls-19"><path class="cls-3" d="M1374.86,313v-3.5a.23.23,0,0,0-.23-.23h-3.55a.24.24,0,0,1-.24-.24v-2.28a.23.23,0,0,1,.23-.23h3.55a.24.24,0,0,0,.24-.24v-3.51a.24.24,0,0,1,.24-.24h2.2a.24.24,0,0,1,.24.24v3.51a.24.24,0,0,0,.24.24h3.55a.23.23,0,0,1,.23.23V309a.23.23,0,0,1-.22.24h-3.56a.23.23,0,0,0-.24.22h0V313a.24.24,0,0,1-.24.24h-2.2A.24.24,0,0,1,1374.86,313Z"/></g><g class="cls-34"><path class="cls-3" d="M1373.51,359.79v-6.92a.47.47,0,0,0-.47-.47h-7a.47.47,0,0,1-.47-.47v-4.48a.47.47,0,0,1,.47-.47h7a.47.47,0,0,0,.47-.47v-6.92a.47.47,0,0,1,.47-.47h4.34a.47.47,0,0,1,.47.47v6.92a.47.47,0,0,0,.47.47h7a.47.47,0,0,1,.47.47v4.48a.47.47,0,0,1-.47.47h-7a.47.47,0,0,0-.47.47v6.92a.47.47,0,0,1-.47.47H1374a.47.47,0,0,1-.49-.45Z"/></g><g class="cls-14"><path class="cls-3" d="M1416.16,399.21v-5.14a.35.35,0,0,0-.35-.35h-5.19a.35.35,0,0,1-.35-.35V390a.35.35,0,0,1,.35-.35h5.19a.35.35,0,0,0,.35-.35v-5.13a.34.34,0,0,1,.33-.35h3.24a.35.35,0,0,1,.35.35v5.13a.34.34,0,0,0,.33.35h5.22a.35.35,0,0,1,.35.35v3.33a.35.35,0,0,1-.35.35h-5.2a.35.35,0,0,0-.35.35v5.14a.35.35,0,0,1-.35.35h-3.23A.35.35,0,0,1,1416.16,399.21Z"/></g><g class="cls-2"><path class="cls-3" d="M1417.19,18V15.5a.16.16,0,0,0-.15-.17h-2.56a.18.18,0,0,1-.17-.18V13.52a.18.18,0,0,1,.17-.17H1417a.18.18,0,0,0,.17-.17h0V10.66a.18.18,0,0,1,.17-.17H1419a.18.18,0,0,1,.17.17h0v2.52a.18.18,0,0,0,.17.17h2.55a.18.18,0,0,1,.17.17v1.63a.18.18,0,0,1-.17.18h-2.55a.16.16,0,0,0-.17.15V18a.18.18,0,0,1-.17.17h-1.58a.17.17,0,0,1-.22-.12A.09.09,0,0,1,1417.19,18Z"/></g><g class="cls-35"><path class="cls-3" d="M1415.73,65.22V59a.42.42,0,0,0-.42-.42H1409a.42.42,0,0,1-.42-.42h0v-4a.42.42,0,0,1,.42-.42h6.28a.43.43,0,0,0,.43-.43h0V47a.42.42,0,0,1,.41-.43H1420a.43.43,0,0,1,.43.43h0v6.22a.42.42,0,0,0,.41.43h6.31a.42.42,0,0,1,.42.42h0v4a.42.42,0,0,1-.41.43h-6.31a.42.42,0,0,0-.42.42h0v6.23a.42.42,0,0,1-.42.42h-3.91A.42.42,0,0,1,1415.73,65.22Z"/></g><g class="cls-13"><path class="cls-3" d="M1415.26,234.67v-7.42a.51.51,0,0,0-.51-.5h-7.48a.5.5,0,0,1-.5-.5v-4.81a.52.52,0,0,1,.5-.5h7.48a.51.51,0,0,0,.51-.5V213a.5.5,0,0,1,.5-.5h4.65a.5.5,0,0,1,.5.5v7.42a.52.52,0,0,0,.5.5h7.5a.51.51,0,0,1,.51.5v4.81a.5.5,0,0,1-.5.5h-7.51a.52.52,0,0,0-.5.5v7.42a.5.5,0,0,1-.5.5h-4.65A.5.5,0,0,1,1415.26,234.67Z"/></g><g class="cls-32"><path class="cls-3" d="M1416.74,313.22v-3.65a.26.26,0,0,0-.24-.25h-3.69a.25.25,0,0,1-.25-.25V306.7a.25.25,0,0,1,.25-.25h3.69a.26.26,0,0,0,.24-.25v-3.65a.25.25,0,0,1,.25-.25h2.3a.26.26,0,0,1,.24.25v3.65a.25.25,0,0,0,.25.25h3.7a.25.25,0,0,1,.25.25v2.37a.25.25,0,0,1-.25.25h-3.7a.25.25,0,0,0-.25.25v3.65a.26.26,0,0,1-.24.25H1417a.25.25,0,0,1-.26-.24Z"/></g></g></g></svg>