<?xml version="1.0" encoding="utf-8"?>
<!-- Generator: Adobe Illustrator 24.2.1, SVG Export Plug-In . SVG Version: 6.00 Build 0)  -->
<svg version="1.1" id="background" xmlns="http://www.w3.org/2000/svg" xmlns:xlink="http://www.w3.org/1999/xlink" x="0px" y="0px"
	 viewBox="0 0 1444 401" style="enable-background:new 0 0 1444 401;" xml:space="preserve">
<style type="text/css">
	.st0{clip-path:url(#SVGID_2_);}
	.st1{fill:#005EB8;}
	.st2{fill:#2565C1;}
	.st3{fill:#2471C4;}
	.st4{fill:#3D84D0;}
	.st5{fill:#5497DB;}
</style>
<g>
	<defs>
		<rect id="SVGID_1_" width="1444" height="401"/>
	</defs>
	<clipPath id="SVGID_2_">
		<use xlink:href="#SVGID_1_"  style="overflow:visible;"/>
	</clipPath>
	<g class="st0">
		<rect class="st1" width="1444" height="401"/>
		<path class="st2" d="M37.8,275.3c9.5-1,19.2,0.6,27.9,4.4c6.3-20.3,23.7-35.3,44.7-38.5c5.5-34,37.5-57.1,71.5-51.6
			c19.8,3.2,36.9,15.8,45.9,33.8c35.1-12,74-0.5,96.9,28.6c14.9-22.9,44.1-31.6,69.1-20.7c6.3-20.3,23.7-35.3,44.7-38.5
			c5.5-34,37.5-57,71.5-51.5c27.3,4.4,48.4,26.3,51.8,53.7c45.1-24.1,101.1-11.2,131,30.2c21-6.6,43.9-0.2,58.5,16.3
			c12.3-28.2,45.1-41.1,73.3-28.8c16,7,27.9,21.1,31.9,38.1c1.8-0.2,3.7-0.3,5.5-0.3c24.9,0,46.8,16.5,53.6,40.5
			c29.3-23.1,68.9-28.3,103.2-13.7c-0.2-1.8-0.3-3.7-0.3-5.5c0-30.8,24.9-55.7,55.7-55.7c10,0,19.8,2.7,28.4,7.8
			c14.9-18.7,36.9-30.5,60.7-32.6c2.7-30.6,29.8-53.3,60.4-50.5c17.8,1.6,33.7,11.6,42.9,26.9c53.8-41.7,131.1-31.9,172.8,21.8
			c1.5,1.9,2.9,3.9,4.3,5.9v633.1H0V295.9C9.3,284.2,23,276.8,37.8,275.3z"/>
		<path class="st3" d="M0,223.5v551.7h1485.7V294.9c-24.7-26.5-62-37.2-97-27.7c-7-32.9-39.3-54-72.2-47
			c-21.8,4.6-39.3,20.7-45.7,42c-27.4-20.2-63.4-24.6-94.9-11.6c-24.3-18.4-58.9-13.7-77.3,10.6c-11.8,15.6-14.5,36.3-7,54.4
			c-17.8-28.3-49-45.5-82.4-45.5c-3,0-6,0.2-9,0.4c-6.5-29.4-35.6-47.9-65-41.4c-24.9,5.5-42.7,27.6-42.7,53.2c0,0.9,0,1.7,0.1,2.6
			c-27.8-4.3-54.3,13.2-61.2,40.5c-27.1-24-65.3-30.9-99.1-18.1c-22.3-20.2-56.8-18.4-76.9,3.9c-0.3,0.3-0.5,0.6-0.8,0.9
			c12.2-27.5-0.1-59.6-27.6-71.9c-9.3-4.1-19.5-5.6-29.6-4.2c-36.5-39.5-98.2-41.9-137.7-5.4c-8.7,8-15.8,17.5-21,28.1
			c-25.1-16.6-58.9-9.8-75.5,15.3c-5.9,8.9-9.1,19.4-9.1,30.1c0,1.2,0,2.3,0.1,3.5c-10.3-12.4-25.7-19.6-41.8-19.5h-0.5
			c0.9-4.7,1.3-9.5,1-14.2c-1.8-30-27.6-52.9-57.7-51.1c-25.4,1.5-46.3,20.4-50.5,45.5c-26.9-13.5-59.7-2.7-73.2,24.2
			c-0.9,1.8-1.7,3.6-2.4,5.4c-10.3-11.2-24.8-17.5-40-17.5h-0.4c0.7-3.6,1.1-7.2,1.1-10.9c0-30.1-31.7-51.9-54.5-54.5
			C29.5,214.4,11,212.2,0,223.5z M1097.4,326.1c1.2,1.7,2.6,3.4,4,5c-0.5,0.2-1,0.5-1.5,0.8C1099.1,330,1098.3,328,1097.4,326.1z
			 M253.6,331.5c1.6,0.1,3.2,0.2,4.8,0.2h0.5c-0.1,0.6-0.2,1.3-0.4,2C256.9,332.9,255.2,332.2,253.6,331.5z M233.6,327.9
			c0.1-0.6,0.3-1.3,0.4-2c1.6,0.8,3.2,1.5,4.9,2.2c-1.6-0.1-3.2-0.2-4.8-0.2L233.6,327.9z"/>
		<path class="st4" d="M656.6,455c10.5-36-10.3-73.7-46.3-84.2c-21.8-6.3-45.3-1.3-62.7,13.3c-44.9-40.2-114-36.4-154.2,8.5
			c-2.4,2.7-4.6,5.5-6.8,8.3c-23.8-23.5-61.3-26.2-88.2-6.2c-23.1-35.5-67-51.2-107.4-38.6c-15.5-34.1-55.8-49.2-89.9-33.6
			c-9.1,4.1-17.1,10.2-23.6,17.8c-4.9-0.8-9.9-1.3-14.9-1.3c-23.5,0-46,9.3-62.6,25.8v408.4h672v-302
			C667.4,465.3,662.3,459.9,656.6,455z"/>
		<path class="st5" d="M1444,281c-19-37-64.4-51.6-101.4-32.6c-23.5,12.1-39,35.6-40.8,61.9c-41.1-44.2-110.3-46.6-154.4-5.5
			c-14.9,13.9-25.6,31.6-30.9,51.2c-11-9.1-24-15.5-37.9-18.9c-16.5-30.9-55-42.7-85.9-26.2c-1.9,1-3.7,2.1-5.4,3.3
			c-34-49.8-102-62.6-151.9-28.6c-21.3,14.6-36.8,36.2-43.7,61.2c-34.8-24.2-82.7-15.6-106.9,19.2c-3.2,4.6-5.9,9.6-8.1,14.9
			c-1.5-2.3-4.8,295.3-4.8,295.3h772V281z"/>
		<circle class="st5" cx="676.6" cy="437.2" r="57.2"/>
	</g>
</g>
</svg>
