<svg id="background" xmlns="http://www.w3.org/2000/svg" xmlns:xlink="http://www.w3.org/1999/xlink" viewBox="0 0 1444 401"><defs><style>.cls-1{fill:none;}.cls-2{clip-path:url(#clip-path);}.cls-3{fill:#005eb8;}.cls-4{fill:#2471c4;}.cls-5{fill:#0f68d3;}.cls-6{fill:#1b71de;}.cls-7{fill:#134eb2;}</style><clipPath id="clip-path"><rect class="cls-1" width="1444" height="401"/></clipPath></defs><g class="cls-2"><rect class="cls-3" width="1444" height="401"/><rect class="cls-3" x="170.61" width="1444" height="401"/><g id="arrows"><path class="cls-4" d="M1452.54,197.48v71.14l-18.82-18.75L1211.35,471.35H1143.8L1400,216.24l-18.83-18.76Z"/><path class="cls-5" d="M1360.18,277.31v99.86l-26.42-26.31-51.69,51.48h-94.83l99.1-98.71-26.42-26.32Z"/><path class="cls-6" d="M1279.38,302.09v75.69l-20-19.94-44.69,44.5h-71.88l80.63-80.3-20-20Z"/><path class="cls-7" d="M720.56,302.09v75.69l-20-19.94-44.7,44.5H584L664.59,322l-20-20Z"/><path class="cls-4" d="M998.61,249.13v117l-31-30.82L749.19,552.87H638.14L912.13,280l-30.94-30.82Z"/><path class="cls-7" d="M1306.88,98.61v117l-30.94-30.83L1057.47,402.34H946.42l274-272.91-30.94-30.82Z"/><path class="cls-5" d="M1188.16,128.48v71.13l-18.82-18.74L947,402.34H879.42l256.14-255.11-18.82-18.75Z"/></g><path class="cls-4" d="M1139.15,45.07h112.08s-25.41-27.67-44.29-15.22-20.69,16.83-33.54,8.31S1139.15,45.07,1139.15,45.07Z"/><path class="cls-4" d="M609.92,181.43H722s-25.41-27.67-44.28-15.22S657,183,644.17,174.52,609.92,181.43,609.92,181.43Z"/></g></svg>