<svg xmlns="http://www.w3.org/2000/svg" xmlns:xlink="http://www.w3.org/1999/xlink" viewBox="0 0 288 288"><defs><style>.cls-1{fill:none;}.cls-2{clip-path:url(#clip-path);}.cls-3{fill:#fff;}.cls-4{fill:#f7b334;}.cls-5{fill:#285cff;}.cls-6{fill:#0033a0;}.cls-7{fill:#ff4612;}</style><clipPath id="clip-path" transform="translate(0 0)"><rect class="cls-1" width="288" height="288"/></clipPath></defs><title>inc-5000-fastest-growing-companies-2023</title><g id="Layer_2" data-name="Layer 2"><g id="Layer_1-2" data-name="Layer 1"><g class="cls-2"><path d="M288,144A144,144,0,1,1,144,0,144,144,0,0,1,288,144" transform="translate(0 0)"/><path class="cls-3" d="M144,264A120,120,0,1,1,264,144,120.14,120.14,0,0,1,144,264" transform="translate(0 0)"/><path class="cls-3" d="M24,76.51l11.72,1.75-1,1.74-3-.43-2.24,4,1.95,2.26-.94,1.69-7.73-8.93Zm.89,1.89,0,.07,3.57,4,1.81-3.26Z" transform="translate(0 0)"/><polygon class="cls-3" points="40.19 71.58 31.33 68.76 31.3 68.8 38.51 73.94 37.45 75.42 28.42 68.98 30.16 66.55 39.19 69.62 39.21 69.59 33.38 62.03 35.04 59.7 44.07 66.14 43.01 67.63 35.81 62.49 35.79 62.53 41.37 69.93 40.19 71.58"/><polygon class="cls-3" points="47.45 54.76 44.64 57.93 47.12 60.13 50.48 56.33 51.68 57.39 47.03 62.64 38.73 55.28 43.16 50.28 44.35 51.33 41.2 54.88 43.48 56.9 46.28 53.73 47.45 54.76"/><path class="cls-3" d="M54.21,48.44l-.12.11-1.27,1.19L56,53.1l-1.4,1.31L47,46.33l3.08-2.9c2-1.92,3.62-1.58,4.81-.31A3,3,0,0,1,55.39,47l5.15,1.84L59,50.23Zm-1.33-.8c1.22-1.15,1.55-2.08.62-3.07s-1.64-.68-2.72.33l-1.33,1.25,2.35,2.5Z" transform="translate(0 0)"/><polygon class="cls-3" points="65.02 43.49 65.96 42.73 66.78 43.76 63.38 46.48 62.56 45.45 63.51 44.69 58.23 38.08 57.29 38.83 56.47 37.8 59.87 35.08 60.69 36.11 59.74 36.87 65.02 43.49"/><path class="cls-3" d="M73.67,34.24l1.63-.93c1.29,2.27.58,4.25-1.44,5.61-2.52,1.69-4.89,1.08-7-2-2.23-3.32-1.59-6,.92-7.68,2.16-1.45,4.19-1.07,5.63,1.15l-1.52,1.18c-1.22-1.78-2.34-1.63-3.29-1-1.37.92-1.84,2.51-.07,5.16,1.58,2.36,3,2.84,4.48,1.85a2.22,2.22,0,0,0,.64-3.3" transform="translate(0 0)"/><path class="cls-3" d="M80.14,22.09,89,29.9l-1.76.94-2.25-2L81,31.06l.42,3-1.71.91L78,23.23Zm-.28,2.07-.07,0,.83,5.32,3.29-1.76Z" transform="translate(0 0)"/><polygon class="cls-3" points="86.5 18.95 88.14 18.21 88.81 19.68 89.04 22.42 88.28 22.55 87.92 20.5 87.33 20.77 86.5 18.95"/><path class="cls-3" d="M98.5,17.73a2,2,0,0,0-2.74-1.17c-1.1.42-1.56,1.06-1.18,2s1.51,1,2.75.82c1.7-.26,3.71-.65,4.59,1.65.77,2-.25,3.85-2.61,4.74s-4.18.49-5.3-1.63l1.78-1a2.07,2.07,0,0,0,3,1.11c1.37-.52,1.79-1.39,1.42-2.35-.46-1.2-1.67-.92-3.07-.69-1.65.25-3.53.48-4.36-1.71C92,17.64,93,15.9,95.33,15s3.8-.24,4.89,1.72Z" transform="translate(0 0)"/><polygon class="cls-3" points="117.34 15.44 113.32 16.38 114.38 20.96 112.5 21.39 109.99 10.59 116.48 9.08 116.84 10.62 112.23 11.69 112.97 14.89 116.99 13.96 117.34 15.44"/><path class="cls-3" d="M125.6,7.58,131.29,18l-2,.28-1.44-2.61-4.56.66-.62,2.91-1.91.28L123.2,7.93Zm-1,1.85h-.08l-1,5.28,3.69-.53Z" transform="translate(0 0)"/><path class="cls-3" d="M140,9.81a2,2,0,0,0-2.24-2c-1.18.05-1.81.52-1.76,1.58.06,1.21,1.13,1.43,2.36,1.63,1.69.28,3.73.54,3.85,3,.1,2.16-1.44,3.58-4,3.69-2.67.12-4.12-.84-4.53-3.19l2-.38a2.07,2.07,0,0,0,2.47,2c1.46-.07,2.13-.77,2.08-1.79-.06-1.28-1.31-1.39-2.71-1.61-1.65-.27-3.51-.64-3.62-3-.1-2.05,1.45-3.38,3.89-3.49s3.69.95,4.11,3.15Z" transform="translate(0 0)"/><polygon class="cls-3" points="148.94 7.98 145.68 7.85 145.74 6.26 154.22 6.61 154.15 8.19 150.88 8.06 150.49 17.56 148.56 17.48 148.94 7.98"/><polygon class="cls-3" points="164.23 13.97 160.03 13.43 159.61 16.71 164.65 17.36 164.44 18.95 157.49 18.05 158.9 7.05 165.52 7.9 165.32 9.48 160.62 8.87 160.23 11.88 164.43 12.42 164.23 13.97"/><path class="cls-3" d="M175.63,13.4A2,2,0,0,0,174,10.92c-1.15-.26-1.88,0-2.11,1.07s.71,1.67,1.85,2.19c1.56.72,3.46,1.49,2.93,3.9-.47,2.11-2.32,3.08-4.79,2.53s-3.76-1.89-3.54-4.27l2,.15A2.07,2.07,0,0,0,172.21,19c1.43.32,2.25-.18,2.48-1.19.28-1.25-.9-1.68-2.19-2.27-1.52-.69-3.22-1.53-2.71-3.82.44-2,2.28-2.89,4.67-2.36s3.32,1.88,3.15,4.12Z" transform="translate(0 0)"/><polygon class="cls-3" points="184.68 13.98 181.57 12.99 182.05 11.48 190.13 14.04 189.65 15.55 186.52 14.56 183.65 23.62 181.81 23.04 184.68 13.98"/><rect class="cls-3" x="191.23" y="20.13" width="1.45" height="4.17" transform="translate(101.55 193) rotate(-68.7)"/><path class="cls-3" d="M202.85,25.43l3.69,1.81L204,32.41l-1.26-.62.58-1.38a3.8,3.8,0,0,1-3.45,0c-2.54-1.24-3.22-3.66-1.64-6.88,1.84-3.76,4.5-4.47,7.24-3.13,2.22,1.09,2.93,2.84,1.82,5.29l-1.76-.83c.75-1.7.22-2.57-.93-3.14-1.38-.68-3-.32-4.44,2.53-1.29,2.62-.92,4.11.67,4.89a2.37,2.37,0,0,0,3.4-1.2l.07-.14-2.09-1Z" transform="translate(0 0)"/><path class="cls-3" d="M213.74,32.58l-.14-.09-1.48-.92-2.43,3.91-1.63-1,5.85-9.42,3.59,2.23c2.39,1.48,2.46,3.09,1.54,4.56a3,3,0,0,1-3.59,1.49L215,38.79l-1.74-1.08Zm.43-1.49c1.42.88,2.41,1,3.12-.19s.24-1.76-1-2.54l-1.55-1-1.81,2.91Z" transform="translate(0 0)"/><path class="cls-3" d="M221.05,36.24c2.21-2.88,5.06-3.4,7.59-1.45s2.44,4.52.31,7.29c-2.28,3-4.9,3.65-7.51,1.65s-2.58-4.63-.39-7.48m6.24,4.63c1.61-2.1,1.79-3.73.32-4.86s-3.24-.7-4.89,1.45-1.83,3.85-.3,5,3.16.6,4.86-1.62" transform="translate(0 0)"/><polygon class="cls-3" points="234.59 55.03 238.71 47.63 238.67 47.59 231.49 52.01 229.72 50.28 235.48 40.41 236.95 41.84 231.9 49.83 231.92 49.85 240.05 44.87 241.45 46.23 236.79 54.6 236.81 54.62 244.7 49.4 246.1 50.76 236.36 56.75 234.59 55.03"/><polygon class="cls-3" points="243.36 62.79 244.14 63.71 243.13 64.56 240.34 61.22 241.34 60.38 242.12 61.3 248.61 55.87 247.84 54.95 248.85 54.11 251.64 57.45 250.63 58.29 249.85 57.35 243.36 62.79"/><polygon class="cls-3" points="249.66 73.35 253.76 64.71 253.72 64.66 246.91 69.44 245.87 67.96 254.94 61.59 256.26 63.47 252.01 72.14 252.04 72.17 258.96 67.31 260 68.8 250.93 75.17 249.66 73.35"/><path class="cls-3" d="M260.44,80.3l2,3.59-5,2.8-.68-1.23,1.26-.81a3.79,3.79,0,0,1-2.82-2c-1.38-2.47-.56-4.85,2.57-6.59,3.66-2,6.25-1.11,7.73,1.55a3.56,3.56,0,0,1-1.42,5.3l-1-1.63c1.55-1,1.6-2,1-3.08-.75-1.35-2.32-2-5.09-.45-2.55,1.42-3.1,2.85-2.24,4.39a2.37,2.37,0,0,0,3.47,1l.13-.07-1.13-2Z" transform="translate(0 0)"/><path class="cls-3" d="M46.65,241.75l-1.37-1.34L53,232.49l3,2.93c2,2,1.68,3.61.4,4.92-1,1-3,2.34-5.72-.32l-1.21-1.18Zm4.94-3c1.24,1.22,2.31,1.31,3.33.27s.82-1.74-.33-2.86l-1.27-1.25-2.77,2.83Z" transform="translate(0 0)"/><path class="cls-3" d="M61.26,248.65l-.13-.1-1.36-1.09-2.88,3.6-1.5-1.2,6.93-8.66,3.3,2.65c2.19,1.76,2.07,3.36,1,4.72a3,3,0,0,1-3.74,1L61.77,255l-1.6-1.28Zm.6-1.43c1.31,1,2.28,1.24,3.13.18s.44-1.72-.71-2.64l-1.43-1.14-2.14,2.68Z" transform="translate(0 0)"/><polygon class="cls-3" points="69.51 258.7 70.52 259.37 69.79 260.46 66.17 258.05 66.9 256.96 67.9 257.63 72.59 250.59 71.6 249.93 72.33 248.83 75.95 251.24 75.22 252.34 74.2 251.66 69.51 258.7"/><polygon class="cls-3" points="86.59 257.39 88.36 258.35 79.57 266.2 77.45 265.04 79.23 253.37 81.09 254.39 79.36 264.07 79.4 264.09 86.59 257.39"/><path class="cls-3" d="M96.23,261.79l-.48,11.84-1.84-.78.11-3-4.25-1.79-2,2.18L86,269.5l8-8.65Zm-1.79,1.08-.07,0-3.62,4,3.44,1.45Z" transform="translate(0 0)"/><polygon class="cls-3" points="104.58 266.54 101.46 265.56 101.94 264.05 110.02 266.61 109.55 268.12 106.42 267.13 103.55 276.19 101.7 275.6 104.58 266.54"/><polygon class="cls-3" points="119.13 275.06 114.99 274.17 114.29 277.4 119.26 278.47 118.92 280.03 112.07 278.56 114.4 267.72 120.93 269.12 120.59 270.67 115.95 269.68 115.32 272.64 119.45 273.53 119.13 275.06"/><path class="cls-3" d="M138.4,278.4l1.86.25c-.36,2.58-2.13,3.73-4.55,3.57-3-.19-4.54-2.12-4.31-5.87.25-4,2.39-5.72,5.4-5.53,2.59.16,4,1.7,3.77,4.34h-1.92c.12-2.16-.86-2.72-2-2.79-1.64-.1-3,.87-3.19,4.05-.18,2.84.65,4.08,2.43,4.19a2.21,2.21,0,0,0,2.52-2.23" transform="translate(0 0)"/><path class="cls-3" d="M145.36,276.89c-.16-3.62,1.69-5.85,4.87-6s4.77,1.89,4.93,5.38c.17,3.74-1.4,5.94-4.69,6.09s-5-1.88-5.11-5.47m7.75-.47c-.12-2.64-1-4-2.88-3.92s-2.93,1.55-2.8,4.25,1.08,4.13,3,4,2.8-1.58,2.68-4.37" transform="translate(0 0)"/><polygon class="cls-3" points="166.44 280.55 162.15 272.3 162.1 272.3 163.58 281.03 161.78 281.33 159.93 270.4 162.88 269.9 167.11 278.46 167.14 278.45 168.34 268.98 171.17 268.5 173.02 279.43 171.22 279.74 169.75 271.03 169.7 271.03 168.43 280.21 166.44 280.55"/><path class="cls-3" d="M181.5,277.24l-1.84.54-3.12-10.64,4-1.18c2.75-.81,4,.3,4.49,2.05.4,1.38.57,3.77-3.07,4.84l-1.62.48Zm-.18-5.76c1.67-.49,2.27-1.38,1.86-2.78-.37-1.25-1.12-1.56-2.66-1.11l-1.71.5,1.11,3.8Z" transform="translate(0 0)"/><path class="cls-3" d="M192.41,261.78l8,8.75-1.85.74-2-2.2-4.28,1.71.09,3-1.79.72-.36-11.8Zm-.51,2-.07,0,.23,5.38,3.46-1.39Z" transform="translate(0 0)"/><polygon class="cls-3" points="211.23 265.01 203.14 259.9 203.09 259.93 207.02 267.27 205.43 268.12 200.18 258.35 202.21 257.26 210.31 262.52 210.35 262.5 206.35 255.04 207.95 254.18 213.19 263.96 211.23 265.01"/><polygon class="cls-3" points="220.3 257.89 221.31 257.23 222.04 258.32 218.41 260.73 217.68 259.63 218.69 258.96 214.02 251.91 213.02 252.56 212.29 251.47 215.93 249.06 216.65 250.16 215.63 250.84 220.3 257.89"/><polygon class="cls-3" points="228.77 247.14 225.45 249.76 227.5 252.36 231.49 249.22 232.48 250.47 226.97 254.81 220.1 246.1 225.35 241.97 226.33 243.21 222.6 246.15 224.49 248.54 227.81 245.92 228.77 247.14"/><path class="cls-3" d="M235.73,237.15a2,2,0,0,0-3,0c-.85.82-1,1.58-.29,2.35s1.79.34,2.85-.32c1.46-.9,3.17-2,4.87-.26,1.49,1.56,1.26,3.64-.56,5.38s-3.66,2.08-5.52.57l1.26-1.6a2.07,2.07,0,0,0,3.15-.13c1.06-1,1.1-2,.39-2.72-.89-.93-1.9-.19-3.1.56-1.42.88-3.07,1.82-4.68.13-1.42-1.48-1.13-3.5.64-5.19s3.41-1.71,5.17-.32Z" transform="translate(0 0)"/><path d="M146.17,28.34h-1.5l-.18,70h.61Zm-14,.62h-.87l-.62.07,8.2,69.52.59-.07Zm-13.8,2.3-.08,0h-.07l-.34.08h0l-.07,0h-.07l-.81.19,16.56,68,.57-.14Zm-13.42,4-1.41.52,24.71,65.49.55-.2ZM92.13,40.78l-.63.32h0l-.07,0h0l-.06,0h0l-.06,0h0l-.06,0h0l-.06,0h0l-.06,0,0,0,0,0-.07,0h0l-.08,0,32.47,62,.52-.27ZM80.06,47.85l-.3.2,0,0,0,0-.83.56,0,0h0l39.71,57.65L119,106ZM68.93,56.33l-.21.18h0l0,0-.87.76,46.35,52.46.45-.39Zm-10,9.75-.49.54h0l0,.05v0l0,0,0,0,0,0,0,0,0,0,0,0,0,0v0l0,.05h0l-.16.18,52.31,46.52.4-.44ZM50.09,77l-.66.93-.2.29,57.52,39.9.34-.49L50.09,77ZM42.67,88.82,42,90.14l61.91,32.66.28-.52Zm-5.93,12.67-.1.25v0l0,0,0,.06h0l-.39,1,65.42,24.91.21-.55Zm-4.35,13.3-.2.77-.17.68L100,133l.14-.57Zm-2.7,13.73,0,.23v.06q-.08.6-.15,1.2L99,138.43q0-.3.08-.59Zm69,14.93-70-1q0,.75,0,1.5l70,.08c0-.2,0-.41,0-.61m.26,5.61-69.61,7.4.1.93v.13h0l.05.42L99,149.65q0-.29-.07-.59m.91,5.42-68.2,15.77v0q.16.67.32,1.34h0l0,.07L100,155l-.14-.57m1.55,5.24L35.61,183.67q.24.66.48,1.31l0,.05h0v0l65.46-24.81-.2-.55m2.19,5L41.19,196.5h0l.51,1,0,0,0,0,.15.28,62-32.56-.27-.52m2.8,4.77-58.1,39,.21.31v0l0,0,.6.87L106.71,170l-.33-.49m3.38,4.43-53,45.74.21.24,0,0,0,0,0,0,0,0,0,0,0,0,0,0,0,0,0,0,.53.61,52.39-46.42-.39-.45M115,176.4,66.53,229.71l.32.29.5.45.3.26,47.82-53.91-.44-.4m4.18,3.34L77.42,238.48l.21.15,0,0,0,0,.24.17,0,0h0l.68.47,41-59.27-.49-.34m3.47,4.62L89.3,245.89l1.32.71,32.57-62-.52-.28m5,2.32L102,251.8l.85.33h.06l.49.19,24.81-65.46-.55-.21m5.2,1.69-17.55,67.76.27.07h.14l1.05.26,16.67-68-.57-.14m5.4,1.05L129,258.8l1.49.19,8.32-69.5-.59-.07m6.22.41h-.61l-.87,70h1.5Zm5.59-.33-.59.07,7.5,69.6,1.49-.17Zm5.4-1-.57.14,15.87,68.18.77-.18h.15l.07,0h0l.06,0h.08l.3-.07Zm5.22-1.63-.55.21,24,65.74.44-.16h0l.08,0h0l.07,0h0l.79-.3Zm3.23-5.9-.52.27,33.61,66h0l.06,0h0l.74-.38,0,0,0,0,.44-.23Zm4.41-2.35-.49.34L209,240.11l.43-.29h0l0,0,.06,0h0l.6-.41.09-.06Zm6.47-.33-.45.4,45.82,52.92.14-.12,0,0,0,0,0,0,0,0,0,0h0l.05,0h0l.42-.37,0,0,0,0,.05,0h0l.21-.18Zm3.94-4-.4.45,51.83,47,1-1.12Zm3.43-4.38-.34.49,57.11,40.47.52-.74h0l0-.05,0,0,0-.05h0l.23-.34Zm2.86-4.73-.28.52L246.3,199l.71-1.32Zm2.24-5-.21.55,65.16,25.57.16-.41h0l0-.06,0,0v0l.29-.76,0-.11Zm1.61-5.22-.14.57L256.5,173q.19-.72.36-1.46Zm1-5.42c0,.2,0,.39-.08.59l69.4,9.12,0-.22q.08-.63.16-1.27Zm70.32-5.75-70,.12q0,.3,0,.61l70,.77c0-.42,0-.85,0-1.26v-.24Zm-.86-14-69.48,8.5c0,.2,0,.39.07.59l69.59-7.6,0-.32c0-.39-.09-.78-.14-1.17m-2.54-13.76L188.81,133l.14.57,68.15-16-.1-.44h0l-.24-1m-4.19-13.35-65.39,25,.21.55,65.71-24.14-.19-.51v-.06l-.32-.83M246.78,90l-61.87,32.74.27.52,62.29-31.93-.51-1,0-.06h0l-.15-.28M239.5,78.08,182,118l.34.49,58-39.21-.05-.07-.34-.5v0l0,0,0-.05h0l-.37-.54m-8.66-11-52.26,46.57.4.45,52.85-45.9-.1-.11,0,0,0,0,0-.05h0l-.06-.07h0l-.06-.07h0l-.05-.06v0l0,0,0,0v0l-.53-.6m-9.92-9.87-46.29,52.5.44.4,47-51.9-.3-.27h0l-.05,0-.75-.66,0,0m-11-8.61-39.65,57.69.49.34,40.39-57.17-1.23-.86m-12-7.21-32.39,62.05.52.28,33.2-61.63h0l-.65-.34h0l-.06,0,0,0,0,0,0,0,0,0,0,0,0,0,0,0,0,0h0l-.24-.13M185.12,35.7,160.5,101.22l.55.21,25.47-65.2-.39-.15,0,0h0l-.61-.23h0l-.05,0-.3-.11m-13.37-4.11-16.47,68,.57.14,17.36-67.81-1.46-.36M158,29.12l-8.12,69.53.59.07,9-69.42-.36,0h-.05l-.86-.11h0l-.17,0" transform="translate(0 0)"/><path class="cls-3" d="M248.41,227,247,225.82A131.54,131.54,0,0,0,265.45,93.41l1.7-.71A133.39,133.39,0,0,1,248.41,227" transform="translate(0 0)"/><path class="cls-3" d="M39.61,227A133.39,133.39,0,0,1,20.88,92.7l1.7.71A131.54,131.54,0,0,0,41.05,225.82Z" transform="translate(0 0)"/><path class="cls-3" d="M248.38,226.95,247,225.84A131.58,131.58,0,0,0,265.47,93.39l1.64-.68a133.35,133.35,0,0,1-18.73,134.24" transform="translate(0 0)"/><path class="cls-3" d="M39.64,226.95A133.35,133.35,0,0,1,20.91,92.71l1.64.68A131.58,131.58,0,0,0,41,225.84Z" transform="translate(0 0)"/><path class="cls-3" d="M215.79,137.28a8.07,8.07,0,0,1-6.82-4.84l-.42-1-.75.73c-4,3.92-10.1,5.91-18.09,5.91s-15.31-2.49-20.07-6.82l-1.21-1.1v6.93H69.3V122.45H76V97.91H69.3V82.37h39.18v12H131.6l1.25,5.08,1.15-.87c3.46-2.62,7.52-3.83,12.76-3.83,10.09,0,16.14,4.44,17,12.5l.28,2.56,1.09-2.34c4.4-9.46,15.54-12.84,24.51-12.85.31,0,.87,0,.89,0,9.84,0,20.85,4.7,22.23,17.88l.18,1.74-18.66,2.05-.08-1.88c-.25-5.76-1.86-6.92-4.38-6.92-3.95,0-5.22,2.14-5.22,8.81s1.27,8.92,5.22,8.92c2.9,0,4.63-1.61,4.63-4.31v-1.77l2.26,0h16.42l-.25,2.61,1-.33a7.86,7.86,0,0,1,2.39-.38,8.11,8.11,0,0,1,.8,16.18Zm.53,16.85c-3.27,0-4.82,2.39-4.82,15.94S213.05,186,216.32,186s4.82-2.39,4.82-15.94-1.56-15.94-4.82-15.94m-49,0c-3.27,0-4.82,2.39-4.82,15.94S164,186,167.3,186s4.82-2.39,4.82-15.94-1.55-15.94-4.82-15.94m-49,0c-3.27,0-4.82,2.39-4.82,15.94S115,186,118.27,186s4.82-2.39,4.82-15.94-1.56-15.94-4.82-15.94M65.72,174.19l1.71,1.32-.49,1.22c-.81,1.59-1.23,5.14,0,7.16a3.2,3.2,0,0,0,3,1.49c2.83,0,4.43-1.28,5.06-4a12.83,12.83,0,0,0,.28-2.81c0-2.77-.71-4.91-2.05-6.21a5.19,5.19,0,0,0-3.69-1.4,12.28,12.28,0,0,0-7.41,2.94l-.66.32L48,168.82l4.11-29.64H90.65v17.07H66.15l-.48,3.61,1.17-.5a18.85,18.85,0,0,1,7.52-1.48c6.26,0,11.22,1.67,14.74,5a15.86,15.86,0,0,1,2.67,3.28L92.94,168l.15-2.24c1.2-17.46,10.13-27.08,25.14-27.08,12.27,0,20.51,6.42,23.83,18.56l.71,2.6.68-2.61c3.18-12.14,11.41-18.55,23.81-18.55s20.51,6.42,23.83,18.56l.71,2.6.68-2.61c3.13-11.95,11.17-18.35,23.27-18.54h1.47c15.54.43,24.46,11.85,24.46,31.31,0,20-9.26,31.42-25.4,31.42-12.27,0-20.49-6.48-23.77-18.74l-.69-2.59-.7,2.59c-3.29,12.26-11.54,18.74-23.86,18.74S146.76,195,143.48,182.7l-.69-2.59-.7,2.59c-3.29,12.26-11.54,18.74-23.86,18.74C107,201.44,98.8,195.6,95.16,185l-.71-2.06L93.79,185a23.74,23.74,0,0,1-2,4.61,21.1,21.1,0,0,1-4.66,5.67,26.3,26.3,0,0,1-17.52,6.14c-9.94,0-21.25-5.27-22.57-16.83l-.14-1.21Zm73.14-65a5.22,5.22,0,0,0-5.43,5.36v7.93h9.43v-9.94c0-2.22-1.34-3.35-4-3.35m-37.06,13.28h10.57V109.11h-5V97.91h-5.54Z" transform="translate(0 0)"/><path class="cls-4" d="M118.4,140.4c-14.89,0-23.55,9.94-23.55,29.57,0,19.46,8.66,29.66,23.55,29.66,14.7,0,23.64-10.2,23.64-29.66,0-19.63-8.94-29.57-23.64-29.57m0,47.31c-5.43,0-6.58-5.23-6.58-17.7s1.16-17.7,6.58-17.7S125,157.54,125,170s-1.16,17.7-6.58,17.7" transform="translate(0 0)"/><path class="cls-5" d="M167.42,140.4c-14.89,0-23.55,9.94-23.55,29.57,0,19.46,8.66,29.66,23.55,29.66,14.7,0,23.64-10.2,23.64-29.66,0-19.63-8.94-29.57-23.64-29.57m0,47.31c-5.43,0-6.58-5.23-6.58-17.7s1.16-17.7,6.58-17.7,6.58,5.23,6.58,17.7-1.16,17.7-6.58,17.7" transform="translate(0 0)"/><path class="cls-6" d="M216.45,140.4c-14.89,0-23.55,9.94-23.55,29.57,0,19.46,8.66,29.66,23.55,29.66,14.7,0,23.64-10.2,23.64-29.66,0-19.63-8.94-29.57-23.64-29.57m0,47.31c-5.43,0-6.58-5.23-6.58-17.7s1.16-17.7,6.58-17.7,6.58,5.23,6.58,17.7-1.16,17.7-6.58,17.7" transform="translate(0 0)"/><path class="cls-7" d="M88.06,164.06c-3-2.79-7.38-4.49-13.54-4.49a15.84,15.84,0,0,0-11,4l1.23-9.15H89.06V140.88H53.83l-3.74,26.9,10.29,5.34c1.77-1.46,5.11-4,9.35-4a6.92,6.92,0,0,1,4.91,1.9c1.58,1.52,2.59,4,2.59,7.47a14.45,14.45,0,0,1-.33,3.2c-.88,3.85-3.46,5.39-6.77,5.39-6.65,0-6.09-8.28-4.59-11.21l-.09-.09-16.51,8.57c1.2,10.5,11.81,15.27,20.83,15.27a24.74,24.74,0,0,0,16.38-5.72,19.41,19.41,0,0,0,4.27-5.2,21.55,21.55,0,0,0,2.85-10.5c0-5.61-1.52-10.71-5.21-14.15" transform="translate(0 0)"/><polygon points="71.23 135.32 71.23 124.15 77.92 124.15 77.92 96.09 71.23 96.09 71.23 84.07 106.89 84.07 106.89 96.09 100.21 96.09 100.21 124.15 106.89 124.15 106.89 135.32 71.23 135.32"/><path d="M139.6,135.32V124.15h5.18v-11.7c0-3.52-2.52-5.1-5.75-5.1a7,7,0,0,0-7.19,7.12v9.68h5.32v11.17h-27.9V124.15h5V107.3h-5V96.11h22v7.71a7.1,7.1,0,0,0,1-1.08c4-4.6,8.63-6.26,14.67-6.26,8.48,0,15.39,3.45,15.39,12.87v14.78h4.53v11.18Z" transform="translate(0 0)"/><path d="M211.22,112.65l-15.06,1.66c-.18-4.18-1-8.6-6.13-8.6-6.47,0-7,5.39-7,10.57h0v.11c0,5.18.5,10.57,7,10.57,3.4,0,6.39-1.95,6.39-6.07h15l-.12,1.29c-2.47,12.19-13.48,14.1-21.41,14.1-12.44,0-24.66-6.11-24.66-20v0c0-13.88,12.22-20,24.66-20,0,0,19.5-1.26,21.34,16.29" transform="translate(0 0)"/><path d="M222.89,129.16a6.35,6.35,0,1,1-6.35-6.35,6.35,6.35,0,0,1,6.35,6.35" transform="translate(0 0)"/></g></g></g></svg>