<svg xmlns="http://www.w3.org/2000/svg" xmlns:xlink="http://www.w3.org/1999/xlink" viewBox="0 0 276 276"><defs><style>.cls-1{fill:none;}.cls-2{isolation:isolate;}.cls-3{clip-path:url(#clip-path);}.cls-4{fill:#a6b6bb;}.cls-5{fill:#b3c3c8;}.cls-6{fill:#aebcc1;}.cls-7{fill:#ddd;}.cls-14,.cls-8{fill:#424242;}.cls-9{fill:#b6c172;}.cls-10{fill:#727717;}.cls-11{fill:#9da54c;}.cls-12{fill:#f6ff9a;}.cls-13{fill:#a34b22;}.cls-14{mix-blend-mode:screen;}.cls-15{fill:#49263e;}.cls-16{fill:#823111;}.cls-17{fill:#fff;}.cls-18{fill:#2d0e23;}.cls-19{fill:#ffd599;}.cls-20{fill:#8c8c8c;}.cls-21{fill:#d4df67;}.cls-22{fill:#d35e31;}.cls-23{fill:#3a1714;}</style><clipPath id="clip-path"><rect class="cls-1" width="276" height="276"/></clipPath></defs><g class="cls-2"><g id="Layer_1" data-name="Layer 1"><g class="cls-3"><rect class="cls-4" width="276" height="276"/><path class="cls-5" d="M167.75,73.59a4.8,4.8,0,0,0-3.29,4.4v42.46a26.75,26.75,0,0,0,11,21.77l24.94,16a5.34,5.34,0,0,0,5.58,0l24.93-16a26.77,26.77,0,0,0,11-21.77V78.1a4.85,4.85,0,0,0-3.48-4.46C208.21,63.27,196.07,63,167.75,73.59Z"/><path class="cls-6" d="M238.5,73.64c-14.74-5-25.19-7.7-35.29-7.88V159a5.22,5.22,0,0,0,2.78-.79l24.94-16a26.76,26.76,0,0,0,11-21.77V78.1A4.8,4.8,0,0,0,238.5,73.64Z"/><path class="cls-7" d="M205.75,104.35h-5.67a9.23,9.23,0,0,1-9.23-9.22V94a9.23,9.23,0,0,1,9.23-9.22h5.67A9.22,9.22,0,0,1,215,94v1.11A9.22,9.22,0,0,1,205.75,104.35Zm-5.67-15.86A5.54,5.54,0,0,0,194.54,94v1.11a5.54,5.54,0,0,0,5.54,5.53h5.67a5.54,5.54,0,0,0,5.53-5.53V94a5.54,5.54,0,0,0-5.53-5.53Z"/><path class="cls-7" d="M208.15,130.13h-9A15.17,15.17,0,0,1,184,115V100.14a3.39,3.39,0,0,1,3.39-3.39h30.66a4.34,4.34,0,0,1,4.35,4.34v14.77A14.26,14.26,0,0,1,208.15,130.13Z"/><path class="cls-5" d="M204.86,111.49a5,5,0,1,0-6.38-3.07A5,5,0,0,0,204.86,111.49Z"/><path class="cls-5" d="M203.21,109.11a1.09,1.09,0,0,1,1.08,1.08v8.34a1.08,1.08,0,1,1-2.16,0v-8.34A1.08,1.08,0,0,1,203.21,109.11Z"/><path class="cls-8" d="M63.45,150.76s-49-1.93-66.48,6.41S-7.46,276.66-7.46,276.66H124.35Z"/><path class="cls-9" d="M114.56,147.68s16.23,18.27-.78,34.44-55.81-1.85-60-19.4,10.06-30.51,19.28-32.1C84.29,128.68,105.56,136.07,114.56,147.68Z"/><path d="M6.8,240.57c.5-.1.73-.45.65-.82-3.73-17.08,0-73.2,0-73.76a.69.69,0,0,0-.63-.72.66.66,0,0,0-.71.63c-.16,2.31-3.77,56.88,0,74.14A.68.68,0,0,0,6.8,240.57Z"/><path class="cls-9" d="M121.71,160.82s22.85,10.58,29.78,24.6,14.76,51,14.76,51,29.18,12.24,34.72,41.09l-198.91-1s1-54.67,10.12-84.89C20,165.85,45.9,155.84,59.11,157.83S121.71,160.82,121.71,160.82Z"/><path class="cls-10" d="M49.57,171.34a.67.67,0,0,0,.64-.49l2.46-8.66a.67.67,0,0,0-.46-.83.68.68,0,0,0-.83.46l-2.46,8.67a.67.67,0,0,0,.46.83Z"/><path class="cls-11" d="M50.8,241l5.32-43.06L62.86,247Z"/><path class="cls-12" d="M138.82,171c-5.83-5.13-17.23-9.91-17.23-9.91v6.78l-6.19-8.77a6.4,6.4,0,0,1-1.09,1.88c-4.39,4.51-7.55,3-12.06,1.63l-3.36,12s-12.31-.77-16.15-2.33a30.42,30.42,0,0,1-6.15-3.35l-2.5-1.07-1.34-2.17a17.85,17.85,0,0,1-1.7-2c.06-.17.12-.35.17-.52l-1.31-2.12-13.57,5.21a16.28,16.28,0,0,0-6.79,14.1c.54,9.4,7.31,17.75,7.31,17.75l5.74,48,8.88,5.22,37.06,6.26,87.18-1.56S160.74,190.3,138.82,171Z"/><path class="cls-13" d="M104.89,125.57c-4.49-1.43-6.27-3.66-6.27-3.66S100.19,135,87.14,147c-7.31,6.72-5.74,24-5.74,24l-4.81-2.06a30.42,30.42,0,0,0,6.15,3.35c3.84,1.56,16.15,2.33,16.15,2.33l3.36-12c4.51,1.42,7.67,2.88,12.06-1.63a6.4,6.4,0,0,0,1.09-1.88l-.07-.1s1.43-4.11,2.58-8.66c.8-3.54,1.55-7.54,2.21-11.41.82-5,1.47-9.69,1.47-9.69S109.37,127,104.89,125.57Z"/><path class="cls-13" d="M72.75,165.68l-1.53-2.49c0,.17-.11.35-.17.52A17.85,17.85,0,0,0,72.75,165.68Z"/><path class="cls-14" d="M72.75,165.68l-1.53-2.49c0,.17-.11.35-.17.52A17.85,17.85,0,0,0,72.75,165.68Z"/><path class="cls-15" d="M136.24,222.68a.67.67,0,0,0,.67-.62l1.79-24.12a.66.66,0,0,0-.61-.72.69.69,0,0,0-.72.62L135.58,222a.66.66,0,0,0,.61.72Z"/><path class="cls-13" d="M108.13,257.63,64.39,250S50.3,261.39,54.21,277.33l55.63.16Z"/><path class="cls-16" d="M102.84,267.33a.66.66,0,0,0,.65-.52c1.54-6.71,4.91-8.56,5-8.58a.67.67,0,0,0,.28-.9.66.66,0,0,0-.9-.29c-.16.08-3.94,2.09-5.63,9.47a.66.66,0,0,0,.5.8Z"/><path class="cls-10" d="M50.79,210.62a.8.8,0,0,0,.26-.05.67.67,0,0,0,.36-.88l-2.87-7a.67.67,0,0,0-.88-.36.67.67,0,0,0-.36.87l2.87,7A.68.68,0,0,0,50.79,210.62Z"/><path class="cls-10" d="M50.79,241.64a.68.68,0,0,0,.67-.59L56.78,198a.67.67,0,1,0-1.33-.17l-5.32,43.06a.67.67,0,0,0,.58.75Z"/><path class="cls-13" d="M104,267.23a25.41,25.41,0,0,1,1.43-5.41c1.35-3.51,4.31-6,7.55-7.69,3.08-1.65,7.8-4.15,11.35-3.8a6.07,6.07,0,0,1,2,.56,10.4,10.4,0,0,1,2.38-.55,5.61,5.61,0,0,1,4.82.49,5.8,5.8,0,0,1,8,2.16,3.79,3.79,0,0,1,4.58-.73c3.34,1.5,3.38,5.32,3.9,8.43a37.18,37.18,0,0,0,1.66,6.38c.57,1.6,1.58,3.27,1.12,5-.78,3.07-4.5,3.34-6.76,1.75a4.72,4.72,0,0,1-4.91.51,8.83,8.83,0,0,1-3.4,0,7.2,7.2,0,0,1-1.11-.34,8.17,8.17,0,0,1-4.24.42,5.38,5.38,0,0,1-1.43.21,6.41,6.41,0,0,1-3.16-.71,5.79,5.79,0,0,1-2.65.71c-3.28.05-5.22-1.87-6.33-4.42l-1.56.11a38.64,38.64,0,0,1-4.64-.08l-1.17.08a38.89,38.89,0,0,1-7.72-.45A25.85,25.85,0,0,1,104,267.23Z"/><path class="cls-16" d="M121.32,272.17a.69.69,0,0,0,.48-.2.67.67,0,0,0,0-1c-2.91-2.82-3.07-12.6-3.07-12.7a.67.67,0,0,0-1.34,0c0,.42.16,10.44,3.47,13.65A.74.74,0,0,0,121.32,272.17Z"/><path class="cls-16" d="M130,272.22a.66.66,0,0,0,.63-.9c-1.78-4.74-3-19.91-3-20.06a.65.65,0,0,0-.72-.61.67.67,0,0,0-.62.71c0,.64,1.19,15.51,3,20.43A.65.65,0,0,0,130,272.22Z"/><path class="cls-16" d="M138.5,273.53a.74.74,0,0,0,.24,0,.67.67,0,0,0,.39-.86c-1.79-4.77-4.45-22-4.48-22.16a.67.67,0,0,0-.76-.56.66.66,0,0,0-.56.76c.1.72,2.7,17.54,4.54,22.43A.68.68,0,0,0,138.5,273.53Z"/><path class="cls-16" d="M145.59,274.22a.46.46,0,0,0,.23-.05.67.67,0,0,0,.4-.86c-1.79-4.76-4-20.27-4-20.42a.67.67,0,0,0-1.33.19c.09.64,2.27,15.8,4.11,20.7A.68.68,0,0,0,145.59,274.22Z"/><path class="cls-13" d="M153.16,267.23a25.41,25.41,0,0,1,1.43-5.41c1.35-3.51,4.31-6,7.55-7.69,3.08-1.65,7.8-4.15,11.35-3.8a6,6,0,0,1,2,.56,10.61,10.61,0,0,1,2.39-.55,5.59,5.59,0,0,1,4.81.49,5.81,5.81,0,0,1,8,2.16,3.79,3.79,0,0,1,4.58-.73c3.33,1.5,3.38,5.32,3.9,8.43a37.18,37.18,0,0,0,1.66,6.38c.58,1.6,1.58,3.27,1.13,5-.79,3.07-4.51,3.34-6.77,1.75a4.72,4.72,0,0,1-4.91.51,8.83,8.83,0,0,1-3.4,0,7.56,7.56,0,0,1-1.11-.34,8.16,8.16,0,0,1-4.24.42,5.32,5.32,0,0,1-1.43.21,6.41,6.41,0,0,1-3.16-.71,5.76,5.76,0,0,1-2.65.71c-3.28.05-5.22-1.87-6.33-4.42l-1.56.11a38.47,38.47,0,0,1-4.63-.08l-1.18.08a38.92,38.92,0,0,1-7.72-.45A23.27,23.27,0,0,1,153.16,267.23Z"/><path class="cls-16" d="M170.51,272.17a.7.7,0,0,0,.49-.2.68.68,0,0,0,0-1c-2.91-2.82-3.07-12.6-3.07-12.7a.66.66,0,0,0-.68-.66.67.67,0,0,0-.66.68c0,.42.17,10.44,3.48,13.65A.69.69,0,0,0,170.51,272.17Z"/><path class="cls-16" d="M179.23,272.22a.66.66,0,0,0,.62-.9c-1.78-4.75-2.94-19.91-3-20.06a.65.65,0,0,0-.71-.62.67.67,0,0,0-.62.72c0,.63,1.19,15.51,3,20.43A.67.67,0,0,0,179.23,272.22Z"/><path class="cls-16" d="M187.7,273.53a.68.68,0,0,0,.23,0,.66.66,0,0,0,.39-.86c-1.79-4.77-4.44-22-4.47-22.16a.67.67,0,0,0-1.33.2c.11.72,2.71,17.54,4.55,22.43A.67.67,0,0,0,187.7,273.53Z"/><path class="cls-15" d="M194.79,274.22a.48.48,0,0,0,.23-.05.66.66,0,0,0,.39-.86c-1.79-4.77-4.44-22-4.47-22.16a.67.67,0,1,0-1.32.21c.1.71,2.7,17.53,4.54,22.42A.67.67,0,0,0,194.79,274.22Z"/><path class="cls-15" d="M109.84,277.49H211.37a4.19,4.19,0,1,0,0-8.38H109.84a4.19,4.19,0,1,0,0,8.38Z"/><path class="cls-15" d="M242.31,249H133.47a4.57,4.57,0,0,1-4.41-5.75l19.15-71.46a4.57,4.57,0,0,1,4.41-3.39H261.46a4.57,4.57,0,0,1,4.41,5.75l-19.15,71.47A4.55,4.55,0,0,1,242.31,249Z"/><path class="cls-17" d="M138.31,242.65a.68.68,0,0,0,.65-.49L157.76,175a.67.67,0,1,0-1.29-.36l-18.8,67.15a.65.65,0,0,0,.46.82Z"/><path class="cls-18" d="M225.89,275.75H195.44a1.28,1.28,0,0,1-1.23-1.61l-9.41-64a1.29,1.29,0,0,1,1.24-.95h30.44a1.28,1.28,0,0,1,1.23,1.61l9.41,64A1.28,1.28,0,0,1,225.89,275.75Z"/><path class="cls-15" d="M79.24,234.85H97.57l-5,42H65.94l-5-42Z"/><path class="cls-19" d="M59.5,234.78l2.61-7.12a2.28,2.28,0,0,1,2.07-1.59H94.76a2.3,2.3,0,0,1,2.08,1.59l2.61,7.12c.64,1.73-.46,3.67-2.08,3.67H61.58C60,238.45,58.86,236.51,59.5,234.78Z"/><path class="cls-20" d="M94,266.31H65l-2.36-19.63H96.39Z"/><path class="cls-15" d="M64.18,226.74H96.11a.68.68,0,0,0,0-1.35H64.18a.68.68,0,0,0,0,1.35Z"/><path class="cls-21" d="M109,147.6s10.39,12.71-.56,23.12c-4.63,4.4-10.93,4-17.12,3.19-8.47-1.07-16.74-4.33-20.25-10.69C65.45,153,73.38,137.3,81.38,135.78,92.78,133.61,101.94,134.87,109,147.6Z"/><path class="cls-1" d="M72.75,165.68l1.34,2.17,2.5,1.07A27.17,27.17,0,0,1,72.75,165.68Z"/><path class="cls-13" d="M76.59,168.92,81.4,171s-1.57-17.29,5.74-24c13-12,11.48-25.06,11.48-25.06s1.78,2.23,6.27,3.66,16.7,3.65,16.7,3.65-.65,4.65-1.47,9.69c1.51-8.82,2.56-16.89,2.56-16.89s-22.91-3.37-28.18-5.3l-.43-3.34-5.92-1.75S76.43,147.2,71.22,163.19l1.53,2.49A27.17,27.17,0,0,0,76.59,168.92Z"/><path class="cls-13" d="M115.4,159.08a55,55,0,0,0,2.51-8.76c-1.15,4.55-2.58,8.66-2.58,8.66Z"/><path class="cls-14" d="M118.46,148c.54-2.44,1.13-5.85,1.66-9.1-.66,3.87-1.41,7.87-2.21,11.41C118.11,149.56,118.29,148.79,118.46,148Z"/><path class="cls-22" d="M104.89,125.57c-4.49-1.43-6.27-3.66-6.27-3.66S100.19,135,87.14,147c-7.31,6.72-5.74,24-5.74,24l-4.81-2.06a30.42,30.42,0,0,0,6.15,3.35c3.84,1.56,16.15,2.33,16.15,2.33l3.36-12c4.51,1.42,7.67,2.88,12.06-1.63a6.4,6.4,0,0,0,1.09-1.88l-.07-.1s1.43-4.11,2.58-8.66c.8-3.54,1.55-7.54,2.21-11.41.82-5,1.47-9.69,1.47-9.69S109.37,127,104.89,125.57Z"/><path class="cls-16" d="M87.84,160.36c-.72-.94.31-2.15,1.45-1.83,6.19,1.76,13,4.07,13,4.07l-3,10.8Z"/><path class="cls-15" d="M109.91,132.06a.76.76,0,0,0,.33-.08.71.71,0,0,0,.27-.94c-.35-.67-3.87-3.41-8.76-2a.67.67,0,0,0,.38,1.29,7.53,7.53,0,0,1,7.23,1.37A.61.61,0,0,0,109.91,132.06Z"/><path class="cls-15" d="M121.24,134a.7.7,0,0,0,.47-.19.68.68,0,0,0,0-.95c-1.23-1.28-4.33-3.11-7.21-.93a.67.67,0,1,0,.81,1.07c2.64-2,5.33.67,5.44.79A.66.66,0,0,0,121.24,134Z"/><path class="cls-15" d="M105.32,136.39a.87.87,0,0,0,1-.66l.3-1.36A.87.87,0,1,0,105,134l-.3,1.36A.85.85,0,0,0,105.32,136.39Z"/><path class="cls-15" d="M116.64,138.89a.87.87,0,0,0,1-.66l.3-1.37a.87.87,0,0,0-1.69-.37l-.3,1.36A.88.88,0,0,0,116.64,138.89Z"/><path class="cls-15" d="M111.06,146.5a7.25,7.25,0,0,0,4.79-1.49,1.55,1.55,0,0,0,.5-1.34c0-.24-.16-.63-.31-1.14a16.2,16.2,0,0,1-.48-9.88.67.67,0,1,0-1.28-.4c-1.41,4.56-.13,8.69.48,10.68a8.14,8.14,0,0,1,.27.95s-.06.14-.27.31a7.08,7.08,0,0,1-4.75.9.67.67,0,0,0-.18,1.33A8.38,8.38,0,0,0,111.06,146.5Z"/><path class="cls-15" d="M112.2,151.24a.67.67,0,0,0,.11-1.34l-6.55-1.09a.67.67,0,0,0-.76.55.67.67,0,0,0,.55.78l6.54,1.09Z"/><path class="cls-10" d="M74.48,184.39a.66.66,0,0,0,.62-.42.67.67,0,0,0-.38-.87c-20-7.89-19.85-25.3-19.84-25.47a.68.68,0,0,0-1.35,0c0,.19-.16,18.51,20.7,26.75A.73.73,0,0,0,74.48,184.39Z"/><path class="cls-10" d="M95.24,175.34a52,52,0,0,0,7.1-.51.67.67,0,1,0-.18-1.33c-10,1.37-18.13-.09-25-4.46a13.81,13.81,0,0,1-6.61-10c-1.16-8.15,4-17.23,6.56-20.12a.69.69,0,0,0-.06-.95.67.67,0,0,0-1,.06c-2.78,3.16-8.12,12.51-6.88,21.2a15.07,15.07,0,0,0,7.22,10.94A34.05,34.05,0,0,0,95.24,175.34Z"/><path class="cls-10" d="M112.2,184.39a.64.64,0,0,0,.35-.1c12.4-7.54,9.85-23.42,9.82-23.58a.66.66,0,0,0-.77-.55.67.67,0,0,0-.55.77c0,.15,2.42,15.15-9.19,22.22a.67.67,0,0,0,.34,1.24Z"/><path class="cls-23" d="M83,108.92c7.77-5.6,28.28-6,37.18,4,4.24,4.74,6,13.14,1.59,16.41l.41-3.28c-4.88-3.4-15.43-5-22-4.66-1.26.07-2.45-.13-2.63,1.12a11,11,0,0,1-3.09,6.29c-3.14,3.14-5.12.95-5.12.95L84.94,138s.54,7.88-9.22,11.46c0,0,.91-3.05-1-13.68C73.45,128.46,73.23,116,83,108.92Z"/><path class="cls-13" d="M92.37,132.36c0-1.74-2.5-4.08-5.16-4.69s-5.11.82-5.77,4.84,4.45,6.91,6.11,5.68S92.32,134.26,92.37,132.36Z"/><path class="cls-15" d="M89.8,134.63a.66.66,0,0,0,.64-.48,4.18,4.18,0,0,0-2-4.83c-2.52-1.34-4.63.58-5.4,1.79a.67.67,0,0,0,1.13.72c.06-.1,1.58-2.42,3.64-1.32a2.88,2.88,0,0,1,1.28,3.28.68.68,0,0,0,.47.82A.65.65,0,0,0,89.8,134.63Z"/></g></g></g></svg>