<svg width="276" height="276" viewBox="0 0 276 276" fill="none" xmlns="http://www.w3.org/2000/svg">
<g clip-path="url(#clip0_1032_34724)">
<rect width="276" height="276" fill="#F0E4FA"/>
<g clip-path="url(#clip1_1032_34724)">
<path d="M232.996 97.4799H159.626C155.577 97.4799 152.281 100.78 152.281 104.833V220.611C152.281 221.031 152.621 221.372 153.04 221.372C153.459 221.372 153.8 221.031 153.8 220.611V104.833C153.8 101.619 156.412 99.0004 159.626 99.0004H232.914C232.939 98.4956 232.968 97.9878 232.996 97.4799Z" fill="white"/>
<path d="M140.376 142.108H44.4429C44.4712 142.616 44.4996 143.121 44.5248 143.629H140.372C143.584 143.629 146.199 146.244 146.199 149.462V265.24C146.199 265.659 146.539 266 146.958 266C147.378 266 147.718 265.659 147.718 265.24V149.462C147.721 145.408 144.425 142.108 140.376 142.108Z" fill="white"/>
<path d="M127.538 111.726H22.0157C18.6911 111.726 16 114.423 16 117.748V181.223C16 184.547 18.6943 187.245 22.0157 187.245H127.538C130.862 187.245 133.553 184.547 133.553 181.223V117.751C133.553 114.423 130.859 111.726 127.538 111.726ZM26.774 116.789C26.774 117.953 25.8255 118.815 24.7005 118.865C24.1837 118.887 23.5945 118.616 23.2352 118.256C22.8602 117.881 22.627 117.322 22.627 116.789V116.663C22.627 115.499 23.5755 114.638 24.7005 114.587C25.2173 114.565 25.8066 114.837 26.1658 115.196C26.5408 115.572 26.774 116.13 26.774 116.663V116.789ZM33.0229 116.789C33.0229 117.953 32.0744 118.815 30.9494 118.865C30.4326 118.887 29.8433 118.616 29.4841 118.256C29.1091 117.881 28.8759 117.322 28.8759 116.789V116.663C28.8759 115.499 29.8244 114.638 30.9494 114.587C31.4662 114.565 32.0555 114.837 32.4147 115.196C32.7897 115.572 33.0229 116.13 33.0229 116.663V116.789ZM37.7088 118.991C35.0365 118.991 35.0428 114.843 37.7088 114.843C40.3779 114.843 40.3747 118.991 37.7088 118.991Z" fill="white"/>
<path d="M127.538 111.726H22.0157C18.6911 111.726 16 114.423 16 117.748V121.222H133.553V117.748C133.553 114.423 130.859 111.726 127.538 111.726ZM26.774 116.789C26.774 117.953 25.8255 118.815 24.7005 118.865C24.1837 118.887 23.5945 118.616 23.2352 118.256C22.8602 117.881 22.627 117.322 22.627 116.789V116.663C22.627 115.499 23.5755 114.638 24.7005 114.587C25.2173 114.565 25.8066 114.837 26.1658 115.196C26.5408 115.572 26.774 116.13 26.774 116.663V116.789ZM33.0229 116.789C33.0229 117.953 32.0744 118.815 30.9494 118.865C30.4326 118.887 29.8433 118.616 29.4841 118.256C29.1091 117.881 28.8759 117.322 28.8759 116.789V116.663C28.8759 115.499 29.8244 114.638 30.9494 114.587C31.4662 114.565 32.0555 114.837 32.4147 115.196C32.7897 115.572 33.0229 116.13 33.0229 116.663V116.789ZM37.7088 118.991C35.0365 118.991 35.0428 114.843 37.7088 114.843C40.3779 114.843 40.3747 118.991 37.7088 118.991Z" fill="#EDC9D5"/>
<path d="M25.2364 128.581C24.7133 128.572 24.1934 128.559 23.6703 128.543C22.2995 128.499 22.2837 126.458 23.6545 126.414C24.1808 126.398 24.7102 126.386 25.2364 126.376C25.8541 126.364 26.352 126.868 26.3425 127.483C26.3425 127.49 26.3425 127.499 26.3425 127.506C26.3331 128.111 25.8415 128.594 25.2364 128.581Z" fill="#EDC9D5"/>
<path d="M125.792 127.483C125.792 127.152 125.524 126.881 125.19 126.881H88.1C81.8543 126.881 75.5645 126.688 69.325 126.96C68.6633 126.988 68.6601 127.972 69.3219 128.001C76.4405 128.313 83.6158 128.083 90.7439 128.083H125.193C125.524 128.086 125.792 127.818 125.792 127.483Z" fill="#FAE4EA"/>
<path d="M65.9534 127.506C65.9439 127.827 65.6855 128.086 65.3641 128.086H58.674C51.5491 128.086 44.3738 128.319 37.252 128.004C36.6028 127.976 36.6028 126.991 37.252 126.963C43.4946 126.688 49.7844 126.884 56.0333 126.884H65.3672C65.7012 126.884 65.9659 127.159 65.9565 127.493C65.9533 127.496 65.9534 127.502 65.9534 127.506Z" fill="#FAE4EA"/>
<path d="M25.2364 137.061C24.7133 137.051 24.1934 137.039 23.6703 137.023C22.2995 136.979 22.2837 134.938 23.6545 134.894C24.1808 134.878 24.7102 134.865 25.2364 134.856C25.8541 134.843 26.352 135.348 26.3425 135.963C26.3425 135.969 26.3425 135.979 26.3425 135.985C26.3331 136.591 25.8415 137.074 25.2364 137.061Z" fill="#EDC9D5"/>
<path d="M64.5324 135.966C64.5324 136.298 64.2645 136.566 63.9305 136.566H58.6711C51.5462 136.566 44.3708 136.799 37.2491 136.487C36.5999 136.458 36.5999 135.474 37.2491 135.446C43.4916 135.171 49.7815 135.364 56.0304 135.364H63.9305C64.2645 135.364 64.5324 135.632 64.5324 135.966Z" fill="#FAE4EA"/>
<path d="M25.2364 146.149C24.7133 146.14 24.1934 146.127 23.6703 146.112C22.2995 146.067 22.2837 144.026 23.6545 143.982C24.1808 143.966 24.7102 143.954 25.2364 143.944C25.8541 143.932 26.352 144.436 26.3425 145.052C26.3425 145.058 26.3425 145.067 26.3425 145.074C26.3331 145.676 25.8415 146.159 25.2364 146.149Z" fill="#EDC9D5"/>
<path d="M72.9397 145.058C72.9397 145.395 72.6655 145.667 72.3283 145.667C70.009 145.66 67.6929 145.651 65.3736 145.651H54.4357C51.3349 145.651 48.2246 145.695 45.1144 145.717C44.7394 145.72 44.44 145.402 44.4621 145.026C44.4621 145.023 44.4621 145.017 44.4621 145.014C44.4841 144.67 44.7678 144.402 45.1144 144.405C47.3423 144.424 49.5702 144.449 51.7918 144.449H72.3252C72.6655 144.449 72.9397 144.724 72.9397 145.058Z" fill="#FAE4EA"/>
<path d="M126.148 145.623C120.252 145.708 84.7757 145.717 78.8734 145.705C78.5236 145.705 78.2432 145.421 78.2432 145.071C78.2432 144.723 78.5236 144.44 78.8734 144.44C84.7725 144.424 120.252 144.389 126.148 144.474C126.863 144.49 126.863 145.613 126.148 145.623Z" fill="#FAE4EA"/>
<path d="M25.2364 155.235C24.7133 155.225 24.1934 155.213 23.6703 155.197C22.2995 155.153 22.2837 153.112 23.6545 153.068C24.1808 153.052 24.7102 153.039 25.2364 153.03C25.8541 153.017 26.352 153.522 26.3425 154.137C26.3425 154.143 26.3425 154.153 26.3425 154.159C26.3331 154.765 25.8415 155.244 25.2364 155.235Z" fill="#EDC9D5"/>
<path d="M126.466 154.137C126.466 153.806 126.199 153.534 125.865 153.534H115.327C113.036 153.534 110.736 153.509 108.438 153.49C108.082 153.487 107.786 153.771 107.777 154.127V154.14C107.767 154.506 108.06 154.806 108.426 154.806C111.608 154.784 114.794 154.736 117.968 154.736H125.861C126.195 154.736 126.466 154.468 126.466 154.137Z" fill="#FAE4EA"/>
<path d="M102.807 154.137C102.807 154.468 102.539 154.74 102.205 154.74H65.9344C62.7612 154.74 59.5816 154.784 56.3988 154.809C56.0333 154.812 55.7339 154.509 55.7434 154.143C55.7434 154.14 55.7434 154.134 55.7434 154.131C55.7528 153.774 56.0428 153.49 56.3988 153.493C58.6992 153.512 60.9996 153.538 63.2937 153.538H102.208C102.539 153.534 102.807 153.806 102.807 154.137Z" fill="#FAE4EA"/>
<path d="M25.2364 164.32C24.7133 164.311 24.1934 164.298 23.6703 164.282C22.2995 164.238 22.2837 162.197 23.6545 162.153C24.1808 162.137 24.7102 162.124 25.2364 162.115C25.8541 162.102 26.352 162.607 26.3425 163.222C26.3425 163.229 26.3425 163.238 26.3425 163.244C26.3331 163.85 25.8415 164.333 25.2364 164.32Z" fill="#EDC9D5"/>
<path d="M63.3851 163.885C59.1057 163.923 41.5125 163.929 37.2489 163.743C36.5871 163.714 36.5871 162.73 37.252 162.702C41.5125 162.516 59.1089 162.544 63.3851 162.585C63.7412 162.588 64.028 162.878 64.028 163.235C64.028 163.591 63.7412 163.882 63.3851 163.885Z" fill="#FAE4EA"/>
<path d="M25.2364 173.405C24.7133 173.396 24.1934 173.383 23.6703 173.368C22.2995 173.323 22.2837 171.282 23.6545 171.238C24.1808 171.222 24.7102 171.21 25.2364 171.2C25.8541 171.188 26.352 171.692 26.3425 172.308C26.3425 172.314 26.3425 172.323 26.3425 172.33C26.3331 172.935 25.8415 173.418 25.2364 173.405Z" fill="#EDC9D5"/>
<path d="M52.668 171.689C47.5316 171.648 42.3761 171.56 37.2523 171.787C36.5936 171.815 36.5936 172.8 37.2523 172.828C42.3761 173.052 47.5284 172.998 52.668 172.948C53.0241 172.945 53.3109 172.642 53.2857 172.285C53.2857 172.282 53.2857 172.276 53.2857 172.273C53.2668 171.948 52.9926 171.692 52.668 171.689Z" fill="#FAE4EA"/>
<path d="M82.5571 171.708H60.1299C59.8053 171.708 59.5406 171.967 59.5343 172.292C59.5343 172.295 59.5343 172.301 59.5343 172.304C59.528 172.639 59.799 172.913 60.1299 172.913H82.554C82.8723 172.913 83.1338 172.661 83.1464 172.342C83.1464 172.339 83.1464 172.333 83.1464 172.33C83.1622 171.989 82.8943 171.708 82.5571 171.708Z" fill="#FAE4EA"/>
<path d="M126.277 172.323C126.277 171.983 126.003 171.708 125.663 171.708H92.0013C91.6704 171.708 91.3994 171.976 91.3994 172.311C91.3994 172.642 91.6673 172.91 92.0013 172.91H96.2334C100.002 172.91 116.953 172.923 125.666 172.939C126.003 172.939 126.277 172.661 126.277 172.323Z" fill="#FAE4EA"/>
<path d="M25.2364 182.491C24.7133 182.481 24.1934 182.469 23.6703 182.453C22.2995 182.409 22.2837 180.368 23.6545 180.323C24.1808 180.308 24.7102 180.295 25.2364 180.286C25.8541 180.273 26.352 180.778 26.3425 181.393C26.3425 181.399 26.3425 181.409 26.3425 181.415C26.3331 182.021 25.8415 182.503 25.2364 182.491Z" fill="#EDC9D5"/>
<path d="M49.9987 181.402C49.9987 181.74 49.7277 182.011 49.3905 182.014C43.5292 182.062 43.0944 182.172 37.252 181.917C36.6028 181.888 36.6028 180.904 37.252 180.876C43.0975 180.62 43.5355 180.771 49.3905 180.79C49.7245 180.79 49.9987 181.065 49.9987 181.402Z" fill="#FAE4EA"/>
<path d="M276.732 78H185.731C182.271 78 179.467 80.8076 179.467 84.2714V168.225C179.467 171.689 182.271 174.497 185.731 174.497H276.732C280.192 174.497 282.997 171.689 282.997 168.225V84.2746C282.997 80.8076 280.192 78 276.732 78ZM189.885 84.8992C187.102 84.8992 187.109 80.5773 189.885 80.5773C192.664 80.5773 192.661 84.8992 189.885 84.8992ZM196.735 84.8992C193.953 84.8992 193.959 80.5773 196.735 80.5773C199.518 80.5773 199.515 84.8992 196.735 84.8992ZM203.734 84.8992C200.952 84.8992 200.958 80.5773 203.734 80.5773C206.517 80.5773 206.511 84.8992 203.734 84.8992Z" fill="white"/>
<path d="M276.732 78H185.731C182.271 78 179.467 80.8076 179.467 84.2714V86.9244H283V84.2746C282.997 80.8076 280.192 78 276.732 78ZM189.885 84.8992C187.102 84.8992 187.109 80.5773 189.885 80.5773C192.664 80.5773 192.661 84.8992 189.885 84.8992ZM196.735 84.8992C193.953 84.8992 193.959 80.5773 196.735 80.5773C199.518 80.5773 199.515 84.8992 196.735 84.8992ZM203.734 84.8992C200.952 84.8992 200.958 80.5773 203.734 80.5773C206.517 80.5773 206.511 84.8992 203.734 84.8992Z" fill="#EDC9D5"/>
<path d="M188.983 95.7101C188.419 95.7195 187.855 95.7321 187.291 95.7511C185.81 95.7984 185.791 98.0035 187.272 98.0508C187.843 98.0697 188.413 98.0823 188.983 98.0918C189.648 98.1044 190.19 97.5618 190.178 96.893C190.178 96.8836 190.178 96.8773 190.178 96.8678C190.168 96.218 189.636 95.6974 188.983 95.7101Z" fill="#EDC9D5"/>
<path d="M232.981 96.8741C232.971 96.5239 232.691 96.2463 232.344 96.2463H225.112C217.411 96.2463 209.659 95.994 201.966 96.3347C201.264 96.3662 201.264 97.4293 201.966 97.4609C208.713 97.7574 215.507 97.5492 222.26 97.5492H232.344C232.707 97.5492 232.99 97.2527 232.981 96.8899C232.981 96.8804 232.981 96.8773 232.981 96.8741Z" fill="#FAE4EA"/>
<path d="M188.983 164.434C188.419 164.443 187.855 164.456 187.291 164.475C185.81 164.522 185.791 166.727 187.272 166.774C187.843 166.793 188.413 166.806 188.983 166.815C189.648 166.828 190.19 166.285 190.178 165.617C190.178 165.607 190.178 165.601 190.178 165.591C190.168 164.941 189.636 164.421 188.983 164.434Z" fill="#EDC9D5"/>
<path d="M253.19 165.62C253.19 165.26 252.9 164.97 252.541 164.97H220.537C217.108 164.97 213.67 164.919 210.232 164.894C209.835 164.891 209.514 165.216 209.523 165.613C209.523 165.62 209.523 165.623 209.523 165.629C209.536 166.014 209.848 166.323 210.232 166.32C212.718 166.298 215.205 166.273 217.682 166.273H252.541C252.9 166.27 253.19 165.979 253.19 165.62Z" fill="#FAE4EA"/>
<path d="M188.983 154.616C188.419 154.626 187.855 154.639 187.291 154.657C185.81 154.705 185.791 156.91 187.272 156.957C187.843 156.976 188.413 156.989 188.983 156.998C189.648 157.011 190.19 156.468 190.178 155.799C190.178 155.79 190.178 155.784 190.178 155.774C190.168 155.124 189.636 154.604 188.983 154.616Z" fill="#EDC9D5"/>
<path d="M215.819 155.087C211.196 155.046 206.567 155.039 201.963 155.241C201.248 155.273 201.251 156.336 201.966 156.367C206.57 156.569 211.199 156.538 215.822 156.493C216.207 156.49 216.519 156.175 216.519 155.79C216.515 155.402 216.207 155.09 215.819 155.087Z" fill="#FAE4EA"/>
<path d="M188.983 144.799C188.419 144.809 187.855 144.821 187.291 144.84C185.81 144.888 185.791 147.093 187.272 147.14C187.843 147.159 188.413 147.171 188.983 147.181C189.648 147.194 190.19 146.651 190.178 145.982C190.178 145.973 190.178 145.966 190.178 145.957C190.168 145.307 189.636 144.787 188.983 144.799Z" fill="#EDC9D5"/>
<path d="M251.56 145.954C251.548 145.61 251.267 145.335 250.921 145.335H225.112C217.411 145.335 209.659 145.083 201.966 145.424C201.264 145.455 201.264 146.518 201.966 146.55C208.713 146.847 215.507 146.638 222.26 146.638H250.924C251.289 146.638 251.579 146.335 251.564 145.97C251.56 145.96 251.56 145.957 251.56 145.954Z" fill="#FAE4EA"/>
<path d="M275.4 145.966C275.4 145.604 275.107 145.313 274.747 145.313C271.732 145.323 268.716 145.332 265.7 145.332H261.128C260.768 145.332 260.479 145.623 260.479 145.982C260.479 146.342 260.768 146.632 261.128 146.632H274.75C275.11 146.632 275.403 146.339 275.403 145.979C275.4 145.976 275.4 145.97 275.4 145.966Z" fill="#FAE4EA"/>
<path d="M188.983 134.979C188.419 134.988 187.855 135.001 187.291 135.02C185.81 135.067 185.791 137.272 187.272 137.32C187.843 137.339 188.413 137.351 188.983 137.361C189.648 137.373 190.19 136.831 190.178 136.162C190.178 136.152 190.178 136.146 190.178 136.137C190.168 135.49 189.636 134.966 188.983 134.979Z" fill="#EDC9D5"/>
<path d="M221.624 136.159C221.624 135.796 221.331 135.499 220.968 135.496C214.634 135.446 208.282 135.326 201.966 135.603C201.264 135.635 201.264 136.698 201.966 136.73C208.282 137.007 214.641 136.843 220.965 136.821C221.331 136.818 221.624 136.521 221.624 136.159Z" fill="#FAE4EA"/>
<path d="M188.983 125.162C188.419 125.171 187.855 125.184 187.291 125.203C185.81 125.25 185.791 127.455 187.272 127.502C187.843 127.521 188.413 127.534 188.983 127.543C189.648 127.556 190.19 127.013 190.178 126.345C190.178 126.335 190.178 126.329 190.178 126.319C190.168 125.673 189.636 125.149 188.983 125.162Z" fill="#EDC9D5"/>
<path d="M269.022 125.698H233.394C233.035 125.698 232.745 125.988 232.745 126.348C232.745 126.707 233.035 126.998 233.394 126.998H269.022C269.381 126.998 269.671 126.707 269.671 126.348C269.671 125.988 269.381 125.698 269.022 125.698Z" fill="#FAE4EA"/>
<path d="M222.617 125.628C218.123 125.591 213.629 125.587 209.155 125.786C208.439 125.818 208.442 126.881 209.158 126.912C213.632 127.108 218.126 127.083 222.617 127.042C223.004 127.039 223.316 126.723 223.316 126.335C223.316 125.947 223.004 125.632 222.617 125.628Z" fill="#FAE4EA"/>
<path d="M188.983 115.344C188.419 115.354 187.855 115.367 187.291 115.385C185.81 115.433 185.791 117.638 187.272 117.685C187.843 117.704 188.413 117.717 188.983 117.726C189.648 117.739 190.19 117.196 190.178 116.527C190.178 116.518 190.178 116.512 190.178 116.502C190.168 115.852 189.636 115.332 188.983 115.344Z" fill="#EDC9D5"/>
<path d="M230.192 116.524C230.192 116.165 229.902 115.874 229.543 115.871C222.752 115.83 215.933 115.672 209.157 115.969C208.455 116.001 208.455 117.064 209.157 117.095L229.536 117.18C229.899 117.177 230.192 116.884 230.192 116.524Z" fill="#FAE4EA"/>
<path d="M276.25 116.527C276.25 116.165 275.957 115.874 275.595 115.874C274.694 115.878 273.792 115.881 272.888 115.881H240.786C240.427 115.881 240.137 116.177 240.147 116.537V116.549C240.153 116.9 240.437 117.18 240.786 117.18H275.595C275.957 117.18 276.25 116.887 276.25 116.527Z" fill="#FAE4EA"/>
<path d="M188.983 105.527C188.419 105.537 187.855 105.549 187.291 105.568C185.81 105.616 185.791 107.821 187.272 107.868C187.843 107.887 188.413 107.9 188.983 107.909C189.648 107.922 190.19 107.379 190.178 106.71C190.178 106.701 190.178 106.695 190.178 106.685C190.168 106.035 189.636 105.515 188.983 105.527Z" fill="#EDC9D5"/>
<path d="M213.049 105.978C209.35 105.963 205.654 105.988 201.97 106.152C201.258 106.183 201.254 107.247 201.967 107.278C205.65 107.439 209.35 107.452 213.049 107.426C213.447 107.423 213.768 107.101 213.768 106.704C213.768 106.303 213.447 105.978 213.049 105.978Z" fill="#FAE4EA"/>
</g>
<g filter="url(#filter0_d_1032_34724)">
<path d="M251.9 134.776H73.3521C70.0383 134.776 67.3521 137.463 67.3521 140.776V257.711C67.3521 261.025 70.0383 263.711 73.3521 263.711H251.9C255.214 263.711 257.9 261.025 257.9 257.711V140.776C257.9 137.463 255.214 134.776 251.9 134.776Z" fill="white"/>
</g>
<path d="M252.437 134.776H72.8153C69.798 134.776 67.3521 137.222 67.3521 140.24C67.3521 143.257 69.798 145.703 72.8153 145.703H252.437C255.454 145.703 257.9 143.257 257.9 140.24C257.9 137.222 255.454 134.776 252.437 134.776Z" fill="#0096ED"/>
<path d="M227.884 140.242C227.884 141.573 226.865 142.653 225.61 142.653C224.354 142.653 223.335 141.573 223.335 140.242C223.335 138.911 224.354 137.831 225.61 137.831C226.868 137.831 227.884 138.911 227.884 140.242Z" fill="#F0FCF7"/>
<path d="M238.974 140.242C238.974 141.573 237.955 142.653 236.699 142.653C235.444 142.653 234.425 141.573 234.425 140.242C234.425 138.911 235.444 137.831 236.699 137.831C237.955 137.831 238.974 138.911 238.974 140.242Z" fill="#F0FCF7"/>
<path d="M250.001 140.242C250.001 141.573 248.982 142.653 247.727 142.653C246.471 142.653 245.452 141.573 245.452 140.242C245.452 138.911 246.471 137.831 247.727 137.831C248.982 137.831 250.001 138.911 250.001 140.242Z" fill="#F0FCF7"/>
<path d="M239.068 181H222.068V264.011H239.068V181Z" fill="#0075B6"/>
<path d="M217.068 211H200.068V263.523H217.068V211Z" fill="#77CFFF"/>
<path d="M195.068 202H178.068V263.947H195.068V202Z" fill="#0087D1"/>
<path d="M151.068 209H134.068V264.009H151.068V209Z" fill="#77CFFF"/>
<path d="M173.068 234H156.068V263.724H173.068V234Z" fill="#0EA9FF"/>
<g filter="url(#filter1_d_1032_34724)">
<path d="M58.4497 176.474C44.075 187.165 26.0392 229.057 25.6015 242.038C25.1639 255.023 38.1204 268.329 65.2053 247.629C85.4292 232.169 58.4497 176.474 58.4497 176.474Z" fill="#F2744B"/>
<path d="M44.8591 236.844C44.6723 236.844 44.4897 236.774 44.3486 236.63C44.0705 236.355 44.0746 235.902 44.3569 235.626L61.2496 219.071C61.536 218.795 61.9842 218.799 62.2623 219.079C62.5404 219.355 62.5363 219.807 62.254 220.083L45.3613 236.639C45.2202 236.774 45.0417 236.844 44.8591 236.844Z" fill="#49263E"/>
<path d="M78.3603 150.254C81.8841 151.394 97.1581 144.903 105.028 127.454C106.937 123.227 109.871 116.731 110.863 114.529C111.05 114.113 111.548 113.941 111.959 114.146L119.347 117.851C119.484 118.934 120.231 129.541 119.986 134.46C119.986 134.46 124.473 139.025 123.73 140.013L120.841 143.853C119.696 157.173 119.579 158.787 105.924 160.009C103.816 160.199 100.931 162.347 100.437 164.389L97.0128 178.545L69.7769 171.666L78.3603 150.254Z" fill="#FF9D76"/>
<path d="M119.924 127.879C119.658 127.879 119.401 127.73 119.28 127.475C118.99 126.878 118.297 126.17 117.226 125.993C116.371 125.849 115.03 126.01 113.465 127.582C113.187 127.862 112.731 127.866 112.453 127.591C112.17 127.315 112.166 126.866 112.444 126.586C114.005 125.022 115.777 124.322 117.462 124.594C118.811 124.82 120.002 125.689 120.567 126.866C120.737 127.22 120.588 127.644 120.231 127.813C120.131 127.854 120.027 127.879 119.924 127.879Z" fill="#FFD599"/>
<path d="M56.4791 177.622C63.7342 171.419 97.4534 170.559 98.2918 170.649C121.975 173.164 112.042 178.682 127.54 201.794C127.59 202.539 140.745 222.564 132.594 232.513C132.594 232.513 127.54 237.515 127.54 241.5C127.54 254.634 130.905 279.726 130.905 279.726H51.1928C51.1928 279.726 53.2085 261.107 52.1833 253.048C49.0413 228.396 47.8958 211.955 48.1531 200.496C48.4022 189.728 49.7344 183.389 56.4791 177.622Z" fill="#F2744B"/>
<path d="M182.398 184.966L225.029 175.139L229.515 172.054L221.122 171.695L181.369 180.356C180.057 180.644 179.244 181.953 179.576 183.246C179.895 184.481 181.145 185.242 182.398 184.966Z" fill="#004D78"/>
<path d="M220.611 173.445C219.146 172.564 217.382 172.474 217.382 172.474L215.533 172.932C215.533 172.932 209.836 177.841 207.549 178.537C205.262 179.232 197.708 181.188 197.36 181.69C196.168 183.402 193.309 195.496 192.873 197.364L167.704 221C151.243 207.243 142.792 201.551 142.792 201.551L125.941 227.265C125.941 227.265 136.422 235.662 154.381 247.571C158.644 250.394 163.471 252.955 168.613 253.811C180.671 255.819 184.26 248.648 189.1 239.506C190.943 236.028 192.607 232.459 194.404 228.956C197.662 222.601 201.033 216.282 205.071 210.376C208.753 207.782 218.229 200.768 218.411 198.488C218.619 195.907 218.805 192.659 219.582 190.247C220.358 187.835 218.739 181.71 218.739 181.71C218.739 181.71 222.3 179.866 222.919 178.002C223.537 176.137 222.08 174.326 220.611 173.445Z" fill="#FF9D76"/>
<path d="M210.966 186.91C210.721 186.91 210.484 186.786 210.352 186.564C210.152 186.227 210.26 185.79 210.601 185.589C210.875 185.428 217.325 181.641 217.781 181.398C218.13 181.217 218.566 181.345 218.752 181.691C218.939 182.036 218.806 182.464 218.458 182.654C218.105 182.843 213.195 185.716 211.335 186.811C211.215 186.877 211.09 186.91 210.966 186.91Z" fill="#EF685E"/>
<path d="M161.077 229.486C160.899 229.486 160.724 229.42 160.583 229.288C160.297 229.021 160.284 228.572 160.558 228.284L168.681 219.772C168.951 219.484 169.403 219.471 169.694 219.747C169.98 220.015 169.992 220.463 169.719 220.751L161.596 229.264C161.455 229.412 161.268 229.486 161.077 229.486Z" fill="#EF685E"/>
<path d="M201.158 176.024C201.158 176.024 213.221 166.518 217.382 172.474L210.909 173.849L201.158 176.024Z" fill="#FF9D76"/>
<path d="M214.464 192.663C214.232 192.663 213.999 192.547 213.862 192.338C213.646 192.008 213.742 191.568 214.074 191.358L218.864 188.283C219.196 188.073 219.64 188.164 219.851 188.493C220.067 188.822 219.972 189.263 219.64 189.473L214.85 192.547C214.734 192.622 214.597 192.663 214.464 192.663Z" fill="#EF685E"/>
<path d="M215.818 198.174C215.577 198.174 215.345 198.054 215.208 197.836C215 197.503 215.104 197.062 215.44 196.857L217.524 195.581C217.856 195.379 218.3 195.473 218.512 195.811C218.719 196.144 218.616 196.581 218.279 196.787L216.196 198.063C216.075 198.141 215.947 198.174 215.818 198.174Z" fill="#EF685E"/>
<path d="M117.869 147.947C117.031 147.947 116.28 147.741 115.628 147.33C114.03 146.317 113.677 144.44 113.665 144.358C113.598 143.975 113.856 143.609 114.246 143.539C114.624 143.481 115.005 143.724 115.076 144.111C115.08 144.123 115.342 145.469 116.412 146.136C117.101 146.568 118.023 146.638 119.131 146.346C119.509 146.227 119.907 146.469 120.007 146.848C120.111 147.227 119.882 147.618 119.5 147.717C118.924 147.869 118.38 147.947 117.869 147.947Z" fill="#49263E"/>
<path d="M115.543 133.717C115.078 133.684 114.725 133.28 114.759 132.819L114.854 131.477C114.887 131.016 115.294 130.666 115.759 130.699C116.224 130.732 116.576 131.136 116.543 131.597L116.448 132.939C116.415 133.4 116.008 133.75 115.543 133.717Z" fill="#49263E"/>
<path d="M102.09 213.809C102.09 213.809 150.884 271.253 178.5 253.5C185.5 249 185 246 185 246L177.5 211L167 220C167 220 133.211 181.262 115.235 173.997C97.2634 166.736 102.09 213.809 102.09 213.809Z" fill="#F2744B"/>
<path d="M195.259 241.056L184.046 252.966L174.61 212.507L178.903 207.798L195.259 241.056Z" fill="white"/>
<path d="M109.768 169.462C99.6119 154.602 100.633 137.096 102.986 134.091C106.826 129.176 119.348 117.849 119.348 117.849L119.825 125.031C119.825 125.031 121.581 120.421 121.477 116.461C121.203 105.825 118.837 103.551 105.028 101.464C87.3388 98.7922 72.1378 104.899 67.5772 128.035C67.5772 128.035 68.1424 155.598 62.6969 163.205C57.6 170.322 40.8151 171.615 44.8951 193.332C48.2405 211.151 105.883 221.808 115.326 200.28C123.316 182.074 114.197 175.945 109.768 169.462Z" fill="#FFE0B3"/>
<path d="M182.818 185.732C182.511 185.732 182.229 185.534 182.134 185.23L180.689 180.562C180.573 180.187 180.785 179.788 181.162 179.673C181.557 179.557 181.943 179.767 182.059 180.142L183.503 184.81C183.619 185.184 183.408 185.584 183.03 185.699C182.959 185.724 182.889 185.732 182.818 185.732Z" fill="white"/>
<path d="M105.089 134.248C104.903 133.98 101.636 130.856 98.6354 131.07C95.6345 131.28 94.1984 133.371 94.7878 137.792C95.3813 142.209 101.039 143.777 102.387 141.957C103.736 140.134 105.089 134.248 105.089 134.248Z" fill="#FF9D76"/>
<path d="M103.102 137.4C102.791 137.4 102.5 137.198 102.413 136.885C102.409 136.865 101.832 134.934 100.047 134.411C99.3127 134.197 98.7855 134.226 98.4618 134.477C97.9347 134.893 97.9637 135.869 97.9637 135.881C97.9845 136.272 97.6814 136.609 97.2871 136.63C96.926 136.634 96.5525 136.35 96.5317 135.959C96.5234 135.786 96.4695 134.23 97.5735 133.366C98.2833 132.814 99.2504 132.703 100.45 133.053C103.011 133.798 103.762 136.395 103.795 136.507C103.899 136.881 103.679 137.272 103.297 137.379C103.231 137.396 103.168 137.4 103.102 137.4Z" fill="#EF685E"/>
<path d="M118.615 121.347C118.549 121.347 118.474 121.338 118.408 121.314C118.03 121.202 117.814 120.807 117.93 120.429C119.591 114.975 115.411 110.821 115.37 110.78C115.087 110.504 115.083 110.052 115.361 109.772C115.639 109.488 116.096 109.484 116.378 109.764C116.577 109.957 121.214 114.567 119.304 120.84C119.209 121.149 118.922 121.347 118.615 121.347Z" fill="#FF9D76"/>
<path d="M127.982 244.727C127.795 244.727 127.612 244.653 127.479 244.521L105.872 223.417C105.589 223.146 105.585 222.693 105.863 222.413C106.137 222.129 106.59 222.125 106.876 222.405L127.907 242.949L128.542 244.451C128.542 244.451 128.226 244.71 128.023 244.723C128.011 244.727 127.998 244.727 127.982 244.727Z" fill="#49263E"/>
<path d="M52.1907 253.761C51.8421 253.761 51.5308 253.506 51.481 253.152C48.4801 232.818 47.455 203.428 47.4467 203.132C47.4342 202.741 47.7455 202.412 48.1398 202.399C48.476 202.346 48.8661 202.696 48.8786 203.087C48.8869 203.379 49.9079 232.695 52.9004 252.946C52.9544 253.337 52.6846 253.695 52.2945 253.753C52.2571 253.757 52.2239 253.761 52.1907 253.761Z" fill="#49263E"/>
<circle cx="187.5" cy="240.5" r="1.5" fill="#004D78"/>
</g>
</g>
<defs>
<filter id="filter0_d_1032_34724" x="55.3521" y="134.776" width="214.548" height="152.935" filterUnits="userSpaceOnUse" color-interpolation-filters="sRGB">
<feFlood flood-opacity="0" result="BackgroundImageFix"/>
<feColorMatrix in="SourceAlpha" type="matrix" values="0 0 0 0 0 0 0 0 0 0 0 0 0 0 0 0 0 0 127 0" result="hardAlpha"/>
<feOffset dy="12"/>
<feGaussianBlur stdDeviation="6"/>
<feComposite in2="hardAlpha" operator="out"/>
<feColorMatrix type="matrix" values="0 0 0 0 0 0 0 0 0 0 0 0 0 0 0 0 0 0 0.15 0"/>
<feBlend mode="normal" in2="BackgroundImageFix" result="effect1_dropShadow_1032_34724"/>
<feBlend mode="normal" in="SourceGraphic" in2="effect1_dropShadow_1032_34724" result="shape"/>
</filter>
<filter id="filter1_d_1032_34724" x="13.5908" y="96.8802" width="227.924" height="221.781" filterUnits="userSpaceOnUse" color-interpolation-filters="sRGB">
<feFlood flood-opacity="0" result="BackgroundImageFix"/>
<feColorMatrix in="SourceAlpha" type="matrix" values="0 0 0 0 0 0 0 0 0 0 0 0 0 0 0 0 0 0 127 0" result="hardAlpha"/>
<feOffset dy="8"/>
<feGaussianBlur stdDeviation="6"/>
<feComposite in2="hardAlpha" operator="out"/>
<feColorMatrix type="matrix" values="0 0 0 0 0 0 0 0 0 0 0 0 0 0 0 0 0 0 0.25 0"/>
<feBlend mode="normal" in2="BackgroundImageFix" result="effect1_dropShadow_1032_34724"/>
<feBlend mode="normal" in="SourceGraphic" in2="effect1_dropShadow_1032_34724" result="shape"/>
</filter>
<clipPath id="clip0_1032_34724">
<rect width="276" height="276" fill="white"/>
</clipPath>
<clipPath id="clip1_1032_34724">
<rect width="267" height="188" fill="white" transform="translate(16 78)"/>
</clipPath>
</defs>
</svg>
