<svg id="Layer_1" data-name="Layer 1" xmlns="http://www.w3.org/2000/svg" xmlns:xlink="http://www.w3.org/1999/xlink" viewBox="0 0 276 276"><defs><style>.cls-1{fill:none;}.cls-2{clip-path:url(#clip-path);}.cls-3{fill:#c8defd;}.cls-16,.cls-17,.cls-4,.cls-7{fill:#fff;}.cls-4{opacity:0.36;}.cls-16,.cls-17,.cls-4{isolation:isolate;}.cls-5{fill:#accdfd;}.cls-6{fill:#0f4864;}.cls-8{fill:#fbb040;}.cls-9{fill:#ed8b00;}.cls-10{fill:#e07f65;}.cls-11{fill:#b23e2b;}.cls-12{fill:#666;}.cls-13{fill:#3d313b;}.cls-14{fill:#4f414d;}.cls-15{fill:#776776;}.cls-16{opacity:0.56;}.cls-17{opacity:0.3;}</style><clipPath id="clip-path"><rect class="cls-1" width="276" height="276"/></clipPath></defs><g class="cls-2"><rect class="cls-1" width="276" height="276"/><path class="cls-3" d="M-45-142H413V544H-45Z"/><path class="cls-4" d="M413,505-45,189V-2L413,314Z"/><path class="cls-5" d="M-45-142H413V55H-45Z"/><path class="cls-4" d="M413,78.72V269L-45-45.71V-169H52.41Z"/><path class="cls-6" d="M199-142h6V544h-6Z"/><path class="cls-6" d="M84-142h5V544H84Z"/><path class="cls-7" d="M192-142h7V544h-7Z"/><path class="cls-7" d="M78-142h6V544H78Z"/><ellipse class="cls-7" cx="127.29" cy="127.19" rx="9.15" ry="10.74" transform="matrix(0.99, -0.1, 0.1, 0.99, -12.31, 13.64)"/><path class="cls-8" d="M157.2,190.92a24,24,0,0,0-1.71-5.24c-.2-.5-.41-1-.64-1.49A35.91,35.91,0,0,0,146.93,173a33.54,33.54,0,0,0-19.42-9.07h0a.74.74,0,0,0-.73.4,2.66,2.66,0,0,0-1.7,1.53,3.76,3.76,0,0,0-.25,1.85,9.53,9.53,0,0,0,.17,1.07c.07.31.15.62.22.91a40.14,40.14,0,0,0,2.93,7.71c2.48,5.14,5.31,10,6.65,15.64,2.76,11.56-12.3,65.55-15.26,76.85-.83,3.18-1.74,6.34-2.64,9.5-.26.93-.53,1.86-.79,2.79l3.66-1.08,24.36-5.73c.15-.61.27-1.23.41-1.82C145,271.5,162.58,226.24,157.2,190.92Z"/><path class="cls-8" d="M131.65,167.2a23.85,23.85,0,0,0-4.18-3.31,27.11,27.11,0,0,0-6.08-2.8c-4.26-1.36-8.69-2.27-13.06-3.2-9-1.93-18.08-3.43-27.21-4.49-7.26-.83-15.7-1.22-21.9,3.36a19.53,19.53,0,0,0-6.4,9.3,96.63,96.63,0,0,0-3.29,12.39c-2,9.14-3.33,18.42-4.79,27.65q-2.24,14.09-4.45,28.17c-1.41,9.08-2.64,18.28-2,27.49.11,1.7,12.35,12.81,12.62,14.5l82.86-1-1.05-36.19a189.47,189.47,0,0,0,7.79-23.79A67.86,67.86,0,0,0,142,189.42C140.8,181.32,137.57,173,131.65,167.2Z"/><path class="cls-8" d="M73.06,156.12A6.62,6.62,0,0,0,70,153a.86.86,0,0,0-.74-.37c-8.29.19-16.07,4-22.2,9.45-6.5,5.75-11.07,13.22-14.47,21.14-3.62,8.43-6,17.34-8.63,26.12q-2.18,7.39-4.37,14.79A98.8,98.8,0,0,0,16.17,238c-1.15,8.13.47,18,8.16,22.51a13.51,13.51,0,0,0,11,1.47c4-1.33,6.81-4.84,9.15-8.18a125.59,125.59,0,0,0,12.32-22.38,189.64,189.64,0,0,0,8.36-24.32c2.3-8.37,4.18-16.86,5.89-25.37.85-4.27,1.7-8.54,2.47-12.83C74.22,164.79,75,160,73.06,156.12Z"/><path class="cls-8" d="M84,282.07c-6.33,2.18-7.64-1.15-13.71-1.48-.33,0-.67,0-1,0h-.18c-.29,0-.59.05-.9.09a6.09,6.09,0,0,1-1.43.06,121.48,121.48,0,0,1-22.56-4.24c-41.51-12.16-27.25-43.92-26.91-44,16-1.88,27.73.36,35.67,3l1.11.37.12,0,.65.23a2.34,2.34,0,0,1,.24.09l.6.22.17.06a37,37,0,0,1,5.36,2.61l.14.09c1.14.67,2.24,1.41,3.32,2.19.72.52,1.42,1.06,2.12,1.62,6,4.84,9.88,5.58,14.08,6.93l.64.21.79.27h0c.42.15.84.31,1.27.49l.2.08.27.12.65.28.18.08a31.78,31.78,0,0,1,4.82,2.8C98.79,260.64,91.37,279.51,84,282.07Z"/><ellipse class="cls-9" cx="83.69" cy="267.99" rx="12.3" ry="8.32" transform="translate(-197.07 267.85) rotate(-72.63)"/><path class="cls-8" d="M112.77,151.05s21.72,1.34,12.76,16.95c0,0-8,9.85-20.44,8.39C105.09,176.39,117.65,159.56,112.77,151.05Z"/><path class="cls-8" d="M88,139.27s-1,6-3.27,6.94,15.24,10.38,20.4,30.18c0,0-35.65-23.46-45.49-21.9,0,0,.81-8,9.36-6.87C69,147.62,71.37,132.92,88,139.27Z"/><path class="cls-9" d="M54.52,236.65A124.27,124.27,0,0,0,66.44,203c.66-3.32,1.19-6.67,1.57-10a.4.4,0,0,0-.8-.1,123.87,123.87,0,0,1-9.13,34.43q-2,4.62-4.31,9.06c-.24.46.51.76.75.3Z"/><path class="cls-9" d="M44,169.15c5.28,1.09,9.71,4.54,12.87,8.81,3.69,5,5.53,11,6.57,17,.64,3.73,1,7.5,1.36,11.27,0,.52.86.4.81-.12-1.16-12.19-2.82-26-13.33-34a20.55,20.55,0,0,0-8.17-3.77c-.52-.1-.62.71-.11.81Z"/><path class="cls-9" d="M33.52,237.73c14-3.55,28.28,1.48,40.49,8.22,3.49,1.92,6.9,4,10.28,6.12.44.28.91-.39.46-.67-12-7.53-25-14.93-39.57-15.6a40.42,40.42,0,0,0-11.8,1.13c-.51.13-.36.93.14.8Z"/><path class="cls-9" d="M61.09,155.43a75.19,75.19,0,0,1,31.69,15.12,73.31,73.31,0,0,1,7.36,6.84c.36.38,1-.12.64-.51a76.07,76.07,0,0,0-29.93-19.54,75.24,75.24,0,0,0-9.66-2.71c-.52-.11-.61.7-.1.8Z"/><path class="cls-9" d="M112.24,177.85A28.63,28.63,0,0,0,127.52,165c.26-.45-.5-.75-.75-.3a27.81,27.81,0,0,1-14.85,12.44c-.5.18-.17.92.32.75Z"/><path class="cls-9" d="M142.44,200.32a280.05,280.05,0,0,1-8.06,30.31c-.92,2.81-1.89,5.6-2.89,8.38-.18.49.57.8.75.31a281.86,281.86,0,0,0,9-30.12c.7-2.91,1.35-5.84,2-8.77.11-.52-.7-.62-.8-.11Z"/><path class="cls-9" d="M69.38,148.08a42.27,42.27,0,0,1,15,8.1c.4.34.88-.31.48-.65a42.72,42.72,0,0,0-15.19-8.2c-.49-.15-.8.6-.3.75Z"/><path class="cls-9" d="M140.89,211.07a41.27,41.27,0,0,0,15.41-22.91c.13-.5-.67-.6-.8-.1a40.92,40.92,0,0,1-10.57,18.44,41.5,41.5,0,0,1-4.55,3.93c-.42.32.09.95.51.64Z"/><path class="cls-10" d="M117.76,163.77c-.18,3.69-12.66,12.61-12.66,12.61s-24.72-26.33-20.41-30.17,4-14.65,4-14.65,25.72,2.88,25.54,16.77c0,1.48,0,2.77.07,3.92a18.42,18.42,0,0,0,1.5,7.24h0C116.76,161.49,117.85,161.79,117.76,163.77Z"/><path class="cls-11" d="M115.75,159.49a15.93,15.93,0,0,1-14.32-6.8l12.82-.44A18.42,18.42,0,0,0,115.75,159.49Z"/><path class="cls-10" d="M131.66,106.29s3.14,7.45,2.31,11-3.7,9-4.91,17.37c-1.35,9.34-8,21.73-20.07,20.12-20.61-2.75-22.89-24.62-17.33-40S117.32,87,131.66,106.29Z"/><path d="M115.8,90.35a1.45,1.45,0,0,0-.55-.84,17.71,17.71,0,0,0-6.56-2.61,30,30,0,0,0-6.72-.71c-4.34,0-8.66.91-12.34,3.75-6.85,5.27-10.74,15.09-12,25.81-.67,5.52-1,12.1,1.23,17.47,1.88,4.5,5.46,7.82,9.1,6.69,4-1.24,6.06-6.22,7.31-11.13.63-2.48,1.15-5,1.86-7.46a59.37,59.37,0,0,1,2.48-6.91,50.69,50.69,0,0,1,7.71-12.7,40.28,40.28,0,0,1,4.87-4.9c1.61-1.35,3.72-2.28,4.09-5.18A1.35,1.35,0,0,0,115.8,90.35Z"/><path class="cls-7" d="M85.22,112.83S92.43,86.42,116.52,89c0,0,3.93-.38,10.26,5.61,0,0-25.86-9-36.74,19.51Z"/><path class="cls-7" d="M123.86,147.45c0,1.17-1.66,2.11-3.66,2.08s-3.63-1-3.62-2.16,1.66-2.11,3.67-2.09S123.87,146.27,123.86,147.45Z"/><path class="cls-7" d="M121.14,149.54a5.79,5.79,0,0,1-.94.06c-2,0-3.7-1-3.68-2.24a1.89,1.89,0,0,1,1.11-1.55,5.39,5.39,0,0,1,2.62-.6,5.16,5.16,0,0,1,2.59.67,1.87,1.87,0,0,1,1.08,1.57h0C123.91,148.47,122.73,149.31,121.14,149.54Zm-1.83-4.13a4.62,4.62,0,0,0-1.61.52,1.77,1.77,0,0,0-1,1.44c0,1.13,1.58,2.07,3.55,2.1s3.58-.89,3.59-2h0a1.76,1.76,0,0,0-1-1.46,5.12,5.12,0,0,0-2.53-.64A5.66,5.66,0,0,0,119.31,145.41Z"/><path d="M131.14,134.59c2.08,2.28,3.17,5.78,1.65,8.66-1.73,3.27-6.07,4-9.43,3.93-.52,0-.62.78-.1.8,3,.1,6.49-.42,8.83-2.55a7.25,7.25,0,0,0,2-7.19,9.87,9.87,0,0,0-2.27-4.16c-.35-.38-1,.12-.64.51Z"/><path class="cls-11" d="M117.75,142.68c-.62,2.22-3.33,3.39-6,2.63s-4.41-3.19-3.79-5.4a.87.87,0,0,1,.42-.51c1.85-1.1,8.9.95,9.42,2.86A.75.75,0,0,1,117.75,142.68Z"/><path class="cls-7" d="M117.75,142.26c-5.17.32-8-1.49-9.42-2.86C110.18,138.3,117.23,140.35,117.75,142.26Z"/><path class="cls-11" d="M119.88,122.27c.54,2.48,1.09,4.94,1.62,7.42.21,1,.36,2.16-.54,2.89a4.64,4.64,0,0,1-3.35.58c-.52,0-.49.78,0,.81a5.46,5.46,0,0,0,3.68-.64,2.94,2.94,0,0,0,1.14-2.82,39.44,39.44,0,0,0-.83-4c-.32-1.49-.65-3-1-4.48-.11-.51-.89-.26-.78.24Z"/><path d="M112.3,123a2,2,0,0,0-.19-1.54,1.68,1.68,0,0,0-2.07-.44,2.09,2.09,0,0,0-.87,1,3.72,3.72,0,0,0-.34,1.18,3.88,3.88,0,0,0,.11,1.35,1.7,1.7,0,0,0,1.26,1.11h0a1.3,1.3,0,0,0,.94-.15,1.81,1.81,0,0,0,.74-1.28A6.07,6.07,0,0,0,112.3,123Z"/><path d="M126.93,127.18c0-.12,0-.24,0-.36s.14-.43.19-.65a4.71,4.71,0,0,0,.13-1,1.4,1.4,0,0,0-.82-1.16,1.46,1.46,0,0,0-1.87.42,4.38,4.38,0,0,0-.6,1.78,2.82,2.82,0,0,0,0,.87,2.12,2.12,0,0,0,.17.54,2.76,2.76,0,0,0,.5.65,1.46,1.46,0,0,0,.85.32,1.22,1.22,0,0,0,.79-.24A2,2,0,0,0,126.93,127.18Z"/><path d="M116.93,136s-8.69-2-11.14.18c-1.12,1-2.23,3.53,5.84,3.55,8.74,0,10.59,2.91,12.4,2C126.67,140.49,124.68,136.76,116.93,136Z"/><path d="M116.56,119a9.53,9.53,0,0,0-10.12-1.63c-.49.2-.16.94.32.75,2.95-1.21,6.81-.91,9.17,1.39.37.36,1-.14.63-.51Z"/><path d="M123.28,121.09a6.79,6.79,0,0,1,7.52,1.66c.35.38,1-.12.63-.51a7.6,7.6,0,0,0-8.47-1.89.4.4,0,0,0,.32.74Z"/><path d="M133.12,98.59a20.39,20.39,0,0,0-7.29-5.74,30.08,30.08,0,0,0-8.92-2.15,4.9,4.9,0,0,0-4.37,1.36c-1.05,1.23-.81,2.93-.23,4.31a16.39,16.39,0,0,0,1.6,2.89c1.83,4.36,5.15,8,8.78,11.08,2.55,2.14,5.28,4.12,8,6,.62.42,1.24.84,1.88,1.22a4.17,4.17,0,0,0,2.32,1c1.44-.13,2.06-1.76,2.46-2.92C139.45,109.62,137.06,103.22,133.12,98.59Z"/><path d="M111.64,93.2a11.43,11.43,0,0,0-7.79,1.35,30.69,30.69,0,0,0-11.23,10.83c-1.53,2.42-3.13,5.21-2.78,8.18.28,2.43,2.56,6.29,5.45,4.43a.7.7,0,0,0,.27-.3,44.19,44.19,0,0,0,13.92-6.8,13.63,13.63,0,0,0,4.73-5.51,12.56,12.56,0,0,0,.89-6.58C114.81,96.69,114,93.78,111.64,93.2Z"/><path class="cls-12" d="M112,93.83a19,19,0,0,1,2.92,6.79c.1.51.91.4.8-.12a20.11,20.11,0,0,0-3.08-7.18c-.3-.43-.93.08-.64.51Z"/><path class="cls-7" d="M96.52,123.66c-.43,5.91-4.87,10.41-9.91,10a7.44,7.44,0,0,1-1.94-.4,7.84,7.84,0,0,1-1.3-.56c-3.3-1.81-5.43-5.88-5.09-10.43.43-5.92,4.87-10.41,9.91-10S97,117.74,96.52,123.66Z"/><path d="M89,130.92a10.55,10.55,0,0,1-4.3,2.38,7.84,7.84,0,0,1-1.3-.56,10.15,10.15,0,0,0,1.2-.25,9.59,9.59,0,0,0,1.76-17.85c-.47-.24-.07-.94.39-.7a10.58,10.58,0,0,1,4.82,5.19A10.25,10.25,0,0,1,89,130.92Z"/><path class="cls-13" d="M102.26,269.05H236.32v6.71H102.26Z"/><path class="cls-14" d="M102.26,269.05h42.61v6.71H102.26Z"/><path class="cls-13" d="M125.24,271h10.63v2.72H125.24Z"/><path class="cls-13" d="M106.74,271h10.64v2.72H106.74Z"/><path class="cls-13" d="M137.7,272.4a1.29,1.29,0,1,0,1.29-1.21A1.25,1.25,0,0,0,137.7,272.4Z"/><path class="cls-15" d="M143.56,268.58l1,.51h92.25l18.72-56.71-.91-1.49H160Z"/><path class="cls-14" d="M144.59,269.09h92.25l18.72-56.71H161.45Z"/><path class="cls-16" d="M205.65,241.71a2.77,2.77,0,0,0-2.13-3.83,4.17,4.17,0,0,0-4.38,2.78,2.79,2.79,0,0,0,2.14,3.84A4.16,4.16,0,0,0,205.65,241.71Z"/><path class="cls-17" d="M249.6,215.16a.55.55,0,0,0-.59.39L236,256.3a.57.57,0,0,0,.37.71.57.57,0,0,0,.71-.36l13.05-40.75a.57.57,0,0,0-.36-.72Z"/><path class="cls-10" d="M123.78,262.68c-.68-1.27-2-1.62-3.29-1.93-.15,0-.3-.07-.44-.12h0l-.36-.12-.07,0a2.43,2.43,0,0,1-.83-.54c-.55-.57-.11-1.11.16-1.71a5.31,5.31,0,0,0,.5-2.45,4.19,4.19,0,0,0-.6-2,5.11,5.11,0,0,0-3.3-2.13,6.69,6.69,0,0,0-1.61-.13,14.91,14.91,0,0,0-3.44.64c-1.7.49-3.36,1.11-5,1.76a76,76,0,0,1-10.15,3.49c-2,.51-4.1,1-6.11,1.56a18,18,0,0,0-3.29.17,7.52,7.52,0,0,0-3.14,1.48,13.75,13.75,0,0,0-4,6.08c-.84,2.18-1.45,4.65-.51,6.9a5,5,0,0,0,1.82,2.31,6.9,6.9,0,0,0,3.46.87,36,36,0,0,0,8.24-.08,17,17,0,0,0,3.89-1.13,19.37,19.37,0,0,1,1.83-.73,7.34,7.34,0,0,1,1.32-.26l.83-.09.47-.05a22.64,22.64,0,0,0,7.21-2c2.75-1.31,5.14-3.25,7.75-4.8a55.36,55.36,0,0,1,7.7-3.76l.57-.22,0,0,0,0A.69.69,0,0,0,123.78,262.68Z"/><path class="cls-10" d="M135.3,263.87h0A23.14,23.14,0,0,0,119.52,251a.38.38,0,0,1-.17-.64,31.65,31.65,0,0,0-5.44,1.12c-.89.27-1.77.57-2.63.92a.31.31,0,0,0-.1.05l-.24.08a.66.66,0,0,0-.42.56,1.17,1.17,0,0,0,.08.5.55.55,0,0,0-.09.43,1.36,1.36,0,0,0-.26,1.87,3.35,3.35,0,0,0,2.88,1.11.76.76,0,0,0,.08.42,2.55,2.55,0,0,0,.68,2.4,5.06,5.06,0,0,0,2,1.2c.31.11.63.2,1,.28l1.17.28a19.54,19.54,0,0,1,3.77,1.06,7.79,7.79,0,0,1,1,.52c.21.14.41.27.61.42l.29.2h0c1,.71,1.83,1.52,2.77,2.24,1.19.91,2.74,1.95,4.32,1.44a2,2,0,0,0,.88-.56,1.82,1.82,0,0,0,.28-.51l.33.17a2.63,2.63,0,0,0,2.12.32C135.72,266.41,135.67,265.11,135.3,263.87Zm8-6.64a13.48,13.48,0,0,0-2.76-2.24,31.66,31.66,0,0,0-10.89-4.24c-.86-.16-1.72-.29-2.57-.39l-.42,0a33.14,33.14,0,0,0-7,0,22.67,22.67,0,0,1,4.54,1.53,23.87,23.87,0,0,1,11.84,11.94c1.28,1.35,2.94,2.7,4.31,1.3.86-.86.7-2.12.44-3.2-.08-.35-.18-.68-.28-1l-.15-.45c.36.21.72.43,1.09.63a9.41,9.41,0,0,0,1.58.68,1.44,1.44,0,0,0,1.93-1.62A5.67,5.67,0,0,0,143.35,257.23Z"/><path class="cls-11" d="M100,274.4l11.32-9.19c.92-.75,1.83-1.5,2.76-2.24a9.49,9.49,0,0,1,2.86-1.72c2.28-.76,4,.6,5.54,2.08.33.31.75-.26.42-.56a7.87,7.87,0,0,0-3.81-2.4,6.28,6.28,0,0,0-4.7,1.48c-1.62,1.17-3.13,2.5-4.68,3.76L105,269.44l-5.43,4.41c-.36.29.08.84.43.55Z"/><path class="cls-11" d="M115.43,255.68a12.4,12.4,0,0,1,9.15,2.59,26.23,26.23,0,0,1,6.55,7.81c.23.38.88.1.65-.29a27,27,0,0,0-6.93-8.2,13,13,0,0,0-9.53-2.6.35.35,0,0,0,.11.69Z"/><path class="cls-11" d="M129,251.3a17,17,0,0,1,10.79,8.45c.17.32.77.22.67-.19l-.07-.27c-.11-.43-.81-.33-.69.11l.06.26.67-.19A17.72,17.72,0,0,0,129,250.6c-.44-.11-.52.59-.09.7Z"/><path class="cls-11" d="M119.53,251a23.24,23.24,0,0,1,15.76,12.75.35.35,0,0,0,.64-.28,23.94,23.94,0,0,0-16.31-13.16c-.44-.1-.53.59-.09.69Z"/></g></svg>