<svg width="276" height="276" viewBox="0 0 276 276" fill="none" xmlns="http://www.w3.org/2000/svg">
<g clip-path="url(#clip0_1032_35225)">
<path d="M-16 -58.9999L297 -58.9999L297 410L-16 410L-16 -58.9999Z" fill="#E9EDEA"/>
<g opacity="0.43">
<path d="M300 -0.345703L127.115 -0.345703L127.115 303.539L300 303.539L300 -0.345703Z" fill="#1E2B46"/>
<path d="M275.685 -0.345703L102.8 -0.345703L102.8 303.539L275.685 303.539L275.685 -0.345703Z" fill="#49597D"/>
<path d="M268.366 6.78369L112.584 6.78369L112.584 84.76L268.366 84.76L268.366 6.78369Z" fill="#1E2B46"/>
<path d="M268.366 119.762L193.184 119.762L193.184 153.661L268.366 153.661L268.366 119.762Z" fill="#1E2B46"/>
<path d="M186.516 119.762L112.584 119.762L112.584 153.661L186.516 153.661L186.516 119.762Z" fill="#1E2B46"/>
<path d="M191.017 21.4621L191.017 36.5883C191.017 38.0972 192.242 39.322 193.751 39.322L261.727 39.322C263.236 39.322 264.461 38.0972 264.461 36.5883L264.461 21.4621C264.461 19.9531 263.236 18.7284 261.727 18.7284L193.751 18.7284C192.242 18.7284 191.017 19.953 191.017 21.4621Z" fill="#3F567E"/>
<g opacity="0.5">
<path d="M191.017 34.7734L264.461 34.7734L264.461 33.4705L191.017 33.4705L191.017 34.7734Z" fill="#117493"/>
</g>
<path d="M212.564 31.5771L213.433 31.5771L213.433 21.8391L212.564 21.8391L212.564 31.5771Z" fill="#117493"/>
<path d="M207.089 31.5771L207.958 31.5771L207.958 21.8391L207.089 21.8391L207.089 31.5771Z" fill="#117493"/>
<path d="M201.614 31.5771L202.483 31.5771L202.483 21.8391L201.614 21.8391L201.614 31.5771Z" fill="#117493"/>
<path d="M196.139 31.5771L197.008 31.5771L197.008 21.8391L196.139 21.8391L196.139 31.5771Z" fill="#117493"/>
<g opacity="0.5">
<path d="M257.472 27.1214C257.702 25.7009 256.737 24.3625 255.317 24.1319C253.897 23.9014 252.558 24.866 252.328 26.2865C252.097 27.707 253.062 29.0454 254.482 29.2759C255.903 29.5065 257.241 28.5418 257.472 27.1214Z" fill="#6EE585"/>
</g>
<g opacity="0.5">
<path d="M249.468 27.1215C249.699 25.701 248.734 24.3625 247.314 24.132C245.893 23.9015 244.555 24.8662 244.324 26.2866C244.094 27.7071 245.059 29.0455 246.479 29.2761C247.899 29.5066 249.238 28.542 249.468 27.1215Z" fill="#6EE585"/>
</g>
<g opacity="0.5">
<path d="M241.49 26.8871C241.592 25.4516 240.511 24.2053 239.076 24.1032C237.64 24.0012 236.394 25.0821 236.292 26.5176C236.19 27.953 237.271 29.1994 238.706 29.3014C240.142 29.4035 241.388 28.3225 241.49 26.8871Z" fill="#6EE585"/>
</g>
<path d="M193.751 39.4462L193.751 39.1972C192.312 39.1972 191.142 38.0267 191.142 36.5883L191.142 21.4621C191.142 20.0233 192.312 18.8528 193.751 18.8528L261.728 18.8528C263.166 18.8528 264.337 20.0233 264.337 21.4621L264.337 36.5883L264.586 36.5883L264.586 21.4621C264.586 19.8861 263.304 18.6038 261.728 18.6038L193.751 18.6038C192.175 18.6038 190.893 19.8861 190.893 21.4621L190.893 36.5883C190.893 38.1642 192.175 39.4462 193.751 39.4462Z" fill="black"/>
<path d="M264.461 33.3463L191.017 33.3463L191.017 33.5952L264.461 33.5952L264.461 33.3463Z" fill="black"/>
<path d="M254.891 29.4383C256.397 29.4383 257.622 28.2137 257.622 26.7083C257.622 25.2028 256.397 23.978 254.891 23.978L254.891 24.2271C256.26 24.2271 257.373 25.3401 257.373 26.7084C257.373 28.0766 256.26 29.1895 254.891 29.1895L254.891 29.4383Z" fill="black"/>
<path d="M249.548 27.3233C249.713 26.6128 249.59 25.8808 249.204 25.2623C248.818 24.6439 248.214 24.2128 247.503 24.0483C246.793 23.8842 246.061 24.0061 245.442 24.3923C244.824 24.7787 244.393 25.3826 244.228 26.0932L244.471 26.1492C244.779 24.816 246.114 23.9822 247.447 24.291C248.093 24.4402 248.642 24.8319 248.993 25.3941C249.344 25.9564 249.455 26.6215 249.306 27.2673L249.548 27.3233Z" fill="black"/>
<path d="M238.86 29.4247C239.371 29.4247 239.873 29.2806 240.315 29.0002C240.931 28.6102 241.359 28.0034 241.518 27.2918L241.275 27.2373C241.13 27.884 240.742 28.4355 240.182 28.79C239.622 29.1445 238.958 29.2604 238.311 29.1146C237.664 28.9698 237.113 28.5814 236.758 28.0216C236.404 27.4614 236.288 26.797 236.434 26.1503L236.191 26.0958C236.031 26.8074 236.158 27.5385 236.548 28.1546C236.938 28.7709 237.545 29.198 238.257 29.3578C238.457 29.4024 238.659 29.4247 238.86 29.4247Z" fill="black"/>
<path d="M213.558 21.8394L213.309 21.8394L213.309 31.5772L213.558 31.5772L213.558 21.8394Z" fill="black"/>
<path d="M208.083 21.8394L207.833 21.8394L207.833 31.5772L208.083 31.5772L208.083 21.8394Z" fill="black"/>
<path d="M202.607 21.8394L202.358 21.8394L202.358 31.5772L202.607 31.5772L202.607 21.8394Z" fill="black"/>
<path d="M197.133 21.8394L196.884 21.8394L196.884 31.5772L197.133 31.5772L197.133 21.8394Z" fill="black"/>
<path d="M224.448 24.282L224.329 24.5002L228.568 26.8226L228.688 26.6043L224.448 24.282Z" fill="black"/>
<path d="M223.296 25.4505L223.176 25.6689L227.416 27.9909L227.536 27.7725L223.296 25.4505Z" fill="black"/>
<path d="M191.017 42.061L191.017 57.1872C191.017 58.6961 192.242 59.9209 193.751 59.9209L261.727 59.9209C263.236 59.9209 264.461 58.6961 264.461 57.1872L264.461 42.061C264.461 40.552 263.236 39.3273 261.727 39.3273L193.751 39.3273C192.242 39.3275 191.017 40.552 191.017 42.061Z" fill="#3F567E"/>
<g opacity="0.5">
<path d="M191.017 55.3724L264.461 55.3724L264.461 54.0695L191.017 54.0695L191.017 55.3724Z" fill="#117493"/>
</g>
<path d="M212.564 52.1763L213.433 52.1763L213.433 42.4384L212.564 42.4384L212.564 52.1763Z" fill="#117493"/>
<path d="M207.089 52.1763L207.958 52.1763L207.958 42.4384L207.089 42.4384L207.089 52.1763Z" fill="#117493"/>
<path d="M201.614 52.1763L202.483 52.1763L202.483 42.4384L201.614 42.4384L201.614 52.1763Z" fill="#117493"/>
<path d="M196.139 52.1763L197.008 52.1763L197.008 42.4384L196.139 42.4384L196.139 52.1763Z" fill="#117493"/>
<g opacity="0.5">
<path d="M252.286 47.3072C252.286 48.7463 253.452 49.9128 254.891 49.9128C256.33 49.9128 257.497 48.7461 257.497 47.3072C257.497 45.868 256.33 44.7015 254.891 44.7015C253.452 44.7015 252.286 45.8682 252.286 47.3072Z" fill="#6EE585"/>
</g>
<g opacity="0.5">
<path d="M244.282 47.3072C244.282 48.7463 245.449 49.9128 246.888 49.9128C248.327 49.9128 249.494 48.7461 249.494 47.3072C249.494 45.868 248.327 44.7015 246.888 44.7015C245.449 44.7015 244.282 45.8682 244.282 47.3072Z" fill="#6EE585"/>
</g>
<g opacity="0.5">
<path d="M236.279 47.3072C236.279 48.7463 237.446 49.9128 238.885 49.9128C240.324 49.9128 241.491 48.7461 241.491 47.3072C241.491 45.868 240.324 44.7015 238.885 44.7015C237.446 44.7015 236.279 45.8682 236.279 47.3072Z" fill="#6EE585"/>
</g>
<path d="M193.751 60.0451L193.751 59.796C192.312 59.796 191.142 58.6256 191.142 57.1871L191.142 42.0608C191.142 40.6219 192.312 39.4515 193.751 39.4515L261.728 39.4515C263.166 39.4515 264.337 40.6219 264.337 42.0608L264.337 57.1871L264.586 57.1871L264.586 42.0608C264.586 40.4848 263.304 39.2026 261.728 39.2026L193.751 39.2026C192.175 39.2026 190.893 40.485 190.893 42.0608L190.893 57.1871C190.893 58.7633 192.175 60.0451 193.751 60.0451Z" fill="black"/>
<path d="M264.461 53.9452L191.017 53.9452L191.017 54.1942L264.461 54.1942L264.461 53.9452Z" fill="black"/>
<path d="M254.891 50.0374C256.397 50.0374 257.622 48.8129 257.622 47.3074C257.622 45.8019 256.397 44.5771 254.891 44.5771L254.891 44.8262C256.26 44.8262 257.373 45.9393 257.373 47.3076C257.373 48.6757 256.26 49.7886 254.891 49.7886L254.891 50.0374Z" fill="black"/>
<path d="M249.548 47.9221C249.713 47.2117 249.59 46.4797 249.204 45.8612C248.818 45.2427 248.214 44.8117 247.503 44.6472C246.793 44.4831 246.061 44.605 245.442 44.9912C244.824 45.3776 244.393 45.9815 244.228 46.6921L244.471 46.748C244.779 45.4149 246.114 44.5811 247.447 44.8899C248.093 45.0393 248.642 45.4307 248.993 45.9929C249.344 46.5553 249.455 47.2204 249.306 47.8662L249.548 47.9221Z" fill="black"/>
<path d="M238.86 50.0235C239.371 50.0235 239.873 49.8795 240.315 49.5991C240.931 49.2091 241.359 48.6022 241.518 47.8907L241.275 47.8362C241.13 48.4829 240.742 49.0344 240.182 49.3889C239.622 49.7434 238.958 49.8592 238.311 49.7135C237.664 49.5685 237.113 49.1803 236.758 48.6205C236.404 48.0603 236.288 47.3959 236.434 46.7492L236.191 46.6947C236.031 47.4063 236.158 48.1373 236.548 48.7534C236.938 49.3697 237.545 49.7969 238.257 49.9567C238.457 50.0015 238.659 50.0235 238.86 50.0235Z" fill="black"/>
<path d="M213.558 42.4382L213.309 42.4382L213.309 52.1761L213.558 52.1761L213.558 42.4382Z" fill="black"/>
<path d="M208.083 42.4382L207.833 42.4382L207.833 52.1761L208.083 52.1761L208.083 42.4382Z" fill="black"/>
<path d="M202.607 42.4382L202.358 42.4382L202.358 52.1761L202.607 52.1761L202.607 42.4382Z" fill="black"/>
<path d="M197.133 42.4382L196.884 42.4382L196.884 52.1761L197.133 52.1761L197.133 42.4382Z" fill="black"/>
<path d="M228.587 47.4165L228.707 47.1982L224.469 44.8717L224.35 45.0901L228.587 47.4165Z" fill="black"/>
<path d="M223.284 46.04L223.165 46.2584L227.405 48.5804L227.525 48.3619L223.284 46.04Z" fill="black"/>
<path d="M191.017 62.649L191.017 77.7752C191.017 79.2841 192.242 80.5089 193.751 80.5089L261.727 80.5089C263.236 80.5089 264.461 79.2843 264.461 77.7752L264.461 62.649C264.461 61.14 263.236 59.9153 261.727 59.9153L193.751 59.9153C192.242 59.9155 191.017 61.14 191.017 62.649Z" fill="#3F567E"/>
<g opacity="0.5">
<path d="M191.017 75.9607L264.461 75.9607L264.461 74.6578L191.017 74.6578L191.017 75.9607Z" fill="#117493"/>
</g>
<path d="M212.564 72.7644L213.433 72.7644L213.433 63.0263L212.564 63.0263L212.564 72.7644Z" fill="#117493"/>
<path d="M207.089 72.7644L207.958 72.7644L207.958 63.0263L207.089 63.0263L207.089 72.7644Z" fill="#117493"/>
<path d="M201.614 72.7644L202.483 72.7644L202.483 63.0263L201.614 63.0263L201.614 72.7644Z" fill="#117493"/>
<path d="M196.139 72.7644L197.008 72.7644L197.008 63.0263L196.139 63.0263L196.139 72.7644Z" fill="#117493"/>
<g opacity="0.5">
<path d="M252.286 67.8954C252.286 69.3344 253.452 70.501 254.891 70.501C256.33 70.501 257.497 69.3344 257.497 67.8954C257.497 66.4564 256.33 65.2898 254.891 65.2898C253.452 65.2896 252.286 66.4563 252.286 67.8954Z" fill="#6EE585"/>
</g>
<g opacity="0.5">
<path d="M244.282 67.8954C244.282 69.3344 245.449 70.501 246.888 70.501C248.327 70.501 249.494 69.3344 249.494 67.8954C249.494 66.4564 248.327 65.2898 246.888 65.2898C245.449 65.2896 244.282 66.4563 244.282 67.8954Z" fill="#6EE585"/>
</g>
<g opacity="0.5">
<path d="M236.279 67.8954C236.279 69.3344 237.446 70.501 238.885 70.501C240.324 70.501 241.491 69.3344 241.491 67.8954C241.491 66.4564 240.324 65.2898 238.885 65.2898C237.446 65.2896 236.279 66.4563 236.279 67.8954Z" fill="#6EE585"/>
</g>
<path d="M193.751 80.6333L193.751 80.3843C192.312 80.3843 191.142 79.2138 191.142 77.7752L191.142 62.649C191.142 61.2102 192.312 60.0397 193.751 60.0397L261.728 60.0397C263.166 60.0397 264.337 61.2102 264.337 62.649L264.337 77.7752L264.586 77.7752L264.586 62.649C264.586 61.073 263.304 59.7909 261.728 59.7909L193.751 59.7909C192.175 59.7909 190.893 61.0732 190.893 62.649L190.893 77.7752C190.893 79.3512 192.175 80.6333 193.751 80.6333Z" fill="black"/>
<path d="M264.461 74.5332L191.017 74.5332L191.017 74.7822L264.461 74.7822L264.461 74.5332Z" fill="black"/>
<path d="M254.891 70.6254C256.397 70.6254 257.622 69.4009 257.622 67.8954C257.622 66.3899 256.397 65.1652 254.891 65.1652L254.891 65.414C256.26 65.414 257.373 66.5271 257.373 67.8954C257.373 69.2635 256.26 70.3764 254.891 70.3764L254.891 70.6254Z" fill="black"/>
<path d="M249.548 68.5103C249.713 67.7998 249.59 67.0678 249.204 66.4494C248.818 65.8309 248.214 65.3999 247.503 65.2354C246.793 65.0712 246.061 65.1931 245.442 65.5793C244.824 65.9657 244.393 66.5696 244.228 67.2803L244.471 67.3362C244.779 66.003 246.114 65.1692 247.447 65.478C248.093 65.6274 248.642 66.0189 248.993 66.5811C249.344 67.1434 249.455 67.8087 249.306 68.4544L249.548 68.5103Z" fill="black"/>
<path d="M238.86 70.6116C239.371 70.6116 239.873 70.4673 240.315 70.1871C240.931 69.7971 241.359 69.1903 241.518 68.4787L241.275 68.4242C241.13 69.0709 240.742 69.6224 240.182 69.9769C239.622 70.3314 238.958 70.4472 238.311 70.3015C237.664 70.1567 237.113 69.7683 236.758 69.2085C236.404 68.6483 236.288 67.9839 236.434 67.3372L236.191 67.2827C236.031 67.9943 236.158 68.7253 236.548 69.3415C236.938 69.9578 237.545 70.3849 238.257 70.5447C238.457 70.5895 238.659 70.6116 238.86 70.6116Z" fill="black"/>
<path d="M213.558 63.0262L213.309 63.0262L213.309 72.7641L213.558 72.7641L213.558 63.0262Z" fill="black"/>
<path d="M208.083 63.0262L207.833 63.0262L207.833 72.7641L208.083 72.7641L208.083 63.0262Z" fill="black"/>
<path d="M202.607 63.0262L202.358 63.0262L202.358 72.7641L202.607 72.7641L202.607 63.0262Z" fill="black"/>
<path d="M197.133 63.0262L196.884 63.0262L196.884 72.7641L197.133 72.7641L197.133 63.0262Z" fill="black"/>
<path d="M224.466 65.4571L224.347 65.6753L228.586 67.998L228.706 67.7798L224.466 65.4571Z" fill="black"/>
<path d="M223.304 66.6178L223.184 66.8361L227.425 69.1585L227.544 68.9402L223.304 66.6178Z" fill="black"/>
<path d="M115.687 21.4621L115.687 36.5883C115.687 38.0972 116.912 39.322 118.421 39.322L186.397 39.322C187.906 39.322 189.131 38.0972 189.131 36.5883L189.131 21.4621C189.131 19.9531 187.906 18.7284 186.397 18.7284L118.421 18.7284C116.912 18.7284 115.687 19.953 115.687 21.4621Z" fill="#3F567E"/>
<g opacity="0.5">
<path d="M115.687 34.7734L189.13 34.7734L189.13 33.4705L115.687 33.4705L115.687 34.7734Z" fill="#117493"/>
</g>
<path d="M137.234 31.5771L138.103 31.5771L138.103 21.8391L137.234 21.8391L137.234 31.5771Z" fill="#117493"/>
<path d="M131.759 31.5771L132.627 31.5771L132.627 21.8391L131.759 21.8391L131.759 31.5771Z" fill="#117493"/>
<path d="M126.284 31.5771L127.153 31.5771L127.153 21.8391L126.284 21.8391L126.284 31.5771Z" fill="#117493"/>
<path d="M120.809 31.5771L121.677 31.5771L121.677 21.8391L120.809 21.8391L120.809 31.5771Z" fill="#117493"/>
<g opacity="0.5">
<path d="M182.14 27.1222C182.371 25.7017 181.406 24.3633 179.985 24.1328C178.565 23.9022 177.227 24.8669 176.996 26.2874C176.765 27.7079 177.73 29.0463 179.151 29.2768C180.571 29.5073 181.91 28.5427 182.14 27.1222Z" fill="#6EE585"/>
</g>
<g opacity="0.5">
<path d="M174.137 27.1223C174.367 25.7018 173.403 24.3634 171.982 24.1329C170.562 23.9024 169.223 24.867 168.993 26.2875C168.762 27.708 169.727 29.0464 171.147 29.2769C172.568 29.5075 173.906 28.5428 174.137 27.1223Z" fill="#6EE585"/>
</g>
<g opacity="0.5">
<path d="M166.159 26.8884C166.261 25.453 165.18 24.2066 163.745 24.1046C162.309 24.0025 161.063 25.0835 160.961 26.5189C160.859 27.9544 161.94 29.2008 163.375 29.3028C164.811 29.4048 166.057 28.3239 166.159 26.8884Z" fill="#6EE585"/>
</g>
<path d="M118.42 39.4462L118.42 39.1972C116.981 39.1972 115.811 38.0267 115.811 36.5883L115.811 21.4621C115.811 20.0233 116.981 18.8528 118.42 18.8528L186.397 18.8528C187.836 18.8528 189.006 20.0233 189.006 21.4621L189.006 36.5883L189.255 36.5883L189.255 21.4621C189.255 19.8861 187.973 18.6038 186.397 18.6038L118.42 18.6038C116.844 18.6038 115.562 19.8861 115.562 21.4621L115.562 36.5883C115.562 38.1642 116.844 39.4462 118.42 39.4462Z" fill="black"/>
<path d="M189.131 33.3463L115.687 33.3463L115.687 33.5952L189.131 33.5952L189.131 33.3463Z" fill="black"/>
<path d="M179.561 29.4383C181.067 29.4383 182.291 28.2137 182.291 26.7083C182.291 25.2028 181.066 23.978 179.561 23.978L179.561 24.2271C180.929 24.2271 182.042 25.3401 182.042 26.7084C182.042 28.0766 180.929 29.1895 179.561 29.1895L179.561 29.4383Z" fill="black"/>
<path d="M174.218 27.3233C174.382 26.6128 174.26 25.8808 173.874 25.2623C173.487 24.6439 172.883 24.2128 172.173 24.0483C171.463 23.8842 170.73 24.0061 170.112 24.3923C169.493 24.7787 169.062 25.3826 168.898 26.0932L169.14 26.1492C169.449 24.816 170.783 23.9822 172.117 24.291C172.763 24.4402 173.311 24.8319 173.662 25.3941C174.013 25.9564 174.125 26.6215 173.975 27.2673L174.218 27.3233Z" fill="black"/>
<path d="M163.529 29.4247C164.04 29.4247 164.542 29.2806 164.985 29.0002C165.601 28.6102 166.028 28.0034 166.188 27.2918L165.945 27.2373C165.799 27.884 165.411 28.4355 164.851 28.79C164.291 29.1445 163.627 29.2604 162.98 29.1146C162.333 28.9698 161.782 28.5814 161.427 28.0216C161.073 27.4614 160.957 26.797 161.103 26.1503L160.86 26.0958C160.7 26.8074 160.827 27.5385 161.217 28.1546C161.607 28.7709 162.214 29.198 162.926 29.3578C163.126 29.4024 163.329 29.4247 163.529 29.4247Z" fill="black"/>
<path d="M138.228 21.8394L137.979 21.8394L137.979 31.5772L138.228 31.5772L138.228 21.8394Z" fill="black"/>
<path d="M132.752 21.8394L132.503 21.8394L132.503 31.5772L132.752 31.5772L132.752 21.8394Z" fill="black"/>
<path d="M127.277 21.8394L127.028 21.8394L127.028 31.5772L127.277 31.5772L127.277 21.8394Z" fill="black"/>
<path d="M121.802 21.8394L121.553 21.8394L121.553 31.5772L121.802 31.5772L121.802 21.8394Z" fill="black"/>
<path d="M149.121 24.2801L149.002 24.4983L153.241 26.8206L153.361 26.6024L149.121 24.2801Z" fill="black"/>
<path d="M147.965 25.4501L147.845 25.6686L152.086 27.9905L152.205 27.7721L147.965 25.4501Z" fill="black"/>
<path d="M115.687 42.061L115.687 57.1872C115.687 58.6961 116.912 59.9209 118.421 59.9209L186.397 59.9209C187.906 59.9209 189.131 58.6961 189.131 57.1872L189.131 42.061C189.131 40.552 187.906 39.3273 186.397 39.3273L118.421 39.3273C116.912 39.3275 115.687 40.552 115.687 42.061Z" fill="#3F567E"/>
<g opacity="0.5">
<path d="M115.687 55.3724L189.13 55.3724L189.13 54.0695L115.687 54.0695L115.687 55.3724Z" fill="#117493"/>
</g>
<path d="M137.234 52.1763L138.103 52.1763L138.103 42.4384L137.234 42.4384L137.234 52.1763Z" fill="#117493"/>
<path d="M131.759 52.1763L132.627 52.1763L132.627 42.4384L131.759 42.4384L131.759 52.1763Z" fill="#117493"/>
<path d="M126.284 52.1763L127.153 52.1763L127.153 42.4384L126.284 42.4384L126.284 52.1763Z" fill="#117493"/>
<path d="M120.809 52.1763L121.677 52.1763L121.677 42.4384L120.809 42.4384L120.809 52.1763Z" fill="#117493"/>
<g opacity="0.5">
<path d="M176.955 47.3072C176.955 48.7463 178.122 49.9128 179.561 49.9128C181 49.9128 182.167 48.7461 182.167 47.3072C182.167 45.868 181 44.7015 179.561 44.7015C178.122 44.7015 176.955 45.8682 176.955 47.3072Z" fill="#6EE585"/>
</g>
<g opacity="0.5">
<path d="M168.952 47.3072C168.952 48.7463 170.119 49.9128 171.558 49.9128C172.997 49.9128 174.163 48.7461 174.163 47.3072C174.163 45.868 172.997 44.7015 171.558 44.7015C170.119 44.7015 168.952 45.8682 168.952 47.3072Z" fill="#6EE585"/>
</g>
<g opacity="0.5">
<path d="M160.949 47.3072C160.949 48.7463 162.115 49.9128 163.554 49.9128C164.993 49.9128 166.16 48.7461 166.16 47.3072C166.16 45.868 164.993 44.7015 163.554 44.7015C162.115 44.7015 160.949 45.8682 160.949 47.3072Z" fill="#6EE585"/>
</g>
<path d="M118.42 60.0451L118.42 59.796C116.981 59.796 115.811 58.6256 115.811 57.1871L115.811 42.0608C115.811 40.6219 116.981 39.4515 118.42 39.4515L186.397 39.4515C187.836 39.4515 189.006 40.6219 189.006 42.0608L189.006 57.1871L189.255 57.1871L189.255 42.0608C189.255 40.4848 187.973 39.2026 186.397 39.2026L118.42 39.2026C116.844 39.2026 115.562 40.485 115.562 42.0608L115.562 57.1871C115.562 58.7633 116.844 60.0451 118.42 60.0451Z" fill="black"/>
<path d="M189.131 53.9452L115.687 53.9452L115.687 54.1942L189.131 54.1942L189.131 53.9452Z" fill="black"/>
<path d="M179.561 50.0374C181.067 50.0374 182.291 48.8129 182.291 47.3074C182.291 45.8019 181.066 44.5771 179.561 44.5771L179.561 44.8262C180.929 44.8262 182.042 45.9393 182.042 47.3076C182.042 48.6757 180.929 49.7886 179.561 49.7886L179.561 50.0374Z" fill="black"/>
<path d="M174.218 47.9221C174.382 47.2117 174.26 46.4797 173.874 45.8612C173.487 45.2427 172.883 44.8117 172.173 44.6472C171.463 44.4831 170.73 44.605 170.112 44.9912C169.493 45.3776 169.062 45.9815 168.898 46.6921L169.14 46.748C169.449 45.4149 170.783 44.5811 172.117 44.8899C172.763 45.0393 173.311 45.4307 173.662 45.9929C174.013 46.5553 174.125 47.2204 173.975 47.8662L174.218 47.9221Z" fill="black"/>
<path d="M163.529 50.0235C164.04 50.0235 164.542 49.8795 164.985 49.5991C165.601 49.2091 166.028 48.6022 166.188 47.8907L165.945 47.8362C165.799 48.4829 165.411 49.0344 164.851 49.3889C164.291 49.7434 163.627 49.8592 162.98 49.7135C162.333 49.5685 161.782 49.1803 161.427 48.6205C161.073 48.0603 160.957 47.3959 161.103 46.7492L160.86 46.6947C160.7 47.4063 160.827 48.1373 161.217 48.7534C161.607 49.3697 162.214 49.7969 162.926 49.9567C163.126 50.0015 163.329 50.0235 163.529 50.0235Z" fill="black"/>
<path d="M138.228 42.4382L137.979 42.4382L137.979 52.1761L138.228 52.1761L138.228 42.4382Z" fill="black"/>
<path d="M132.752 42.4382L132.503 42.4382L132.503 52.1761L132.752 52.1761L132.752 42.4382Z" fill="black"/>
<path d="M127.277 42.4382L127.028 42.4382L127.028 52.1761L127.277 52.1761L127.277 42.4382Z" fill="black"/>
<path d="M121.802 42.4382L121.553 42.4382L121.553 52.1761L121.802 52.1761L121.802 42.4382Z" fill="black"/>
<path d="M153.257 47.4165L153.376 47.1982L149.139 44.8717L149.02 45.0901L153.257 47.4165Z" fill="black"/>
<path d="M147.956 46.041L147.837 46.2594L152.077 48.5813L152.196 48.3629L147.956 46.041Z" fill="black"/>
<path d="M115.687 62.649L115.687 77.7752C115.687 79.2841 116.912 80.5089 118.421 80.5089L186.397 80.5089C187.906 80.5089 189.131 79.2843 189.131 77.7752L189.131 62.649C189.131 61.14 187.906 59.9153 186.397 59.9153L118.421 59.9153C116.912 59.9155 115.687 61.14 115.687 62.649Z" fill="#3F567E"/>
<g opacity="0.5">
<path d="M115.687 75.9607L189.13 75.9607L189.13 74.6578L115.687 74.6578L115.687 75.9607Z" fill="#117493"/>
</g>
<path d="M137.234 72.7644L138.103 72.7644L138.103 63.0263L137.234 63.0263L137.234 72.7644Z" fill="#117493"/>
<path d="M131.759 72.7644L132.627 72.7644L132.627 63.0263L131.759 63.0263L131.759 72.7644Z" fill="#117493"/>
<path d="M126.284 72.7644L127.153 72.7644L127.153 63.0263L126.284 63.0263L126.284 72.7644Z" fill="#117493"/>
<path d="M120.809 72.7644L121.677 72.7644L121.677 63.0263L120.809 63.0263L120.809 72.7644Z" fill="#117493"/>
<g opacity="0.5">
<path d="M176.955 67.8954C176.955 69.3344 178.122 70.501 179.561 70.501C181 70.501 182.167 69.3344 182.167 67.8954C182.167 66.4564 181 65.2898 179.561 65.2898C178.122 65.2898 176.955 66.4563 176.955 67.8954Z" fill="#6EE585"/>
</g>
<g opacity="0.5">
<path d="M168.952 67.8954C168.952 69.3344 170.119 70.501 171.558 70.501C172.997 70.501 174.163 69.3344 174.163 67.8954C174.163 66.4564 172.997 65.2898 171.558 65.2898C170.119 65.2896 168.952 66.4563 168.952 67.8954Z" fill="#6EE585"/>
</g>
<g filter="url(#filter0_d_1032_35225)">
<path d="M160.949 67.8954C160.949 69.3344 162.115 70.501 163.554 70.501C164.993 70.501 166.16 69.3344 166.16 67.8954C166.16 66.4564 164.993 65.2898 163.554 65.2898C162.115 65.2896 160.949 66.4563 160.949 67.8954Z" fill="#FF7878"/>
</g>
<path d="M118.42 80.6333L118.42 80.3843C116.981 80.3843 115.811 79.2138 115.811 77.7752L115.811 62.649C115.811 61.2102 116.981 60.0397 118.42 60.0397L186.397 60.0397C187.836 60.0397 189.006 61.2102 189.006 62.649L189.006 77.7752L189.255 77.7752L189.255 62.649C189.255 61.073 187.973 59.7909 186.397 59.7909L118.42 59.7909C116.844 59.7909 115.562 61.0732 115.562 62.649L115.562 77.7752C115.562 79.3512 116.844 80.6333 118.42 80.6333Z" fill="black"/>
<path d="M189.131 74.5332L115.687 74.5332L115.687 74.7822L189.131 74.7822L189.131 74.5332Z" fill="black"/>
<path d="M179.561 70.6254C181.067 70.6254 182.291 69.4009 182.291 67.8954C182.291 66.3899 181.066 65.1652 179.561 65.1652L179.561 65.414C180.929 65.414 182.042 66.5271 182.042 67.8954C182.042 69.2635 180.929 70.3764 179.561 70.3764L179.561 70.6254Z" fill="black"/>
<path d="M174.218 68.5103C174.382 67.7998 174.26 67.0678 173.874 66.4494C173.487 65.8309 172.883 65.3999 172.173 65.2354C171.463 65.0712 170.73 65.1931 170.112 65.5793C169.493 65.9657 169.062 66.5696 168.898 67.2803L169.14 67.3362C169.449 66.003 170.783 65.1692 172.117 65.478C172.763 65.6274 173.311 66.0189 173.662 66.5811C174.013 67.1434 174.125 67.8087 173.975 68.4544L174.218 68.5103Z" fill="black"/>
<path d="M163.529 70.6116C164.04 70.6116 164.542 70.4673 164.985 70.1871C165.601 69.7971 166.028 69.1903 166.188 68.4787L165.945 68.4242C165.799 69.0709 165.411 69.6224 164.851 69.9769C164.291 70.3314 163.627 70.4472 162.98 70.3015C162.333 70.1567 161.782 69.7683 161.427 69.2085C161.073 68.6483 160.957 67.9839 161.103 67.3372L160.86 67.2827C160.7 67.9943 160.827 68.7253 161.217 69.3415C161.607 69.9578 162.214 70.3849 162.926 70.5447C163.126 70.5895 163.329 70.6116 163.529 70.6116Z" fill="black"/>
<path d="M138.228 63.0262L137.979 63.0262L137.979 72.7641L138.228 72.7641L138.228 63.0262Z" fill="black"/>
<path d="M132.752 63.0262L132.503 63.0262L132.503 72.7641L132.752 72.7641L132.752 63.0262Z" fill="black"/>
<path d="M127.277 63.0262L127.028 63.0262L127.028 72.7641L127.277 72.7641L127.277 63.0262Z" fill="black"/>
<path d="M121.802 63.0262L121.553 63.0262L121.553 72.7641L121.802 72.7641L121.802 63.0262Z" fill="black"/>
<path d="M149.136 65.4578L149.017 65.676L153.256 67.9987L153.376 67.7805L149.136 65.4578Z" fill="black"/>
<path d="M147.973 66.6209L147.853 66.8394L152.093 69.1618L152.213 68.9433L147.973 66.6209Z" fill="black"/>
<path d="M268.366 158.587L112.584 158.587L112.584 236.564L268.366 236.564L268.366 158.587Z" fill="#1E2B46"/>
<path d="M268.366 242.829L112.584 242.829L112.584 267.404L268.366 267.404L268.366 242.829Z" fill="#1E2B46"/>
<path d="M268.366 270.009L112.584 270.009L112.584 294.965L268.366 294.965L268.366 270.009Z" fill="#1E2B46"/>
<path d="M191.017 173.266L191.017 188.392C191.017 189.901 192.242 191.126 193.751 191.126L261.727 191.126C263.236 191.126 264.461 189.901 264.461 188.392L264.461 173.266C264.461 171.757 263.236 170.532 261.727 170.532L193.751 170.532C192.242 170.532 191.017 171.757 191.017 173.266Z" fill="#3F567E"/>
<g opacity="0.5">
<path d="M191.017 186.577L264.461 186.577L264.461 185.274L191.017 185.274L191.017 186.577Z" fill="#117493"/>
</g>
<path d="M212.564 183.381L213.433 183.381L213.433 173.643L212.564 173.643L212.564 183.381Z" fill="#117493"/>
<path d="M207.089 183.381L207.958 183.381L207.958 173.643L207.089 173.643L207.089 183.381Z" fill="#117493"/>
<path d="M201.614 183.381L202.483 183.381L202.483 173.643L201.614 173.643L201.614 183.381Z" fill="#117493"/>
<path d="M196.139 183.381L197.008 183.381L197.008 173.643L196.139 173.643L196.139 183.381Z" fill="#117493"/>
<g opacity="0.5">
<path d="M254.891 181.118C256.33 181.118 257.497 179.951 257.497 178.512C257.497 177.073 256.33 175.906 254.891 175.906C253.452 175.906 252.286 177.073 252.286 178.512C252.286 179.951 253.452 181.118 254.891 181.118Z" fill="#6EE585"/>
</g>
<g opacity="0.5">
<path d="M246.888 181.118C248.327 181.118 249.494 179.951 249.494 178.512C249.494 177.073 248.327 175.906 246.888 175.906C245.449 175.906 244.282 177.073 244.282 178.512C244.282 179.951 245.449 181.118 246.888 181.118Z" fill="#6EE585"/>
</g>
<g opacity="0.5">
<path d="M238.885 181.118C240.324 181.118 241.491 179.951 241.491 178.512C241.491 177.073 240.324 175.906 238.885 175.906C237.446 175.906 236.279 177.073 236.279 178.512C236.279 179.951 237.446 181.118 238.885 181.118Z" fill="#6EE585"/>
</g>
<path d="M193.751 191.25L193.751 191.001C192.312 191.001 191.142 189.83 191.142 188.392L191.142 173.266C191.142 171.827 192.312 170.657 193.751 170.657L261.728 170.657C263.166 170.657 264.337 171.827 264.337 173.266L264.337 188.392L264.586 188.392L264.586 173.266C264.586 171.69 263.304 170.408 261.728 170.408L193.751 170.408C192.175 170.408 190.893 171.69 190.893 173.266L190.893 188.392C190.893 189.968 192.175 191.25 193.751 191.25Z" fill="black"/>
<path d="M264.461 185.15L191.017 185.15L191.017 185.399L264.461 185.399L264.461 185.15Z" fill="black"/>
<path d="M254.891 181.242C256.397 181.242 257.622 180.018 257.622 178.512C257.622 177.007 256.397 175.782 254.891 175.782L254.891 176.031C256.26 176.031 257.373 177.144 257.373 178.512C257.373 179.88 256.26 180.993 254.891 180.993L254.891 181.242Z" fill="black"/>
<path d="M249.548 179.127C249.713 178.416 249.59 177.684 249.204 177.066C248.818 176.447 248.214 176.016 247.503 175.852C246.793 175.688 246.061 175.81 245.442 176.196C244.824 176.582 244.393 177.186 244.228 177.897L244.471 177.953C244.779 176.62 246.114 175.786 247.447 176.095C248.093 176.244 248.642 176.635 248.993 177.198C249.344 177.76 249.455 178.425 249.306 179.071L249.548 179.127Z" fill="black"/>
<path d="M238.86 181.228C239.371 181.228 239.873 181.084 240.315 180.804C240.931 180.414 241.359 179.807 241.518 179.095L241.275 179.041C241.13 179.688 240.742 180.239 240.182 180.594C239.622 180.948 238.958 181.064 238.311 180.918C237.664 180.773 237.113 180.385 236.758 179.825C236.404 179.265 236.288 178.601 236.434 177.954L236.191 177.899C236.031 178.611 236.158 179.342 236.548 179.958C236.938 180.574 237.545 181.002 238.257 181.161C238.457 181.206 238.659 181.228 238.86 181.228Z" fill="black"/>
<path d="M213.558 173.643L213.309 173.643L213.309 183.381L213.558 183.381L213.558 173.643Z" fill="black"/>
<path d="M208.083 173.643L207.833 173.643L207.833 183.381L208.083 183.381L208.083 173.643Z" fill="black"/>
<path d="M202.607 173.643L202.358 173.643L202.358 183.381L202.607 183.381L202.607 173.643Z" fill="black"/>
<path d="M197.133 173.643L196.884 173.643L196.884 183.381L197.133 183.381L197.133 173.643Z" fill="black"/>
<path d="M224.444 176.079L224.325 176.297L228.565 178.619L228.684 178.401L224.444 176.079Z" fill="black"/>
<path d="M223.286 177.241L223.167 177.459L227.407 179.781L227.526 179.563L223.286 177.241Z" fill="black"/>
<path d="M191.017 193.865L191.017 208.991C191.017 210.5 192.242 211.725 193.751 211.725L261.727 211.725C263.236 211.725 264.461 210.5 264.461 208.991L264.461 193.865C264.461 192.356 263.236 191.131 261.727 191.131L193.751 191.131C192.242 191.131 191.017 192.356 191.017 193.865Z" fill="#3F567E"/>
<g opacity="0.5">
<path d="M191.017 207.176L264.461 207.176L264.461 205.873L191.017 205.873L191.017 207.176Z" fill="#117493"/>
</g>
<path d="M212.564 203.98L213.433 203.98L213.433 194.242L212.564 194.242L212.564 203.98Z" fill="#117493"/>
<path d="M207.089 203.98L207.958 203.98L207.958 194.242L207.089 194.242L207.089 203.98Z" fill="#117493"/>
<path d="M201.614 203.98L202.483 203.98L202.483 194.242L201.614 194.242L201.614 203.98Z" fill="#117493"/>
<path d="M196.139 203.98L197.008 203.98L197.008 194.242L196.139 194.242L196.139 203.98Z" fill="#117493"/>
<g opacity="0.5">
<path d="M252.286 199.111C252.286 200.55 253.452 201.717 254.891 201.717C256.33 201.717 257.497 200.55 257.497 199.111C257.497 197.672 256.33 196.505 254.891 196.505C253.452 196.505 252.286 197.672 252.286 199.111Z" fill="#6EE585"/>
</g>
<g opacity="0.5">
<path d="M244.282 199.111C244.282 200.55 245.449 201.717 246.888 201.717C248.327 201.717 249.494 200.55 249.494 199.111C249.494 197.672 248.327 196.505 246.888 196.505C245.449 196.505 244.282 197.672 244.282 199.111Z" fill="#6EE585"/>
</g>
<g opacity="0.5">
<path d="M236.279 199.111C236.279 200.55 237.446 201.717 238.885 201.717C240.324 201.717 241.491 200.55 241.491 199.111C241.491 197.672 240.324 196.505 238.885 196.505C237.446 196.505 236.279 197.672 236.279 199.111Z" fill="#6EE585"/>
</g>
<path d="M193.751 211.849L193.751 211.6C192.312 211.6 191.142 210.43 191.142 208.991L191.142 193.865C191.142 192.426 192.312 191.256 193.751 191.256L261.728 191.256C263.166 191.256 264.337 192.426 264.337 193.865L264.337 208.991L264.586 208.991L264.586 193.865C264.586 192.289 263.304 191.007 261.728 191.007L193.751 191.007C192.175 191.007 190.893 192.289 190.893 193.865L190.893 208.991C190.893 210.567 192.175 211.849 193.751 211.849Z" fill="black"/>
<path d="M264.461 205.749L191.017 205.749L191.017 205.998L264.461 205.998L264.461 205.749Z" fill="black"/>
<path d="M254.891 201.841C256.397 201.841 257.622 200.617 257.622 199.111C257.622 197.606 256.397 196.381 254.891 196.381L254.891 196.63C256.26 196.63 257.373 197.743 257.373 199.111C257.373 200.479 256.26 201.592 254.891 201.592L254.891 201.841Z" fill="black"/>
<path d="M249.548 199.726C249.713 199.016 249.59 198.284 249.204 197.665C248.818 197.047 248.214 196.616 247.503 196.451C246.793 196.287 246.061 196.409 245.442 196.795C244.824 197.181 244.393 197.785 244.228 198.496L244.471 198.552C244.779 197.219 246.114 196.385 247.447 196.694C248.093 196.843 248.642 197.235 248.993 197.797C249.344 198.359 249.455 199.024 249.306 199.67L249.548 199.726Z" fill="black"/>
<path d="M238.86 201.827C239.371 201.827 239.873 201.683 240.315 201.403C240.931 201.013 241.359 200.406 241.518 199.695L241.275 199.64C241.13 200.287 240.742 200.838 240.182 201.193C239.622 201.547 238.958 201.663 238.311 201.517C237.664 201.372 237.113 200.984 236.758 200.424C236.404 199.864 236.288 199.2 236.434 198.553L236.191 198.499C236.031 199.21 236.158 199.941 236.548 200.557C236.938 201.174 237.545 201.601 238.257 201.761C238.457 201.805 238.659 201.827 238.86 201.827Z" fill="black"/>
<path d="M213.558 194.242L213.309 194.242L213.309 203.98L213.558 203.98L213.558 194.242Z" fill="black"/>
<path d="M208.083 194.242L207.833 194.242L207.833 203.98L208.083 203.98L208.083 194.242Z" fill="black"/>
<path d="M202.607 194.242L202.358 194.242L202.358 203.98L202.607 203.98L202.607 194.242Z" fill="black"/>
<path d="M197.133 194.242L196.884 194.242L196.884 203.98L197.133 203.98L197.133 194.242Z" fill="black"/>
<path d="M228.587 199.22L228.707 199.002L224.469 196.676L224.35 196.894L228.587 199.22Z" fill="black"/>
<path d="M223.295 197.854L223.175 198.072L227.415 200.394L227.535 200.176L223.295 197.854Z" fill="black"/>
<path d="M191.017 214.453L191.017 229.579C191.017 231.088 192.242 232.313 193.751 232.313L261.727 232.313C263.236 232.313 264.461 231.088 264.461 229.579L264.461 214.453C264.461 212.944 263.236 211.719 261.727 211.719L193.751 211.719C192.242 211.719 191.017 212.944 191.017 214.453Z" fill="#3F567E"/>
<g opacity="0.5">
<path d="M191.017 227.764L264.461 227.764L264.461 226.461L191.017 226.461L191.017 227.764Z" fill="#117493"/>
</g>
<path d="M212.564 224.568L213.433 224.568L213.433 214.83L212.564 214.83L212.564 224.568Z" fill="#117493"/>
<path d="M207.089 224.568L207.958 224.568L207.958 214.83L207.089 214.83L207.089 224.568Z" fill="#117493"/>
<path d="M201.614 224.568L202.483 224.568L202.483 214.83L201.614 214.83L201.614 224.568Z" fill="#117493"/>
<path d="M196.139 224.568L197.008 224.568L197.008 214.83L196.139 214.83L196.139 224.568Z" fill="#117493"/>
<path d="M252.286 219.699C252.286 221.138 253.452 222.305 254.891 222.305C256.33 222.305 257.497 221.138 257.497 219.699C257.497 218.26 256.33 217.093 254.891 217.093C253.452 217.093 252.286 218.26 252.286 219.699Z" fill="#6EE585"/>
<g opacity="0.5">
<path d="M244.282 219.699C244.282 221.138 245.449 222.305 246.888 222.305C248.327 222.305 249.494 221.138 249.494 219.699C249.494 218.26 248.327 217.093 246.888 217.093C245.449 217.093 244.282 218.26 244.282 219.699Z" fill="#6EE585"/>
</g>
<g opacity="0.5">
<path d="M236.279 219.699C236.279 221.138 237.446 222.305 238.885 222.305C240.324 222.305 241.491 221.138 241.491 219.699C241.491 218.26 240.324 217.093 238.885 217.093C237.446 217.093 236.279 218.26 236.279 219.699Z" fill="#6EE585"/>
</g>
<path d="M193.751 232.437L193.751 232.188C192.312 232.188 191.142 231.017 191.142 229.579L191.142 214.453C191.142 213.014 192.312 211.843 193.751 211.843L261.728 211.843C263.166 211.843 264.337 213.014 264.337 214.453L264.337 229.579L264.586 229.579L264.586 214.453C264.586 212.877 263.304 211.594 261.728 211.594L193.751 211.594C192.175 211.594 190.893 212.877 190.893 214.453L190.893 229.579C190.893 231.155 192.175 232.437 193.751 232.437Z" fill="black"/>
<path d="M264.461 226.337L191.017 226.337L191.017 226.586L264.461 226.586L264.461 226.337Z" fill="black"/>
<path d="M254.891 222.429C256.397 222.429 257.622 221.205 257.622 219.699C257.622 218.194 256.397 216.969 254.891 216.969L254.891 217.218C256.26 217.218 257.373 218.331 257.373 219.699C257.373 221.068 256.26 222.18 254.891 222.18L254.891 222.429Z" fill="black"/>
<path d="M249.548 220.314C249.713 219.604 249.59 218.872 249.204 218.253C248.818 217.635 248.214 217.204 247.503 217.039C246.793 216.875 246.061 216.997 245.442 217.383C244.824 217.769 244.393 218.374 244.228 219.084L244.471 219.14C244.779 217.807 246.114 216.973 247.447 217.282C248.093 217.431 248.642 217.823 248.993 218.385C249.344 218.947 249.455 219.613 249.306 220.258L249.548 220.314Z" fill="black"/>
<path d="M238.86 222.415C239.371 222.415 239.873 222.271 240.315 221.991C240.931 221.601 241.359 220.994 241.518 220.283L241.275 220.228C241.13 220.875 240.742 221.426 240.182 221.781C239.622 222.135 238.958 222.251 238.311 222.105C237.664 221.961 237.113 221.572 236.758 221.012C236.404 220.452 236.288 219.788 236.434 219.141L236.191 219.087C236.031 219.798 236.158 220.529 236.548 221.145C236.938 221.762 237.545 222.189 238.257 222.349C238.457 222.393 238.659 222.415 238.86 222.415Z" fill="black"/>
<path d="M213.558 214.83L213.309 214.83L213.309 224.568L213.558 224.568L213.558 214.83Z" fill="black"/>
<path d="M208.083 214.83L207.833 214.83L207.833 224.568L208.083 224.568L208.083 214.83Z" fill="black"/>
<path d="M202.607 214.83L202.358 214.83L202.358 224.568L202.607 224.568L202.607 214.83Z" fill="black"/>
<path d="M197.133 214.83L196.884 214.83L196.884 224.568L197.133 224.568L197.133 214.83Z" fill="black"/>
<path d="M224.468 217.26L224.348 217.478L228.588 219.801L228.708 219.582L224.468 217.26Z" fill="black"/>
<path d="M223.311 218.423L223.191 218.641L227.431 220.964L227.551 220.745L223.311 218.423Z" fill="black"/>
<path d="M115.687 173.266L115.687 188.392C115.687 189.901 116.912 191.126 118.421 191.126L186.397 191.126C187.906 191.126 189.131 189.901 189.131 188.392L189.131 173.266C189.131 171.757 187.906 170.532 186.397 170.532L118.421 170.532C116.912 170.532 115.687 171.757 115.687 173.266Z" fill="#3F567E"/>
<g opacity="0.5">
<path d="M115.687 186.577L189.13 186.577L189.13 185.274L115.687 185.274L115.687 186.577Z" fill="#117493"/>
</g>
<path d="M137.234 183.381L138.103 183.381L138.103 173.643L137.234 173.643L137.234 183.381Z" fill="#117493"/>
<path d="M131.759 183.381L132.627 183.381L132.627 173.643L131.759 173.643L131.759 183.381Z" fill="#117493"/>
<path d="M126.284 183.381L127.153 183.381L127.153 173.643L126.284 173.643L126.284 183.381Z" fill="#117493"/>
<path d="M120.809 183.381L121.677 183.381L121.677 173.643L120.809 173.643L120.809 183.381Z" fill="#117493"/>
<g opacity="0.5">
<path d="M179.561 181.118C181 181.118 182.167 179.951 182.167 178.512C182.167 177.073 181 175.906 179.561 175.906C178.122 175.906 176.955 177.073 176.955 178.512C176.955 179.951 178.122 181.118 179.561 181.118Z" fill="#6EE585"/>
</g>
<g opacity="0.5">
<path d="M171.558 181.118C172.997 181.118 174.163 179.951 174.163 178.512C174.163 177.073 172.997 175.906 171.558 175.906C170.119 175.906 168.952 177.073 168.952 178.512C168.952 179.951 170.119 181.118 171.558 181.118Z" fill="#6EE585"/>
</g>
<g opacity="0.5">
<path d="M163.555 181.118C164.994 181.118 166.16 179.951 166.16 178.512C166.16 177.073 164.994 175.906 163.555 175.906C162.116 175.906 160.949 177.073 160.949 178.512C160.949 179.951 162.116 181.118 163.555 181.118Z" fill="#6EE585"/>
</g>
<path d="M118.42 191.25L118.42 191.001C116.981 191.001 115.811 189.83 115.811 188.392L115.811 173.266C115.811 171.827 116.981 170.657 118.42 170.657L186.397 170.657C187.836 170.657 189.006 171.827 189.006 173.266L189.006 188.392L189.255 188.392L189.255 173.266C189.255 171.69 187.973 170.408 186.397 170.408L118.42 170.408C116.844 170.408 115.562 171.69 115.562 173.266L115.562 188.392C115.562 189.968 116.844 191.25 118.42 191.25Z" fill="black"/>
<path d="M189.131 185.15L115.687 185.15L115.687 185.399L189.131 185.399L189.131 185.15Z" fill="black"/>
<path d="M179.561 181.242C181.067 181.242 182.291 180.018 182.291 178.512C182.291 177.007 181.066 175.782 179.561 175.782L179.561 176.031C180.929 176.031 182.042 177.144 182.042 178.512C182.042 179.88 180.929 180.993 179.561 180.993L179.561 181.242Z" fill="black"/>
<path d="M174.218 179.127C174.382 178.416 174.26 177.684 173.874 177.066C173.487 176.447 172.883 176.016 172.173 175.852C171.463 175.688 170.73 175.81 170.112 176.196C169.493 176.582 169.062 177.186 168.898 177.897L169.14 177.953C169.449 176.62 170.783 175.786 172.117 176.095C172.763 176.244 173.311 176.635 173.662 177.198C174.013 177.76 174.125 178.425 173.975 179.071L174.218 179.127Z" fill="black"/>
<path d="M163.529 181.228C164.04 181.228 164.542 181.084 164.985 180.804C165.601 180.414 166.028 179.807 166.188 179.095L165.945 179.041C165.799 179.688 165.411 180.239 164.851 180.594C164.291 180.948 163.627 181.064 162.98 180.918C162.333 180.773 161.782 180.385 161.427 179.825C161.073 179.265 160.957 178.601 161.103 177.954L160.86 177.899C160.7 178.611 160.827 179.342 161.217 179.958C161.607 180.574 162.214 181.002 162.926 181.161C163.126 181.206 163.329 181.228 163.529 181.228Z" fill="black"/>
<path d="M138.228 173.643L137.979 173.643L137.979 183.381L138.228 183.381L138.228 173.643Z" fill="black"/>
<path d="M132.752 173.643L132.503 173.643L132.503 183.381L132.752 183.381L132.752 173.643Z" fill="black"/>
<path d="M127.277 173.643L127.028 173.643L127.028 183.381L127.277 183.381L127.277 173.643Z" fill="black"/>
<path d="M121.802 173.643L121.553 173.643L121.553 183.381L121.802 183.381L121.802 173.643Z" fill="black"/>
<path d="M149.117 176.077L148.998 176.295L153.237 178.617L153.357 178.399L149.117 176.077Z" fill="black"/>
<path d="M147.958 177.242L147.838 177.46L152.078 179.782L152.198 179.564L147.958 177.242Z" fill="black"/>
<path d="M115.687 193.865L115.687 208.991C115.687 210.5 116.912 211.725 118.421 211.725L186.397 211.725C187.906 211.725 189.131 210.5 189.131 208.991L189.131 193.865C189.131 192.356 187.906 191.131 186.397 191.131L118.421 191.131C116.912 191.131 115.687 192.356 115.687 193.865Z" fill="#3F567E"/>
<g opacity="0.5">
<path d="M115.687 207.176L189.13 207.176L189.13 205.873L115.687 205.873L115.687 207.176Z" fill="#117493"/>
</g>
<path d="M137.234 203.98L138.103 203.98L138.103 194.242L137.234 194.242L137.234 203.98Z" fill="#117493"/>
<path d="M131.759 203.98L132.627 203.98L132.627 194.242L131.759 194.242L131.759 203.98Z" fill="#117493"/>
<path d="M126.284 203.98L127.153 203.98L127.153 194.242L126.284 194.242L126.284 203.98Z" fill="#117493"/>
<path d="M120.809 203.98L121.677 203.98L121.677 194.242L120.809 194.242L120.809 203.98Z" fill="#117493"/>
<g opacity="0.5">
<path d="M176.955 199.111C176.955 200.55 178.122 201.717 179.561 201.717C181 201.717 182.167 200.55 182.167 199.111C182.167 197.672 181 196.505 179.561 196.505C178.122 196.505 176.955 197.672 176.955 199.111Z" fill="#6EE585"/>
</g>
<g opacity="0.5">
<path d="M168.952 199.111C168.952 200.55 170.119 201.717 171.558 201.717C172.997 201.717 174.163 200.55 174.163 199.111C174.163 197.672 172.997 196.505 171.558 196.505C170.119 196.505 168.952 197.672 168.952 199.111Z" fill="#6EE585"/>
</g>
<g opacity="0.5">
<path d="M160.949 199.111C160.949 200.55 162.115 201.717 163.554 201.717C164.993 201.717 166.16 200.55 166.16 199.111C166.16 197.672 164.993 196.505 163.554 196.505C162.115 196.505 160.949 197.672 160.949 199.111Z" fill="#6EE585"/>
</g>
<path d="M118.42 211.849L118.42 211.6C116.981 211.6 115.811 210.43 115.811 208.991L115.811 193.865C115.811 192.426 116.981 191.256 118.42 191.256L186.397 191.256C187.836 191.256 189.006 192.426 189.006 193.865L189.006 208.991L189.255 208.991L189.255 193.865C189.255 192.289 187.973 191.007 186.397 191.007L118.42 191.007C116.844 191.007 115.562 192.289 115.562 193.865L115.562 208.991C115.562 210.567 116.844 211.849 118.42 211.849Z" fill="black"/>
<path d="M189.131 205.749L115.687 205.749L115.687 205.998L189.131 205.998L189.131 205.749Z" fill="black"/>
<path d="M179.561 201.841C181.067 201.841 182.291 200.617 182.291 199.111C182.291 197.606 181.066 196.381 179.561 196.381L179.561 196.63C180.929 196.63 182.042 197.743 182.042 199.111C182.042 200.479 180.929 201.592 179.561 201.592L179.561 201.841Z" fill="black"/>
<path d="M174.218 199.726C174.382 199.016 174.26 198.284 173.874 197.665C173.487 197.047 172.883 196.616 172.173 196.451C171.463 196.287 170.73 196.409 170.112 196.795C169.493 197.181 169.062 197.785 168.898 198.496L169.14 198.552C169.449 197.219 170.783 196.385 172.117 196.694C172.763 196.843 173.311 197.235 173.662 197.797C174.013 198.359 174.125 199.024 173.975 199.67L174.218 199.726Z" fill="black"/>
<path d="M163.529 201.827C164.04 201.827 164.542 201.683 164.985 201.403C165.601 201.013 166.028 200.406 166.188 199.695L165.945 199.64C165.799 200.287 165.411 200.838 164.851 201.193C164.291 201.547 163.627 201.663 162.98 201.517C162.333 201.372 161.782 200.984 161.427 200.424C161.073 199.864 160.957 199.2 161.103 198.553L160.86 198.499C160.7 199.21 160.827 199.941 161.217 200.557C161.607 201.174 162.214 201.601 162.926 201.761C163.126 201.805 163.329 201.827 163.529 201.827Z" fill="black"/>
<path d="M138.228 194.242L137.979 194.242L137.979 203.98L138.228 203.98L138.228 194.242Z" fill="black"/>
<path d="M132.752 194.242L132.503 194.242L132.503 203.98L132.752 203.98L132.752 194.242Z" fill="black"/>
<path d="M127.277 194.242L127.028 194.242L127.028 203.98L127.277 203.98L127.277 194.242Z" fill="black"/>
<path d="M121.802 194.242L121.553 194.242L121.553 203.98L121.802 203.98L121.802 194.242Z" fill="black"/>
<path d="M153.257 199.22L153.376 199.002L149.139 196.676L149.02 196.894L153.257 199.22Z" fill="black"/>
<path d="M147.964 197.853L147.844 198.072L152.084 200.394L152.204 200.175L147.964 197.853Z" fill="black"/>
<path d="M115.687 214.453L115.687 229.579C115.687 231.088 116.912 232.313 118.421 232.313L186.397 232.313C187.906 232.313 189.131 231.088 189.131 229.579L189.131 214.453C189.131 212.944 187.906 211.719 186.397 211.719L118.421 211.719C116.912 211.719 115.687 212.944 115.687 214.453Z" fill="#3F567E"/>
<g opacity="0.5">
<path d="M115.687 227.764L189.13 227.764L189.13 226.461L115.687 226.461L115.687 227.764Z" fill="#117493"/>
</g>
<path d="M137.234 224.568L138.103 224.568L138.103 214.83L137.234 214.83L137.234 224.568Z" fill="#117493"/>
<path d="M131.759 224.568L132.627 224.568L132.627 214.83L131.759 214.83L131.759 224.568Z" fill="#117493"/>
<path d="M126.284 224.568L127.153 224.568L127.153 214.83L126.284 214.83L126.284 224.568Z" fill="#117493"/>
<path d="M120.809 224.568L121.677 224.568L121.677 214.83L120.809 214.83L120.809 224.568Z" fill="#117493"/>
<g opacity="0.5">
<path d="M176.955 219.699C176.955 221.138 178.122 222.305 179.561 222.305C181 222.305 182.167 221.138 182.167 219.699C182.167 218.26 181 217.093 179.561 217.093C178.122 217.093 176.955 218.26 176.955 219.699Z" fill="#6EE585"/>
</g>
<g opacity="0.5">
<path d="M168.952 219.699C168.952 221.138 170.119 222.305 171.558 222.305C172.997 222.305 174.163 221.138 174.163 219.699C174.163 218.26 172.997 217.093 171.558 217.093C170.119 217.093 168.952 218.26 168.952 219.699Z" fill="#6EE585"/>
</g>
<g opacity="0.5">
<path d="M160.949 219.699C160.949 221.138 162.115 222.305 163.554 222.305C164.993 222.305 166.16 221.138 166.16 219.699C166.16 218.26 164.993 217.093 163.554 217.093C162.115 217.093 160.949 218.26 160.949 219.699Z" fill="#6EE585"/>
</g>
<path d="M118.42 232.437L118.42 232.188C116.981 232.188 115.811 231.017 115.811 229.579L115.811 214.453C115.811 213.014 116.981 211.843 118.42 211.843L186.397 211.843C187.836 211.843 189.006 213.014 189.006 214.453L189.006 229.579L189.255 229.579L189.255 214.453C189.255 212.877 187.973 211.594 186.397 211.594L118.42 211.594C116.844 211.594 115.562 212.877 115.562 214.453L115.562 229.579C115.562 231.155 116.844 232.437 118.42 232.437Z" fill="black"/>
<path d="M189.131 226.337L115.687 226.337L115.687 226.586L189.131 226.586L189.131 226.337Z" fill="black"/>
<path d="M179.561 222.429C181.067 222.429 182.291 221.205 182.291 219.699C182.291 218.194 181.066 216.969 179.561 216.969L179.561 217.218C180.929 217.218 182.042 218.331 182.042 219.699C182.042 221.068 180.929 222.18 179.561 222.18L179.561 222.429Z" fill="black"/>
<path d="M174.218 220.314C174.382 219.604 174.26 218.872 173.874 218.253C173.487 217.635 172.883 217.204 172.173 217.039C171.463 216.875 170.73 216.997 170.112 217.383C169.493 217.769 169.062 218.374 168.898 219.084L169.14 219.14C169.449 217.807 170.783 216.973 172.117 217.282C172.763 217.431 173.311 217.823 173.662 218.385C174.013 218.947 174.125 219.613 173.975 220.258L174.218 220.314Z" fill="black"/>
<path d="M163.529 222.415C164.04 222.415 164.542 222.271 164.985 221.991C165.601 221.601 166.028 220.994 166.188 220.283L165.945 220.228C165.799 220.875 165.411 221.426 164.851 221.781C164.291 222.135 163.627 222.251 162.98 222.105C162.333 221.961 161.782 221.572 161.427 221.012C161.073 220.452 160.957 219.788 161.103 219.141L160.86 219.087C160.7 219.798 160.827 220.529 161.217 221.145C161.607 221.762 162.214 222.189 162.926 222.349C163.126 222.393 163.329 222.415 163.529 222.415Z" fill="black"/>
<path d="M138.228 214.83L137.979 214.83L137.979 224.568L138.228 224.568L138.228 214.83Z" fill="black"/>
<path d="M132.752 214.83L132.503 214.83L132.503 224.568L132.752 224.568L132.752 214.83Z" fill="black"/>
<path d="M127.277 214.83L127.028 214.83L127.028 224.568L127.277 224.568L127.277 214.83Z" fill="black"/>
<path d="M121.802 214.83L121.553 214.83L121.553 224.568L121.802 224.568L121.802 214.83Z" fill="black"/>
<path d="M149.138 217.26L149.019 217.479L153.258 219.801L153.378 219.583L149.138 217.26Z" fill="black"/>
<path d="M147.979 218.426L147.86 218.645L152.1 220.967L152.22 220.749L147.979 218.426Z" fill="black"/>
<path d="M268.366 87.3479L112.584 87.3479L112.584 117.174L268.366 117.174L268.366 87.3479Z" fill="#1E2B46"/>
<path d="M117.282 112.672L264.461 112.672L264.461 92.3607L117.282 92.3607L117.282 112.672Z" fill="#3F567E"/>
<g opacity="0.3">
<path d="M203.947 109.887L260.981 109.887L260.981 95.1456L203.947 95.1456L203.947 109.887Z" fill="#3F567E"/>
</g>
<g opacity="0.3">
<path d="M198.99 109.887L200.304 109.887L200.304 95.1456L198.99 95.1456L198.99 109.887Z" fill="#3F567E"/>
</g>
<g opacity="0.5">
<path d="M193.475 109.887L194.79 109.887L194.79 95.1456L193.475 95.1456L193.475 109.887Z" fill="#6EE585"/>
</g>
<g opacity="0.8">
<path d="M187.962 109.887L189.276 109.887L189.276 95.1456L187.962 95.1456L187.962 109.887Z" fill="#D64561"/>
</g>
<g opacity="0.3">
<path d="M182.447 109.887L183.762 109.887L183.762 95.1456L182.447 95.1456L182.447 109.887Z" fill="#3F567E"/>
</g>
<g opacity="0.5">
<path d="M176.933 109.887L178.248 109.887L178.248 95.1456L176.933 95.1456L176.933 109.887Z" fill="#6EE585"/>
</g>
<g opacity="0.3">
<path d="M171.419 109.887L172.734 109.887L172.734 95.1456L171.419 95.1456L171.419 109.887Z" fill="#3F567E"/>
</g>
<g opacity="0.3">
<path d="M165.905 109.887L167.22 109.887L167.22 95.1456L165.905 95.1456L165.905 109.887Z" fill="#3F567E"/>
</g>
<g opacity="0.3">
<path d="M160.391 109.887L161.706 109.887L161.706 95.1456L160.391 95.1456L160.391 109.887Z" fill="#3F567E"/>
</g>
<g opacity="0.5">
<path d="M154.877 109.887L156.192 109.887L156.192 95.1456L154.877 95.1456L154.877 109.887Z" fill="#6EE585"/>
</g>
<g opacity="0.3">
<path d="M149.363 109.887L150.678 109.887L150.678 95.1456L149.363 95.1456L149.363 109.887Z" fill="#3F567E"/>
</g>
<g opacity="0.5">
<path d="M143.849 109.887L145.164 109.887L145.164 95.1456L143.849 95.1456L143.849 109.887Z" fill="#6EE585"/>
</g>
<g opacity="0.3">
<path d="M138.335 109.887L139.65 109.887L139.65 95.1456L138.335 95.1456L138.335 109.887Z" fill="#3F567E"/>
</g>
<g filter="url(#filter1_d_1032_35225)">
<path d="M132.821 95.8028L132.821 109.23C132.821 109.593 133.115 109.887 133.478 109.887C133.841 109.887 134.136 109.593 134.136 109.23L134.136 95.8028C134.136 95.4398 133.841 95.1456 133.478 95.1456C133.115 95.1456 132.821 95.4398 132.821 95.8028Z" fill="#FF7777"/>
</g>
<g opacity="0.8">
<path d="M127.307 109.887L128.622 109.887L128.622 95.1456L127.307 95.1456L127.307 109.887Z" fill="#D64561"/>
</g>
<g opacity="0.3">
<path d="M121.793 109.887L123.108 109.887L123.108 95.1456L121.793 95.1456L121.793 109.887Z" fill="#3F567E"/>
</g>
<g opacity="0.5">
<path d="M258.554 131.754L264.542 131.754L264.542 126.204L258.554 126.204L258.554 131.754Z" fill="white"/>
<path d="M250.064 131.754L256.053 131.754L256.053 126.204L250.064 126.204L250.064 131.754Z" fill="white"/>
<path d="M241.574 131.754L247.563 131.754L247.563 126.204L241.574 126.204L241.574 131.754Z" fill="white"/>
<path d="M232.026 131.754L238.015 131.754L238.015 126.204L232.026 126.204L232.026 131.754Z" fill="white"/>
<path d="M223.536 131.754L229.525 131.754L229.525 126.204L223.536 126.204L223.536 131.754Z" fill="white"/>
<path d="M215.046 131.754L221.035 131.754L221.035 126.204L215.046 126.204L215.046 131.754Z" fill="white"/>
<path d="M205.498 131.754L211.487 131.754L211.487 126.204L205.498 126.204L205.498 131.754Z" fill="white"/>
<path d="M197.008 131.754L202.997 131.754L202.997 126.204L197.008 126.204L197.008 131.754Z" fill="white"/>
</g>
<path d="M117.37 264.471L263.58 264.471C264.578 264.471 265.388 263.661 265.388 262.663L265.388 247.571C265.388 246.572 264.578 245.762 263.58 245.762L117.37 245.762C116.372 245.762 115.562 246.572 115.562 247.571L115.562 262.663C115.562 263.661 116.372 264.471 117.37 264.471Z" fill="#3F567E"/>
<path d="M117.37 291.841L263.58 291.841C264.578 291.841 265.388 291.032 265.388 290.033L265.388 274.941C265.388 273.942 264.578 273.133 263.58 273.133L117.37 273.133C116.372 273.133 115.562 273.942 115.562 274.941L115.562 290.033C115.562 291.032 116.372 291.841 117.37 291.841Z" fill="#3F567E"/>
<g opacity="0.3">
<path d="M255.964 257.415C257.507 255.873 257.507 253.371 255.964 251.829C254.421 250.286 251.92 250.286 250.377 251.829C248.834 253.371 248.834 255.873 250.377 257.415C251.92 258.958 254.421 258.958 255.964 257.415Z" fill="#3F567E"/>
</g>
<g opacity="0.3">
<path d="M126.695 258.437C128.818 257.935 130.133 255.807 129.632 253.684C129.13 251.561 127.003 250.246 124.879 250.747C122.756 251.249 121.441 253.377 121.943 255.5C122.444 257.623 124.572 258.938 126.695 258.437Z" fill="#3F567E"/>
</g>
<g opacity="0.3">
<path d="M132.484 255.353L246.48 255.353L246.48 253.889L132.484 253.889L132.484 255.353Z" fill="#3F567E"/>
</g>
<path d="M253.578 135.737C253.758 135.737 253.937 135.73 254.117 135.716C259.175 135.317 262.198 129.455 262.324 129.205C262.449 128.958 262.351 128.657 262.104 128.532C261.857 128.406 261.555 128.505 261.43 128.752C261.402 128.808 258.53 134.365 254.034 134.717C251.084 134.945 248.036 132.919 244.974 128.685C244.812 128.461 244.499 128.41 244.274 128.573C244.05 128.735 244 129.048 244.162 129.273C247.267 133.565 250.432 135.737 253.578 135.737Z" fill="#FEC786"/>
<path d="M245.512 135.678C245.69 135.678 245.868 135.671 246.046 135.657C251.06 135.261 254.055 129.453 254.18 129.205C254.305 128.958 254.206 128.657 253.959 128.532C253.713 128.406 253.411 128.505 253.286 128.752C253.257 128.808 250.414 134.309 245.963 134.658C243.047 134.887 240.026 132.877 236.993 128.685C236.831 128.461 236.517 128.41 236.293 128.573C236.069 128.735 236.019 129.048 236.181 129.273C239.258 133.526 242.394 135.678 245.512 135.678Z" fill="white"/>
<path d="M235.901 135.678C236.079 135.678 236.257 135.671 236.435 135.657C241.449 135.261 244.444 129.453 244.569 129.205C244.694 128.958 244.595 128.657 244.348 128.532C244.102 128.406 243.8 128.505 243.675 128.752C243.647 128.808 240.804 134.309 236.352 134.658C233.436 134.887 230.415 132.877 227.383 128.685C227.22 128.461 226.907 128.41 226.682 128.573C226.458 128.735 226.408 129.048 226.57 129.273C229.647 133.526 232.783 135.678 235.901 135.678Z" fill="#FEC786"/>
<path d="M218.231 135.737C218.411 135.737 218.59 135.73 218.77 135.716C223.829 135.317 226.852 129.455 226.978 129.205C227.103 128.958 227.004 128.657 226.757 128.532C226.51 128.406 226.209 128.505 226.083 128.752C226.055 128.808 223.183 134.365 218.687 134.717C215.738 134.945 212.69 132.919 209.628 128.685C209.465 128.461 209.152 128.41 208.928 128.573C208.703 128.735 208.653 129.048 208.815 129.273C211.92 133.565 215.085 135.737 218.231 135.737Z" fill="white"/>
<path d="M210.165 135.678C210.343 135.678 210.521 135.671 210.699 135.657C215.713 135.261 218.708 129.453 218.833 129.205C218.958 128.958 218.859 128.657 218.613 128.532C218.366 128.406 218.064 128.505 217.939 128.752C217.911 128.808 215.068 134.309 210.617 134.658C207.698 134.888 204.679 132.877 201.647 128.685C201.484 128.461 201.171 128.41 200.947 128.573C200.722 128.735 200.672 129.048 200.834 129.273C203.911 133.526 207.048 135.678 210.165 135.678Z" fill="#FEC786"/>
<g opacity="0.5">
<path d="M258.554 145.184L264.542 145.184L264.542 139.634L258.554 139.634L258.554 145.184Z" fill="white"/>
<path d="M250.064 145.184L256.053 145.184L256.053 139.634L250.064 139.634L250.064 145.184Z" fill="white"/>
<path d="M241.574 145.184L247.563 145.184L247.563 139.634L241.574 139.634L241.574 145.184Z" fill="white"/>
<path d="M232.026 145.184L238.015 145.184L238.015 139.634L232.026 139.634L232.026 145.184Z" fill="white"/>
<path d="M223.536 145.184L229.525 145.184L229.525 139.634L223.536 139.634L223.536 145.184Z" fill="white"/>
<path d="M215.046 145.184L221.035 145.184L221.035 139.634L215.046 139.634L215.046 145.184Z" fill="white"/>
<path d="M205.498 145.184L211.487 145.184L211.487 139.634L205.498 139.634L205.498 145.184Z" fill="white"/>
<path d="M197.008 145.184L202.997 145.184L202.997 139.634L197.008 139.634L197.008 145.184Z" fill="white"/>
</g>
<path d="M253.578 149.167C253.758 149.167 253.937 149.16 254.117 149.146C259.175 148.746 262.198 142.884 262.324 142.635C262.449 142.388 262.351 142.087 262.104 141.962C261.857 141.836 261.555 141.935 261.43 142.182C261.402 142.238 258.53 147.794 254.034 148.147C251.084 148.377 248.036 146.348 244.974 142.115C244.812 141.891 244.499 141.84 244.274 142.002C244.05 142.165 244 142.478 244.162 142.702C247.267 146.995 250.432 149.167 253.578 149.167Z" fill="#FEC786"/>
<path d="M245.512 149.108C245.69 149.108 245.868 149.101 246.046 149.087C251.06 148.691 254.055 142.882 254.18 142.635C254.305 142.388 254.206 142.087 253.959 141.962C253.713 141.836 253.411 141.935 253.286 142.182C253.257 142.237 250.414 147.739 245.963 148.088C243.047 148.318 240.026 146.307 236.993 142.115C236.831 141.891 236.517 141.84 236.293 142.002C236.069 142.165 236.019 142.478 236.181 142.702C239.258 146.956 242.394 149.108 245.512 149.108Z" fill="white"/>
<path d="M235.901 149.108C236.079 149.108 236.257 149.101 236.435 149.087C241.449 148.691 244.444 142.882 244.569 142.635C244.694 142.388 244.595 142.087 244.348 141.962C244.102 141.836 243.8 141.935 243.675 142.182C243.647 142.237 240.804 147.739 236.352 148.088C233.436 148.318 230.415 146.307 227.383 142.115C227.22 141.891 226.907 141.84 226.682 142.002C226.458 142.165 226.408 142.478 226.57 142.702C229.647 146.956 232.783 149.108 235.901 149.108Z" fill="#FEC786"/>
<path d="M218.231 149.167C218.411 149.167 218.59 149.16 218.77 149.146C223.829 148.746 226.852 142.884 226.978 142.635C227.103 142.388 227.004 142.087 226.757 141.962C226.51 141.836 226.209 141.935 226.083 142.182C226.055 142.238 223.183 147.794 218.687 148.147C215.738 148.377 212.69 146.348 209.628 142.115C209.465 141.891 209.152 141.84 208.928 142.002C208.703 142.165 208.653 142.478 208.815 142.702C211.92 146.995 215.085 149.167 218.231 149.167Z" fill="white"/>
<path d="M210.165 149.108C210.343 149.108 210.521 149.101 210.699 149.087C215.713 148.691 218.708 142.882 218.833 142.635C218.958 142.388 218.859 142.087 218.613 141.962C218.366 141.836 218.064 141.935 217.939 142.182C217.911 142.237 215.068 147.739 210.617 148.088C207.698 148.316 204.679 146.307 201.647 142.115C201.484 141.891 201.171 141.84 200.947 142.002C200.722 142.165 200.672 142.478 200.834 142.702C203.911 146.956 207.048 149.108 210.165 149.108Z" fill="#FEC786"/>
<g opacity="0.5">
<path d="M177.142 131.754L183.131 131.754L183.131 126.204L177.142 126.204L177.142 131.754Z" fill="white"/>
<path d="M168.652 131.754L174.641 131.754L174.641 126.204L168.652 126.204L168.652 131.754Z" fill="white"/>
<path d="M160.162 131.754L166.151 131.754L166.151 126.204L160.162 126.204L160.162 131.754Z" fill="white"/>
<path d="M150.614 131.754L156.603 131.754L156.603 126.204L150.614 126.204L150.614 131.754Z" fill="white"/>
<path d="M142.124 131.754L148.113 131.754L148.113 126.204L142.124 126.204L142.124 131.754Z" fill="white"/>
<path d="M133.634 131.754L139.623 131.754L139.623 126.204L133.634 126.204L133.634 131.754Z" fill="white"/>
<path d="M124.086 131.754L130.075 131.754L130.075 126.204L124.086 126.204L124.086 131.754Z" fill="white"/>
<path d="M115.596 131.754L121.585 131.754L121.585 126.204L115.596 126.204L115.596 131.754Z" fill="white"/>
</g>
<path d="M172.165 135.737C172.345 135.737 172.525 135.73 172.704 135.716C177.763 135.317 180.786 129.455 180.912 129.205C181.037 128.958 180.938 128.657 180.691 128.532C180.445 128.406 180.143 128.505 180.018 128.752C179.989 128.808 177.118 134.365 172.622 134.717C169.673 134.945 166.624 132.919 163.562 128.685C163.4 128.461 163.086 128.41 162.862 128.573C162.638 128.735 162.587 129.048 162.749 129.273C165.855 133.565 169.02 135.737 172.165 135.737Z" fill="#FEC786"/>
<path d="M164.1 135.678C164.278 135.678 164.456 135.671 164.634 135.657C169.647 135.261 172.643 129.453 172.768 129.205C172.893 128.958 172.794 128.657 172.547 128.532C172.301 128.406 171.999 128.505 171.874 128.752C171.845 128.808 169.002 134.309 164.551 134.658C161.632 134.888 158.614 132.877 155.581 128.685C155.419 128.461 155.106 128.41 154.881 128.573C154.657 128.735 154.607 129.048 154.769 129.273C157.846 133.526 160.982 135.678 164.1 135.678Z" fill="white"/>
<path d="M154.489 135.678C154.667 135.678 154.845 135.671 155.023 135.657C160.037 135.261 163.032 129.453 163.157 129.205C163.282 128.958 163.183 128.657 162.937 128.532C162.69 128.406 162.388 128.505 162.263 128.752C162.235 128.808 159.392 134.309 154.941 134.658C152.022 134.888 149.003 132.877 145.971 128.685C145.808 128.461 145.495 128.41 145.271 128.573C145.046 128.735 144.996 129.048 145.158 129.273C148.235 133.526 151.372 135.678 154.489 135.678Z" fill="#FEC786"/>
<path d="M136.819 135.737C136.999 135.737 137.178 135.73 137.358 135.716C142.416 135.317 145.439 129.455 145.565 129.205C145.69 128.958 145.592 128.657 145.345 128.532C145.098 128.406 144.796 128.505 144.671 128.752C144.643 128.808 141.771 134.365 137.275 134.717C134.322 134.948 131.278 132.919 128.216 128.685C128.053 128.461 127.74 128.41 127.516 128.573C127.291 128.735 127.241 129.048 127.403 129.273C130.508 133.565 133.673 135.737 136.819 135.737Z" fill="white"/>
<path d="M128.753 135.678C128.931 135.678 129.109 135.671 129.287 135.657C134.301 135.261 137.296 129.453 137.421 129.205C137.546 128.958 137.447 128.657 137.2 128.532C136.954 128.406 136.652 128.505 136.527 128.752C136.498 128.808 133.655 134.309 129.204 134.658C126.284 134.888 123.267 132.877 120.235 128.685C120.072 128.461 119.759 128.41 119.534 128.573C119.31 128.735 119.26 129.048 119.422 129.273C122.499 133.526 125.635 135.678 128.753 135.678Z" fill="#FEC786"/>
<g opacity="0.5">
<path d="M177.142 145.184L183.131 145.184L183.131 139.634L177.142 139.634L177.142 145.184Z" fill="white"/>
<path d="M168.652 145.184L174.641 145.184L174.641 139.634L168.652 139.634L168.652 145.184Z" fill="white"/>
<path d="M160.162 145.184L166.151 145.184L166.151 139.634L160.162 139.634L160.162 145.184Z" fill="white"/>
<path d="M150.614 145.184L156.603 145.184L156.603 139.634L150.614 139.634L150.614 145.184Z" fill="white"/>
<path d="M142.124 145.184L148.113 145.184L148.113 139.634L142.124 139.634L142.124 145.184Z" fill="white"/>
<path d="M133.634 145.184L139.623 145.184L139.623 139.634L133.634 139.634L133.634 145.184Z" fill="white"/>
<path d="M124.086 145.184L130.075 145.184L130.075 139.634L124.086 139.634L124.086 145.184Z" fill="white"/>
<path d="M115.596 145.184L121.585 145.184L121.585 139.634L115.596 139.634L115.596 145.184Z" fill="white"/>
</g>
<path d="M172.165 149.167C172.345 149.167 172.525 149.16 172.704 149.146C177.763 148.746 180.786 142.884 180.912 142.635C181.037 142.388 180.938 142.087 180.691 141.962C180.445 141.836 180.143 141.935 180.018 142.182C179.989 142.238 177.118 147.794 172.622 148.147C169.673 148.377 166.624 146.348 163.562 142.115C163.4 141.891 163.086 141.84 162.862 142.002C162.638 142.165 162.587 142.478 162.749 142.702C165.855 146.995 169.02 149.167 172.165 149.167Z" fill="#FEC786"/>
<path d="M164.1 149.108C164.278 149.108 164.456 149.101 164.634 149.087C169.647 148.691 172.643 142.882 172.768 142.635C172.893 142.388 172.794 142.087 172.547 141.962C172.301 141.836 171.999 141.935 171.874 142.182C171.845 142.237 169.002 147.739 164.551 148.088C161.632 148.316 158.614 146.307 155.581 142.115C155.419 141.891 155.106 141.84 154.881 142.002C154.657 142.165 154.607 142.478 154.769 142.702C157.846 146.956 160.982 149.108 164.1 149.108Z" fill="white"/>
<path d="M154.489 149.108C154.667 149.108 154.845 149.101 155.023 149.087C160.037 148.691 163.032 142.882 163.157 142.635C163.282 142.388 163.183 142.087 162.937 141.962C162.69 141.836 162.388 141.935 162.263 142.182C162.235 142.237 159.392 147.739 154.941 148.088C152.022 148.316 149.003 146.307 145.971 142.115C145.808 141.891 145.495 141.84 145.271 142.002C145.046 142.165 144.996 142.478 145.158 142.702C148.235 146.956 151.372 149.108 154.489 149.108Z" fill="#FEC786"/>
<path d="M136.819 149.167C136.999 149.167 137.178 149.16 137.358 149.146C142.416 148.746 145.439 142.884 145.565 142.635C145.69 142.388 145.591 142.087 145.345 141.962C145.098 141.836 144.796 141.935 144.671 142.182C144.643 142.238 141.771 147.794 137.275 148.147C134.324 148.381 131.277 146.348 128.215 142.115C128.053 141.891 127.74 141.84 127.515 142.002C127.291 142.165 127.241 142.478 127.403 142.702C130.508 146.995 133.673 149.167 136.819 149.167Z" fill="white"/>
<path d="M128.753 149.108C128.931 149.108 129.109 149.101 129.287 149.087C134.301 148.691 137.296 142.882 137.421 142.635C137.546 142.388 137.447 142.087 137.2 141.962C136.954 141.836 136.652 141.935 136.527 142.182C136.498 142.237 133.655 147.739 129.204 148.088C126.284 148.316 123.267 146.307 120.235 142.115C120.072 141.891 119.759 141.84 119.534 142.002C119.31 142.165 119.26 142.478 119.422 142.702C122.499 146.956 125.635 149.108 128.753 149.108Z" fill="#FEC786"/>
<path d="M115.707 246.33C116.493 246.33 117.283 246.307 118.078 246.263C129.024 245.649 138.679 241.693 146.775 234.505C153.236 228.77 158.717 220.977 163.067 211.344C170.457 194.978 172.042 178.721 172.057 178.559C172.082 178.283 171.88 178.039 171.604 178.013C171.33 177.988 171.084 178.19 171.059 178.465C171.043 178.626 169.471 194.739 162.143 210.955C155.41 225.854 142.29 243.9 118.022 245.262C93.773 246.625 78.1018 226.181 69.229 208.793C59.5691 189.862 55.6398 170.344 55.601 170.149C55.5471 169.877 55.2828 169.7 55.0121 169.754C54.7405 169.808 54.5639 170.072 54.6175 170.343C54.6561 170.54 58.6076 190.177 68.3268 209.231C74.0466 220.444 80.6176 229.272 87.8574 235.467C96.2872 242.682 105.646 246.33 115.707 246.33Z" fill="#FEC786"/>
<path d="M124.691 236.408C135.815 236.408 145.359 233.695 153.193 228.289C161.389 222.633 166.079 215.028 168.57 209.645C171.269 203.812 172.022 199.378 172.052 199.193C172.098 198.919 171.913 198.662 171.64 198.616C171.367 198.571 171.109 198.756 171.063 199.029C171.034 199.206 167.942 216.899 152.613 227.471C141.361 235.231 126.458 237.312 108.317 233.654C79.805 227.906 67.8029 201.72 62.7554 180.765C57.2669 157.98 58.577 136.289 58.5909 136.073C58.6086 135.796 58.3991 135.558 58.1227 135.54C57.8485 135.527 57.6081 135.732 57.5904 136.009C57.5764 136.226 56.2573 158.069 61.7807 181C65.0307 194.492 69.9789 205.723 76.4878 214.381C84.6484 225.236 95.2908 232.051 108.119 234.637C113.976 235.818 119.506 236.408 124.691 236.408Z" fill="white"/>
</g>
<g filter="url(#filter2_d_1032_35225)">
<path d="M106.909 230.815L145.093 261.47L138.951 267.151C138.951 267.151 138.968 270.748 113.231 262.647C102.474 259.269 106.909 230.815 106.909 230.815Z" fill="#E7926B"/>
<path d="M99.8874 159.918L101.358 251.917C105.025 249.52 108.692 247.123 112.359 244.726C115.227 242.845 118.105 240.974 120.973 239.093C123.608 237.376 127.067 237.177 126.613 233.45C126.053 228.769 125.259 224.141 124.537 219.502C124.071 216.506 123.636 213.504 123.311 210.472C122.563 203.539 122.194 196.524 121.106 189.634C120.489 185.776 119.653 179.611 116.994 173.256C116.845 172.901 116.686 172.542 116.527 172.187C116.394 171.975 116.256 171.768 116.118 171.555C113.737 167.959 110.819 164.706 107.34 161.846C105.44 160.282 103.414 158.886 101.352 157.546C100.133 158.268 99.8874 159.918 99.8874 159.918Z" fill="#6A2E1C"/>
<path d="M13.7872 521.061C13.9279 523.963 34.8907 527.82 45.8198 528.95C48.9975 529.279 51.7564 529.023 52.1116 525.85C54.1313 507.935 60.5311 467.036 66.3977 426.053C70.4235 397.95 72.9924 376.06 76.0425 355.056C87.3976 424.947 90.0179 524.938 91.7185 528.288C93.6393 532.079 129.529 513.759 129.529 513.759C129.529 513.759 130.663 427.404 128.104 388.942C125.545 350.475 111.689 263.69 111.689 263.69L29.4559 265.114C29.4559 265.114 29.1871 269.377 28.7204 276.807C28.4281 281.456 28.0606 287.349 27.6318 294.205C23.4753 360.66 13.6465 518.17 13.7872 521.061Z" fill="#5F7AB3"/>
<path d="M29.3004 232.729C26.7676 240.966 25.277 250.74 25.2894 253.307C25.3239 260.522 30.4085 265.957 30.4085 265.957L109.649 266.779C112.239 255.665 111.645 254.506 111.61 247.236C111.573 239.524 108.446 230.802 109.915 215.376C110.745 206.65 111.972 197.968 112.854 189.253C113.28 184.994 113.847 180.526 113.943 176.102C112.146 171.66 110.288 167.24 108.465 162.814C108.088 162.486 107.716 162.158 107.329 161.846C103.112 158.38 98.2991 155.724 93.7691 152.712C92.3744 151.785 90.4705 150.45 88.4085 148.968C87.9808 148.655 87.5481 148.343 87.1102 148.025C83.4087 145.334 79.4573 142.359 77.1753 140.498C72.1487 137.61 71.2116 137.939 68.9338 136.94C68.6542 136.82 62.2108 131.574 61.2072 133.892C57.6494 142.134 46.8725 146.295 46.8725 146.295L24.0056 201.404C24.0106 201.399 31.7435 224.792 29.3004 232.729Z" fill="#6A2E1C"/>
<path d="M110.898 243.723L111.075 242.616C111.075 242.616 110.79 242.44 110.898 243.723Z" fill="#ADA163"/>
<path d="M27.9036 262.036C27.9036 262.036 25.3904 274.383 26.9476 277.46C28.5047 280.537 77.8996 291.61 79.952 291.082C82.0043 290.56 81.9181 272.569 82.9456 272.052C83.9731 271.535 87.1315 287.963 88.6813 289.498C90.2311 291.033 115.313 284.084 115.887 282.173C116.157 281.289 115.994 279.189 115.611 276.406C115.542 275.889 115.464 275.341 115.375 274.778C114.683 270.205 113.579 264.294 112.767 258.87C112.625 257.906 112.483 256.877 112.356 255.827C111.876 251.887 111.495 247.653 111.082 245.189C110.978 244.56 110.92 244.083 110.893 243.723L110.306 247.344L110.07 248.791L95.5827 255.862L93.067 257.092L83.7885 261.616L81.3538 262.805C81.3538 262.805 27.9099 246.409 26.2993 251.247C24.6989 256.085 27.9036 262.036 27.9036 262.036Z" fill="#6A2E1C"/>
<path d="M106.673 210.191C107.965 200.316 108.974 190.687 108.972 180.717C108.972 179.575 110.672 179.577 110.738 180.708C111.268 189.626 110.412 198.483 109.125 207.302C108.457 211.892 107.805 216.553 108.157 221.204C108.503 225.809 109.144 237.684 110.707 241.974C111.087 243.017 109.346 243.781 108.899 242.748C107.252 238.966 106.856 227.263 106.319 223.156C105.75 218.836 106.11 214.486 106.673 210.191Z" fill="#301107"/>
<path d="M76.1568 210.657C76.3085 205.273 77.1303 199.942 77.7084 194.591C78.3594 188.566 78.6348 182.506 77.3935 176.535C77.2792 175.978 78.1203 175.73 78.2498 176.293C80.7352 186.723 78.0009 197.39 77.3052 207.861C76.9314 213.484 77.4693 218.809 78.6626 224.308C79.2333 226.934 79.8041 229.575 79.9895 232.263C80.175 234.981 79.5182 237.674 79.7493 240.377C80.002 243.349 81.2839 246.164 81.628 249.145C81.9986 252.36 83.5017 267.452 83.3041 270.68C83.2665 271.315 82.2925 271.329 82.3097 270.685C82.3827 267.925 80.9379 253.355 80.737 250.601C80.5304 247.73 79.6757 245.131 79.0434 242.354C78.4525 239.754 78.9328 237.281 79.0167 234.662C79.1045 231.82 78.6192 229.012 78.0377 226.245C76.9472 221.029 76.0048 216.01 76.1568 210.657Z" fill="#301107"/>
<path d="M44.1035 189.907C44.1133 189.846 44.1283 189.785 44.1432 189.719C44.4769 188.418 46.9394 188.787 47.969 188.711C49.739 188.576 51.5196 188.512 53.2954 188.508C56.7303 188.502 60.1663 188.734 63.5728 189.154C64.7708 189.3 64.3279 191.104 63.1452 190.977C59.6628 190.593 56.1613 190.463 52.6608 190.541C50.8852 190.58 49.1098 190.674 47.3398 190.815C46.366 190.901 43.8225 191.628 44.1035 189.907Z" fill="#301107"/>
<path d="M112.713 193.708C114.914 187.076 116.332 180.205 116.988 173.251C116.84 172.896 116.681 172.537 116.522 172.182C116.389 171.97 116.251 171.763 116.113 171.55C115.534 178.976 114.093 186.314 111.844 193.459C111.664 194.023 112.528 194.252 112.713 193.708Z" fill="#301107"/>
<path d="M78.233 155.734C80.5434 158.245 83.2178 160.48 85.8261 162.674C86.524 163.265 87.4708 162.844 87.5527 161.951C87.9481 157.646 88.2926 153.307 88.4088 148.968C87.9812 148.655 87.5484 148.343 87.1105 148.025C86.7706 153.319 86.2629 159.603 85.7112 159.889C83.6578 158.057 81.6699 156.159 79.5963 154.358C78.6537 153.54 77.3762 154.81 78.233 155.734Z" fill="#301107"/>
<path d="M49.7834 144.967C52.5278 150.16 55.3431 155.321 58.1179 160.503C59.1008 162.346 59.9002 163.991 61.8192 162.104C64.6674 159.315 67.1101 156.615 70.4734 154.371C71.4242 153.737 70.575 152.275 69.568 152.833C66.9518 154.286 64.6014 156.139 62.5417 158.301C62.0621 158.805 61.2937 159.392 61.0024 159.998C60.4699 161.106 61.1972 161.488 60.3445 160.351C59.3794 159.067 58.7317 157.314 57.974 155.897C55.834 151.889 53.7294 147.861 51.5792 143.852C50.9774 144.261 50.3704 144.635 49.7834 144.967Z" fill="#301107"/>
<path d="M98.3166 104.277C98.3166 104.277 107.037 99.8513 107.426 87.7081C107.814 75.5648 97.2305 79.8673 96.4154 80.2365C95.8391 77.5096 93.2613 73.189 85.7835 73.372C76.4642 73.5993 69.0524 82.2551 69.0524 82.2551C69.0524 82.2551 58.2424 81.6422 57.4614 92.2856C56.4709 105.812 60.0763 117.048 65.2499 122.011C67.875 124.525 98.3166 104.277 98.3166 104.277Z" fill="#4A3333"/>
<path d="M58.7396 137.73C61.0015 140.712 67.165 147.893 71.769 152.584L78.0444 174.655C78.0444 174.655 79.4587 147.92 80.1987 143.523C80.2283 143.35 80.263 143.172 80.2976 142.994C80.2721 142.959 80.2415 142.929 80.2211 142.898C80.17 142.833 80.1392 142.767 80.1187 142.706C79.855 141.677 79.9469 139.693 80.1157 137.856C80.2267 136.658 80.3785 135.52 80.4864 134.749C80.5749 134.16 65.6139 107.97 65.6139 107.97C65.6139 107.97 62.8403 131.617 58.7396 137.73Z" fill="#E7926B"/>
<path opacity="0.3" d="M80.2161 142.903C80.165 142.838 80.1342 142.772 80.1137 142.711C79.85 141.682 79.9419 139.698 80.1107 137.861C80.2217 136.663 80.8142 133.271 80.9222 132.499C80.9222 132.499 79.3279 131.208 79.4758 130.304C79.4757 130.289 79.4756 130.268 79.4806 130.253C75.9054 125.329 72.0442 119.999 69.4479 119.246C68.9855 119.111 68.5543 119.113 68.1695 119.287C67.481 119.595 66.9167 120.44 66.7061 122.009C64.8341 135.813 76.9511 142.371 80.2161 142.903Z" fill="#1A1A1A"/>
<path d="M69.8978 86.1375C69.842 86.1377 69.7862 86.1329 69.7252 86.118C69.329 86.0235 69.0836 85.6289 69.1781 85.2378C69.1831 85.2226 69.5753 83.4246 68.6256 82.1658C68.0281 81.3721 66.991 80.9255 65.5446 80.8462C64.5397 80.7901 63.5763 80.9216 62.69 81.2455C62.3101 81.3843 61.8881 81.1884 61.7492 80.8035C61.6104 80.4236 61.8063 80.0016 62.1912 79.8627C63.27 79.4719 64.4311 79.304 65.634 79.3794C67.5371 79.487 68.9405 80.1348 69.8137 81.2976C71.167 83.1125 70.6354 85.4744 70.6156 85.5759C70.5309 85.9061 70.2327 86.1359 69.8978 86.1375Z" fill="#4A3333"/>
<path d="M99.2198 107.398C98.6528 109.775 96.8096 128.531 91.103 133.044C88.0854 135.428 81.2619 134.501 78.1217 133.527C68.4419 130.524 64.6144 122.709 64.7347 114.986C64.7347 114.986 57.04 109.082 62.5001 102.901C66.2193 98.6923 70.3689 105.973 70.3689 105.973C70.3689 105.973 72.8581 103.44 75.6481 96.9677C81.2281 98.8538 94.1659 98.8222 98.5397 94.6408C98.5346 94.6357 100.145 103.497 99.2198 107.398Z" fill="#E7926B"/>
<path d="M82.4023 107.818C82.1827 107.505 81.8975 107.298 81.5423 107.275C81.5016 107.265 81.461 107.26 81.4255 107.255C81.4102 107.25 81.4001 107.245 81.3848 107.245C81.3696 107.245 81.3595 107.245 81.3442 107.245C80.121 107.144 79.4893 108.725 79.9001 109.753C79.9317 109.987 80.0139 110.209 80.1872 110.371C80.3605 110.533 80.5842 110.628 80.8228 110.662C80.8432 110.677 80.8585 110.692 80.8788 110.697C81.4227 110.908 81.868 110.657 82.1703 110.219C82.7967 109.643 82.9183 108.562 82.4023 107.818Z" fill="#1A1A1A"/>
<path d="M97.5588 110.186C97.1848 109.432 96.2499 109.147 95.5214 109.582C95.4556 109.623 95.4 109.669 95.3444 109.715C95.1524 109.873 95.0215 110.092 94.9872 110.351C94.9823 110.381 94.9774 110.412 94.9775 110.442C94.9776 110.452 94.9726 110.462 94.9726 110.468C94.9596 110.929 94.9567 111.396 95.1566 111.821C95.5411 112.641 96.6018 112.712 97.2384 112.151C97.7892 111.672 97.8765 110.829 97.5588 110.186Z" fill="#1A1A1A"/>
<path d="M89.5709 119.286C89.5841 118.865 89.2373 118.491 88.8161 118.483C88.4001 118.475 87.984 118.467 87.5679 118.459C87.1467 118.451 86.778 118.792 86.7648 119.213C86.7516 119.635 87.0984 120.008 87.5196 120.017C87.9356 120.025 88.3517 120.033 88.7678 120.041C89.189 120.049 89.5577 119.707 89.5709 119.286Z" fill="#D25C48"/>
<path d="M85.0683 102.875C83.9842 102.96 82.8919 102.875 81.8124 103.022C80.7151 103.172 79.6399 103.455 78.5448 103.645C77.5593 103.814 77.7438 105.367 78.7358 105.194C79.8261 105.003 80.9032 104.715 82.0034 104.571C83.0859 104.431 84.1752 104.51 85.2594 104.424C86.2616 104.342 86.0706 102.792 85.0683 102.875Z" fill="#4A3333"/>
<path d="M99.1889 106.805C98.6354 106 97.8995 105.629 97.0312 105.243C96.1181 104.84 95.3825 106.212 96.3025 106.624C96.8754 106.877 97.4901 107.081 97.8558 107.619C98.4232 108.442 99.7573 107.633 99.1889 106.805Z" fill="#4A3333"/>
<path d="M82.0164 122.635C83.6005 123.927 85.3294 124.74 87.3851 124.903C88.5778 124.999 88.3632 126.781 87.1808 126.741C84.8769 126.655 82.5593 125.824 80.852 124.244C79.9398 123.401 81.0078 121.813 82.0164 122.635Z" fill="#1A1A1A"/>
<path d="M71.5602 255.145L83.7986 261.621L115.385 274.783C114.693 270.21 113.589 264.3 112.777 258.875C112.635 257.911 112.493 256.882 112.366 255.832L105.739 257.655L93.077 257.097L71.5602 255.145Z" fill="#1A1A1A"/>
<path d="M71.1234 255.066C71.5363 255.47 72.2981 255.634 72.7809 255.804C75.3018 256.7 77.8527 257.52 80.4136 258.304C83.9044 259.368 87.4201 260.346 90.9756 261.161C94.2517 261.911 97.5935 262.585 100.963 262.752C134.706 264.401 175.218 261.964 176.701 261.064C179.043 259.643 200.297 218.383 203.374 209.469C203.66 208.635 203.774 208.127 203.687 207.991C202.65 206.453 130.183 207.831 128.646 208.863C127.108 209.9 102.317 258.336 99.3348 259.634C98.3323 260.07 97.1347 260.03 96.0638 259.949C94.5107 259.83 92.9718 259.522 91.4531 259.17C89.1014 258.623 86.7845 257.939 84.4826 257.224C82.1097 256.49 79.9326 255.318 77.6147 254.431C75.9017 253.775 74.0881 253.296 72.2568 253.371C71.8561 253.388 71.4251 253.446 71.1322 253.721C70.9049 253.936 70.7948 254.266 70.8471 254.575C70.8886 254.773 70.9858 254.935 71.1234 255.066Z" fill="#E4EFFB"/>
<path d="M71.8052 253.343C80.5784 253.483 103.93 252.93 103.93 252.93C111.578 239.529 125.146 215.506 128.393 209.123C128.992 207.943 129.889 208.872 129.428 210.148C126.318 218.672 103.195 259.357 101.917 260.652C101.407 261.167 99.8479 260.814 98.3201 260.669C93.178 260.181 88.5435 258.661 79.7945 256.13C77.8892 255.581 71.8052 253.343 71.8052 253.343Z" fill="#86A2B7"/>
<path d="M159.569 258.351C159.145 257.668 158.382 257.261 157.313 257.56C156.963 257.658 156.614 257.853 156.253 257.778C155.426 257.61 155.506 256.427 155.299 255.611C154.979 254.365 153.352 253.667 152.223 254.292C151.717 254.573 151.349 255.047 150.91 255.424C150.47 255.802 149.868 256.089 149.319 255.899C148.892 255.749 148.616 255.339 148.264 255.046C147.541 254.441 146.419 254.37 145.625 254.876C144.892 255.342 144.424 256.232 143.588 256.479C142.712 256.737 141.801 256.173 140.888 256.173C139.35 256.17 138.292 257.651 137.43 258.919C136.498 260.288 135.464 261.607 134.186 262.653C132.382 264.123 129.592 264.35 127.381 264.67C126.509 264.796 118.425 263.328 118.373 264.165C122.733 265.499 128.895 268.224 133.452 268.289C134.751 268.308 136.075 268.276 137.325 268.635C138.127 268.87 138.901 269.262 139.733 269.284C140.971 269.313 142.093 268.521 143.326 268.409C145.065 268.253 146.771 269.463 148.474 269.079C149.046 268.95 149.568 268.648 150.135 268.508C151.286 268.224 152.525 268.624 153.66 268.288C154.724 267.974 155.496 267.072 156.203 266.216C157.554 264.581 158.967 262.885 159.749 260.892C160.08 260.069 160.004 259.064 159.569 258.351Z" fill="#E7926B"/>
<path d="M132.24 264.261C134.163 262.131 135.989 260.006 137.541 257.579C138.205 256.535 139.713 257.68 139.073 258.718C137.543 261.201 135.773 263.605 133.652 265.619C132.844 266.384 131.483 265.097 132.24 264.261Z" fill="#DC815C"/>
<path d="M27.6367 294.2L43.9014 274.806L28.7253 276.802C28.433 281.451 28.0655 287.343 27.6367 294.2Z" fill="#1A1A1A"/>
<path d="M-6.66405 235.474C-4.20446 237.349 16.3784 258.261 19.0802 259.877C20.4999 260.727 22.2745 261.541 23.9729 261.274C24.7689 261.148 25.4393 261.292 26.2304 261.207C27.199 261.101 28.1309 260.762 28.9964 260.321C30.1959 259.707 31.2778 258.895 32.3852 258.123C32.9364 257.735 33.513 257.357 34.1667 257.186C35.7072 256.788 37.269 257.648 38.6327 258.474C40.261 259.461 41.8842 260.447 43.5126 261.439C43.8993 261.676 44.3064 261.927 44.5316 262.322C45.4373 263.926 42.4413 264.473 41.466 264.229C39.4544 263.726 37.3515 262.164 36.3037 262.691C35.256 263.219 33.6391 264.612 33.6662 264.967C33.6933 265.322 37.359 264.782 38.4142 265.827C39.7193 267.119 48.6895 273.439 44.4617 275.281C43.4137 275.737 42.0513 275.201 41.1363 275.885C40.2263 276.569 40.3198 278.081 39.4251 278.79C38.2272 279.735 36.2175 278.567 35.0297 279.522C34.5243 279.925 34.3347 280.596 33.9669 281.125C33.2311 282.174 31.8529 282.561 30.5745 282.587C29.296 282.614 28.0213 282.351 26.7431 282.428C25.3431 282.511 23.9806 282.994 22.5804 283.016C20.0741 283.054 17.8045 281.634 15.7076 280.269C14.6693 279.594 1.35434 270.804 1.23216 270.719C-41.0739 240.778 -10.2953 241.082 -6.66405 235.474Z" fill="#EA9169"/>
<path d="M21.4752 276.847C21.9445 275.252 22.1759 273.784 22.0817 272.125C22.0207 271.04 21.9241 269.934 22.2945 268.887C23.2357 266.25 26.4452 265.788 26.013 262.421C25.8812 261.387 27.7014 261.124 27.8433 262.164C28.1848 264.587 27.4422 266.326 25.5877 267.897C22.9549 270.122 24.5944 274.503 23.1071 277.524C22.665 278.434 21.1906 277.807 21.4752 276.847Z" fill="#DC815C"/>
<path d="M-45.8876 219.817C-45.8974 220.948 -45.8159 222.074 -45.6177 223.194C-44.8407 227.579 -42.3867 231.48 -39.625 234.972C-36.8685 238.465 -33.748 241.687 -31.3099 245.415C-30.4359 246.745 -29.6581 248.136 -28.7487 249.446C-26.8327 252.222 -24.3706 254.616 -21.5459 256.454C-20.416 257.189 -19.1694 257.934 -18.4686 259.128C-17.911 260.079 -17.6268 261.154 -16.9679 262.069C-15.5224 264.081 -13.0359 265.221 -10.6792 265.732C-5.95579 266.755 1.1058 261.252 4.74388 254.948C8.38196 248.644 8.12009 244.815 6.73711 242.087C4.66261 237.987 -1.3906 235.814 -1.3906 235.814C-5.59394 233.216 -11.1011 224.292 -10.825 223.667C-10.1324 222.091 -7.05275 221.016 -5.70026 220.558C-3.16753 219.698 -0.580136 216.484 1.80376 215.27C1.81894 215.26 1.83922 215.255 1.8544 215.245C2.01639 215.168 2.17833 215.086 2.34037 215.019C4.33004 214.122 6.53531 213.746 8.67903 213.233C9.07938 213.135 9.46959 213.037 9.85975 212.928C11.0708 212.598 12.2458 212.171 13.3337 211.547C15.3526 210.39 16.9269 208.597 18.7874 207.203C20.9562 205.579 23.4791 204.765 26.0667 205.823C26.1829 205.721 26.334 205.492 26.4808 205.436C28.1973 204.692 30.1021 201.989 31.4406 200.714C34.0518 198.236 36.663 195.752 39.2742 193.274C41.6733 190.989 44.0724 188.71 46.4714 186.425C46.9866 185.931 49.4646 184.229 49.5473 183.488C49.6302 182.803 46.8778 146.3 46.8778 146.3C46.8778 146.3 30.528 152.153 21.6414 155.858C12.6231 159.621 4.49952 166.91 -2.98027 173.024C-4.38021 174.167 -5.78014 175.311 -7.18013 176.444C-8.5498 177.551 -9.9195 178.654 -11.2994 179.741C-11.5723 179.961 -11.8402 180.175 -12.1132 180.389C-14.3523 182.161 -16.6119 183.907 -18.9021 185.617C-19.0134 185.694 -19.1144 185.781 -19.2257 185.862C-24.7616 189.983 -30.8809 193.072 -35.9576 197.754C-38.7712 200.35 -41.3643 203.437 -42.9911 206.992C-43.8447 208.858 -44.201 210.737 -44.6737 212.687C-45.2508 215.07 -45.864 217.33 -45.8876 219.817Z" fill="#6A2E1C"/>
<path d="M16.771 159.129C25.2718 169.149 30.0926 182.009 30.3129 195.148C30.3209 195.762 29.3772 195.762 29.3641 195.153C29.0588 182.267 24.3309 169.732 16.0793 159.827C15.6761 159.347 16.3577 158.649 16.771 159.129Z" fill="#301107"/>
<path d="M24.0493 204.103C26.9559 202.927 30.0239 202.598 33.1306 202.928C34.156 203.035 34.0428 204.821 32.9973 204.75C30.1196 204.556 27.3972 205.005 24.6926 206.008C23.472 206.465 22.8542 204.586 24.0493 204.103Z" fill="#301107"/>
</g>
<path d="M178 259.5C180.5 259.5 182.203 261.808 184 266C197.5 297.5 213.757 300.928 237 268C241.941 261 254.5 232.5 254.5 220" stroke="#522C00"/>
</g>
<defs>
<filter id="filter0_d_1032_35225" x="149.949" y="54.2898" width="27.2112" height="27.2113" filterUnits="userSpaceOnUse" color-interpolation-filters="sRGB">
<feFlood flood-opacity="0" result="BackgroundImageFix"/>
<feColorMatrix in="SourceAlpha" type="matrix" values="0 0 0 0 0 0 0 0 0 0 0 0 0 0 0 0 0 0 127 0" result="hardAlpha"/>
<feOffset/>
<feGaussianBlur stdDeviation="5.5"/>
<feComposite in2="hardAlpha" operator="out"/>
<feColorMatrix type="matrix" values="0 0 0 0 1 0 0 0 0 0.642833 0 0 0 0 0.642833 0 0 0 1 0"/>
<feBlend mode="color-dodge" in2="BackgroundImageFix" result="effect1_dropShadow_1032_35225"/>
<feBlend mode="normal" in="SourceGraphic" in2="effect1_dropShadow_1032_35225" result="shape"/>
</filter>
<filter id="filter1_d_1032_35225" x="121.821" y="84.1455" width="23.3145" height="36.7413" filterUnits="userSpaceOnUse" color-interpolation-filters="sRGB">
<feFlood flood-opacity="0" result="BackgroundImageFix"/>
<feColorMatrix in="SourceAlpha" type="matrix" values="0 0 0 0 0 0 0 0 0 0 0 0 0 0 0 0 0 0 127 0" result="hardAlpha"/>
<feOffset/>
<feGaussianBlur stdDeviation="5.5"/>
<feComposite in2="hardAlpha" operator="out"/>
<feColorMatrix type="matrix" values="0 0 0 0 1 0 0 0 0 0.642833 0 0 0 0 0.642833 0 0 0 1 0"/>
<feBlend mode="color-dodge" in2="BackgroundImageFix" result="effect1_dropShadow_1032_35225"/>
<feBlend mode="normal" in="SourceGraphic" in2="effect1_dropShadow_1032_35225" result="shape"/>
</filter>
<filter id="filter2_d_1032_35225" x="-57.8882" y="69.3663" width="273.604" height="506.806" filterUnits="userSpaceOnUse" color-interpolation-filters="sRGB">
<feFlood flood-opacity="0" result="BackgroundImageFix"/>
<feColorMatrix in="SourceAlpha" type="matrix" values="0 0 0 0 0 0 0 0 0 0 0 0 0 0 0 0 0 0 127 0" result="hardAlpha"/>
<feOffset dy="8"/>
<feGaussianBlur stdDeviation="6"/>
<feComposite in2="hardAlpha" operator="out"/>
<feColorMatrix type="matrix" values="0 0 0 0 0 0 0 0 0 0 0 0 0 0 0 0 0 0 0.25 0"/>
<feBlend mode="normal" in2="BackgroundImageFix" result="effect1_dropShadow_1032_35225"/>
<feBlend mode="normal" in="SourceGraphic" in2="effect1_dropShadow_1032_35225" result="shape"/>
</filter>
<clipPath id="clip0_1032_35225">
<rect width="276" height="276" fill="white"/>
</clipPath>
</defs>
</svg>
