<?xml version="1.0" encoding="utf-8"?>
<!-- Generator: Adobe Illustrator 24.2.1, SVG Export Plug-In . SVG Version: 6.00 Build 0)  -->
<svg version="1.1" id="Layer_1" xmlns="http://www.w3.org/2000/svg" xmlns:xlink="http://www.w3.org/1999/xlink" x="0px" y="0px"
	 viewBox="0 0 276 276" style="enable-background:new 0 0 276 276;" xml:space="preserve">
<style type="text/css">
	.st0{clip-path:url(#SVGID_2_);}
	.st1{fill:#D3E8FF;}
	.st2{clip-path:url(#SVGID_4_);}
	.st3{opacity:0.14;fill:#FFFFFF;enable-background:new    ;}
	.st4{opacity:0.6;fill:#FFFFFF;enable-background:new    ;}
	.st5{fill:#B1CCDD;}
	.st6{fill:#2D1B0F;}
	.st7{fill:#FFFFFF;}
	.st8{fill:#FF917B;}
	.st9{fill:#F47567;}
	.st10{fill:#434343;}
	.st11{fill:#333333;}
	.st12{fill:#DB4242;}
	.st13{opacity:0.1;fill:#FFFFFF;enable-background:new    ;}
	.st14{fill-rule:evenodd;clip-rule:evenodd;fill:#9E0000;}
	.st15{fill:#A53016;}
	.st16{fill:#7E2417;}
	.st17{fill:#F25A38;}
	.st18{fill:#1A1A1A;}
	.st19{fill:#0787C6;}
	.st20{fill:#015E8C;}
	.st21{fill:#005680;}
	.st22{fill:none;stroke:#7E2417;}
	.st23{fill:#00F30A;}
</style>
<g>
	<defs>
		<rect id="SVGID_1_" width="276" height="276"/>
	</defs>
	<clipPath id="SVGID_2_">
		<use xlink:href="#SVGID_1_"  style="overflow:visible;"/>
	</clipPath>
	<g class="st0">
		<rect class="st1" width="276" height="276"/>
		<g>
			<defs>
				<rect id="SVGID_3_" x="-56" y="-14" width="551" height="305"/>
			</defs>
			<clipPath id="SVGID_4_">
				<use xlink:href="#SVGID_3_"  style="overflow:visible;"/>
			</clipPath>
			<g class="st2">
				<path class="st3" d="M214.7-10.6H-53.1v297.1h267.7V-10.6z"/>
				<path class="st4" d="M39.1,281.2H18.3L129.7-7.2h20.8L39.1,281.2z"/>
				<path class="st4" d="M2.4,281.2H-8L103.4-7.2h10.4L2.4,281.2z"/>
				<path class="st4" d="M126.5,281.2h-10.4l95.5-257.4v20.7L126.5,281.2z"/>
				<path class="st3" d="M482.5-10.6H214.7v297.1h267.8V-10.6z"/>
				<path class="st4" d="M270.2,281.2h-10.4L371.2-7.2h10.4L270.2,281.2z"/>
				<path class="st5" d="M39.1-12.5h-5.9v301.3h5.9V-12.5z"/>
				<path class="st5" d="M136-12.5h-5.9v301.3h5.9V-12.5z"/>
				<path class="st5" d="M232.8-14H227v304.4h5.9V-14z"/>
				<path class="st5" d="M-56,39.6V43h551v-3.4H-56z"/>
				<path class="st5" d="M-56,130.3v3.4h551v-3.4H-56z"/>
				<path class="st5" d="M-56,220.9v3.4h551v-3.4H-56z"/>
			</g>
		</g>
		<g>
			<path class="st6" d="M246.4,185.2c-0.7,4.2,1.3,5.8-4.1,11.8c-5.4,6,7.7,6.9,8.5,11.6c0.8,4.7-0.1,11.2-8.5,14.1
				c-8.3,2.9-80.1,13.7-87.4,2.1s1.7-19.7,4.9-22.3c3.2-2.6-4.5-4.1-4.5-12.6c0.1-6.9,6.9-8,4.8-11.8c-2.1-3.8-2.7-3.6-1.8-9
				c1.4-8.6,13.2-10.8,12.4-21.4c0,0,0,0,0,0c-0.6-7,3.6-14.8,2.8-28.6c0,0,2.5-7,10.7-9c10.7-2.6,22.1-2.7,22.1-2.7
				c15.8,10.1,21.5,2.2,23.2,11.7c-0.7,9.2,5.3,19.5,3.5,26.9c0.6,9.6,2.4,10.1,6.2,13.1c3.8,3,4.4,9.4-2.3,13.5
				C230.2,176.6,247.8,176.4,246.4,185.2z"/>
			<path class="st7" d="M236.4,219.7l-16.8-20.6l-41.9-3.1L163,279l67.3,0.5L236.4,219.7z"/>
			<path class="st8" d="M222.5,200.7c0,0-25.9,32.5-30.5,32.5c-4.7,0-13.9-37.5-13.9-37.5s5-0.4,8.2-4.2c1.1-1.3,1.9-3.5,2.4-6.1
				c1.7-8.1,1.1-19.9,1.1-19.9l26.5-4.7c-0.5,0-4.3,11.4-3.8,22.2C212.8,190.6,215.2,197.9,222.5,200.7z"/>
			<path class="st7" d="M198.3,219c4.1-0.3,10-6.5,10-6.6c0.5-0.5,1-1,1.4-1.5c3.5-3.6,5.8-6,7.7-14.1c0.1-0.3-0.1-0.6-0.5-0.7
				c-0.3-0.1-0.7,0-1,0.2c-5.2,5.5-14.3,13.5-18.4,12.9c-3.5-0.5-11.9-10-14.6-15.1c-0.2-0.3-0.7-0.5-1.1-0.3
				c-0.4,0.2-0.6,0.5-0.4,0.9c2.3,4.3,11,15.2,15.7,15.8c5,0.7,13.7-7.2,17.8-11.3c-1.7,5.7-3.7,7.7-6.7,10.8
				c-0.5,0.5-0.9,1-1.4,1.5c-2.3,2.4-6.5,5.9-8.9,6c0,0-0.1,0-0.1,0c-2.5,0.1-4.9-1.6-7.2-4.9c-4.6-6.7-7.8-13.4-9.2-17
				c-0.1-0.3-0.6-0.5-1-0.4c-0.4,0.1-0.7,0.5-0.5,0.8c1.4,3.7,4.7,10.5,9.3,17.2c2.6,3.8,5.5,5.7,8.6,5.6
				C198.2,219,198.2,219,198.3,219z"/>
			<path class="st9" d="M212.4,183c-7.1,2.1-16.5,3.9-23.8,2.4c1.7-8.1,1.1-19.9,1.1-19.9l26.5-4.7
				C215.8,160.8,211.9,172.2,212.4,183z"/>
			<path class="st9" d="M231.8,146.4c0.2,3.4-1.2,6.9-3.2,7.9c-2,1-3.9-0.9-4.1-4.2c-0.2-3.4,1.2-6.9,3.2-7.9
				C229.7,141.1,231.5,143,231.8,146.4z"/>
			<path class="st9" d="M181,150.6c-0.3,3.2-3,5.1-6,4.2c-3-0.9-5.2-4.2-4.9-7.4c0.3-3.2,3-5.1,6-4.2
				C179.1,144.1,181.3,147.4,181,150.6z"/>
			<path class="st8" d="M226.9,144.4c-1,19.7-12.7,36.9-28.1,36.9c-14.6,0-24.4-20.9-23.3-40.6c1-19.7,13.4-34.9,27.6-33.9
				C217.2,107.8,227.9,124.6,226.9,144.4z"/>
			<path class="st6" d="M226.5,183.5c1-66.5-12.5-58-36.5-65c-6.5-1.5-19.6,4-13.5,48.5c-21.4,7-13.9-4-12-14.5
				c2-10.6-4.7-32.2,0-38c19.5-24,41.7-17.3,57-5.5c8.6,6.5,11.6,13.4,12,23C233.9,141.3,230.2,174.2,226.5,183.5z"/>
			<g>
				<path class="st10" d="M203.5,98.9c-8.3-0.4-18.2-2.4-27.8,6.6c-5.7,5.4-6.8,7.5-7,14.8c-2.1-9.8,3.2-17.9,11.8-21.3
					C189.4,95.7,197.1,95.3,203.5,98.9z"/>
			</g>
			<path class="st11" d="M214.2,145c0,1.1-0.7,2-1.5,2c-0.8,0-1.5-0.9-1.5-2c0-1.1,0.7-2,1.5-2C213.6,143,214.2,143.9,214.2,145z"/>
			<path class="st11" d="M190.8,145c0,1.1-0.7,2-1.5,2s-1.5-0.9-1.5-2c0-1.1,0.7-2,1.5-2S190.8,143.9,190.8,145z"/>
			<path class="st7" d="M207.9,162.7c-0.4,0.1-13.8,0.6-13.8,0.6s1,7.8,6.5,7.7C206.3,170.9,207.9,162.7,207.9,162.7z"/>
			<path class="st12" d="M201.4,154.3c-0.3,0-0.6-0.2-0.6-0.4c-0.3-2.7-0.4-5.4-0.2-8.1c0-0.3,0.3-0.5,0.6-0.5
				c0.3,0,0.6,0.2,0.6,0.5c-0.2,2.6-0.1,5.3,0.2,8C202,154,201.8,154.3,201.4,154.3C201.5,154.3,201.4,154.3,201.4,154.3z"/>
			<path class="st6" d="M219.4,137.5c-0.2,0-0.4-0.1-0.6-0.2c-1.3-1.4-3.6-1.8-5.4-1.1c-0.4,0.2-0.9,0-1-0.4c-0.2-0.4,0-0.9,0.4-1
				c2.4-1,5.3-0.4,7.1,1.5c0.3,0.3,0.3,0.8,0,1.1C219.8,137.4,219.6,137.5,219.4,137.5z"/>
			<path class="st6" d="M183.2,136.7c-0.2,0-0.4-0.1-0.6-0.2c-0.3-0.3-0.3-0.8,0-1.1c2.2-2.1,5.8-2.6,8.5-1.2
				c0.4,0.2,0.5,0.7,0.3,1.1c-0.2,0.4-0.7,0.5-1.1,0.3c-2.1-1.1-5-0.7-6.7,0.9C183.6,136.6,183.4,136.7,183.2,136.7z"/>
			<path class="st13" d="M198.5,144.5c0,4.4-4,10.5-9,10.5c-8.5,0-11.5-6.6-11.5-11s5-5.5,10-5.5S198.5,140.1,198.5,144.5z"/>
			<path class="st13" d="M204,144.5c0,4.4,4,10.5,9,10.5c8.5,0,11.5-6.6,11.5-11s-5-5.5-10-5.5S204,140.1,204,144.5z"/>
			<path class="st14" d="M186.5,136.9c-2.9,0.1-6.3,0.6-9.1,2c-2.3,1.1-2.7,3-2.1,5.5c0.5,1.8,2,4.4,3.4,6.3
				c3.1,4.9,7.9,6.5,12.1,5.7c5.6-1,8.4-6.4,8.7-11.3c0.1-1,0-1.9-0.3-2.7c1.7-0.7,3.4-0.3,4.4,0.1c-0.3,0.8-0.4,1.7-0.3,2.6
				c0.3,4.9,3.1,10.3,8.7,11.3c4.2,0.8,9.1-0.9,12.1-5.7c1.4-2,2.9-4.6,3.4-6.3c0.6-2.5,0.2-4.4-2.1-5.5c-2.8-1.3-6.3-1.9-9.1-2
				l0,0.1c-0.6,0-1.1-0.1-1.6-0.1c-2,0-6.9,0.3-9.6,3.2c-0.1,0.1-0.1,0.1-0.2,0.2c-0.9-0.4-3.7-1.3-7.1-0.3
				c-2.7-2.8-7.5-3.1-9.5-3.1C187.6,136.9,187.1,136.9,186.5,136.9L186.5,136.9z M197.4,145c-0.2,3.8-2.2,8.6-7,9.4
				c-3.1,0.6-6.9-0.4-9.6-4.2c-2.1-3.6-2.9-8.6,2-10.5c0.5-0.1,1.1-0.3,1.6-0.4c1.3-0.2,2.5-0.3,3.7-0.3c3.6,0,6.6,1,8.1,2.6
				C197.1,142.5,197.5,143.6,197.4,145z M212.2,154.4c-4.7-0.9-6.7-5.6-7-9.4c-0.1-1.4,0.3-2.5,1.2-3.4c1.5-1.6,4.5-2.5,8.1-2.6
				c1.2,0,2.4,0.1,3.7,0.3c0.5,0.1,1.1,0.2,1.6,0.4c4.9,1.9,4.1,6.9,2,10.5C219.2,154,215.3,155,212.2,154.4z"/>
			<path class="st15" d="M181,194.4c0,0-8.7,51-11.7,84.3l-26.1,0.5l-25.7,0.5c0,0,26.5-69.2,34.9-76.2c0.8-0.7,1.7-1.3,2.7-1.9
				C164.5,196.3,181,194.4,181,194.4z"/>
			<path class="st16" d="M181,194.4c0,0-10,52.6-11.7,84.3c-4.8-25.7-17.8-52.7-17.8-52.7S167.5,217.5,181,194.4z"/>
			<path class="st17" d="M181,194.4c0,0-10,52.6-11.7,84.3c-3.3-30.2-16.3-56.2-16.3-56.2S167.5,217.5,181,194.4z"/>
			<path class="st15" d="M152.4,203.5c0.8-0.7,1.7-1.3,2.7-1.9c-2.3,6-4.9,14.3-5.9,22c-1.3,10.4-4.5,41.1-6,55.5l-25.7,0.5
				C117.6,279.7,144,210.5,152.4,203.5z"/>
			<g>
				<path class="st15" d="M84.4,252.8c4.8,4.4,9.6,8.8,14.5,13.1c3.9,3.5,7.8,6.9,11.9,10.1c1.4,1.1,3.3,3,5.2,3
					c3.8,0.1,8-0.4,11.7-1.2c1.8-0.4,3.9-0.9,5.5,0.1c1.2,0.8,1.8,2.3,2.1,3.7c2.1,8.4,0.2,17.7-5,24.6c-2.4,3.1-5.5,5.8-9.2,7.2
					c-3.7,1.4-8,1.2-11.4-0.8c-4.1-2.5-7.4-6-11.8-8.2c-4.8-2.3-5.8-7.4-9.4-11c-2.3-2.3-5.3-3.7-8-5.3c-1.8-1.1-5.6-3-6.5-5
					C73,281,84.4,252.8,84.4,252.8z"/>
				<path class="st8" d="M89.2,257.2c0,0-19-16.7-25.5-26.5c-6.5-9.8-5.6,18.9-5.6,18.9L83,272.9C83,272.9,89.6,259.3,89.2,257.2z"
					/>
				<path class="st18" d="M86.2,259.1l-11.1-2.9c-0.1,0.2,0.8,2.2,0.3,4.4c-1.3,6.6-3.4,21.3-1.5,22.5c2,1.3,4.8-2.2,7.9-8.1
					c2.5-4.9,4.9-10.4,6.1-13.6C87.4,260.6,86.8,259.8,86.2,259.1z"/>
				<path class="st19" d="M40.1,249.1c1.5,1.8,3.9,2.6,6.1,2.2l35.7-7.2c1.8-0.4,2.5-2.5,1.4-3.9l-40.9-48.4c-1.6-1.8-4-2.7-6.4-2.1
					L1.8,198c-1.7,0.4-2.4,2.5-1.3,3.9L40.1,249.1z"/>
				
					<ellipse transform="matrix(0.7004 -0.7138 0.7138 0.7004 -146.7045 95.5864)" class="st20" cx="40.5" cy="222.5" rx="3.2" ry="4.5"/>
				<path class="st20" d="M79.8,239.1c-13.2-14.4-25.9-29.4-38.3-44.5c-1-1.2-2.1,0.3-1.1,1.5c12.6,15.2,24.4,30.3,38.2,44.3
					C79.7,241.5,80.9,240.2,79.8,239.1z"/>
				<path class="st20" d="M5.6,201.1c9.7-2.7,19.4-4.9,29.1-6.9c0.8-0.2,0.6-1.4-0.2-1.2c-9.8,2.1-19.2,3.7-28.9,6.9
					C4.7,200.1,4.8,201.3,5.6,201.1z"/>
				<path class="st21" d="M55.9,253.1c0,0-1.5-1.1-1.9-1.9c-0.3-0.6-0.5-1.2-0.9-1.6c-0.1-0.1-0.2-0.2-0.3-0.2
					c-0.2-0.1-0.5-0.1-0.7-0.3c-0.2-0.1-0.3-0.4-0.3-0.6c-1.5-4.4-4-8.3-6.9-11.9c-1.7-2.1-3.7-4.2-4.3-6.9c0.6-0.6,1.6-0.6,2.4-0.3
					c0.8,0.3,1.4,1,2,1.6c1,1.1,2.1,2.2,3.1,3.2c0.8,0.8,1.6,1.6,2.3,2.4c0,0,0.1,0.1,0.1,0.1c-0.2-0.2-0.3-0.9-0.3-1.4
					c0-0.2,0-0.3-0.1-0.4c-0.2-0.7-0.3-1.4-0.5-2.2c-0.2-1.1-0.8-2.5-0.8-3.6c0-0.5,0.2-0.9,0.5-1.1c0.5-0.3,1.2,0.2,1.6,0.6
					c1.6,1.6,2.7,3.8,3.5,5.9c0.6,1.6,1.1,3.3,1.7,5c0.2,0.5,0.4,1.1,0.6,1.6c0.1,0.3,0.3,0.6,0.6,0.5c0.1,0,0.2-0.2,0.2-0.3
					c0.1-0.2,0.2-0.3,0.2-0.5c0.6-1.4,1-2.9,1.1-4.4c0.1-0.8,0.1-1.5,0.4-2.2c0.3-0.7,1-1.2,1.7-1c0.5,0.2,0.9,0.7,1.2,1.3
					c0.3,0.7,0.5,1.4,0.6,2.2c0,0.3,0.1,0.6,0.3,0.8c0.3,0.4,0.9,0.3,1.4,0.3c0.7,0.1,1.3,0.7,1.6,1.4c0.3,0.7,0.4,1.5,0.5,2.2
					c0.2,1.5,0.6,4.6,0.6,4.6L55.9,253.1z"/>
				<path class="st8" d="M88.9,259.1c-0.6,1.4-3.6,9.2-7.1,15.9c-2.2-2.5-4.2-5.2-4.6-5.9c-1.2-1.7-3-3.7-4.5-5.4
					c-0.5-0.6-1-1.1-1.4-1.7c-1.8-2.2-3.4-3.5-6.1-4.3c-2.3-0.7-4.6-0.5-6.7-1.8c-1.7-1-2.9-2.5-4.8-3.4c-0.8-0.4-1.5-1.1-1.9-1.9
					c-0.3-0.6-0.5-1.2-0.9-1.6c-0.1-0.1-0.2-0.1-0.3-0.2c-0.2-0.1-0.5-0.1-0.7-0.3c-0.2-0.1-0.3-0.4-0.3-0.6
					c-1.5-4.4-4.1-8.3-7.1-11.9c-1.8-2.1-3.8-4.2-4.4-6.8c0.6-0.6,1.7-0.7,2.5-0.3c0.8,0.3,1.5,1,2.1,1.6c1.1,1.1,2.2,2.1,3.3,3.2
					c0.8,0.8,1.6,1.6,2.4,2.4c0,0,0.1,0.1,0.1,0.1c-0.2-0.2-0.3-0.9-0.3-1.4c0-0.2,0-0.3-0.1-0.5c-0.2-0.7-0.3-1.4-0.5-2.2
					c-0.2-1.1-0.8-2.5-0.8-3.6c0-0.5,0.2-0.9,0.6-1.1c0.6-0.3,1.3,0.2,1.7,0.6c1.7,1.6,2.8,3.7,3.6,5.9c0.6,1.6,1.1,3.3,1.7,5
					c0.2,0.5,0.4,1.1,0.6,1.6c0.1,0.3,0.3,0.6,0.6,0.5c0.1,0,0.2-0.2,0.3-0.3c0.1-0.2,0.2-0.3,0.2-0.5c0.7-1.4,1.1-2.9,1.3-4.5
					c0.1-0.8,0.1-1.5,0.5-2.2c0.3-0.7,1.1-1.2,1.8-1c0.6,0.2,1,0.7,1.2,1.2c0.3,0.7,0.5,1.4,0.6,2.2c0,0.3,0.1,0.6,0.3,0.8
					c0.4,0.4,1,0.3,1.5,0.3c0.8,0.1,1.4,0.7,1.7,1.4c0.3,0.7,0.4,1.5,0.5,2.2c0.2,1.5,0.4,3.1,0.6,4.6c0.2,1.9,0.8,2.7,2.5,3.3
					c5.2,1.9,10.4,3.8,15.6,5.7c0.5,0.2,1.1,0.4,1.4,0.9c0.3,0.3,1.8,2.2,3,3.7C88.8,259,88.9,259,88.9,259.1z"/>
				<path class="st9" d="M62.3,238.8c0.1-1.3-1.8-1.4-2-0.1c-0.4,1.9-0.8,3.7-1.5,5.5c-0.5,1.3-1.7,2.8-2,4.2
					c-0.5,2.1,2.4,3.9,3.7,5.2c0.9,0.9,2.3-0.4,1.4-1.3c-0.8-0.9-2.4-2-2.7-3.1c-0.3-0.9,0.7-2.1,1.2-3.1
					C61.4,243.8,62.1,241.3,62.3,238.8z"/>
				<path class="st9" d="M71.8,245.6c-2.2-0.6-4.3,0-6.3,0.9c0.6-1.2,0.9-2.7,0.7-4c-0.1-0.5-0.9-0.5-0.9,0.1c0,1.7-0.7,3.1-1.3,4.7
					c0,0,0,0,0,0c-0.9,0.6,0,2.1,1.1,1.6c2-1,4-1.8,6.3-1.3C72.5,247.8,72.9,245.9,71.8,245.6z"/>
				<path class="st9" d="M56.2,240.3c-0.2,0.7-0.4,1.3-0.8,2c-0.5,1-1.3,1.7-1.8,2.6c-0.5,0.9-0.6,1.9-0.7,2.9
					c-0.2,1.2-1.8,1.1-1.9-0.1c-0.1-1.7,0.3-3.2,1.4-4.6c1-1.3,1.7-2.6,2.1-4.1c0.2,0.5,0.4,1.1,0.6,1.6c0.1,0.3,0.3,0.6,0.6,0.5
					c0.1,0,0.2-0.2,0.3-0.3C56.1,240.6,56.2,240.5,56.2,240.3z"/>
				<path class="st9" d="M50.5,244.8c0.3,1.2-1.6,1.6-1.9,0.4c-1-3.8-1.8-7.6-2.7-11.4c0.8,0.8,1.6,1.6,2.4,2.4c0,0,0.1,0.1,0.1,0.1
					c-0.2-0.2-0.3-0.9-0.3-1.4C49,238.2,49.8,241.5,50.5,244.8z"/>
			</g>
			<path class="st15" d="M274.2,278.7h-28.7l-32.3,1.2c0,0,0.3-63.9,6.7-81.1c0,0,16.4,8,25.8,15.2c2.9,2.2,5.1,4.4,6,6.2
				C255.6,227.9,274.2,278.7,274.2,278.7z"/>
			<path class="st16" d="M239.5,238c0,0-19.6,16.5-26.3,41.9c-2.2-27.4,0.3-63.9,6.7-81.1C227.5,217,239.5,238,239.5,238z"/>
			<path class="st17" d="M240,232.5c0,0-18.5,12-26.8,47.4c-2.2-27.4,0.3-63.9,6.7-81.1C227.5,217,240,232.5,240,232.5z"/>
			<path class="st15" d="M274.2,278.7h-33.1c-2.4-19.4-2.1-56.6,1-62.1c1-1.8,2.3-2.6,3.6-2.7c2.9,2.2,5.1,4.4,6,6.2
				C255.6,227.9,274.2,278.7,274.2,278.7z"/>
			<path class="st22" d="M223.6,229.1c0.6,0.4,1.4,1.8,0.4,4.5c-1,2.6-1.9,4.8-2.2,5.6"/>
			<ellipse transform="matrix(0.9723 -0.2336 0.2336 0.9723 -48.5062 58.3425)" class="st23" cx="222" cy="233.9" rx="1" ry="2.5"/>
			
				<ellipse transform="matrix(0.6189 -0.7855 0.7855 0.6189 -96.3313 266.332)" class="st23" cx="226.3" cy="232.4" rx="2.5" ry="1"/>
			<circle class="st7" cx="224.1" cy="229.2" r="2.5"/>
		</g>
	</g>
</g>
</svg>
