<svg width="276" height="276" viewBox="0 0 276 276" fill="none" xmlns="http://www.w3.org/2000/svg">
<g clip-path="url(#clip0_1032_34442)">
<path d="M-37 -251H293V435H-37V-251Z" fill="#CFDDF1"/>
<path opacity="0.36" d="M293 -30.2768V160L-37 -154.706V-278H33.1875L293 -30.2768Z" fill="white"/>
<path opacity="0.36" d="M293 396L-37 80.0369V-111L293 204.963V396Z" fill="white"/>
<path d="M-37 242H293V296H-37V242Z" fill="#0F4864"/>
<g filter="url(#filter0_d_1032_34442)">
<path d="M191.43 173.421C179.084 173.777 167.225 178.507 158.271 186.938C155.477 189.569 153.032 192.494 151.478 195.604C145.266 208.054 138.243 240.892 138.243 240.892C138.243 240.892 137.971 250.404 133 276.032L285.468 276.495C285.468 276.495 286.364 237.377 278.146 210.53C271.147 187.663 246.153 175.303 225.508 173.422C217.798 172.721 205.473 173.018 191.43 173.421Z" fill="#49263E"/>
<path opacity="0.2" d="M164.743 255.92C164.329 255.92 163.989 255.532 163.989 255.047V210.67C163.989 210.191 164.325 209.797 164.743 209.797C165.156 209.797 165.496 210.186 165.496 210.67V255.047C165.496 255.532 165.156 255.92 164.743 255.92Z" fill="white"/>
<path d="M237.633 129.166C237.633 134.193 233.546 138.269 228.506 138.269C223.467 138.269 219.38 134.193 219.38 129.166C219.38 124.139 223.467 120.062 228.506 120.062C233.546 120.062 237.633 124.139 237.633 129.166Z" fill="#75434B"/>
<path d="M198.465 119.475C198.465 125.501 193.565 130.389 187.523 130.389C181.482 130.389 176.582 125.501 176.582 119.475C176.582 113.448 181.478 108.56 187.523 108.56C193.569 108.56 198.465 113.448 198.465 119.475Z" fill="#75434B"/>
<path d="M214.329 111.746C214.329 117.773 209.429 122.661 203.388 122.661C197.346 122.661 192.446 117.773 192.446 111.746C192.446 105.72 197.346 100.832 203.388 100.832C209.429 100.832 214.329 105.72 214.329 111.746Z" fill="#75434B"/>
<path d="M203.389 120.125C196.997 120.125 191.799 114.94 191.799 108.564C191.799 102.189 196.997 97 203.389 97C209.78 97 214.982 102.189 214.982 108.564C214.982 114.94 209.78 120.125 203.389 120.125ZM203.389 98.2962C197.716 98.2962 193.098 102.902 193.098 108.564C193.098 114.223 197.716 118.829 203.389 118.829C209.065 118.829 213.683 114.223 213.683 108.564C213.683 102.902 209.065 98.2962 203.389 98.2962Z" fill="#75434B"/>
<path d="M230.756 116.909C230.756 122.935 225.856 127.823 219.814 127.823C213.772 127.823 208.872 122.935 208.872 116.909C208.872 110.882 213.769 105.994 219.814 105.994C225.859 105.994 230.756 110.878 230.756 116.909Z" fill="#75434B"/>
<path d="M174.516 276.715C174.192 276.715 173.917 276.478 173.872 276.152L168.674 236.671C168.625 236.318 168.877 235.991 169.231 235.942C169.612 235.909 169.913 236.149 169.962 236.499L175.16 275.979C175.205 276.332 174.957 276.659 174.603 276.708C174.572 276.711 174.542 276.715 174.516 276.715Z" fill="#49263E"/>
<path d="M220.146 249.405C220.146 249.405 242.444 237.243 268.124 240.809L279.928 276.663L221.735 276.066L220.146 249.405Z" fill="#49263E"/>
<path d="M223.661 171.098L224.115 123.657L213.415 120.091L212.364 123.172C206.981 123.995 184.563 122.763 184.563 122.763C184.563 122.763 182.13 156.817 185.004 161.27C188.303 166.383 191.584 165.605 196.145 165.14V172.534C196.145 174.299 196.601 176.043 197.524 177.546C198.804 179.635 201.158 182.02 205.294 182.31C210.801 182.697 215.776 180.27 219.419 177.703C223.287 174.98 223.661 171.098 223.661 171.098Z" fill="#FF9D76"/>
<path d="M224.789 118.003C218.491 111.195 199.074 106.893 188.686 114.622C183.745 118.296 180.539 126.532 184.102 130.48L184.257 126.682C189.545 124.398 199.881 124.901 206.095 126.517C207.274 126.825 208.442 126.862 208.37 128.076C208.261 129.932 208.559 132.321 210.099 134.636C212.476 138.216 214.777 136.522 214.777 136.522L217.339 145.19C217.339 145.19 215.297 152.546 223.877 157.821C223.877 157.821 223.606 154.752 227.444 145.051C230.092 138.348 232.71 126.562 224.789 118.003Z" fill="#75434B"/>
<path d="M209.219 164.801C202.996 165.271 196.145 165.139 196.145 165.139V172.534C196.145 173.698 196.348 174.855 196.751 175.941L210.24 166.815C211.102 166.06 210.364 164.715 209.219 164.801Z" fill="#EF685E"/>
<path d="M189.418 133.524H183.753C183.395 133.524 183.101 133.235 183.101 132.874C183.101 132.517 183.391 132.224 183.753 132.224H189.418C189.775 132.224 190.069 132.513 190.069 132.874C190.069 133.235 189.775 133.524 189.418 133.524Z" fill="#75434B"/>
<path d="M203.015 133.524H194.939C194.581 133.524 194.288 133.235 194.288 132.874C194.288 132.517 194.578 132.224 194.939 132.224H203.015C203.373 132.224 203.666 132.513 203.666 132.874C203.666 133.235 203.373 133.524 203.015 133.524Z" fill="#75434B"/>
<path d="M199.003 139.723C198.539 139.73 198.155 139.358 198.148 138.896L198.125 137.551C198.118 137.089 198.49 136.706 198.954 136.698C199.417 136.691 199.801 137.063 199.809 137.525L199.831 138.87C199.839 139.332 199.466 139.715 199.003 139.723Z" fill="#49263E"/>
<path d="M186.614 139.903C186.151 139.91 185.767 139.538 185.76 139.076L185.737 137.731C185.729 137.269 186.102 136.886 186.566 136.878C187.029 136.871 187.413 137.243 187.421 137.705L187.443 139.05C187.451 139.512 187.078 139.895 186.614 139.903Z" fill="#49263E"/>
<path d="M211.366 138.404C211.66 136.743 214.53 135.019 217.174 134.951C219.818 134.883 221.863 136.709 221.724 140.647C221.585 144.584 216.157 146.335 214.82 144.847C213.486 143.363 211.05 140.204 211.366 138.404Z" fill="#FF9D76"/>
<path d="M213.502 141.063C213.163 141.063 212.876 140.804 212.854 140.466C212.767 139.324 213.238 136.983 215.63 136.269C218.281 135.477 219.924 137.712 220.413 139.001C220.541 139.335 220.376 139.707 220.04 139.839C219.709 139.97 219.332 139.801 219.2 139.467C219.159 139.361 218.183 136.859 215.999 137.513C213.999 138.11 214.138 140.274 214.146 140.365C214.172 140.722 213.905 141.033 213.547 141.06C213.535 141.063 213.517 141.063 213.502 141.063Z" fill="#EF685E"/>
<path d="M181.787 266.06C181.501 264.204 181.026 262.45 180.401 260.834C179.086 257.441 176.216 255.067 173.079 253.395C170.092 251.802 165.515 249.382 162.077 249.728C161.304 249.807 160.657 249.991 160.11 250.262C159.35 250.002 158.581 249.807 157.798 249.732C156.246 249.161 154.547 249.371 153.131 250.205C150.479 248.563 147.067 249.559 145.379 252.294C144.34 251.182 142.766 250.769 140.943 251.588C137.707 253.038 137.662 256.731 137.157 259.737C136.807 261.834 136.268 263.9 135.549 265.903C134.991 267.454 134.019 269.066 134.456 270.768C135.221 273.74 138.826 273.999 141.018 272.463C142.253 273.545 144.197 273.639 145.779 272.951C146.871 273.158 148.02 273.131 149.074 272.91C149.459 272.827 149.813 272.718 150.144 272.59C151.432 273.098 152.901 273.207 154.257 272.992C154.709 273.12 155.176 273.191 155.643 273.199C156.841 273.214 157.851 272.962 158.706 272.511C159.576 272.962 160.423 273.188 161.274 273.199C164.457 273.24 166.333 271.388 167.414 268.923C167.919 268.961 168.423 268.995 168.924 269.032C169.621 269.081 171.501 269.089 173.418 268.95C173.798 268.976 174.179 269.002 174.559 269.032C175.636 269.107 179.52 269.081 182.039 268.589C182.002 267.747 181.919 266.91 181.787 266.06Z" fill="#FF9D76"/>
<path d="M164.959 270.84C164.789 270.84 164.62 270.773 164.492 270.645C164.243 270.386 164.251 269.976 164.507 269.725C167.332 267.001 167.486 257.548 167.486 257.45C167.494 257.097 167.78 256.811 168.138 256.811C168.507 256.819 168.79 257.112 168.79 257.469C168.782 257.878 168.624 267.56 165.415 270.66C165.287 270.78 165.121 270.84 164.959 270.84Z" fill="#EF685E"/>
<path d="M156.513 270.889C156.437 270.889 156.358 270.874 156.283 270.848C155.948 270.72 155.778 270.344 155.903 270.01C157.631 265.426 158.761 250.773 158.773 250.623C158.799 250.27 159.063 249.984 159.469 250.026C159.827 250.052 160.095 250.364 160.068 250.721C160.023 251.329 158.912 265.712 157.119 270.468C157.021 270.727 156.773 270.889 156.513 270.889Z" fill="#EF685E"/>
<path d="M148.302 272.151C148.227 272.151 148.148 272.136 148.073 272.11C147.737 271.982 147.568 271.606 147.692 271.272C149.432 266.666 152.005 250.022 152.031 249.852C152.084 249.499 152.4 249.255 152.773 249.311C153.127 249.364 153.372 249.695 153.316 250.052C153.21 250.743 150.698 266.996 148.909 271.73C148.811 271.99 148.566 272.151 148.302 272.151Z" fill="#EF685E"/>
<path d="M141.428 272.817C141.353 272.817 141.274 272.802 141.199 272.776C140.863 272.648 140.694 272.272 140.818 271.938C142.554 267.335 144.713 252.348 144.735 252.198C144.788 251.845 145.112 251.6 145.47 251.645C145.824 251.698 146.072 252.025 146.024 252.378C145.933 253.002 143.82 267.658 142.035 272.392C141.937 272.655 141.692 272.817 141.428 272.817Z" fill="#EF685E"/>
<path d="M177.744 256.785L220.144 249.406C227.5 250.676 235.734 266.516 230.017 275.822L176.087 275.976L177.744 256.785Z" fill="#FF9D76"/>
<path opacity="0.2" d="M278.564 259.011C278.376 259.011 278.184 258.91 278.071 258.722C263.884 235.21 234.218 245.132 233.916 245.237C233.611 245.35 233.272 245.158 233.176 244.813C233.08 244.471 233.251 244.106 233.563 244.001C233.865 243.9 264.388 233.688 279.058 258.008C279.24 258.309 279.164 258.711 278.894 258.906C278.791 258.977 278.678 259.011 278.564 259.011Z" fill="white"/>
<path opacity="0.2" d="M242.561 242.946C242.244 242.884 242.009 242.642 242.02 242.374L243.144 212.249C243.156 211.96 243.451 211.748 243.805 211.777C244.184 211.814 244.443 212.073 244.432 212.359L243.307 242.484C243.295 242.774 243.001 242.986 242.646 242.957C242.616 242.954 242.586 242.951 242.561 242.946Z" fill="white"/>
<path d="M215.079 135.598H179.165C178.807 135.598 178.514 135.309 178.514 134.948C178.514 134.591 178.804 134.298 179.165 134.298H215.079C215.437 134.298 215.731 134.587 215.731 134.948C215.731 135.309 215.441 135.598 215.079 135.598Z" fill="#49263E"/>
<path d="M198.466 145.587C195.14 145.587 192.432 142.889 192.432 139.571V135.378C192.432 135.022 192.722 134.729 193.083 134.729C193.441 134.729 193.735 135.018 193.735 135.378V139.571C193.735 142.171 195.855 144.29 198.466 144.29C201.072 144.29 203.193 142.175 203.193 139.571V135.378C203.193 135.022 203.483 134.729 203.844 134.729C204.202 134.729 204.496 135.018 204.496 135.378V139.571C204.496 142.889 201.792 145.587 198.466 145.587Z" fill="#49263E"/>
<path d="M184.548 145.587C181.222 145.587 178.514 142.889 178.514 139.571V135.378C178.514 135.022 178.804 134.729 179.165 134.729C179.523 134.729 179.817 135.018 179.817 135.378V139.571C179.817 142.171 181.937 144.29 184.548 144.29C184.958 144.29 185.369 144.238 185.761 144.136C186.103 144.031 186.465 144.249 186.555 144.595C186.649 144.94 186.442 145.297 186.096 145.388C185.595 145.519 185.075 145.587 184.548 145.587Z" fill="#49263E"/>
<path d="M189.907 150.009C187.003 149.532 185.059 147.773 185.07 145.718C185.082 144.223 185.801 143.107 186.637 141.822C187.089 141.131 187.598 140.349 188.057 139.403C189.153 137.156 189.579 133.331 189.583 133.29C189.624 132.933 189.933 132.715 190.302 132.715C190.66 132.756 190.916 133.076 190.878 133.432C190.86 133.598 190.423 137.52 189.229 139.966C188.735 140.984 188.2 141.803 187.73 142.529C186.942 143.735 186.377 144.606 186.37 145.726C186.362 147.108 187.891 148.367 190.008 148.72C190.366 148.78 190.603 149.115 190.543 149.464C190.494 149.784 190.216 150.009 189.907 150.009Z" fill="#EF685E"/>
<path d="M197.771 120.855C197.771 125.882 193.685 129.958 188.645 129.958C183.605 129.958 179.519 125.882 179.519 120.855C179.519 115.828 183.605 111.751 188.645 111.751C193.685 111.747 197.771 115.824 197.771 120.855Z" fill="#75434B"/>
<path d="M230.082 121.335C229.879 121.335 229.679 121.241 229.551 121.065C229.34 120.772 229.408 120.366 229.702 120.159C232.071 118.472 231.43 112.123 230.982 109.82C230.914 109.466 231.144 109.128 231.498 109.061C231.837 108.982 232.191 109.222 232.259 109.575C232.331 109.943 233.988 118.701 230.462 121.219C230.346 121.298 230.214 121.335 230.082 121.335Z" fill="#75434B"/>
<path d="M196.454 154.971C196.522 154.817 196.574 154.659 196.608 154.498C196.672 154.205 196.601 153.897 196.412 153.66C196.224 153.423 195.938 153.284 195.637 153.284L189.022 153.221C188.657 153.217 188.314 153.412 188.137 153.735C187.956 154.055 187.968 154.445 188.167 154.757C189.429 156.748 191.256 157.695 193.177 157.361C194.638 157.102 195.957 156.117 196.454 154.971Z" fill="white"/>
<path d="M183.044 265.148C182.758 265.148 182.498 264.96 182.419 264.67C181.33 260.737 177.364 257.31 177.323 257.276C177.052 257.043 177.021 256.634 177.251 256.36C177.485 256.085 177.895 256.055 178.17 256.288C178.343 256.438 182.479 260 183.673 264.321C183.767 264.667 183.564 265.027 183.221 265.121C183.157 265.14 183.101 265.148 183.044 265.148Z" fill="#EF685E"/>
<path opacity="0.2" d="M269.353 241.872C269.044 241.872 268.769 241.651 268.712 241.335C268.652 240.982 268.89 240.647 269.244 240.584L275.312 239.517C275.677 239.453 276.005 239.693 276.065 240.046C276.125 240.399 275.888 240.734 275.534 240.798L269.466 241.865C269.424 241.868 269.387 241.872 269.353 241.872Z" fill="white"/>
<path d="M212.973 120.855C212.973 125.882 208.886 129.958 203.847 129.958C198.807 129.958 194.72 125.882 194.72 120.855C194.72 115.828 198.807 111.751 203.847 111.751C208.886 111.747 212.973 115.824 212.973 120.855Z" fill="#75434B"/>
<path d="M176.582 112.398C176.42 112.398 176.262 112.338 176.134 112.221C175.874 111.973 175.863 111.564 176.107 111.301C183.58 103.422 192.839 109.584 192.936 109.651C193.23 109.85 193.306 110.256 193.106 110.549C192.906 110.85 192.5 110.917 192.206 110.722C191.863 110.489 183.75 105.131 177.057 112.191C176.925 112.33 176.755 112.398 176.582 112.398Z" fill="#75434B"/>
</g>
<path d="M190.89 276.165H77.5279C75.6521 276.165 74.1191 274.636 74.1191 272.765V272.543C74.1191 270.672 75.6521 269.143 77.5279 269.143H190.89C192.766 269.143 194.299 270.672 194.299 272.543V272.765C194.299 274.632 192.766 276.165 190.89 276.165Z" fill="#D4D4D4"/>
<path d="M143.786 269.138C143.997 268.037 143.99 266.873 143.73 265.697L130.027 203.79C129.161 199.867 125.676 197.076 121.65 197.076H32.5822C27.0981 197.076 23.0227 202.137 24.2054 207.479L37.9082 269.386C38.7745 273.309 42.2585 276.1 46.285 276.1H76.8807C77.0917 276.141 77.3064 276.164 77.5286 276.164H147.681C147.681 276.164 149.907 273.395 152.4 269.138H143.786Z" fill="white"/>
<path d="M85.8464 234.191C86.811 237.329 85.3228 240.276 82.5289 240.773C79.7316 241.268 76.6862 239.126 75.7216 235.988C74.757 232.85 76.2452 229.903 79.0391 229.406C81.833 228.91 84.8818 231.05 85.8464 234.191Z" fill="#BBBBBB"/>
<path d="M137.619 272.376H46.4173C46.0399 272.376 45.73 272.153 45.73 271.876C45.73 271.601 46.0359 271.376 46.4173 271.376H137.619C137.996 271.376 138.306 271.598 138.306 271.876C138.302 272.153 137.996 272.376 137.619 272.376Z" fill="#BBBBBB"/>
<path d="M138.315 260.753C137.987 260.753 137.692 260.534 137.622 260.213L126.714 210.328C126.632 209.965 126.878 209.609 127.263 209.531C127.636 209.464 128.022 209.691 128.1 210.055L139.007 259.94C139.089 260.303 138.843 260.659 138.458 260.737C138.409 260.745 138.364 260.753 138.315 260.753Z" fill="#BBBBBB"/>
</g>
<defs>
<filter id="filter0_d_1032_34442" x="19.9375" y="93" width="300.062" height="209.822" filterUnits="userSpaceOnUse" color-interpolation-filters="sRGB">
<feFlood flood-opacity="0" result="BackgroundImageFix"/>
<feColorMatrix in="SourceAlpha" type="matrix" values="0 0 0 0 0 0 0 0 0 0 0 0 0 0 0 0 0 0 127 0" result="hardAlpha"/>
<feOffset dy="8"/>
<feGaussianBlur stdDeviation="6"/>
<feComposite in2="hardAlpha" operator="out"/>
<feColorMatrix type="matrix" values="0 0 0 0 0 0 0 0 0 0 0 0 0 0 0 0 0 0 0.25 0"/>
<feBlend mode="normal" in2="BackgroundImageFix" result="effect1_dropShadow_1032_34442"/>
<feBlend mode="normal" in="SourceGraphic" in2="effect1_dropShadow_1032_34442" result="shape"/>
</filter>
<clipPath id="clip0_1032_34442">
<rect width="276" height="276" fill="white"/>
</clipPath>
</defs>
</svg>
